<svg width="60" height="60" viewBox="0 0 60 60" fill="none" xmlns="http://www.w3.org/2000/svg">
<path d="M49.9999 0.588344C52.5 0.588344 54.8626 1.56926 56.6472 3.35246C58.4314 5.13703 59.4113 7.5 59.4113 10.0001V49.9999C59.4113 52.5 58.4311 54.863 56.6472 56.6468C54.8626 58.4314 52.4997 59.4117 49.9999 59.4117H10.0001C7.5 59.4117 5.13737 58.4314 3.35314 56.6468C1.56857 54.863 0.588343 52.5 0.588343 49.9999V10.0001C0.588343 7.5 1.56857 5.13703 3.35314 3.35246C5.13771 1.56926 7.50034 0.588344 10.0001 0.588344H49.9999ZM49.9999 0H10.0001C4.5 0 0 4.5 0 10.0001V49.9999C0 55.5 4.5 60 10.0001 60H49.9999C55.5 60 60 55.5 60 49.9999V10.0001C60 4.5 55.5 0 49.9999 0Z" fill="url(#paint0_linear_808_21888)"/>
<path d="M16.3027 13.0391H33.3126C36.4494 13.0391 38.9694 13.7539 40.8619 15.1953C42.7545 16.6363 43.7052 18.8025 43.7052 21.7147C43.7052 23.4794 43.2739 24.9897 42.4116 26.2445C41.5483 27.4991 40.3137 28.4803 38.705 29.166V29.2631C40.8626 29.7246 42.4991 30.7435 43.6068 32.3224C44.7146 33.9108 45.2735 35.8908 45.2735 38.2836C45.2735 39.6561 45.0283 40.9408 44.538 42.1267C44.0478 43.3223 43.2828 44.3529 42.2337 45.2145C41.1846 46.0774 39.8519 46.7645 38.214 47.2737C36.5772 47.7838 34.6353 48.0386 32.381 48.0386H16.3027V13.0391ZM22.4303 27.6955H32.4304C33.9012 27.6955 35.1263 27.2837 36.1068 26.4406C37.0874 25.5976 37.5774 24.4013 37.5774 22.8321C37.5774 21.0677 37.1361 19.8235 36.2546 19.108C35.3724 18.3917 34.0977 18.0293 32.4311 18.0293H22.4303V27.6955ZM22.4303 43.0391H33.2635C35.127 43.0391 36.5776 42.5577 37.5979 41.5874C38.6268 40.6267 39.1473 39.2539 39.1473 37.4892C39.1473 35.754 38.6371 34.4306 37.5979 33.4891C36.5587 32.5483 35.127 32.0971 33.2635 32.0971H22.4303V43.0391Z" fill="#3BB1DC"/>
<defs>
<linearGradient id="paint0_linear_808_21888" x1="30.0003" y1="60" x2="30.0003" y2="0" gradientUnits="userSpaceOnUse">
<stop stop-color="#3BB1DC"/>
<stop offset="1" stop-color="#60F0FF"/>
</linearGradient>
</defs>
</svg>
