<svg width="60" height="68" viewBox="0 0 60 68" fill="none" xmlns="http://www.w3.org/2000/svg">
<g clip-path="url(#clip0_808_21931)">
<path d="M59.899 20.1024C59.8985 18.9703 59.6564 17.97 59.1668 17.1115C58.6859 16.2673 57.9656 15.5597 56.9995 15.0003C49.0249 10.4021 41.0426 5.81791 33.0705 1.21502C30.9213 -0.0257615 28.8375 0.0194729 26.7042 1.27807C23.5301 3.15002 7.63828 12.2548 2.90273 14.9977C0.9525 16.1267 0.00351563 17.8545 0.00304688 20.1003C0 29.3475 0.00304688 38.5946 0 47.842C0.00046875 48.9492 0.232266 49.9301 0.700312 50.7757C1.18148 51.6455 1.9118 52.3725 2.90016 52.9446C7.63594 55.6875 23.5298 64.7916 26.7033 66.664C28.8375 67.9233 30.9213 67.9683 33.0713 66.7271C41.0435 62.1239 49.0263 57.54 57.0021 52.9418C57.9905 52.3699 58.7208 51.6424 59.202 50.7734C59.6693 49.9277 59.9016 48.9469 59.902 47.8395C59.902 47.8395 59.902 29.3499 59.899 20.1024Z" fill="#5C8DBC"/>
<path d="M30.0435 33.8828L0.701172 50.7775C1.18234 51.6473 1.91266 52.3743 2.90102 52.9464C7.6368 55.6893 23.5307 64.7934 26.7041 66.6658C28.8384 67.9251 30.9222 67.9701 33.0721 66.7288C41.0444 62.1257 49.0272 57.5418 57.003 52.9436C57.9913 52.3717 58.7216 51.6442 59.2028 50.7752L30.0435 33.8828Z" fill="#1A4674"/>
<path d="M21.3516 38.8872C23.059 41.868 26.2688 43.8784 29.9508 43.8784C33.6555 43.8784 36.8836 41.8424 38.5823 38.8298L30.0424 33.8828L21.3516 38.8872Z" fill="#1A4674"/>
<path d="M59.8993 20.1041C59.8988 18.9721 59.6567 17.9718 59.1671 17.1133L30.043 33.8828L59.2023 50.7752C59.6696 49.9295 59.9019 48.9487 59.9023 47.8413C59.9023 47.8413 59.9023 29.3516 59.8993 20.1041Z" fill="#1B598E"/>
<path d="M58.2965 35.0882H56.0179V37.3673H53.7388V35.0882H51.4605V32.8098H53.7388V30.5312H56.0179V32.8098H58.2965V35.0882ZM49.982 35.0882H47.7037V37.3673H45.4251V35.0882H43.1465V32.8098H45.4251V30.5312H47.7037V32.8098H49.982V35.0882Z" fill="white"/>
<path d="M38.5827 38.8274C36.884 41.8401 33.6559 43.8761 29.9512 43.8761C26.2691 43.8761 23.0594 41.8656 21.352 38.8848C20.4942 37.3891 20.0438 35.6947 20.0455 33.9705C20.0455 28.4999 24.4806 24.0651 29.9512 24.0651C33.6095 24.0651 36.8024 26.0505 38.5183 29.0008L47.1763 24.0152C43.735 18.0747 37.3101 14.0781 29.9512 14.0781C18.9646 14.0781 10.0586 22.9844 10.0586 33.9705C10.0586 37.5747 11.0174 40.9546 12.6932 43.87C16.1259 49.8419 22.5691 53.863 29.9512 53.863C37.3469 53.863 43.8002 49.8257 47.2279 43.8363L38.5827 38.8274Z" fill="white"/>
</g>
<defs>
<clipPath id="clip0_808_21931">
<rect width="60" height="67.5068" fill="white" transform="translate(0 0.246094)"/>
</clipPath>
</defs>
</svg>
