<svg width="34" height="36" viewBox="0 0 34 36" fill="none" xmlns="http://www.w3.org/2000/svg">
<path d="M3.33333 10.3359H26.6667V7.0026H3.33333V10.3359ZM3.33333 33.6693C2.41667 33.6693 1.63194 33.3429 0.979167 32.6901C0.326389 32.0373 0 31.2526 0 30.3359V7.0026C0 6.08594 0.326389 5.30122 0.979167 4.64844C1.63194 3.99566 2.41667 3.66927 3.33333 3.66927H5V0.335938H8.33333V3.66927H21.6667V0.335938H25V3.66927H26.6667C27.5833 3.66927 28.3681 3.99566 29.0208 4.64844C29.6736 5.30122 30 6.08594 30 7.0026V16.4609C29.4722 16.2109 28.9306 16.0026 28.375 15.8359C27.8194 15.6693 27.25 15.5443 26.6667 15.4609V13.6693H3.33333V30.3359H13.8333C14.0278 30.947 14.2569 31.5304 14.5208 32.0859C14.7847 32.6415 15.0972 33.1693 15.4583 33.6693H3.33333ZM25 35.3359C22.6944 35.3359 20.7292 34.5234 19.1042 32.8984C17.4792 31.2734 16.6667 29.3082 16.6667 27.0026C16.6667 24.697 17.4792 22.7318 19.1042 21.1068C20.7292 19.4818 22.6944 18.6693 25 18.6693C27.3056 18.6693 29.2708 19.4818 30.8958 21.1068C32.5208 22.7318 33.3333 24.697 33.3333 27.0026C33.3333 29.3082 32.5208 31.2734 30.8958 32.8984C29.2708 34.5234 27.3056 35.3359 25 35.3359ZM27.7917 30.9609L28.9583 29.7943L25.8333 26.6693V22.0026H24.1667V27.3359L27.7917 30.9609Z" fill="#24774A"/>
</svg>
