<svg width="450" height="450" viewBox="0 0 450 450" fill="none" xmlns="http://www.w3.org/2000/svg">
<path d="M450 344.158H0V344.383H450V344.158Z" fill="#EBEBEB"/>
<path d="M404.911 358.645H375.102V358.87H404.911V358.645Z" fill="#EBEBEB"/>
<path d="M298.099 361.087H290.275V361.312H298.099V361.087Z" fill="#EBEBEB"/>
<path d="M374.201 350.287H356.928V350.512H374.201V350.287Z" fill="#EBEBEB"/>
<path d="M86.0866 351.799H47.2129V352.024H86.0866V351.799Z" fill="#EBEBEB"/>
<path d="M99.8013 351.799H94.1016V352.024H99.8013V351.799Z" fill="#EBEBEB"/>
<path d="M202.633 355.601H118.324V355.826H202.633V355.601Z" fill="#EBEBEB"/>
<path d="M213.313 304.02H39.5239C36.6916 304.02 34.3867 301.715 34.3867 298.883V54.5942C34.3867 51.7619 36.6916 49.457 39.5239 49.457H213.313C216.144 49.457 218.449 51.7619 218.449 54.5942V298.883C218.449 301.715 216.144 304.02 213.313 304.02ZM39.5239 49.6829C36.8149 49.6829 34.6117 51.8861 34.6117 54.5951V298.884C34.6117 301.593 36.8149 303.796 39.5239 303.796H213.313C216.021 303.796 218.224 301.593 218.224 298.884V54.5942C218.224 51.8861 216.021 49.682 213.313 49.682L39.5239 49.6829Z" fill="#EBEBEB"/>
<path d="M407.979 304.02H234.191C231.359 304.02 229.055 301.715 229.055 298.883V54.5942C229.055 51.7619 231.36 49.457 234.191 49.457H407.979C410.812 49.457 413.116 51.7619 413.116 54.5942V298.883C413.117 301.715 410.812 304.02 407.979 304.02ZM234.191 49.6829C231.483 49.6829 229.28 51.8861 229.28 54.5951V298.884C229.28 301.593 231.483 303.796 234.191 303.796H407.979C410.688 303.796 412.891 301.593 412.891 298.884V54.5942C412.891 51.8861 410.688 49.682 407.979 49.682L234.191 49.6829Z" fill="#EBEBEB"/>
<path d="M77.07 92.5654C77.169 80.7736 86.7549 71.2444 98.5701 71.2444C101.417 71.2444 104.132 71.8024 106.619 72.8077C110.842 64.1695 119.712 58.2178 129.976 58.2178C142.388 58.2178 152.759 66.9217 155.339 78.5569C167.012 79.3075 176.248 89.0077 176.248 100.87C176.248 113.222 166.235 123.235 153.883 123.235H82.7157C73.9596 123.235 66.8613 116.136 66.8613 107.38C66.8613 100.614 71.1021 94.8415 77.07 92.5654Z" fill="#E0E0E0"/>
<path d="M329.479 267.987C329.54 260.711 335.455 254.831 342.745 254.831C344.501 254.831 346.176 255.176 347.711 255.796C350.316 250.465 355.79 246.793 362.123 246.793C369.781 246.793 376.181 252.163 377.773 259.343C384.975 259.807 390.674 265.792 390.674 273.112C390.674 280.734 384.496 286.911 376.874 286.911H332.961C327.558 286.911 323.178 282.532 323.178 277.128C323.18 272.953 325.797 269.391 329.479 267.987Z" fill="#E0E0E0"/>
<path d="M91.9352 228.803C92.0387 216.443 102.087 206.453 114.472 206.453C117.457 206.453 120.303 207.038 122.91 208.091C127.336 199.036 136.635 192.797 147.393 192.797C160.404 192.797 171.277 201.921 173.98 214.118C186.217 214.904 195.899 225.073 195.899 237.508C195.899 250.456 185.402 260.953 172.454 260.953H97.8518C88.6736 260.953 81.2324 253.513 81.2324 244.334C81.2333 237.241 85.6793 231.189 91.9352 228.803Z" fill="#F0F0F0"/>
<path d="M107.452 250.195C107.452 252.073 105.93 253.597 104.05 253.597C102.171 253.597 100.648 252.074 100.648 250.195C100.648 248.316 102.171 246.793 104.05 246.793C105.93 246.793 107.452 248.317 107.452 250.195Z" fill="#E6E6E6"/>
<path d="M120.279 250.195C120.279 252.073 118.756 253.597 116.877 253.597C114.997 253.597 113.475 252.074 113.475 250.195C113.475 248.316 114.997 246.793 116.877 246.793C118.756 246.793 120.279 248.317 120.279 250.195Z" fill="white"/>
<path d="M324.63 119.936C324.702 111.375 331.662 104.456 340.24 104.456C342.306 104.456 344.278 104.862 346.084 105.591C349.149 99.319 355.589 94.999 363.04 94.999C372.051 94.999 379.582 101.318 381.454 109.765C389.929 110.311 396.635 117.353 396.635 125.965C396.635 134.933 389.365 142.203 380.397 142.203H328.729C322.372 142.203 317.219 137.05 317.219 130.693C317.219 125.78 320.298 121.589 324.63 119.936Z" fill="#F5F5F5"/>
<path d="M371.772 134.121C371.772 135.336 370.787 136.322 369.572 136.322C368.357 136.322 367.371 135.336 367.371 134.121C367.371 132.906 368.357 131.921 369.572 131.921C370.787 131.921 371.772 132.906 371.772 134.121Z" fill="white"/>
<path d="M380.069 134.121C380.069 135.336 379.083 136.322 377.868 136.322C376.653 136.322 375.668 135.336 375.668 134.121C375.668 132.906 376.653 131.921 377.868 131.921C379.083 131.921 380.069 132.906 380.069 134.121Z" fill="white"/>
<path d="M363.475 134.121C363.475 135.336 362.49 136.322 361.275 136.322C360.06 136.322 359.074 135.336 359.074 134.121C359.074 132.906 360.06 131.921 361.275 131.921C362.49 131.921 363.475 132.906 363.475 134.121Z" fill="#E6E6E6"/>
<path d="M225 384.804C321.374 384.804 399.5 380.242 399.5 374.614C399.5 368.985 321.374 364.423 225 364.423C128.626 364.423 50.5 368.985 50.5 374.614C50.5 380.242 128.626 384.804 225 384.804Z" fill="#F5F5F5"/>
<path d="M181.303 87.6863H164.753C142.791 87.6863 123.961 101.051 115.921 120.086H102.753C77.6791 120.086 57.3535 140.413 57.3535 165.487C57.3535 190.56 77.68 210.886 102.753 210.886H181.303V87.6863Z" fill="#24774A"/>
<path d="M142.195 90.2325L141.828 89.4108C143.892 88.4892 146.035 87.6837 148.197 87.0186L148.461 87.8781C146.334 88.5333 144.226 89.3253 142.195 90.2325Z" fill="#24774A"/>
<path d="M121.659 106.097L120.957 105.533C125.109 100.352 130.099 95.988 135.788 92.5635L136.253 93.3348C130.655 96.7044 125.745 100.998 121.659 106.097Z" fill="#24774A"/>
<path opacity="0.2" d="M181.303 87.6863H164.753C142.791 87.6863 123.961 101.051 115.921 120.086H102.753C77.6791 120.086 57.3535 140.413 57.3535 165.487C57.3535 190.56 77.68 210.886 102.753 210.886H181.303V87.6863Z" fill="black"/>
<path opacity="0.5" d="M119.066 113.851H142.808L160.358 98.2539H133.016C127.4 102.466 122.639 107.767 119.066 113.851Z" fill="#24774A"/>
<path opacity="0.5" d="M65.1101 140.104C61.9601 144.757 59.6561 150.031 58.4141 155.701H85.5041V140.104H65.1101Z" fill="#24774A"/>
<path opacity="0.5" d="M176.251 91.3242H145.435C142.123 92.6202 138.964 94.2402 136.021 96.1482H158.701L176.251 91.3242Z" fill="#24774A"/>
<path d="M271.673 155.008C267.14 135.828 250.451 121.353 230.182 120.172C222.163 101.089 203.299 87.6865 181.302 87.6865C158.673 87.6865 139.368 101.873 131.766 121.833C127.804 120.705 123.626 120.087 119.302 120.087C94.2279 120.087 73.9023 140.413 73.9023 165.487C73.9023 190.56 94.2288 210.887 119.302 210.887H263.896C279.626 210.887 292.377 198.135 292.377 182.405C292.376 169.373 283.62 158.393 271.673 155.008Z" fill="#24774A"/>
<path opacity="0.2" d="M270.696 158.474L268.653 157.898L268.167 155.837C263.955 138.017 248.25 124.832 229.971 123.761L227.73 123.635L226.866 121.565C219.135 103.169 201.252 91.2891 181.299 91.2891C180.66 91.2891 180.03 91.2981 179.4 91.3251C198.57 92.0631 215.562 103.763 223.041 121.565L223.905 123.635L226.146 123.761C244.425 124.832 260.13 138.017 264.342 155.837L264.828 157.898L266.871 158.474C277.518 161.489 284.952 171.326 284.952 182.405C284.952 196.121 273.792 207.29 260.076 207.29H263.901C277.617 207.29 288.777 196.121 288.777 182.405C288.777 171.327 281.343 161.489 270.696 158.474Z" fill="black"/>
<path d="M266.871 158.474L264.828 157.898L264.342 155.837C260.13 138.017 244.425 124.832 226.146 123.761L223.905 123.635L223.041 121.565C215.562 103.763 198.57 92.063 179.4 91.325H179.337C159.753 92.117 142.149 104.69 135.129 123.113L133.959 126.2L130.782 125.291C130.692 125.264 130.593 125.237 130.503 125.219C126.849 124.202 123.069 123.689 119.307 123.689C118.65 123.689 118.002 123.707 117.345 123.734C95.205 124.76 77.502 143.093 77.502 165.485C77.502 188.534 96.2579 207.29 119.307 207.29H260.076C273.792 207.29 284.952 196.121 284.952 182.405C284.952 171.327 277.518 161.489 266.871 158.474Z" fill="white"/>
<path d="M163.225 153.645V189.372H199.227V153.645H210.602L181.227 120.629L151.85 153.645H163.225Z" fill="#24774A"/>
<path d="M157.825 258.382H155.981C153.397 258.382 151.303 256.288 151.303 253.704V235.201H162.503V253.704C162.503 256.288 160.408 258.382 157.825 258.382Z" fill="#24774A"/>
<path opacity="0.2" d="M157.825 258.382H155.981C153.397 258.382 151.303 256.288 151.303 253.704V235.201H162.503V253.704C162.503 256.288 160.408 258.382 157.825 258.382Z" fill="black"/>
<path d="M158.646 240.961H155.156C150.265 240.961 146.301 236.997 146.301 232.106V210.886H167.5V232.106C167.501 236.997 163.537 240.961 158.646 240.961Z" fill="#24774A"/>
<path opacity="0.2" d="M167.502 216.199L146.303 219.4V210.886H167.502V216.199Z" fill="black"/>
<path d="M163.051 229.687C164.604 229.687 165.863 228.427 165.863 226.874C165.863 225.321 164.604 224.062 163.051 224.062C161.497 224.062 160.238 225.321 160.238 226.874C160.238 228.427 161.497 229.687 163.051 229.687Z" fill="white"/>
<path opacity="0.5" d="M155.551 229.687C157.104 229.687 158.363 228.427 158.363 226.874C158.363 225.321 157.104 224.062 155.551 224.062C153.997 224.062 152.738 225.321 152.738 226.874C152.738 228.427 153.997 229.687 155.551 229.687Z" fill="white"/>
<path d="M227.502 289.5H180.302C166.159 289.5 154.652 277.994 154.652 263.85V258.384H159.152V263.85C159.152 275.512 168.64 285 180.302 285H227.502V289.5Z" fill="#24774A"/>
<path d="M337.667 176.701H260.317C253.861 176.701 248.58 181.982 248.58 188.438V362.878C248.58 369.334 253.861 374.615 260.317 374.615H337.667C344.122 374.615 349.403 369.334 349.403 362.878V188.438C349.403 181.983 344.122 176.701 337.667 176.701Z" fill="#24774A"/>
<path opacity="0.2" d="M337.667 176.701H260.317C253.861 176.701 248.58 181.982 248.58 188.438V362.878C248.58 369.334 253.861 374.615 260.317 374.615H337.667C344.122 374.615 349.403 369.334 349.403 362.878V188.438C349.403 181.983 344.122 176.701 337.667 176.701Z" fill="black"/>
<path d="M316.585 176.701H239.235C232.779 176.701 227.498 181.982 227.498 188.438V362.878C227.498 369.334 232.779 374.615 239.235 374.615H316.585C323.04 374.615 328.321 369.334 328.321 362.878V188.438C328.322 181.983 323.04 176.701 316.585 176.701Z" fill="#24774A"/>
<path opacity="0.2" d="M239.235 370.703C234.92 370.703 231.41 367.193 231.41 362.879V188.439C231.41 184.124 234.92 180.614 239.235 180.614H316.584C320.899 180.614 324.409 184.124 324.409 188.439V362.879C324.409 367.193 320.899 370.703 316.584 370.703H239.235Z" fill="black"/>
<path d="M242.875 370.703C238.561 370.703 235.051 367.193 235.051 362.879V188.439C235.051 184.124 238.561 180.614 242.875 180.614H316.584C320.899 180.614 324.409 184.124 324.409 188.439V362.879C324.409 367.193 320.899 370.703 316.584 370.703H242.875Z" fill="white"/>
<path opacity="0.3" d="M312.238 203.498H247.223C243.875 203.498 241.137 200.759 241.137 197.412C241.137 194.065 243.875 191.326 247.223 191.326H312.238C315.585 191.326 318.323 194.065 318.323 197.412C318.323 200.759 315.585 203.498 312.238 203.498Z" fill="#24774A"/>
<path d="M290.8 198.743H246.243C245.511 198.743 244.912 198.144 244.912 197.412C244.912 196.68 245.512 196.081 246.243 196.081H290.8C291.533 196.081 292.132 196.68 292.132 197.412C292.132 198.145 291.533 198.743 290.8 198.743Z" fill="white"/>
<path d="M306.884 198.743C307.619 198.743 308.215 198.147 308.215 197.412C308.215 196.677 307.619 196.081 306.884 196.081C306.149 196.081 305.553 196.677 305.553 197.412C305.553 198.147 306.149 198.743 306.884 198.743Z" fill="#24774A"/>
<path d="M312.753 198.743C313.488 198.743 314.084 198.147 314.084 197.412C314.084 196.677 313.488 196.081 312.753 196.081C312.018 196.081 311.422 196.677 311.422 197.412C311.422 198.147 312.018 198.743 312.753 198.743Z" fill="#24774A"/>
<path d="M301.017 198.743C301.752 198.743 302.348 198.147 302.348 197.412C302.348 196.677 301.752 196.081 301.017 196.081C300.282 196.081 299.686 196.677 299.686 197.412C299.686 198.147 300.282 198.743 301.017 198.743Z" fill="#24774A"/>
<path opacity="0.3" d="M312.238 223.059H247.223C243.875 223.059 241.137 220.321 241.137 216.974C241.137 213.626 243.875 210.888 247.223 210.888H312.238C315.585 210.888 318.323 213.626 318.323 216.974C318.323 220.321 315.585 223.059 312.238 223.059Z" fill="#24774A"/>
<path d="M290.8 218.305H246.243C245.511 218.305 244.912 217.705 244.912 216.974C244.912 216.241 245.512 215.643 246.243 215.643H290.8C291.533 215.643 292.132 216.242 292.132 216.974C292.132 217.706 291.533 218.305 290.8 218.305Z" fill="white"/>
<path d="M306.884 218.305C307.619 218.305 308.215 217.709 308.215 216.974C308.215 216.239 307.619 215.643 306.884 215.643C306.149 215.643 305.553 216.239 305.553 216.974C305.553 217.709 306.149 218.305 306.884 218.305Z" fill="#24774A"/>
<path d="M312.753 218.305C313.488 218.305 314.084 217.709 314.084 216.974C314.084 216.239 313.488 215.643 312.753 215.643C312.018 215.643 311.422 216.239 311.422 216.974C311.422 217.709 312.018 218.305 312.753 218.305Z" fill="#24774A"/>
<path opacity="0.3" d="M301.017 218.305C301.752 218.305 302.348 217.709 302.348 216.974C302.348 216.239 301.752 215.643 301.017 215.643C300.282 215.643 299.686 216.239 299.686 216.974C299.686 217.709 300.282 218.305 301.017 218.305Z" fill="#24774A"/>
<path opacity="0.3" d="M312.238 242.621H247.223C243.875 242.621 241.137 239.882 241.137 236.535C241.137 233.188 243.875 230.449 247.223 230.449H312.238C315.585 230.449 318.323 233.188 318.323 236.535C318.323 239.882 315.585 242.621 312.238 242.621Z" fill="#24774A"/>
<path d="M290.8 237.867H246.243C245.511 237.867 244.912 237.268 244.912 236.536C244.912 235.804 245.512 235.205 246.243 235.205H290.8C291.533 235.205 292.132 235.804 292.132 236.536C292.132 237.268 291.533 237.867 290.8 237.867Z" fill="white"/>
<path d="M306.884 237.866C307.619 237.866 308.215 237.27 308.215 236.535C308.215 235.8 307.619 235.204 306.884 235.204C306.149 235.204 305.553 235.8 305.553 236.535C305.553 237.27 306.149 237.866 306.884 237.866Z" fill="#24774A"/>
<path d="M312.753 237.866C313.488 237.866 314.084 237.27 314.084 236.535C314.084 235.8 313.488 235.204 312.753 235.204C312.018 235.204 311.422 235.8 311.422 236.535C311.422 237.27 312.018 237.866 312.753 237.866Z" fill="#24774A"/>
<path opacity="0.6" d="M301.017 237.866C301.752 237.866 302.348 237.27 302.348 236.535C302.348 235.8 301.752 235.204 301.017 235.204C300.282 235.204 299.686 235.8 299.686 236.535C299.686 237.27 300.282 237.866 301.017 237.866Z" fill="#24774A"/>
<path opacity="0.3" d="M312.238 262.183H247.223C243.875 262.183 241.137 259.445 241.137 256.098C241.137 252.75 243.875 250.012 247.223 250.012H312.238C315.585 250.012 318.323 252.75 318.323 256.098C318.323 259.445 315.585 262.183 312.238 262.183Z" fill="#24774A"/>
<path d="M290.8 257.429H246.243C245.511 257.429 244.912 256.829 244.912 256.098C244.912 255.365 245.512 254.767 246.243 254.767H290.8C291.533 254.767 292.132 255.366 292.132 256.098C292.132 256.829 291.533 257.429 290.8 257.429Z" fill="white"/>
<path d="M306.884 257.429C307.619 257.429 308.215 256.833 308.215 256.098C308.215 255.363 307.619 254.767 306.884 254.767C306.149 254.767 305.553 255.363 305.553 256.098C305.553 256.833 306.149 257.429 306.884 257.429Z" fill="#24774A"/>
<path opacity="0.3" d="M312.753 257.429C313.488 257.429 314.084 256.833 314.084 256.098C314.084 255.363 313.488 254.767 312.753 254.767C312.018 254.767 311.422 255.363 311.422 256.098C311.422 256.833 312.018 257.429 312.753 257.429Z" fill="#24774A"/>
<path opacity="0.6" d="M301.017 257.429C301.752 257.429 302.348 256.833 302.348 256.098C302.348 255.363 301.752 254.767 301.017 254.767C300.282 254.767 299.686 255.363 299.686 256.098C299.686 256.833 300.282 257.429 301.017 257.429Z" fill="#24774A"/>
<path opacity="0.3" d="M312.238 281.745H247.223C243.875 281.745 241.137 279.006 241.137 275.659C241.137 272.312 243.875 269.573 247.223 269.573H312.238C315.585 269.573 318.323 272.312 318.323 275.659C318.323 279.006 315.585 281.745 312.238 281.745Z" fill="#24774A"/>
<path d="M290.8 276.99H246.243C245.511 276.99 244.912 276.391 244.912 275.659C244.912 274.927 245.512 274.328 246.243 274.328H290.8C291.533 274.328 292.132 274.928 292.132 275.659C292.132 276.391 291.533 276.99 290.8 276.99Z" fill="white"/>
<path d="M306.884 276.99C307.619 276.99 308.215 276.394 308.215 275.659C308.215 274.924 307.619 274.328 306.884 274.328C306.149 274.328 305.553 274.924 305.553 275.659C305.553 276.394 306.149 276.99 306.884 276.99Z" fill="#24774A"/>
<path opacity="0.6" d="M312.753 276.99C313.488 276.99 314.084 276.394 314.084 275.659C314.084 274.924 313.488 274.328 312.753 274.328C312.018 274.328 311.422 274.924 311.422 275.659C311.422 276.394 312.018 276.99 312.753 276.99Z" fill="#24774A"/>
<path d="M301.017 276.99C301.752 276.99 302.348 276.394 302.348 275.659C302.348 274.924 301.752 274.328 301.017 274.328C300.282 274.328 299.686 274.924 299.686 275.659C299.686 276.394 300.282 276.99 301.017 276.99Z" fill="#24774A"/>
<path opacity="0.3" d="M312.238 301.306H247.223C243.875 301.306 241.137 298.568 241.137 295.221C241.137 291.873 243.875 289.135 247.223 289.135H312.238C315.585 289.135 318.323 291.873 318.323 295.221C318.323 298.568 315.585 301.306 312.238 301.306Z" fill="#24774A"/>
<path d="M290.8 296.552H246.243C245.511 296.552 244.912 295.952 244.912 295.221C244.912 294.488 245.512 293.89 246.243 293.89H290.8C291.533 293.89 292.132 294.489 292.132 295.221C292.132 295.953 291.533 296.552 290.8 296.552Z" fill="white"/>
<path opacity="0.3" d="M306.884 296.552C307.619 296.552 308.215 295.956 308.215 295.221C308.215 294.486 307.619 293.89 306.884 293.89C306.149 293.89 305.553 294.486 305.553 295.221C305.553 295.956 306.149 296.552 306.884 296.552Z" fill="#24774A"/>
<path d="M312.753 296.552C313.488 296.552 314.084 295.956 314.084 295.221C314.084 294.486 313.488 293.89 312.753 293.89C312.018 293.89 311.422 294.486 311.422 295.221C311.422 295.956 312.018 296.552 312.753 296.552Z" fill="#24774A"/>
<path d="M301.017 296.552C301.752 296.552 302.348 295.956 302.348 295.221C302.348 294.486 301.752 293.89 301.017 293.89C300.282 293.89 299.686 294.486 299.686 295.221C299.686 295.956 300.282 296.552 301.017 296.552Z" fill="#24774A"/>
<path opacity="0.3" d="M312.238 320.868H247.223C243.875 320.868 241.137 318.129 241.137 314.782C241.137 311.435 243.875 308.696 247.223 308.696H312.238C315.585 308.696 318.323 311.435 318.323 314.782C318.323 318.129 315.585 320.868 312.238 320.868Z" fill="#24774A"/>
<path d="M290.8 316.113H246.243C245.511 316.113 244.912 315.514 244.912 314.782C244.912 314.05 245.512 313.451 246.243 313.451H290.8C291.533 313.451 292.132 314.051 292.132 314.782C292.132 315.515 291.533 316.113 290.8 316.113Z" fill="white"/>
<path opacity="0.3" d="M306.884 316.113C307.619 316.113 308.215 315.517 308.215 314.782C308.215 314.047 307.619 313.451 306.884 313.451C306.149 313.451 305.553 314.047 305.553 314.782C305.553 315.517 306.149 316.113 306.884 316.113Z" fill="#24774A"/>
<path d="M312.753 316.113C313.488 316.113 314.084 315.517 314.084 314.782C314.084 314.047 313.488 313.451 312.753 313.451C312.018 313.451 311.422 314.047 311.422 314.782C311.422 315.517 312.018 316.113 312.753 316.113Z" fill="#24774A"/>
<path opacity="0.3" d="M301.017 316.113C301.752 316.113 302.348 315.517 302.348 314.782C302.348 314.047 301.752 313.451 301.017 313.451C300.282 313.451 299.686 314.047 299.686 314.782C299.686 315.517 300.282 316.113 301.017 316.113Z" fill="#24774A"/>
<path opacity="0.3" d="M312.238 340.429H247.223C243.875 340.429 241.137 337.691 241.137 334.344C241.137 330.997 243.875 328.258 247.223 328.258H312.238C315.585 328.258 318.323 330.997 318.323 334.344C318.323 337.691 315.585 340.429 312.238 340.429Z" fill="#24774A"/>
<path d="M290.8 335.675H246.243C245.511 335.675 244.912 335.075 244.912 334.344C244.912 333.611 245.512 333.013 246.243 333.013H290.8C291.533 333.013 292.132 333.612 292.132 334.344C292.132 335.076 291.533 335.675 290.8 335.675Z" fill="white"/>
<path d="M306.884 335.675C307.619 335.675 308.215 335.079 308.215 334.344C308.215 333.609 307.619 333.013 306.884 333.013C306.149 333.013 305.553 333.609 305.553 334.344C305.553 335.079 306.149 335.675 306.884 335.675Z" fill="#24774A"/>
<path d="M312.753 335.675C313.488 335.675 314.084 335.079 314.084 334.344C314.084 333.609 313.488 333.013 312.753 333.013C312.018 333.013 311.422 333.609 311.422 334.344C311.422 335.079 312.018 335.675 312.753 335.675Z" fill="#24774A"/>
<path d="M301.017 335.675C301.752 335.675 302.348 335.079 302.348 334.344C302.348 333.609 301.752 333.013 301.017 333.013C300.282 333.013 299.686 333.609 299.686 334.344C299.686 335.079 300.282 335.675 301.017 335.675Z" fill="#24774A"/>
<path opacity="0.3" d="M312.238 359.991H247.223C243.875 359.991 241.137 357.252 241.137 353.905C241.137 350.558 243.875 347.819 247.223 347.819H312.238C315.585 347.819 318.323 350.558 318.323 353.905C318.323 357.253 315.585 359.991 312.238 359.991Z" fill="#24774A"/>
<path d="M290.8 355.237H246.243C245.511 355.237 244.912 354.638 244.912 353.906C244.912 353.174 245.512 352.575 246.243 352.575H290.8C291.533 352.575 292.132 353.175 292.132 353.906C292.132 354.638 291.533 355.237 290.8 355.237Z" fill="white"/>
<path d="M306.884 355.236C307.619 355.236 308.215 354.64 308.215 353.905C308.215 353.17 307.619 352.574 306.884 352.574C306.149 352.574 305.553 353.17 305.553 353.905C305.553 354.64 306.149 355.236 306.884 355.236Z" fill="#24774A"/>
<path d="M312.753 355.236C313.488 355.236 314.084 354.64 314.084 353.905C314.084 353.17 313.488 352.574 312.753 352.574C312.018 352.574 311.422 353.17 311.422 353.905C311.422 354.64 312.018 355.236 312.753 355.236Z" fill="#24774A"/>
<path opacity="0.6" d="M301.017 355.236C301.752 355.236 302.348 354.64 302.348 353.905C302.348 353.17 301.752 352.574 301.017 352.574C300.282 352.574 299.686 353.17 299.686 353.905C299.686 354.64 300.282 355.236 301.017 355.236Z" fill="#24774A"/>
<path opacity="0.2" d="M343.414 234.145H334.313C332.845 234.145 331.645 232.944 331.645 231.476V220.233C331.645 218.765 332.846 217.564 334.313 217.564H343.414C344.882 217.564 346.083 218.766 346.083 220.233V231.476C346.083 232.944 344.882 234.145 343.414 234.145Z" fill="black"/>
<path d="M236.626 175.679L246.807 180.103L240.969 186.914L232.457 183.225L236.626 175.679Z" fill="#CE7A63"/>
<path opacity="0.2" d="M236.627 175.683L246.811 180.109L243.541 183.921L234.291 179.908L236.627 175.683Z" fill="black"/>
<path d="M242.271 190.511L241.13 190.205C240.452 190.022 239.908 189.512 239.683 188.846L238.936 189.162C238.504 189.345 238.023 189.378 237.569 189.257L222.01 185.072C222.106 183.665 223.411 182.147 223.411 182.147C223.411 182.147 230.346 183.62 232.431 182.032C232.591 181.909 232.801 181.876 232.981 181.967C234.225 182.598 239.136 184.967 242.351 184.787C242.777 184.762 243.093 185.167 242.993 185.583C242.443 187.866 242.271 190.511 242.271 190.511Z" fill="#263238"/>
<path d="M328.09 143.638L323.729 152.771C317.294 166.251 301.439 173.028 288.78 167.725C281.39 164.623 273.32 158.074 267.829 155.079C263.131 165.37 254.341 176.723 247.612 184.623L234.004 177.772C239.085 166.109 247 147.891 252.02 136.059C253.844 131.773 258.104 128.831 262.6 128.71C285.227 128.099 328.09 143.638 328.09 143.638Z" fill="#263238"/>
<path d="M262.547 205.519L272.33 205.087L270.522 215.833L262.346 216.206L262.547 205.519Z" fill="#CE7A63"/>
<path opacity="0.2" d="M262.548 205.522L272.335 205.09L271.591 209.508L262.461 210.102L262.548 205.522Z" fill="black"/>
<path d="M274.273 216.324L273.146 216.677C272.475 216.888 271.743 216.749 271.196 216.308L270.735 216.976C270.469 217.362 270.081 217.649 269.633 217.79L254.259 222.613C253.585 221.375 253.871 219.393 253.871 219.393C253.871 219.393 260.513 216.913 261.419 214.454C261.489 214.264 261.648 214.123 261.848 214.103C263.236 213.968 268.652 213.33 271.268 211.452C271.614 211.203 272.099 211.375 272.238 211.779C273 213.999 274.273 216.324 274.273 216.324Z" fill="#263238"/>
<path d="M334.429 140.023L334.355 149.668C334.241 163.895 322.181 176.595 307.778 177.665C299.372 178.284 288.012 178.48 281.457 178.352C280.501 188.312 277.389 200.05 274.256 208.557L260.095 207.567C259.725 195.493 259.18 178.372 258.723 167.018C258.547 162.59 261.287 158.236 265.513 156.156C286.747 145.704 334.429 140.023 334.429 140.023Z" fill="#263238"/>
<path opacity="0.1" d="M271.245 208.683C271.213 208.683 271.179 208.679 271.147 208.669C270.97 208.615 270.869 208.427 270.923 208.249C273.064 201.21 276.92 179.235 277.092 169.154C277.094 169.058 277.136 168.967 277.209 168.905C277.282 168.842 277.377 168.813 277.473 168.827C298.159 171.578 312.168 170.643 317.986 166.121C328.207 158.18 328.061 145.325 325.469 138.622C325.402 138.448 325.488 138.254 325.662 138.187C325.835 138.12 326.03 138.206 326.096 138.38C328.76 145.27 328.91 158.487 318.399 166.653C312.386 171.326 298.716 172.298 277.756 169.543C277.496 179.833 273.689 201.46 271.565 208.446C271.523 208.59 271.39 208.683 271.245 208.683Z" fill="black"/>
<path opacity="0.2" d="M267.274 156.263C265.054 160.873 262.066 165.659 258.855 170.222C258.927 172.213 259.004 174.327 259.085 176.521C264.096 168.606 267.282 156.25 267.282 156.25C267.282 156.25 267.282 156.257 267.274 156.263Z" fill="black"/>
<path d="M303.91 94.6265C303.53 96.0197 303.172 97.2329 302.756 98.5091C302.361 99.7736 301.918 101.017 301.475 102.264C300.564 104.749 299.621 107.225 298.522 109.673C297.438 112.13 296.298 114.567 294.946 116.999C293.616 119.442 292.137 121.857 290.287 124.305L289.708 125.071C289.34 125.558 288.861 125.936 288.347 126.185C287.35 126.664 286.323 127.061 285.291 127.394C284.268 127.748 283.202 127.971 282.157 128.181C281.097 128.363 280.033 128.481 278.954 128.512C278.417 128.532 277.87 128.514 277.325 128.494L276.49 128.428C276.194 128.399 275.952 128.347 275.56 128.323C273.826 128.223 272.502 126.734 272.603 125.001C272.621 124.696 272.681 124.404 272.779 124.13L273.972 120.823C274.016 120.701 274.206 120.541 274.342 120.395L274.795 119.965L275.715 119.124C276.324 118.569 276.928 118.045 277.502 117.506C278.089 116.998 278.639 116.455 279.187 115.959C279.737 115.464 280.235 114.931 280.75 114.458L278.809 116.337C279.823 114.596 280.772 112.547 281.707 110.457L282.388 108.86L283.037 107.218C283.48 106.128 283.91 105.015 284.325 103.894C285.152 101.651 285.97 99.3704 286.752 97.0772L289.061 90.2642L289.116 90.1013C290.489 86.0522 294.883 83.8832 298.932 85.2557C302.823 86.5733 304.972 90.7115 303.91 94.6265Z" fill="#CE7A63"/>
<path d="M296.484 81.9597C292.375 83.1387 286.848 87.6756 284.949 97.9509C287.701 102.226 300.62 98.9256 300.62 98.9256L296.484 81.9597Z" fill="#24774A"/>
<path d="M277.155 120.921L277.572 125.369C276.327 129.896 270.784 127.287 270.784 127.287L267.612 127.11C266.537 127.05 265.656 126.097 265.53 124.86L265.215 121.752C265.071 120.336 265.96 119.062 267.186 118.929L269.942 118.63C270.744 118.543 271.555 118.656 272.303 118.959L277.155 120.921Z" fill="#CE7A63"/>
<path d="M298.475 81.3451C304.932 79.9636 312.356 78.9277 318.993 78.5569C326.574 78.133 332.881 84.2629 332.688 91.8517C332.109 114.52 335.3 138.353 334.848 142.723C334.848 142.723 287.049 149.605 279.72 135.397C276.642 115.246 286.589 117.814 287.385 94.6768C287.594 88.6153 292.545 82.6141 298.475 81.3451Z" fill="#24774A"/>
<path d="M294.705 101.835L294.866 101.789L294.895 101.616C295.144 100.116 296.34 99.0236 297.805 98.9579L297.984 98.9507L298.043 98.777C298.555 97.2839 299.862 96.3181 301.399 96.2812H301.405C302.983 96.3739 304.461 97.4594 305.118 99.0245L305.228 99.2864L305.479 99.2135C305.486 99.2117 305.494 99.209 305.502 99.2081C305.79 99.1271 306.091 99.0883 306.394 99.0938C306.447 99.0947 306.5 99.0974 306.552 99.1001C308.337 99.2162 309.852 100.788 309.965 102.679C310.081 104.626 308.667 106.185 306.814 106.154L295.498 105.966C294.396 105.948 293.442 104.99 293.373 103.831C293.316 102.896 293.865 102.075 294.705 101.835Z" fill="white"/>
<path d="M332.176 86.2514L332.613 87.2216L332.994 88.1045C333.243 88.6895 333.464 89.2754 333.691 89.8595C334.144 91.0259 334.535 92.2085 334.922 93.3947C335.671 95.7734 336.328 98.1944 336.822 100.686C337.07 101.933 337.291 103.195 337.48 104.472C337.648 105.755 337.78 107.058 337.873 108.376C338.06 111.021 338.015 113.762 337.64 116.611L337.553 117.274C337.438 118.147 337.11 118.966 336.65 119.652C335.654 121.125 334.649 122.196 333.636 123.107C332.624 124.016 331.625 124.78 330.633 125.481C328.654 126.871 326.649 127.941 324.664 128.932C322.661 129.891 320.657 130.733 318.622 131.461C316.568 132.186 314.574 132.817 312.375 133.322C310.272 133.805 308.176 132.492 307.693 130.388C307.347 128.876 307.927 127.369 309.062 126.461L309.228 126.33C310.731 125.132 312.373 123.921 313.908 122.718C315.46 121.514 316.986 120.315 318.426 119.095C319.88 117.903 321.231 116.647 322.408 115.459C322.986 114.863 323.508 114.268 323.917 113.717C324.319 113.167 324.636 112.668 324.703 112.401L323.713 115.442C323.704 113.729 323.49 111.88 323.189 109.978C322.854 108.075 322.408 106.123 321.886 104.157C321.337 102.195 320.753 100.209 320.078 98.2412C319.755 97.253 319.393 96.2756 319.052 95.2973L318.027 92.5325L317.872 92.1149C316.387 88.1099 318.43 83.6603 322.434 82.1744C326.266 80.7524 330.516 82.5848 332.176 86.2514Z" fill="#CE7A63"/>
<path d="M321.507 78.6572C324.807 79.0226 331.801 81.5003 336.401 90.9791C331.885 99.9044 320.101 103.301 320.101 103.301C320.101 103.301 311.901 83.4011 321.507 78.6572Z" fill="#24774A"/>
<path d="M294.521 142.627H255.669C253.977 142.627 253.617 142.236 254.87 141.758L272.596 134.991C273.849 134.514 276.258 134.122 277.95 134.122H316.801C318.493 134.122 318.853 134.514 317.6 134.991L299.875 141.758C298.622 142.236 296.213 142.627 294.521 142.627Z" fill="#24774A"/>
<path opacity="0.4" d="M294.521 142.627H255.669C253.977 142.627 253.617 142.236 254.87 141.758L272.596 134.991C273.849 134.514 276.258 134.122 277.95 134.122H316.801C318.493 134.122 318.853 134.514 317.6 134.991L299.875 141.758C298.622 142.236 296.213 142.627 294.521 142.627Z" fill="black"/>
<path d="M294.517 141.022H255.666C253.974 141.022 252.335 139.638 252.025 137.946L247.626 114.001C247.315 112.309 248.445 110.925 250.137 110.925H288.988C290.68 110.925 292.319 112.309 292.629 114.001L297.028 137.946C297.34 139.638 296.209 141.022 294.517 141.022Z" fill="#24774A"/>
<path opacity="0.3" d="M294.517 141.022H255.666C253.974 141.022 252.335 139.638 252.025 137.946L247.626 114.001C247.315 112.309 248.445 110.925 250.137 110.925H288.988C290.68 110.925 292.319 112.309 292.629 114.001L297.028 137.946C297.34 139.638 296.209 141.022 294.517 141.022Z" fill="black"/>
<path opacity="0.3" d="M293.609 141.022H255.668C253.976 141.022 252.337 139.638 252.027 137.946L247.628 114.001C247.317 112.309 248.447 110.925 250.139 110.925H288.08C289.772 110.925 291.411 112.309 291.721 114.001L296.12 137.946C296.43 139.638 295.301 141.022 293.609 141.022Z" fill="#24774A"/>
<path d="M311.267 127.993L313.212 130.037C315.034 134.364 309.066 135.744 309.066 135.744L306.464 137.566C305.582 138.185 304.301 137.981 303.437 137.087L301.266 134.84C300.276 133.817 300.187 132.265 301.068 131.402L303.048 129.462C303.624 128.897 304.331 128.484 305.105 128.259L308.549 127.259C309.522 126.977 310.57 127.26 311.267 127.993Z" fill="#CE7A63"/>
<path d="M301.081 83.6831C301.319 82.6958 302.268 81.0659 303.447 80.3396C303.678 79.139 303.492 77.8871 302.787 76.5173L313.516 67.5371C314.184 72.0101 315.759 77.978 317.965 79.9166C315.507 82.1846 310.987 86.2778 305.359 87.2345C299.731 88.1921 300.563 85.8404 301.081 83.6831Z" fill="#CE7A63"/>
<path opacity="0.2" d="M302.988 76.9349L312.149 73.1162C310.996 77.7746 305.809 81.6257 303.524 79.7771C303.596 78.8708 303.432 77.9357 302.988 76.9349Z" fill="black"/>
<path d="M302.451 62.5353C302.451 65.8311 299.779 68.5032 296.484 68.5032C293.188 68.5032 290.516 65.8311 290.516 62.5353C290.516 59.2395 293.188 56.5674 296.484 56.5674C299.779 56.5674 302.451 59.2395 302.451 62.5353Z" fill="#263238"/>
<path d="M312.722 59.1792C314.128 66.0012 314.935 70.6641 311.81 74.5548C305.601 82.284 299.963 79.8837 296.539 73.6017C293.458 67.9479 291.676 57.741 297.548 53.3445C303.333 49.0137 311.316 52.3572 312.722 59.1792Z" fill="#CE7A63"/>
<path d="M299.325 57.3713C297.943 58.9464 294.3 62.2467 289 59.2713C283.7 56.2959 285.854 49.1778 289.05 46.9008C293.68 43.6005 298.301 45.6713 298.301 45.6713C298.301 45.6713 297.863 41.8841 303.188 41.7338C308.514 41.5835 308.251 45.3716 308.251 45.3716C308.251 45.3716 315.151 42.5006 318.451 47.8088C321.521 52.748 316.944 56.5838 316.944 56.5838C316.944 56.5838 321.724 58.6395 320.151 63.6003C318.801 67.8564 314.925 67.8357 314.925 67.8357C314.925 67.8357 309.825 68.193 308.963 64.476C308.101 60.759 309.713 58.0086 309.713 58.0086C309.713 58.0086 301.538 61.1964 299.325 57.3713Z" fill="#263238"/>
<path d="M307.164 65.4201C307.157 65.4201 307.149 65.4192 307.142 65.4192L305.885 65.2905C305.762 65.2779 305.672 65.1672 305.685 65.0439C305.697 64.9197 305.811 64.8315 305.931 64.8432L307.149 64.9674L313.506 63.4203C313.629 63.3915 313.748 63.4653 313.778 63.5859C313.807 63.7065 313.733 63.828 313.612 63.8577L307.217 65.4138C307.199 65.4174 307.181 65.4201 307.164 65.4201Z" fill="#263238"/>
<path d="M316.33 57.2824C316.126 57.2824 315.918 57.2716 315.705 57.25C315.458 57.2248 315.278 57.0043 315.303 56.7568C315.328 56.5093 315.556 56.3266 315.796 56.3554C317.207 56.4994 318.357 56.0773 318.957 55.1989C319.426 54.5122 319.48 53.6617 319.101 52.921C318.988 52.6996 319.075 52.4287 319.296 52.3153C319.519 52.2019 319.789 52.2892 319.902 52.5106C320.427 53.5339 320.349 54.7588 319.701 55.7074C319.004 56.7244 317.796 57.2824 316.33 57.2824Z" fill="#263238"/>
<path d="M291.601 61.6865C290.773 61.6865 289.867 61.5668 288.879 61.2941C286.325 60.5903 284.7 58.739 284.423 56.2145C284.133 53.573 285.435 50.774 287.452 49.7048C287.671 49.5887 287.944 49.6715 288.06 49.8911C288.176 50.1107 288.092 50.3834 287.874 50.4995C286.165 51.4058 285.066 53.8205 285.319 56.1164C285.456 57.3737 286.134 59.6048 289.119 60.4274C294.394 61.88 297.051 58.4834 298.165 56.3288C298.279 56.1083 298.55 56.021 298.772 56.1362C298.993 56.2505 299.079 56.5223 298.965 56.7428C297.933 58.7345 295.71 61.6865 291.601 61.6865Z" fill="#263238"/>
<path d="M301.589 72.0089C301.283 72.1394 300.948 72.2501 300.581 72.3329C300.482 72.3554 300.39 72.2897 300.374 72.1862C300.357 72.0836 300.422 71.9828 300.524 71.9594C303.198 71.3537 304.145 69.1199 304.154 69.0974C304.195 68.9984 304.302 68.9489 304.394 68.9858C304.486 69.0236 304.527 69.1334 304.487 69.2315C304.451 69.3197 303.689 71.1188 301.589 72.0089Z" fill="#263238"/>
<path opacity="0.2" d="M304.264 62.8664C304.264 62.8664 305.381 61.8971 306.595 62.1122C305.412 62.7746 304.264 62.8664 304.264 62.8664Z" fill="black"/>
<path opacity="0.2" d="M304.48 63.4088C304.48 63.4088 305.661 62.7554 306.697 63.2747C305.517 63.614 304.48 63.4088 304.48 63.4088Z" fill="black"/>
<path opacity="0.2" d="M295.048 65.4631C295.048 65.4631 294.278 65.0347 294.012 65.5261C294.662 65.7061 295.048 65.4631 295.048 65.4631Z" fill="black"/>
<path opacity="0.2" d="M295.138 66.0102C295.138 66.0102 294.492 65.6034 294.416 66.2496C294.921 66.3675 295.138 66.0102 295.138 66.0102Z" fill="black"/>
<path d="M316.943 66.5923C316.398 68.3833 315.07 69.7513 313.692 70.447C311.62 71.4937 310.116 69.7531 310.298 67.5661C310.463 65.5969 311.74 62.68 314.008 62.5414C316.244 62.4046 317.567 64.5448 316.943 66.5923Z" fill="#CE7A63"/>
<path d="M302.583 63.7036C302.731 64.2499 302.56 64.7692 302.202 64.8628C301.844 64.9564 301.433 64.5892 301.284 64.0429C301.136 63.4966 301.307 62.9773 301.666 62.8837C302.024 62.7901 302.434 63.1573 302.583 63.7036Z" fill="#263238"/>
<path d="M296.807 65.3504C296.956 65.8967 296.785 66.416 296.427 66.5096C296.068 66.6032 295.657 66.236 295.509 65.6897C295.36 65.1434 295.531 64.624 295.889 64.5304C296.248 64.4359 296.659 64.8032 296.807 65.3504Z" fill="#263238"/>
<path d="M293.48 69.4367C293.127 69.4367 292.758 69.2306 292.582 68.9165L291.665 67.2758C291.552 67.0751 291.535 66.8528 291.619 66.6665C291.699 66.4874 291.866 66.3587 292.075 66.3119L296.756 65.2724C297.154 65.1842 297.631 65.4029 297.837 65.7728L298.754 67.4135C298.867 67.6142 298.883 67.8365 298.8 68.0228C298.72 68.2019 298.553 68.3306 298.344 68.3774L293.663 69.4169C293.604 69.4304 293.542 69.4367 293.48 69.4367ZM296.941 65.7035C296.911 65.7035 296.882 65.7062 296.854 65.7125L292.173 66.752C292.124 66.7628 292.058 66.7889 292.03 66.851C292.006 66.9059 292.016 66.9806 292.058 67.0571L292.975 68.6969C293.084 68.8922 293.362 69.0245 293.566 68.9777L298.247 67.9382C298.296 67.9274 298.362 67.9013 298.39 67.8392C298.414 67.7843 298.404 67.7096 298.362 67.6331L297.445 65.9924C297.35 65.825 297.131 65.7035 296.941 65.7035Z" fill="#263238"/>
<path d="M298.727 65.4062L300.707 69.7362C300.707 69.7362 299.225 70.8647 297.915 70.5686C297.467 68.0811 298.727 65.4062 298.727 65.4062Z" fill="#BA4D3C"/>
<path d="M301.241 67.7141C300.889 67.7141 300.52 67.508 300.344 67.1939L299.426 65.5541C299.314 65.3534 299.297 65.1311 299.38 64.9448C299.46 64.7657 299.627 64.637 299.837 64.5902L304.517 63.5507C304.919 63.4625 305.392 63.6821 305.598 64.0511L306.516 65.6909C306.629 65.8916 306.646 66.1139 306.562 66.3002C306.482 66.4793 306.316 66.608 306.106 66.6557L301.425 67.6952C301.366 67.7078 301.304 67.7141 301.241 67.7141ZM304.702 63.9809C304.672 63.9809 304.643 63.9836 304.616 63.9899L299.935 65.0294C299.885 65.0402 299.819 65.0663 299.792 65.1284C299.767 65.1833 299.777 65.258 299.819 65.3345L300.737 66.9752C300.846 67.1696 301.121 67.3028 301.328 67.256L306.009 66.2165C306.058 66.2057 306.124 66.1796 306.152 66.1175C306.176 66.0626 306.166 65.9879 306.124 65.9114L305.206 64.2716C305.111 64.1015 304.892 63.9809 304.702 63.9809Z" fill="#263238"/>
<path d="M298.015 66.7768C297.992 66.7768 297.968 66.7732 297.943 66.7651C297.828 66.7246 297.765 66.6049 297.801 66.4888C297.814 66.4492 298.124 65.515 300.042 65.8957C300.164 65.92 300.243 66.0379 300.219 66.1603C300.194 66.2818 300.078 66.3628 299.954 66.3367C298.473 66.0442 298.23 66.6238 298.229 66.6292C298.194 66.7192 298.107 66.7768 298.015 66.7768Z" fill="#263238"/>
<path d="M303.902 61.7224C303.953 61.7017 304 61.6675 304.036 61.6207C304.149 61.4767 304.123 61.2679 303.977 61.1545C302.518 60.0196 301.055 60.4948 300.994 60.5155C300.82 60.574 300.728 60.763 300.788 60.9367C300.848 61.1095 301.037 61.2031 301.211 61.1446C301.259 61.1293 302.403 60.7702 303.567 61.6765C303.667 61.753 303.795 61.7665 303.902 61.7224Z" fill="#263238"/>
<path d="M293.213 64.5448C293.316 64.5151 293.403 64.4368 293.438 64.3261C293.876 62.9302 295.024 62.5873 295.073 62.5738C295.249 62.5234 295.351 62.3407 295.301 62.1643C295.249 61.9888 295.067 61.8853 294.89 61.9339C294.826 61.9528 293.349 62.3749 292.8 64.1236C292.745 64.2982 292.844 64.4854 293.02 64.5412C293.085 64.5619 293.151 64.5619 293.213 64.5448Z" fill="#263238"/>
<path opacity="0.2" d="M227.5 303.699V362.877C227.5 369.333 232.781 374.614 239.237 374.614H253.65L248.5 309.3L227.5 303.699Z" fill="black"/>
<path d="M206.045 304.203L200.293 311.378C199.248 312.682 197.675 313.456 196.069 313.456H144.126C141.37 313.456 138.949 315.691 138.722 318.447L134.146 373.737C133.918 376.494 135.968 378.729 138.724 378.729H240.422C243.178 378.729 245.599 376.494 245.826 373.737L251.339 307.117C251.567 304.361 249.517 302.126 246.76 302.126H210.269C208.663 302.125 207.091 302.899 206.045 304.203Z" fill="#24774A"/>
<path opacity="0.3" d="M206.045 304.203L200.293 311.378C199.248 312.682 197.675 313.456 196.069 313.456H144.126C141.37 313.456 138.949 315.691 138.722 318.447L134.146 373.737C133.918 376.494 135.968 378.729 138.724 378.729H240.422C243.178 378.729 245.599 376.494 245.826 373.737L251.339 307.117C251.567 304.361 249.517 302.126 246.76 302.126H210.269C208.663 302.125 207.091 302.899 206.045 304.203Z" fill="black"/>
<path d="M185.507 308.136L180.844 314.932C179.997 316.168 178.541 316.9 176.935 316.9H134.215C131.459 316.9 129.378 319.017 129.569 321.628L133.387 373.999C133.578 376.61 135.967 378.728 138.724 378.728H240.421C243.178 378.728 245.258 376.611 245.068 373.999L240.466 310.896C240.275 308.285 237.886 306.167 235.13 306.167H189.416C187.81 306.168 186.355 306.9 185.507 308.136Z" fill="#24774A"/>
</svg>
