<svg width="450" height="450" viewBox="0 0 450 450" fill="none" xmlns="http://www.w3.org/2000/svg">
<path d="M450 344.158H0V344.383H450V344.158Z" fill="#EBEBEB"/>
<path d="M404.909 358.645H375.1V358.87H404.909V358.645Z" fill="#EBEBEB"/>
<path d="M298.095 361.087H290.271V361.312H298.095V361.087Z" fill="#EBEBEB"/>
<path d="M374.201 350.287H356.928V350.512H374.201V350.287Z" fill="#EBEBEB"/>
<path d="M86.0885 351.799H47.2148V352.024H86.0885V351.799Z" fill="#EBEBEB"/>
<path d="M99.7974 351.799H94.0977V352.024H99.7974V351.799Z" fill="#EBEBEB"/>
<path d="M202.635 355.6H118.326V355.825H202.635V355.6Z" fill="#EBEBEB"/>
<path d="M213.315 304.02H39.5259C36.6936 304.02 34.3887 301.715 34.3887 298.883V54.594C34.3887 51.7617 36.6936 49.4568 39.5259 49.4568H213.315C216.146 49.4568 218.451 51.7617 218.451 54.594V298.883C218.451 301.715 216.146 304.02 213.315 304.02ZM39.5259 49.6827C36.8169 49.6827 34.6137 51.8859 34.6137 54.5949V298.884C34.6137 301.593 36.8169 303.796 39.5259 303.796H213.315C216.023 303.796 218.226 301.593 218.226 298.884V54.594C218.226 51.8859 216.023 49.6818 213.315 49.6818L39.5259 49.6827Z" fill="#EBEBEB"/>
<path d="M407.981 304.02H234.193C231.361 304.02 229.057 301.715 229.057 298.883V54.594C229.057 51.7617 231.362 49.4568 234.193 49.4568H407.981C410.814 49.4568 413.118 51.7617 413.118 54.594V298.883C413.119 301.715 410.814 304.02 407.981 304.02ZM234.193 49.6827C231.485 49.6827 229.282 51.8859 229.282 54.5949V298.884C229.282 301.593 231.485 303.796 234.193 303.796H407.981C410.69 303.796 412.893 301.593 412.893 298.884V54.594C412.893 51.8859 410.69 49.6818 407.981 49.6818L234.193 49.6827Z" fill="#EBEBEB"/>
<path d="M44.0668 232.847C55.0263 232.847 63.9109 223.963 63.9109 213.003C63.9109 202.043 55.0263 193.159 44.0668 193.159C33.1072 193.159 24.2227 202.043 24.2227 213.003C24.2227 223.963 33.1072 232.847 44.0668 232.847Z" fill="#F0F0F0"/>
<path d="M55.5783 217.34C55.5783 215.004 54.6936 212.667 52.9242 210.897L49.7868 207.76L49.5591 207.532L46.1715 204.144C44.4021 202.375 42.0657 201.49 39.7284 201.49C37.3983 201.483 35.0547 202.375 33.2853 204.144C33.0162 204.414 32.7804 204.704 32.5527 204.988L38.1381 210.573L41.1864 207.525C41.7939 206.917 42.7785 206.917 43.386 207.525L46.4757 210.615L46.7034 210.843L49.5429 213.683C50.1504 214.29 50.1504 215.275 49.5429 215.882L46.4946 218.93L52.08 224.516C52.3635 224.288 52.6542 224.052 52.9233 223.783C54.6936 222.013 55.5855 219.669 55.5783 217.34Z" fill="#FAFAFA"/>
<path d="M165.142 95.6685C168.402 81.8613 159.852 68.0253 146.045 64.765C132.238 61.5047 118.402 70.0547 115.142 83.862C111.881 97.6692 120.431 111.505 134.239 114.766C148.046 118.026 161.882 109.476 165.142 95.6685Z" fill="#F0F0F0"/>
<path d="M147.42 98.6409H125.427C124.534 98.6409 123.811 97.9173 123.811 97.0245V82.485C123.811 81.5922 124.534 80.8686 125.427 80.8686H147.42C148.313 80.8686 149.037 81.5922 149.037 82.485V97.0245C149.037 97.9173 148.313 98.6409 147.42 98.6409Z" fill="#FAFAFA"/>
<path d="M156.472 94.8168L151.086 92.8782V86.6313L156.472 84.6927V94.8168Z" fill="#FAFAFA"/>
<path d="M397.667 200.02C411.012 200.02 421.83 189.202 421.83 175.857C421.83 162.512 411.012 151.694 397.667 151.694C384.322 151.694 373.504 162.512 373.504 175.857C373.504 189.202 384.322 200.02 397.667 200.02Z" fill="#F0F0F0"/>
<path d="M404.422 184.216H383.927C383.034 184.216 382.311 183.492 382.311 182.599V169.115C382.311 168.223 383.034 167.499 383.927 167.499H404.422C405.315 167.499 406.038 168.223 406.038 169.115V182.599C406.038 183.492 405.315 184.216 404.422 184.216Z" fill="#FAFAFA"/>
<path d="M413.028 180.618L407.963 178.795V172.919L413.028 171.095V180.618Z" fill="#FAFAFA"/>
<path d="M320.16 98.5428C336.012 95.9701 346.778 81.0337 344.205 65.1815C341.632 49.3293 326.696 38.5641 310.844 41.1368C294.991 43.7095 284.226 58.6459 286.799 74.4981C289.372 90.3503 304.308 101.115 320.16 98.5428Z" fill="#F0F0F0"/>
<path d="M305.946 63.8164H298.631V75.8728H305.946V63.8164Z" fill="#FAFAFA"/>
<path d="M317.411 81.9154L304.73 75.2851V64.405L317.411 57.7747V81.9154Z" fill="#FAFAFA"/>
<path d="M332.372 69.1291H322.619V70.561H332.372V69.1291Z" fill="#FAFAFA"/>
<path d="M329.504 56.251L320.848 60.8832L321.523 62.1457L330.18 57.5135L329.504 56.251Z" fill="#FAFAFA"/>
<path d="M321.533 77.5417L320.857 78.8042L329.514 83.4373L330.19 82.1748L321.533 77.5417Z" fill="#FAFAFA"/>
<path d="M382.641 293.226C392.67 289.071 397.432 277.574 393.278 267.545C389.124 257.517 377.627 252.754 367.598 256.909C357.569 261.063 352.807 272.56 356.961 282.589C361.115 292.617 372.613 297.38 382.641 293.226Z" fill="#F0F0F0"/>
<path d="M375.436 279.482H374.794C372.454 279.482 370.557 277.584 370.557 275.244V268.648C370.557 266.308 372.454 264.411 374.794 264.411H375.436C377.776 264.411 379.674 266.308 379.674 268.648V275.243C379.674 277.585 377.776 279.482 375.436 279.482Z" fill="#FAFAFA"/>
<path d="M375.113 282.499C371.222 282.499 368.057 279.334 368.057 275.444V272.642C368.057 272.295 368.338 272.015 368.685 272.015C369.031 272.015 369.313 272.295 369.313 272.642V275.444C369.313 278.642 371.915 281.244 375.113 281.244C378.31 281.244 380.912 278.641 380.912 275.444V272.642C380.912 272.295 381.194 272.015 381.54 272.015C381.887 272.015 382.169 272.295 382.169 272.642V275.444C382.169 279.334 379.003 282.499 375.113 282.499Z" fill="#FAFAFA"/>
<path d="M375.115 286.351C374.768 286.351 374.486 286.07 374.486 285.724V281.872C374.486 281.525 374.768 281.245 375.115 281.245C375.461 281.245 375.743 281.525 375.743 281.872V285.724C375.743 286.07 375.462 286.351 375.115 286.351Z" fill="#FAFAFA"/>
<path d="M386.006 286.594C385.844 286.594 385.684 286.534 385.562 286.411L363.766 264.614C363.521 264.369 363.521 263.971 363.766 263.726C364.01 263.48 364.408 263.48 364.653 263.726L386.449 285.523C386.695 285.768 386.695 286.166 386.449 286.411C386.327 286.533 386.167 286.594 386.006 286.594Z" fill="#FAFAFA"/>
<path d="M174.235 245.25C185.429 242.607 192.361 231.389 189.718 220.195C187.075 209.001 175.857 202.069 164.663 204.712C153.469 207.356 146.537 218.573 149.181 229.767C151.824 240.961 163.041 247.893 174.235 245.25Z" fill="#F0F0F0"/>
<path d="M170.049 229.677H168.862C166.522 229.677 164.625 227.78 164.625 225.44V217.945C164.625 215.605 166.522 213.708 168.862 213.708H170.049C172.389 213.708 174.287 215.605 174.287 217.945V225.44C174.287 227.78 172.39 229.677 170.049 229.677Z" fill="#FAFAFA"/>
<path d="M169.453 232.723C165.415 232.723 162.129 229.437 162.129 225.398V222.429C162.129 222.146 162.358 221.916 162.642 221.916C162.925 221.916 163.155 222.146 163.155 222.429V225.398C163.155 228.87 165.981 231.696 169.454 231.696C172.927 231.696 175.753 228.87 175.753 225.398V222.429C175.753 222.146 175.983 221.916 176.266 221.916C176.55 221.916 176.779 222.146 176.779 222.429V225.398C176.777 229.437 173.491 232.723 169.453 232.723Z" fill="#FAFAFA"/>
<path d="M169.454 236.805C169.171 236.805 168.941 236.575 168.941 236.292V232.21C168.941 231.927 169.171 231.697 169.454 231.697C169.738 231.697 169.967 231.927 169.967 232.21V236.292C169.967 236.575 169.738 236.805 169.454 236.805Z" fill="#FAFAFA"/>
<path d="M180.994 237.062C180.862 237.062 180.731 237.011 180.631 236.912L157.533 213.814C157.333 213.613 157.333 213.288 157.533 213.088C157.733 212.887 158.059 212.887 158.258 213.088L181.357 236.185C181.556 236.386 181.556 236.711 181.357 236.912C181.257 237.012 181.125 237.062 180.994 237.062Z" fill="#FAFAFA"/>
<path d="M223.166 420.404C319.54 420.404 397.666 407.414 397.666 391.389C397.666 375.365 319.54 362.374 223.166 362.374C126.792 362.374 48.666 375.365 48.666 391.389C48.666 407.414 126.792 420.404 223.166 420.404Z" fill="#F5F5F5"/>
<path d="M226.538 83.6721C194.168 83.6721 167.926 109.913 167.926 142.284C167.926 174.654 194.167 200.896 226.538 200.896C258.909 200.896 285.151 174.655 285.151 142.284C285.151 109.913 258.909 83.6721 226.538 83.6721ZM258.379 168.449C253.152 173.676 246.23 176.309 239.349 176.288C232.448 176.288 225.546 173.675 220.319 168.449L210.312 158.441L209.64 157.769L200.373 148.503C195.145 143.276 192.532 136.374 192.532 129.473C192.511 122.592 195.145 115.67 200.372 110.443C201.168 109.646 202.026 108.952 202.863 108.278L219.361 124.776L210.358 133.779C208.564 135.572 208.564 138.481 210.358 140.275L218.745 148.662L219.417 149.334L228.544 158.461C230.338 160.255 233.247 160.255 235.041 158.461L244.043 149.459L260.541 165.956C259.87 166.795 259.176 167.653 258.379 168.449Z" fill="#064F2C"/>
<path opacity="0.4" d="M226.538 83.6721C194.168 83.6721 167.926 109.913 167.926 142.284C167.926 174.654 194.167 200.896 226.538 200.896C258.909 200.896 285.151 174.655 285.151 142.284C285.151 109.913 258.909 83.6721 226.538 83.6721ZM258.379 168.449C253.152 173.676 246.23 176.309 239.349 176.288C232.448 176.288 225.546 173.675 220.319 168.449L210.312 158.441L209.64 157.769L200.373 148.503C195.145 143.276 192.532 136.374 192.532 129.473C192.511 122.592 195.145 115.67 200.372 110.443C201.168 109.646 202.026 108.952 202.863 108.278L219.361 124.776L210.358 133.779C208.564 135.572 208.564 138.481 210.358 140.275L218.745 148.662L219.417 149.334L228.544 158.461C230.338 160.255 233.247 160.255 235.041 158.461L244.043 149.459L260.541 165.956C259.87 166.795 259.176 167.653 258.379 168.449Z" fill="white"/>
<path d="M337.796 115.364H370.146C376.29 115.364 381.27 120.343 381.27 126.488V139.912C381.27 146.055 376.29 151.036 370.146 151.036H347.892L340.562 157.98L340.409 151.036H337.795C331.652 151.036 326.672 146.055 326.672 139.912V126.488C326.672 120.343 331.652 115.364 337.796 115.364Z" fill="#064F2C"/>
<g opacity="0.4">
<path d="M337.796 115.364H370.146C376.29 115.364 381.27 120.343 381.27 126.488V139.912C381.27 146.055 376.29 151.036 370.146 151.036H347.892L340.562 157.98L340.409 151.036H337.795C331.652 151.036 326.672 146.055 326.672 139.912V126.488C326.672 120.343 331.652 115.364 337.796 115.364Z" fill="white"/>
</g>
<path d="M366.576 132.432C366.576 133.673 367.582 134.68 368.823 134.68C370.064 134.68 371.07 133.673 371.07 132.432C371.07 131.191 370.064 130.185 368.823 130.185C367.582 130.185 366.576 131.191 366.576 132.432Z" fill="white"/>
<path d="M356.678 132.432C356.678 133.673 357.684 134.68 358.924 134.68C360.165 134.68 361.171 133.673 361.171 132.432C361.171 131.191 360.165 130.185 358.924 130.185C357.684 130.185 356.678 131.191 356.678 132.432Z" fill="white"/>
<path d="M346.77 132.432C346.77 133.673 347.776 134.68 349.017 134.68C350.258 134.68 351.263 133.673 351.263 132.432C351.263 131.191 350.257 130.185 349.017 130.185C347.776 130.185 346.77 131.191 346.77 132.432Z" fill="white"/>
<path d="M336.871 132.432C336.871 133.673 337.877 134.68 339.118 134.68C340.36 134.68 341.366 133.673 341.366 132.432C341.366 131.191 340.36 130.185 339.118 130.185C337.877 130.185 336.871 131.191 336.871 132.432Z" fill="white"/>
<path d="M231.696 194.327H203.341C197.957 194.327 193.592 198.692 193.592 204.077V215.843C193.592 221.228 197.957 225.593 203.341 225.593H222.846L229.271 231.678L229.405 225.593H231.696C237.081 225.593 241.445 221.228 241.445 215.843V204.077C241.446 198.692 237.081 194.327 231.696 194.327Z" fill="#263238"/>
<g opacity="0.4">
<path d="M231.696 194.327H203.341C197.957 194.327 193.592 198.692 193.592 204.077V215.843C193.592 221.228 197.957 225.593 203.341 225.593H222.846L229.271 231.678L229.405 225.593H231.696C237.081 225.593 241.445 221.228 241.445 215.843V204.077C241.446 198.692 237.081 194.327 231.696 194.327Z" fill="white"/>
</g>
<path d="M206.468 209.287C206.468 210.374 205.586 211.256 204.498 211.256C203.41 211.256 202.529 210.374 202.529 209.287C202.529 208.2 203.411 207.318 204.498 207.318C205.587 207.318 206.468 208.2 206.468 209.287Z" fill="white"/>
<path d="M215.143 209.287C215.143 210.374 214.261 211.256 213.174 211.256C212.086 211.256 211.205 210.374 211.205 209.287C211.205 208.2 212.087 207.318 213.174 207.318C214.262 207.318 215.143 208.2 215.143 209.287Z" fill="white"/>
<path d="M223.825 209.287C223.825 210.374 222.943 211.256 221.856 211.256C220.769 211.256 219.887 210.374 219.887 209.287C219.887 208.2 220.769 207.318 221.856 207.318C222.943 207.318 223.825 208.2 223.825 209.287Z" fill="white"/>
<path d="M232.507 209.287C232.507 210.374 231.625 211.256 230.538 211.256C229.45 211.256 228.568 210.374 228.568 209.287C228.568 208.2 229.45 207.318 230.538 207.318C231.625 207.318 232.507 208.2 232.507 209.287Z" fill="white"/>
<path d="M180.742 255.919H153.595C148.439 255.919 144.26 260.097 144.26 265.253V276.519C144.26 281.674 148.439 285.854 153.595 285.854H172.27L178.421 291.68L178.549 285.854H180.743C185.898 285.854 190.078 281.674 190.078 276.519V265.253C190.077 260.097 185.897 255.919 180.742 255.919Z" fill="#064F2C"/>
<path d="M156.593 270.241C156.593 271.282 155.749 272.127 154.708 272.127C153.666 272.127 152.822 271.282 152.822 270.241C152.822 269.2 153.666 268.356 154.708 268.356C155.749 268.356 156.593 269.2 156.593 270.241Z" fill="white"/>
<path d="M164.898 270.241C164.898 271.282 164.054 272.127 163.012 272.127C161.971 272.127 161.127 271.282 161.127 270.241C161.127 269.2 161.971 268.356 163.012 268.356C164.054 268.356 164.898 269.2 164.898 270.241Z" fill="white"/>
<path d="M173.212 270.241C173.212 271.282 172.368 272.127 171.327 272.127C170.286 272.127 169.441 271.282 169.441 270.241C169.441 269.2 170.286 268.356 171.327 268.356C172.368 268.356 173.212 269.2 173.212 270.241Z" fill="white"/>
<path d="M181.517 270.241C181.517 271.282 180.673 272.127 179.632 272.127C178.59 272.127 177.746 271.282 177.746 270.241C177.746 269.2 178.59 268.356 179.632 268.356C180.673 268.356 181.517 269.2 181.517 270.241Z" fill="white"/>
<path d="M97.2247 101.328H69.7612C64.5457 101.328 60.3184 105.556 60.3184 110.771V122.168C60.3184 127.383 64.5466 131.611 69.7612 131.611H88.6531L94.8757 137.505L95.0053 131.611H97.2247C102.439 131.611 106.667 127.382 106.667 122.168V110.772C106.667 105.557 102.439 101.328 97.2247 101.328Z" fill="#263238"/>
<path d="M72.7966 115.817C72.7966 116.87 71.9425 117.725 70.8895 117.725C69.8356 117.725 68.9824 116.87 68.9824 115.817C68.9824 114.764 69.8365 113.91 70.8895 113.91C71.9425 113.91 72.7966 114.764 72.7966 115.817Z" fill="white"/>
<path d="M81.199 115.817C81.199 116.87 80.3449 117.725 79.2919 117.725C78.238 117.725 77.3848 116.87 77.3848 115.817C77.3848 114.764 78.2389 113.91 79.2919 113.91C80.3449 113.91 81.199 114.764 81.199 115.817Z" fill="white"/>
<path d="M89.6111 115.817C89.6111 116.87 88.757 117.725 87.704 117.725C86.651 117.725 85.7969 116.87 85.7969 115.817C85.7969 114.764 86.651 113.91 87.704 113.91C88.7579 113.91 89.6111 114.764 89.6111 115.817Z" fill="white"/>
<path d="M98.0134 115.817C98.0134 116.87 97.1593 117.725 96.1063 117.725C95.0533 117.725 94.1992 116.87 94.1992 115.817C94.1992 114.764 95.0533 113.91 96.1063 113.91C97.1593 113.91 98.0134 114.764 98.0134 115.817Z" fill="white"/>
<path d="M364.962 255.127C361.574 242.977 307.803 257.555 307.803 257.555C307.803 257.555 305.205 270.986 306.16 282.028C305.492 296.751 308.797 310.344 309.533 324.499C306.678 343.675 310.266 370.862 310.266 370.862L323.341 372.521C323.341 372.521 331.114 341.754 334.251 325.274C335.027 321.201 335.926 316.215 336.832 311.055C338.385 316.029 339.897 320.926 340.788 325.567C340.592 344.954 347.879 371.39 347.879 371.39L361.057 371.238C361.057 371.238 364.533 339.696 365.376 322.942C365.961 311.386 366.311 291.943 366.463 281.868C366.86 277.801 367.765 265.177 364.962 255.127Z" fill="#263238"/>
<path opacity="0.5" d="M364.962 255.127C361.574 242.977 307.803 257.555 307.803 257.555C307.803 257.555 305.205 270.986 306.16 282.028C305.492 296.751 308.797 310.344 309.533 324.499C306.678 343.675 310.266 370.862 310.266 370.862L323.341 372.521C323.341 372.521 331.114 341.754 334.251 325.274C335.027 321.201 335.925 316.215 336.832 311.055C338.385 316.029 339.897 320.926 340.788 325.568C340.592 344.955 347.879 371.391 347.879 371.391L361.057 371.239C361.057 371.239 364.533 339.697 365.376 322.943C365.961 311.386 366.311 291.943 366.463 281.868C366.861 277.799 367.765 265.176 364.962 255.127Z" fill="white"/>
<path d="M359.74 365.964L348.234 366.267L349.414 379.836L359.03 379.598L359.74 365.964Z" fill="#D9877C"/>
<path opacity="0.2" d="M359.737 365.969L348.227 366.272L348.89 373.87L359.341 373.605L359.737 365.969Z" fill="black"/>
<path d="M347.226 371.866L361.469 371.736C361.718 371.733 361.928 371.547 361.957 371.299L362.602 366.062C362.64 365.752 362.386 365.484 362.074 365.505L346.214 366.584C345.909 366.604 345.694 366.892 345.763 367.19L346.737 371.479C346.789 371.706 346.993 371.867 347.226 371.866Z" fill="#263238"/>
<path d="M348.543 378.108C348.579 377.79 348.947 377.55 349.221 377.66C352.107 378.806 357.582 377.928 359.658 377.53C360.164 377.433 360.628 377.548 360.988 377.804C363.196 379.37 369.077 380.325 369.077 380.325C369.077 380.325 369.819 382.285 369.371 383.786L347.332 383.776C347.332 383.776 348.249 380.73 348.543 378.108Z" fill="#263238"/>
<path d="M323.055 367.773L311.626 366.405L310.828 380.003L320.376 381.16L323.055 367.773Z" fill="#D9877C"/>
<path opacity="0.2" d="M323.051 367.778L311.618 366.409L311.174 374.024L321.553 375.275L323.051 367.778Z" fill="black"/>
<path d="M309.554 371.242L323.68 373.07C323.927 373.102 324.16 372.946 324.224 372.704L325.581 367.605C325.662 367.303 325.447 367.003 325.135 366.98L309.276 365.871C308.971 365.849 308.72 366.106 308.746 366.41L309.122 370.791C309.142 371.025 309.322 371.212 309.554 371.242Z" fill="#263238"/>
<path d="M310.496 378.108C310.532 377.79 310.899 377.55 311.173 377.66C314.059 378.806 319.534 377.928 321.61 377.53C322.116 377.433 322.58 377.548 322.94 377.804C325.148 379.37 331.028 380.325 331.028 380.325C331.028 380.325 331.771 382.285 331.322 383.786L309.283 383.776C309.283 383.776 310.2 380.73 310.496 378.108Z" fill="#263238"/>
<path opacity="0.6" d="M347.226 371.866L361.469 371.736C361.718 371.733 361.928 371.547 361.957 371.299L362.602 366.062C362.64 365.752 362.386 365.484 362.074 365.505L346.214 366.584C345.909 366.604 345.694 366.892 345.763 367.19L346.737 371.479C346.789 371.706 346.993 371.867 347.226 371.866Z" fill="white"/>
<path opacity="0.6" d="M309.554 371.242L323.68 373.07C323.927 373.102 324.16 372.946 324.224 372.704L325.581 367.605C325.662 367.303 325.447 367.003 325.135 366.98L309.276 365.871C308.971 365.849 308.72 366.106 308.746 366.41L309.122 370.791C309.142 371.025 309.322 371.212 309.554 371.242Z" fill="white"/>
<path d="M307.009 262.538L305.947 265.935C305.947 265.935 322.279 272.12 338.134 274.744L343.495 269.947L347.402 274.744C347.402 274.744 362.393 272.705 367.382 268.641L366.162 260.899L307.009 262.538Z" fill="#064F2C"/>
<path opacity="0.5" d="M307.009 262.538L305.947 265.935C305.947 265.935 322.279 272.12 338.134 274.744L343.495 269.947L347.402 274.744C347.402 274.744 362.393 272.705 367.382 268.641L366.162 260.899L307.009 262.538Z" fill="white"/>
<path d="M347.368 197.52C354.705 198.739 363.331 199.401 370.554 197.3L367.393 199.872C366.075 201.547 366.105 205.109 367.49 206.313C367.679 206.464 367.672 206.353 367.567 206.203C367.461 206.048 367.26 205.833 367.014 205.608C362.792 202.057 356.864 199.267 352.032 196.307C349.938 195.04 349.267 192.315 350.534 190.22C351.416 188.762 353.011 187.995 354.602 188.091C356.943 188.237 359.112 188.545 361.355 188.939C364.753 189.564 368.187 190.417 371.489 191.713C376.151 193.693 380.517 195.876 381.848 201.767C382.556 205.591 380.663 210.207 377.02 211.706C366.637 216.725 354.312 217.131 343.246 214.519C332.345 211.195 336.192 195.485 347.368 197.52Z" fill="#064F2C"/>
<path opacity="0.2" d="M363.733 215.6C362.466 215.77 361.209 215.89 359.957 215.965C358.575 216.049 357.198 216.085 355.821 216.069C354.45 216.049 353.078 216.014 351.706 215.895C350.329 215.779 348.952 215.645 347.56 215.42C346.159 215.201 344.747 214.922 343.24 214.518C342.617 214.348 342.028 214.119 341.475 213.829C342.028 208.532 344.188 204.501 344.188 204.501C344.188 204.501 356.086 206.108 363.733 215.6Z" fill="black"/>
<path d="M353.143 190.754L349.84 194.33C345.264 196.613 343.346 190.222 343.346 190.222L340.147 186.361C339.414 185.446 339.545 184.039 340.457 183.037L342.746 180.519C343.79 179.372 345.47 179.167 346.47 180.064L349.752 183.24C350.406 183.827 350.905 184.567 351.204 185.393L353.143 190.754Z" fill="#EBB376"/>
<path d="M350.07 197.044L347.594 195.701C350.539 192.494 352.528 187.798 352.528 187.798L356.018 187.465C356.018 187.465 355.346 194.629 350.07 197.044Z" fill="#064F2C"/>
<path opacity="0.5" d="M350.07 197.044L347.594 195.701C350.539 192.494 352.528 187.798 352.528 187.798L356.018 187.465C356.018 187.465 355.346 194.629 350.07 197.044Z" fill="white"/>
<path d="M302.035 213.003C305.607 226.252 305.877 241.971 306.72 253.183C306.72 253.183 304.662 260.482 306.791 264.225C306.791 264.225 343.343 275.224 366.923 265.19C366.923 265.19 367.777 258.915 367.158 250.609C365.782 232.177 356.744 218.828 351.198 202.379C349.99 198.808 345.948 196.984 342.184 196.847C332.614 196.501 319.93 197.473 310.171 199.519C304.082 200.798 300.416 206.995 302.035 213.003Z" fill="#064F2C"/>
<path d="M333.516 203.5C327.332 204.477 321.374 199.755 318.27 198.23C321.181 195.701 319.314 191.601 319.706 189.347C319.874 188.352 319.917 187.717 319.917 187.717L333.918 191.293C333.467 192.986 333.541 194.368 334.051 195.556C335.459 195.899 336.821 197.29 337.289 198.246C337.301 198.272 337.314 198.307 337.335 198.332C338.34 200.392 339.609 202.532 333.516 203.5Z" fill="#EBB376"/>
<path opacity="0.2" d="M337.335 198.333C331.321 201.6 321.411 194.66 319.707 189.347C319.875 188.352 319.918 187.717 319.918 187.717L333.919 191.293C333.468 192.986 333.542 194.368 334.052 195.556C335.46 195.899 336.822 197.29 337.29 198.246C337.302 198.273 337.315 198.308 337.335 198.333Z" fill="black"/>
<path d="M333.887 203.435L331.322 201.6L327.896 203.795C327.896 203.795 330.099 205.604 333.887 203.435Z" fill="#064F2C"/>
<path opacity="0.5" d="M333.887 203.435L331.322 201.6L327.896 203.795C327.896 203.795 330.099 205.604 333.887 203.435Z" fill="white"/>
<path d="M319.607 196.517C319.607 196.517 324.708 202.129 331.322 201.599C327.483 203.951 326.856 208.431 326.856 208.431C326.856 208.431 318.597 206.935 316.994 198.204C317.97 196.644 319.607 196.517 319.607 196.517Z" fill="#064F2C"/>
<path d="M333.889 203.435L336.77 200.423L340.463 201.062C340.463 201.062 337.693 204.626 333.889 203.435Z" fill="#064F2C"/>
<path opacity="0.5" d="M333.889 203.435L336.77 200.423L340.463 201.062C340.463 201.062 337.693 204.626 333.889 203.435Z" fill="white"/>
<path d="M334.049 195.553C334.049 195.553 336.636 198.253 336.769 200.423C339.866 200.915 341.378 205.335 341.378 205.335C341.378 205.335 341.909 198.667 337.04 195.737C335.858 195.099 334.049 195.553 334.049 195.553Z" fill="#064F2C"/>
<path opacity="0.8" d="M319.607 196.517C319.607 196.517 324.708 202.129 331.322 201.599C327.483 203.951 326.856 208.431 326.856 208.431C326.856 208.431 318.597 206.935 316.994 198.204C317.97 196.644 319.607 196.517 319.607 196.517Z" fill="white"/>
<path opacity="0.8" d="M334.049 195.553C334.049 195.553 336.636 198.253 336.769 200.423C339.866 200.915 341.378 205.335 341.378 205.335C341.378 205.335 341.909 198.667 337.04 195.737C335.858 195.099 334.049 195.553 334.049 195.553Z" fill="white"/>
<path opacity="0.2" d="M302.033 213.003C305.604 226.252 305.874 241.971 306.718 253.183C306.718 253.183 309.639 254.112 317.529 253.769C327.429 253.339 336.149 244.382 330.659 242.353C322.711 239.415 310.944 236.029 310.944 236.029C313.102 229.25 312.696 218.909 312.696 218.909L302.033 213.003Z" fill="black"/>
<path d="M316.142 216.005C316.523 215.693 316.415 215.772 316.36 215.855L316.007 216.303C311.626 222.314 307.341 229.112 304.97 236.113C304.709 236.988 304.563 237.778 304.496 238.136C304.461 238.311 304.45 238.359 304.371 238.207C304.274 238.001 304.05 237.621 303.863 237.408C303.63 237.062 302.977 236.603 303.05 236.774C304.698 238.096 307.496 238.552 309.721 239.131C314.546 240.199 319.958 240.87 325.185 241.681C327.664 241.967 329.434 244.266 329.044 246.738C328.768 248.519 327.456 249.884 325.82 250.32C321.508 251.449 317.318 252.122 312.913 252.463C298.359 253.726 285.456 249.791 288.815 232.358C289.791 227.521 291.678 222.988 293.757 218.764C296.475 213.499 299.411 208.467 303.418 204.021C306.986 199.657 313.664 199.102 317.408 203.7C320.454 207.448 319.887 212.956 316.142 216.005Z" fill="#064F2C"/>
<path d="M325.428 242.131L323.922 246.498C324.068 251.349 330.272 250.083 330.272 250.083L333.502 250.68C334.597 250.881 335.715 250.141 336.143 248.928L337.219 245.884C337.71 244.496 337.128 242.999 335.928 242.566L333.232 241.592C332.448 241.309 331.606 241.224 330.781 241.346L325.428 242.131Z" fill="#EBB376"/>
<path d="M324.749 240.615L327.738 241.817C325.313 245.434 324.772 249.943 324.772 249.943L320.91 252.509C320.91 252.509 319.898 243.8 324.749 240.615Z" fill="#064F2C"/>
<path opacity="0.5" d="M324.749 240.615L327.738 241.817C325.313 245.434 324.772 249.943 324.772 249.943L320.91 252.509C320.91 252.509 319.898 243.8 324.749 240.615Z" fill="white"/>
<path d="M335.533 180.106L340.433 174.814L340.185 174.545C340.185 174.545 340.551 174.508 340.875 174.542C341.044 174.547 341.219 174.657 341.342 174.861L350.262 189.528C350.47 189.87 350.455 190.347 350.228 190.592L345.208 196.014C345.126 196.102 345.027 196.144 344.924 196.15V196.155H344.904C344.903 196.155 344.9 196.157 344.898 196.157C344.895 196.157 344.893 196.155 344.889 196.155L344.213 196.157L344.337 195.702L335.499 181.171C335.29 180.828 335.305 180.351 335.533 180.106Z" fill="#064F2C"/>
<path d="M344.568 196.013L349.588 190.591C349.815 190.346 349.83 189.869 349.622 189.527L340.702 174.86C340.494 174.518 340.141 174.439 339.914 174.684L334.894 180.106C334.667 180.351 334.651 180.828 334.859 181.17L343.779 195.837C343.988 196.179 344.341 196.258 344.568 196.013Z" fill="#064F2C"/>
<path opacity="0.6" d="M344.568 196.013L349.588 190.591C349.815 190.346 349.83 189.869 349.622 189.527L340.702 174.86C340.494 174.518 340.141 174.439 339.914 174.684L334.894 180.106C334.667 180.351 334.651 180.828 334.859 181.17L343.779 195.837C343.988 196.179 344.341 196.258 344.568 196.013Z" fill="white"/>
<path d="M344.272 195.447L349.235 190.089C349.345 189.969 349.353 189.736 349.252 189.569L340.596 175.336C340.495 175.169 340.322 175.13 340.211 175.25L335.249 180.608C335.138 180.728 335.13 180.961 335.232 181.128L343.887 195.36C343.989 195.528 344.161 195.567 344.272 195.447Z" fill="#263238"/>
<g opacity="0.4">
<path d="M336.814 181.892C336.88 181.892 336.945 181.866 336.994 181.813L340.823 177.679C340.915 177.58 340.908 177.426 340.809 177.334C340.711 177.242 340.557 177.249 340.465 177.348L336.635 181.483C336.543 181.582 336.55 181.736 336.649 181.828C336.695 181.871 336.754 181.892 336.814 181.892Z" fill="white"/>
</g>
<path opacity="0.4" d="M340.568 186.294C340.94 186.906 341.449 187.261 341.959 187.332C342.392 187.396 342.827 187.252 343.172 186.879C343.518 186.505 343.714 185.97 343.756 185.392C343.81 184.712 343.656 183.975 343.283 183.362C342.596 182.233 341.43 181.973 340.681 182.782C339.931 183.591 339.881 185.164 340.568 186.294Z" fill="white"/>
<path d="M341.906 187.248C341.924 187.276 341.941 187.306 341.962 187.332C342.394 187.396 342.829 187.252 343.175 186.879C343.52 186.505 343.717 185.97 343.759 185.392C343.744 185.359 343.726 185.331 343.708 185.301C343.343 184.701 342.78 184.481 342.312 184.683C342.355 184.415 342.304 184.105 342.151 183.855C341.903 183.446 341.479 183.352 341.208 183.644C340.937 183.937 340.918 184.509 341.167 184.918C341.319 185.168 341.536 185.299 341.742 185.298C341.497 185.866 341.541 186.647 341.906 187.248Z" fill="white"/>
<path opacity="0.2" d="M344.245 195.121L349.005 189.98C349.08 189.899 349.085 189.742 349.016 189.63L347.743 187.537C347.675 187.425 347.559 187.399 347.484 187.48L342.724 192.621C342.649 192.702 342.644 192.858 342.712 192.971L343.985 195.063C344.054 195.176 344.17 195.201 344.245 195.121Z" fill="white"/>
<g opacity="0.4">
<path d="M338.921 181.085C338.953 181.085 338.986 181.072 339.01 181.046L339.804 180.188C339.849 180.139 339.847 180.062 339.797 180.016C339.748 179.97 339.671 179.973 339.625 180.022L338.832 180.88C338.786 180.93 338.788 181.006 338.838 181.052C338.861 181.075 338.891 181.085 338.921 181.085Z" fill="white"/>
</g>
<path opacity="0.4" d="M343.848 193.548C344.02 193.831 344.311 193.897 344.498 193.693C344.686 193.491 344.699 193.098 344.526 192.814C344.354 192.531 344.063 192.466 343.876 192.669C343.688 192.872 343.676 193.266 343.848 193.548Z" fill="white"/>
<path opacity="0.4" d="M344.982 192.322C345.154 192.604 345.446 192.67 345.634 192.467C345.821 192.264 345.835 191.871 345.662 191.587C345.489 191.304 345.198 191.239 345.01 191.442C344.823 191.646 344.811 192.039 344.982 192.322Z" fill="white"/>
<path opacity="0.4" d="M346.117 191.096C346.289 191.379 346.581 191.444 346.769 191.241C346.956 191.038 346.969 190.645 346.797 190.362C346.625 190.079 346.333 190.014 346.146 190.217C345.958 190.419 345.945 190.813 346.117 191.096Z" fill="white"/>
<path d="M347.252 189.869C347.424 190.152 347.716 190.218 347.903 190.014C348.09 189.812 348.103 189.418 347.931 189.135C347.759 188.852 347.467 188.787 347.279 188.99C347.093 189.193 347.08 189.587 347.252 189.869Z" fill="#064F2C"/>
<path d="M329.45 168.897C329.45 168.897 333.008 169.006 334.56 170.966C336.113 172.926 339.164 180.668 337.049 181.961C334.935 183.255 328.004 182.171 327.154 179.433C326.303 176.696 329.45 168.897 329.45 168.897Z" fill="#263238"/>
<path d="M316.022 182.256C318.412 189.187 320.197 193.846 325.43 195.798C335.825 199.676 340.052 194.619 339.948 187.153C339.856 180.433 335.962 170.229 327.743 169.214C319.647 168.215 313.631 175.325 316.022 182.256Z" fill="#EBB376"/>
<path d="M327.447 180.693C327.447 180.693 325.811 180.355 324.732 181.238C326.264 181.237 327.447 180.693 327.447 180.693Z" fill="#D58745"/>
<path d="M327.536 181.348C327.536 181.348 326.012 181.356 325.277 182.44C326.626 182.123 327.536 181.348 327.536 181.348Z" fill="#D58745"/>
<path d="M333.152 172.851C333.152 172.851 329.305 173.048 326.307 173.971C330.144 173.488 333.152 172.851 333.152 172.851Z" fill="#D58745"/>
<path d="M334.251 173.42C334.251 173.42 329.024 174.318 326.66 175.604C331.242 174.564 334.251 173.42 334.251 173.42Z" fill="#D58745"/>
<path d="M329.711 180.473C329.866 181.094 330.322 181.511 330.727 181.405C331.132 181.299 331.334 180.71 331.179 180.089C331.023 179.468 330.567 179.051 330.162 179.157C329.757 179.263 329.555 179.852 329.711 180.473Z" fill="#263238"/>
<path d="M336.174 179.023C336.329 179.644 336.785 180.06 337.191 179.955C337.596 179.85 337.798 179.26 337.642 178.639C337.487 178.018 337.031 177.601 336.626 177.707C336.22 177.813 336.018 178.402 336.174 179.023Z" fill="#263238"/>
<path d="M325.965 179.532C325.903 179.54 325.838 179.532 325.776 179.506C325.585 179.426 325.496 179.206 325.577 179.014C326.389 177.088 328.091 176.749 328.164 176.736C328.369 176.697 328.564 176.832 328.6 177.036C328.636 177.241 328.501 177.437 328.298 177.475C328.242 177.486 326.916 177.765 326.268 179.302C326.214 179.433 326.095 179.517 325.965 179.532Z" fill="#263238"/>
<path d="M338.221 176.707C338.102 176.735 337.973 176.705 337.878 176.616C336.675 175.482 335.354 175.779 335.298 175.793C335.096 175.84 334.895 175.716 334.848 175.515C334.801 175.314 334.924 175.111 335.125 175.061C335.198 175.045 336.887 174.645 338.395 176.065C338.545 176.207 338.551 176.446 338.409 176.598C338.357 176.654 338.291 176.691 338.221 176.707Z" fill="#263238"/>
<path d="M338.602 187.043C338.602 187.043 335.859 186.997 328.514 188.556C329.844 190.58 331.832 192.042 335.586 191.208C339.34 190.373 338.602 187.043 338.602 187.043Z" fill="#263238"/>
<path d="M333.477 189.843C335.289 189.44 336.688 189.575 337.801 190.04C337.35 190.542 336.641 190.971 335.593 191.204C333.781 191.606 332.392 191.48 331.277 191.006C331.729 190.504 332.428 190.075 333.477 189.843Z" fill="#A02724"/>
<path d="M338.252 187.051C338.143 187.565 338.037 188.081 337.334 188.39C335.826 188.819 331.817 189.216 330.717 189.22C330.02 189.253 329.397 189.146 328.828 188.49C334.486 187.302 337.329 187.088 338.252 187.051Z" fill="white"/>
<path d="M326.69 166.392C324.211 165.833 314.414 169.408 312.41 174.482C309.06 182.965 315.102 188.895 315.102 188.895C315.102 188.895 318.54 189.398 321.843 189.344C325.146 189.29 323.712 180.184 321.402 178.24C321.402 178.24 321.217 178.143 320.903 178.013C319.625 177.394 317.512 176.115 317.418 175.318C317.309 174.406 320.32 170.819 322.486 170.606C324.652 170.392 327.329 170.939 328.681 170.697C330.033 170.455 330.81 170.085 330.81 170.085C330.81 170.085 329.167 166.951 326.69 166.392Z" fill="#263238"/>
<path d="M315.087 190.606C316.604 192.08 318.665 192.707 320.408 192.643C323.03 192.548 323.567 190.004 322.192 187.939C320.954 186.081 318.097 183.893 315.777 184.994C313.492 186.08 313.352 188.921 315.087 190.606Z" fill="#EBB376"/>
<path d="M323.767 185.078C323.767 185.078 324.517 188.428 325.225 189.137C325.934 189.846 327.575 186.845 328.349 186.007C329.124 185.168 334.752 185.821 334.752 185.821C334.752 185.821 334.844 186.452 334.796 186.532C334.749 186.612 329.432 187.717 328.772 187.633C328.111 187.549 326.453 190.703 329.086 192.704C331.717 194.707 333.896 194.584 334.752 194.13C335.607 193.675 334.916 192.242 334.916 192.242L336.536 191.878C336.536 191.878 336.665 193.313 337.501 193.611C338.337 193.909 339.468 190.243 339.548 188.25C339.629 186.257 338.536 185.692 336.059 186.53L335.785 185.493C335.785 185.493 338.921 183.911 339.293 184.117C340.231 184.638 341.055 188.006 340.87 190.13C340.685 192.253 339.691 196.533 335.227 197.284C330.763 198.034 326.769 197.194 324.106 195.206C321.443 193.217 322.85 188.86 322.85 188.86L323.767 185.078Z" fill="#263238"/>
<path d="M334.162 180.051L335.431 185.28C335.431 185.28 336.373 185.265 337.282 184.902C337.805 184.693 337.855 183.955 337.373 183.661C335.692 182.637 334.162 180.051 334.162 180.051Z" fill="#D58745"/>
<path opacity="0.2" d="M336.834 311.054L340.304 289.315C340.304 289.315 343.24 315.371 340.348 323.46C339.516 320.096 336.834 311.054 336.834 311.054Z" fill="black"/>
<path d="M86.1038 355.669C85.6124 360.169 85.1723 373.22 84.1895 376.4C86.0291 379.857 88.5887 380.61 90.2492 378.594C91.9097 376.578 95.1425 359.07 95.1425 359.07L86.1038 355.669Z" fill="#EBB376"/>
<path d="M71.9884 380.261C71.9884 380.261 82.9036 377.043 83.7028 372.746C83.7811 372.324 84.1348 372.044 84.5839 372.119L92.5111 373.445C92.881 373.507 93.205 373.791 93.3184 374.152L93.9367 381.865L88.9948 381.935L88.3765 381.41L84.5245 381.99C72.3556 382.371 74.2933 382.405 71.8606 381.722C71.479 380.657 71.9884 380.261 71.9884 380.261Z" fill="#263238"/>
<path d="M82.2708 302.889C83.7828 325.344 84.0438 363.072 84.0438 363.072L94.7178 363.54C94.7178 363.54 100.109 340.356 100.928 316.074C101 313.797 101.036 311.52 101.027 309.243C103.682 292.503 106.877 279.966 109.703 269.661C112.349 259.995 114.68 252.309 115.94 244.956L84.4398 234.723C82.6848 240.222 79.6518 263.91 82.2708 302.889Z" fill="#263238"/>
<path opacity="0.2" d="M82.2708 302.889C83.7828 325.344 84.0438 363.072 84.0438 363.072L94.7178 363.54C94.7178 363.54 100.109 340.356 100.928 316.074C101 313.797 101.036 311.52 101.027 309.243C103.682 292.503 106.877 279.966 109.703 269.661C112.349 259.995 114.68 252.309 115.94 244.956L84.4398 234.723C82.6848 240.222 79.6518 263.91 82.2708 302.889Z" fill="white"/>
<path d="M93.7944 369.198C91.7685 369.349 84.978 368.074 83.6703 367.27C82.3626 366.467 83.1942 361.199 83.1942 361.199C83.1942 361.199 94.5909 361.093 95.4513 362.07C96.3126 363.048 93.7944 369.198 93.7944 369.198Z" fill="#263238"/>
<path opacity="0.3" d="M93.7944 369.198C91.7685 369.349 84.978 368.074 83.6703 367.27C82.3626 366.467 83.1942 361.199 83.1942 361.199C83.1942 361.199 94.5909 361.093 95.4513 362.07C96.3126 363.048 93.7944 369.198 93.7944 369.198Z" fill="white"/>
<path opacity="0.1" d="M100.923 316.074C100.995 313.797 101.031 311.52 101.022 309.243C103.677 292.503 106.872 279.966 109.698 269.661C106.305 259.995 99.1783 252.043 94.5163 251.197C94.5163 251.197 89.0434 293.898 100.923 316.074Z" fill="black"/>
<path d="M83.8716 237.76C83.5008 234.146 84.021 230.28 84.021 230.28C84.0363 229.498 120.842 228.709 123.804 228.887C123.804 228.887 125.088 240.588 124.202 250.464C98.3346 251.655 84.5916 242.321 83.8716 237.76Z" fill="#263238"/>
<path opacity="0.2" d="M83.8716 237.76C83.5008 234.146 84.021 230.28 84.021 230.28C84.0363 229.498 120.842 228.709 123.804 228.887C123.804 228.887 125.088 240.588 124.202 250.464C98.3346 251.655 84.5916 242.321 83.8716 237.76Z" fill="white"/>
<path d="M107.94 236.491C102.364 236.457 96.4307 236.324 91.9316 236.16C91.7417 235.102 91.8083 233.571 91.8713 232.703C98.1578 232.864 103.549 232.952 107.999 232.995C108.016 233.987 108.026 235.595 107.94 236.491Z" fill="black"/>
<path d="M90.0655 236.086C87.7057 235.986 85.9183 235.878 85.0831 235.776C84.841 235.746 84.6583 235.55 84.6385 235.302C84.5935 234.747 84.5215 233.742 84.5215 233.027C84.5215 232.733 84.7645 232.499 85.0534 232.508C86.8192 232.563 88.5211 232.612 90.1717 232.657C90.0835 233.592 89.9602 235.215 90.0655 236.086Z" fill="black"/>
<path d="M123.177 235.782C123.121 235.979 122.951 236.12 122.751 236.141C120.283 236.409 115.48 236.508 110.092 236.5C110.176 235.547 110.048 233.942 109.957 233.011C117.121 233.063 121.489 233 122.83 232.976C123.093 232.971 123.315 233.168 123.344 233.435C123.401 233.961 123.435 234.867 123.177 235.782Z" fill="black"/>
<path d="M119.334 357.181C119.741 361.689 121.886 374.57 121.552 377.881C124.037 380.906 126.696 381.14 127.925 378.836C129.156 376.532 128.866 358.73 128.866 358.73L119.334 357.181Z" fill="#EBB376"/>
<path d="M124.793 308.724C123.432 275.926 124.72 255.358 124.275 239.947L93.8128 238.944C93.1819 244.682 94.8874 268.502 105.153 306.195C111.067 327.91 118.779 364.847 118.779 364.847L129.332 363.199C129.332 363.199 130.17 334.737 124.793 308.724Z" fill="#263238"/>
<path opacity="0.2" d="M124.793 308.724C123.432 275.926 124.72 255.358 124.275 239.947L93.8128 238.944C93.1819 244.682 94.8874 268.502 105.153 306.195C111.067 327.91 118.779 364.847 118.779 364.847L129.332 363.199C129.332 363.199 130.17 334.737 124.793 308.724Z" fill="white"/>
<path d="M129.547 368.926C127.59 369.475 120.683 369.565 119.242 369.034C117.801 368.505 117.576 363.176 117.576 363.176C117.576 363.176 128.727 360.821 129.764 361.61C130.801 362.4 129.547 368.926 129.547 368.926Z" fill="#263238"/>
<path opacity="0.3" d="M129.547 368.926C127.59 369.475 120.683 369.565 119.242 369.034C117.801 368.505 117.576 363.176 117.576 363.176C117.576 363.176 128.727 360.821 129.764 361.61C130.801 362.4 129.547 368.926 129.547 368.926Z" fill="white"/>
<path d="M108.221 380.261C108.221 380.261 119.136 377.043 119.935 372.746C120.013 372.324 120.367 372.044 120.816 372.119L128.743 373.445C129.113 373.507 129.437 373.791 129.551 374.152L130.169 381.865L125.227 381.935L124.609 381.41L120.757 381.99C108.588 382.371 110.526 382.405 108.093 381.722C107.711 380.657 108.221 380.261 108.221 380.261Z" fill="#263238"/>
<path d="M92.2043 183.132C87.9131 182.247 82.1945 181.197 77.9834 180.112C73.2008 178.8 68.0672 177.786 63.7967 174.745C60.7403 172.517 59.6477 167.915 62.6294 164.72C63.8867 163.344 65.6741 162.428 67.2419 161.765C70.9274 160.218 74.6813 159.307 78.4487 158.422C81.9704 157.615 85.8395 156.919 89.3963 156.277L91.2215 155.963C91.7642 155.913 92.5346 155.621 93.1097 155.847L94.6793 162.195C94.3121 162.649 93.5345 162.764 93.0332 162.977L91.3313 163.586C88.0472 164.774 84.44 166.145 81.2405 167.439C77.6792 168.971 73.7606 170.271 70.6943 172.382C70.6952 172.396 70.8662 172.248 70.8869 172.229C71.3747 171.709 71.6123 171.312 71.8706 170.536C72.3008 169.434 72.0164 167.541 71.5007 166.785C70.9868 165.916 70.733 165.809 70.6592 165.707C70.5737 165.631 70.634 165.662 70.7402 165.702C75.6056 167.501 82.4267 168.455 87.6476 169.505C89.8823 169.943 92.7272 170.43 94.9952 170.979L92.2043 183.132Z" fill="#E9BFBB"/>
<path d="M98.4933 170.034L92.6073 179.602L88.4169 186.416L84.8106 185.019L79.5879 182.989L83.1546 167.535C83.1546 167.535 94.1184 169.202 98.4933 170.034Z" fill="#064F2C"/>
<path opacity="0.2" d="M92.9722 177.887C92.8624 178.476 92.7427 179.049 92.6131 179.603L88.4227 186.417L84.8164 185.02C87.7747 179.907 92.9722 177.887 92.9722 177.887Z" fill="black"/>
<path d="M90.8516 157.991L95.321 151.697L101.065 158.957C101.065 158.957 96.3263 164.165 93.1529 162.095L90.8516 157.991Z" fill="#EEC1BB"/>
<path d="M103.213 150.296L104.797 153.179C105.428 154.328 105.134 155.763 104.103 156.571L101.062 158.956L95.3184 151.696L99.5313 149.265C100.831 148.517 102.491 148.982 103.213 150.296Z" fill="#EEC1BB"/>
<path d="M133.864 188.268C132.667 191.76 131.818 194.807 131.135 197.606C130.682 199.437 130.302 201.163 129.933 202.839C129.523 204.724 129.135 206.54 128.691 208.375C128.242 210.216 127.733 212.067 127.094 214.017C127.075 214.088 127.055 214.157 127.03 214.227C125.04 222.807 126.551 222.513 125.224 229.506C125.224 229.506 126.162 233.612 123.194 233.752C116.445 234.076 96.6257 237.348 84.0752 231.782C82.5785 231.118 81.8549 227.382 84.1697 225.302C85.0328 214.003 84.7484 195.891 87.1973 186.627C87.5366 185.345 87.9308 184.233 88.3844 183.329C93.158 173.851 97.8776 169.92 97.8776 169.92C97.8776 169.92 98.4959 170.095 100.99 170.295C109.455 170.973 119.816 172.998 127.338 175.388C130.466 176.38 132.775 178.745 133.808 181.603C134.562 183.678 134.642 186.012 133.864 188.268Z" fill="#064F2C"/>
<path d="M121.089 157.944C119.753 165.059 120.333 169.405 121.208 173.551C121.291 173.949 121.128 174.364 120.781 174.577C117.607 176.52 114.288 178.616 108.636 177.64C103.048 176.676 102.486 174.124 104.17 172.41C104.409 172.167 104.707 171.987 105.027 171.869C109.262 170.318 109.962 167.316 109.239 165.291L121.089 157.944Z" fill="#EEC1BB"/>
<path opacity="0.2" d="M121.089 157.946L109.239 165.29C109.648 166.424 109.606 167.874 108.73 169.201C110.715 169.637 112.879 169.382 114.949 168.197C117.973 166.466 119.351 164.01 120.69 160.431C120.79 159.642 120.928 158.819 121.089 157.946Z" fill="black"/>
<path d="M112.512 151.257L109.848 144.554L110.178 144.392C110.178 144.392 109.849 144.226 109.535 144.141C109.376 144.085 109.173 144.125 108.985 144.27L95.3783 154.736C95.0606 154.98 94.9031 155.43 95.0264 155.741L97.7552 162.607C97.8002 162.719 97.8776 162.793 97.9703 162.836L97.9685 162.841L97.9874 162.848C97.9892 162.849 97.991 162.851 97.9928 162.851C97.9955 162.852 97.9991 162.852 98.0009 162.853L98.6309 163.098L98.6786 162.63L112.16 152.26C112.478 152.017 112.636 151.567 112.512 151.257Z" fill="#064F2C"/>
<path d="M98.347 162.837L95.6182 155.971C95.4949 155.66 95.6524 155.21 95.9701 154.967L109.577 144.5C109.895 144.257 110.252 144.31 110.375 144.62L113.104 151.486C113.228 151.797 113.07 152.247 112.752 152.491L99.1453 162.957C98.8276 163.202 98.4703 163.148 98.347 162.837Z" fill="#064F2C"/>
<path opacity="0.6" d="M98.347 162.837L95.6182 155.971C95.4949 155.66 95.6524 155.21 95.9701 154.967L109.577 144.5C109.895 144.257 110.252 144.31 110.375 144.62L113.104 151.486C113.228 151.797 113.07 152.247 112.752 152.491L99.1453 162.957C98.8276 163.202 98.4703 163.148 98.347 162.837Z" fill="white"/>
<path d="M98.8273 162.416L96.13 155.628C96.0697 155.476 96.1462 155.256 96.3019 155.137L109.506 144.981C109.661 144.861 109.836 144.887 109.896 145.04L112.594 151.827C112.654 151.979 112.577 152.199 112.422 152.319L99.2179 162.474C99.0631 162.594 98.8876 162.568 98.8273 162.416Z" fill="#263238"/>
<g opacity="0.4">
<path d="M110.669 152.458C110.608 152.435 110.557 152.386 110.531 152.321L108.449 147.083C108.399 146.958 108.461 146.817 108.586 146.767C108.71 146.716 108.852 146.777 108.902 146.903L110.984 152.141C111.034 152.266 110.972 152.408 110.847 152.457C110.788 152.481 110.725 152.48 110.669 152.458Z" fill="white"/>
</g>
<path opacity="0.4" d="M105.584 155.213C105.016 155.651 104.414 155.798 103.912 155.68C103.486 155.584 103.132 155.293 102.945 154.82C102.757 154.347 102.767 153.777 102.936 153.222C103.13 152.569 103.541 151.937 104.109 151.5C105.157 150.694 106.339 150.872 106.745 151.896C107.152 152.921 106.633 154.407 105.584 155.213Z" fill="white"/>
<path d="M103.995 155.621C103.968 155.642 103.941 155.662 103.912 155.679C103.486 155.583 103.132 155.292 102.945 154.819C102.757 154.346 102.767 153.775 102.936 153.221C102.961 153.197 102.989 153.176 103.016 153.155C103.573 152.726 104.178 152.726 104.542 153.082C104.598 152.816 104.758 152.546 104.99 152.367C105.369 152.076 105.799 152.141 105.946 152.511C106.094 152.882 105.904 153.422 105.525 153.714C105.293 153.892 105.044 153.936 104.852 153.861C104.874 154.481 104.552 155.192 103.995 155.621Z" fill="white"/>
<path opacity="0.2" d="M98.9744 162.123L96.3869 155.612C96.3464 155.51 96.3977 155.362 96.503 155.282L98.4443 153.789C98.5487 153.708 98.6666 153.726 98.7071 153.828L101.295 160.339C101.335 160.44 101.284 160.589 101.179 160.669L99.2381 162.162C99.1328 162.242 99.0149 162.224 98.9744 162.123Z" fill="white"/>
<g opacity="0.4">
<path d="M108.998 150.95C108.968 150.938 108.942 150.914 108.929 150.881L108.497 149.794C108.472 149.731 108.503 149.661 108.566 149.636C108.628 149.611 108.699 149.641 108.724 149.704L109.156 150.79C109.181 150.853 109.151 150.923 109.088 150.948C109.058 150.962 109.025 150.961 108.998 150.95Z" fill="white"/>
</g>
<path d="M99.917 160.799C99.6542 161.001 99.359 160.957 99.2573 160.7C99.1556 160.444 99.2852 160.072 99.548 159.871C99.8108 159.669 100.106 159.713 100.208 159.97C100.309 160.226 100.179 160.597 99.917 160.799Z" fill="#064F2C"/>
<path opacity="0.4" d="M99.2979 159.246C99.0351 159.448 98.7399 159.403 98.6382 159.147C98.5365 158.89 98.6661 158.519 98.9289 158.317C99.1917 158.116 99.4869 158.16 99.5886 158.416C99.6903 158.673 99.5598 159.044 99.2979 159.246Z" fill="white"/>
<path opacity="0.4" d="M98.6807 157.693C98.4179 157.894 98.1227 157.85 98.021 157.594C97.9193 157.337 98.0489 156.965 98.3117 156.764C98.5736 156.562 98.8697 156.606 98.9714 156.863C99.0731 157.119 98.9426 157.491 98.6807 157.693Z" fill="white"/>
<path opacity="0.4" d="M98.0635 156.14C97.8016 156.342 97.5055 156.298 97.4038 156.041C97.3021 155.785 97.4317 155.413 97.6945 155.211C97.9573 155.01 98.2525 155.054 98.3542 155.31C98.4559 155.566 98.3263 155.938 98.0635 156.14Z" fill="white"/>
<path opacity="0.7" d="M129.933 202.839C129.115 206.619 128.371 210.131 127.094 214.017C127.075 214.088 127.055 214.157 127.03 214.227C125.04 222.807 126.551 222.513 125.224 229.506C125.224 229.506 126.162 233.612 123.194 233.752C116.445 234.076 96.6257 237.348 84.0752 231.782C82.5785 231.118 81.8549 227.382 84.1697 225.302C85.0328 214.003 84.7484 195.891 87.1973 186.627C89.1575 183.594 93.6323 177.902 101.309 174.52C101.309 174.52 101.626 176.726 105.619 178.236C111.907 180.614 117.422 178.236 117.422 178.236C117.422 178.236 122.326 182.058 125.309 193.011C126.825 198.583 128.576 201.407 129.933 202.839Z" fill="white"/>
<path opacity="0.2" d="M131.137 197.605C130.684 199.436 130.304 201.162 129.935 202.838C129.525 204.723 129.136 206.539 128.693 208.375C126.283 202.997 127.86 195.046 127.86 195.046C129.136 195.57 130.229 196.473 131.137 197.605Z" fill="black"/>
<path d="M139.177 185.24C141.233 193.349 142.94 201.336 143.893 209.708C144.107 212.749 144.645 215.534 143.448 218.949C142.596 221.068 141.212 223.06 140.007 224.772C137.595 228.19 134.954 231.408 132.282 234.57C129.253 238.107 125.921 241.82 122.787 245.273C122.373 245.67 121.861 246.457 121.251 246.664L116.133 242.595C116.195 241.964 116.789 241.326 117.099 240.811L118.215 239.136C120.374 235.879 122.709 232.294 124.771 229.016C127.551 224.482 130.789 219.936 132.927 215.145C132.943 215.104 132.956 215.07 132.94 215.088C132.92 215.108 132.935 215.084 132.907 215.15C132.887 215.194 132.871 215.241 132.86 215.287C132.849 215.323 132.844 215.417 132.84 215.37C132.803 215.131 132.82 214.99 132.783 214.684C131.628 205.918 129.052 196.983 127.089 188.298C127.087 188.297 139.177 185.24 139.177 185.24Z" fill="#E9BFBB"/>
<path d="M126.146 175.021C126.146 175.021 133.148 176.464 137.201 180.109C142.604 184.969 143.574 202.444 143.574 202.444L130.409 206.511L127.281 197.594L126.146 175.021Z" fill="#064F2C"/>
<path d="M111.195 142.002C111.195 142.002 106.313 144.644 107.326 153.055C108.34 161.467 119.516 145.653 111.195 142.002Z" fill="#EEC1BB"/>
<path opacity="0.5" d="M111.195 142.002C111.195 142.002 106.313 144.644 107.326 153.055C108.34 161.467 119.516 145.653 111.195 142.002Z" fill="black"/>
<path d="M124.605 153.625C122.984 159.963 123.705 161.161 119.836 163.806C114.016 167.783 105.856 167.228 105.94 160.51C106.015 154.463 107.43 143.748 114.198 142.454C120.863 141.179 126.226 147.287 124.605 153.625Z" fill="#EEC1BB"/>
<path d="M116.717 152.798C116.592 153.34 116.333 153.341 115.978 153.256C115.624 153.17 115.307 153.032 115.432 152.489C115.557 151.945 115.947 151.575 116.302 151.66C116.657 151.745 116.842 152.255 116.717 152.798Z" fill="#263238"/>
<path d="M109.947 151.943C109.822 152.486 109.563 152.486 109.208 152.401C108.854 152.315 108.537 152.177 108.663 151.634C108.788 151.09 109.178 150.72 109.532 150.805C109.887 150.891 110.072 151.4 109.947 151.943Z" fill="#263238"/>
<path d="M111.033 151.892C111.033 151.892 109.667 154.159 108.414 155.149C109.044 155.977 110.367 155.882 110.367 155.882L111.033 151.892Z" fill="#D4827D"/>
<path d="M118.199 150.534C118.254 150.532 118.308 150.517 118.359 150.487C118.513 150.394 118.561 150.192 118.466 150.037C117.516 148.485 116.005 148.415 115.941 148.412C115.76 148.406 115.61 148.547 115.606 148.728C115.601 148.908 115.742 149.06 115.922 149.066C115.972 149.069 117.15 149.136 117.907 150.375C117.973 150.481 118.086 150.538 118.199 150.534Z" fill="#263238"/>
<path d="M107.786 148.902C107.886 148.939 108.002 148.927 108.092 148.859C109.25 148.002 110.362 148.395 110.409 148.412C110.578 148.474 110.765 148.388 110.827 148.218C110.888 148.049 110.802 147.861 110.633 147.797C110.571 147.776 109.152 147.255 107.702 148.33C107.557 148.437 107.527 148.642 107.635 148.789C107.675 148.843 107.728 148.882 107.786 148.902Z" fill="#263238"/>
<path d="M121.432 148.305C121.432 148.305 121.497 146.049 119.682 145.055C117.868 144.061 112.652 145.946 109.781 143.348C109.781 143.348 107.234 138.894 112.488 137.405C117.741 135.916 126.663 139.336 128.991 143.752C131.319 148.167 129.665 151.179 129.665 151.179C129.826 149.853 129.563 149.176 129.563 149.176C129.563 149.176 129.733 152.19 127.456 153.926L121.432 148.305Z" fill="#263238"/>
<path d="M123.122 157.843C120 159.244 120.992 156.244 121.232 155.951C122.281 154.672 121.672 152.696 120.946 149.921C120.623 148.686 121.143 146.777 121.143 146.777C121.143 146.777 124.849 146.439 126.965 147.205C129.149 147.996 129.047 149.808 129.047 149.808C127.99 155.436 125.638 156.714 123.122 157.843Z" fill="#EEC1BB"/>
<path opacity="0.5" d="M123.122 157.843C120 159.244 120.992 156.244 121.232 155.951C122.281 154.672 121.672 152.696 120.946 149.921C120.623 148.686 121.143 146.777 121.143 146.777C121.143 146.777 124.849 146.439 126.965 147.205C129.149 147.996 129.047 149.808 129.047 149.808C127.99 155.436 125.638 156.714 123.122 157.843Z" fill="black"/>
<path d="M126.716 158.467C125.793 159.887 124.403 160.758 123.168 161.036C121.312 161.455 120.68 159.596 121.445 157.747C122.133 156.083 123.929 153.861 125.673 154.274C127.392 154.681 127.772 156.842 126.716 158.467Z" fill="#EEC1BB"/>
<path d="M110.189 159.442C110.124 159.442 110.061 159.408 110.027 159.349C109.976 159.26 110.005 159.145 110.095 159.093C110.146 159.063 111.382 158.359 114.255 158.359C114.359 158.359 114.442 158.443 114.442 158.546C114.442 158.65 114.359 158.733 114.255 158.733C111.499 158.733 110.294 159.409 110.283 159.416C110.254 159.433 110.221 159.442 110.189 159.442Z" fill="#263238"/>
<path d="M227.138 396.995H220.062V399.62H227.138V396.995Z" fill="#263238"/>
<path d="M284.593 396.995H277.518V399.62H284.593V396.995Z" fill="#263238"/>
<path d="M285.571 329.755H219.093C218.406 329.755 217.848 330.313 217.848 331.001V396.635C217.848 397.323 218.405 397.881 219.093 397.881H285.572C286.259 397.881 286.817 397.324 286.817 396.635V331.001C286.816 330.313 286.259 329.755 285.571 329.755Z" fill="#064F2C"/>
<path opacity="0.4" d="M286.822 331.004V396.632C286.822 397.325 286.264 397.883 285.571 397.883H219.097C218.404 397.883 217.846 397.325 217.846 396.632V331.004C217.846 330.311 218.404 329.753 219.097 329.753H285.571C286.264 329.753 286.822 330.311 286.822 331.004Z" fill="white"/>
<path opacity="0.2" d="M286.822 331.004V346.88C253.972 346.988 226 345.395 217.846 344.882V331.004C217.846 330.311 218.404 329.753 219.097 329.753H285.571C286.264 329.753 286.822 330.311 286.822 331.004Z" fill="black"/>
<path d="M284.871 344.717H219.786C217.384 344.717 215.438 342.77 215.438 340.368V332.158C215.438 329.756 217.384 327.809 219.786 327.809H284.871C287.272 327.809 289.219 329.756 289.219 332.158V340.368C289.219 342.77 287.272 344.717 284.871 344.717Z" fill="#064F2C"/>
<path opacity="0.4" d="M289.221 332.156V340.364C289.221 342.767 287.277 344.72 284.874 344.72H219.786C217.383 344.72 215.439 342.767 215.439 340.364V332.156C215.439 329.753 217.383 327.809 219.786 327.809H284.874C287.277 327.809 289.221 329.753 289.221 332.156Z" fill="white"/>
<path opacity="0.2" d="M289.219 332.156V336.539C287.734 335.099 284.445 335.849 282.078 337.334C278.406 339.638 266.077 339.41 261.919 336.539C257.77 333.668 255.123 337.334 242.861 336.263C232.179 335.328 231.259 327.809 223.6 327.809H284.872C287.275 327.809 289.219 329.753 289.219 332.156Z" fill="black"/>
<path d="M321.588 394.42C320.589 394.42 318.986 393.664 318.607 393.477C318.604 393.476 318.602 393.475 318.599 393.474C318.582 393.465 318.567 393.453 318.554 393.439C318.536 393.421 318.521 393.397 318.511 393.372C318.507 393.359 318.503 393.344 318.501 393.331C318.498 393.3 318.501 393.27 318.512 393.242C318.54 393.167 319.161 391.506 320.137 391.114C320.447 390.99 320.759 391.001 321.063 391.15C321.388 391.309 321.543 391.513 321.527 391.758C321.501 392.134 320.985 392.506 320.399 392.81C321.006 392.76 321.626 392.782 322.003 393.006C322.204 393.124 322.331 393.288 322.38 393.494C322.483 393.921 322.337 394.144 322.198 394.256C322.053 394.373 321.839 394.42 321.588 394.42ZM319.263 393.365C320.313 393.824 321.623 394.234 321.962 393.961C321.992 393.937 322.082 393.865 322.013 393.583C321.988 393.479 321.922 393.396 321.812 393.331C321.299 393.027 320.067 393.196 319.263 393.365ZM320.561 391.407C320.467 391.407 320.373 391.426 320.278 391.465C319.714 391.692 319.261 392.501 319.031 392.989C320.097 392.599 321.128 392.054 321.15 391.732C321.157 391.632 320.994 391.538 320.897 391.49C320.785 391.434 320.672 391.407 320.561 391.407Z" fill="#064F2C"/>
<path d="M310.632 392.582C310.653 391.999 317.813 392.542 317.813 392.542C317.813 392.542 322.167 397.078 326.436 398.137C330.706 399.196 328.282 401.737 323.497 401.679C318.712 401.621 315.06 401.578 311.659 401.537C308.258 401.495 310.418 398.624 310.632 392.582Z" fill="#263238"/>
<path d="M257.685 394.42C256.686 394.42 255.083 393.664 254.703 393.477C254.701 393.476 254.699 393.475 254.696 393.474C254.679 393.465 254.663 393.453 254.649 393.439C254.631 393.421 254.617 393.397 254.607 393.372C254.602 393.359 254.599 393.344 254.597 393.331C254.593 393.3 254.597 393.27 254.608 393.242C254.636 393.167 255.257 391.506 256.232 391.114C256.543 390.99 256.854 391.001 257.158 391.15C257.483 391.309 257.639 391.513 257.623 391.758C257.597 392.134 257.081 392.506 256.495 392.81C257.102 392.76 257.722 392.782 258.099 393.006C258.3 393.124 258.427 393.288 258.476 393.494C258.579 393.921 258.434 394.144 258.293 394.256C258.149 394.373 257.937 394.42 257.685 394.42ZM255.359 393.365C256.41 393.824 257.719 394.234 258.058 393.961C258.088 393.937 258.178 393.865 258.11 393.583C258.085 393.479 258.019 393.396 257.908 393.331C257.396 393.027 256.165 393.196 255.359 393.365ZM256.657 391.407C256.564 391.407 256.47 391.426 256.375 391.465C255.81 391.692 255.358 392.501 255.128 392.989C256.194 392.599 257.224 392.054 257.247 391.732C257.254 391.632 257.091 391.538 256.994 391.49C256.881 391.434 256.77 391.407 256.657 391.407Z" fill="#064F2C"/>
<path d="M246.73 392.582C246.751 391.999 253.91 392.542 253.91 392.542C253.91 392.542 258.264 397.078 262.534 398.137C266.804 399.196 264.38 401.737 259.595 401.679C254.809 401.621 251.157 401.578 247.757 401.537C244.356 401.495 246.516 398.624 246.73 392.582Z" fill="#263238"/>
<path d="M263.198 304.405L263.669 309.399C263.669 309.399 292.901 313.843 297.58 318.416C302.259 322.99 319.031 392.989 319.031 392.989C319.031 392.989 314.156 395.059 310.336 393.983C310.336 393.983 287.423 349.661 287.684 335.125C287.684 335.125 267.222 335.889 253.255 335.889C239.288 335.889 237.619 304.404 237.619 304.404H263.198V304.405Z" fill="#064F2C"/>
<path opacity="0.2" d="M263.198 304.405L263.669 309.399C263.669 309.399 292.901 313.843 297.58 318.416C302.259 322.99 319.031 392.989 319.031 392.989C319.031 392.989 314.156 395.059 310.336 393.983C310.336 393.983 287.423 349.661 287.684 335.125C287.684 335.125 267.222 335.889 253.255 335.889C239.288 335.889 237.619 304.404 237.619 304.404H263.198V304.405Z" fill="black"/>
<path opacity="0.2" d="M286.236 335.175C282.897 335.292 274.257 335.58 265.383 335.751L267.201 314.736C267.201 314.736 277.713 316.014 284.319 320.991C286.821 322.872 286.928 328.875 286.236 335.175Z" fill="black"/>
<path d="M237.616 304.405C237.616 304.405 228.579 317.787 233.496 328.782C238.414 339.776 263.04 334.816 263.04 334.816C259.333 340.547 255.125 345.602 246.327 392.555C246.327 392.555 249.812 394.421 254.606 393.242C254.606 393.242 282.133 336.633 282.837 326.525C283.541 316.418 253.777 309.929 253.777 309.929L237.616 304.405Z" fill="#064F2C"/>
<path opacity="0.2" d="M237.616 304.405C237.616 304.405 228.579 317.787 233.496 328.782C238.414 339.776 263.04 334.816 263.04 334.816C259.333 340.547 255.125 345.602 246.327 392.555C246.327 392.555 249.812 394.421 254.606 393.242C254.606 393.242 282.133 336.633 282.837 326.525C283.541 316.418 253.777 309.929 253.777 309.929L237.616 304.405Z" fill="black"/>
<path d="M269.119 266.507C274.232 269.505 279.695 273.352 285.364 274.84C285.522 274.88 285.529 274.831 285.153 275C284.15 275.481 283.364 276.526 283.274 277.629C283.242 278.212 283.33 278.249 283.316 278.23C282.272 275.012 280.162 272.036 278.449 269.049C278.448 269.042 272.297 259.102 272.293 259.093C270.973 256.94 273.876 254.67 275.644 256.458C279.885 260.762 283.814 265.25 287.358 270.177C289.532 273.309 293.402 278.737 288.888 281.811C282.735 285.475 269.692 277.105 264.369 273.69C259.758 270.399 264.285 263.552 269.119 266.507Z" fill="#E4897B"/>
<path d="M276.321 270.057C276.321 270.057 274.944 276.123 271.552 278.567C270.774 279.131 269.891 279.5 268.888 279.564C267.042 279.68 265.81 277.953 264.992 275.644C263.44 271.259 263.371 264.775 263.371 264.775C269.228 265.468 271.363 267.169 276.321 270.057Z" fill="#263238"/>
<path opacity="0.2" d="M271.55 278.567C270.772 279.131 269.889 279.5 268.886 279.564C267.04 279.68 265.808 277.953 264.99 275.644C266.652 272.876 268.153 270.566 268.153 270.566C268.153 270.566 270.737 272.507 271.55 278.567Z" fill="black"/>
<path d="M270.531 277.405C270.602 282.748 266.4 296.993 264.279 306.047L236.008 305.666C236.532 302.992 238.247 294.795 237.962 288.654C237.947 288.225 237.917 287.766 237.892 287.308C237.833 286.106 237.737 284.819 237.633 283.442C237.613 283.167 237.593 282.888 237.568 282.604C237.433 281.007 237.264 279.292 237.064 277.451C236.884 275.785 236.675 274.014 236.435 272.138C236.325 271.226 236.205 270.293 236.076 269.325C235.497 265.025 238.68 261.428 242.91 261.603C244.037 261.648 245.239 261.723 246.451 261.842C251.205 262.292 255.101 262.696 259.231 263.678C260.598 263.998 262.015 264.387 263.367 264.776C268.232 266.171 270.472 272.397 270.531 277.405Z" fill="#263238"/>
<path opacity="0.2" d="M241.879 271.559C241.879 271.559 241.215 279.44 237.633 283.442C237.613 283.167 237.594 282.888 237.568 282.604C237.433 281.007 237.264 279.292 237.064 277.451C239.42 274.352 241.879 271.559 241.879 271.559Z" fill="black"/>
<path d="M246.23 233.276C241.483 242.006 241.718 253.201 243.351 255.541C244.985 257.88 268.795 256.6 268.795 256.6C268.795 256.6 266.479 254.065 266.24 239.931C266.002 225.797 246.23 233.276 246.23 233.276Z" fill="#263238"/>
<path d="M265.598 247.171C267.947 243.511 270.574 233.479 261.661 229.933C250.533 225.507 245.134 232.484 243.83 239.586C242.526 246.687 246.305 252.276 253.803 252.081C261.301 251.886 263.974 249.702 265.598 247.171Z" fill="#263238"/>
<path d="M251.236 248.105C251.346 252.405 250.888 260.124 247.611 262.178C247.611 262.178 249.024 263.856 258.466 269.525C261.635 266.727 260.151 265.228 260.151 265.228C255.833 263.04 256.512 259.67 257.825 256.668L251.236 248.105Z" fill="#E4897B"/>
<path opacity="0.2" d="M253.922 251.599L257.823 256.665C257.51 257.374 257.236 258.105 257.06 258.836C253.271 256.862 252.008 253.183 252.008 253.183C252.008 253.183 253.705 251.988 253.922 251.599Z" fill="black"/>
<path d="M275.824 258.127L275.847 250.807L269.526 251.81C269.526 251.81 268.791 256.925 272.503 259.02L275.824 258.127Z" fill="#E4897B"/>
<path d="M273.417 246.199L268.885 248.074L269.528 251.81L275.849 250.807L273.417 246.199Z" fill="#E4897B"/>
<path d="M224.593 263.585L218.738 259.19L223.349 254.751C223.349 254.751 227.873 257.248 227.307 261.473L224.593 263.585Z" fill="#E4897B"/>
<path d="M216.527 254.471L220.756 251.986L223.348 254.751L218.738 259.19L216.527 254.471Z" fill="#E4897B"/>
<path d="M242.727 268.411C241.293 272.318 239.699 275.995 237.719 279.696C235.727 283.151 233.729 287.199 229.88 289.294C228.357 290.16 226.046 289.942 224.766 288.841C221.09 285.853 221.936 277.802 221.99 273.541C222.196 269.478 222.649 265.505 223.296 261.504C223.485 260.335 224.586 259.541 225.755 259.73C226.764 259.893 227.493 260.735 227.553 261.714C227.792 265.63 228.046 269.589 228.351 273.453C228.732 276.726 228.77 280.381 229.963 283.317C229.776 282.771 228.467 282.024 227.637 282.096C227.186 282.072 226.678 282.223 226.326 282.353C226.337 282.318 226.355 282.315 226.436 282.216C230.068 277.39 232.236 270.992 234.664 265.39C236.84 260.173 244.509 263.041 242.727 268.411Z" fill="#E4897B"/>
<path d="M261.446 243.787L266.346 238.495L266.098 238.225C266.098 238.225 266.464 238.189 266.788 238.223C266.958 238.227 267.132 238.338 267.256 238.541L276.175 253.209C276.383 253.551 276.368 254.028 276.141 254.272L271.121 259.694C271.039 259.783 270.94 259.825 270.837 259.831V259.835H270.818C270.816 259.835 270.813 259.837 270.811 259.837C270.809 259.837 270.806 259.836 270.803 259.836L270.127 259.837L270.252 259.383L261.414 244.851C261.204 244.507 261.219 244.031 261.446 243.787Z" fill="#064F2C"/>
<path d="M270.482 259.693L275.502 254.272C275.729 254.027 275.744 253.55 275.536 253.208L266.616 238.541C266.408 238.199 266.055 238.119 265.828 238.365L260.808 243.787C260.581 244.031 260.565 244.508 260.773 244.85L269.693 259.518C269.901 259.86 270.255 259.938 270.482 259.693Z" fill="#064F2C"/>
<path opacity="0.6" d="M270.482 259.693L275.502 254.272C275.729 254.027 275.744 253.55 275.536 253.208L266.616 238.541C266.408 238.199 266.055 238.119 265.828 238.365L260.808 243.787C260.581 244.031 260.565 244.508 260.773 244.85L269.693 259.518C269.901 259.86 270.255 259.938 270.482 259.693Z" fill="white"/>
<path d="M270.186 259.127L275.149 253.769C275.259 253.649 275.267 253.416 275.166 253.248L266.51 239.016C266.409 238.848 266.236 238.81 266.125 238.93L261.163 244.289C261.052 244.409 261.044 244.642 261.146 244.809L269.801 259.042C269.903 259.209 270.075 259.248 270.186 259.127Z" fill="#263238"/>
<g opacity="0.4">
<path d="M262.734 245.572C262.8 245.572 262.865 245.546 262.913 245.494L266.743 241.358C266.835 241.259 266.828 241.106 266.729 241.014C266.631 240.922 266.477 240.928 266.385 241.027L262.555 245.163C262.463 245.262 262.47 245.416 262.569 245.507C262.616 245.551 262.675 245.572 262.734 245.572Z" fill="white"/>
</g>
<path opacity="0.4" d="M266.482 249.974C266.854 250.587 267.363 250.942 267.873 251.013C268.306 251.077 268.741 250.933 269.086 250.559C269.432 250.186 269.628 249.649 269.67 249.072C269.724 248.393 269.57 247.656 269.197 247.043C268.51 245.913 267.344 245.653 266.595 246.462C265.845 247.27 265.795 248.845 266.482 249.974Z" fill="white"/>
<path d="M267.82 250.927C267.838 250.956 267.855 250.986 267.876 251.012C268.309 251.076 268.743 250.932 269.089 250.558C269.434 250.185 269.631 249.649 269.673 249.071C269.658 249.039 269.641 249.01 269.623 248.98C269.257 248.38 268.694 248.161 268.226 248.362C268.269 248.095 268.218 247.784 268.066 247.534C267.817 247.126 267.393 247.031 267.122 247.324C266.851 247.616 266.833 248.188 267.081 248.597C267.233 248.847 267.45 248.979 267.656 248.978C267.41 249.547 267.455 250.327 267.82 250.927Z" fill="white"/>
<path opacity="0.2" d="M270.158 258.8L274.918 253.66C274.993 253.579 274.998 253.422 274.93 253.309L273.657 251.217C273.589 251.104 273.473 251.078 273.398 251.159L268.638 256.3C268.563 256.381 268.558 256.538 268.626 256.65L269.899 258.743C269.967 258.855 270.083 258.881 270.158 258.8Z" fill="white"/>
<g opacity="0.4">
<path d="M264.835 244.766C264.867 244.766 264.9 244.752 264.924 244.726L265.718 243.868C265.764 243.819 265.761 243.742 265.711 243.697C265.662 243.651 265.585 243.653 265.539 243.703L264.746 244.561C264.7 244.61 264.702 244.687 264.752 244.732C264.775 244.755 264.805 244.766 264.835 244.766Z" fill="white"/>
</g>
<path opacity="0.4" d="M269.758 257.229C269.93 257.512 270.221 257.577 270.409 257.374C270.596 257.171 270.609 256.778 270.437 256.495C270.265 256.212 269.973 256.146 269.785 256.35C269.599 256.552 269.586 256.945 269.758 257.229Z" fill="white"/>
<path opacity="0.4" d="M270.893 256.002C271.065 256.285 271.356 256.351 271.543 256.147C271.731 255.945 271.744 255.551 271.571 255.268C271.399 254.985 271.108 254.92 270.921 255.123C270.733 255.325 270.721 255.72 270.893 256.002Z" fill="white"/>
<path opacity="0.4" d="M272.027 254.776C272.199 255.058 272.491 255.123 272.678 254.92C272.865 254.718 272.879 254.325 272.706 254.041C272.534 253.759 272.243 253.693 272.054 253.896C271.868 254.1 271.856 254.493 272.027 254.776Z" fill="white"/>
<path d="M273.163 253.55C273.335 253.832 273.626 253.898 273.814 253.695C274.001 253.492 274.014 253.099 273.842 252.815C273.669 252.532 273.378 252.467 273.19 252.67C273.003 252.873 272.99 253.267 273.163 253.55Z" fill="#064F2C"/>
<path d="M248.349 241.042C248.853 247.846 248.921 250.736 252.404 254.187C257.643 259.379 265.889 257.272 267.428 250.456C268.814 244.319 267.757 234.224 261.058 231.598C254.459 229.011 247.845 234.238 248.349 241.042Z" fill="#E4897B"/>
<path d="M253.554 234.182C255.645 236.378 252.003 244.192 248.735 245.755C241.973 244.164 247.313 227.628 253.554 234.182Z" fill="#263238"/>
<path d="M261.32 230.312C263.916 231.192 266.673 235.684 267.132 237.412C263.441 238.016 253.492 234.559 253.492 234.559C253.492 234.559 246.854 236.392 250.216 233.026C253.579 229.66 261.32 230.312 261.32 230.312Z" fill="#263238"/>
<path d="M265.43 243.72C265.437 244.274 265.737 244.72 266.099 244.715C266.461 244.711 266.749 244.257 266.742 243.703C266.735 243.148 266.436 242.703 266.073 242.707C265.711 242.713 265.423 243.166 265.43 243.72Z" fill="#263238"/>
<path d="M265.912 242.741L267.239 242.34C267.239 242.34 266.568 243.389 265.912 242.741Z" fill="#263238"/>
<path d="M246.585 247.308C247.086 248.631 248.151 249.599 249.218 250.06C250.824 250.752 251.86 249.373 251.61 247.735C251.385 246.261 250.278 244.124 248.573 244.125C246.892 244.125 246.012 245.795 246.585 247.308Z" fill="#E4897B"/>
<path d="M256.7 241.468C256.836 241.487 256.974 241.419 257.038 241.289C257.701 239.936 259.614 239.615 259.633 239.612C259.81 239.584 259.932 239.417 259.903 239.24C259.875 239.062 259.708 238.941 259.529 238.97C259.438 238.985 257.262 239.35 256.453 241.004C256.374 241.165 256.441 241.36 256.603 241.439C256.634 241.454 256.666 241.464 256.7 241.468Z" fill="#263238"/>
<path d="M267.34 239.716C267.45 239.731 267.565 239.691 267.64 239.597C267.753 239.457 267.73 239.251 267.59 239.139C266.186 238.011 264.751 238.462 264.692 238.482C264.521 238.538 264.427 238.721 264.483 238.892C264.539 239.063 264.721 239.156 264.892 239.101C264.94 239.086 266.061 238.746 267.182 239.647C267.23 239.685 267.285 239.708 267.34 239.716Z" fill="#263238"/>
<path d="M259.17 243.799C259.177 244.354 259.477 244.799 259.839 244.795C260.201 244.79 260.489 244.337 260.482 243.782C260.475 243.228 260.176 242.782 259.814 242.787C259.451 242.791 259.163 243.245 259.17 243.799Z" fill="#263238"/>
<path d="M259.652 242.82L260.979 242.42C260.979 242.42 260.308 243.468 259.652 242.82Z" fill="#263238"/>
<path d="M262.384 250.506C261.71 251.262 260.804 252.789 260.804 252.789C260.651 252.733 260.498 252.675 260.348 252.61C258.291 251.784 257.609 250.721 257.478 249.793C257.408 249.286 257.509 248.814 257.64 248.449C257.786 248.026 257.986 247.757 257.986 247.757C258.815 248.847 260.674 249.765 261.686 250.214C262.109 250.405 262.384 250.506 262.384 250.506Z" fill="#263238"/>
<path d="M261.688 250.214L261.205 250.875C259.269 250.092 258.011 249.281 257.641 248.449C257.786 248.026 257.987 247.757 257.987 247.757C258.817 248.846 260.675 249.764 261.688 250.214Z" fill="white"/>
<path d="M260.351 252.609C258.293 251.783 257.612 250.72 257.48 249.792C258.171 250.101 258.968 250.55 259.583 251.162C260.055 251.629 260.264 252.141 260.351 252.609Z" fill="#DE5753"/>
<path d="M260.442 246.947C259.055 246.947 257.928 245.671 257.928 244.102C257.928 242.533 259.055 241.257 260.442 241.257C261.829 241.257 262.957 242.533 262.957 244.102C262.957 245.671 261.829 246.947 260.442 246.947ZM260.442 241.687C259.293 241.687 258.358 242.77 258.358 244.102C258.358 245.434 259.293 246.517 260.442 246.517C261.592 246.517 262.527 245.434 262.527 244.102C262.527 242.77 261.592 241.687 260.442 241.687Z" fill="#263238"/>
<path d="M266.583 246.947C265.196 246.947 264.068 245.671 264.068 244.102C264.068 242.533 265.197 241.257 266.583 241.257C267.97 241.257 269.098 242.533 269.098 244.102C269.098 245.671 267.97 246.947 266.583 246.947ZM266.583 241.687C265.434 241.687 264.499 242.77 264.499 244.102C264.499 245.434 265.434 246.517 266.583 246.517C267.732 246.517 268.667 245.434 268.667 244.102C268.667 242.77 267.731 241.687 266.583 241.687Z" fill="#263238"/>
<path d="M263.574 243.657C263.574 243.657 264.545 246.032 265.595 247.171C264.871 247.863 263.623 247.567 263.623 247.567L263.574 243.657Z" fill="#DE5753"/>
<path d="M262.851 244.284L262.621 243.919C262.67 243.889 263.813 243.187 264.444 243.966L264.11 244.238C263.715 243.748 262.86 244.279 262.851 244.284Z" fill="#263238"/>
<path d="M258.138 243.886H249.879V244.317H258.138V243.886Z" fill="#263238"/>
<path d="M241.981 261.627C236.195 261.734 235.006 263.207 230.846 271.428L239.591 277.781C239.591 277.781 242.977 272.857 243.576 268.866C244.177 264.875 241.981 261.627 241.981 261.627Z" fill="#263238"/>
<path d="M196.74 387.887L192.447 392.774L189.036 396.653L184.23 402.125L182.952 403.583C182.943 403.592 182.943 403.592 182.943 403.592L181.791 404.897C181.62 404.708 181.44 404.51 181.26 404.312C180.702 403.682 180.126 403.016 179.523 402.305C179.19 401.909 178.848 401.495 178.506 401.063C174.51 396.176 169.821 389.723 165.294 383.144C163.431 380.426 161.586 377.69 159.831 375.026C155.115 384.287 127.08 395.339 123.543 404.699C123.057 405.005 121.545 404.357 120.024 403.574C118.17 402.593 116.307 401.378 116.307 401.378C116.307 401.378 144.387 362.687 157.266 354.191C158.508 353.363 159.615 352.832 160.533 352.634C160.749 352.589 160.974 352.562 161.208 352.562C169.803 352.562 191.61 381.875 196.74 387.887Z" fill="#B55B52"/>
<path d="M122.836 410.873C120.577 410.918 119.902 410.567 117.094 410.666C114.232 410.765 113.278 410.846 109.246 410.864C108.634 410.873 107.95 410.873 107.185 410.873C104.845 410.873 103.99 407.822 107.14 407.399C110.434 406.958 115.105 403.673 116.311 401.378L122.818 401.99L122.935 401.999C123.133 402.836 123.349 403.808 123.547 404.699C123.745 405.599 123.925 406.418 124.078 406.94C124.662 409.019 124.725 410.828 122.836 410.873Z" fill="#B55B52"/>
<path d="M211.389 402.665C211.389 402.665 200.616 412.367 191.814 410.972C185.991 410.045 182.283 406.706 180.438 404.555C179.493 403.457 179.043 402.665 179.043 402.665L179.529 402.305L182.229 400.307L188.196 395.915L192.453 392.774L198.915 388.004L206.781 397.247L211.389 402.665Z" fill="#263238"/>
<path d="M187.246 395.071C187.246 395.071 181.798 400.271 177.547 401.374L179.155 404.775C179.155 404.775 185.015 404.603 189.495 397.049L187.246 395.071Z" fill="#064F2C"/>
<path opacity="0.6" d="M187.246 395.071C187.246 395.071 181.798 400.271 177.547 401.374L179.155 404.775C179.155 404.775 185.015 404.603 189.495 397.049L187.246 395.071Z" fill="white"/>
<path opacity="0.2" d="M206.781 397.247L200.904 408.254C200.904 408.254 193.308 409.424 184.695 402.503C184.542 402.377 184.389 402.251 184.236 402.125C183.57 401.567 182.895 400.964 182.229 400.307C181.977 400.064 181.725 399.812 181.473 399.551C177.387 395.321 173.247 389.066 169.737 379.85C169.737 379.85 168.081 381.785 165.3 383.144C163.437 380.426 161.592 377.69 159.837 375.026C155.121 384.287 127.086 395.339 123.549 404.699C123.747 405.599 123.927 406.418 124.08 406.94C124.665 409.019 124.728 410.828 122.838 410.873C120.579 410.918 119.904 410.567 117.096 410.666C114.234 410.765 113.28 410.846 109.248 410.864C109.815 409.496 110.814 407.84 112.47 407.201C114.333 406.49 117.456 404.951 120.03 403.574C121.101 402.989 122.082 402.44 122.82 401.99C123.207 401.756 123.522 401.549 123.765 401.378C125.61 400.064 142.881 370.184 158.667 358.241C158.667 358.241 157.524 356.396 157.272 354.191C158.514 353.363 159.621 352.832 160.539 352.634C160.755 352.589 160.98 352.562 161.214 352.562C169.809 352.562 191.616 381.875 196.746 387.887L192.453 392.774L198.915 388.004L206.781 397.247Z" fill="black"/>
<path d="M177.348 343.753C173.684 349.728 170.908 357.014 164.933 361.345C163.319 362.572 160.658 362.431 159.271 360.87C157.493 359.009 157.804 356.206 157.942 354.12C158.197 351.255 158.689 348.451 159.246 345.674C159.972 342.021 160.867 338.445 161.915 334.87C162.254 333.711 163.469 333.047 164.627 333.387C165.619 333.678 166.25 334.611 166.196 335.599C166.061 342.525 165.068 349.681 165.596 356.534C165.615 356.63 165.647 356.701 165.623 356.576C165.288 355.078 163.088 353.923 161.545 354.372C161.023 354.476 160.629 354.713 160.448 354.81C160.46 354.796 160.505 354.756 160.519 354.743C162.151 353.109 163.279 350.944 164.519 348.771C166.15 345.785 168.036 341.984 169.93 339.074C173.198 334.432 180.131 338.814 177.348 343.753Z" fill="#B65B52"/>
<path opacity="0.2" d="M173.64 343.069C173.64 343.069 172.223 346.306 172.223 350.017C172.223 350.017 170.464 349.497 165.968 349.755C166.19 348.567 166.44 346.843 166.418 345.215L165.649 346.657V349.773C165.649 349.773 160.638 351.49 158.131 352.333C158.057 352.922 157.992 353.516 157.941 354.124C157.896 354.623 157.861 355.132 157.841 355.67C157.826 356.214 157.816 356.767 157.881 357.466C157.916 357.825 157.956 358.204 158.106 358.768C158.191 359.062 158.291 359.402 158.565 359.915C158.73 360.194 158.894 360.479 159.269 360.873C159.353 360.963 159.448 361.052 159.573 361.157C159.698 361.262 159.807 361.352 159.952 361.452C160.107 361.552 160.266 361.646 160.431 361.731C160.595 361.815 160.795 361.895 160.984 361.96C161.773 362.235 162.646 362.229 163.259 362.085C163.408 362.05 163.538 362.015 163.673 361.976L163.872 361.905L164.027 361.841C164.132 361.796 164.231 361.751 164.331 361.701L164.571 361.571L164.816 361.422L164.931 361.347L165.165 361.193C165.474 360.988 165.738 360.783 166.003 360.574C167.015 359.736 167.804 358.908 168.492 358.075C169.859 356.414 170.962 354.783 171.974 353.141C172.992 351.515 173.905 349.884 174.797 348.293C175.192 347.579 175.586 346.866 175.975 346.172C175.456 345.059 174.688 344.012 173.64 343.069Z" fill="black"/>
<path d="M161.916 335.087L161.215 327.708L167.681 328.134C167.681 328.134 168.896 333.223 165.348 335.68L161.916 335.087Z" fill="#B55B52"/>
<path d="M163.241 322.836L167.985 324.307L167.681 328.134L161.215 327.708L163.241 322.836Z" fill="#B55B52"/>
<path d="M174.737 320.303L170.243 315.449L170.47 315.202C170.47 315.202 170.135 315.167 169.838 315.199C169.683 315.203 169.523 315.304 169.409 315.491L161.228 328.943C161.038 329.257 161.051 329.693 161.26 329.918L165.864 334.891C165.94 334.972 166.031 335.011 166.124 335.017V335.021H166.142C166.144 335.021 166.146 335.022 166.149 335.022C166.151 335.022 166.154 335.021 166.157 335.021L166.777 335.022L166.663 334.606L174.769 321.278C174.96 320.964 174.945 320.528 174.737 320.303Z" fill="#064F2C"/>
<path d="M166.444 334.892L161.84 329.919C161.632 329.694 161.617 329.258 161.808 328.944L169.989 315.491C170.18 315.177 170.504 315.105 170.712 315.33L175.316 320.303C175.524 320.528 175.538 320.964 175.348 321.278L167.167 334.731C166.976 335.045 166.653 335.117 166.444 334.892Z" fill="#064F2C"/>
<path opacity="0.6" d="M166.444 334.892L161.84 329.919C161.632 329.694 161.617 329.258 161.808 328.944L169.989 315.491C170.18 315.177 170.504 315.105 170.712 315.33L175.316 320.303C175.524 320.528 175.538 320.964 175.348 321.278L167.167 334.731C166.976 335.045 166.653 335.117 166.444 334.892Z" fill="white"/>
<path d="M166.722 334.373L162.171 329.459C162.069 329.349 162.062 329.135 162.156 328.982L170.095 315.928C170.188 315.774 170.347 315.739 170.448 315.849L175 320.764C175.101 320.873 175.108 321.087 175.015 321.241L167.076 334.294C166.982 334.447 166.824 334.483 166.722 334.373Z" fill="#263238"/>
<g opacity="0.4">
<path d="M173.555 321.941C173.495 321.941 173.436 321.917 173.391 321.869L169.88 318.076C169.796 317.986 169.801 317.844 169.892 317.76C169.982 317.677 170.124 317.682 170.208 317.773L173.721 321.566C173.805 321.656 173.799 321.798 173.708 321.881C173.665 321.921 173.61 321.941 173.555 321.941Z" fill="white"/>
</g>
<path opacity="0.4" d="M170.121 325.977C169.779 326.539 169.313 326.865 168.845 326.93C168.448 326.988 168.049 326.856 167.733 326.514C167.416 326.172 167.236 325.679 167.197 325.15C167.148 324.527 167.29 323.851 167.632 323.289C168.262 322.253 169.331 322.015 170.019 322.757C170.704 323.499 170.751 324.941 170.121 325.977Z" fill="white"/>
<path d="M168.898 326.852C168.882 326.879 168.866 326.905 168.847 326.93C168.45 326.988 168.052 326.856 167.735 326.514C167.418 326.172 167.238 325.679 167.199 325.15C167.213 325.121 167.229 325.094 167.245 325.067C167.58 324.517 168.097 324.316 168.527 324.5C168.487 324.255 168.534 323.97 168.673 323.741C168.901 323.366 169.29 323.279 169.538 323.547C169.787 323.816 169.804 324.34 169.576 324.716C169.437 324.945 169.238 325.066 169.049 325.065C169.274 325.586 169.232 326.301 168.898 326.852Z" fill="white"/>
<path opacity="0.2" d="M166.749 334.074L162.383 329.359C162.314 329.285 162.31 329.141 162.372 329.037L163.539 327.118C163.602 327.014 163.708 326.991 163.777 327.065L168.143 331.78C168.211 331.853 168.216 331.997 168.153 332.101L166.985 334.021C166.923 334.123 166.817 334.148 166.749 334.074Z" fill="white"/>
<g opacity="0.4">
<path d="M171.627 321.201C171.597 321.201 171.567 321.189 171.545 321.165L170.817 320.378C170.775 320.333 170.778 320.262 170.823 320.221C170.868 320.179 170.94 320.181 170.981 320.227L171.709 321.014C171.751 321.06 171.749 321.13 171.703 321.172C171.681 321.191 171.654 321.201 171.627 321.201Z" fill="white"/>
</g>
<path d="M167.113 332.631C166.956 332.89 166.689 332.95 166.516 332.764C166.344 332.579 166.332 332.217 166.49 331.958C166.647 331.699 166.915 331.639 167.087 331.825C167.259 332.011 167.271 332.372 167.113 332.631Z" fill="#064F2C"/>
<path opacity="0.4" d="M166.071 331.507C165.913 331.766 165.646 331.826 165.473 331.64C165.301 331.455 165.289 331.094 165.447 330.834C165.604 330.575 165.872 330.514 166.044 330.701C166.216 330.886 166.228 331.247 166.071 331.507Z" fill="white"/>
<path opacity="0.4" d="M165.029 330.382C164.872 330.641 164.605 330.701 164.432 330.515C164.26 330.329 164.248 329.968 164.406 329.709C164.563 329.45 164.831 329.39 165.003 329.576C165.176 329.762 165.188 330.123 165.029 330.382Z" fill="white"/>
<path opacity="0.4" d="M163.99 329.257C163.833 329.516 163.566 329.576 163.393 329.39C163.221 329.205 163.209 328.844 163.367 328.584C163.524 328.325 163.792 328.265 163.964 328.451C164.137 328.637 164.149 328.998 163.99 329.257Z" fill="white"/>
<path d="M215.882 372.23L187.957 379.846C187.611 378.093 187.149 376.321 186.539 374.45C184.626 368.578 181.281 361.723 175.612 351.263C174.848 349.841 170.229 338.612 170.229 338.612C170.229 338.612 172.712 335.459 178.857 333.868C182.19 333.004 188.369 331.952 192.522 332.132C193.949 332.19 195.244 332.292 196.428 332.429C197.056 332.501 197.654 332.584 198.219 332.677C205.002 333.806 207.442 336.446 208.644 340.376C209.384 342.796 210.183 344.636 211.337 349.671C211.483 350.309 211.638 351 211.794 351.75C213.016 357.013 214.063 362.233 215.578 370.55C215.678 371.095 215.78 371.655 215.882 372.23Z" fill="#B55B52"/>
<path d="M215.579 370.55C208.835 371.251 194.067 373.354 186.538 374.45C184.625 368.578 181.28 361.723 175.611 351.263C176.42 350.771 176.532 348.161 176.532 346.197C176.532 344.456 176.598 336.714 179.335 333.613C179.423 333.584 180.672 333.422 180.672 333.422C179.012 336.065 178.471 340.259 179.834 342.383C181.539 345.037 190.667 343.848 192.688 342.031C195.731 339.299 196.155 334.586 196.427 332.429C197.056 332.501 197.654 332.584 198.219 332.677C197.601 335.735 195.653 349.646 211.337 349.671C211.483 350.309 211.638 351 211.794 351.75C213.017 357.014 214.064 362.234 215.579 370.55Z" fill="#064F2C"/>
<path opacity="0.7" d="M215.579 370.55C208.835 371.251 194.067 373.354 186.538 374.45C184.625 368.578 181.28 361.723 175.611 351.263C176.42 350.771 176.532 348.161 176.532 346.197C176.532 344.456 176.598 336.714 179.335 333.613C179.423 333.584 180.672 333.422 180.672 333.422C179.012 336.065 178.471 340.259 179.834 342.383C181.539 345.037 190.667 343.848 192.688 342.031C195.731 339.299 196.155 334.586 196.427 332.429C197.056 332.501 197.654 332.584 198.219 332.677C197.601 335.735 195.653 349.646 211.337 349.671C211.483 350.309 211.638 351 211.794 351.75C213.017 357.014 214.064 362.234 215.579 370.55Z" fill="white"/>
<path d="M187.063 320.546C187.579 324.442 189.153 331.294 192.693 332.44C192.693 332.44 190.716 337.509 184.773 342.032C181.864 339.827 182.127 336.056 182.127 336.056C182.127 336.056 184.305 333.454 181.789 329.674L187.063 320.546Z" fill="#B55B52"/>
<path opacity="0.2" d="M188.593 327.118C187.25 330.521 185.248 334.022 182.414 335.619C182.906 334.728 183.699 332.537 181.791 329.674L187.064 320.544C187.307 322.385 187.785 324.878 188.593 327.118Z" fill="black"/>
<path d="M116.174 410.87C122.024 410.87 122.798 410.78 126.084 410.669C128.899 410.568 129.573 410.92 131.834 410.87C133.724 410.829 133.654 409.02 133.071 406.94C132.779 405.895 132.33 403.685 131.928 401.997L125.307 401.374C124.101 403.676 119.431 406.959 116.134 407.402C112.987 407.825 113.843 410.87 116.174 410.87Z" fill="#B55B52"/>
<path d="M215.55 370.409C224.324 379.847 232.398 410.971 208.758 410.971C195.819 410.971 187.836 403.281 187.836 403.281L190.947 370.409L215.056 367.711L215.55 370.409Z" fill="#263238"/>
<path d="M212.122 372.135L216.638 371.699L215.209 368.55L211.383 368.959L212.122 372.135Z" fill="black"/>
<path d="M209.99 369.108L190.949 371.142L191.464 374.128L210.853 372.258L209.99 369.108Z" fill="black"/>
<path d="M190.467 370.827L195.054 370.378L195.603 374.128L190.947 374.674L190.467 370.827Z" fill="white"/>
<path opacity="0.2" d="M182.988 362.763C182.988 362.763 193.407 363.201 196.209 362.139C199.514 360.887 207.332 346.856 206.526 343.46C206.015 341.312 199.605 339.554 199.605 339.554C199.605 339.554 195.758 343.543 196.167 351.229C196.576 358.915 177.037 355.984 177.037 355.984L182.988 362.763Z" fill="black"/>
<path opacity="0.2" d="M197.435 377.21H202.176C202.176 377.21 195.442 371.12 190.948 370.409C186.455 369.697 190.468 375.669 190.468 375.669L197.435 377.21Z" fill="black"/>
<path d="M168.835 375.026C176.069 386.001 182.632 395.774 188.635 402.349L196.744 376.867L196.743 376.864C191.468 370.69 177.59 350.934 169.535 352.634C159.085 354.838 125.311 401.375 125.311 401.375C125.311 401.375 131.463 405.37 132.543 404.7C136.084 395.34 164.119 384.282 168.835 375.026Z" fill="#B55B52"/>
<path d="M195.743 375.669C195.743 375.669 193.867 390.577 185.969 401.374L189.242 404.723C189.242 404.723 196.664 397.993 198.347 376.477L195.743 375.669Z" fill="#064F2C"/>
<path opacity="0.6" d="M195.743 375.669C195.743 375.669 193.867 390.577 185.969 401.374L189.242 404.723C189.242 404.723 196.664 397.993 198.347 376.477L195.743 375.669Z" fill="white"/>
<path opacity="0.2" d="M182.435 359.988C179.655 359.043 175.17 357.451 171.966 355.986C171.966 355.986 167.009 359.789 160.762 358.693C164.331 355.353 167.408 353.079 169.531 352.631C169.863 352.562 170.198 352.528 170.549 352.528C173.977 352.529 178.252 355.776 182.435 359.988Z" fill="black"/>
<path d="M207.99 342.212C205.699 347.603 203.303 352.596 199.589 357.311C198.907 358.118 198.026 359.084 197.081 359.69C196.211 360.198 195.69 360.286 195.207 360.401C191.86 360.923 188.722 360.029 185.651 359.37C180.247 358.039 175.035 356.299 169.88 354.229C167.486 353.227 168.507 349.646 171.06 350.049C177.531 350.921 186.559 352.88 192.97 352.823C193.268 352.807 193.547 352.751 193.507 352.736C193.462 352.75 193.383 352.715 192.898 352.983C192.761 353.06 192.595 353.182 192.483 353.287C192.512 353.252 192.583 353.152 192.615 353.118C195.564 348.826 197.656 343.483 199.952 338.708C202.471 333.609 210.005 336.892 207.99 342.212Z" fill="#B65B52"/>
<path d="M170.433 350.017L163.055 350.732L164.702 356.999C164.702 356.999 169.929 357.224 171.667 353.273L170.433 350.017Z" fill="#B55B52"/>
<path d="M158.656 353.646L161.003 358.024L164.702 356.999L163.055 350.732L158.656 353.646Z" fill="#B55B52"/>
<path d="M188.661 305.798C187.977 303.842 180.017 302.671 176.867 304.477C173.717 306.285 175.926 307.385 173.542 307.922C171.158 308.461 168.485 309.821 168.378 312.075C168.271 314.328 172.047 316.259 170.247 317.747C168.447 319.235 166.613 322.677 169.619 324.412C172.624 326.147 180.916 328.129 188.325 325.893C195.733 323.657 194.572 313.59 192.734 310.63C192.734 310.63 194.858 309.209 196.005 311.772C197.151 314.335 194.501 317.394 196.786 319.135C199.071 320.875 200.676 321.512 199.085 324.069C197.495 326.626 201.122 328.79 202.769 327.939C202.769 327.939 201.81 328.039 201.72 326.515C201.63 324.99 204.891 325.247 205.23 321.179C205.57 317.111 202.661 317.443 203.129 315.573C203.597 313.705 206.063 313.665 205.248 310.352C204.653 307.937 200.615 306.881 199.236 305.467C197.856 304.053 199.437 302.804 196.985 300.246C195.352 298.544 191.874 299.647 190.347 300.928C187.694 303.153 188.661 305.798 188.661 305.798Z" fill="#263238"/>
<path d="M189.062 315.809C189.196 322.063 189.384 324.701 186.558 328.308C182.306 333.734 174.728 332.93 172.761 326.939C170.99 321.546 171.068 312.224 176.85 308.934C182.546 305.693 188.927 309.555 189.062 315.809Z" fill="#B55B52"/>
<path d="M181.591 318.427C181.625 318.952 181.384 319.413 181.053 319.458C180.721 319.502 180.425 319.113 180.392 318.588C180.358 318.064 180.599 317.603 180.929 317.558C181.261 317.514 181.557 317.903 181.591 318.427Z" fill="#263238"/>
<path d="M175.114 319.096C175.148 319.621 174.907 320.081 174.576 320.126C174.245 320.171 173.949 319.782 173.915 319.257C173.881 318.732 174.122 318.272 174.454 318.227C174.785 318.182 175.08 318.571 175.114 319.096Z" fill="#263238"/>
<path d="M174.598 318.236L173.357 318.037C173.357 318.037 174.046 318.937 174.598 318.236Z" fill="#263238"/>
<path d="M177.157 319.983C177.157 319.983 176.444 322.357 175.568 323.573C176.278 324.129 177.396 323.681 177.396 323.681L177.157 319.983Z" fill="#A02724"/>
<path d="M179.957 313.799C180.037 313.796 180.115 313.825 180.173 313.886C181.065 314.843 182.165 314.61 182.178 314.608C182.341 314.573 182.496 314.675 182.521 314.841C182.545 315.006 182.431 315.17 182.266 315.207C182.209 315.22 180.827 315.512 179.72 314.325C179.609 314.207 179.622 314.013 179.746 313.891C179.807 313.832 179.882 313.801 179.957 313.799Z" fill="#263238"/>
<path d="M174.097 313.811C174.17 313.79 174.249 313.795 174.317 313.834C174.458 313.913 174.502 314.1 174.417 314.251C173.555 315.768 172.173 315.923 172.115 315.928C171.949 315.944 171.811 315.82 171.807 315.65C171.801 315.481 171.932 315.329 172.097 315.312C172.151 315.307 173.221 315.171 173.906 313.965C173.95 313.887 174.021 313.834 174.097 313.811Z" fill="#263238"/>
<path d="M181.076 317.568L179.836 317.368C179.836 317.368 180.524 318.268 181.076 317.568Z" fill="#263238"/>
<path d="M186.86 319.991C186.86 319.991 182.901 316.463 183.577 309.632C183.577 309.632 176.2 308.059 172.408 314.166C172.408 314.166 175.045 304.876 185.705 306.391C196.364 307.904 191.344 319.017 190.334 320.087C189.325 321.158 186.86 319.991 186.86 319.991Z" fill="#263238"/>
<path d="M191.504 320.642C190.917 321.995 189.819 322.926 188.761 323.323C187.168 323.92 186.29 322.38 186.664 320.675C186.999 319.141 188.233 316.981 189.864 317.122C191.47 317.262 192.175 319.096 191.504 320.642Z" fill="#B55B52"/>
<path d="M182.499 325.125C182.485 325.783 181.716 326.849 179.716 327.856C179.716 327.856 179.426 327.48 178.946 327.073C178.551 326.724 178.032 326.362 177.434 326.145C177.434 326.145 177.592 326.059 177.848 325.921C178.67 325.499 180.539 324.579 181.585 324.454C181.921 324.414 182.177 324.486 182.335 324.658C182.447 324.77 182.506 324.934 182.499 325.125Z" fill="#263238"/>
<path d="M182.502 325.125C182.488 325.783 181.719 326.849 179.719 327.856C179.719 327.856 179.429 327.48 178.949 327.073C179.666 326.282 180.837 325.355 182.502 325.125Z" fill="#DE5753"/>
<path d="M182.333 324.658C181.238 325.125 177.983 326.066 177.983 326.066L177.846 325.922C178.668 325.5 180.537 324.58 181.583 324.455C181.918 324.414 182.175 324.486 182.333 324.658Z" fill="white"/>
</svg>
