<svg width="61" height="70" viewBox="0 0 61 70" fill="none" xmlns="http://www.w3.org/2000/svg">
<g clip-path="url(#clip0_808_21898)">
<path d="M5.52403 62.1611L0.5 0.761719L60.5 0.885106L55.1876 62.1611L30.7264 69.244L5.52403 62.1611Z" fill="#1B73BA"/>
<path d="M30.7266 63.3103V6.60547L55.4349 6.68773L51.0288 57.4216L30.7266 63.3103Z" fill="#1C88C7"/>
<path d="M49.2986 13.8555H11.2891L12.3187 21.2674H30.3555L12.6071 28.886L13.6363 36.0511H39.7862L38.8387 46.0576L29.9849 47.7874L21.955 45.7285L21.3371 40.0455H13.9658L14.9539 51.8645L30.7673 56.2706L45.9221 51.4527L47.8576 28.3503H31.8376L49.2981 21.1029L49.2986 13.8555Z" fill="white"/>
</g>
<defs>
<clipPath id="clip0_808_21898">
<rect width="60" height="68.7128" fill="white" transform="translate(0.5 0.644531)"/>
</clipPath>
</defs>
</svg>
