<svg width="450" height="450" viewBox="0 0 450 450" fill="none" xmlns="http://www.w3.org/2000/svg">
<path d="M450 344.158H0V344.383H450V344.158Z" fill="#EBEBEB"/>
<path d="M404.911 358.645H375.102V358.87H404.911V358.645Z" fill="#EBEBEB"/>
<path d="M298.099 361.087H290.275V361.312H298.099V361.087Z" fill="#EBEBEB"/>
<path d="M374.201 350.287H356.928V350.512H374.201V350.287Z" fill="#EBEBEB"/>
<path d="M86.0866 351.799H47.2129V352.024H86.0866V351.799Z" fill="#EBEBEB"/>
<path d="M99.8013 351.799H94.1016V352.024H99.8013V351.799Z" fill="#EBEBEB"/>
<path d="M202.633 355.601H118.324V355.826H202.633V355.601Z" fill="#EBEBEB"/>
<path d="M213.313 304.02H39.5239C36.6916 304.02 34.3867 301.715 34.3867 298.883V54.5942C34.3867 51.7619 36.6916 49.457 39.5239 49.457H213.313C216.144 49.457 218.449 51.7619 218.449 54.5942V298.883C218.449 301.715 216.144 304.02 213.313 304.02ZM39.5239 49.6829C36.8149 49.6829 34.6117 51.8861 34.6117 54.5951V298.884C34.6117 301.593 36.8149 303.796 39.5239 303.796H213.313C216.021 303.796 218.224 301.593 218.224 298.884V54.5942C218.224 51.8861 216.021 49.682 213.313 49.682L39.5239 49.6829Z" fill="#EBEBEB"/>
<path d="M407.979 304.02H234.191C231.359 304.02 229.055 301.715 229.055 298.883V54.5942C229.055 51.7619 231.36 49.457 234.191 49.457H407.979C410.812 49.457 413.116 51.7619 413.116 54.5942V298.883C413.117 301.715 410.812 304.02 407.979 304.02ZM234.191 49.6829C231.483 49.6829 229.28 51.8861 229.28 54.5951V298.884C229.28 301.593 231.483 303.796 234.191 303.796H407.979C410.688 303.796 412.891 301.593 412.891 298.884V54.5942C412.891 51.8861 410.688 49.682 407.979 49.682L234.191 49.6829Z" fill="#EBEBEB"/>
<path d="M402.515 124.753H285.121V130.784H402.515V124.753Z" fill="#E0E0E0"/>
<path d="M295.697 102.519H290.525V124.752H295.697V102.519Z" fill="#EBEBEB"/>
<path d="M320.704 102.519H315.531V124.752H320.704V102.519Z" fill="#EBEBEB"/>
<path d="M349.101 101.981L344.004 102.859L347.779 124.77L352.876 123.892L349.101 101.981Z" fill="#EBEBEB"/>
<path d="M302.104 105.45H296.932V124.753H302.104V105.45Z" fill="#EBEBEB"/>
<path d="M313.993 105.45H308.82V124.753H313.993V105.45Z" fill="#EBEBEB"/>
<path d="M343.998 105.45H338.826V124.753H343.998V105.45Z" fill="#EBEBEB"/>
<path d="M327.5 104.785L322.451 105.907L326.638 124.751L331.687 123.629L327.5 104.785Z" fill="#EBEBEB"/>
<path d="M306.576 101.416H303.99V124.753H306.576V101.416Z" fill="#EBEBEB"/>
<path d="M337.338 101.416H334.752V124.753H337.338V101.416Z" fill="#EBEBEB"/>
<path d="M391.251 107.156H366.051V124.554H391.251V107.156Z" fill="#EBEBEB"/>
<path d="M285.119 175.812L402.514 175.812V169.781H285.119V175.812Z" fill="#E0E0E0"/>
<path d="M391.937 169.781H397.109V147.548H391.937V169.781Z" fill="#EBEBEB"/>
<path d="M366.931 169.781H372.104V147.548H366.931V169.781Z" fill="#EBEBEB"/>
<path d="M334.749 168.914L339.846 169.792L343.621 147.881L338.525 147.003L334.749 168.914Z" fill="#EBEBEB"/>
<path d="M385.532 169.781H390.703V150.478H385.532V169.781Z" fill="#EBEBEB"/>
<path d="M373.642 169.781H378.814V150.478H373.642V169.781Z" fill="#EBEBEB"/>
<path d="M343.638 169.781H348.811V150.478H343.638V169.781Z" fill="#EBEBEB"/>
<path d="M355.951 168.656L361 169.778L365.187 150.934L360.138 149.812L355.951 168.656Z" fill="#EBEBEB"/>
<path d="M381.059 169.781H383.645V146.444H381.059V169.781Z" fill="#EBEBEB"/>
<path d="M350.295 169.781H352.881V146.444H350.295V169.781Z" fill="#EBEBEB"/>
<path d="M296.384 169.582H321.584V152.184H296.384V169.582Z" fill="#EBEBEB"/>
<path d="M47.7012 239.401V344.701H53.1012V250.201H148.501V344.701H154.801V239.401H47.7012Z" fill="#E0E0E0"/>
<path d="M107.102 239.401V344.701H112.502V250.201H207.902V344.701H214.202V239.401H107.102Z" fill="#F5F5F5"/>
<path d="M141.192 200.165C139.988 198.182 138.005 199.906 138.005 199.906C138.289 196.107 134.792 193.507 134.792 193.507C134.792 193.507 138.855 193.507 139.421 189.631C139.988 185.755 138.004 187.558 136.144 187.531C134.284 187.505 132.339 192.94 134.792 195.998C137.246 199.055 136.589 204.272 130.922 209.292C129.54 210.516 128.6 212.145 127.965 213.909C128.392 209.299 128.634 202.803 127.277 198.465C124.973 191.1 129.364 189.117 130.639 185.434C131.914 181.752 127.277 178.635 127.277 178.635C127.277 178.635 131.631 176.652 129.506 174.385C127.381 172.119 122.99 172.427 122.99 175.389C122.99 178.351 125.964 179.484 125.964 179.484C125.964 179.484 129.363 183.026 129.363 184.867C129.363 186.709 125.964 190.675 125.964 190.675C125.964 190.675 127.522 187.28 124.406 187.136C121.29 186.992 120.299 191.1 121.573 192.941C122.847 194.783 124.972 193.225 124.972 193.225C124.972 193.225 125.22 197.191 125.946 199.599C126.266 200.658 126.115 204.812 125.847 209.135C125.219 207.574 124.332 206.144 123.088 205.042C117.421 200.023 116.764 194.805 119.218 191.749C121.671 188.691 119.726 183.256 117.866 183.282C116.006 183.309 114.022 181.506 114.589 185.382C115.156 189.258 119.218 189.258 119.218 189.258C119.218 189.258 115.722 191.858 116.006 195.657C116.006 195.657 114.022 193.933 112.819 195.916C110.67 199.456 115.652 201.652 116.489 199.91C116.489 199.91 127.055 207.389 124.505 218.155L125.097 219.029C125.022 219.897 124.973 220.421 124.973 220.421L125.799 220.065L126.74 221.453C126.691 224.144 126.98 226.133 126.98 226.133L129.507 222.405C126.957 211.64 137.522 204.16 137.522 204.16C138.36 205.901 143.342 203.705 141.192 200.165Z" fill="#E0E0E0"/>
<path d="M134.793 239.401L131.385 219.881L132.348 214.201H121.611L122.574 219.881L119.168 239.401H134.793Z" fill="#EBEBEB"/>
<path d="M225 384.804C321.374 384.804 399.5 380.242 399.5 374.614C399.5 368.985 321.374 364.423 225 364.423C128.626 364.423 50.5 368.985 50.5 374.614C50.5 380.242 128.626 384.804 225 384.804Z" fill="#F5F5F5"/>
<path d="M270.663 96.5689L242.939 81.5967L223.387 117.8L251.11 132.773L270.663 96.5689Z" fill="#24774A"/>
<path opacity="0.6" d="M270.663 96.5689L242.939 81.5967L223.387 117.8L251.11 132.773L270.663 96.5689Z" fill="white"/>
<path d="M263.752 99.4713L244.305 88.9688L243.248 90.9256L262.695 101.428L263.752 99.4713Z" fill="#24774A"/>
<path d="M261.902 102.895L242.455 92.3926L241.398 94.3494L260.845 104.852L261.902 102.895Z" fill="#24774A"/>
<path d="M260.052 106.321L240.605 95.8184L239.549 97.7752L258.996 108.278L260.052 106.321Z" fill="#24774A"/>
<path d="M258.203 109.745L238.756 99.2422L237.699 101.199L257.146 111.702L258.203 109.745Z" fill="#24774A"/>
<path d="M256.353 113.17L236.906 102.667L235.849 104.624L255.296 115.126L256.353 113.17Z" fill="#24774A"/>
<path d="M254.506 116.595L235.059 106.093L234.002 108.05L253.449 118.552L254.506 116.595Z" fill="#24774A"/>
<path d="M252.654 120.019L233.207 109.517L232.15 111.474L251.597 121.976L252.654 120.019Z" fill="#24774A"/>
<path d="M243.951 119.743L231.357 112.941L230.301 114.898L242.894 121.7L243.951 119.743Z" fill="#24774A"/>
<path d="M196.999 96.8262C186.066 95.7048 178.083 85.8975 179.205 74.9643C180.326 64.0311 190.133 56.0481 201.067 57.1695C212 58.2909 219.983 68.0982 218.861 79.0314C217.74 89.9646 207.933 97.9476 196.999 96.8262Z" fill="#24774A"/>
<path opacity="0.3" d="M200.429 95.1446C210.444 94.3752 217.939 85.6328 217.17 75.6179C216.401 65.603 207.658 58.1081 197.643 58.8774C187.628 59.6468 180.133 68.3892 180.903 78.4041C181.672 88.419 190.415 95.9139 200.429 95.1446Z" fill="white"/>
<path d="M205.197 71.1227C203.099 69.6296 200.173 64.5527 200.176 64.5293L198.29 82.9253C198.332 82.5086 196.691 82.0883 195.601 81.9758C192.964 81.7049 190.746 82.9424 190.562 84.7298C190.379 86.5172 192.404 88.1894 195.042 88.4594C197.68 88.7303 199.872 87.491 200.056 85.7027C200.083 85.4336 199.871 85.1501 199.896 84.8999L201.35 70.7258C201.35 70.7258 202.81 72.5573 205.254 73.6859C207.242 74.6039 207.991 77.357 207.991 77.357C207.991 77.357 208.438 73.4294 205.197 71.1227Z" fill="white"/>
<path opacity="0.5" d="M202.406 83.3526C209.441 79.7041 212.693 72.0228 209.671 66.1958C206.649 60.3688 198.497 58.6028 191.462 62.2513C184.427 65.8997 181.175 73.5811 184.197 79.4081C187.219 85.2351 195.371 87.0011 202.406 83.3526Z" fill="white"/>
<path d="M160.007 51.1304L117.174 54.6113L119.78 86.6801L162.613 83.1992L160.007 51.1304Z" fill="#24774A"/>
<path d="M158.102 53.373L119.529 56.5077L121.789 84.3156L160.361 81.1809L158.102 53.373Z" fill="#24774A"/>
<path opacity="0.5" d="M158.102 53.373L119.529 56.5077L121.789 84.3156L160.361 81.1809L158.102 53.373Z" fill="white"/>
<path d="M160.056 77.3994L160.363 81.183L121.79 84.3177L120.691 70.7988L128.083 63.1857L140.836 73.7508L146.716 68.682L160.056 77.3994Z" fill="#24774A"/>
<path opacity="0.3" d="M160.056 77.3994L160.363 81.183L121.79 84.3177L120.691 70.7988L128.083 63.1857L140.836 73.7508L146.716 68.682L160.056 77.3994Z" fill="white"/>
<path d="M152.278 61.2171C152.417 62.9325 151.14 64.4355 149.425 64.575C147.71 64.7145 146.207 63.4374 146.067 61.722C145.928 60.0066 147.205 58.5036 148.92 58.3641C150.635 58.2237 152.138 59.5017 152.278 61.2171Z" fill="#24774A"/>
<path opacity="0.3" d="M152.278 61.2171C152.417 62.9325 151.14 64.4355 149.425 64.575C147.71 64.7145 146.207 63.4374 146.067 61.722C145.928 60.0066 147.205 58.5036 148.92 58.3641C150.635 58.2237 152.138 59.5017 152.278 61.2171Z" fill="white"/>
<path d="M77.7511 88.9844L76.0987 87.9683C75.4939 87.5966 74.7505 87.5327 74.1169 87.7973L66.7603 90.8744C66.1267 91.1399 65.6866 91.6988 65.5885 92.3648L65.3194 94.1837C65.2213 94.8497 64.7812 95.4086 64.1476 95.6732L59.7574 97.5092C58.7107 97.9466 58.2697 99.1364 58.7719 100.167L70.4692 124.142C70.9714 125.172 72.2278 125.652 73.2745 125.214L108.069 110.661C109.116 110.223 109.557 109.033 109.055 108.003L97.3576 84.0281C96.8554 82.9985 95.599 82.5179 94.5523 82.9562L79.7329 89.1554C79.0993 89.42 78.3559 89.3561 77.7511 88.9844Z" fill="#24774A"/>
<path d="M99.0097 83.8431L67.1326 97.1758C65.8033 97.732 65.077 99.2917 65.5099 100.66L72.4921 122.737C72.925 124.105 74.3533 124.763 75.6817 124.207L107.559 110.875C108.888 110.318 109.614 108.759 109.182 107.391L102.2 85.3129C101.766 83.9458 100.338 83.2869 99.0097 83.8431Z" fill="#24774A"/>
<path opacity="0.5" d="M99.0097 83.8431L67.1326 97.1758C65.8033 97.732 65.077 99.2917 65.5099 100.66L72.4921 122.737C72.925 124.105 74.3533 124.763 75.6817 124.207L107.559 110.875C108.888 110.318 109.614 108.759 109.182 107.391L102.2 85.3129C101.766 83.9458 100.338 83.2869 99.0097 83.8431Z" fill="white"/>
<path d="M214.629 136.829C215.021 135.006 215.231 133.115 215.231 131.174C215.231 116.351 203.214 104.335 188.391 104.335C186.697 104.335 185.039 104.496 183.431 104.796C182.744 104.669 182.05 104.787 181.345 104.713C176.357 93.7812 165.35 86.3994 152.552 86.3994C150.865 86.3994 144.334 86.3994 142.652 86.3994C125.17 86.3994 110.999 100.346 110.999 117.828C110.999 118.062 111.011 118.18 111.017 118.412C98.5498 120.699 89.1016 131.355 89.1016 144.482C89.1016 159.269 101.09 170.999 115.877 170.999C117.988 170.999 121.439 170.999 125.777 170.999C148.574 170.999 195.951 170.999 203.177 170.999C207.956 170.999 211.489 170.999 213.077 170.999C222.644 170.999 230.402 163.444 230.402 153.875C230.402 144.831 223.469 137.616 214.629 136.829Z" fill="#24774A"/>
<path opacity="0.5" d="M214.629 136.829C215.021 135.006 215.231 133.115 215.231 131.174C215.231 116.351 203.214 104.335 188.391 104.335C186.697 104.335 185.039 104.496 183.431 104.796C182.744 104.669 182.05 104.787 181.345 104.713C176.357 93.7812 165.35 86.3994 152.552 86.3994C150.865 86.3994 144.334 86.3994 142.652 86.3994C125.17 86.3994 110.999 100.346 110.999 117.828C110.999 118.062 111.011 118.18 111.017 118.412C98.5498 120.699 89.1016 131.355 89.1016 144.482C89.1016 159.269 101.09 170.999 115.877 170.999C117.988 170.999 121.439 170.999 125.777 170.999C148.574 170.999 195.951 170.999 203.177 170.999C207.956 170.999 211.489 170.999 213.077 170.999C222.644 170.999 230.402 163.444 230.402 153.875C230.402 144.831 223.469 137.616 214.629 136.829Z" fill="white"/>
<path opacity="0.4" d="M214.629 136.829C215.021 135.006 215.232 133.115 215.232 131.174C215.232 116.351 203.215 104.335 188.392 104.335C186.697 104.335 185.039 104.496 183.432 104.796C182.744 104.669 182.05 104.787 181.346 104.713C176.358 93.7812 165.351 86.3994 152.552 86.3994C150.865 86.3994 154.234 86.3994 152.552 86.3994C135.07 86.3994 120.899 100.346 120.899 117.828C120.899 118.062 120.912 118.18 120.917 118.412C108.45 120.699 99.002 131.355 99.002 144.482C99.002 159.269 110.99 170.999 125.777 170.999C127.888 170.999 131.34 170.999 135.677 170.999C158.474 170.999 195.952 170.999 203.177 170.999C207.957 170.999 211.489 170.999 213.077 170.999C222.645 170.999 230.402 163.444 230.402 153.875C230.402 144.831 223.469 137.616 214.629 136.829Z" fill="white"/>
<path d="M240.902 215.1H210.602C185.789 215.1 165.602 194.913 165.602 170.1V161.1H156.602V170.1C156.602 199.875 180.826 224.1 210.602 224.1H240.902V215.1Z" fill="#24774A"/>
<path d="M160.989 155.104L153.193 162.899H168.785L160.989 155.104Z" fill="#24774A"/>
<path d="M93.8525 330.598L88.502 314.099C88.502 314.099 96.4517 306.599 108.002 308.849L112.502 324.299L93.8525 330.598Z" fill="#24774A"/>
<path opacity="0.7" d="M93.8525 330.598L88.502 314.099C88.502 314.099 96.4517 306.599 108.002 308.849L112.502 324.299L93.8525 330.598Z" fill="white"/>
<g opacity="0.2">
<path d="M91.0312 317.999C91.0312 317.999 91.7792 317.104 93.1643 316.039C93.8501 315.5 94.7051 314.94 95.66 314.405C96.1424 314.148 96.6464 313.886 97.172 313.652C97.7093 313.445 98.2385 313.187 98.8019 313.02C99.3608 312.84 99.9197 312.663 100.488 312.549C100.769 312.482 101.048 312.419 101.326 312.365C101.608 312.329 101.885 312.293 102.159 312.258C102.432 312.227 102.699 312.182 102.963 312.165C103.228 312.16 103.487 312.156 103.74 312.151C104.243 312.133 104.718 312.136 105.155 312.198C105.591 312.24 105.99 312.282 106.339 312.339C106.685 312.42 106.986 312.491 107.234 312.549C107.727 312.669 108.003 312.748 108.003 312.748C108.003 312.748 107.71 312.746 107.208 312.722C106.959 312.708 106.655 312.692 106.308 312.673C105.961 312.686 105.57 312.699 105.144 312.715C104.719 312.71 104.263 312.765 103.782 312.822C103.299 312.862 102.795 312.934 102.278 313.042C102.018 313.09 101.756 313.138 101.489 313.187C101.227 313.256 100.962 313.324 100.694 313.394C100.154 313.512 99.6209 313.693 99.0881 313.873C98.5454 314.022 98.0333 314.262 97.5122 314.451C97.0046 314.672 96.4978 314.881 96.0199 315.109C95.5501 315.353 95.0777 315.558 94.6538 315.799C94.2227 316.027 93.8195 316.253 93.4505 316.467C92.7143 316.899 92.0978 317.268 91.6856 317.555C91.2698 317.837 91.0312 317.999 91.0312 317.999Z" fill="black"/>
<path d="M91.502 319.513C91.502 319.513 91.7117 319.333 92.105 319.054C92.5001 318.779 93.0626 318.378 93.7736 317.956C94.4837 317.533 95.3288 317.063 96.2684 316.628C97.2008 316.176 98.2331 315.778 99.2762 315.405C99.8072 315.247 100.332 315.068 100.86 314.931C101.39 314.799 101.908 314.657 102.423 314.573C102.936 314.484 103.427 314.377 103.905 314.343C104.381 314.298 104.826 314.239 105.244 314.236C106.077 314.212 106.769 314.249 107.249 314.308C107.73 314.358 108.001 314.398 108.001 314.398C108.001 314.398 107.724 314.437 107.248 314.484C107.011 314.511 106.722 314.52 106.394 314.573C106.067 314.63 105.699 314.695 105.297 314.75C104.897 314.808 104.469 314.925 104.014 315.006C103.557 315.082 103.089 315.238 102.596 315.345C102.102 315.447 101.61 315.637 101.096 315.766C100.585 315.908 100.076 316.095 99.5624 316.256C97.5149 316.943 95.5106 317.773 94.0058 318.412C93.2579 318.74 92.6216 318.996 92.1896 319.203C91.7531 319.4 91.502 319.513 91.502 319.513Z" fill="black"/>
<path d="M92.7773 322.574C92.7773 322.574 92.9681 322.383 93.3308 322.083C93.6962 321.788 94.2173 321.359 94.8842 320.902C95.552 320.449 96.3476 319.937 97.2458 319.469C98.1332 318.98 99.1295 318.552 100.135 318.15C101.159 317.793 102.198 317.467 103.201 317.279C103.705 317.194 104.184 317.081 104.654 317.057C105.121 317.021 105.558 316.967 105.967 316.976C106.375 316.979 106.749 316.997 107.077 317.013C107.406 317.033 107.691 317.095 107.924 317.124C108.391 317.197 108.652 317.251 108.652 317.251C108.652 317.251 108.381 317.276 107.915 317.3C107.682 317.316 107.401 317.307 107.08 317.349C106.759 317.397 106.4 317.449 106.008 317.491C105.618 317.538 105.201 317.651 104.757 317.722C104.313 317.787 103.859 317.95 103.38 318.051C102.901 318.155 102.426 318.349 101.928 318.479C101.434 318.631 100.945 318.823 100.449 318.993C99.9611 319.188 99.4661 319.365 98.9909 319.572C98.5193 319.785 98.0387 319.963 97.5941 320.18C96.6887 320.579 95.8625 320.998 95.1452 321.346C94.4378 321.71 93.8339 321.998 93.4271 322.229C93.014 322.448 92.7773 322.574 92.7773 322.574Z" fill="black"/>
<path d="M93.5273 324.673C93.5273 324.673 94.2554 323.906 95.555 322.999C96.2021 322.545 96.9941 322.063 97.8806 321.618C98.3234 321.394 98.7932 321.185 99.2729 320.98C99.7661 320.806 100.255 320.597 100.766 320.449C101.279 320.308 101.787 320.147 102.304 320.055C102.816 319.938 103.326 319.858 103.824 319.816C104.32 319.75 104.802 319.721 105.261 319.735C105.718 319.733 106.149 319.726 106.546 319.789C106.943 319.83 107.304 319.882 107.62 319.929C107.934 320.007 108.206 320.074 108.43 320.13C108.877 320.245 109.125 320.323 109.125 320.323C109.125 320.323 108.859 320.323 108.403 320.303C108.178 320.291 107.903 320.278 107.588 320.262C107.271 320.28 106.917 320.298 106.532 320.305C106.148 320.298 105.734 320.366 105.298 320.405C104.86 320.434 104.405 320.516 103.934 320.6C103.461 320.662 102.983 320.791 102.495 320.902C102.003 320.998 101.519 321.165 101.031 321.307C100.052 321.596 99.0983 321.966 98.2109 322.335C97.3253 322.71 96.5099 323.095 95.816 323.441C95.1257 323.793 94.5425 324.085 94.151 324.318C93.7541 324.544 93.5273 324.673 93.5273 324.673Z" fill="black"/>
<path d="M94.5762 327.479C94.5762 327.479 94.7562 327.289 95.1027 326.989C95.451 326.693 95.9496 326.267 96.5886 325.808C97.2303 325.355 97.9953 324.844 98.8629 324.377C99.2922 324.135 99.7467 323.904 100.216 323.686C100.683 323.459 101.179 323.275 101.663 323.067C102.162 322.894 102.663 322.723 103.16 322.572C103.665 322.441 104.159 322.304 104.65 322.221C105.142 322.144 105.611 322.043 106.069 322.024C106.525 321.999 106.953 321.959 107.351 321.974C107.749 321.992 108.111 322.023 108.431 322.05C108.75 322.077 109.025 322.157 109.25 322.194C109.7 322.286 109.951 322.351 109.951 322.351C109.951 322.351 109.685 322.365 109.233 322.367C109.006 322.375 108.734 322.349 108.421 322.384C108.108 322.42 107.758 322.461 107.378 322.49C106.998 322.53 106.592 322.628 106.161 322.69C105.73 322.751 105.288 322.901 104.823 322.994C104.358 323.095 103.896 323.279 103.413 323.403C102.938 323.558 102.459 323.734 101.981 323.908C101.51 324.101 101.027 324.267 100.57 324.479C100.113 324.688 99.6504 324.867 99.2202 325.083C98.3454 325.481 97.5489 325.9 96.8568 326.247C96.1755 326.613 95.5923 326.902 95.2017 327.133C94.8048 327.352 94.5762 327.479 94.5762 327.479Z" fill="black"/>
</g>
<path d="M91.5139 330.717L102.62 322.303C102.894 322.095 103.244 322.014 103.581 322.078L116.247 324.487C117.37 324.7 117.604 326.206 116.599 326.75L106.144 332.411C105.976 332.502 105.788 332.553 105.597 332.558L92.2798 332.903C91.0981 332.931 90.5716 331.43 91.5139 330.717Z" fill="#24774A"/>
<path d="M111.502 335.699C111.502 335.699 128.552 294.45 131.552 291.899C134.552 289.349 153.602 300.418 153.602 300.418L136.652 343.949L111.502 335.699Z" fill="#24774A"/>
<path opacity="0.2" d="M116.402 335.399C116.402 335.399 132.721 296.002 135.151 294.299C137.581 292.596 151.502 299.849 151.502 299.849C151.502 299.849 137.002 291 132.551 292.499C128.102 294 112.951 334.499 112.951 334.499L116.402 335.399Z" fill="black"/>
<path d="M150.753 331.65H78.3535V374.4H150.753V331.65Z" fill="#263238"/>
<path opacity="0.2" d="M150.753 331.65H78.3535V374.4H150.753V331.65Z" fill="white"/>
<path opacity="0.4" d="M150.754 331.65H105.805V374.4H150.754V331.65Z" fill="white"/>
<path d="M105.805 332.1L122.854 318.375L160.879 320.963L150.754 332.1H105.805Z" fill="#263238"/>
<path d="M105.804 332.1L92.9281 317.25L65.7031 320.175L78.3535 331.65L105.804 332.1Z" fill="#263238"/>
<path opacity="0.1" d="M105.804 332.1L92.9281 317.25L65.7031 320.175L78.3535 331.65L105.804 332.1Z" fill="white"/>
<path opacity="0.4" d="M105.805 332.1L122.854 318.375L160.879 320.963L150.754 332.1H105.805Z" fill="white"/>
<path d="M137.047 351.328C130.698 351.328 125.551 356.475 125.551 362.825C125.551 369.174 130.698 374.321 137.047 374.321C143.397 374.321 148.544 369.174 148.544 362.825C148.543 356.475 143.397 351.328 137.047 351.328ZM137.047 367.408C134.516 367.408 132.464 365.356 132.464 362.824C132.464 360.292 134.516 358.24 137.047 358.24C139.579 358.24 141.632 360.292 141.632 362.824C141.631 365.356 139.579 367.408 137.047 367.408Z" fill="#24774A"/>
<path opacity="0.7" d="M147.412 357.831C147.205 357.408 146.971 356.994 146.71 356.598C146.377 356.067 145.99 355.563 145.558 355.095C143.641 352.98 140.95 351.585 137.935 351.369C137.638 351.333 137.341 351.324 137.044 351.324C130.699 351.324 125.551 356.472 125.551 362.826C125.551 363.789 125.668 364.725 125.893 365.616C126.001 366.057 126.136 366.489 126.307 366.912C126.541 367.551 126.838 368.163 127.189 368.739C129.034 371.817 132.283 373.95 136.045 374.274C136.378 374.301 136.711 374.319 137.044 374.319C143.398 374.319 148.546 369.171 148.546 362.826C148.546 361.035 148.141 359.343 147.412 357.831ZM137.044 367.407C136.9 367.407 136.756 367.398 136.612 367.38C134.884 367.227 133.435 366.102 132.805 364.563C132.697 364.302 132.616 364.032 132.553 363.753C132.526 363.582 132.499 363.411 132.49 363.231C132.472 363.096 132.463 362.961 132.463 362.826C132.463 360.288 134.515 358.236 137.044 358.236C137.152 358.236 137.26 358.236 137.368 358.254C138.349 358.317 139.24 358.686 139.951 359.262C140.131 359.415 140.302 359.577 140.455 359.757C140.59 359.901 140.707 360.054 140.815 360.216C141.337 360.954 141.634 361.854 141.634 362.826C141.634 365.355 139.582 367.407 137.044 367.407Z" fill="white"/>
<path opacity="0.2" d="M136.612 367.38L136.045 374.274C132.283 373.95 129.034 371.817 127.189 368.739L132.805 364.563C133.435 366.102 134.884 367.227 136.612 367.38Z" fill="white"/>
<path opacity="0.2" d="M145.559 355.095L139.952 359.262C139.241 358.686 138.35 358.317 137.369 358.254L137.936 351.369C140.951 351.585 143.642 352.98 145.559 355.095Z" fill="white"/>
<path opacity="0.2" d="M132.555 363.753L126.309 366.912C126.138 366.489 126.003 366.057 125.895 365.616L132.492 363.231C132.501 363.411 132.528 363.582 132.555 363.753Z" fill="white"/>
<path opacity="0.2" d="M147.412 357.832L140.815 360.217C140.707 360.055 140.59 359.902 140.455 359.758L146.71 356.599C146.971 356.995 147.205 357.409 147.412 357.832Z" fill="white"/>
<path d="M145.447 354.519C139.098 354.519 135.698 358.952 137.852 364.419C140.007 369.887 146.9 374.319 153.25 374.319C159.599 374.319 162.999 369.887 160.845 364.419C158.69 358.952 151.797 354.519 145.447 354.519ZM150.904 368.368C148.372 368.368 145.624 366.6 144.764 364.42C143.906 362.239 145.261 360.473 147.793 360.473C150.325 360.473 153.074 362.24 153.933 364.42C154.792 366.6 153.436 368.368 150.904 368.368Z" fill="#24774A"/>
<path opacity="0.1" d="M158.018 360.12C157.668 359.755 157.293 359.399 156.897 359.058C156.384 358.601 155.826 358.167 155.235 357.764C152.601 355.942 149.436 354.741 146.348 354.555C146.038 354.524 145.738 354.516 145.441 354.516C139.096 354.516 135.695 358.95 137.851 364.422C138.177 365.251 138.612 366.057 139.14 366.824C139.397 367.204 139.679 367.575 139.994 367.94C140.445 368.49 140.949 369.017 141.496 369.513C144.385 372.164 148.357 374 152.23 374.279C152.572 374.303 152.911 374.318 153.244 374.318C159.598 374.318 162.999 369.885 160.847 364.421C160.239 362.878 159.26 361.422 158.018 360.12ZM150.899 368.366C150.755 368.366 150.608 368.358 150.458 368.343C148.678 368.212 146.847 367.242 145.695 365.918C145.498 365.693 145.326 365.46 145.169 365.22C145.084 365.072 144.999 364.926 144.928 364.77C144.864 364.654 144.81 364.538 144.764 364.422C143.902 362.237 145.259 360.469 147.788 360.469C147.896 360.469 148.004 360.469 148.118 360.484C149.121 360.538 150.137 360.856 151.043 361.353C151.275 361.484 151.501 361.624 151.715 361.779C151.899 361.904 152.068 362.035 152.231 362.174C153.003 362.81 153.606 363.585 153.936 364.422C154.793 366.599 153.438 368.366 150.899 368.366Z" fill="white"/>
<path opacity="0.2" d="M150.458 368.343L152.23 374.28C148.359 374.001 144.386 372.164 141.496 369.513L145.695 365.917C146.847 367.242 148.679 368.211 150.458 368.343Z" fill="white"/>
<path opacity="0.2" d="M155.237 357.764L151.044 361.352C150.138 360.856 149.122 360.539 148.119 360.484L146.35 354.554C149.438 354.741 152.602 355.942 155.237 357.764Z" fill="white"/>
<path opacity="0.2" d="M145.169 365.219L139.995 367.94C139.68 367.576 139.399 367.204 139.141 366.824L144.929 364.77C144.999 364.925 145.083 365.073 145.169 365.219Z" fill="white"/>
<path opacity="0.2" d="M158.016 360.12L152.229 362.174C152.066 362.035 151.896 361.903 151.713 361.779L156.896 359.058C157.292 359.399 157.666 359.756 158.016 360.12Z" fill="white"/>
<path d="M335.166 297L335.49 311.013L336.966 374.4H341.835L343.302 311.013L343.626 297H335.166Z" fill="#24774A"/>
<path opacity="0.4" d="M335.166 297L335.49 311.013L336.966 374.4H341.835L343.302 311.013L343.626 297H335.166Z" fill="white"/>
<path opacity="0.2" d="M335.166 297L335.49 311.4H343.302L343.626 297H335.166Z" fill="black"/>
<path d="M308.725 374.174L313.222 297.989H320.575L314.278 374.174H308.725Z" fill="#24774A"/>
<path opacity="0.5" d="M314.293 374.174H308.734L312.816 304.829L313.221 297.899H320.574L320.007 304.829L314.293 374.174Z" fill="white"/>
<path opacity="0.2" d="M320.572 297.899L320.005 305.099H312.814L313.219 297.899H320.572Z" fill="black"/>
<path d="M364.518 374.174L358.221 297.989H365.574L370.071 374.174H364.518Z" fill="#24774A"/>
<path opacity="0.5" d="M364.506 374.174L358.792 304.829L358.225 297.899H365.578L365.983 304.829L370.064 374.174H364.506Z" fill="white"/>
<path opacity="0.2" d="M358.225 297.899L358.792 305.099H365.983L365.578 297.899H358.225Z" fill="black"/>
<path d="M313.781 290.1H365.01C367.495 290.1 369.51 292.115 369.51 294.6V300.62H309.281V294.6C309.281 292.115 311.296 290.1 313.781 290.1Z" fill="#24774A"/>
<path d="M308.208 295.359H370.588C371.588 295.359 372.398 296.169 372.398 297.169V298.809C372.398 299.809 371.588 300.619 370.588 300.619H308.208C307.208 300.619 306.398 299.808 306.398 298.809V297.169C306.398 296.169 307.208 295.359 308.208 295.359Z" fill="#24774A"/>
<path opacity="0.6" d="M308.208 295.359H370.588C371.588 295.359 372.398 296.169 372.398 297.169V298.809C372.398 299.809 371.588 300.619 370.588 300.619H308.208C307.208 300.619 306.398 299.808 306.398 298.809V297.169C306.398 296.169 307.208 295.359 308.208 295.359Z" fill="white"/>
<path d="M317.779 204.75C317.779 204.75 317.527 205.434 317.068 206.559C316.6 207.729 315.907 209.376 315.052 211.23C312.982 215.739 309.976 221.454 306.835 224.541C305.908 225.45 304.972 226.134 304.045 226.485C300.697 227.772 292.3 228.006 284.803 227.934C277.423 227.871 270.898 227.484 270.898 227.484V221.805L295.549 215.235C295.549 215.235 308.545 191.781 316.231 188.307L317.779 204.75Z" fill="#263238"/>
<path opacity="0.2" d="M317.066 206.559C316.598 207.729 315.905 209.376 315.05 211.23C312.98 215.739 309.974 221.454 306.833 224.541C303.638 212.769 315.455 201.564 315.455 201.564L317.066 206.559Z" fill="black"/>
<path d="M313.881 367.902L306.712 366.918L305.719 349.876L312.877 350.868L313.881 367.902Z" fill="#EBB376"/>
<path opacity="0.2" d="M312.877 350.868L305.717 349.885L306.287 359.626L313.438 360.254L312.877 350.868Z" fill="black"/>
<path d="M313.593 267.714L315.342 256.755L355.536 254.352C355.536 254.352 359.811 277.156 356.526 283.231C350.664 294.076 319.07 288.603 309.825 289.669C315.351 312.268 314.811 356.431 314.811 356.431L301.608 357.439C301.608 357.439 291.449 309.851 289.395 287.239C288.009 271.981 300.652 272.361 313.593 267.714Z" fill="#24774A"/>
<path d="M316.358 357.053L300.492 358.097L299.133 351.302L316.565 350.492L316.358 357.053Z" fill="#24774A"/>
<path d="M297.342 361.538L290.125 362.069L285.604 345.607L292.812 345.086L297.342 361.538Z" fill="#EBB376"/>
<path d="M289.148 362.314C289.148 362.307 289.027 362.301 289.026 362.293L288.897 362.286V362.284L289.024 362.283C288.998 362.175 288.658 360.154 287.781 359.673C287.547 359.552 287.302 359.54 287.057 359.642C286.773 359.731 286.603 360.001 286.62 360.297C286.652 360.748 287.135 361.312 287.686 361.761C286.93 361.601 286.072 361.511 285.663 361.816C285.489 361.95 285.398 362.164 285.419 362.382C285.392 362.729 285.569 363.06 285.872 363.233C286.325 363.401 286.827 363.393 287.276 363.21C287.89 363.023 288.482 362.769 289.041 362.453C289.062 362.455 289.085 362.455 289.103 362.445C289.117 362.43 289.113 362.407 289.122 362.389C289.138 362.368 289.145 362.343 289.148 362.314ZM286.981 360.3C286.969 360.202 286.998 360.071 287.223 359.979L287.301 359.952C287.431 359.914 287.572 359.932 287.688 360.003C288.213 360.284 288.576 361.374 288.745 362.039C288.695 362.022 288.644 362.007 288.583 361.989C287.871 361.598 287.043 360.787 286.981 360.3ZM286.035 362.94C285.853 362.82 285.747 362.613 285.757 362.395C285.745 362.288 285.791 362.183 285.877 362.117C286.283 361.812 287.604 362.072 288.556 362.36C287.378 362.953 286.453 363.169 286.035 362.94Z" fill="#24774A"/>
<path opacity="0.2" d="M292.812 345.086L285.604 345.616L288.19 355.025L295.315 354.15L292.812 345.086Z" fill="black"/>
<path d="M283.158 353.863L295.866 350.128C295.866 350.128 288.279 307.306 280.584 292.456C281.16 292.267 281.925 292.024 282.87 291.745C284.571 291.232 286.83 290.593 289.485 289.855C307.953 284.734 345.384 275.131 345.384 275.131L328.284 259.174C328.284 259.174 260.172 269.56 258.759 287.506C258.084 296.137 283.158 353.863 283.158 353.863Z" fill="#24774A"/>
<path d="M297.507 350.41L282.206 354.737L279.461 348.374L296.343 343.95L297.507 350.41Z" fill="#24774A"/>
<path opacity="0.2" d="M282.869 291.745C284.57 291.232 286.829 290.593 289.484 289.855C288.953 285.499 288.944 280.504 291.041 277.957C295.208 272.881 305.927 269.902 312.029 268.822C317.132 267.922 334.277 266.131 334.277 266.131C334.277 266.131 312.029 263.998 289.286 270.631C278.045 273.916 280.232 284.905 282.869 291.745Z" fill="black"/>
<path d="M357.768 265.804C360.447 263.749 357.875 244.577 359.252 225.717C361.348 197.011 359.25 187.787 357.133 186.893C353.23 186.216 349.281 185.824 345.321 185.723C339.524 185.514 333.72 185.64 327.938 186.099C323.98 186.586 320.065 187.383 316.23 188.482C316.23 188.482 306.758 218.626 312.809 262.053L357.768 265.804Z" fill="#263238"/>
<path opacity="0.8" d="M360.035 210.943C360.035 210.943 360.026 210.943 360.035 210.952C359.918 215.173 359.666 220.069 359.252 225.721C357.875 244.576 360.449 263.746 357.767 265.807L312.812 262.054C309.482 238.15 310.859 218.269 312.767 205.219C316.421 199.513 323.513 193.006 326.771 190.153C327.527 191.089 328.814 191.89 330.911 192.304C334.412 192.988 338.408 191.359 341.72 189.388C344.33 191.989 349.28 197.254 351.449 201.691C351.683 202.177 351.89 202.645 352.052 203.104C353.429 206.956 357.632 202.213 359.774 196.012C360.089 199.639 360.215 204.517 360.035 210.943Z" fill="white"/>
<path d="M343.181 166.237C342.203 171.852 341.33 182.119 345.321 185.767C345.321 185.767 340.982 191.125 332.713 191.49C325.546 191.805 327.938 186.143 327.938 186.143C334.145 184.519 333.883 179.891 332.705 175.57L343.181 166.237Z" fill="#EBB376"/>
<path opacity="0.2" d="M338.913 170.043L332.715 175.57C333.003 176.575 333.204 177.603 333.317 178.643C335.692 178.25 338.904 175.562 339.105 173.064C339.228 172.054 339.163 171.029 338.913 170.043Z" fill="black"/>
<path d="M329.572 151.703C332.676 153.808 331.263 157.377 324.242 162.961C321.392 159.262 320.918 152.082 323.185 150.277C325.452 148.473 326.867 149.88 329.572 151.703Z" fill="#263238"/>
<path d="M342.92 157.485C342.584 165.07 342.767 169.52 339.014 173.476C333.36 179.421 323.948 176.114 322.01 168.579C320.278 161.811 321.114 150.54 328.476 147.404C333.726 145.136 339.82 147.555 342.088 152.804C342.724 154.279 343.01 155.881 342.92 157.485Z" fill="#EBB376"/>
<path d="M331.643 159.754C331.653 160.37 331.333 160.876 330.93 160.881C330.528 160.885 330.199 160.397 330.188 159.782C330.178 159.165 330.49 158.661 330.891 158.649C331.291 158.635 331.591 159.148 331.643 159.754Z" fill="#263238"/>
<path d="M324.633 159.883C324.643 160.5 324.323 161.006 323.921 161.01C323.518 161.015 323.18 160.53 323.168 159.904C323.157 159.28 323.479 158.782 323.881 158.777C324.283 158.773 324.624 159.267 324.633 159.883Z" fill="#263238"/>
<path d="M326.927 160.135C326.223 162.033 325.262 163.824 324.068 165.459C325.2 166.458 327.028 165.958 327.028 165.958L326.927 160.135Z" fill="#D58745"/>
<path d="M333.519 157.511C333.599 157.519 333.68 157.5 333.748 157.457C333.907 157.335 333.937 157.108 333.818 156.948C333.121 156.009 332.01 155.47 330.842 155.502C330.65 155.511 330.501 155.675 330.51 155.868C330.51 155.877 330.511 155.885 330.512 155.893C330.535 156.088 330.706 156.232 330.903 156.222C331.824 156.212 332.694 156.644 333.239 157.387C333.311 157.468 333.413 157.512 333.519 157.511Z" fill="#263238"/>
<path d="M321.401 157.574C321.541 157.57 321.667 157.488 321.728 157.362C322.091 156.514 322.839 155.892 323.738 155.689C323.936 155.658 324.072 155.475 324.045 155.276C324.016 155.082 323.837 154.945 323.641 154.967C322.497 155.208 321.542 155.987 321.074 157.058C320.989 157.237 321.065 157.45 321.244 157.535C321.245 157.536 321.248 157.538 321.248 157.538C321.298 157.559 321.349 157.572 321.401 157.574Z" fill="#263238"/>
<path d="M339.788 150.822C336.267 152.096 336.766 155.907 342.204 163.034C345.876 160.146 348.098 153.293 346.331 151C344.564 148.706 342.864 149.715 339.788 150.822Z" fill="#263238"/>
<path d="M346.633 163.483C346.136 165.328 344.928 166.902 343.274 167.858C341.072 169.101 339.371 167.276 339.473 164.884C339.568 162.728 340.833 159.481 343.283 159.22C345.734 158.96 347.231 161.218 346.633 163.483Z" fill="#EBB376"/>
<path d="M332.713 167.215C332.713 167.215 331.398 169.702 327.727 169.583" stroke="#263238" stroke-width="0.47367" stroke-miterlimit="10" stroke-linecap="round" stroke-linejoin="round"/>
<path d="M332.091 149.617C332.091 149.617 333.223 157.213 340.536 157.694C347.848 158.176 349.423 153.656 349.423 153.656C349.423 153.656 348.298 153.823 347.623 153.806C347.623 153.806 349.761 150.119 347.623 146.554C345.486 142.989 338.194 139.276 332.784 141.189C332.784 141.189 327.615 139.235 322.545 142.181C317.474 145.126 318.374 151.539 318.374 151.539C318.374 151.539 318.149 147.645 320.512 146.554C320.512 146.554 317.587 154.576 321.974 156.714C321.974 156.714 322.409 148.821 332.091 149.617Z" fill="#263238"/>
<path d="M319.649 221.4C319.649 221.4 293.535 220.806 292.073 220.661C290.612 220.515 284.42 217.023 283.11 216.877C281.801 216.731 278.268 222.261 277.832 223.57C277.395 224.88 287.706 228.372 288.725 228.227C289.743 228.081 292.084 226.976 292.084 226.976L318.727 230.4L319.649 221.4Z" fill="#EBB376"/>
<path d="M243.896 226.8V229.181C243.896 229.895 245.125 230.4 245.83 230.4H301.444C302.158 230.4 303.296 229.895 303.296 229.181V226.8H243.896Z" fill="#263238"/>
<path opacity="0.6" d="M243.896 226.8V229.181C243.896 229.895 245.125 230.4 245.83 230.4H301.444C302.158 230.4 303.296 229.895 303.296 229.181V226.8H243.896Z" fill="white"/>
<path opacity="0.2" d="M243.896 226.8V229.181C243.896 229.895 245.125 230.4 245.83 230.4H282.511C283.225 230.4 284.396 229.895 284.396 229.181V226.8H243.896Z" fill="black"/>
<path d="M234.979 197.562L241.599 227.693C241.814 228.682 242.777 229.5 243.748 229.5H279.913C280.876 229.5 281.495 228.473 281.272 227.484L274.66 197.676C274.436 196.696 273.482 196.2 272.51 196.2H236.346C235.375 196.2 234.764 196.582 234.979 197.562Z" fill="#263238"/>
<path opacity="0.6" d="M234.979 197.562L241.599 227.693C241.814 228.682 242.777 229.5 243.748 229.5H279.913C280.876 229.5 281.495 228.473 281.272 227.484L274.66 197.676C274.436 196.696 273.482 196.2 272.51 196.2H236.346C235.375 196.2 234.764 196.582 234.979 197.562Z" fill="white"/>
<path opacity="0.4" d="M234.979 197.562L241.599 227.693C241.814 228.682 242.777 229.5 243.748 229.5H278.684C279.656 229.5 280.266 228.473 280.051 227.484L273.429 197.676C273.214 196.696 272.251 196.2 271.279 196.2H236.346C235.375 196.2 234.764 196.582 234.979 197.562Z" fill="white"/>
<path opacity="0.2" d="M256.253 216.873C254.57 216.873 252.842 215.064 252.401 212.841C251.969 210.609 252.977 208.8 254.669 208.8C254.984 208.8 255.299 208.863 255.605 208.98C256.001 210.717 257.18 212.175 258.476 212.661C258.494 212.724 258.512 212.778 258.521 212.841C258.962 215.064 257.945 216.873 256.253 216.873Z" fill="black"/>
<path opacity="0.2" d="M360.032 210.943C360.032 210.943 360.023 210.943 360.032 210.952C356.153 217.243 350.726 223.957 345.317 223.642C339.656 223.309 345.362 211.753 351.446 201.691C351.68 202.177 351.887 202.645 352.049 203.104C353.426 206.956 357.629 202.213 359.771 196.012C360.086 199.639 360.212 204.517 360.032 210.943Z" fill="black"/>
<path d="M357.134 186.894C370.48 191.704 347.053 227.848 339.777 231.573C332.502 235.297 313.361 231.002 313.361 231.002L314.548 219.835C314.548 219.835 329.7 220.856 332.715 220.095C335.73 219.333 342.889 203.926 347.009 196.651C351.127 189.376 357.134 186.894 357.134 186.894Z" fill="#263238"/>
<path opacity="0.2" d="M316.358 357.053L300.492 358.097L299.133 351.302L316.565 350.492L316.358 357.053Z" fill="white"/>
<path opacity="0.2" d="M297.507 350.41L282.206 354.737L279.461 348.374L296.343 343.95L297.507 350.41Z" fill="white"/>
<path d="M289.416 361.336L297.232 359.154C297.501 359.066 297.791 359.213 297.879 359.482C297.88 359.485 297.881 359.487 297.882 359.49L299.991 365.574C300.179 366.248 299.79 366.948 299.118 367.144C296.378 367.861 295.033 368.067 291.586 368.999C289.473 369.583 285.353 370.936 282.34 371.279C279.326 371.622 279.068 368.634 280.313 368.224C283.264 367.235 286.796 364.16 288.328 362.071C288.6 361.713 288.982 361.454 289.416 361.336Z" fill="#263238"/>
<path d="M305.996 366.929V366.927C305.996 366.925 305.996 366.924 305.996 366.922C305.996 366.796 305.875 364.752 305.121 364.101C304.916 363.934 304.578 363.865 304.318 363.912C304.021 363.94 303.748 364.166 303.703 364.459C303.639 364.908 303.969 365.558 304.415 366.112C303.709 365.797 302.876 365.53 302.411 365.743C302.213 365.837 302.074 366.027 302.049 366.245C301.951 366.579 302.051 366.939 302.311 367.171C302.721 367.43 303.211 367.527 303.688 367.441C304.327 367.386 304.958 367.259 305.571 367.069C305.591 367.076 305.612 367.08 305.632 367.074C305.65 367.062 305.65 367.04 305.663 367.024C305.684 367.005 305.837 366.982 305.845 366.955C305.847 366.948 305.996 366.944 305.996 366.937V366.929ZM304.004 364.533C304.012 364.434 304.068 364.313 304.307 364.27L304.389 364.259C304.525 364.249 304.658 364.297 304.757 364.389C305.211 364.773 305.34 365.916 305.367 366.601C305.321 366.574 305.273 366.548 305.218 366.518C304.606 365.988 303.963 365.022 304.004 364.533ZM302.528 366.919C302.375 366.763 302.316 366.538 302.371 366.328C302.382 366.22 302.447 366.126 302.545 366.08C303.006 365.866 304.244 366.396 305.115 366.876C303.841 367.211 302.891 367.23 302.528 366.919Z" fill="#24774A"/>
<path d="M306.171 366.054L314.271 365.549C314.552 365.518 314.805 365.723 314.836 366.004C314.836 366.007 314.837 366.01 314.837 366.012L315.632 372.402C315.675 373.101 315.149 373.705 314.451 373.757C311.622 373.887 310.265 373.808 306.698 374.003C304.51 374.133 300.198 374.598 297.18 374.306C294.161 374.013 294.531 371.037 295.834 370.895C298.926 370.543 303.021 368.271 304.956 366.547C305.294 366.253 305.722 366.079 306.171 366.054Z" fill="#263238"/>
<path d="M270.1 374.401H275.614L276.514 236.479H269.199L270.1 374.401Z" fill="#24774A"/>
<path opacity="0.4" d="M269.195 236.701L269.339 258.954L270.095 374.401H275.612L276.368 258.954L276.512 236.701H269.195Z" fill="white"/>
<path opacity="0.2" d="M269.195 236.701L269.339 259.201H276.368L276.512 236.701H269.195Z" fill="black"/>
<path d="M211.564 374.401H217.078L226.984 236.479H219.67L211.564 374.401Z" fill="#24774A"/>
<path opacity="0.5" d="M211.561 374.401H217.078L226.501 243.33L226.987 236.701H219.67L219.274 243.33L211.561 374.401Z" fill="white"/>
<path opacity="0.2" d="M219.273 243.001H226.5L226.986 236.701H219.669L219.273 243.001Z" fill="black"/>
<path d="M328.637 374.401H334.15L326.045 236.479H318.73L328.637 374.401Z" fill="#24774A"/>
<path opacity="0.5" d="M318.732 236.701L319.218 243.33L328.641 374.401H334.149L326.445 243.33L326.049 236.701H318.732Z" fill="white"/>
<path opacity="0.2" d="M326.049 236.701H318.732L319.218 243.001H326.445L326.049 236.701Z" fill="black"/>
<path d="M215.817 239.933H329.898C330.973 239.933 331.844 239.062 331.844 237.987V233.024H213.871V237.986C213.871 239.062 214.742 239.933 215.817 239.933Z" fill="#24774A"/>
<path opacity="0.6" d="M215.817 239.933H329.898C330.973 239.933 331.844 239.062 331.844 237.987V233.024H213.871V237.986C213.871 239.062 214.742 239.933 215.817 239.933Z" fill="white"/>
<path opacity="0.2" d="M213.871 236.479L331.844 236.479V233.024L213.871 233.024V236.479Z" fill="black"/>
<path d="M210.454 233.926H335.262C336.337 233.926 337.208 233.055 337.208 231.98C337.208 230.905 336.337 230.034 335.262 230.034H210.454C209.379 230.034 208.508 230.905 208.508 231.98C208.508 233.055 209.379 233.926 210.454 233.926Z" fill="#24774A"/>
<path opacity="0.6" d="M210.454 233.926H335.262C336.337 233.926 337.208 233.055 337.208 231.98C337.208 230.905 336.337 230.034 335.262 230.034H210.454C209.379 230.034 208.508 230.905 208.508 231.98C208.508 233.055 209.379 233.926 210.454 233.926Z" fill="white"/>
</svg>
