<svg width="41" height="40" viewBox="0 0 41 40" fill="none" xmlns="http://www.w3.org/2000/svg">
<mask id="mask0_808_19878" style="mask-type:alpha" maskUnits="userSpaceOnUse" x="0" y="0" width="41" height="40">
<rect x="0.666016" width="40" height="40" fill="#D9D9D9"/>
</mask>
<g mask="url(#mask0_808_19878)">
<path d="M8.99935 13.3281H32.3327V9.99479H8.99935V13.3281ZM8.99935 36.6615C8.08268 36.6615 7.29796 36.3351 6.64518 35.6823C5.9924 35.0295 5.66602 34.2448 5.66602 33.3281V9.99479C5.66602 9.07812 5.9924 8.2934 6.64518 7.64062C7.29796 6.98785 8.08268 6.66146 8.99935 6.66146H10.666V3.32812H13.9993V6.66146H27.3327V3.32812H30.666V6.66146H32.3327C33.2493 6.66146 34.0341 6.98785 34.6869 7.64062C35.3396 8.2934 35.666 9.07812 35.666 9.99479V19.4531C35.1382 19.2031 34.5966 18.9948 34.041 18.8281C33.4855 18.6615 32.916 18.5365 32.3327 18.4531V16.6615H8.99935V33.3281H19.4993C19.6938 33.9392 19.923 34.5226 20.1869 35.0781C20.4507 35.6337 20.7632 36.1615 21.1244 36.6615H8.99935ZM30.666 38.3281C28.3605 38.3281 26.3952 37.5156 24.7702 35.8906C23.1452 34.2656 22.3327 32.3003 22.3327 29.9948C22.3327 27.6892 23.1452 25.724 24.7702 24.099C26.3952 22.474 28.3605 21.6615 30.666 21.6615C32.9716 21.6615 34.9369 22.474 36.5619 24.099C38.1869 25.724 38.9994 27.6892 38.9994 29.9948C38.9994 32.3003 38.1869 34.2656 36.5619 35.8906C34.9369 37.5156 32.9716 38.3281 30.666 38.3281ZM33.4577 33.9531L34.6243 32.7865L31.4993 29.6615V24.9948H29.8327V30.3281L33.4577 33.9531Z" fill="white"/>
</g>
</svg>
