<svg width="40" height="40" viewBox="0 0 40 40" fill="none" xmlns="http://www.w3.org/2000/svg">
<mask id="mask0_808_19892" style="mask-type:alpha" maskUnits="userSpaceOnUse" x="0" y="0" width="40" height="40">
<rect width="40" height="40" fill="#D9D9D9"/>
</mask>
<g mask="url(#mask0_808_19892)">
<path d="M23.3327 21.6687C21.9438 21.6687 20.7632 21.1826 19.791 20.2104C18.8188 19.2381 18.3327 18.0576 18.3327 16.6687C18.3327 15.2798 18.8188 14.0993 19.791 13.127C20.7632 12.1548 21.9438 11.6687 23.3327 11.6687C24.7216 11.6687 25.9021 12.1548 26.8743 13.127C27.8466 14.0993 28.3327 15.2798 28.3327 16.6687C28.3327 18.0576 27.8466 19.2381 26.8743 20.2104C25.9021 21.1826 24.7216 21.6687 23.3327 21.6687ZM11.666 26.6687C10.7493 26.6687 9.96463 26.3423 9.31185 25.6895C8.65907 25.0368 8.33268 24.252 8.33268 23.3354V10.002C8.33268 9.08537 8.65907 8.30065 9.31185 7.64787C9.96463 6.99509 10.7493 6.6687 11.666 6.6687H34.9993C35.916 6.6687 36.7007 6.99509 37.3535 7.64787C38.0063 8.30065 38.3327 9.08537 38.3327 10.002V23.3354C38.3327 24.252 38.0063 25.0368 37.3535 25.6895C36.7007 26.3423 35.916 26.6687 34.9993 26.6687H11.666ZM14.9993 23.3354H31.666C31.666 22.4187 31.9924 21.634 32.6452 20.9812C33.298 20.3284 34.0827 20.002 34.9993 20.002V13.3354C34.0827 13.3354 33.298 13.009 32.6452 12.3562C31.9924 11.7034 31.666 10.9187 31.666 10.002H14.9993C14.9993 10.9187 14.673 11.7034 14.0202 12.3562C13.3674 13.009 12.5827 13.3354 11.666 13.3354V20.002C12.5827 20.002 13.3674 20.3284 14.0202 20.9812C14.673 21.634 14.9993 22.4187 14.9993 23.3354ZM33.3327 33.3354H4.99935C4.08268 33.3354 3.29796 33.009 2.64518 32.3562C1.9924 31.7034 1.66602 30.9187 1.66602 30.002V11.6687H4.99935V30.002H33.3327V33.3354Z" fill="white"/>
</g>
</svg>
