<svg width="60" height="60" viewBox="0 0 60 60" fill="none" xmlns="http://www.w3.org/2000/svg">
<g clip-path="url(#clip0_808_21941)">
<path d="M37.5622 3.71875H17.7216C17.064 3.71875 16.4334 3.97997 15.9684 4.44494C15.5034 4.90992 15.2422 5.54056 15.2422 6.19813V16.7388L37.5622 29.7588L48.7222 34.4683L59.8822 29.7588V16.7388L37.5622 3.71875Z" fill="#21A366"/>
<path d="M15.2422 16.7383H37.5622V29.7583H15.2422V16.7383Z" fill="#107C41"/>
<path d="M57.4012 3.71875H37.5605V16.7388H59.8805V6.19813C59.8805 5.54056 59.6193 4.90992 59.1544 4.44494C58.6894 3.97997 58.0587 3.71875 57.4012 3.71875Z" fill="#33C481"/>
<path d="M37.5622 29.7617H15.2422V53.3223C15.2422 53.9799 15.5034 54.6106 15.9684 55.0755C16.4334 55.5405 17.064 55.8017 17.7216 55.8017H57.4028C58.0604 55.8017 58.691 55.5405 59.156 55.0755C59.621 54.6106 59.8822 53.9799 59.8822 53.3223V42.7817L37.5622 29.7617Z" fill="#185C37"/>
<path d="M37.5605 29.7617H59.8805V42.7817H37.5605V29.7617Z" fill="#107C41"/>
<path opacity="0.1" d="M31.3628 13.0195H15.2422V48.3595H31.3628C32.0198 48.3576 32.6493 48.0957 33.1138 47.6312C33.5784 47.1666 33.8402 46.5371 33.8422 45.8801V15.4989C33.8402 14.8419 33.5784 14.2124 33.1138 13.7479C32.6493 13.2833 32.0198 13.0215 31.3628 13.0195Z" fill="black"/>
<path opacity="0.2" d="M29.5028 14.8789H15.2422V50.2189H29.5028C30.1598 50.2169 30.7893 49.9551 31.2538 49.4905C31.7184 49.026 31.9802 48.3965 31.9822 47.7395V17.3583C31.9802 16.7013 31.7184 16.0718 31.2538 15.6073C30.7893 15.1427 30.1598 14.8809 29.5028 14.8789Z" fill="black"/>
<path opacity="0.2" d="M29.5028 14.8789H15.2422V46.4989H29.5028C30.1598 46.4969 30.7893 46.2351 31.2538 45.7705C31.7184 45.306 31.9802 44.6765 31.9822 44.0195V17.3583C31.9802 16.7013 31.7184 16.0718 31.2538 15.6073C30.7893 15.1427 30.1598 14.8809 29.5028 14.8789Z" fill="black"/>
<path opacity="0.2" d="M27.6428 14.8789H15.2422V46.4989H27.6428C28.2998 46.4969 28.9293 46.2351 29.3938 45.7705C29.8584 45.306 30.1202 44.6765 30.1222 44.0195V17.3583C30.1202 16.7013 29.8584 16.0718 29.3938 15.6073C28.9293 15.1427 28.2998 14.8809 27.6428 14.8789Z" fill="black"/>
<path d="M2.84071 14.8789H27.6419C28.2995 14.8789 28.9302 15.1401 29.3951 15.6051C29.8601 16.0701 30.1213 16.7007 30.1213 17.3583V42.1595C30.1213 42.8171 29.8601 43.4477 29.3951 43.9127C28.9302 44.3777 28.2995 44.6389 27.6419 44.6389H2.84071C2.18314 44.6389 1.5525 44.3777 1.08752 43.9127C0.622548 43.4477 0.361328 42.8171 0.361328 42.1595L0.361328 17.3583C0.361328 16.7007 0.622548 16.0701 1.08752 15.6051C1.5525 15.1401 2.18314 14.8789 2.84071 14.8789Z" fill="#107C41"/>
<path d="M6.93359 39.0609L12.9526 29.7349L7.43951 20.4609H11.8756L14.8851 26.3888C15.1616 26.9505 15.352 27.3696 15.4561 27.6461H15.4952C15.6936 27.1972 15.9013 26.7608 16.1183 26.3367L19.3342 20.4609H23.4058L17.7514 29.6828L23.549 39.0609H19.2152L15.7388 32.5509C15.5751 32.2736 15.4362 31.9823 15.3241 31.6805H15.272C15.1705 31.9757 15.0357 32.2584 14.8702 32.523L11.2934 39.0609H6.93359Z" fill="#EBEBEB"/>
</g>
<defs>
<clipPath id="clip0_808_21941">
<rect width="60" height="59.52" fill="white"/>
</clipPath>
</defs>
</svg>
