<svg width="215" height="215" viewBox="0 0 215 215" fill="none" xmlns="http://www.w3.org/2000/svg">
<g clip-path="url(#clip0_490_119)">
<path d="M215 164.431H0V164.539H215V164.431Z" fill="#EBEBEB"/>
<path d="M138.256 170.427H124.014V170.534H138.256V170.427Z" fill="#EBEBEB"/>
<path d="M178.785 169.26H175.047V169.368H178.785V169.26Z" fill="#EBEBEB"/>
<path d="M170.532 167.359H140.896V167.467H170.532V167.359Z" fill="#EBEBEB"/>
<path d="M96.8139 169.897H83.7832V170.005H96.8139V169.897Z" fill="#EBEBEB"/>
<path d="M79.9549 169.898H71.6895V170.005H79.9549V169.898Z" fill="#EBEBEB"/>
<path d="M42.6989 168.082H22.5586V168.189H42.6989V168.082Z" fill="#EBEBEB"/>
<path d="M101.917 145.254H18.8841C17.5309 145.254 16.4297 144.153 16.4297 142.799V26.0836C16.4297 24.7304 17.5309 23.6292 18.8841 23.6292H101.917C103.269 23.6292 104.371 24.7304 104.371 26.0836V142.799C104.371 144.153 103.269 145.254 101.917 145.254ZM18.8841 23.7371C17.5898 23.7371 16.5372 24.7897 16.5372 26.084V142.8C16.5372 144.094 17.5898 145.147 18.8841 145.147H101.917C103.211 145.147 104.263 144.094 104.263 142.8V26.0836C104.263 24.7897 103.211 23.7367 101.917 23.7367L18.8841 23.7371Z" fill="#EBEBEB"/>
<path d="M194.924 145.254H111.892C110.538 145.254 109.438 144.153 109.438 142.799V26.0836C109.438 24.7304 110.539 23.6292 111.892 23.6292H194.924C196.277 23.6292 197.378 24.7304 197.378 26.0836V142.799C197.379 144.153 196.277 145.254 194.924 145.254ZM111.892 23.7371C110.598 23.7371 109.545 24.7897 109.545 26.084V142.8C109.545 144.094 110.598 145.147 111.892 145.147H194.924C196.218 145.147 197.271 144.094 197.271 142.8V26.0836C197.271 24.7897 196.218 23.7367 194.924 23.7367L111.892 23.7371Z" fill="#EBEBEB"/>
<path d="M24.6486 100.94L97.875 100.94L97.875 33.5246L24.6486 33.5246L24.6486 100.94Z" fill="#E6E6E6"/>
<path d="M22.9097 100.94L97.1191 100.94L97.1191 33.5246L22.9097 33.5246L22.9097 100.94Z" fill="#F5F5F5"/>
<path d="M94 97.5683L94 36.897L26.0316 36.897L26.0316 97.5683L94 97.5683Z" fill="#FAFAFA"/>
<path d="M85.6024 97.5683L62.7454 36.897H53.1211L75.9786 97.5683H85.6024Z" fill="white"/>
<path d="M73.2499 97.5683L50.3924 36.897H43.7656L66.6231 97.5683H73.2499Z" fill="white"/>
<path d="M52.7637 97.5685L52.7637 36.8972H49.0407L49.0407 97.5685H52.7637Z" fill="#E6E6E6"/>
<path d="M73.4863 97.5683L73.4863 36.897H69.7634L69.7634 97.5683H73.4863Z" fill="#E6E6E6"/>
<path d="M52.0918 99.7079L52.0918 34.3896H47.3859L47.3859 99.7079H52.0918Z" fill="#F5F5F5"/>
<path d="M72.8145 99.7077L72.8145 34.3894H68.1085L68.1085 99.7077H72.8145Z" fill="#F5F5F5"/>
<path d="M26.3633 97.5685L26.3633 36.8972H26.0322L26.0322 97.5685H26.3633Z" fill="#E6E6E6"/>
<path d="M191.726 34.1406H116.396V86.8341H191.726V34.1406Z" fill="#EBEBEB"/>
<path d="M191.724 86.8345H192.359V34.141H191.724V86.8345Z" fill="#E0E0E0"/>
<path d="M189.088 84.1955V36.7798L119.036 36.7798L119.036 84.1955L189.088 84.1955Z" fill="white"/>
<path d="M119.559 84.1955L119.559 36.7798H119.035L119.035 84.1955H119.559Z" fill="#E0E0E0"/>
<path d="M180.75 41.8928H163.637V65.9376H180.75V41.8928Z" fill="#F5F5F5"/>
<path d="M141.635 46.3499H124.521V70.3946H141.635V46.3499Z" fill="#F5F5F5"/>
<path d="M168.908 52.332H151.795V76.3768H168.908V52.332Z" fill="#EBEBEB"/>
<path d="M145.442 53.3877H138.758V60.0716H145.442V53.3877Z" fill="#F5F5F5"/>
<path d="M143.5 67.0527H136.816V73.7367H143.5V67.0527Z" fill="#F0F0F0"/>
<path d="M175.91 161.342C175.91 159.635 177.293 158.252 179 158.252C180.706 158.252 182.089 159.635 182.089 161.342C182.089 163.048 180.706 164.431 179 164.431C177.293 164.431 175.91 163.048 175.91 161.342Z" fill="#E0E0E0"/>
<path d="M181.125 161.342C181.125 159.635 182.508 158.252 184.215 158.252C185.921 158.252 187.304 159.635 187.304 161.342C187.304 163.048 185.921 164.431 184.215 164.431C182.508 164.431 181.125 163.048 181.125 161.342Z" fill="#E0E0E0"/>
<path d="M95.75 161.342C95.75 159.635 97.1333 158.252 98.8395 158.252C100.546 158.252 101.929 159.635 101.929 161.342C101.929 163.048 100.546 164.431 98.8395 164.431C97.1333 164.431 95.75 163.048 95.75 161.342Z" fill="#E0E0E0"/>
<path d="M100.961 161.342C100.961 159.635 102.344 158.252 104.05 158.252C105.757 158.252 107.14 159.635 107.14 161.342C107.14 163.048 105.757 164.431 104.05 164.431C102.344 164.431 100.961 163.048 100.961 161.342Z" fill="#E0E0E0"/>
<path d="M181.26 161.768H188.572V95.8901H181.26V161.768Z" fill="#EBEBEB"/>
<path d="M181.26 95.8899H95.1152V161.768H181.26V95.8899Z" fill="#F5F5F5"/>
<path d="M178.46 98.5935H97.916V159.065H178.46V98.5935Z" fill="#EBEBEB"/>
<path d="M177.312 124.026H99.0586V157.949H177.312V124.026Z" fill="#F5F5F5"/>
<path d="M177.316 99.866H99.0625V123.167H177.316V99.866Z" fill="#F5F5F5"/>
<path d="M113.299 124.599H163.076C163.391 124.599 163.649 124.341 163.649 124.026C163.649 123.711 163.391 123.453 163.076 123.453H113.299C112.984 123.453 112.727 123.711 112.727 124.026C112.726 124.341 112.984 124.599 113.299 124.599Z" fill="#EBEBEB"/>
<path d="M113.299 100.439H163.076C163.391 100.439 163.649 100.181 163.649 99.8662C163.649 99.551 163.391 99.2935 163.076 99.2935H113.299C112.984 99.2935 112.727 99.5515 112.727 99.8662C112.726 100.181 112.984 100.439 113.299 100.439Z" fill="#EBEBEB"/>
<path d="M65.4133 130.795H27.4805V164.432H65.4133V130.795Z" fill="#F5F5F5"/>
<path d="M65.4133 164.431H80.1602V130.795H65.4133V164.431Z" fill="#EBEBEB"/>
<path d="M66.233 124.895H25.6074V130.796H66.233V124.895Z" fill="#EBEBEB"/>
<path d="M66.2319 130.795H82.0254V124.895H66.2319V130.795Z" fill="#E0E0E0"/>
<path d="M107.499 183.851C153.544 183.851 190.872 181.671 190.872 178.982C190.872 176.293 153.544 174.114 107.499 174.114C61.454 174.114 24.127 176.293 24.127 178.982C24.127 181.671 61.454 183.851 107.499 183.851Z" fill="#F5F5F5"/>
<path d="M175.739 80.3638H175.309V85.4881H175.739V80.3638Z" fill="#24774A"/>
<path d="M175.739 65.6821H175.309V76.7766H175.739V65.6821Z" fill="#24774A"/>
<path d="M169.493 118.334H66.3909C64.6997 118.334 63.3164 116.95 63.3164 115.26V59.7979C63.3164 58.1067 64.7001 56.7234 66.3909 56.7234H169.494C171.185 56.7234 172.568 58.1071 172.568 59.7979V115.26C172.568 116.951 171.184 118.334 169.493 118.334Z" fill="#E0E0E0"/>
<path d="M171.066 116.763H67.9632C66.272 116.763 64.8887 115.379 64.8887 113.688V58.2264C64.8887 56.5352 66.2724 55.1519 67.9632 55.1519H171.066C172.757 55.1519 174.14 56.5356 174.14 58.2264V113.688C174.14 115.379 172.757 116.763 171.066 116.763Z" fill="white"/>
<path d="M171.066 116.978H67.9633C66.1496 116.978 64.6738 115.502 64.6738 113.688V58.2265C64.6738 56.4128 66.1496 54.937 67.9633 54.937H171.066C172.879 54.937 174.355 56.4128 174.355 58.2265V113.688C174.356 115.502 172.879 116.978 171.066 116.978ZM67.9633 55.3666C66.3865 55.3666 65.1038 56.6493 65.1038 58.2261V113.688C65.1038 115.265 66.3865 116.548 67.9633 116.548H171.066C172.643 116.548 173.925 115.265 173.925 113.688V58.2265C173.925 56.6497 172.643 55.367 171.066 55.367H67.9633V55.3666Z" fill="#24774A"/>
<path d="M113.003 81.9109H73.2697C72.3865 81.9109 71.668 81.1924 71.668 80.3092V74.8327C71.668 73.9495 72.3865 73.231 73.2697 73.231H113.003C113.886 73.231 114.605 73.9495 114.605 74.8327V80.3092C114.605 81.1924 113.887 81.9109 113.003 81.9109ZM73.2701 73.661C72.6243 73.661 72.0984 74.1868 72.0984 74.8327V80.3092C72.0984 80.9551 72.6243 81.4809 73.2701 81.4809H113.003C113.649 81.4809 114.175 80.9551 114.175 80.3092V74.8327C114.175 74.1868 113.649 73.661 113.003 73.661H73.2701Z" fill="#E0E0E0"/>
<path d="M133.936 93.5177H73.2697C72.3865 93.5177 71.668 92.7992 71.668 91.916V86.4391C71.668 85.5559 72.3865 84.8369 73.2697 84.8369H133.936C134.819 84.8369 135.538 85.5554 135.538 86.4391V91.9156C135.538 92.7992 134.819 93.5177 133.936 93.5177ZM73.2697 85.2673C72.6239 85.2673 72.098 85.7932 72.098 86.4395V91.916C72.098 92.5619 72.6239 93.0877 73.2697 93.0877H133.936C134.582 93.0877 135.108 92.5619 135.108 91.916V86.4391C135.108 85.7928 134.582 85.2669 133.936 85.2669L73.2697 85.2673Z" fill="#E0E0E0"/>
<path d="M73.7267 90.9043C73.608 90.9043 73.5117 90.8079 73.5117 90.6893V87.6659C73.5117 87.5472 73.608 87.4509 73.7267 87.4509C73.8454 87.4509 73.9417 87.5472 73.9417 87.6659V90.6893C73.9417 90.8079 73.8454 90.9043 73.7267 90.9043Z" fill="#E0E0E0"/>
<path d="M160.634 81.9109H120.901C120.017 81.9109 119.299 81.1924 119.299 80.3092V74.8327C119.299 73.9495 120.017 73.231 120.901 73.231H160.634C161.517 73.231 162.236 73.9495 162.236 74.8327V80.3092C162.236 81.1924 161.517 81.9109 160.634 81.9109ZM120.901 73.661C120.254 73.661 119.729 74.1868 119.729 74.8327V80.3092C119.729 80.9551 120.255 81.4809 120.901 81.4809H160.634C161.28 81.4809 161.806 80.9551 161.806 80.3092V74.8327C161.806 74.1868 161.28 73.661 160.634 73.661H120.901Z" fill="#E0E0E0"/>
<path opacity="0.2" d="M99.1186 65.6822H73.6505C72.6783 65.6822 71.8828 64.8867 71.8828 63.9145C71.8828 62.9422 72.6783 62.1467 73.6505 62.1467H99.1186C100.091 62.1467 100.887 62.9422 100.887 63.9145C100.887 64.8867 100.091 65.6822 99.1186 65.6822Z" fill="#24774A"/>
<path opacity="0.2" d="M106.126 99.7723H78.5309C78.1435 99.7723 77.8262 99.4554 77.8262 99.0676C77.8262 98.6801 78.1431 98.3628 78.5309 98.3628H106.126C106.513 98.3628 106.831 98.6797 106.831 99.0676C106.831 99.4554 106.513 99.7723 106.126 99.7723Z" fill="#24774A"/>
<path d="M73.3048 100.49C74.0902 100.49 74.7268 99.8531 74.7268 99.0678C74.7268 98.2824 74.0902 97.6458 73.3048 97.6458C72.5195 97.6458 71.8828 98.2824 71.8828 99.0678C71.8828 99.8531 72.5195 100.49 73.3048 100.49Z" fill="#24774A"/>
<path d="M121.36 79.2976C121.241 79.2976 121.145 79.2013 121.145 79.0826V76.0592C121.145 75.9406 121.241 75.8442 121.36 75.8442C121.478 75.8442 121.575 75.9406 121.575 76.0592V79.0826C121.575 79.2013 121.478 79.2976 121.36 79.2976Z" fill="#E0E0E0"/>
<path d="M73.7267 79.2976C73.608 79.2976 73.5117 79.2013 73.5117 79.0826V76.0592C73.5117 75.9406 73.608 75.8442 73.7267 75.8442C73.8454 75.8442 73.9417 75.9406 73.9417 76.0592V79.0826C73.9417 79.2013 73.8454 79.2976 73.7267 79.2976Z" fill="#E0E0E0"/>
<g opacity="0.6">
<path d="M75.4395 78.8522V76.2112H77.2209V76.5229H75.7886V77.3408H77.0283V77.6525H75.7886V78.8527L75.4395 78.8522Z" fill="#263238"/>
<path d="M77.6348 76.5845V76.2117H77.9594V76.5845H77.6348ZM77.6348 78.8523V76.9392H77.9594V78.8523H77.6348Z" fill="#263238"/>
<path d="M78.4512 78.8523V76.9392H78.7431V77.229C78.8175 77.0935 78.8863 77.0041 78.9495 76.9607C79.0123 76.9177 79.082 76.8958 79.1572 76.8958C79.2669 76.8958 79.3778 76.9306 79.4905 77.0002L79.3787 77.3012C79.2991 77.2544 79.2204 77.2312 79.1409 77.2312C79.0699 77.2312 79.0059 77.2522 78.95 77.2948C78.8936 77.3374 78.8532 77.3967 78.8296 77.4724C78.7935 77.5876 78.7754 77.7136 78.7754 77.8508V78.8527L78.4512 78.8523Z" fill="#263238"/>
<path d="M79.5527 78.2813L79.8735 78.231C79.8916 78.3596 79.9415 78.4581 80.024 78.5264C80.1061 78.5948 80.2214 78.6292 80.3693 78.6292C80.5181 78.6292 80.629 78.5991 80.7008 78.5385C80.7731 78.4778 80.8092 78.4065 80.8092 78.3248C80.8092 78.2517 80.7774 78.194 80.7133 78.1519C80.6686 78.1231 80.5585 78.0865 80.3818 78.0422C80.1436 77.982 79.9789 77.9304 79.8873 77.8866C79.7953 77.8427 79.7256 77.7821 79.6783 77.7047C79.631 77.6273 79.6073 77.5417 79.6073 77.448C79.6073 77.3628 79.6267 77.2837 79.6658 77.2111C79.705 77.1384 79.7583 77.0782 79.8254 77.03C79.8757 76.9926 79.9445 76.9612 80.0318 76.9354C80.119 76.9096 80.2124 76.8967 80.3117 76.8967C80.4622 76.8967 80.5938 76.9182 80.7073 76.9617C80.8208 77.0051 80.9046 77.0631 80.9588 77.1371C81.0126 77.2111 81.05 77.31 81.0706 77.4334L80.7537 77.4768C80.7391 77.3783 80.6974 77.3014 80.6282 77.2459C80.5594 77.1904 80.4618 77.1633 80.3353 77.1633C80.1866 77.1633 80.0799 77.1878 80.0167 77.2369C79.9526 77.2863 79.9208 77.3439 79.9208 77.4097C79.9208 77.4519 79.9341 77.4897 79.9608 77.5232C79.9875 77.5581 80.0283 77.5869 80.0851 77.6097C80.1173 77.6217 80.2128 77.6492 80.3715 77.6922C80.6006 77.7537 80.7606 77.8036 80.8513 77.8427C80.9421 77.8819 81.0134 77.9386 81.065 78.013C81.1166 78.0874 81.1424 78.1798 81.1424 78.2904C81.1424 78.3983 81.111 78.5002 81.0478 78.5957C80.9851 78.6911 80.8939 78.7651 80.7748 78.8175C80.6561 78.87 80.5215 78.8958 80.3715 78.8958C80.1229 78.8958 79.9333 78.8442 79.803 78.741C79.6718 78.6374 79.5889 78.4843 79.5527 78.2813Z" fill="#263238"/>
<path d="M82.2343 78.5624L82.2812 78.8488C82.1896 78.8677 82.1083 78.8776 82.0361 78.8776C81.9187 78.8776 81.8275 78.8587 81.7622 78.8217C81.6977 78.7847 81.6517 78.7357 81.6254 78.6751C81.5992 78.6144 81.5859 78.4867 81.5859 78.2924V77.1916H81.3477V76.9392H81.5859V76.4653L81.9084 76.2705V76.9392H82.2343V77.1916H81.9084V78.3104C81.9084 78.4029 81.914 78.4627 81.9251 78.4889C81.9368 78.5151 81.9552 78.5362 81.981 78.5517C82.0073 78.5671 82.0438 78.5753 82.092 78.5753C82.1281 78.5749 82.1758 78.571 82.2343 78.5624Z" fill="#263238"/>
<path d="M83.5781 78.8523V76.9392H83.8701V77.2109C84.0107 77.0007 84.2137 76.8958 84.479 76.8958C84.5946 76.8958 84.7004 76.9164 84.7967 76.9581C84.8939 76.9994 84.9662 77.054 85.0139 77.1211C85.0621 77.1886 85.0956 77.2681 85.1149 77.3606C85.1266 77.4208 85.133 77.5257 85.133 77.6758V78.8523H84.8084V77.6882C84.8084 77.5562 84.7959 77.4573 84.7705 77.392C84.7456 77.3266 84.7009 77.2742 84.6368 77.235C84.5727 77.1959 84.497 77.1765 84.4106 77.1765C84.2726 77.1765 84.153 77.2204 84.0533 77.3081C83.9531 77.3958 83.9023 77.5618 83.9023 77.8069V78.8518H83.5781V78.8523Z" fill="#263238"/>
<path d="M86.8764 78.6165C86.7564 78.7184 86.6407 78.7906 86.5294 78.8328C86.4184 78.8749 86.2993 78.8956 86.172 78.8956C85.9618 78.8956 85.8005 78.844 85.6874 78.7416C85.5743 78.6389 85.5176 78.5077 85.5176 78.3477C85.5176 78.254 85.5391 78.1689 85.5816 78.091C85.6242 78.0136 85.6801 77.9513 85.7493 77.9044C85.8181 77.8575 85.896 77.8223 85.9824 77.7978C86.046 77.781 86.1424 77.7647 86.2709 77.7492C86.5324 77.7178 86.7254 77.6808 86.8493 77.6374C86.8506 77.5927 86.851 77.5647 86.851 77.5527C86.851 77.4202 86.8205 77.3274 86.759 77.2732C86.6764 77.2001 86.553 77.1631 86.39 77.1631C86.2378 77.1631 86.1252 77.1902 86.0525 77.2435C85.9794 77.2968 85.9256 77.3914 85.8912 77.5273L85.5739 77.4839C85.6027 77.3484 85.6504 77.2388 85.7162 77.1554C85.7825 77.0719 85.8779 77.0074 86.003 76.9623C86.1277 76.9176 86.2727 76.8948 86.4369 76.8948C86.6003 76.8948 86.7328 76.9137 86.8355 76.9524C86.9374 76.9907 87.0123 77.0393 87.0604 77.0973C87.1081 77.1558 87.1417 77.2293 87.161 77.3179C87.1718 77.3729 87.1774 77.4727 87.1774 77.6167V78.0493C87.1774 78.3508 87.1843 78.5412 87.198 78.6212C87.2118 78.7012 87.2393 78.7777 87.2801 78.8508H86.9417C86.9078 78.7851 86.8863 78.7064 86.8764 78.6165ZM86.8497 77.8924C86.7323 77.9405 86.5552 77.981 86.32 78.0149C86.1867 78.0343 86.0925 78.0558 86.037 78.0799C85.9815 78.1039 85.939 78.1392 85.9089 78.1852C85.8792 78.2312 85.8642 78.2828 85.8642 78.3391C85.8642 78.4256 85.8968 78.4978 85.9626 78.5554C86.028 78.6131 86.1239 78.6419 86.2499 78.6419C86.375 78.6419 86.4859 78.6148 86.5831 78.5602C86.6807 78.5056 86.7521 78.4307 86.7977 78.3357C86.8321 78.2626 86.8497 78.1547 86.8497 78.0115V77.8924Z" fill="#263238"/>
<path d="M87.6797 78.8523V76.9392H87.9699V77.2075C88.0301 77.1138 88.1097 77.0385 88.2094 76.9813C88.3092 76.9246 88.4227 76.8958 88.55 76.8958C88.6919 76.8958 88.8084 76.925 88.8987 76.9839C88.9895 77.0428 89.0535 77.1249 89.0905 77.2307C89.2423 77.0071 89.4392 76.8958 89.6818 76.8958C89.871 76.8958 90.0172 76.9482 90.1195 77.0536C90.2214 77.1585 90.273 77.3206 90.273 77.539V78.8523H89.9505V77.647C89.9505 77.5171 89.9398 77.4238 89.9191 77.3666C89.8981 77.3098 89.8598 77.2638 89.8043 77.229C89.7493 77.1942 89.6843 77.1765 89.61 77.1765C89.4754 77.1765 89.364 77.2213 89.275 77.3107C89.186 77.4001 89.1417 77.5433 89.1417 77.7403V78.8518H88.817V77.6087C88.817 77.4646 88.7904 77.3563 88.7379 77.2845C88.685 77.2127 88.5986 77.1765 88.4782 77.1765C88.3866 77.1765 88.3023 77.2006 88.2249 77.2488C88.1471 77.2969 88.0912 77.367 88.0564 77.4595C88.0215 77.5519 88.0039 77.6852 88.0039 77.8594V78.8523H87.6797Z" fill="#263238"/>
<path d="M92.0622 78.2365L92.3972 78.2778C92.3443 78.4734 92.2463 78.6256 92.1035 78.7336C91.9603 78.8415 91.778 78.8957 91.5561 78.8957C91.2762 78.8957 91.0543 78.8097 90.8901 78.6373C90.7262 78.4648 90.6445 78.2232 90.6445 77.9118C90.6445 77.5898 90.7271 77.3399 90.8931 77.1623C91.059 76.9843 91.2736 76.8958 91.5381 76.8958C91.7939 76.8958 92.0029 76.983 92.165 77.1568C92.3271 77.3309 92.408 77.576 92.408 77.8921C92.408 77.911 92.4071 77.9402 92.4062 77.9785H90.9795C90.9911 78.1888 91.0509 78.3496 91.1575 78.4614C91.2646 78.5732 91.3979 78.6291 91.5578 78.6291C91.6765 78.6291 91.7784 78.5977 91.8623 78.5353C91.9461 78.473 92.0128 78.3732 92.0622 78.2365ZM90.9976 77.7123H92.0657C92.0511 77.5515 92.0102 77.4307 91.9431 77.3503C91.8399 77.2256 91.7058 77.1628 91.5415 77.1628C91.3927 77.1628 91.2672 77.2127 91.1661 77.3124C91.0642 77.4117 91.0079 77.5451 90.9976 77.7123Z" fill="#263238"/>
</g>
<g opacity="0.6">
<path d="M75.4297 90.4592V87.8181H77.3393V88.1299H75.7788V88.9387H77.24V89.2487H75.7788V90.1479H77.4004V90.4596L75.4297 90.4592Z" fill="#263238"/>
<path d="M77.8418 90.4592V88.5461H78.132V88.8144C78.1922 88.7207 78.2718 88.6454 78.3716 88.5883C78.4713 88.5315 78.5848 88.5027 78.7121 88.5027C78.854 88.5027 78.9705 88.5319 79.0608 88.5908C79.1516 88.6497 79.2156 88.7319 79.2526 88.8377C79.4044 88.6141 79.6014 88.5027 79.8439 88.5027C80.0331 88.5027 80.1793 88.5551 80.2816 88.6605C80.3835 88.7654 80.4351 88.9275 80.4351 89.146V90.4592H80.1126V89.2539C80.1126 89.124 80.1023 89.0307 80.0812 88.9735C80.0602 88.9168 80.0219 88.8708 79.9664 88.8359C79.9114 88.8011 79.8465 88.7835 79.7721 88.7835C79.6375 88.7835 79.5261 88.8282 79.4371 88.9176C79.3481 89.0075 79.3038 89.1507 79.3038 89.3476V90.4592H78.9791V89.2161C78.9791 89.072 78.9529 88.9636 78.9 88.8918C78.8471 88.82 78.7607 88.7839 78.6403 88.7839C78.5487 88.7839 78.4644 88.808 78.387 88.8557C78.3092 88.9039 78.2533 88.974 78.2185 89.0664C78.1836 89.1589 78.166 89.2922 78.166 89.4663V90.4592H77.8418Z" fill="#263238"/>
<path d="M82.1635 90.2233C82.0435 90.3252 81.9278 90.3975 81.8165 90.4396C81.7055 90.4817 81.5864 90.5024 81.4591 90.5024C81.2489 90.5024 81.0876 90.4508 80.9745 90.3484C80.8614 90.2457 80.8047 90.1145 80.8047 89.955C80.8047 89.8612 80.8262 89.7757 80.8688 89.6983C80.9113 89.6209 80.9672 89.5585 81.0365 89.5117C81.1053 89.4648 81.1831 89.4295 81.2695 89.4054C81.3332 89.3887 81.4295 89.3723 81.558 89.3569C81.8195 89.3255 82.0126 89.2885 82.1364 89.2451C82.1377 89.2003 82.1381 89.1724 82.1381 89.1603C82.1381 89.0279 82.1076 88.935 82.0461 88.8813C81.9635 88.8082 81.8401 88.7712 81.6772 88.7712C81.5249 88.7712 81.4123 88.7983 81.3396 88.8512C81.2665 88.9049 81.2128 88.9991 81.1784 89.135L80.861 89.0915C80.8898 88.9557 80.9376 88.8464 81.0033 88.763C81.0696 88.6796 81.165 88.6151 81.2902 88.57C81.4149 88.5248 81.5598 88.5024 81.724 88.5024C81.8874 88.5024 82.0203 88.5214 82.1226 88.5601C82.2245 88.5983 82.2994 88.6469 82.3475 88.705C82.3953 88.7635 82.4288 88.837 82.4481 88.9256C82.4589 88.9806 82.4645 89.0804 82.4645 89.2244V89.657C82.4645 89.9584 82.4714 90.1493 82.4851 90.2289C82.4989 90.3089 82.5264 90.3854 82.5668 90.4585H82.2284C82.1949 90.3919 82.1734 90.3132 82.1635 90.2233ZM82.1368 89.4992C82.0194 89.5473 81.8427 89.5882 81.6075 89.6217C81.4738 89.6411 81.38 89.6626 81.3246 89.6867C81.2691 89.7107 81.2265 89.746 81.1964 89.792C81.1667 89.838 81.1517 89.8896 81.1517 89.946C81.1517 90.0324 81.1844 90.1046 81.2502 90.1618C81.3155 90.2194 81.4114 90.2482 81.5374 90.2482C81.6625 90.2482 81.7735 90.2207 81.8707 90.1665C81.9683 90.1115 82.0396 90.0371 82.0852 89.9421C82.1196 89.869 82.1373 89.7611 82.1373 89.6179V89.4992H82.1368Z" fill="#263238"/>
<path d="M82.9688 88.1909V87.8181H83.2934V88.1909H82.9688ZM82.9688 90.4592V88.5461H83.2934V90.4592H82.9688Z" fill="#263238"/>
<path d="M83.7793 90.4592V87.8181H84.1035V90.4592H83.7793Z" fill="#263238"/>
</g>
<g opacity="0.6">
<path d="M123.037 78.8522V76.2112H123.387V78.5405H124.687V78.8522H123.037Z" fill="#263238"/>
<path d="M126.31 78.6165C126.19 78.7184 126.074 78.7906 125.963 78.8328C125.852 78.8749 125.733 78.8956 125.606 78.8956C125.395 78.8956 125.234 78.844 125.121 78.7416C125.008 78.6389 124.951 78.5077 124.951 78.3477C124.951 78.254 124.973 78.1689 125.016 78.091C125.058 78.0136 125.114 77.9513 125.183 77.9044C125.252 77.8575 125.33 77.8223 125.416 77.7978C125.48 77.781 125.576 77.7647 125.705 77.7492C125.966 77.7178 126.159 77.6808 126.283 77.6374C126.285 77.5927 126.285 77.5647 126.285 77.5527C126.285 77.4202 126.255 77.3274 126.193 77.2732C126.11 77.2001 125.987 77.1631 125.824 77.1631C125.672 77.1631 125.559 77.1902 125.487 77.2435C125.413 77.2968 125.36 77.3914 125.325 77.5273L125.008 77.4839C125.037 77.3484 125.084 77.2388 125.15 77.1554C125.216 77.0719 125.312 77.0074 125.437 76.9623C125.562 76.9176 125.707 76.8948 125.871 76.8948C126.034 76.8948 126.167 76.9137 126.27 76.9524C126.371 76.9907 126.446 77.0393 126.494 77.0973C126.542 77.1558 126.576 77.2293 126.595 77.3179C126.606 77.3729 126.611 77.4727 126.611 77.6167V78.0493C126.611 78.3508 126.618 78.5412 126.632 78.6212C126.646 78.7012 126.673 78.7777 126.714 78.8508H126.375C126.341 78.7851 126.32 78.7064 126.31 78.6165ZM126.283 77.8924C126.166 77.9405 125.989 77.981 125.754 78.0149C125.62 78.0343 125.527 78.0558 125.471 78.0799C125.416 78.1039 125.373 78.1392 125.343 78.1852C125.313 78.2312 125.298 78.2828 125.298 78.3391C125.298 78.4256 125.33 78.4978 125.396 78.5554C125.462 78.6131 125.557 78.6419 125.683 78.6419C125.809 78.6419 125.92 78.6148 126.017 78.5602C126.114 78.5056 126.186 78.4307 126.231 78.3357C126.266 78.2626 126.283 78.1547 126.283 78.0115V77.8924Z" fill="#263238"/>
<path d="M126.984 78.2813L127.305 78.231C127.323 78.3596 127.373 78.4581 127.456 78.5264C127.538 78.5948 127.653 78.6292 127.801 78.6292C127.95 78.6292 128.061 78.5991 128.132 78.5385C128.205 78.4778 128.241 78.4065 128.241 78.3248C128.241 78.2517 128.209 78.194 128.145 78.1519C128.101 78.1231 127.99 78.0865 127.813 78.0422C127.575 77.982 127.41 77.9304 127.319 77.8866C127.227 77.8427 127.157 77.7821 127.11 77.7047C127.063 77.6273 127.039 77.5417 127.039 77.448C127.039 77.3628 127.058 77.2837 127.097 77.2111C127.137 77.1384 127.19 77.0782 127.257 77.03C127.307 76.9926 127.376 76.9612 127.463 76.9354C127.55 76.9096 127.644 76.8967 127.743 76.8967C127.893 76.8967 128.025 76.9182 128.138 76.9617C128.252 77.0051 128.336 77.0631 128.39 77.1371C128.444 77.2111 128.481 77.31 128.502 77.4334L128.185 77.4768C128.17 77.3783 128.129 77.3014 128.059 77.2459C127.991 77.1904 127.893 77.1633 127.767 77.1633C127.618 77.1633 127.511 77.1878 127.448 77.2369C127.384 77.2863 127.352 77.3439 127.352 77.4097C127.352 77.4519 127.365 77.4897 127.392 77.5232C127.419 77.5581 127.46 77.5869 127.516 77.6097C127.549 77.6217 127.644 77.6492 127.803 77.6922C128.032 77.7537 128.192 77.8036 128.283 77.8427C128.373 77.8819 128.445 77.9386 128.496 78.013C128.548 78.0874 128.574 78.1798 128.574 78.2904C128.574 78.3983 128.542 78.5002 128.479 78.5957C128.416 78.6911 128.325 78.7651 128.206 78.8175C128.087 78.87 127.953 78.8958 127.802 78.8958C127.554 78.8958 127.364 78.8442 127.234 78.741C127.104 78.6374 127.021 78.4843 126.984 78.2813Z" fill="#263238"/>
<path d="M129.666 78.5624L129.713 78.8488C129.621 78.8677 129.54 78.8776 129.468 78.8776C129.35 78.8776 129.259 78.8587 129.194 78.8217C129.129 78.7847 129.083 78.7357 129.057 78.6751C129.031 78.6144 129.018 78.4867 129.018 78.2924V77.1916H128.779V76.9392H129.018V76.4653L129.34 76.2705V76.9392H129.666V77.1916H129.34V78.3104C129.34 78.4029 129.346 78.4627 129.357 78.4889C129.368 78.5151 129.387 78.5362 129.413 78.5517C129.439 78.5671 129.475 78.5753 129.524 78.5753C129.56 78.5749 129.607 78.571 129.666 78.5624Z" fill="#263238"/>
<path d="M131.008 78.852V76.9389H131.3V77.2107C131.44 77.0004 131.643 76.8955 131.909 76.8955C132.024 76.8955 132.13 76.9161 132.226 76.9579C132.324 76.9991 132.395 77.0537 132.444 77.1208C132.492 77.1883 132.525 77.2679 132.545 77.3603C132.556 77.4205 132.563 77.5255 132.563 77.6755V78.852H132.238V77.688C132.238 77.556 132.226 77.4571 132.2 77.3917C132.175 77.3264 132.131 77.2739 132.066 77.2348C132.002 77.1956 131.927 77.1763 131.84 77.1763C131.702 77.1763 131.583 77.2202 131.483 77.3079C131.383 77.3956 131.332 77.5616 131.332 77.8067V78.8516H131.008V78.852Z" fill="#263238"/>
<path d="M134.31 78.6165C134.19 78.7184 134.074 78.7906 133.963 78.8328C133.852 78.8749 133.733 78.8956 133.606 78.8956C133.395 78.8956 133.234 78.844 133.121 78.7416C133.008 78.6389 132.951 78.5077 132.951 78.3477C132.951 78.254 132.973 78.1689 133.015 78.091C133.058 78.0136 133.113 77.9513 133.183 77.9044C133.252 77.8575 133.33 77.8223 133.416 77.7978C133.48 77.781 133.576 77.7647 133.705 77.7492C133.966 77.7178 134.159 77.6808 134.283 77.6374C134.284 77.5927 134.285 77.5647 134.285 77.5527C134.285 77.4202 134.254 77.3274 134.193 77.2732C134.11 77.2001 133.987 77.1631 133.824 77.1631C133.671 77.1631 133.559 77.1902 133.486 77.2435C133.413 77.2968 133.359 77.3914 133.325 77.5273L133.007 77.4839C133.036 77.3484 133.084 77.2388 133.15 77.1554C133.216 77.0719 133.312 77.0074 133.437 76.9623C133.561 76.9176 133.706 76.8948 133.871 76.8948C134.034 76.8948 134.167 76.9137 134.269 76.9524C134.371 76.9907 134.446 77.0393 134.494 77.0973C134.542 77.1558 134.575 77.2293 134.595 77.3179C134.605 77.3729 134.611 77.4727 134.611 77.6167V78.0493C134.611 78.3508 134.618 78.5412 134.632 78.6212C134.645 78.7012 134.673 78.7777 134.714 78.8508H134.375C134.341 78.7851 134.319 78.7064 134.31 78.6165ZM134.283 77.8924C134.165 77.9405 133.988 77.981 133.753 78.0149C133.619 78.0343 133.526 78.0558 133.47 78.0799C133.415 78.1039 133.372 78.1392 133.342 78.1852C133.312 78.2312 133.297 78.2828 133.297 78.3391C133.297 78.4256 133.33 78.4978 133.395 78.5554C133.461 78.6131 133.557 78.6419 133.683 78.6419C133.808 78.6419 133.919 78.6148 134.016 78.5602C134.113 78.5056 134.185 78.4307 134.23 78.3357C134.265 78.2626 134.282 78.1547 134.282 78.0115V77.8924H134.283Z" fill="#263238"/>
<path d="M135.111 78.852V76.9389H135.402V77.2073C135.462 77.1135 135.541 77.0383 135.641 76.9811C135.741 76.9243 135.854 76.8955 135.982 76.8955C136.124 76.8955 136.24 76.9247 136.33 76.9837C136.421 77.0426 136.485 77.1247 136.522 77.2305C136.674 77.0069 136.87 76.8955 137.113 76.8955C137.302 76.8955 137.448 76.948 137.551 77.0533C137.653 77.1582 137.704 77.3203 137.704 77.5388V78.852H137.381V77.6467C137.381 77.5169 137.371 77.4235 137.35 77.3664C137.329 77.3096 137.291 77.2636 137.235 77.2288C137.18 77.1939 137.115 77.1763 137.041 77.1763C136.906 77.1763 136.795 77.221 136.706 77.3105C136.617 77.3999 136.572 77.5431 136.572 77.74V78.8516H136.248V77.6084C136.248 77.4644 136.222 77.356 136.169 77.2842C136.116 77.2124 136.029 77.1763 135.909 77.1763C135.817 77.1763 135.733 77.2004 135.656 77.2485C135.578 77.2967 135.522 77.3668 135.487 77.4592C135.452 77.5517 135.435 77.685 135.435 77.8591V78.852H135.111Z" fill="#263238"/>
<path d="M139.496 78.2362L139.831 78.2775C139.778 78.4732 139.68 78.6254 139.537 78.7333C139.394 78.8413 139.212 78.8954 138.99 78.8954C138.71 78.8954 138.488 78.8094 138.324 78.637C138.16 78.4646 138.078 78.2229 138.078 77.9116C138.078 77.5895 138.161 77.3397 138.327 77.1621C138.493 76.9841 138.707 76.8955 138.972 76.8955C139.228 76.8955 139.436 76.9828 139.599 77.1565C139.761 77.3307 139.842 77.5758 139.842 77.8918C139.842 77.9107 139.841 77.94 139.84 77.9782H138.413C138.425 78.1885 138.484 78.3493 138.591 78.4611C138.698 78.5729 138.831 78.6288 138.991 78.6288C139.11 78.6288 139.212 78.5974 139.296 78.5351C139.38 78.4727 139.447 78.373 139.496 78.2362ZM138.432 77.7121H139.5C139.485 77.5513 139.444 77.4304 139.377 77.35C139.274 77.2253 139.14 77.1625 138.975 77.1625C138.826 77.1625 138.701 77.2124 138.6 77.3122C138.498 77.4115 138.442 77.5448 138.432 77.7121Z" fill="#263238"/>
</g>
<path d="M128.586 104.884H143.293C144.584 104.884 145.641 105.941 145.641 107.232V109.89C145.641 111.181 144.584 112.237 143.293 112.237H128.586C127.295 112.237 126.238 111.181 126.238 109.89V107.232C126.238 105.941 127.295 104.884 128.586 104.884Z" fill="#24774A"/>
<path opacity="0.2" d="M152.063 104.884H166.77C168.061 104.884 169.117 105.941 169.117 107.232V109.89C169.117 111.181 168.061 112.237 166.77 112.237H152.063C150.771 112.237 149.715 111.181 149.715 109.89V107.232C149.715 105.941 150.771 104.884 152.063 104.884Z" fill="#24774A"/>
<path d="M58.8252 37.4854C55.6492 37.0085 54.9286 39.8947 51.5879 39.7812C52.1134 41.5317 53.8561 42.2734 53.8561 42.2734C53.8561 42.2734 51.203 44.2016 51.7947 47.0808C53.8738 44.7283 56.6658 46.9613 59.7024 46.868C66.0122 46.6741 68.29 43.7509 66.1051 41.2436C68.136 38.6752 62.5869 37.2979 62.7124 35.3835C62.0773 35.6794 62.101 36.901 62.101 36.901C62.101 36.901 59.8104 37.0954 57.8349 35.491C57.7537 36.6705 58.8252 37.4854 58.8252 37.4854Z" fill="#263238"/>
<path d="M64.9102 41.1259C66.3266 41.395 67.2438 40.3334 67.2524 39.4553C68.2599 41.5787 66.7063 42.7345 64.9102 41.1259Z" fill="#263238"/>
<path d="M67.8927 170.619L64.9004 172.343L60.4941 165.695L63.4865 163.971L67.8927 170.619Z" fill="#FF8B7B"/>
<path d="M64.5425 172.09L67.9042 170.153C68.0268 170.082 68.1683 170.114 68.2448 170.228L69.9497 172.772C70.1265 173.036 70.019 173.444 69.7343 173.601C68.5522 174.256 67.9533 174.509 66.4749 175.361C65.5655 175.884 62.2807 177.642 59.8546 177.457C58.4412 177.349 58.4094 176.059 59.02 175.917C61.7587 175.283 63.6735 173.713 64.1336 172.569C64.217 172.363 64.3636 172.193 64.5425 172.09Z" fill="#263238"/>
<path opacity="0.2" d="M63.4874 163.972L60.4941 165.697L62.7667 169.123L65.7604 167.398L63.4874 163.972Z" fill="black"/>
<path d="M46.8636 86.8328C46.8636 86.8328 39.6211 115.314 38.8656 125.155C38.0383 135.931 60.9405 168.748 60.9405 168.748L66.5439 165.818C66.5439 165.818 55.9401 147.099 48.8644 125.933C52.3001 114.859 59.1406 87.7697 59.1406 87.7697L46.8636 86.8328Z" fill="#24774A"/>
<g opacity="0.3">
<path d="M46.8636 86.8328C46.8636 86.8328 39.6211 115.314 38.8656 125.155C38.0383 135.931 60.9405 168.748 60.9405 168.748L66.5439 165.818C66.5439 165.818 55.9401 147.099 48.8644 125.933C52.3001 114.859 59.1406 87.7697 59.1406 87.7697L46.8636 86.8328Z" fill="white"/>
</g>
<path opacity="0.4" d="M53.2813 98.029C50.4407 103.005 49.4814 114.9 50.2111 121.397C52.1981 114.478 54.7033 104.984 56.5575 97.8501C55.3075 96.8878 54.0837 96.622 53.2813 98.029Z" fill="#24774A"/>
<path d="M66.7416 165.8L60.7435 168.942L59.0098 166.93L66.1177 163.767L66.7416 165.8Z" fill="#24774A"/>
<path d="M63.7859 173.218C64.0624 173.059 64.335 172.826 64.5212 172.652C64.5444 172.631 64.5526 172.598 64.5423 172.568C64.5315 172.538 64.5044 172.517 64.473 172.515C64.3389 172.504 63.1559 172.417 62.8739 172.77C62.8081 172.852 62.7917 172.952 62.8261 173.06C62.8825 173.237 62.9857 173.347 63.1327 173.385C63.3198 173.433 63.5541 173.351 63.7859 173.218ZM64.2709 172.662C63.7975 173.077 63.3937 173.287 63.1736 173.23C63.0824 173.206 63.0188 173.135 62.9796 173.012C62.9616 172.954 62.968 172.91 62.9999 172.87C63.1516 172.68 63.7954 172.643 64.2709 172.662Z" fill="#24774A"/>
<path d="M64.5044 172.663C64.5151 172.657 64.5246 172.648 64.5319 172.637C64.5469 172.614 64.5487 172.585 64.5366 172.56C64.5186 172.522 64.0868 171.63 63.616 171.515C63.4891 171.484 63.3709 171.509 63.2638 171.589C63.1357 171.685 63.0892 171.811 63.1335 171.944C63.2539 172.307 64.0623 172.67 64.4631 172.674C64.4781 172.674 64.4923 172.67 64.5044 172.663ZM63.3924 171.696C63.4504 171.662 63.5111 171.654 63.5777 171.67C63.8585 171.738 64.169 172.214 64.3255 172.5C63.9381 172.432 63.3657 172.132 63.287 171.894C63.272 171.849 63.2668 171.787 63.3614 171.717C63.3713 171.709 63.3821 171.702 63.3924 171.696Z" fill="#24774A"/>
<path d="M51.9874 62.3954L48.875 67.7476C48.3663 68.6377 47.8637 69.5252 47.3932 70.3986C47.1602 70.8337 46.9452 71.271 46.7422 71.6825C46.5444 72.0841 46.366 72.5137 46.2894 72.727L46.1226 71.136C46.1647 71.3321 46.1897 71.5338 46.2275 71.7212C46.2705 71.8988 46.2912 72.0992 46.335 72.2639C46.3677 72.4411 46.4064 72.6135 46.4447 72.782L46.5006 73.0319C46.5096 73.077 46.5152 73.1149 46.5191 73.1553C46.5165 73.1725 46.5242 73.1996 46.5139 73.2151C46.4958 73.2327 46.5328 73.2572 46.4249 73.2585C47.1804 73.375 47.699 74.0819 47.5824 74.8379C47.4659 75.5934 46.759 76.112 46.0031 75.9954C45.8229 75.9834 45.7885 75.989 45.7003 75.9851L45.4858 75.9752C45.3529 75.9623 45.2217 75.946 45.0996 75.924C44.8511 75.8759 44.6206 75.811 44.3961 75.7271C43.9507 75.5598 43.5581 75.3272 43.1986 75.0675C42.8426 74.8 42.5312 74.5119 42.2539 74.1972C42.1189 74.0411 41.9942 73.8824 41.8643 73.7207C41.7448 73.5621 41.6403 73.3935 41.5289 73.2271C41.2778 72.853 41.2034 72.4118 41.2864 72.0024L41.3616 71.6361C41.5293 70.8208 41.7306 70.2614 41.9344 69.6878C42.1369 69.1249 42.3635 68.6024 42.5863 68.0856C43.0343 67.0575 43.5112 66.0736 44.0083 65.1074C44.4989 64.1386 45.0196 63.1939 45.5481 62.2569C46.0835 61.3187 46.6218 60.4062 47.2169 59.4813L47.2187 59.4787C48.0537 58.1801 49.7836 57.8043 51.0822 58.6393C52.3443 59.4499 52.7317 61.111 51.9874 62.3954Z" fill="#FF8B7B"/>
<path d="M50.2431 57.2074C53.7446 56.9438 55.4633 59.4193 53.7962 63.494C52.8799 65.7425 51.4394 68.4106 50.3842 70.2716C50.1068 70.7653 49.8514 71.2043 49.6437 71.5582L42.627 66.092C43.9901 62.8632 47.9009 57.3841 50.2431 57.2074Z" fill="#263238"/>
<path opacity="0.3" d="M49.4784 61.1936C51.8008 59.6899 48.5728 66.7518 47.2411 69.687L45.1797 68.0801C45.7352 65.9885 47.6952 62.3486 49.4784 61.1936Z" fill="black"/>
<path d="M59.2927 175.499L55.8574 175.237L55.9555 167.242L59.3907 167.504L59.2927 175.499Z" fill="#FF8B7B"/>
<path d="M55.7043 174.825L59.564 175.12C59.7046 175.13 59.8035 175.236 59.8027 175.374L59.7807 178.444C59.7786 178.762 59.4608 179.039 59.1375 179.009C57.7954 178.883 57.159 178.755 55.4618 178.626C54.4178 178.546 49.9707 178.316 48.5289 178.206C47.1185 178.098 47.2256 176.672 47.8457 176.59C50.6256 176.22 54.0764 175.68 55.0985 174.991C55.2825 174.867 55.4988 174.809 55.7043 174.825Z" fill="#263238"/>
<path opacity="0.2" d="M59.3899 167.507L55.9533 167.244L55.9043 171.365L59.3409 171.628L59.3899 167.507Z" fill="black"/>
<path d="M53.5754 87.345C53.5754 87.345 51.4654 113.414 51.3493 123.298C51.222 134.122 54.5008 170.262 54.5008 170.262L60.793 170.743C60.793 170.743 60.3226 135.692 61.4315 125.05C62.6351 113.5 65.2413 88.2355 65.2413 88.2355L53.5754 87.345Z" fill="#24774A"/>
<path opacity="0.3" d="M53.5754 87.345C53.5754 87.345 51.4654 113.414 51.3493 123.298C51.222 134.122 54.5008 170.262 54.5008 170.262L60.793 170.743C60.793 170.743 60.3226 135.692 61.4315 125.05C62.6351 113.5 65.2413 88.2355 65.2413 88.2355L53.5754 87.345Z" fill="white"/>
<path d="M61.0461 170.762L54.2469 170.243L54.0332 167.825L61.5118 168.771L61.0461 170.762Z" fill="#24774A"/>
<path d="M54.4459 175.33C54.7633 175.355 55.1189 175.316 55.3696 175.278C55.401 175.273 55.4263 175.25 55.4341 175.22C55.4423 175.189 55.4315 175.156 55.407 175.136C55.3025 175.051 54.3754 174.312 53.9446 174.445C53.8448 174.475 53.7747 174.549 53.7425 174.657C53.6891 174.836 53.7132 174.985 53.813 175.1C53.9407 175.245 54.1798 175.31 54.4459 175.33ZM55.1576 175.145C54.5345 175.22 54.0835 175.167 53.9338 174.995C53.8719 174.924 53.8599 174.829 53.8964 174.704C53.9136 174.647 53.9441 174.613 53.9927 174.598C54.2249 174.527 54.7766 174.86 55.1576 175.145Z" fill="#24774A"/>
<path d="M55.3512 175.278C55.3637 175.279 55.3766 175.277 55.3886 175.272C55.414 175.261 55.4321 175.238 55.4359 175.211C55.442 175.169 55.5869 174.187 55.2631 173.826C55.1758 173.729 55.064 173.683 54.9315 173.688C54.772 173.695 54.6628 173.774 54.6245 173.909C54.5196 174.278 54.9827 175.034 55.3112 175.264C55.3233 175.273 55.337 175.277 55.3512 175.278ZM54.9771 173.849C55.0438 173.854 55.0988 173.882 55.1444 173.933C55.3379 174.148 55.3271 174.716 55.2953 175.042C55.0141 174.766 54.7101 174.195 54.7789 173.953C54.7918 173.907 54.8223 173.854 54.9397 173.848C54.9526 173.848 54.9651 173.848 54.9771 173.849Z" fill="#24774A"/>
<path d="M46.8665 86.8326L65.24 88.2353C65.4821 86.6038 65.4674 81.2331 66.2152 74.4529C66.7179 69.9001 67.5663 64.7121 69.0665 59.5973C69.1753 59.2326 69.2837 58.8727 69.3972 58.5085C69.3972 58.5085 68.4787 58.2471 67.1578 57.9508C66.0613 57.704 64.6827 57.4309 63.3248 57.2619C60.9877 56.9717 57.5963 56.638 55.5168 56.666C54.3089 56.6857 53.123 56.7958 52.1744 56.905C50.9623 57.0551 50.2437 57.2073 50.2437 57.2073C50.2437 57.2073 46.234 67.0414 46.8665 86.8326Z" fill="#24774A"/>
<path d="M47.6816 72.8732C47.6816 72.8732 48.3937 71.8464 49.0439 71.535C49.5074 71.3132 49.8609 71.0904 50.0699 70.9472C50.2148 70.8479 50.41 70.9507 50.4207 71.127C50.4367 71.397 50.2939 71.8287 49.5844 72.4191C49.4704 73.2649 48.1521 74.1017 48.1521 74.1017L47.6816 72.8732Z" fill="#FF8B7B"/>
<path opacity="0.3" d="M50.3285 75.1383L54.146 75.4299L52.0777 67.698L48.2598 67.4065L50.3285 75.1383Z" fill="black"/>
<path d="M50.0683 75.1186L53.8863 75.4101L51.818 67.6783L48 67.3867L50.0683 75.1186Z" fill="white"/>
<path opacity="0.3" d="M66.2141 74.4547C66.7168 69.9019 67.5652 64.7139 69.0659 59.5991C67.8451 59.3987 65.7377 59.3587 65.2543 61.317C64.7332 63.4209 64.8626 68.4739 66.2141 74.4547Z" fill="black"/>
<path d="M70.6898 61.1947C70.8825 61.7941 71.0355 62.3149 71.183 62.8756C71.3344 63.4264 71.4638 63.9811 71.5907 64.5371C71.8349 65.6517 72.0581 66.7731 72.2133 67.9195C72.3728 69.0663 72.4975 70.2243 72.5371 71.4188C72.5805 72.6155 72.5496 73.8393 72.3767 75.1246L72.3582 75.263C72.286 75.8009 72.0357 76.2727 71.6767 76.6257C71.3812 76.9159 71.0962 77.1094 70.833 77.2634C70.581 77.4031 70.3342 77.5166 70.1196 77.5945C69.6793 77.76 69.2962 77.8486 68.935 77.9127C68.2169 78.0374 67.5818 78.0726 66.9617 78.0885C65.7302 78.1148 64.5799 78.0103 63.4443 77.8856C62.3113 77.7471 61.2014 77.5665 60.1032 77.3446C59.0016 77.1185 57.9278 76.8721 56.8309 76.5487C56.0905 76.3303 55.6669 75.5528 55.8858 74.8124C56.0638 74.2095 56.612 73.8169 57.2093 73.8096H57.236L60.4421 73.7739C61.5085 73.7576 62.568 73.7361 63.6077 73.6828C64.6444 73.6398 65.6721 73.5529 66.61 73.4205C67.0735 73.3521 67.5216 73.2627 67.8651 73.1513C68.0337 73.0958 68.176 73.036 68.2388 72.9961C68.2779 72.9758 68.2728 72.9634 68.2569 72.9694C68.2242 72.9801 68.1597 73.0115 68.0565 73.1096L67.356 74.6107C67.384 73.7283 67.3152 72.7716 67.2163 71.7985C67.1049 70.8224 66.9338 69.8235 66.7506 68.8225C66.5554 67.8214 66.3374 66.8118 66.0966 65.8065C65.9817 65.3025 65.8506 64.8007 65.7263 64.2997L65.3458 62.8373L65.3238 62.7535C64.9351 61.2596 65.8312 59.734 67.3246 59.3453C68.7656 58.9707 70.2375 59.7972 70.6898 61.1947Z" fill="#FF8B7B"/>
<path d="M69.3963 58.5086C66.0341 57.4547 64.0235 59.6055 64.5833 63.9885C64.8891 66.406 65.7456 69.3115 66.3816 71.366L73.7913 69.0866C73.1446 65.6281 71.6452 59.2142 69.3963 58.5086Z" fill="#263238"/>
<path d="M55.888 56.6663C58.1954 56.3021 58.6899 54.9274 58.6426 53.3717C58.6357 52.9937 58.5974 52.599 58.5406 52.2077L61.5476 50.0603L63.7561 48.4856C63.0045 50.9594 62.0374 55.495 63.6237 57.3032C63.6237 57.3032 60.5457 59.5736 56.8004 61.036C56.2088 61.2669 55.5238 60.9595 55.3367 60.3523C54.6199 58.0239 55.888 56.6663 55.888 56.6663Z" fill="#FF8B7B"/>
<path opacity="0.2" d="M58.541 52.2077C58.5982 52.599 58.6365 52.9933 58.6429 53.3717C59.7188 53.2393 61.3872 52.4158 61.6233 51.2299C61.7041 50.8257 61.5562 50.3454 61.5476 50.0603L58.541 52.2077Z" fill="black"/>
<path d="M63.9351 43.3948C64.0967 46.8228 64.3642 48.8167 62.8484 50.7942C60.5686 53.769 56.232 52.78 55.0581 49.4965C54.0016 46.5407 53.9143 41.4314 57.0723 39.6276C60.1833 37.8504 63.7729 39.9668 63.9351 43.3948Z" fill="#FF8B7B"/>
<path d="M62.5001 41.3147C61.5313 43.0661 62.2684 44.3488 62.2684 44.3488L62.4477 43.5245C62.4477 43.5245 63.6693 44.8218 63.3227 46.31C65.4491 45.1714 65.6899 40.7424 62.5001 41.3147Z" fill="#263238"/>
<path d="M64.2868 41.8394C60.4155 42.6895 58.2376 42.3008 57.55 42.1511C59.1702 42.0419 59.5959 41.3066 59.5959 41.3066C59.5959 41.3066 55.7337 42.2548 54.9395 41.9516C55.719 39.5926 57.5302 38.5078 61.1899 38.6509C64.8492 38.7946 64.2868 41.8394 64.2868 41.8394Z" fill="#263238"/>
<path d="M65.5835 46.5877C65.1909 47.4353 64.5046 48.0536 63.8575 48.3464C62.884 48.7863 62.4015 47.8979 62.6759 46.8474C62.9227 45.9019 63.7268 44.5336 64.702 44.5383C65.6626 44.5431 66.032 45.6185 65.5835 46.5877Z" fill="#FF8B7B"/>
<path d="M58.9169 45.0433C58.947 45.3202 58.8257 45.5645 58.646 45.589C58.4663 45.6135 58.2964 45.4088 58.2663 45.1319C58.2362 44.855 58.3575 44.6107 58.5372 44.5862C58.7169 44.5617 58.8868 44.7664 58.9169 45.0433Z" fill="#263238"/>
<path d="M55.8095 45.4671C55.8396 45.744 55.7183 45.9882 55.5386 46.0127C55.3588 46.0373 55.189 45.8326 55.1589 45.5557C55.1288 45.2787 55.25 45.0345 55.4298 45.01C55.6095 44.9859 55.7794 45.1902 55.8095 45.4671Z" fill="#263238"/>
<path d="M56.8119 45.47C56.8119 45.47 56.36 47.1521 55.7559 48.0164C56.2916 48.4073 57.0962 48.0857 57.0962 48.0857L56.8119 45.47Z" fill="#FF5652"/>
<path d="M58.299 48.6783C59.3559 48.4036 59.7709 47.5887 59.7894 47.5509C59.8092 47.5109 59.7928 47.4614 59.7524 47.4412C59.712 47.4206 59.6634 47.4374 59.6432 47.4774C59.6385 47.4864 59.1676 48.4148 57.9584 48.5786C57.9133 48.5846 57.8828 48.6259 57.8896 48.6706C57.8961 48.7153 57.9374 48.7467 57.9821 48.7403C58.0935 48.7256 58.1992 48.7046 58.299 48.6783Z" fill="#263238"/>
<path d="M59.768 43.9024C59.7938 43.8956 59.8183 43.8827 59.839 43.8629C59.9035 43.8005 59.9056 43.6973 59.8428 43.632C59.2232 42.9852 58.4819 43.131 58.4509 43.1379C58.3662 43.1469 58.3069 43.2424 58.3258 43.331C58.3447 43.4191 58.4316 43.4759 58.5193 43.4578C58.5503 43.4518 59.1213 43.349 59.6081 43.8573C59.6511 43.9016 59.7125 43.9166 59.768 43.9024Z" fill="#263238"/>
<path d="M54.3576 44.5733C54.4079 44.56 54.4509 44.523 54.4694 44.4705C54.7145 43.7714 55.298 43.6084 55.3036 43.6071C55.3904 43.5839 55.4416 43.4944 55.418 43.4076C55.3943 43.3207 55.3053 43.2687 55.2184 43.2915L55.2176 43.2919C55.1866 43.3001 54.4625 43.5022 54.1615 44.3605C54.1318 44.4452 54.1766 44.5389 54.2617 44.5695C54.2939 44.5802 54.3271 44.5811 54.3576 44.5733Z" fill="#263238"/>
<path d="M57.9609 74.1192L54.4336 71.9404L54.7578 76.2765C54.7578 76.2765 57.7115 77.3352 58.1183 75.7691L57.9609 74.1192Z" fill="#FF8B7B"/>
<path d="M55.5554 72.6317C55.5554 72.6317 54.824 71.6074 54.1682 71.2978C53.7008 71.0772 53.2566 70.6812 53.0451 70.5389C52.898 70.44 52.705 70.5436 52.6976 70.7199C52.6865 70.9899 52.9234 71.5958 53.6441 72.1836C53.7739 73.029 55.1078 73.8619 55.1078 73.8619L55.5554 72.6317Z" fill="#FF8B7B"/>
<path d="M51.3847 72.3058L51.6965 75.0195C51.7236 75.2534 51.8887 75.4486 52.1149 75.514L54.7589 76.2764L54.4321 71.9781L52.028 71.6702C51.6573 71.6221 51.3422 71.9338 51.3847 72.3058Z" fill="#FF8B7B"/>
<path d="M45.9934 73.5603L49.0494 72.0144L48.9737 75.835C48.9737 75.835 45.8025 76.7805 45.6133 75.1693L45.9934 73.5603Z" fill="#FF8B7B"/>
<path d="M50.3889 72.1586L50.3893 75.1755C50.3893 75.3457 50.2754 75.4937 50.1115 75.5367L48.9746 75.8351L49.0503 72.0145L49.9167 71.7914C50.1554 71.7299 50.3889 71.9113 50.3889 72.1586Z" fill="#FF8B7B"/>
<path d="M143.262 125.09C146.147 127.963 145.729 130.879 143.673 132.944C141.618 135.009 138.703 135.44 135.817 132.566C132.932 129.693 131.168 124.604 133.224 122.54C135.279 120.475 140.376 122.217 143.262 125.09Z" fill="#24774A"/>
<path d="M153.474 143.939C149.907 144.568 147.758 142.881 147.011 140.463C146.263 138.046 147.2 135.814 150.767 135.185C154.334 134.555 159.18 135.767 159.927 138.185C160.675 140.602 157.041 143.31 153.474 143.939Z" fill="#24774A"/>
<path d="M134.647 149.583C137.218 150.433 138.989 149.416 139.802 147.708C140.616 146 140.163 144.248 137.592 143.398C135.022 142.549 131.307 142.924 130.493 144.631C129.68 146.339 132.077 148.733 134.647 149.583Z" fill="#24774A"/>
<path d="M155.47 124.925C153 128.305 149.951 128.585 147.509 127.124C145.066 125.664 144.154 123.018 146.625 119.638C149.095 116.258 154.011 113.423 156.454 114.883C158.896 116.343 157.941 121.545 155.47 124.925Z" fill="#24774A"/>
<path d="M141.081 169.25C140.854 169.25 140.664 169.072 140.652 168.843C139.329 143.363 148.982 123.568 149.079 123.371C149.185 123.159 149.443 123.071 149.656 123.178C149.868 123.283 149.955 123.541 149.85 123.754C149.753 123.948 140.2 143.553 141.511 168.798C141.523 169.036 141.341 169.237 141.103 169.25C141.096 169.25 141.088 169.25 141.081 169.25Z" fill="#263238"/>
<path d="M144.652 137.447C144.638 137.447 144.624 137.447 144.61 137.445C144.374 137.423 144.2 137.213 144.223 136.977C144.228 136.921 144.702 131.37 140.897 129.549C140.683 129.447 140.592 129.19 140.695 128.976C140.797 128.761 141.055 128.672 141.268 128.773C145.618 130.855 145.103 136.806 145.079 137.058C145.058 137.281 144.87 137.447 144.652 137.447Z" fill="#263238"/>
<path d="M141.535 153.801C141.314 153.801 141.126 153.63 141.107 153.406C141.102 153.353 140.61 148.07 135.976 146.601C135.75 146.529 135.624 146.288 135.696 146.061C135.768 145.834 136.01 145.709 136.236 145.781C141.427 147.427 141.959 153.278 141.963 153.336C141.982 153.573 141.806 153.78 141.57 153.799C141.559 153.8 141.547 153.801 141.535 153.801Z" fill="#263238"/>
<path d="M142.464 147.224C142.429 147.224 142.395 147.221 142.361 147.212C142.13 147.155 141.989 146.922 142.046 146.692C144.059 138.526 150.407 138.72 150.472 138.721C150.71 138.732 150.893 138.933 150.883 139.17C150.872 139.408 150.67 139.594 150.434 139.58C150.203 139.573 144.719 139.438 142.881 146.898C142.832 147.093 142.657 147.224 142.464 147.224Z" fill="#263238"/>
<path d="M158.951 165.505C158.951 170.784 156.537 175.506 152.741 178.645C152.47 178.869 152.153 178.98 151.833 178.98H131.429C131.109 178.98 130.792 178.869 130.521 178.645C126.725 175.506 124.311 170.784 124.311 165.505C124.311 163.832 124.552 162.214 125.006 160.688C125.008 160.683 125.009 160.678 125.011 160.673C125.268 159.808 125.912 159.254 126.613 159.254H156.649C157.35 159.254 157.995 159.808 158.251 160.673C158.253 160.678 158.254 160.683 158.256 160.688C158.71 162.214 158.951 163.832 158.951 165.505Z" fill="#24774A"/>
<path d="M158.899 166.759C149.028 169.966 139.29 173.746 129.838 178.051C129.956 178.159 130.079 178.262 130.2 178.367C139.525 174.128 149.126 170.397 158.858 167.228C158.874 167.072 158.887 166.916 158.899 166.759Z" fill="white"/>
<path d="M152.716 159.254H151.97C144.023 164.874 136.295 170.938 128.764 176.964C128.86 177.069 128.956 177.176 129.056 177.279C136.731 171.139 144.613 164.96 152.716 159.254Z" fill="white"/>
<path d="M147.878 178.981C151.447 176.056 154.948 173.031 158.36 169.93C158.427 169.682 158.49 169.432 158.546 169.179C154.862 172.544 151.071 175.822 147.201 178.981H147.878Z" fill="white"/>
<path d="M147.899 159.254C139.786 161.915 132.176 166.12 125.08 170.557C125.124 170.698 125.168 170.84 125.216 170.98C132.691 166.3 140.735 161.876 149.325 159.254H147.899Z" fill="white"/>
<path d="M124.57 162.584C126.86 161.375 129.203 160.266 131.587 159.255H130.512C128.533 160.12 126.582 161.047 124.668 162.048C124.631 162.225 124.602 162.405 124.57 162.584Z" fill="white"/>
<path d="M135.252 159.254H134.619L124.582 168.534C124.612 168.699 124.647 168.863 124.682 169.027L135.252 159.254Z" fill="white"/>
</g>
<defs>
<clipPath id="clip0_490_119">
<rect width="215" height="215" fill="white"/>
</clipPath>
</defs>
</svg>
