<svg width="32" height="32" viewBox="0 0 32 32" fill="none" xmlns="http://www.w3.org/2000/svg">
<g clip-path="url(#clip0_1456_395)">
<rect width="32" height="32" rx="5" fill="white"/>
<path d="M32 28.0477V32H21.7988L22.5001 32C22.4895 31.9941 22.6428 32.1102 22.5001 32C22.4239 31.9404 21.9054 31.5902 21.7988 31.506C21.6886 31.4349 20.9182 30.8792 20.9182 30.8792C20.9182 30.8792 20.5762 30.217 20.4589 29.9354C20.4052 29.7844 20.0596 29.1425 19.9995 28.9915L19 28.0477H32Z" fill="#24774A"/>
<path d="M11 31.0001C10.8002 31.1113 12.5 31.5001 12.5 31.5001L15 32.0001H14H11.8541H5.66937H4.12318H2.57699H1.54619H0.515398H0V28.0001H13.2927L12.6748 28.963C12.6748 28.963 12.2119 29.8259 12.1873 29.926C12.0749 30.2825 11.1219 30.6843 11 31.0001C11.1353 30.7609 10.8575 31.2801 11 31.0001C11.1314 30.8281 10.8615 31.2347 11 31.0001Z" fill="#24774A"/>
<path d="M19.6465 25.0999C19.6465 25.0999 19.6624 24.4994 19.9609 23.6648C20.1039 23.2467 20.3185 22.7726 20.6063 22.2969C20.8917 21.8176 21.2613 21.3459 21.6837 20.9211C22.1163 20.5106 22.5857 20.1254 23.0914 19.877C23.3281 19.7288 23.582 19.6315 23.8238 19.5483C24.0601 19.4507 24.2905 19.3829 24.5108 19.3509C24.9413 19.2462 25.3069 19.2373 25.5624 19.2484C25.8169 19.2527 25.9589 19.2639 25.9589 19.2639C25.9589 19.2639 25.8261 19.3239 25.5956 19.4286C25.3637 19.5181 25.0438 19.6545 24.6812 19.8498C24.4944 19.9326 24.3067 20.0482 24.1103 20.1713C23.9085 20.286 23.7055 20.4174 23.5055 20.5696C23.2949 20.7043 23.0993 20.873 22.8991 21.0427C22.689 21.2001 22.503 21.3927 22.3134 21.5809C21.9233 21.9471 21.5775 22.3637 21.2562 22.7615C20.9399 23.163 20.6594 23.5568 20.4221 23.9031C19.9507 24.5978 19.6465 25.0999 19.6465 25.0999Z" fill="#24774A"/>
<path d="M9.47656 10.1031C9.47656 10.1031 9.70608 10.1624 10.0858 10.3354C10.4542 10.5234 10.9969 10.7884 11.5721 11.2274C11.8567 11.4472 12.1681 11.6904 12.4631 11.983C12.7621 12.2718 13.0763 12.581 13.3545 12.9426C13.9534 13.6339 14.4547 14.4765 14.9093 15.3385C15.0988 15.7885 15.3103 16.2287 15.471 16.6799C15.6246 17.1335 15.7695 17.5835 15.8822 18.0231C15.9861 18.467 16.0668 18.8996 16.1456 19.3064C16.21 19.7172 16.2362 20.1106 16.2694 20.4702C16.3604 21.1865 16.2791 21.7961 16.2894 22.2122C16.2752 22.6313 16.2526 22.869 16.2526 22.869C16.2526 22.869 16.1865 22.6352 16.0956 22.229C16.002 21.8233 15.9032 21.2411 15.7055 20.565C15.6179 20.2267 15.5226 19.8603 15.4225 19.4726C15.2976 19.0931 15.1645 18.6953 15.0439 18.28C14.913 17.8679 14.7205 17.4644 14.5774 17.0366C14.4158 16.615 14.2039 16.2098 14.0204 15.7918C13.8099 15.388 13.6059 14.9794 13.3761 14.5946C13.1287 14.2227 12.9283 13.8249 12.6658 13.4883C12.1882 12.7768 11.6595 12.1773 11.1969 11.6633C10.724 11.1626 10.3016 10.76 9.98515 10.5023C9.66886 10.2438 9.47656 10.1031 9.47656 10.1031Z" fill="#24774A"/>
<path d="M17.9688 12.194C17.9688 13.1226 17.2297 13.8752 16.3194 13.8752C15.406 13.8752 14.668 13.1226 14.668 12.194C14.668 11.2656 15.406 10.5131 16.3194 10.5131C17.2297 10.5131 17.9688 11.2656 17.9688 12.194Z" fill="#24774A"/>
<path d="M23 32C22.9722 31.9924 23.4816 32.0506 23.1077 31.9075C22.9078 31.8301 22.6671 31.7341 22.3877 31.6247C22.0989 31.5324 21.8101 31.3534 21.4936 31.1574C21.1844 30.952 20.8013 30.7861 20.4883 30.4845C20.1718 30.1905 19.7942 29.9154 19.4868 29.5497C19.3462 29.3537 19.1814 29.1672 19.024 28.9712C18.8686 28.779 18.7205 28.5791 18.6094 28.3512C18.3725 27.9007 18.106 27.4521 17.9615 26.9509C17.7728 26.4628 17.682 25.9539 17.5969 25.4507C17.5081 24.9513 17.5209 24.4461 17.5117 23.9693C17.5506 23.0101 17.719 22.1338 17.9431 21.4157C18.378 20.0192 18.9372 19.2126 18.9724 19.1635C18.9648 19.1918 18.8983 19.4273 18.8075 19.8174C18.6964 20.2283 18.6002 20.8314 18.4964 21.542C18.4595 21.9001 18.4095 22.2826 18.3947 22.6916C18.3559 23.0968 18.3892 23.5246 18.3874 23.9618C18.4188 24.3973 18.4595 24.8495 18.5428 25.2924C18.6316 25.739 18.7205 26.1894 18.9 26.6135C18.9334 26.7473 18.9778 26.8754 19.0297 26.9999C19.1482 27.2975 19.3018 27.5785 19.4425 27.8611C19.6349 28.2682 19.9293 28.6074 20.1571 28.9749C20.4162 29.318 20.7216 29.6101 20.9808 29.9172C21.2381 30.2263 21.5657 30.4337 21.8195 30.6805C22.0915 30.9105 22.3247 31.1479 22.5746 31.2986C22.8152 31.4665 23.0245 31.6116 23.1967 31.7322C23.5206 31.962 22.9759 31.9829 23 32Z" fill="#24774A"/>
<path d="M23.0416 10.1031C23.0416 10.1031 22.8498 10.2438 22.5328 10.5023C22.2153 10.76 21.7937 11.162 21.32 11.6633C20.858 12.1773 20.3292 12.7761 19.8524 13.4883C19.5892 13.8241 19.3889 14.2227 19.1408 14.5941C18.9109 14.9788 18.7071 15.388 18.4964 15.7913C18.3128 16.2098 18.1002 16.615 17.9394 17.0366C17.7964 17.4644 17.6045 17.8679 17.4723 18.28C17.3531 18.6947 17.219 19.0923 17.0942 19.4726C16.9937 19.8603 16.8985 20.2266 16.8105 20.565C16.6133 21.2411 16.5143 21.8233 16.4203 22.229C16.3293 22.6352 16.2636 22.869 16.2636 22.869C16.2636 22.869 16.2409 22.6313 16.2268 22.2122C16.2368 21.7961 16.1556 21.1865 16.2472 20.4701C16.2805 20.1106 16.3067 19.7172 16.3697 19.3064C16.4485 18.899 16.5311 18.4664 16.6334 18.0229C16.7466 17.583 16.8918 17.1333 17.045 16.6795C17.206 16.2281 17.4183 15.7879 17.6074 15.3378C18.0624 14.476 18.5639 13.6336 19.1623 12.9423C19.4414 12.581 19.7556 12.2713 20.0551 11.9824C20.3497 11.6901 20.6606 11.4472 20.9462 11.227C21.5215 10.7884 22.0644 10.5234 22.4325 10.3354C22.8125 10.1624 23.0416 10.1031 23.0416 10.1031Z" fill="#24774A"/>
<path d="M12.8663 25.0999C12.8663 25.0999 12.5603 24.5978 12.09 23.9035C11.8512 23.5568 11.5707 23.1636 11.2546 22.7615C10.9334 22.3639 10.5881 21.9471 10.1986 21.5809C10.0079 21.3927 9.82209 21.2004 9.61212 21.0435C9.41171 20.8737 9.21585 20.7048 9.00566 20.5699C8.80514 20.4182 8.60284 20.286 8.40165 20.1713C8.2048 20.0482 8.01683 19.9326 7.83019 19.8498C7.46681 19.6545 7.14752 19.5181 6.91467 19.4286C6.68527 19.3239 6.55273 19.2639 6.55273 19.2639C6.55273 19.2639 6.69404 19.2527 6.94889 19.2484C7.20429 19.2373 7.57079 19.2467 7.99916 19.3509C8.22102 19.3829 8.45142 19.4506 8.68649 19.5483C8.92868 19.6315 9.18275 19.7288 9.42049 19.8778C9.92551 20.1258 10.3943 20.5115 10.8276 20.9214C11.25 21.3459 11.6197 21.8176 11.9045 22.2969C12.1933 22.7726 12.4063 23.2467 12.5509 23.6648C12.8503 24.4994 12.8663 25.0999 12.8663 25.0999Z" fill="#24774A"/>
<path d="M15.0325 23.9467C14.9992 24.4236 15.038 24.9287 14.9141 25.4262C14.8659 25.675 14.8289 25.9295 14.766 26.1783L14.5234 26.9151C14.4179 27.2845 14.2235 27.6123 14.0402 27.9422C13.9754 28.0591 13.9107 28.1778 13.8532 28.2984C13.5904 28.7281 13.2553 29.0994 12.9703 29.48C12.6371 29.8175 12.2909 30.1209 11.9744 30.4092C11.6505 30.6919 11.2894 30.886 10.9822 31.0933C10.81 31.2121 10.6415 31.3176 10.4768 31.4044C10.3509 31.474 10.2251 31.5325 10.1029 31.5777C9.8289 31.6965 9.59005 31.8001 9.39386 31.8867C9.03292 32.0375 9.03144 31.9888 9 32.0001C9.02588 31.9756 8.99026 31.9508 9.30132 31.7133C9.46974 31.5871 9.67337 31.4326 9.90667 31.2573C10.1491 31.0952 10.386 30.8653 10.6471 30.624C10.9007 30.3752 11.2042 30.1417 11.4783 29.8476C11.7411 29.548 12.0169 29.2313 12.3021 28.9034C12.539 28.5397 12.7963 28.176 13.0314 27.7933C13.148 27.5238 13.3053 27.2694 13.4312 26.9999C13.4979 26.8585 13.5553 26.7116 13.5942 26.557L13.8256 25.9125C13.8866 25.6939 13.9218 25.4677 13.9718 25.2472C14.0884 24.8099 14.0995 24.3596 14.1588 23.928C14.1495 23.4944 14.2032 23.0686 14.1588 22.6653C14.1384 22.26 14.1032 21.8774 14.0513 21.5232C13.9514 20.8165 13.8422 20.2172 13.7219 19.81C13.6256 19.4237 13.5515 19.1918 13.5441 19.1635C13.5608 19.1862 13.7089 19.3785 13.9015 19.7347C14.1013 20.1172 14.3883 20.6732 14.6067 21.3931C14.7215 21.7512 14.8289 22.1489 14.8936 22.5787C14.9899 23.0045 14.9992 23.4681 15.0325 23.9467Z" fill="#24774A"/>
<path d="M21.2152 8.47778C21.608 7.58959 21.3297 6.89583 21.2536 6.243C21.2111 5.88017 21.2312 5.53012 21.4636 5.16628C21.2205 5.52266 20.9096 5.67376 20.5637 5.7708C19.9411 5.94543 19.2049 5.94487 18.5454 6.6504C17.363 7.91544 17.9449 8.82093 18.3257 9.2022L18.3065 9.18897L18.9727 9.64047L18.9987 9.65777C19.4893 9.87301 20.5109 10.07 21.2152 8.47778Z" fill="#669752"/>
<path d="M17.8529 4.95363C17.7072 3.97994 17.0966 3.54665 16.6796 3.03509C16.4477 2.75075 16.2757 2.44232 16.2768 2.00348C16.2627 2.44198 16.0803 2.74419 15.8389 3.01993C15.4047 3.51645 14.7794 3.9278 14.6002 4.89561C14.2791 6.63094 15.2616 7.07429 15.7907 7.18491L15.7673 7.18457L16.5765 7.1952L16.6079 7.19531C17.1406 7.10359 18.1142 6.69947 17.8529 4.95363Z" fill="#31B04D"/>
<path d="M26.2153 11.3467C27.1404 10.9835 27.4318 10.2657 27.8427 9.72806C28.0711 9.42924 28.3365 9.18607 28.768 9.09039C28.3338 9.17273 27.9966 9.0534 27.6722 8.86826C27.0884 8.53517 26.5462 7.98878 25.5552 8.01965C23.7785 8.07496 23.5594 9.17386 23.5673 9.73733L23.5625 9.71336L23.7305 10.5402L23.7371 10.5724C23.9448 11.0948 24.5567 11.9978 26.2153 11.3467Z" fill="#97D04B"/>
<path d="M23.3414 15.0524C23.9462 14.7136 24.0811 14.1907 24.3153 13.7806C24.4454 13.5527 24.606 13.3596 24.8949 13.2525C24.603 13.3507 24.3593 13.3004 24.1185 13.2036C23.6851 13.0296 23.2609 12.7043 22.5801 12.8201C21.3593 13.0276 21.3092 13.8066 21.3665 14.1946L21.3611 14.1786L21.5529 14.733L21.5606 14.7545C21.7519 15.0951 22.257 15.6597 23.3414 15.0524Z" fill="#42967E"/>
<path d="M22.7977 18.6671C23.4231 18.166 23.4799 17.5454 23.6704 17.0341C23.7762 16.7498 23.9234 16.4995 24.2323 16.3223C23.9183 16.4899 23.6319 16.4795 23.3402 16.4155C22.8151 16.3005 22.2723 16.0119 21.5194 16.2738C20.1694 16.7436 20.2563 17.6392 20.393 18.0695L20.3838 18.0523L20.7045 18.6462L20.7172 18.6692C20.9977 19.02 21.6766 19.5654 22.7977 18.6671Z" fill="#328645"/>
<path d="M28.2544 20.4486C29.0446 20.3497 29.4092 19.8485 29.8322 19.5112C30.0675 19.3239 30.3208 19.1872 30.6752 19.1985C30.3214 19.1762 30.0815 19.0163 29.8643 18.8077C29.4735 18.4322 29.156 17.8991 28.3782 17.7261C26.9837 17.4161 26.6023 18.2285 26.5004 18.669L26.5013 18.6493L26.4735 19.3268L26.4727 19.3531C26.5343 19.8013 26.8377 20.6262 28.2544 20.4486Z" fill="#31B04D"/>
<path d="M25.2676 23.3712C25.9092 23.5769 26.3621 23.3216 26.8036 23.2134C27.049 23.1532 27.2908 23.1384 27.5594 23.2737C27.2949 23.1303 27.1656 22.9217 27.0704 22.6838C26.8991 22.2557 26.8385 21.7322 26.3 21.3218C25.3343 20.5858 24.7613 21.0743 24.5314 21.3767L24.5388 21.3619L24.2842 21.873L24.2745 21.8929C24.1676 22.2596 24.117 23.0021 25.2676 23.3712Z" fill="#97D04B"/>
<path d="M6.20894 11.3467C5.28387 10.9835 4.99259 10.2657 4.58165 9.72806C4.35325 9.42924 4.08785 9.18607 3.65625 9.09039C4.0904 9.17273 4.42768 9.0534 4.75207 8.86826C5.33586 8.53517 5.878 7.98878 6.86906 8.01965C8.64576 8.07496 8.86495 9.17386 8.85695 9.73733L8.86173 9.71336L8.69387 10.5402L8.68709 10.5724C8.47946 11.0948 7.86756 11.9978 6.20894 11.3467Z" fill="#669752"/>
<path d="M9.0559 15.053C8.45922 14.6997 8.33646 14.1737 8.11205 13.758C7.98741 13.5269 7.83132 13.33 7.54492 13.2159C7.83443 13.3212 8.07928 13.277 8.32224 13.1861C8.75961 13.0224 9.19132 12.7076 9.86921 12.8397C11.0847 13.0768 11.1166 13.8567 11.0502 14.2433L11.0561 14.2274L10.8514 14.7771L10.8432 14.7983C10.6441 15.1342 10.1257 15.6864 9.0559 15.053Z" fill="#98C446"/>
<path d="M9.61814 18.6671C8.99279 18.166 8.9358 17.5454 8.74539 17.0341C8.63952 16.7498 8.49243 16.4995 8.18359 16.3223C8.49754 16.4899 8.78394 16.4795 9.07567 16.4155C9.60081 16.3005 10.1435 16.0119 10.8965 16.2738C12.2465 16.7436 12.1596 17.6392 12.0227 18.0695L12.032 18.0523L11.7112 18.6462L11.6987 18.6692C11.4182 19.02 10.7392 19.5654 9.61814 18.6671Z" fill="#31B04D"/>
<path d="M3.50912 16.0693C2.65037 15.8699 2.30443 15.2767 1.87583 14.8573C1.63765 14.6241 1.37391 14.4447 0.982422 14.4165C1.37447 14.4326 1.65609 14.284 1.91816 14.0791C2.38975 13.7106 2.79812 13.1598 3.6732 13.0585C5.24228 12.8766 5.57245 13.8145 5.63599 14.3109L5.63721 14.2892L5.59311 15.038L5.59111 15.0671C5.47391 15.5534 5.04887 16.4267 3.50912 16.0693Z" fill="#669752"/>
<path d="M27.671 16.0693C28.5297 15.8699 28.8758 15.2767 29.3044 14.8573C29.5425 14.6241 29.8063 14.4447 30.1977 14.4165C29.8057 14.4326 29.5241 14.284 29.2619 14.0791C28.7903 13.7106 28.3821 13.1598 27.5069 13.0585C25.9378 12.8766 25.6077 13.8145 25.5441 14.3109L25.543 14.2892L25.5871 15.038L25.5891 15.0671C25.7062 15.5534 26.1312 16.4267 27.671 16.0693Z" fill="#669752"/>
<path d="M4.17082 20.4463C3.38073 20.3473 3.01612 19.8462 2.59297 19.5089C2.35779 19.3216 2.1045 19.1849 1.75 19.1962C2.10394 19.1739 2.34379 19.014 2.56098 18.8054C2.9518 18.4299 3.26931 17.8968 4.04707 17.7238C5.4415 17.4138 5.82299 18.2262 5.92487 18.6666L5.92387 18.647L5.95164 19.3244L5.95253 19.3508C5.89098 19.799 5.58748 20.6239 4.17082 20.4463Z" fill="#42967E"/>
<path d="M7.14938 23.3712C6.50771 23.5769 6.05489 23.3216 5.61341 23.2134C5.36801 23.1532 5.12616 23.1384 4.85742 23.2737C5.12205 23.1303 5.25136 22.9217 5.34656 22.6838C5.51787 22.2557 5.57842 21.7322 6.11699 21.3218C7.08261 20.5858 7.65552 21.0743 7.88559 21.3767L7.87804 21.3619L8.13266 21.873L8.14244 21.8929C8.24942 22.2596 8.29997 23.0021 7.14938 23.3712Z" fill="#32B25B"/>
<path d="M11.0334 8.47778C10.6407 7.58959 10.9189 6.89583 10.9951 6.243C11.0376 5.88017 11.0176 5.53012 10.7852 5.16628C11.0282 5.52266 11.3392 5.67376 11.6851 5.7708C12.3076 5.94543 13.0438 5.94487 13.7033 6.6504C14.8857 7.91544 14.3039 8.82093 13.923 9.2022L13.9423 9.18897L13.2761 9.64047L13.2501 9.65777C12.7594 9.87301 11.7378 10.07 11.0334 8.47778Z" fill="#42967E"/>
<path d="M21.5293 29.2761C21.4709 29.2761 21.4327 29.2965 21.4327 29.3405C21.4327 29.5151 22.0418 29.4117 22.0418 29.8404C22.0418 30.0929 21.8222 30.2131 21.5609 30.2131C21.3627 30.2131 21.1465 30.142 21 30.0251L21.1298 29.7574C21.2497 29.8607 21.4444 29.9387 21.5642 29.9387C21.6374 29.9387 21.684 29.9133 21.684 29.8591C21.684 29.6794 21.0749 29.7929 21.0749 29.3744C21.0749 29.1456 21.2663 29 21.5575 29C21.7356 29 21.9187 29.0542 22.0452 29.1372L21.917 29.4083C21.7972 29.3389 21.6275 29.2761 21.5293 29.2761Z" fill="white"/>
<path d="M22.4873 29.6106C22.4873 29.7901 22.6205 29.924 22.7736 29.924C22.9267 29.924 23.0499 29.7901 23.0499 29.6106C23.0499 29.4309 22.9267 29.3004 22.7736 29.3004C22.6188 29.3004 22.4873 29.4309 22.4873 29.6106ZM23.4044 29.6089C23.4044 29.9578 23.1348 30.2189 22.7686 30.2189C22.4025 30.2189 22.1328 29.9596 22.1328 29.6089C22.1328 29.2598 22.4025 29.0057 22.7686 29.0057C23.1348 29.0057 23.4044 29.2615 23.4044 29.6089Z" fill="white"/>
<path d="M24.4699 29.0165V29.2876H23.9107V29.5249H24.4299V29.796H23.9107V30.2043H23.5645V29.0165H24.4699Z" fill="white"/>
<path d="M25.5663 29.0165V29.2978H25.2268V30.2043H24.8789V29.2978H24.541V29.0165H25.5663Z" fill="white"/>
<path d="M27.0467 29.0165V29.2978H26.7071V30.2043H26.3594V29.2978H26.0215V29.0165H27.0467Z" fill="white"/>
<path d="M28.1372 29.0165V29.2876H27.5298V29.4741H28.0806V29.7452H27.5298V29.9332H28.1539V30.2043H27.1836V29.0165H28.1372Z" fill="white"/>
<path d="M28.9215 29.2988C28.7634 29.2988 28.6436 29.4292 28.6436 29.6037C28.6436 29.7783 28.7634 29.9105 28.9215 29.9105C29.0115 29.9105 29.1197 29.8562 29.1995 29.7732L29.3993 29.9901C29.2727 30.129 29.0813 30.2189 28.9049 30.2189C28.5504 30.2189 28.2891 29.9578 28.2891 29.6072C28.2891 29.2615 28.5554 29.0057 28.9165 29.0057C29.093 29.0057 29.281 29.087 29.3993 29.2158L29.1995 29.4563C29.1262 29.3614 29.0181 29.2988 28.9215 29.2988Z" fill="white"/>
<path d="M29.8852 29.0165V29.4893H30.2997V29.0165H30.6459V30.2043H30.2997V29.7621H29.8852V30.2043H29.5391V29.0165H29.8852Z" fill="white"/>
<path d="M1.385 29.0173L1.66246 29.8736L1.9399 29.0173H2.30924L1.83931 30.2549H1.46474L1 29.0173H1.385Z" fill="white"/>
<path d="M2.79622 29.6387H3.00259C3.1101 29.6387 3.17255 29.5788 3.17255 29.4675C3.17255 29.3598 3.1101 29.2998 3.00259 29.2998H2.79622V29.6387ZM3.14826 30.2549L2.98702 29.9212H2.79622V30.2549H2.43555V29.0173H3.00259C3.32861 29.0173 3.51589 29.1762 3.51589 29.4569C3.51589 29.6405 3.44306 29.7747 3.31125 29.8506L3.55751 30.2549H3.14826Z" fill="white"/>
<path d="M4.08333 29.0173V30.2549H3.72266V29.0173H4.08333Z" fill="white"/>
<path d="M5.10655 30.2549L4.82386 29.8029L4.68685 29.9583V30.2549H4.32617V29.0173H4.68685V29.494L5.09441 29.0173H5.51055L5.07013 29.5205L5.53832 30.2549H5.10655Z" fill="white"/>
<path d="M6.15103 29.2878C6.09032 29.2878 6.05045 29.3089 6.05045 29.3548C6.05045 29.5367 6.68514 29.429 6.68514 29.8757C6.68514 30.1387 6.45625 30.264 6.18401 30.264C5.97764 30.264 5.7522 30.1899 5.59961 30.068L5.73485 29.7892C5.85971 29.8968 6.06259 29.978 6.18745 29.978C6.26375 29.978 6.31232 29.9516 6.31232 29.8951C6.31232 29.7079 5.67767 29.8262 5.67767 29.3902C5.67767 29.1518 5.87706 29.0001 6.18048 29.0001C6.36609 29.0001 6.55683 29.0565 6.68858 29.143L6.55507 29.4254C6.4302 29.3531 6.25337 29.2878 6.15103 29.2878Z" fill="white"/>
<path d="M7.21224 29.0173V29.5099H7.64405V29.0173H8.00478V30.2549H7.64405V29.7941H7.21224V30.2549H6.85156V29.0173H7.21224Z" fill="white"/>
<path d="M8.96629 29.7888L8.82054 29.3845L8.67144 29.7888H8.96629ZM9.06162 30.0572H8.57082L8.49805 30.2549H8.12695L8.64548 29.0173H9.01649L9.51767 30.2549H9.13274L9.06162 30.0572Z" fill="white"/>
<path d="M10.0273 29.0173L10.3204 29.7023L10.6134 29.0173H11.0001V30.2549H10.6846L10.6828 29.5222L10.4383 30.1331H10.2025L9.95795 29.5222V30.2549H9.64062V29.0173H10.0273Z" fill="white"/>
</g>
<defs>
<clipPath id="clip0_1456_395">
<rect width="32" height="32" rx="5" fill="white"/>
</clipPath>
</defs>
</svg>
