<svg width="132" height="37" viewBox="0 0 132 37" fill="none" xmlns="http://www.w3.org/2000/svg">
<g clip-path="url(#clip0_808_21994)">
<path d="M32.166 0.03125V27.8514L35.739 27.865V14.6232H44.3714V11.1184H35.739V3.53604H46.9761V0.03125H32.166ZM53.4266 5.6771C54.7221 5.6771 55.7586 4.62702 55.7586 3.34512C55.7586 2.06321 54.7085 1.01314 53.4266 1.01314C52.131 1.01314 51.0946 2.06321 51.0946 3.34512C51.0946 4.62702 52.1447 5.6771 53.4266 5.6771ZM51.6128 9.18188V27.8514H55.1858V9.18188H51.6128Z" fill="black"/>
<path fill-rule="evenodd" clip-rule="evenodd" d="M68.4541 8.63672C63.6947 8.63672 60.3809 12.6597 60.3809 17.4328C60.3809 22.2058 63.6947 26.2288 68.4541 26.2288C70.6361 26.2288 72.4226 25.3833 73.7318 24.0196V26.488C73.7318 29.5836 71.3043 32.1611 68.1268 32.1611C66.9813 32.1611 65.8494 31.7247 64.9494 31.0974L63.1492 34.2067C64.5811 35.134 66.2858 35.6659 68.1132 35.6659C73.1863 35.6659 77.2911 31.561 77.2911 26.488V9.18221H73.7318V10.846C72.4226 9.48223 70.6361 8.63672 68.4541 8.63672ZM63.9675 17.4328C63.9675 14.4735 66.2313 12.1415 68.8496 12.1415C71.468 12.1415 73.7318 14.4735 73.7318 17.4328C73.7318 20.3921 71.468 22.7241 68.8496 22.7241C66.2313 22.7241 63.9675 20.3921 63.9675 17.4328Z" fill="black"/>
<path d="M90.2058 12.1415C88.0921 12.1415 86.3738 13.9416 86.3738 16.0554V27.8517H82.8008V9.18221H86.3738V10.8869C87.4238 9.53678 88.9648 8.63672 90.9832 8.63672C93.4924 8.63672 95.4153 9.87771 96.5336 11.7869C97.7745 9.9459 99.7929 8.63672 102.234 8.63672C106.312 8.63672 108.848 11.9233 108.862 15.9872V27.8517H105.289V16.0418C105.289 13.928 103.57 12.1279 101.457 12.1279C99.3428 12.1279 97.6245 13.928 97.6245 16.0418V27.8517H94.0516V16.0418C94.0379 13.928 92.3196 12.1415 90.2058 12.1415Z" fill="black"/>
<path fill-rule="evenodd" clip-rule="evenodd" d="M127.928 11.296C126.332 9.64588 124.15 8.63672 121.627 8.63672C116.309 8.63672 112.518 13.1507 112.518 18.5238C112.518 23.8969 116.295 28.4108 121.627 28.4108C124.15 28.4108 126.332 27.388 127.928 25.7515V27.8517H131.501V9.18221H127.928V11.296ZM116.104 18.5238C116.104 14.9644 118.832 12.1415 122.023 12.1415C125.2 12.1415 127.941 14.9508 127.941 18.5238C127.941 22.0831 125.214 24.906 122.023 24.906C118.832 24.8924 116.104 22.0831 116.104 18.5238Z" fill="black"/>
<path d="M12.5137 18.057C12.5137 14.7432 15.2002 12.043 18.5277 12.043C21.8416 12.043 24.5418 14.7295 24.5418 18.057C24.5418 21.3709 21.8552 24.0711 18.5277 24.0711C15.2139 24.0711 12.5137 21.3709 12.5137 18.057Z" fill="#1ABCFE"/>
<path d="M0.5 30.0726C0.5 26.7588 3.18655 24.0586 6.51405 24.0586H12.5281V30.0726C12.5281 33.3865 9.84156 36.0867 6.51405 36.0867C3.18655 36.0867 0.5 33.4002 0.5 30.0726Z" fill="#0ACF83"/>
<path d="M12.5137 0.0292623V12.0437H18.5277C21.8416 12.0437 24.5418 9.35718 24.5418 6.02968C24.5418 2.71581 21.8552 0.015625 18.5277 0.015625H12.5137V0.0292623Z" fill="#FF7262"/>
<path d="M0.5 6.0453C0.5 9.35917 3.18655 12.0594 6.51405 12.0594H12.5281V0.03125H6.51405C3.18655 0.03125 0.5 2.7178 0.5 6.0453Z" fill="#F24E1E"/>
<path d="M0.5 18.057C0.5 21.3709 3.18655 24.0711 6.51405 24.0711H12.5281V12.043H6.51405C3.18655 12.043 0.5 14.7432 0.5 18.057Z" fill="#A259FF"/>
</g>
<defs>
<clipPath id="clip0_808_21994">
<rect width="131" height="36.1036" fill="white" transform="translate(0.5)"/>
</clipPath>
</defs>
</svg>
