<svg width="60" height="60" viewBox="0 0 60 60" fill="none" xmlns="http://www.w3.org/2000/svg">
<path fill-rule="evenodd" clip-rule="evenodd" d="M25.0183 31.6665C25.0183 31.6665 23.5852 32.5004 26.0393 32.7821C29.0132 33.1217 30.5322 33.0728 33.8084 32.4531C33.8084 32.4531 34.6709 32.9931 35.8749 33.4604C28.5285 36.6083 19.2488 33.2783 25.0183 31.6665ZM24.1203 27.5586C24.1203 27.5586 22.5125 28.7486 24.9688 29.0026C28.1457 29.3307 30.6533 29.3574 34.9953 28.522C34.9953 28.522 35.5948 29.1305 36.5383 29.463C27.6573 32.0606 17.7662 29.6675 24.1203 27.5586Z" fill="#3174B9"/>
<path fill-rule="evenodd" clip-rule="evenodd" d="M31.6892 20.5889C33.5001 22.6735 31.2145 24.5483 31.2145 24.5483C31.2145 24.5483 35.8107 22.1761 33.6997 19.2044C31.7287 16.4343 30.2168 15.0582 38.4005 10.3125C38.4005 10.3125 25.5542 13.5196 31.6892 20.5889Z" fill="#CA3132"/>
<path fill-rule="evenodd" clip-rule="evenodd" d="M41.4045 34.7064C41.4045 34.7064 42.4653 35.5811 40.2359 36.2575C35.9967 37.5415 22.5885 37.9288 18.8641 36.3086C17.5263 35.7259 20.0364 34.9181 20.8261 34.7475C21.6497 34.5695 22.1198 34.6019 22.1198 34.6019C20.6309 33.5535 12.4964 36.6609 17.9885 37.5524C32.9646 39.9807 45.2885 36.4592 41.4045 34.7064ZM25.7091 23.3032C25.7091 23.3032 18.8897 24.9234 23.2945 25.5123C25.155 25.761 28.861 25.7038 32.3159 25.414C35.1385 25.1771 37.9717 24.6703 37.9717 24.6703C37.9717 24.6703 36.9772 25.0971 36.2566 25.5883C29.3304 27.4102 15.9525 26.5616 19.8042 24.6993C23.0607 23.1239 25.7091 23.3032 25.7091 23.3032ZM37.9434 30.141C44.9835 26.4835 41.7285 22.968 39.4559 23.4417C38.9003 23.5578 38.6509 23.6581 38.6509 23.6581C38.6509 23.6581 38.8582 23.3337 39.2523 23.1943C43.7474 21.6146 47.2038 27.8547 37.803 30.3259C37.8027 30.3259 37.911 30.2281 37.9434 30.141Z" fill="#3174B9"/>
<path fill-rule="evenodd" clip-rule="evenodd" d="M33.6994 2.64844C33.6994 2.64844 37.5974 6.54902 30.0011 12.5451C23.9092 17.3568 28.6122 20.0994 29.9992 23.2343C26.4426 20.026 23.8338 17.2011 25.5838 14.5727C28.1531 10.7145 35.2722 8.84342 33.6994 2.64844Z" fill="#CA3132"/>
<path fill-rule="evenodd" clip-rule="evenodd" d="M26.4008 40.0549C33.1573 40.4869 43.5348 39.8149 43.7811 36.6172C43.7811 36.6172 43.3086 37.8293 38.1965 38.7908C32.4289 39.8765 25.3141 39.7502 21.0957 39.0538C21.0957 39.0538 21.9601 39.7692 26.4008 40.0549Z" fill="#3174B9"/>
<path fill-rule="evenodd" clip-rule="evenodd" d="M43.4693 45.7903H43.2639V45.6751H43.8182V45.7903H43.6128V46.3655H43.4693V45.7903ZM44.5756 45.8189H44.5731L44.3689 46.3652H44.2752L44.0722 45.8189H44.0697V46.3652H43.9334V45.6748H44.1336L44.3216 46.1632L44.5096 45.6748H44.7079V46.3652H44.5759L44.5756 45.8189ZM25.294 52.2726C24.6568 52.8248 23.9832 53.1354 23.3784 53.1354C22.5168 53.1354 22.0493 52.6178 22.0493 51.7895C22.0493 50.8927 22.5498 50.2365 24.5532 50.2365H25.2937L25.294 52.2726ZM27.0527 54.2566V48.1146C27.0527 46.5448 26.1575 45.5089 23.9994 45.5089C22.7403 45.5089 21.6365 45.8199 20.7391 46.2161L20.9975 47.304C21.7044 47.0444 22.6183 46.8038 23.5154 46.8038C24.7586 46.8038 25.2937 47.304 25.2937 48.3396V49.1163H24.6724C21.6524 49.1163 20.2896 50.2879 20.2896 52.0494C20.2896 53.5672 21.1877 54.43 22.8782 54.43C23.9648 54.43 24.7766 53.9815 25.5346 53.325L25.6725 54.2566H27.0527ZM32.9224 54.2566H30.7295L28.0889 45.6652H30.0045L31.6434 50.9447L32.0082 52.5309C32.8349 50.2365 33.4217 47.9073 33.7152 45.6652H35.5779C35.0792 48.494 34.1809 51.5999 32.9224 54.2566ZM41.3383 52.2726C40.6993 52.8248 40.0257 53.1354 39.4221 53.1354C38.5605 53.1354 38.0936 52.6178 38.0936 51.7895C38.0936 50.8927 38.5944 50.2365 40.5965 50.2365H41.3383V52.2726ZM43.0976 54.2566V48.1146C43.0976 46.5448 42.1996 45.5089 40.0437 45.5089C38.7834 45.5089 37.6799 45.8199 36.7825 46.2161L37.0409 47.304C37.7478 47.0444 38.6635 46.8038 39.5609 46.8038C40.8023 46.8038 41.338 47.304 41.338 48.3396V49.1163H40.7167C37.6964 49.1163 36.3346 50.2879 36.3346 52.0494C36.3346 53.5672 37.2307 54.43 38.9216 54.43C40.0092 54.43 40.8197 53.9815 41.5796 53.325L41.7181 54.2566H43.0976ZM18.3613 55.7165C17.8601 56.4489 17.0496 57.0288 16.1634 57.356L15.2949 56.3332C15.9701 55.9867 16.5484 55.4273 16.8177 54.9069C17.0496 54.4431 17.1464 53.8467 17.1464 52.4192V42.6094H19.0156V52.2838C19.0156 54.1931 18.8631 54.9648 18.3613 55.7165Z" fill="#CA3132"/>
</svg>
