<svg width="30" height="37" viewBox="0 0 30 37" fill="none" xmlns="http://www.w3.org/2000/svg">
<path d="M15 36.484C13 34.5951 10.7083 33.1506 8.125 32.1506C5.54167 31.1506 2.83333 30.6506 0 30.6506V12.3173C2.80556 12.3173 5.5 12.8242 8.08333 13.8381C10.6667 14.852 12.9722 16.3173 15 18.234C17.0278 16.3173 19.3333 14.852 21.9167 13.8381C24.5 12.8242 27.1944 12.3173 30 12.3173V30.6506C27.1389 30.6506 24.4236 31.1506 21.8542 32.1506C19.2847 33.1506 17 34.5951 15 36.484ZM15 32.1506C16.75 30.8451 18.6111 29.8034 20.5833 29.0256C22.5556 28.2479 24.5833 27.734 26.6667 27.484V15.984C24.6389 16.3451 22.6458 17.0742 20.6875 18.1715C18.7292 19.2687 16.8333 20.734 15 22.5673C13.1667 20.734 11.2708 19.2687 9.3125 18.1715C7.35417 17.0742 5.36111 16.3451 3.33333 15.984V27.484C5.41667 27.734 7.44444 28.2479 9.41667 29.0256C11.3889 29.8034 13.25 30.8451 15 32.1506ZM15 13.984C13.1667 13.984 11.5972 13.3312 10.2917 12.0256C8.98611 10.7201 8.33333 9.15063 8.33333 7.3173C8.33333 5.48397 8.98611 3.91452 10.2917 2.60897C11.5972 1.30341 13.1667 0.650635 15 0.650635C16.8333 0.650635 18.4028 1.30341 19.7083 2.60897C21.0139 3.91452 21.6667 5.48397 21.6667 7.3173C21.6667 9.15063 21.0139 10.7201 19.7083 12.0256C18.4028 13.3312 16.8333 13.984 15 13.984ZM15 10.6506C15.9167 10.6506 16.7014 10.3242 17.3542 9.67147C18.0069 9.01869 18.3333 8.23397 18.3333 7.3173C18.3333 6.40063 18.0069 5.61591 17.3542 4.96313C16.7014 4.31036 15.9167 3.98397 15 3.98397C14.0833 3.98397 13.2986 4.31036 12.6458 4.96313C11.9931 5.61591 11.6667 6.40063 11.6667 7.3173C11.6667 8.23397 11.9931 9.01869 12.6458 9.67147C13.2986 10.3242 14.0833 10.6506 15 10.6506Z" fill="white"/>
</svg>
