<svg width="132" height="42" viewBox="0 0 132 42" fill="none" xmlns="http://www.w3.org/2000/svg">
<g clip-path="url(#clip0_808_21971)">
<path d="M0.498047 33.7927V8.43773L22.9276 0.148438L35.1173 4.0482V38.181L22.9276 41.8556L0.498047 33.7927L22.9276 36.4918V6.97565L8.29954 10.3889V30.3808L0.498705 33.7927H0.498047ZM59.0056 33.9705C55.4758 33.9705 52.6478 32.8059 50.5234 30.4789C48.3984 28.1531 47.3373 25.1249 47.3373 21.397C47.3373 17.3919 48.4195 14.1965 50.584 11.8122C52.7485 9.42781 55.695 8.23563 59.4216 8.23563C62.8599 8.23563 65.6294 9.39358 67.7307 11.7082C69.832 14.024 70.8826 17.0509 70.8826 20.79C70.8826 24.853 69.805 28.0649 67.6524 30.4275C65.4997 32.7901 62.6183 33.9705 59.0056 33.9705ZM59.2136 10.8754C56.5975 10.8754 54.4739 11.8194 52.8413 13.7061C51.2087 15.5928 50.3924 18.0706 50.3924 21.1376C50.3924 24.2046 51.189 26.6739 52.7801 28.5435C54.3712 30.413 56.4468 31.3478 59.0049 31.3478C61.7362 31.3478 63.8902 30.4565 65.4642 28.6738C67.0382 26.8911 67.8261 24.3968 67.8261 21.1903C67.8261 17.9021 67.0612 15.3617 65.5333 13.5672C64.0067 11.7733 61.8995 10.8747 59.2136 10.8747V10.8754ZM81.2587 6.8453C79.6492 6.8453 78.3122 7.39367 77.2365 8.47591C76.1602 9.55749 75.621 11.0308 75.621 12.8944V15.7751H72.5889V18.2128H75.621V33.5557H78.4557V18.2128H85.3876V33.5557H88.2222V18.2128H92.3826V15.7751H88.2222V13.032C88.2222 10.5206 89.2182 9.26916 91.2089 9.26916C91.9152 9.26916 92.5433 9.41398 93.0982 9.72602V7.16655C92.5893 6.95853 91.9093 6.84596 91.0417 6.84596C89.4321 6.84596 88.08 7.39498 87.0037 8.47657C85.9267 9.55881 85.3882 11.0321 85.3882 12.8951V15.7758H78.4557V13.0333C78.4557 10.5212 79.4497 9.26982 81.4417 9.26982C82.1474 9.26982 82.7754 9.41464 83.331 9.72668V7.16721C82.8215 6.95721 82.127 6.8453 81.2587 6.8453ZM96.5233 11.2559C96.2824 11.2603 96.043 11.2165 95.8192 11.1269C95.5955 11.0374 95.3919 10.904 95.2206 10.7345C94.8618 10.3869 94.6821 9.94786 94.6821 9.4153C94.6821 8.88274 94.8618 8.44036 95.2206 8.08751C95.3906 7.91573 95.5938 7.78021 95.8177 7.68912C96.0416 7.59804 96.2816 7.55329 96.5233 7.55758C97.044 7.55758 97.4864 7.73335 97.8518 8.08751C98.2171 8.44036 98.3982 8.88274 98.3982 9.4153C98.4022 9.65843 98.3557 9.89975 98.2616 10.124C98.1676 10.3482 98.028 10.5505 97.8518 10.7181C97.4871 11.0762 97.044 11.2559 96.5233 11.2559ZM97.9123 33.5505H95.0645V15.7699H97.9117V33.5505H97.9123ZM114.091 32.7349C112.725 33.5564 111.103 33.9678 109.229 33.9678C106.694 33.9678 104.648 33.143 103.092 31.4926C101.536 29.8423 100.755 27.7055 100.755 25.0769C100.755 22.1474 101.594 19.7953 103.273 18.0186C104.952 16.2412 107.192 15.3531 109.993 15.3531C111.555 15.3531 112.933 15.6428 114.126 16.2221V19.1384C112.806 18.2128 111.394 17.7494 109.889 17.7494C108.071 17.7494 106.581 18.4011 105.417 19.7032C104.254 21.006 103.672 22.7156 103.672 24.834C103.672 26.9181 104.219 28.5619 105.312 29.7659C106.407 30.9693 107.873 31.571 109.715 31.571C111.265 31.571 112.725 31.0555 114.091 30.026V32.7349ZM131.498 25.3731H118.944C118.99 27.3519 119.523 28.8799 120.541 29.9568C121.561 31.0325 122.961 31.571 124.744 31.571C126.746 31.571 128.588 30.9114 130.265 29.5915V32.2655C128.703 33.3997 126.637 33.9672 124.067 33.9672C121.554 33.9672 119.58 33.1601 118.146 31.5446C116.71 29.9292 115.992 27.6587 115.992 24.7293C115.992 21.9625 116.777 19.7078 118.345 17.9653C119.913 16.2228 121.861 15.3525 124.188 15.3525C126.514 15.3525 128.315 16.1049 129.588 17.6098C130.861 19.1147 131.497 21.2041 131.497 23.8781V25.3724L131.498 25.3731ZM128.582 22.9591C128.57 21.3154 128.174 20.0363 127.392 19.1219C126.61 18.2069 125.525 17.75 124.136 17.75C122.793 17.75 121.653 18.2312 120.715 19.1917C119.778 20.1528 119.199 21.4088 118.98 22.9591H128.582Z" fill="#EB3C00"/>
</g>
<defs>
<clipPath id="clip0_808_21971">
<rect width="131" height="41.7104" fill="white" transform="translate(0.5 0.144531)"/>
</clipPath>
</defs>
</svg>
