<svg width="118" height="34" viewBox="0 0 118 34" fill="none" xmlns="http://www.w3.org/2000/svg">
<g clip-path="url(#clip0_808_21916)">
<path d="M108.56 12.1876C108.273 12.1876 107.994 12.2468 107.748 12.3865L99.9376 16.8967C99.4322 17.188 99.125 17.7379 99.125 18.323V27.3271C99.125 27.9118 99.4322 28.461 99.9376 28.753L101.977 29.9305C102.968 30.4188 103.334 30.4112 103.785 30.4112C105.252 30.4112 106.089 29.5209 106.089 27.9738V19.0856C106.089 18.96 105.981 18.8702 105.857 18.8702H104.879C104.754 18.8702 104.647 18.96 104.647 19.0856V27.9738C104.647 28.6594 103.933 29.3492 102.773 28.7696L100.651 27.526C100.576 27.4852 100.518 27.4131 100.518 27.3271V18.3228C100.518 18.2375 100.575 18.1506 100.651 18.1073L108.444 13.6139C108.479 13.5933 108.519 13.5825 108.56 13.5825C108.601 13.5825 108.641 13.5933 108.676 13.6139L116.47 18.1075C116.544 18.1523 116.603 18.235 116.603 18.3233V27.3273C116.603 27.4133 116.559 27.5013 116.486 27.5428L108.676 32.0365C108.609 32.0763 108.517 32.0763 108.444 32.0365L106.438 30.8426C106.407 30.8261 106.373 30.8174 106.338 30.8174C106.304 30.8174 106.269 30.8261 106.239 30.8426C105.685 31.1565 105.581 31.193 105.061 31.3732C104.933 31.4179 104.739 31.4873 105.128 31.7051L107.748 33.2469C107.995 33.3894 108.275 33.4638 108.56 33.4626C108.845 33.4644 109.126 33.39 109.373 33.2471L117.183 28.7532C117.688 28.4594 117.995 27.912 117.995 27.3273V18.323C117.995 17.7381 117.688 17.1891 117.183 16.8971L109.373 12.3869C109.128 12.247 108.847 12.1878 108.56 12.1878L108.56 12.1876Z" fill="#83CD29"/>
<path d="M110.65 18.6212C108.426 18.6212 107.101 19.5677 107.101 21.1418C107.101 22.8491 108.416 23.3183 110.55 23.5294C113.104 23.7794 113.303 24.1544 113.303 24.6571C113.303 25.5289 112.608 25.9007 110.965 25.9007C108.901 25.9007 108.447 25.3853 108.295 24.3586C108.277 24.2484 108.192 24.1595 108.08 24.1595H107.068C106.944 24.1595 106.836 24.2669 106.836 24.3918C106.836 25.7061 107.551 27.2604 110.965 27.2604C113.436 27.2604 114.862 26.2904 114.862 24.5907C114.862 22.906 113.71 22.4536 111.313 22.1367C108.891 21.8161 108.66 21.6592 108.66 21.092C108.66 20.6237 108.856 19.9973 110.65 19.9973C112.252 19.9973 112.845 20.343 113.087 21.4236C113.109 21.525 113.198 21.6059 113.303 21.6059H114.315C114.377 21.6059 114.437 21.5677 114.48 21.523C114.523 21.4752 114.553 21.4216 114.547 21.3572C114.39 19.4965 113.149 18.6212 110.65 18.6212Z" fill="#83CD29"/>
<path d="M62.6453 0.38292C62.558 0.382977 62.4722 0.405774 62.3964 0.449063C62.3211 0.493145 62.2585 0.556092 62.2149 0.631704C62.1713 0.707315 62.1482 0.792983 62.1477 0.880266V13.5656C62.1477 13.69 62.0899 13.8016 61.982 13.864C61.9292 13.8948 61.8691 13.9111 61.8079 13.9111C61.7467 13.9111 61.6867 13.8948 61.6338 13.864L59.561 12.6702C59.4098 12.5827 59.2382 12.5367 59.0635 12.5367C58.8888 12.5367 58.7173 12.5827 58.5661 12.6702L50.2916 17.4457C49.9823 17.6243 49.7943 17.9675 49.7943 18.3247V27.8759C49.7943 28.2327 49.9826 28.5595 50.2916 28.7381L58.5661 33.5138C58.7172 33.6015 58.8888 33.6477 59.0635 33.6477C59.2383 33.6477 59.4099 33.6015 59.561 33.5138L67.8354 28.7381C67.9869 28.6509 68.1127 28.5253 68.2001 28.3739C68.2874 28.2225 68.3333 28.0507 68.333 27.8759V4.06416C68.3328 3.88527 68.2851 3.70965 68.1948 3.55522C68.1045 3.40079 67.9748 3.27309 67.819 3.18516L62.894 0.43247C62.8168 0.389373 62.731 0.381767 62.6453 0.38292ZM9.41684 12.3054C9.2592 12.3116 9.11078 12.3393 8.96927 12.4213L0.694616 17.197C0.543041 17.2841 0.417196 17.4097 0.32985 17.5612C0.242503 17.7126 0.196763 17.8844 0.19727 18.0592L0.213863 30.8775C0.213863 31.0557 0.305819 31.2214 0.462536 31.3085C0.53767 31.3536 0.623672 31.3775 0.711325 31.3775C0.798978 31.3775 0.884979 31.3536 0.960113 31.3085L5.86835 28.4897C6.17925 28.3048 6.38229 27.9836 6.38229 27.6273V21.6411C6.38229 21.2839 6.57012 20.9562 6.87987 20.7787L8.96904 19.5683C9.1201 19.4805 9.29189 19.4346 9.46662 19.4356C9.63717 19.4356 9.81232 19.4782 9.96397 19.5683L12.0534 20.7787C12.2051 20.8657 12.3311 20.9913 12.4185 21.1428C12.5059 21.2943 12.5516 21.4662 12.5509 21.6411V27.627C12.5509 27.9833 12.7561 28.3069 13.0649 28.4894L17.9731 31.3085C18.0483 31.3536 18.1343 31.3775 18.2219 31.3775C18.3096 31.3775 18.3956 31.3536 18.4707 31.3085C18.5463 31.2647 18.6091 31.2018 18.6528 31.1262C18.6965 31.0505 18.7195 30.9647 18.7196 30.8773L18.7357 18.0592C18.7367 17.8843 18.6912 17.7123 18.6038 17.5608C18.5164 17.4093 18.3903 17.2838 18.2384 17.197L9.96397 12.4213C9.82407 12.3393 9.67519 12.3119 9.5164 12.3054H9.41684ZM83.7708 12.4213C83.5979 12.4213 83.4285 12.4651 83.2734 12.5541L74.999 17.3298C74.8475 17.4169 74.7217 17.5426 74.6343 17.694C74.5469 17.8454 74.5011 18.0172 74.5014 18.192V27.7432C74.5014 28.1025 74.7038 28.4279 75.0154 28.6056L83.2236 33.2817C83.5267 33.4546 83.8968 33.4677 84.202 33.2979L89.1766 30.5288C89.3344 30.4412 89.4412 30.2776 89.4418 30.0979C89.4427 30.0103 89.4201 29.9242 89.3764 29.8483C89.3326 29.7725 89.2694 29.7098 89.1932 29.6666L80.869 24.8909C80.7132 24.802 80.6037 24.622 80.6037 24.4431V21.4586C80.6037 21.28 80.7143 21.1164 80.869 21.0274L83.4557 19.5349C83.5313 19.4911 83.6171 19.4681 83.7045 19.4681C83.7919 19.4681 83.8777 19.4911 83.9533 19.5349L86.5398 21.0274C86.6156 21.0709 86.6785 21.1337 86.7222 21.2094C86.7659 21.2851 86.7889 21.371 86.7887 21.4584V23.813C86.7885 23.9004 86.8114 23.9863 86.855 24.062C86.8987 24.1377 86.9616 24.2005 87.0374 24.244C87.1925 24.3337 87.3801 24.3339 87.5347 24.244L92.493 21.3593C92.6442 21.2717 92.7698 21.146 92.8572 20.9946C92.9445 20.8433 92.9905 20.6716 92.9906 20.4969V18.1922C92.9906 17.8361 92.8016 17.5086 92.493 17.3298L84.2683 12.5541C84.1171 12.4666 83.9454 12.4207 83.7708 12.4213ZM59.0302 19.5517C59.0736 19.5517 59.1243 19.5623 59.163 19.5847L61.9986 21.2263C62.0756 21.2708 62.1314 21.353 62.1314 21.4418V24.725C62.1314 24.8142 62.0761 24.8962 61.9986 24.9407L59.163 26.5823C59.1251 26.6039 59.0822 26.6153 59.0386 26.6153C58.995 26.6153 58.9522 26.6039 58.9143 26.5823L56.0789 24.9407C56.0017 24.896 55.9461 24.8142 55.9461 24.725V21.4418C55.9461 21.3528 56.0019 21.2712 56.0789 21.2263L58.9143 19.5849C58.9492 19.5632 58.9894 19.5518 59.0304 19.5519L59.0302 19.5517Z" fill="#404137"/>
<path d="M34.2733 12.3711C34.1009 12.3711 33.9303 12.4149 33.7759 12.5038L25.5015 17.263C25.192 17.4411 25.0039 17.785 25.0039 18.1417V27.693C25.0039 28.0502 25.1922 28.3765 25.5015 28.5554L33.7759 33.3308C33.927 33.4186 34.0986 33.4649 34.2734 33.4649C34.4481 33.4649 34.6197 33.4186 34.7708 33.3308L43.0453 28.5554C43.1967 28.4681 43.3225 28.3424 43.4098 28.191C43.4972 28.0396 43.543 27.8678 43.5426 27.693V18.1417C43.5426 17.7845 43.3545 17.4411 43.0453 17.263L34.7708 12.5038C34.6196 12.4165 34.4479 12.3707 34.2733 12.3711ZM83.7541 20.8944C83.7212 20.8944 83.6845 20.8944 83.6548 20.911L82.063 21.8396C82.0333 21.8561 82.0084 21.8801 81.991 21.9092C81.9735 21.9383 81.964 21.9715 81.9634 22.0055V23.8294C81.9634 23.8981 82.003 23.961 82.063 23.9954L83.6548 24.9073C83.7145 24.9419 83.7781 24.9419 83.8371 24.9073L85.4289 23.9951C85.4585 23.9785 85.4832 23.9545 85.5007 23.9255C85.5181 23.8964 85.5277 23.8633 85.5285 23.8294V22.0053C85.5277 21.9714 85.5181 21.9383 85.5007 21.9092C85.4832 21.8802 85.4585 21.8562 85.4289 21.8396L83.8371 20.9108C83.8076 20.8935 83.7873 20.8944 83.7541 20.8944Z" fill="#83CD29"/>
</g>
<defs>
<clipPath id="clip0_808_21916">
<rect width="118" height="33.4176" fill="white" transform="translate(0 0.292969)"/>
</clipPath>
</defs>
</svg>
