<svg width="41" height="40" viewBox="0 0 41 40" fill="none" xmlns="http://www.w3.org/2000/svg">
<mask id="mask0_808_19885" style="mask-type:alpha" maskUnits="userSpaceOnUse" x="0" y="0" width="41" height="40">
<rect x="0.333984" width="40" height="40" fill="#D9D9D9"/>
</mask>
<g mask="url(#mask0_808_19885)">
<path d="M7.0013 34.9948C6.08464 34.9948 5.29991 34.6684 4.64714 34.0156C3.99436 33.3628 3.66797 32.5781 3.66797 31.6615V13.3281C3.66797 12.4115 3.99436 11.6267 4.64714 10.974C5.29991 10.3212 6.08464 9.99479 7.0013 9.99479H13.668V6.66146C13.668 5.74479 13.9944 4.96007 14.6471 4.30729C15.2999 3.65451 16.0846 3.32812 17.0013 3.32812H23.668C24.5846 3.32812 25.3694 3.65451 26.0221 4.30729C26.6749 4.96007 27.0013 5.74479 27.0013 6.66146V9.99479H33.668C34.5846 9.99479 35.3694 10.3212 36.0221 10.974C36.6749 11.6267 37.0013 12.4115 37.0013 13.3281V31.6615C37.0013 32.5781 36.6749 33.3628 36.0221 34.0156C35.3694 34.6684 34.5846 34.9948 33.668 34.9948H7.0013ZM17.0013 9.99479H23.668V6.66146H17.0013V9.99479ZM33.668 24.9948H25.3346V28.3281H15.3346V24.9948H7.0013V31.6615H33.668V24.9948ZM18.668 24.9948H22.0013V21.6615H18.668V24.9948ZM7.0013 21.6615H15.3346V18.3281H25.3346V21.6615H33.668V13.3281H7.0013V21.6615Z" fill="white"/>
</g>
</svg>
