<svg width="457" height="457" viewBox="0 0 457 457" fill="none" xmlns="http://www.w3.org/2000/svg">
<path d="M457 349.539H0V349.768H457V349.539Z" fill="#EBEBEB"/>
<path d="M411.209 364.258H380.936V364.486H411.209V364.258Z" fill="#EBEBEB"/>
<path d="M302.736 366.742H294.791V366.971H302.736V366.742Z" fill="#EBEBEB"/>
<path d="M380.022 355.758H362.48V355.986H380.022V355.758Z" fill="#EBEBEB"/>
<path d="M87.4276 357.297H47.9492V357.525H87.4276V357.297Z" fill="#EBEBEB"/>
<path d="M101.353 357.297H95.5645V357.525H101.353V357.297Z" fill="#EBEBEB"/>
<path d="M205.784 361.148H120.164V361.377H205.784V361.148Z" fill="#EBEBEB"/>
<path d="M216.631 308.773H40.139C37.2626 308.773 34.9219 306.432 34.9219 303.556V55.4671C34.9219 52.5908 37.2626 50.25 40.139 50.25H216.631C219.507 50.25 221.848 52.5908 221.848 55.4671V303.556C221.848 306.432 219.507 308.773 216.631 308.773ZM40.139 50.4794C37.3878 50.4794 35.1504 52.7169 35.1504 55.468V303.557C35.1504 306.308 37.3878 308.546 40.139 308.546H216.631C219.382 308.546 221.619 306.308 221.619 303.557V55.4671C221.619 52.7169 219.382 50.4785 216.631 50.4785L40.139 50.4794Z" fill="#EBEBEB"/>
<path d="M414.327 308.773H237.835C234.959 308.773 232.619 306.432 232.619 303.556V55.4671C232.619 52.5908 234.96 50.25 237.835 50.25H414.327C417.204 50.25 419.544 52.5908 419.544 55.4671V303.556C419.545 306.432 417.204 308.773 414.327 308.773ZM237.835 50.4794C235.085 50.4794 232.848 52.7169 232.848 55.468V303.557C232.848 306.308 235.085 308.546 237.835 308.546H414.327C417.078 308.546 419.316 306.308 419.316 303.557V55.4671C419.316 52.7169 417.078 50.4785 414.327 50.4785L237.835 50.4794Z" fill="#EBEBEB"/>
<path d="M143.056 267.377L130.401 277.962L148.434 304.169L162.843 296.131C170.452 303.414 179.434 309.37 189.518 313.482L188.059 329.87L219.34 335.649L223.833 319.823C234.721 319.588 245.237 317.231 254.945 313.148L265.532 325.805L291.737 307.771L283.7 293.363C290.984 285.753 296.939 276.773 301.05 266.689L317.438 268.147L323.219 236.866L307.392 232.372C307.155 221.484 304.802 210.967 300.719 201.257L313.374 190.673L295.343 164.466L280.934 172.502C273.324 165.222 264.344 159.263 254.259 155.153L255.718 138.765L224.437 132.984L219.942 148.812C209.056 149.05 198.537 151.404 188.83 155.485L178.245 142.832L152.037 160.865L160.073 175.275C152.791 182.882 146.836 191.862 142.722 201.948L126.335 200.491L120.555 231.77L136.383 236.265C136.619 247.152 138.974 257.668 143.056 267.377ZM179.539 226.495C183.86 203.107 206.323 187.651 229.709 191.972C253.098 196.294 268.555 218.756 264.235 242.143C259.913 265.531 237.451 280.988 214.061 276.667C190.675 272.345 175.218 249.881 179.539 226.495Z" fill="#F0F0F0"/>
<path d="M354.068 251.226L363.956 253.054L365.376 248.051C368.818 247.976 372.142 247.231 375.211 245.941L378.557 249.942L386.841 244.241L384.3 239.686C386.602 237.282 388.485 234.442 389.785 231.255L394.965 231.716L396.792 221.829L391.789 220.408C391.714 216.966 390.97 213.641 389.679 210.574L393.68 207.227L387.979 198.943L383.424 201.484C381.019 199.183 378.181 197.299 374.992 195.999L375.453 190.82L365.565 188.992L364.145 193.995C360.703 194.071 357.379 194.815 354.31 196.105L350.964 192.105L342.68 197.807L345.221 202.362C342.92 204.767 341.036 207.605 339.736 210.794L334.556 210.332L332.729 220.22L337.732 221.64C337.806 225.081 338.551 228.407 339.84 231.475L335.841 234.821L341.54 243.106L346.095 240.564C348.5 242.865 351.34 244.749 354.528 246.048L354.068 251.226ZM351.375 218.548C352.741 211.156 359.841 206.27 367.234 207.636C374.628 209.001 379.513 216.101 378.148 223.495C376.781 230.888 369.682 235.773 362.287 234.408C354.895 233.042 350.009 225.942 351.375 218.548Z" fill="#F0F0F0"/>
<path d="M76.5026 279.38L84.0349 280.771L85.1162 276.96C87.7384 276.903 90.2702 276.336 92.6082 275.353L95.1574 278.401L101.468 274.058L99.5327 270.588C101.287 268.756 102.721 266.593 103.711 264.165L107.655 264.516L109.047 256.984L105.237 255.902C105.179 253.28 104.613 250.747 103.629 248.41L106.676 245.861L102.334 239.549L98.8645 241.484C97.032 239.732 94.8704 238.296 92.441 237.307L92.7928 233.362L85.2606 231.969L84.1793 235.78C81.557 235.838 79.0243 236.404 76.6873 237.387L74.1381 234.34L67.8278 238.682L69.7628 242.152C68.0097 243.983 66.5748 246.146 65.5849 248.574L61.6392 248.223L60.248 255.756L64.0594 256.838C64.1161 259.459 64.6828 261.992 65.6653 264.33L62.6181 266.879L66.9596 273.19L70.4291 271.254C72.2617 273.007 74.4251 274.442 76.8536 275.432L76.5026 279.38ZM74.4516 254.487C75.4917 248.856 80.9008 245.134 86.5319 246.174C92.164 247.214 95.8849 252.623 94.8457 258.254C93.8046 263.887 88.3965 267.608 82.7644 266.567C77.1333 265.528 73.4115 260.119 74.4516 254.487Z" fill="#F0F0F0"/>
<path d="M211.002 111.551L216.701 112.604L217.519 109.721C219.502 109.678 221.419 109.248 223.187 108.504L225.116 110.81L229.891 107.524L228.427 104.899C229.754 103.514 230.839 101.877 231.588 100.04L234.573 100.306L235.626 94.6068L232.743 93.7879C232.7 91.8036 232.271 89.8878 231.527 88.1192L233.833 86.1907L230.547 81.416L227.922 82.8802C226.535 81.554 224.899 80.4681 223.062 79.7187L223.328 76.7335L217.629 75.6797L216.811 78.5634C214.827 78.6072 212.911 79.0359 211.143 79.779L209.214 77.4739L204.44 80.7597L205.904 83.3847C204.578 84.7703 203.492 86.4064 202.743 88.2444L199.758 87.9785L198.705 93.6773L201.589 94.4953C201.632 96.4787 202.06 98.3944 202.804 100.164L200.499 102.092L203.784 106.867L206.409 105.402C207.796 106.728 209.433 107.814 211.27 108.563L211.002 111.551ZM209.45 92.7176C210.237 88.4565 214.33 85.6414 218.59 86.4283C222.851 87.2153 225.667 91.3073 224.88 95.5683C224.092 99.8294 220 102.645 215.739 101.858C211.478 101.071 208.662 96.9786 209.45 92.7176Z" fill="#F0F0F0"/>
<path d="M305.72 157.406L309.521 158.108L310.067 156.185C311.39 156.156 312.668 155.87 313.847 155.375L315.133 156.913L318.318 154.721L317.341 152.971C318.226 152.047 318.95 150.955 319.45 149.73L321.441 149.907L322.143 146.107L320.22 145.561C320.191 144.238 319.905 142.96 319.409 141.781L320.947 140.495L318.756 137.31L317.006 138.287C316.082 137.402 314.991 136.678 313.765 136.178L313.942 134.187L310.141 133.484L309.595 135.407C308.272 135.437 306.994 135.723 305.815 136.218L304.529 134.681L301.345 136.873L302.321 138.624C301.436 139.548 300.712 140.639 300.213 141.865L298.221 141.688L297.52 145.488L299.443 146.034C299.471 147.356 299.757 148.635 300.253 149.814L298.716 151.1L300.907 154.284L302.657 153.307C303.582 154.192 304.673 154.916 305.899 155.416L305.72 157.406ZM304.685 144.846C305.21 142.005 307.94 140.127 310.781 140.652C313.622 141.178 315.501 143.906 314.976 146.747C314.45 149.589 311.721 151.467 308.88 150.942C306.038 150.417 304.16 147.688 304.685 144.846Z" fill="#F0F0F0"/>
<path d="M130.472 111.594L134.273 112.296L134.819 110.373C136.142 110.344 137.42 110.058 138.599 109.562L139.885 111.1L143.07 108.909L142.093 107.158C142.978 106.234 143.702 105.142 144.202 103.917L146.193 104.095L146.895 100.294L144.972 99.7486C144.942 98.4251 144.657 97.1473 144.161 95.9682L145.699 94.6823L143.508 91.4979L141.758 92.474C140.834 91.5893 139.743 90.8654 138.517 90.3654L138.694 88.3747L134.894 87.6719L134.348 89.5949C133.025 89.6242 131.747 89.9103 130.568 90.4056L129.282 88.8683L126.097 91.0592L127.074 92.8104C126.189 93.7344 125.465 94.8258 124.965 96.0514L122.973 95.8741L122.271 99.6745L124.195 100.22C124.223 101.543 124.509 102.821 125.005 104L123.468 105.286L125.659 108.471L127.409 107.494C128.334 108.379 129.425 109.102 130.651 109.601L130.472 111.594ZM129.436 99.0329C129.961 96.1913 132.691 94.3139 135.532 94.8385C138.373 95.3641 140.252 98.0924 139.727 100.934C139.202 103.776 136.472 105.654 133.631 105.128C130.789 104.604 128.912 101.875 129.436 99.0329Z" fill="#F0F0F0"/>
<path d="M299.445 314.219C299.494 316.528 299.994 318.758 300.86 320.816L298.176 323.061L302 328.617L305.055 326.912C306.669 328.456 308.572 329.72 310.711 330.591L310.402 334.066L317.035 335.291L317.987 331.936C320.296 331.886 322.526 331.386 324.585 330.52L326.829 333.204L332.386 329.38L330.682 326.325C332.226 324.712 333.489 322.807 334.361 320.669L337.835 320.979L339.061 314.346L335.704 313.393C335.654 311.085 335.155 308.855 334.29 306.796L336.973 304.551L333.149 298.995L330.094 300.699C328.481 299.155 326.577 297.892 324.438 297.02L324.747 293.546L318.114 292.32L317.162 295.677C314.853 295.727 312.624 296.226 310.564 297.091L308.32 294.409L302.764 298.232L304.468 301.288C302.925 302.901 301.661 304.806 300.79 306.943L297.315 306.634L296.09 313.266L299.445 314.219ZM308.595 312.147C309.512 307.188 314.275 303.911 319.234 304.827C324.193 305.743 327.47 310.507 326.554 315.466C325.638 320.425 320.876 323.702 315.916 322.786C310.956 321.868 307.679 317.106 308.595 312.147Z" fill="#F0F0F0"/>
<path d="M356.854 274.874L346.642 278.614L356.854 282.324V286.157L342.258 280.607V276.621L356.854 271.07V274.874Z" fill="#E0E0E0"/>
<path d="M367.843 263.523H372.105L361.986 292.41H357.723L367.843 263.523Z" fill="#E0E0E0"/>
<path d="M387.262 276.628V280.614L372.664 286.164V282.331L382.875 278.621L372.664 274.881V271.078L387.262 276.628Z" fill="#E0E0E0"/>
<path d="M103.139 323.663C104.603 324.109 105.272 325.032 105.272 327.231V332.326C105.272 333.822 106.037 334.683 107.598 334.683H108.172V338.568H106.324C102.344 338.568 100.306 336.53 100.306 332.866V327.103C100.306 326.084 99.7637 325.605 98.9036 325.605H97.8516V321.72H98.9036C99.7627 321.72 100.306 321.242 100.306 320.222V314.458C100.306 310.796 102.344 308.758 106.324 308.758H108.172V312.642H107.598C106.037 312.642 105.272 313.502 105.272 314.999V320.095C105.272 322.293 104.603 323.216 103.139 323.663Z" fill="#E0E0E0"/>
<path d="M128.469 321.719V325.604H127.417C126.557 325.604 126.016 326.082 126.016 327.102V332.865C126.016 336.529 123.978 338.567 119.998 338.567H118.15V334.682H118.724C120.285 334.682 121.05 333.822 121.05 332.325V327.23C121.05 325.032 121.718 324.108 123.183 323.662C121.718 323.216 121.05 322.293 121.05 320.095V315C121.05 313.502 120.285 312.642 118.724 312.642H118.15V308.758H119.998C123.978 308.758 126.016 310.796 126.016 314.458V320.222C126.016 321.241 126.558 321.72 127.417 321.72L128.469 321.719Z" fill="#E0E0E0"/>
<path d="M90.0195 138.159C90.0195 131.896 94.8272 127.414 101.298 127.414C104.889 127.414 107.887 128.72 109.846 131.095L106.759 133.944C105.364 132.341 103.613 131.51 101.535 131.51C97.6469 131.51 94.8866 134.241 94.8866 138.158C94.8866 142.076 97.6469 144.807 101.535 144.807C103.613 144.807 105.365 143.975 106.759 142.342L109.846 145.191C107.887 147.596 104.889 148.902 101.268 148.902C94.8272 148.904 90.0195 144.422 90.0195 138.159Z" fill="#E0E0E0"/>
<path d="M126.419 139.971H121.255V145.017H117.425V139.971H112.291V136.351H117.425V131.305H121.255V136.351H126.419V139.971Z" fill="#E0E0E0"/>
<path d="M144.385 139.971H139.22V145.017H135.392V139.971H130.258V136.351H135.392V131.305H139.22V136.351H144.385V139.971Z" fill="#E0E0E0"/>
<path d="M166.396 242.821L169.402 239.216C170.67 240.918 172.072 241.786 173.742 241.786C175.912 241.786 177.047 240.484 177.047 237.913V226.794H168.834V222.453H182.423V237.613C182.423 243.388 179.519 246.227 174.009 246.227C170.871 246.227 168.1 245.026 166.396 242.821Z" fill="#E0E0E0"/>
<path d="M185.672 244.161L187.409 240.422C189.011 241.457 191.449 242.158 193.653 242.158C196.056 242.158 196.957 241.523 196.957 240.523C196.957 237.584 186.107 240.589 186.107 233.411C186.107 230.004 189.178 227.602 194.421 227.602C196.89 227.602 199.629 228.168 201.331 229.17L199.596 232.877C197.826 231.875 196.056 231.541 194.421 231.541C192.083 231.541 191.081 232.277 191.081 233.21C191.081 236.282 201.933 233.31 201.933 240.388C201.933 243.728 198.828 246.099 193.452 246.099C190.413 246.099 187.341 245.263 185.672 244.161Z" fill="#E0E0E0"/>
<path d="M228.5 390.808C326.373 390.808 405.714 386.174 405.714 380.459C405.714 374.743 326.373 370.109 228.5 370.109C130.627 370.109 51.2852 374.743 51.2852 380.459C51.2852 386.174 130.627 390.808 228.5 390.808Z" fill="#F5F5F5"/>
<path d="M297.904 116.424H270.637C269.491 116.424 268.562 115.495 268.562 114.349V87.0826C268.562 85.9364 269.491 85.0078 270.637 85.0078H297.904C299.05 85.0078 299.978 85.9364 299.978 87.0826V114.349C299.978 115.495 299.05 116.424 297.904 116.424Z" fill="#24774A"/>
<g opacity="0.4">
<path d="M297.904 116.424H270.637C269.491 116.424 268.562 115.495 268.562 114.349V87.0826C268.562 85.9364 269.491 85.0078 270.637 85.0078H297.904C299.05 85.0078 299.978 85.9364 299.978 87.0826V114.349C299.978 115.495 299.05 116.424 297.904 116.424Z" fill="white"/>
</g>
<path d="M280.051 99.0778L274.599 101.075L280.051 103.056V105.103L272.258 102.14V100.011L280.051 97.0469V99.0778Z" fill="white"/>
<path d="M285.913 93.0156H288.189L282.786 108.439H280.51L285.913 93.0156Z" fill="white"/>
<path d="M296.276 100.011V102.14L288.482 105.103V103.056L293.934 101.075L288.482 99.0778V97.0469L296.276 100.011Z" fill="white"/>
<path d="M275.482 122.164V129.799H273.715V126.668H270.247V129.799H268.48V122.164H270.247V125.174H273.715V122.164H275.482Z" fill="#263238"/>
<path d="M278.881 123.604H276.438V122.164H283.09V123.604H280.647V129.799H278.881V123.604Z" fill="#263238"/>
<path d="M290.988 129.799L290.977 125.218L288.731 128.992H287.935L285.699 125.316V129.799H284.041V122.164H285.503L288.36 126.908L291.173 122.164H292.623L292.644 129.799H290.988Z" fill="#263238"/>
<path d="M294.464 122.164H296.231V128.358H300.058V129.798H294.463V122.164H294.464Z" fill="#263238"/>
<g opacity="0.6">
<path d="M275.482 122.164V129.799H273.715V126.668H270.247V129.799H268.48V122.164H270.247V125.174H273.715V122.164H275.482Z" fill="white"/>
<path d="M278.881 123.604H276.438V122.164H283.09V123.604H280.647V129.799H278.881V123.604Z" fill="white"/>
<path d="M290.988 129.799L290.977 125.218L288.731 128.992H287.935L285.699 125.316V129.799H284.041V122.164H285.503L288.36 126.908L291.173 122.164H292.623L292.644 129.799H290.988Z" fill="white"/>
<path d="M294.464 122.164H296.231V128.358H300.058V129.798H294.463V122.164H294.464Z" fill="white"/>
</g>
<path d="M365.087 133.166H337.821C336.675 133.166 335.746 132.237 335.746 131.091V103.825C335.746 102.679 336.675 101.75 337.821 101.75H365.087C366.233 101.75 367.162 102.679 367.162 103.825V131.091C367.162 132.236 366.233 133.166 365.087 133.166Z" fill="#24774A"/>
<g opacity="0.4">
<path d="M365.087 133.166H337.821C336.675 133.166 335.746 132.237 335.746 131.091V103.825C335.746 102.679 336.675 101.75 337.821 101.75H365.087C366.233 101.75 367.162 102.679 367.162 103.825V131.091C367.162 132.236 366.233 133.166 365.087 133.166Z" fill="white"/>
</g>
<path d="M346.307 117.475C347.06 117.704 347.404 118.179 347.404 119.309V121.928C347.404 122.698 347.797 123.14 348.599 123.14H348.894V125.138H347.944C345.898 125.138 344.849 124.09 344.849 122.206V119.243C344.849 118.719 344.57 118.474 344.128 118.474H343.588V116.476H344.128C344.57 116.476 344.849 116.23 344.849 115.706V112.743C344.849 110.86 345.897 109.812 347.944 109.812H348.894V111.81H348.599C347.797 111.81 347.404 112.251 347.404 113.022V115.641C347.404 116.771 347.06 117.246 346.307 117.475Z" fill="white"/>
<path d="M359.322 116.475V118.473H358.782C358.341 118.473 358.062 118.719 358.062 119.242V122.205C358.062 124.088 357.015 125.137 354.967 125.137H354.018V123.14H354.313C355.114 123.14 355.508 122.697 355.508 121.928V119.308C355.508 118.178 355.852 117.703 356.605 117.475C355.852 117.245 355.508 116.77 355.508 115.641V113.022C355.508 112.252 355.115 111.81 354.313 111.81H354.018V109.812H354.967C357.014 109.812 358.062 110.86 358.062 112.743V115.706C358.062 116.23 358.341 116.476 358.782 116.476L359.322 116.475Z" fill="white"/>
<path d="M340.891 142.838C340.891 140.537 342.657 138.891 345.035 138.891C346.355 138.891 347.456 139.37 348.175 140.243L347.041 141.29C346.528 140.7 345.885 140.395 345.122 140.395C343.693 140.395 342.678 141.399 342.678 142.838C342.678 144.278 343.693 145.281 345.122 145.281C345.885 145.281 346.528 144.976 347.041 144.376L348.175 145.423C347.455 146.306 346.354 146.786 345.024 146.786C342.657 146.786 340.891 145.139 340.891 142.838Z" fill="#263238"/>
<path d="M348.703 145.904L349.303 144.573C349.946 145.042 350.906 145.369 351.822 145.369C352.869 145.369 353.294 145.02 353.294 144.551C353.294 143.122 348.856 144.104 348.856 141.268C348.856 139.97 349.903 138.891 352.073 138.891C353.033 138.891 354.014 139.119 354.724 139.567L354.178 140.908C353.469 140.505 352.738 140.308 352.062 140.308C351.015 140.308 350.612 140.701 350.612 141.181C350.612 142.589 355.051 141.618 355.051 144.42C355.051 145.696 353.992 146.787 351.812 146.787C350.601 146.787 349.379 146.427 348.703 145.904Z" fill="#263238"/>
<path d="M355.666 145.904L356.266 144.573C356.909 145.042 357.869 145.369 358.785 145.369C359.832 145.369 360.257 145.02 360.257 144.551C360.257 143.122 355.818 144.104 355.818 141.268C355.818 139.97 356.865 138.891 359.035 138.891C359.995 138.891 360.976 139.119 361.686 139.567L361.14 140.908C360.431 140.505 359.7 140.308 359.024 140.308C357.978 140.308 357.574 140.701 357.574 141.181C357.574 142.589 362.013 141.618 362.013 144.42C362.013 145.696 360.954 146.787 358.774 146.787C357.563 146.787 356.342 146.427 355.666 145.904Z" fill="#263238"/>
<g opacity="0.6">
<path d="M340.891 142.838C340.891 140.537 342.657 138.891 345.035 138.891C346.355 138.891 347.456 139.37 348.175 140.243L347.041 141.29C346.528 140.7 345.885 140.395 345.122 140.395C343.693 140.395 342.678 141.399 342.678 142.838C342.678 144.278 343.693 145.281 345.122 145.281C345.885 145.281 346.528 144.976 347.041 144.376L348.175 145.423C347.455 146.306 346.354 146.786 345.024 146.786C342.657 146.786 340.891 145.139 340.891 142.838Z" fill="white"/>
<path d="M348.703 145.904L349.303 144.573C349.946 145.042 350.906 145.369 351.822 145.369C352.869 145.369 353.294 145.02 353.294 144.551C353.294 143.122 348.856 144.104 348.856 141.268C348.856 139.97 349.903 138.891 352.073 138.891C353.033 138.891 354.014 139.119 354.724 139.567L354.178 140.908C353.469 140.505 352.738 140.308 352.062 140.308C351.015 140.308 350.612 140.701 350.612 141.181C350.612 142.589 355.051 141.618 355.051 144.42C355.051 145.696 353.992 146.787 351.812 146.787C350.601 146.787 349.379 146.427 348.703 145.904Z" fill="white"/>
<path d="M355.666 145.904L356.266 144.573C356.909 145.042 357.869 145.369 358.785 145.369C359.832 145.369 360.257 145.02 360.257 144.551C360.257 143.122 355.818 144.104 355.818 141.268C355.818 139.97 356.865 138.891 359.035 138.891C359.995 138.891 360.976 139.119 361.686 139.567L361.14 140.908C360.431 140.505 359.7 140.308 359.024 140.308C357.978 140.308 357.574 140.701 357.574 141.181C357.574 142.589 362.013 141.618 362.013 144.42C362.013 145.696 360.954 146.787 358.774 146.787C357.563 146.787 356.342 146.427 355.666 145.904Z" fill="white"/>
</g>
<path d="M247.748 98.6562H135.773V179.708H247.748V98.6562Z" fill="black"/>
<path opacity="0.9" d="M247.748 98.6562H135.773V179.708H247.748V98.6562Z" fill="white"/>
<path opacity="0.1" d="M151.369 98.6562H135.773V179.708H151.369V98.6562Z" fill="black"/>
<path d="M247.748 98.6562H135.773V106.233H247.748V98.6562Z" fill="#24774A"/>
<g opacity="0.2">
<path d="M180.71 117.695H160.312C159.808 117.695 159.398 117.286 159.398 116.781C159.398 116.277 159.808 115.867 160.312 115.867H180.71C181.215 115.867 181.624 116.277 181.624 116.781C181.624 117.286 181.215 117.695 180.71 117.695Z" fill="black"/>
<path d="M225.726 117.695H186.133C185.628 117.695 185.219 117.286 185.219 116.781C185.219 116.277 185.628 115.867 186.133 115.867H225.726C226.231 115.867 226.64 116.277 226.64 116.781C226.64 117.286 226.231 117.695 225.726 117.695Z" fill="black"/>
<path d="M216.324 123.656H163.055C162.55 123.656 162.141 123.247 162.141 122.742C162.141 122.238 162.55 121.828 163.055 121.828H216.324C216.829 121.828 217.238 122.238 217.238 122.742C217.238 123.247 216.829 123.656 216.324 123.656Z" fill="black"/>
<path d="M194.631 129.609H160.312C159.808 129.609 159.398 129.2 159.398 128.695C159.398 128.191 159.808 127.781 160.312 127.781H194.631C195.136 127.781 195.545 128.191 195.545 128.695C195.545 129.2 195.136 129.609 194.631 129.609Z" fill="black"/>
<path d="M225.724 129.609H201.137C200.632 129.609 200.223 129.2 200.223 128.695C200.223 128.191 200.632 127.781 201.137 127.781H225.724C226.229 127.781 226.638 128.191 226.638 128.695C226.638 129.2 226.229 129.609 225.724 129.609Z" fill="black"/>
<path d="M179.264 135.601H160.312C159.808 135.601 159.398 135.192 159.398 134.687C159.398 134.183 159.808 133.773 160.312 133.773H179.264C179.769 133.773 180.178 134.183 180.178 134.687C180.178 135.192 179.769 135.601 179.264 135.601Z" fill="black"/>
<path d="M215.24 135.601H185.41C184.906 135.601 184.496 135.192 184.496 134.687C184.496 134.183 184.906 133.773 185.41 133.773H215.24C215.745 133.773 216.154 134.183 216.154 134.687C216.154 135.192 215.745 135.601 215.24 135.601Z" fill="black"/>
<path d="M188.546 141.523H163.055C162.55 141.523 162.141 141.114 162.141 140.609C162.141 140.105 162.55 139.695 163.055 139.695H188.546C189.051 139.695 189.46 140.105 189.46 140.609C189.46 141.114 189.051 141.523 188.546 141.523Z" fill="black"/>
<path d="M191.737 147.516H163.055C162.55 147.516 162.141 147.106 162.141 146.602C162.141 146.097 162.55 145.688 163.055 145.688H191.737C192.241 145.688 192.651 146.097 192.651 146.602C192.651 147.107 192.242 147.516 191.737 147.516Z" fill="black"/>
<path d="M225.726 147.516H196.437C195.933 147.516 195.523 147.106 195.523 146.602C195.523 146.097 195.933 145.688 196.437 145.688H225.726C226.23 145.688 226.64 146.097 226.64 146.602C226.64 147.107 226.23 147.516 225.726 147.516Z" fill="black"/>
<path d="M176.732 153.484H160.312C159.808 153.484 159.398 153.075 159.398 152.57C159.398 152.066 159.808 151.656 160.312 151.656H176.732C177.237 151.656 177.646 152.066 177.646 152.57C177.646 153.075 177.238 153.484 176.732 153.484Z" fill="black"/>
<path d="M225.726 153.484H182.336C181.831 153.484 181.422 153.075 181.422 152.57C181.422 152.066 181.831 151.656 182.336 151.656H225.726C226.231 151.656 226.64 152.066 226.64 152.57C226.64 153.075 226.231 153.484 225.726 153.484Z" fill="black"/>
<path d="M191.556 159.461H163.055C162.55 159.461 162.141 159.051 162.141 158.547C162.141 158.042 162.55 157.633 163.055 157.633H191.556C192.06 157.633 192.47 158.042 192.47 158.547C192.47 159.051 192.06 159.461 191.556 159.461Z" fill="black"/>
<path d="M213.976 159.461H195.535C195.031 159.461 194.621 159.051 194.621 158.547C194.621 158.042 195.031 157.633 195.535 157.633H213.976C214.48 157.633 214.89 158.042 214.89 158.547C214.89 159.051 214.48 159.461 213.976 159.461Z" fill="black"/>
<path d="M195.863 165.414H163.055C162.55 165.414 162.141 165.004 162.141 164.5C162.141 163.995 162.55 163.586 163.055 163.586H195.863C196.367 163.586 196.777 163.995 196.777 164.5C196.777 165.004 196.367 165.414 195.863 165.414Z" fill="black"/>
</g>
<path opacity="0.4" d="M242.926 104.079C243.791 104.079 244.493 103.377 244.493 102.512C244.493 101.647 243.791 100.945 242.926 100.945C242.061 100.945 241.359 101.647 241.359 102.512C241.359 103.377 242.061 104.079 242.926 104.079Z" fill="white"/>
<path opacity="0.4" d="M237.438 104.079C238.303 104.079 239.004 103.377 239.004 102.512C239.004 101.647 238.303 100.945 237.438 100.945C236.572 100.945 235.871 101.647 235.871 102.512C235.871 103.377 236.572 104.079 237.438 104.079Z" fill="white"/>
<path opacity="0.4" d="M231.951 104.079C232.817 104.079 233.518 103.377 233.518 102.512C233.518 101.647 232.817 100.945 231.951 100.945C231.086 100.945 230.385 101.647 230.385 102.512C230.385 103.377 231.086 104.079 231.951 104.079Z" fill="white"/>
<g opacity="0.2">
<path d="M143.847 117.695H143.805C143.3 117.695 142.891 117.286 142.891 116.781C142.891 116.277 143.3 115.867 143.805 115.867C144.309 115.867 144.74 116.277 144.74 116.781C144.74 117.286 144.351 117.695 143.847 117.695Z" fill="black"/>
<path d="M143.847 123.656H143.805C143.3 123.656 142.891 123.247 142.891 122.742C142.891 122.238 143.3 121.828 143.805 121.828C144.309 121.828 144.74 122.238 144.74 122.742C144.74 123.247 144.351 123.656 143.847 123.656Z" fill="black"/>
<path d="M143.847 129.609H143.805C143.3 129.609 142.891 129.2 142.891 128.695C142.891 128.191 143.3 127.781 143.805 127.781C144.309 127.781 144.74 128.191 144.74 128.695C144.74 129.2 144.351 129.609 143.847 129.609Z" fill="black"/>
<path d="M143.847 135.601H143.805C143.3 135.601 142.891 135.192 142.891 134.687C142.891 134.183 143.3 133.773 143.805 133.773C144.309 133.773 144.74 134.183 144.74 134.687C144.74 135.192 144.351 135.601 143.847 135.601Z" fill="black"/>
<path d="M143.847 141.523H143.805C143.3 141.523 142.891 141.114 142.891 140.609C142.891 140.105 143.3 139.695 143.805 139.695C144.309 139.695 144.74 140.105 144.74 140.609C144.74 141.114 144.351 141.523 143.847 141.523Z" fill="black"/>
<path d="M143.847 147.516H143.805C143.3 147.516 142.891 147.106 142.891 146.602C142.891 146.097 143.3 145.688 143.805 145.688C144.309 145.688 144.74 146.097 144.74 146.602C144.74 147.107 144.351 147.516 143.847 147.516Z" fill="black"/>
<path d="M143.847 153.484H143.805C143.3 153.484 142.891 153.075 142.891 152.57C142.891 152.066 143.3 151.656 143.805 151.656C144.309 151.656 144.74 152.066 144.74 152.57C144.74 153.075 144.351 153.484 143.847 153.484Z" fill="black"/>
<path d="M143.847 159.461H143.805C143.3 159.461 142.891 159.051 142.891 158.547C142.891 158.042 143.3 157.633 143.805 157.633C144.309 157.633 144.74 158.042 144.74 158.547C144.74 159.051 144.351 159.461 143.847 159.461Z" fill="black"/>
<path d="M143.847 165.414H143.805C143.3 165.414 142.891 165.004 142.891 164.5C142.891 163.995 143.3 163.586 143.805 163.586C144.309 163.586 144.74 163.995 144.74 164.5C144.74 165.004 144.351 165.414 143.847 165.414Z" fill="black"/>
</g>
<path d="M349.169 164.812H202.441V258.759H349.169V164.812Z" fill="#263238"/>
<path opacity="0.9" d="M349.169 164.812H202.441V258.759H349.169V164.812Z" fill="white"/>
<path opacity="0.1" d="M225.329 164.812H202.441V258.759H225.329V164.812Z" fill="black"/>
<path d="M349.169 164.812H202.441V172.39H349.169V164.812Z" fill="#24774A"/>
<path d="M212.805 180.703L210.371 181.595L212.805 182.479V183.393L209.326 182.07V181.119L212.805 179.797V180.703Z" fill="white"/>
<path d="M215.423 178H216.438L214.027 184.884H213.012L215.423 178Z" fill="white"/>
<path d="M220.053 181.12V182.071L216.574 183.393V182.479L219.008 181.596L216.574 180.704V179.797L220.053 181.12Z" fill="white"/>
<g opacity="0.2">
<path d="M219.541 191.125H209.598C209.093 191.125 208.684 190.715 208.684 190.211C208.684 189.706 209.093 189.297 209.598 189.297H219.541C220.046 189.297 220.455 189.706 220.455 190.211C220.455 190.715 220.046 191.125 219.541 191.125Z" fill="black"/>
<path d="M219.541 197.101H209.598C209.093 197.101 208.684 196.692 208.684 196.187C208.684 195.683 209.093 195.273 209.598 195.273H219.541C220.046 195.273 220.455 195.683 220.455 196.187C220.455 196.693 220.046 197.101 219.541 197.101Z" fill="black"/>
<path d="M219.541 203.07H209.598C209.093 203.07 208.684 202.661 208.684 202.156C208.684 201.652 209.093 201.242 209.598 201.242H219.541C220.046 201.242 220.455 201.652 220.455 202.156C220.455 202.661 220.046 203.07 219.541 203.07Z" fill="black"/>
<path d="M219.541 209.031H209.598C209.093 209.031 208.684 208.622 208.684 208.117C208.684 207.613 209.093 207.203 209.598 207.203H219.541C220.046 207.203 220.455 207.613 220.455 208.117C220.455 208.622 220.046 209.031 219.541 209.031Z" fill="black"/>
<path d="M219.541 214.984H209.598C209.093 214.984 208.684 214.576 208.684 214.07C208.684 213.565 209.093 213.156 209.598 213.156H219.541C220.046 213.156 220.455 213.565 220.455 214.07C220.455 214.576 220.046 214.984 219.541 214.984Z" fill="black"/>
<path d="M219.541 220.976H209.598C209.093 220.976 208.684 220.568 208.684 220.062C208.684 219.557 209.093 219.148 209.598 219.148H219.541C220.046 219.148 220.455 219.557 220.455 220.062C220.455 220.568 220.046 220.976 219.541 220.976Z" fill="black"/>
<path d="M219.541 226.922H209.598C209.093 226.922 208.684 226.513 208.684 226.008C208.684 225.502 209.093 225.094 209.598 225.094H219.541C220.046 225.094 220.455 225.502 220.455 226.008C220.455 226.513 220.046 226.922 219.541 226.922Z" fill="black"/>
<path d="M219.541 232.891H209.598C209.093 232.891 208.684 232.482 208.684 231.977C208.684 231.471 209.093 231.062 209.598 231.062H219.541C220.046 231.062 220.455 231.471 220.455 231.977C220.455 232.482 220.046 232.891 219.541 232.891Z" fill="black"/>
<path d="M219.541 238.867H209.598C209.093 238.867 208.684 238.459 208.684 237.953C208.684 237.448 209.093 237.039 209.598 237.039H219.541C220.046 237.039 220.455 237.448 220.455 237.953C220.455 238.459 220.046 238.867 219.541 238.867Z" fill="black"/>
</g>
<path d="M248.288 191.125H227.891C227.386 191.125 226.977 190.715 226.977 190.211C226.977 189.706 227.386 189.297 227.891 189.297H248.288C248.793 189.297 249.202 189.706 249.202 190.211C249.202 190.715 248.793 191.125 248.288 191.125Z" fill="#24774A"/>
<path d="M306.864 191.125H253.711C253.206 191.125 252.797 190.715 252.797 190.211C252.797 189.706 253.206 189.297 253.711 189.297H306.864C307.368 189.297 307.778 189.706 307.778 190.211C307.778 190.715 307.369 191.125 306.864 191.125Z" fill="#263238"/>
<g opacity="0.2">
<path d="M331.12 191.125H315.723C315.218 191.125 314.809 190.715 314.809 190.211C314.809 189.706 315.218 189.297 315.723 189.297H331.12C331.624 189.297 332.034 189.706 332.034 190.211C332.034 190.715 331.625 191.125 331.12 191.125Z" fill="#263238"/>
</g>
<g opacity="0.2">
<path d="M283.902 197.101H230.633C230.128 197.101 229.719 196.692 229.719 196.187C229.719 195.683 230.128 195.273 230.633 195.273H283.902C284.407 195.273 284.816 195.683 284.816 196.187C284.816 196.693 284.408 197.101 283.902 197.101Z" fill="#263238"/>
</g>
<path d="M338.436 197.101H288.785C288.281 197.101 287.871 196.692 287.871 196.187C287.871 195.683 288.281 195.273 288.785 195.273H338.436C338.941 195.273 339.35 195.683 339.35 196.187C339.35 196.693 338.942 197.101 338.436 197.101Z" fill="#24774A"/>
<path d="M262.208 203.07H230.633C230.128 203.07 229.719 202.661 229.719 202.156C229.719 201.652 230.128 201.242 230.633 201.242H262.208C262.712 201.242 263.122 201.652 263.122 202.156C263.122 202.661 262.712 203.07 262.208 203.07Z" fill="#263238"/>
<path d="M299.815 203.07H268.719C268.214 203.07 267.805 202.661 267.805 202.156C267.805 201.652 268.214 201.242 268.719 201.242H299.815C300.319 201.242 300.729 201.652 300.729 202.156C300.729 202.661 300.319 203.07 299.815 203.07Z" fill="#24774A"/>
<path d="M338.436 203.07H304.875C304.37 203.07 303.961 202.661 303.961 202.156C303.961 201.652 304.37 201.242 304.875 201.242H338.436C338.941 201.242 339.35 201.652 339.35 202.156C339.35 202.661 338.942 203.07 338.436 203.07Z" fill="#263238"/>
<path d="M265.131 209.031H246.18C245.675 209.031 245.266 208.622 245.266 208.117C245.266 207.613 245.675 207.203 246.18 207.203H265.131C265.636 207.203 266.045 207.613 266.045 208.117C266.045 208.622 265.637 209.031 265.131 209.031Z" fill="#263238"/>
<path d="M291.966 209.031H271.281C270.777 209.031 270.367 208.622 270.367 208.117C270.367 207.613 270.777 207.203 271.281 207.203H291.966C292.47 207.203 292.88 207.613 292.88 208.117C292.88 208.622 292.47 209.031 291.966 209.031Z" fill="#263238"/>
<g opacity="0.2">
<path d="M330.208 209.031H296.668C296.163 209.031 295.754 208.622 295.754 208.117C295.754 207.613 296.163 207.203 296.668 207.203H330.208C330.713 207.203 331.122 207.613 331.122 208.117C331.122 208.622 330.713 209.031 330.208 209.031Z" fill="#263238"/>
</g>
<g opacity="0.2">
<path d="M256.124 214.984H230.633C230.128 214.984 229.719 214.576 229.719 214.07C229.719 213.565 230.128 213.156 230.633 213.156H256.124C256.629 213.156 257.038 213.565 257.038 214.07C257.038 214.576 256.629 214.984 256.124 214.984Z" fill="#263238"/>
</g>
<path d="M259.315 220.976H230.633C230.128 220.976 229.719 220.568 229.719 220.062C229.719 219.557 230.128 219.148 230.633 219.148H259.315C259.819 219.148 260.229 219.557 260.229 220.062C260.229 220.568 259.819 220.976 259.315 220.976Z" fill="#24774A"/>
<path d="M307.225 220.976H264.016C263.511 220.976 263.102 220.568 263.102 220.062C263.102 219.557 263.511 219.148 264.016 219.148H307.225C307.729 219.148 308.139 219.557 308.139 220.062C308.139 220.568 307.729 220.976 307.225 220.976Z" fill="#263238"/>
<path d="M338.436 220.976H312.469C311.964 220.976 311.555 220.568 311.555 220.062C311.555 219.557 311.964 219.148 312.469 219.148H338.436C338.941 219.148 339.35 219.557 339.35 220.062C339.35 220.568 338.942 220.976 338.436 220.976Z" fill="#263238"/>
<g opacity="0.2">
<path d="M256.199 226.922H239.779C239.275 226.922 238.865 226.513 238.865 226.008C238.865 225.502 239.275 225.094 239.779 225.094H256.199C256.704 225.094 257.113 225.502 257.113 226.008C257.113 226.513 256.704 226.922 256.199 226.922Z" fill="#263238"/>
</g>
<g opacity="0.2">
<path d="M293.306 226.922H261.805C261.3 226.922 260.891 226.513 260.891 226.008C260.891 225.502 261.3 225.094 261.805 225.094H293.306C293.81 225.094 294.22 225.502 294.22 226.008C294.22 226.513 293.81 226.922 293.306 226.922Z" fill="#263238"/>
</g>
<path d="M330.203 226.922H299.449C298.945 226.922 298.535 226.513 298.535 226.008C298.535 225.502 298.945 225.094 299.449 225.094H330.203C330.707 225.094 331.117 225.502 331.117 226.008C331.117 226.513 330.708 226.922 330.203 226.922Z" fill="#263238"/>
<path d="M268.279 232.891H248.924C248.419 232.891 248.01 232.482 248.01 231.977C248.01 231.471 248.419 231.062 248.924 231.062H268.28C268.784 231.062 269.194 231.471 269.194 231.977C269.193 232.482 268.784 232.891 268.279 232.891Z" fill="#263238"/>
<g opacity="0.2">
<path d="M290.699 232.891H272.258C271.753 232.891 271.344 232.482 271.344 231.977C271.344 231.471 271.753 231.062 272.258 231.062H290.699C291.203 231.062 291.613 231.471 291.613 231.977C291.613 232.482 291.204 232.891 290.699 232.891Z" fill="#263238"/>
</g>
<path d="M330.205 232.891H296.484C295.98 232.891 295.57 232.482 295.57 231.977C295.57 231.471 295.98 231.062 296.484 231.062H330.205C330.71 231.062 331.119 231.471 331.119 231.977C331.119 232.482 330.71 232.891 330.205 232.891Z" fill="#24774A"/>
<g opacity="0.2">
<path d="M272.587 238.867H248.926C248.421 238.867 248.012 238.459 248.012 237.953C248.012 237.448 248.421 237.039 248.926 237.039H272.588C273.093 237.039 273.502 237.448 273.502 237.953C273.502 238.459 273.093 238.867 272.587 238.867Z" fill="#263238"/>
</g>
<path opacity="0.4" d="M342.781 168.66C342.781 169.526 343.482 170.227 344.348 170.227C345.213 170.227 345.914 169.525 345.914 168.66C345.914 167.795 345.213 167.094 344.348 167.094C343.482 167.094 342.781 167.796 342.781 168.66Z" fill="white"/>
<path opacity="0.4" d="M338.86 170.227C339.725 170.227 340.426 169.526 340.426 168.66C340.426 167.795 339.725 167.094 338.86 167.094C337.994 167.094 337.293 167.795 337.293 168.66C337.293 169.526 337.994 170.227 338.86 170.227Z" fill="white"/>
<path opacity="0.4" d="M333.373 170.227C334.238 170.227 334.94 169.526 334.94 168.66C334.94 167.795 334.238 167.094 333.373 167.094C332.508 167.094 331.807 167.795 331.807 168.66C331.807 169.526 332.508 170.227 333.373 170.227Z" fill="white"/>
<path d="M103.522 170.359H77.2649C72.7991 170.359 69.1797 173.979 69.1797 178.445V201.296C69.1797 205.761 72.8 209.382 77.2649 209.382H95.8813L101.369 216.597V209.382H103.523C107.988 209.382 111.608 205.762 111.608 201.296V178.445C111.608 173.98 107.988 170.359 103.522 170.359Z" fill="#24774A"/>
<path opacity="0.7" d="M103.522 170.359H77.2649C72.7991 170.359 69.1797 173.979 69.1797 178.445V201.296C69.1797 205.761 72.8 209.382 77.2649 209.382H95.8813L101.369 216.597V209.382H103.523C107.988 209.382 111.608 205.762 111.608 201.296V178.445C111.608 173.98 107.988 170.359 103.522 170.359Z" fill="white"/>
<path d="M99.6053 198.988C104.695 193.899 104.695 185.648 99.6053 180.559C94.5161 175.469 86.2649 175.469 81.1757 180.559C76.0865 185.648 76.0865 193.899 81.1757 198.988C86.2649 204.077 94.5161 204.077 99.6053 198.988Z" fill="#24774A"/>
<path d="M89.0251 195.587C88.6732 195.587 88.3396 195.433 88.112 195.165L82.9991 189.141C82.5714 188.637 82.6335 187.882 83.1371 187.453C83.6408 187.026 84.3966 187.086 84.8253 187.591L89.0251 192.539L95.9606 184.368C96.3892 183.863 97.1451 183.802 97.6487 184.23C98.1532 184.658 98.2154 185.414 97.7867 185.918L89.9382 195.166C89.7106 195.433 89.3761 195.587 89.0251 195.587Z" fill="white"/>
<path d="M187.115 332.214L206.734 331.25L204.827 348.316C204.827 348.316 191.208 350.917 185.133 341.227L187.115 332.214Z" fill="#EBB376"/>
<path d="M219.388 337.199L214.921 349.579L204.828 348.316L206.736 331.25L219.388 337.199Z" fill="#EBB376"/>
<path d="M168.277 359.92C179.999 354.017 188.453 344.934 188.453 344.934L187.118 332.223C168.571 334.926 157.879 338.887 157.879 338.887C157.879 338.887 164.746 314.249 158.462 305.273L141.199 308.403C141.199 308.403 122.855 346.533 135.192 359.92H168.277Z" fill="#24774A"/>
<path opacity="0.7" d="M168.253 359.921C179.98 354.025 188.448 344.942 188.448 344.942L187.11 332.219C169.163 334.851 158.549 338.633 157.902 338.862C158.131 337.964 164.63 314.083 158.466 305.266L141.208 308.4C141.208 308.4 135.754 319.724 132.788 332.219C130.321 342.628 129.593 353.836 135.21 359.921H168.253Z" fill="white"/>
<path opacity="0.2" d="M154.059 359.914C160.153 321.281 154.747 311.484 154.747 311.484L132.788 332.21C130.321 342.62 129.593 353.827 135.21 359.913H154.059V359.914Z" fill="black"/>
<path d="M150.242 359.927C154.351 340.399 158.968 309.832 158.461 305.281C157.724 298.668 121.731 270.313 90.4976 290.954C84.1178 295.17 80.8347 340.618 79.7188 359.927H150.242Z" fill="#24774A"/>
<path opacity="0.7" d="M150.242 359.923C154.353 340.395 158.969 309.828 158.465 305.268C157.734 298.665 121.734 270.313 90.4992 290.955C88.1795 292.502 86.2784 299.48 84.7118 308.694C82.6224 321.231 81.181 337.883 80.3246 350.439C80.0833 353.995 79.8868 357.21 79.7305 359.923H150.242Z" fill="white"/>
<path d="M134.827 207.062C123.995 202.684 98.4572 218.398 96.2197 246.413C93.9814 274.428 108.185 266.663 108.185 266.663C108.185 266.663 110.711 277.353 121.058 274.051C121.058 274.051 129.604 283.732 137.56 279.793C137.56 279.793 147.454 290.103 152.766 284.66C152.766 284.66 158.547 291.257 163.821 286.26C169.095 281.263 184.159 230.321 160.516 218.543C136.873 206.765 134.827 207.062 134.827 207.062Z" fill="#263238"/>
<path d="M134.845 321.684L133.804 321.591C135.005 308.103 132.037 302.131 132.008 302.073L132.936 301.594C133.064 301.842 136.076 307.846 134.845 321.684Z" fill="#263238"/>
<path d="M139.74 321.843C132.573 304.937 140.635 301.003 140.982 300.844L141.418 301.793L141.2 301.318L141.42 301.792C141.345 301.827 133.961 305.534 140.703 321.435L139.74 321.843Z" fill="#263238"/>
<path d="M132.729 304.858C132.729 304.858 118.883 293.906 97.3876 287.711L90.4997 290.944C90.4997 290.944 78.9275 276.617 98.2139 271.934C117.5 267.25 143.732 280.132 150.324 291.22C156.916 302.308 138.881 305.822 138.881 305.822C138.881 305.822 137.2 303.597 132.729 304.858Z" fill="#24774A"/>
<path opacity="0.6" d="M132.729 304.858C132.729 304.858 118.883 293.906 97.3876 287.711L90.4997 290.944C90.4997 290.944 78.9275 276.617 98.2139 271.934C117.5 267.25 143.732 280.132 150.324 291.22C156.916 302.308 138.881 305.822 138.881 305.822C138.881 305.822 137.2 303.597 132.729 304.858Z" fill="white"/>
<path d="M141.084 321.663C141.084 322.167 140.675 322.576 140.171 322.576C139.667 322.576 139.258 322.168 139.258 321.663C139.258 321.159 139.666 320.75 140.171 320.75C140.675 320.75 141.084 321.159 141.084 321.663Z" fill="white"/>
<path d="M135.15 321.663C135.15 322.167 134.742 322.576 134.237 322.576C133.734 322.576 133.324 322.168 133.324 321.663C133.324 321.159 133.733 320.75 134.237 320.75C134.742 320.75 135.15 321.159 135.15 321.663Z" fill="white"/>
<path d="M125.373 253.148C124.53 262.963 121.525 280.413 113.545 284.256C113.545 284.256 122.47 286.073 136.379 303.737C144.303 298.175 141.307 294.387 141.307 294.387C132.036 288.309 134.44 280.812 138.19 274.315L125.373 253.148Z" fill="#EBB376"/>
<path opacity="0.2" d="M130.596 261.789L138.184 274.31C137.29 275.845 136.483 277.438 135.897 279.059C132.252 277.106 128.237 270.907 128.99 266.667C129.366 264.553 130.004 262.622 130.596 261.789Z" fill="black"/>
<path d="M124.285 232.446C121.732 247.858 120.331 254.311 126.037 264.233C134.62 279.157 153.638 279.858 160.63 265.746C166.923 253.044 170.042 229.973 156.916 219.788C143.984 209.753 126.838 217.033 124.285 232.446Z" fill="#EBB376"/>
<path d="M155.864 211.207C165.85 216.752 175.364 234.064 161.151 229.736C159.009 233.893 151.353 230.088 146.907 225.094C146.159 228.553 137.961 232.029 131.932 226.665C134.846 230.871 129.888 241.485 124.72 239.654C119.55 237.823 107.964 235.421 118.237 219.061C128.509 202.7 145.194 205.282 155.864 211.207Z" fill="#263238"/>
<path d="M152.226 246.992C152.226 246.992 153.145 253.112 154.878 256.43C152.924 257.553 150.32 256.048 150.32 256.048L152.226 246.992Z" fill="#D58745"/>
<path d="M142.265 258.794C142.877 259.092 143.548 259.354 144.285 259.563C144.484 259.62 144.681 259.497 144.725 259.287C144.769 259.08 144.647 258.868 144.443 258.808C139.059 257.286 137.368 252.631 137.352 252.584C137.28 252.377 137.066 252.265 136.876 252.332C136.685 252.398 136.588 252.619 136.661 252.823C136.725 253.004 138.084 256.754 142.265 258.794Z" fill="#263238"/>
<path d="M116.526 243.51C117.497 247.062 119.88 249.755 122.355 251.111C126.079 253.151 128.797 249.658 128.48 245.31C128.194 241.397 125.913 235.621 121.831 235.391C117.809 235.166 115.415 239.45 116.526 243.51Z" fill="#EBB376"/>
<path d="M141.216 232.866C141.403 232.937 141.611 232.932 141.796 232.834C144.676 231.292 147.089 232.729 147.118 232.745C147.475 232.959 147.924 232.842 148.116 232.47C148.306 232.099 148.169 231.62 147.808 231.399C147.682 231.323 144.653 229.517 141.079 231.432C140.722 231.623 140.595 232.092 140.792 232.478C140.888 232.665 141.041 232.799 141.216 232.866Z" fill="#263238"/>
<path d="M165.777 238.879C165.943 238.969 166.139 238.995 166.325 238.938C166.711 238.817 166.917 238.384 166.785 237.97C165.462 233.818 162.168 232.727 162.027 232.682C161.631 232.557 161.23 232.789 161.13 233.202C161.03 233.615 161.269 234.05 161.663 234.178C161.793 234.219 164.336 235.104 165.388 238.405C165.456 238.618 165.6 238.784 165.777 238.879Z" fill="#263238"/>
<path d="M146.125 242.952C145.677 244.169 144.656 244.914 143.845 244.615C143.033 244.316 142.738 243.088 143.186 241.871C143.634 240.653 144.654 239.908 145.466 240.206C146.278 240.505 146.573 241.734 146.125 242.952Z" fill="#263238"/>
<path d="M145.105 240.135L148.135 240.07C148.135 240.07 145.998 241.813 145.105 240.135Z" fill="#263238"/>
<path d="M161.477 247.819C161.029 249.037 160.008 249.782 159.196 249.483C158.385 249.184 158.089 247.956 158.537 246.738C158.985 245.521 160.006 244.775 160.818 245.074C161.629 245.374 161.925 246.602 161.477 247.819Z" fill="#263238"/>
<path d="M160.457 245.002L163.487 244.938C163.487 244.938 161.349 246.681 160.457 245.002Z" fill="#263238"/>
<path d="M144.684 251.575C143.748 251.575 142.828 251.382 141.963 250.996C140.142 250.182 138.796 248.611 138.172 246.57C137.556 244.555 137.719 242.321 138.633 240.277C139.546 238.235 141.101 236.622 143.014 235.737C144.951 234.842 147.02 234.797 148.841 235.61C150.662 236.424 152.008 237.995 152.631 240.037C153.247 242.051 153.084 244.286 152.172 246.329H152.171C151.258 248.371 149.702 249.984 147.79 250.869C146.773 251.339 145.719 251.575 144.684 251.575ZM146.12 236.077C145.234 236.077 144.329 236.281 143.452 236.686C141.769 237.466 140.396 238.892 139.587 240.705C138.776 242.516 138.629 244.492 139.171 246.265C139.706 248.012 140.848 249.354 142.389 250.043C143.929 250.733 145.692 250.689 147.35 249.922C149.033 249.142 150.407 247.716 151.217 245.904C152.026 244.092 152.173 242.117 151.631 240.344C151.097 238.596 149.954 237.255 148.413 236.565C147.688 236.24 146.911 236.077 146.12 236.077Z" fill="#263238"/>
<path d="M159.897 256.234C158.978 256.234 158.061 256.05 157.19 255.66C155.369 254.846 154.023 253.274 153.398 251.233C152.782 249.218 152.945 246.983 153.859 244.94C154.772 242.898 156.328 241.286 158.24 240.401C160.178 239.506 162.247 239.461 164.067 240.274C165.887 241.088 167.234 242.659 167.857 244.7C168.473 246.715 168.31 248.949 167.397 250.993H167.396C165.945 254.244 162.914 256.234 159.897 256.234ZM161.347 240.74C160.46 240.74 159.556 240.944 158.68 241.349C156.997 242.128 155.623 243.555 154.813 245.367C154.004 247.179 153.856 249.154 154.398 250.928C154.933 252.676 156.076 254.017 157.617 254.706C160.821 256.14 164.782 254.281 166.444 250.567C167.254 248.755 167.401 246.78 166.859 245.007C166.324 243.259 165.181 241.918 163.641 241.229C162.914 240.903 162.138 240.74 161.347 240.74Z" fill="#263238"/>
<path d="M153.372 246.703C153.294 246.505 153.187 246.443 153.103 246.41C152.733 246.267 152.113 246.493 151.925 246.585L151.465 245.647C151.58 245.589 152.615 245.104 153.477 245.435C153.876 245.589 154.176 245.895 154.344 246.318L153.372 246.703Z" fill="#263238"/>
<path d="M126.72 236.698L126.41 237.695L138.715 241.511L139.025 240.514L126.72 236.698Z" fill="#263238"/>
<path opacity="0.2" d="M125.475 333.107C125.475 333.107 101.427 351.535 80.3242 350.428C81.1806 337.871 82.622 321.219 84.7114 308.683C86.8639 306.301 88.2842 304.859 88.2842 304.859L101.112 314.429L97.9991 318.336C97.9991 318.336 117.368 317.355 124.116 318.336L125.475 333.107Z" fill="black"/>
<path d="M127.959 318.349L147.207 314.43L147.901 331.588C147.901 331.588 134.831 336.219 127.361 327.557L127.959 318.349Z" fill="#EBB376"/>
<path d="M160.612 318.398L158.067 331.311L147.899 331.588L147.205 314.43L160.612 318.398Z" fill="#EBB376"/>
<path d="M127.957 318.336L128.898 331.576L124.113 333.724L122.064 318.336H127.957Z" fill="#24774A"/>
<path opacity="0.6" d="M127.957 318.336L128.898 331.576L124.113 333.724L122.064 318.336H127.957Z" fill="white"/>
<path d="M97.3872 287.711C97.3872 287.711 89.9902 288.533 84.1836 295.352C78.377 302.171 57.9198 322.422 62.466 338.953C67.0123 355.483 110.751 343.184 124.114 333.733L122.066 318.345L91.7643 320.57L101.108 314.426C107.513 296.591 97.3872 287.711 97.3872 287.711Z" fill="#24774A"/>
<path opacity="0.7" d="M97.3872 287.711C97.3872 287.711 89.9902 288.533 84.1836 295.352C78.377 302.171 57.9198 322.422 62.466 338.953C67.0123 355.483 110.751 343.184 124.114 333.733L122.066 318.345L91.7643 320.57L101.108 314.426C107.513 296.591 97.3872 287.711 97.3872 287.711Z" fill="white"/>
<path d="M185.137 332.507L190.651 331.578V346.355L186.287 347.069L185.137 332.507Z" fill="#24774A"/>
<path opacity="0.6" d="M185.137 332.507L190.651 331.578V346.355L186.287 347.069L185.137 332.507Z" fill="white"/>
<path d="M174.004 346.235C173.994 345.426 174.02 344.593 174.123 343.813L174.285 342.594L173.105 343.291L172.402 343.706C172.16 343.792 171.926 343.924 171.69 343.977C171.218 344.123 170.787 344.123 170.409 344.004C170.033 343.88 169.692 343.615 169.382 343.26C169.086 342.913 168.804 342.42 168.66 342.016L167.629 339.133L166.901 342.18C166.828 342.484 166.78 342.79 166.721 343.096C166.65 343.391 166.544 343.66 166.463 343.947C166.223 344.446 165.956 344.887 165.61 345.105C165.271 345.331 164.786 345.346 164.232 345.227C163.687 345.109 163.094 344.818 162.599 344.51L161.012 343.52L161.657 345.134C161.925 345.803 162.145 346.537 162.312 347.257C162.386 347.621 162.446 347.987 162.46 348.355C162.464 348.719 162.449 349.105 162.221 349.431C162.546 349.201 162.745 348.796 162.842 348.405C162.947 348.01 162.998 347.601 163.006 347.198C163.015 346.874 162.995 346.558 162.973 346.241C163.231 346.388 163.5 346.523 163.794 346.64C164.526 346.932 165.517 347.021 166.395 346.583C167.277 346.144 167.755 345.361 168.103 344.642C168.116 344.603 168.131 344.563 168.145 344.523C168.612 345.023 169.241 345.453 169.982 345.618C170.759 345.79 171.572 345.688 172.213 345.39C172.496 345.276 172.737 345.116 172.987 344.968C172.992 345.003 172.995 345.036 173 345.07C173.056 345.501 173.148 345.928 173.265 346.35C173.376 346.771 173.52 347.189 173.721 347.583C173.913 347.975 174.171 348.354 174.515 348.611C174.281 348.252 174.193 347.845 174.117 347.449C174.049 347.046 174.014 346.642 174.004 346.235Z" fill="#24774A"/>
<path d="M206.693 325.604C206.093 325.689 205.275 325.595 204.584 325.38C203.89 325.156 203.144 324.814 202.594 324.421C202.021 324.008 201.526 323.466 201.125 322.843C200.719 322.244 200.359 321.519 200.147 320.879L199.548 319.07L198.523 320.685C198.11 321.336 197.528 321.999 196.951 322.506C196.362 323.019 195.7 323.357 195.113 323.342L194.892 323.33C194.807 323.318 194.708 323.292 194.616 323.275C194.428 323.244 194.241 323.183 194.052 323.131C193.678 323.014 193.309 322.848 192.95 322.658C192.242 322.278 191.54 321.737 190.979 321.199L189.389 319.673L189.715 321.764C189.887 322.862 189.99 324.037 189.933 325.143C189.893 325.691 189.815 326.246 189.612 326.698C189.412 327.159 189.037 327.381 188.499 327.339L188.082 327.307L188.211 327.645C188.473 328.332 188.751 329.015 189.036 329.695C188.947 329.085 188.846 328.478 188.741 327.873L188.909 327.899C189.085 327.9 189.271 327.841 189.455 327.804C189.623 327.73 189.78 327.619 189.938 327.515C190.058 327.386 190.181 327.252 190.297 327.112C190.694 326.531 190.849 325.899 190.979 325.284C191.103 324.664 191.163 324.048 191.184 323.433C191.184 323.423 191.184 323.414 191.184 323.404C191.483 323.641 191.793 323.866 192.127 324.074C192.553 324.332 193.001 324.566 193.481 324.748C193.986 324.921 194.41 325.08 195.064 325.105C196.311 325.14 197.345 324.535 198.12 323.893C198.492 323.584 198.815 323.254 199.113 322.904C199.29 323.223 199.482 323.532 199.703 323.837C200.239 324.571 200.907 325.237 201.706 325.746C202.531 326.268 203.348 326.529 204.242 326.734C204.82 326.839 205.388 326.901 205.984 326.862C205.913 327.05 205.832 327.233 205.769 327.423C205.61 327.952 205.474 328.487 205.391 329.036C205.295 329.579 205.277 330.14 205.321 330.689C205.366 331.235 205.501 331.794 205.803 332.242C205.613 331.739 205.641 331.202 205.688 330.693C205.749 330.179 205.876 329.679 206.04 329.191C206.367 328.215 206.843 327.293 207.367 326.403L207.941 325.426L206.693 325.604Z" fill="#24774A"/>
<path d="M69.0044 379.587H389.547C391.789 379.587 393.606 377.77 393.606 375.528V365.656H64.9453V375.528C64.9453 377.77 66.7633 379.587 69.0044 379.587Z" fill="#24774A"/>
<path opacity="0.2" d="M64.9449 372.633L393.605 372.633V365.667L64.9449 365.667V372.633Z" fill="black"/>
<path d="M58.0547 367.474H400.499C402.666 367.474 404.424 365.718 404.424 363.55C404.424 361.383 402.666 359.625 400.499 359.625H58.0547C55.8876 359.625 54.1309 361.382 54.1309 363.55C54.1299 365.717 55.8876 367.474 58.0547 367.474Z" fill="#24774A"/>
<path d="M377.289 311.715L367.291 357.064C366.967 358.557 365.513 359.641 364.045 359.641H309.431C307.977 359.641 307.042 358.286 307.379 356.792L317.365 311.789C317.702 310.308 319.144 309.57 320.611 309.57H375.226C376.693 309.571 377.615 310.235 377.289 311.715Z" fill="#263238"/>
<path opacity="0.4" d="M377.29 311.715L367.291 357.064C366.967 358.557 365.513 359.641 364.045 359.641H311.288C309.82 359.641 308.899 358.286 309.223 356.792L319.221 311.789C319.546 310.308 321 309.57 322.468 309.57H375.225C376.693 309.571 377.615 310.235 377.29 311.715Z" fill="white"/>
<path d="M368.581 358.211L378.528 313.09C378.853 311.61 377.931 310.945 376.465 310.945H323.707C322.239 310.945 320.786 311.684 320.46 313.164L310.363 358.797L368.581 358.211Z" fill="#24774A"/>
<path opacity="0.4" d="M378.521 313.084L373.277 336.924L368.576 358.214L337.403 358.528L310.367 358.799L320.459 313.168C320.793 311.684 322.235 310.953 323.697 310.953H376.474C377.936 310.953 378.855 311.621 378.521 313.084Z" fill="white"/>
<path opacity="0.2" d="M373.28 336.914L368.58 358.205L337.407 358.518H311.52L315.755 339.053C316.026 337.805 317.132 336.915 318.408 336.915H373.28V336.914Z" fill="black"/>
<path d="M374.178 339.882C373.853 338.402 372.399 337.664 370.931 337.664H318.174C316.707 337.664 315.786 338.329 316.111 339.808L320.11 357.953H311.204C310.742 357.953 310.363 358.331 310.363 358.794C310.363 359.256 310.742 359.635 311.204 359.635H320.481H374.638H376.185C377.407 359.635 378.314 358.503 378.05 357.31L374.178 339.882Z" fill="#24774A"/>
<path opacity="0.4" d="M374.178 339.882C373.853 338.402 372.399 337.664 370.931 337.664H318.174C316.707 337.664 315.786 338.329 316.111 339.808L320.11 357.953H311.204C310.742 357.953 310.363 358.331 310.363 358.794C310.363 359.256 310.742 359.635 311.204 359.635H320.481H374.638H376.185C377.407 359.635 378.314 358.503 378.05 357.31L374.178 339.882Z" fill="white"/>
<path d="M309.624 350.898H306.558L306.18 352.552H309.16L309.624 350.898Z" fill="black"/>
<path d="M290.271 359.845H281.452C281.164 359.845 280.93 359.611 280.93 359.323C280.93 359.035 281.164 358.801 281.452 358.801H290.271C293.218 358.801 295.969 357.485 297.817 355.189C299.864 352.646 302.91 351.188 306.176 351.188H307.729C308.017 351.188 308.251 351.421 308.251 351.709C308.251 351.998 308.017 352.231 307.729 352.231H306.176C303.229 352.231 300.478 353.547 298.631 355.843C296.583 358.386 293.536 359.845 290.271 359.845Z" fill="black"/>
<path d="M143.297 353.375V357.191C143.297 358.91 145.368 359.615 147.087 359.615H281.063C282.761 359.615 284.787 358.91 284.787 357.191V353.375H143.297Z" fill="#263238"/>
<path opacity="0.4" d="M143.297 353.375V357.191C143.297 358.91 145.368 359.615 147.087 359.615H281.063C282.761 359.615 284.787 358.91 284.787 357.191V353.375H143.297Z" fill="white"/>
<path opacity="0.2" d="M188.938 353.375V357.191C188.938 358.91 190.978 359.615 192.698 359.615H281.062C282.761 359.615 284.786 358.91 284.786 357.191V353.375H188.938Z" fill="black"/>
<path d="M307.205 280.882L291.256 353.224C290.737 355.606 288.418 357.335 286.077 357.335H198.955C196.635 357.335 195.144 355.173 195.682 352.791L211.612 281C212.15 278.639 214.45 277.461 216.789 277.461H303.912C306.253 277.462 307.723 278.521 307.205 280.882Z" fill="#263238"/>
<path opacity="0.4" d="M307.204 280.882L291.255 353.224C290.737 355.606 288.417 357.335 286.076 357.335H201.917C199.576 357.335 198.106 355.173 198.623 352.791L214.573 281C215.092 278.639 217.41 277.461 219.752 277.461H303.912C306.252 277.462 307.723 278.521 307.204 280.882Z" fill="white"/>
<path opacity="0.2" d="M264.25 317.654V317.675C264.25 323.869 257.609 328.903 252.741 328.903C247.873 328.903 244.988 323.869 246.376 317.675C247.764 311.606 252.608 306.655 257.372 306.469C255.983 312.662 258.956 317.675 263.804 317.675C263.908 317.674 264.25 317.674 264.25 317.654Z" fill="black"/>
</svg>
