<svg width="132" height="90" viewBox="0 0 132 90" fill="none" xmlns="http://www.w3.org/2000/svg">
<path d="M110.231 52.1435C110.231 52.1435 114.122 60.1775 105.844 60.1775H97.841C96.001 60.1775 94.339 62.6435 94.171 64.4755L94.095 75.8265H88.625L89.594 59.3815C89.669 57.6885 92.135 55.8655 93.81 55.6055L101.518 54.3405C102.204 54.2455 102.465 53.8435 102.739 53.2085L103.359 51.7705L110.231 52.1435Z" fill="#E5AB6D"/>
<path d="M92.1298 74.3484L92.2118 74.3184H92.7848V78.8174H84.5028C84.5028 78.8174 83.7288 74.9134 92.1298 74.3484Z" fill="#2C2E3B"/>
<path d="M112.938 52.1435C112.938 52.1435 116.515 60.0705 108.237 60.0705L98.7456 60.3385C96.9056 60.3385 95.0286 61.2115 94.8606 64.4765L94.7846 75.8275H90.0156L90.9846 59.3825C91.0596 57.6895 92.9876 55.6615 94.6636 55.4025L100.752 54.4755C101.722 54.3255 102.547 53.6865 102.936 52.7845L103.372 51.7725L112.938 52.1435Z" fill="#FCC083"/>
<path d="M106.939 61.21H104.945V77.4909H106.939V61.21Z" fill="#777C7C"/>
<path d="M101.165 73.2656H105.897H105.941H110.673C111.04 73.2656 111.337 73.5636 111.337 73.9306V76.8276C111.337 77.1946 111.04 77.4916 110.673 77.4916C110.673 77.4916 109.731 77.4876 109.724 77.4876V75.7766C109.724 75.3546 109.381 75.0116 108.958 75.0116H105.94H105.896H102.879C102.456 75.0116 102.113 75.3546 102.113 75.7766V77.4876C102.106 77.4876 101.164 77.4916 101.164 77.4916C100.797 77.4916 100.5 77.1946 100.5 76.8276V73.9306C100.501 73.5636 100.798 73.2656 101.165 73.2656Z" fill="#777C7C"/>
<path d="M108.875 77.8578C108.875 78.8558 109.684 79.6648 110.682 79.6648C111.68 79.6648 112.488 78.8558 112.488 77.8578C112.488 76.8608 111.679 76.0518 110.682 76.0518C109.683 76.0528 108.875 76.8608 108.875 77.8578Z" fill="#51535E"/>
<path d="M104.141 77.8578C104.141 78.8558 104.95 79.6648 105.947 79.6648C106.945 79.6648 107.754 78.8558 107.754 77.8578C107.754 76.8608 106.945 76.0518 105.947 76.0518C104.95 76.0528 104.141 76.8608 104.141 77.8578Z" fill="#51535E"/>
<path d="M99.4062 77.8579C99.4062 78.8559 100.215 79.6649 101.212 79.6649C102.21 79.6649 103.019 78.8559 103.019 77.8579C103.019 76.8609 102.21 76.0519 101.212 76.0519C100.215 76.0529 99.4062 76.8609 99.4062 77.8579Z" fill="#51535E"/>
<path d="M117.672 55.9327L114.685 61.1337L112.625 59.7148L114.99 54.3447L117.672 55.9327Z" fill="#51535E"/>
<path d="M98.3111 63.5981H112.985C114.425 63.5981 115.593 62.4311 115.593 60.9911V60.9381C115.593 59.4981 114.425 58.3301 112.985 58.3301H98.3111C96.8711 58.3301 95.7031 59.4981 95.7031 60.9381V60.9911C95.7031 62.4311 96.8701 63.5981 98.3111 63.5981Z" fill="#8C9090"/>
<path d="M116.136 57.4784L116.189 57.4854C117.645 57.6794 118.969 56.7494 119.147 55.4084L121.229 39.7784C121.408 38.4374 120.374 37.1934 118.918 36.9994L118.865 36.9924C117.41 36.7984 116.085 37.7284 115.907 39.0694L113.825 54.6994C113.646 56.0394 114.681 57.2834 116.136 57.4784Z" fill="#8C9090"/>
<path d="M94.216 74.3484L94.2981 74.3184H94.871V78.8174H86.5891C86.5891 78.8174 85.815 74.9134 94.216 74.3484Z" fill="#3C3C3C"/>
<path d="M112.943 52.1435L103.378 51.7705L103.352 51.8295L102.053 51.7705L101.434 53.2085C101.16 53.8435 100.899 54.2455 100.214 54.3405L92.5055 55.6055C90.8305 55.8665 88.3645 57.6885 88.2895 59.3815L88.0625 63.2245H90.7655H94.5005H96.9765C97.0885 61.7395 97.3185 60.3385 98.7525 60.3385L104.449 60.1785H105.854C106.313 60.1785 106.73 60.1505 107.119 60.1025L108.243 60.0715C116.521 60.0695 112.943 52.1435 112.943 52.1435Z" fill="#4F4F4F"/>
<path d="M103.668 39.0226C103.668 39.0226 99.5808 43.7006 98.6658 43.8806L89.6328 44.0846L90.1868 48.2386L100.049 47.7376C102.313 47.3306 104.518 44.7836 104.26 42.3996C104.26 42.3996 104.664 38.9236 103.668 39.0226Z" fill="#DCD6C6"/>
<path d="M89.677 44.0898C89.675 44.0898 89.6731 44.0898 89.6711 44.0898C88.5201 44.2318 86.813 44.6458 87.093 46.6628C87.336 48.4068 89.0311 48.3998 90.1821 48.2598C90.1841 48.2598 90.1851 48.2588 90.1871 48.2588L89.677 44.0898Z" fill="#FCB772"/>
<path d="M105.496 32.6914L105.118 36.8104L104.906 39.1274H109.476L109.064 34.6354L108.885 32.6914H105.496Z" fill="#FCC083"/>
<path d="M108.891 32.6914L109.241 36.4954C108.368 36.9194 105.166 36.7984 105.125 36.8094L105.503 32.6914H108.891Z" fill="#E8AA63"/>
<path d="M110.178 29.7787C110.178 33.0837 107.897 35.7617 105.083 35.7617C102.269 35.7617 100.387 33.0777 100.206 29.7787C100.117 28.1607 100.219 26.2247 100.142 25.2757C99.9538 22.9587 102.742 23.7957 105.083 23.7957C107.896 23.7957 110.178 26.4747 110.178 29.7787Z" fill="#FCC083"/>
<path d="M113.473 45.5271C113.289 43.6801 112.955 40.6401 111.881 39.1271C111.125 38.0621 110.277 37.3431 109.334 36.9581C108.792 37.3791 107.744 37.8081 106.867 37.8081C106.083 37.8081 105.437 37.5971 104.921 37.2521C103.399 38.0481 102.943 39.8111 102.297 42.0401C102.109 42.6881 101.997 43.3571 101.953 44.0301L100.172 53.0801L113.935 53.5631L113.473 45.5271Z" fill="#C6C3B2"/>
<path d="M104.081 37.9043C104.704 38.8653 105.517 39.6923 106.522 40.2993C106.6 40.4913 106.665 40.6603 106.689 40.7443C107.085 42.1273 107.292 42.6923 107.627 44.0893C108.225 46.5803 107.01 49.6273 105.154 53.3523L100.172 53.0813L101.953 44.0313C101.997 43.3583 102.109 42.6893 102.297 42.0413C102.806 40.2923 103.203 38.8383 104.081 37.9043Z" fill="#DADED6"/>
<path d="M105.204 39.2549C104.998 39.6569 104.789 40.0569 104.568 40.4489C103.679 41.9939 102.719 43.4939 101.766 44.9989L101.956 44.0299C102 43.3569 102.112 42.6879 102.3 42.0399C102.946 39.8109 103.402 38.048 104.924 37.252C105.2 37.436 105.518 37.575 105.871 37.67C105.648 38.198 105.424 38.7259 105.204 39.2549Z" fill="#F8F1DF"/>
<path d="M90.1886 45.6417C90.1886 45.6417 86.9186 44.9537 86.8446 47.8527C86.7836 50.2667 89.9136 50.0417 89.9136 50.0417L90.1886 45.6417Z" fill="#FCC083"/>
<path d="M90.1086 45.6498L89.8906 50.0848L101.185 50.0598C103.438 49.7208 106.882 44.9618 106.882 44.9618C108.008 43.8908 110.907 39.5058 107.191 38.6578C104.859 38.1258 102.559 43.2318 101.298 44.9968C100.692 45.8448 99.5056 45.8048 99.1646 45.7988L90.1086 45.6498Z" fill="#EBE8DF"/>
<path d="M107.592 26.9981C107.592 26.9981 106.078 38.1141 106.372 41.2491H115.117C114.887 39.8181 113.346 30.3851 112.219 26.6001C111.52 24.2531 110.015 21.6201 104.911 21.6201C103.581 21.6201 99.8165 22.4991 98.9375 26.3331C98.9375 26.3331 102.704 28.3981 107.592 26.9981Z" fill="#9D6B3B"/>
<path d="M91.4583 32.8743L89.0993 29.4593C89.0993 29.4593 83.1023 32.7433 79.8063 34.4213C79.0963 34.7823 78.2323 34.5653 77.7823 33.9073C77.1863 33.0363 75.4243 30.3503 73.3323 27.6833C73.3323 27.6833 71.3413 26.5783 70.0883 27.2453C69.4143 27.6053 71.0053 34.4483 71.0053 34.4483C71.0053 34.4483 75.5763 39.4803 76.7283 40.3453C79.9053 42.7283 91.4583 32.8743 91.4583 32.8743Z" fill="#57B6E7"/>
<path d="M89.0938 29.4521C89.4818 29.0201 90.0118 28.6901 90.6358 28.5731C91.9768 28.3201 93.1787 29.0981 93.3197 30.3101C93.4487 31.4241 92.6318 32.5081 91.4588 32.8741L89.0938 29.4521Z" fill="#FCC083"/>
<path d="M38.9062 32.8743L41.2652 29.4593C41.2652 29.4593 47.2622 32.7433 50.5592 34.4213C51.2692 34.7823 52.1333 34.5653 52.5833 33.9073C53.1793 33.0363 54.9412 30.3503 57.0332 27.6833C57.0332 27.6833 59.0243 26.5783 60.2773 27.2453C60.9513 27.6053 59.3602 34.4483 59.3602 34.4483C59.3602 34.4483 54.7892 39.4803 53.6372 40.3453C50.4592 42.7283 38.9062 32.8743 38.9062 32.8743Z" fill="#57B6E7"/>
<path d="M41.2706 29.4521C40.8826 29.0201 40.3536 28.6901 39.7286 28.5731C38.3876 28.3201 37.1856 29.0981 37.0446 30.3101C36.9156 31.4241 37.7326 32.5081 38.9056 32.8741L41.2706 29.4521Z" fill="#FCC083"/>
<path d="M72.5356 47.9404H66.0156V75.5714H72.5356V47.9404Z" fill="#4D5053"/>
<path d="M64.6039 47.9404H57.7969V75.5714H64.6039V47.9404Z" fill="#4D5053"/>
<path d="M69.6849 47.9404H60.7109V50.5874H69.6849V47.9404Z" fill="#4D5053"/>
<path d="M72.6556 78.3391C72.8616 77.9561 72.9826 77.5332 72.9826 77.0872C72.9826 75.3782 71.3016 73.9932 69.2296 73.9932C67.1566 73.9932 65.4766 75.3782 65.4766 77.0872C65.4766 77.5332 65.5966 77.9561 65.8036 78.3391H72.6556Z" fill="#353535"/>
<path d="M57.9207 78.3391C57.7137 77.9561 57.5938 77.5332 57.5938 77.0872C57.5938 75.3782 59.2738 73.9932 61.3468 73.9932C63.4198 73.9932 65.0997 75.3782 65.0997 77.0872C65.0997 77.5332 64.9798 77.9561 64.7728 78.3391H57.9207Z" fill="#353535"/>
<path d="M72.533 48.5399L73.337 27.6848C71.123 26.6518 67.763 25.8389 67.763 25.8389C67.763 25.8389 67.764 25.8499 67.764 25.8629L67.682 25.8389C67.682 25.8469 67.891 27.9578 66.921 30.9858H63.369C62.399 27.9588 62.607 25.8469 62.608 25.8389L62.526 25.8629C62.526 25.8489 62.527 25.8389 62.527 25.8389C62.527 25.8389 59.214 26.6389 57 27.6609L57.798 48.5399H72.533Z" fill="#35A6E0"/>
<path d="M67.067 23.4805H65.362H64.999H63.294C63.294 23.4805 63.87 26.7575 61.125 29.4675L64.999 34.1475H65.362L69.235 29.4675C66.491 26.7585 67.067 23.4805 67.067 23.4805Z" fill="#FCC083"/>
<path d="M67.0695 23.4805H65.3645H65.0015H63.2965C63.2965 23.4805 63.5755 25.0775 62.8125 26.9625C64.3885 26.3485 65.6455 25.0504 67.0315 23.8604C67.0455 23.6194 67.0695 23.4805 67.0695 23.4805Z" fill="#E8AA63"/>
<path d="M63.09 26.1318C62.811 27.1648 62.244 28.3638 61.125 29.4688L64.999 34.1488H65.362L69.235 29.4688C68.116 28.3648 67.549 27.1648 67.27 26.1318L65.199 27.4298L63.09 26.1318Z" fill="#ECEDED"/>
<path d="M63.088 26.1319C62.809 27.1649 64.913 28.7849 64.913 28.7849L63.862 33.0808L65.179 34.8048L66.493 33.0808L65.504 28.8148C65.504 28.8148 67.549 27.1649 67.27 26.1309L65.199 27.4828L63.088 26.1319Z" fill="#353535"/>
<path opacity="0.35" d="M68.388 26.9114L67.228 26.2344L65.194 27.4824L63.161 26.2344L62 26.9114L63.999 29.7464L65.194 27.9694L66.39 29.7464L68.388 26.9114Z" fill="#7D7D7D"/>
<path d="M65.2031 27.4826L66.3991 29.1106L68.3111 26.2756L67.2371 25.5996L65.2031 27.4826Z" fill="#ECEDED"/>
<path d="M65.1987 27.4827L64.0037 29.1107L62.0547 26.3477L63.1257 25.5997L65.1987 27.4827Z" fill="#ECEDED"/>
<path d="M68.5587 28.4657L69.3117 26.2857L67.5367 25.7637C67.5367 25.7637 67.6487 27.6557 66.8327 30.3607C66.2197 32.3937 65.3127 34.4607 65.1857 34.7537C65.0597 34.4607 64.1787 32.3947 63.5657 30.3607C62.7507 27.6557 62.8617 25.7637 62.8617 25.7637L61.0867 26.2857L61.8397 28.4657L60.5547 29.0847L65.1927 34.9387L69.8437 29.0847L68.5587 28.4657Z" fill="#57B6E7"/>
<path d="M67.8402 10.9741C67.3262 10.7501 65.8162 10.4571 65.1262 10.4531C64.4362 10.4581 62.9262 10.7511 62.4122 10.9741C60.0212 12.0131 59.9922 14.0331 59.9922 17.1781H65.1262H70.2602C70.2602 14.0321 70.2312 12.0131 67.8402 10.9741Z" fill="#3C3C3C"/>
<path d="M70.4215 16.9457C70.2675 16.5497 69.9995 16.7547 69.7905 17.0147C69.8505 13.9407 68.2275 12.3787 68.2275 12.3787H65.1795H62.1305C62.1305 12.3787 60.4965 13.9367 60.5485 16.9917C60.3425 16.7417 60.0855 16.5597 59.9365 16.9447C59.6595 17.6597 60.3105 18.6387 60.1855 19.6317C60.1015 20.3027 60.6305 20.2357 60.9655 20.0477C61.0915 20.5557 61.2785 21.1537 61.5805 21.8557C62.2185 23.3377 64.0475 24.6877 65.1695 24.6877C66.2925 24.6877 68.0945 23.3277 68.7585 21.8557C69.0635 21.1787 69.2545 20.6177 69.3755 20.0397C69.7095 20.2327 70.2575 20.3137 70.1715 19.6317C70.0475 18.6407 70.6985 17.6607 70.4215 16.9457Z" fill="#FCC083"/>
<path d="M61.6172 12.2897C61.6172 12.2897 65.0362 18.7047 70.4032 12.0407C70.4032 12.0407 65.6992 8.30367 61.6172 12.2897Z" fill="#3C3C3C"/>
<path d="M61.5381 19.5496C61.3171 17.6536 61.1301 13.2146 63.9711 11.9776L63.1021 11.5566C63.1021 11.5566 60.5611 12.0706 60.3281 15.9946L61.0101 20.1376H61.0161C61.3301 20.1366 61.5741 19.8626 61.5381 19.5496Z" fill="#3C3C3C"/>
<path d="M69.3052 20.137H69.3332L70.0102 16.021C69.7772 12.097 67.2362 11.583 67.2362 11.583L66.3672 12.004C69.2052 13.24 69.0202 17.672 68.8002 19.572C68.7652 19.874 69.0022 20.137 69.3052 20.137Z" fill="#3C3C3C"/>
<path d="M26.3055 61.21H24.3125V77.4909H26.3055V61.21Z" fill="#777C7C"/>
<path d="M30.0793 73.2656H25.3472H25.3022H20.5703C20.2033 73.2656 19.9062 73.5636 19.9062 73.9306V76.8276C19.9062 77.1946 20.2033 77.4916 20.5703 77.4916C20.5703 77.4916 21.5112 77.4876 21.5192 77.4876V75.7766C21.5192 75.3546 21.8613 75.0116 22.2843 75.0116H25.3022H25.3472H28.3652C28.7872 75.0116 29.1302 75.3546 29.1302 75.7766V77.4876C29.1372 77.4876 30.0793 77.4916 30.0793 77.4916C30.4463 77.4916 30.7433 77.1946 30.7433 76.8276V73.9306C30.7433 73.5636 30.4463 73.2656 30.0793 73.2656Z" fill="#777C7C"/>
<path d="M22.3786 77.8579C22.3786 78.8559 21.5696 79.6649 20.5726 79.6649C19.5746 79.6649 18.7656 78.8559 18.7656 77.8579C18.7656 76.8609 19.5746 76.0519 20.5726 76.0519C21.5696 76.0529 22.3786 76.8609 22.3786 77.8579Z" fill="#51535E"/>
<path d="M27.114 77.8578C27.114 78.8558 26.305 79.6648 25.307 79.6648C24.31 79.6648 23.5 78.8558 23.5 77.8578C23.5 76.8608 24.309 76.0518 25.307 76.0518C26.305 76.0528 27.114 76.8608 27.114 77.8578Z" fill="#51535E"/>
<path d="M31.8474 77.8578C31.8474 78.8558 31.0384 79.6648 30.0404 79.6648C29.0424 79.6648 28.2344 78.8558 28.2344 77.8578C28.2344 76.8608 29.0434 76.0518 30.0404 76.0518C31.0394 76.0528 31.8474 76.8608 31.8474 77.8578Z" fill="#51535E"/>
<path d="M13.5781 55.9327L16.5641 61.1337L18.6251 59.7148L16.2601 54.3447L13.5781 55.9327Z" fill="#51535E"/>
<path d="M32.9372 63.5981H18.2643C16.8243 63.5981 15.6562 62.4311 15.6562 60.9911V60.9381C15.6562 59.4981 16.8243 58.3301 18.2643 58.3301H32.9372C34.3782 58.3301 35.5452 59.4981 35.5452 60.9381V60.9911C35.5452 62.4311 34.3772 63.5981 32.9372 63.5981Z" fill="#8C9090"/>
<path d="M15.1131 57.4784L15.0601 57.4854C13.6051 57.6794 12.2801 56.7494 12.1021 55.4084L10.0201 39.7784C9.84112 38.4374 10.8761 37.1934 12.3311 36.9994L12.3851 36.9924C13.8401 36.7984 15.1641 37.7284 15.3431 39.0694L17.4251 54.6994C17.6031 56.0394 16.5681 57.2834 15.1131 57.4784Z" fill="#8C9090"/>
<path d="M37.7856 73.9598L37.6896 73.9258H37.0156V79.2088H46.7426C46.7426 79.2088 47.6516 74.6248 37.7856 73.9598Z" fill="#2C2E3B"/>
<path d="M35.3393 73.9598L35.2433 73.9258H34.5703V79.2088H44.2973C44.2973 79.2088 45.2063 74.6248 35.3393 73.9598Z" fill="#3C3C3C"/>
<path d="M21.023 52.1425C21.023 52.1425 17.132 60.1765 25.41 60.1765H33.413C35.253 60.1765 36.915 62.6425 37.083 64.4745L37.159 75.8255H43.946L42.976 59.3805C42.901 57.6875 40.435 55.8645 38.76 55.6045L31.052 54.3395C30.367 54.2445 30.105 53.8425 29.831 53.2075L29.211 51.7695L21.023 52.1425Z" fill="#3C3C3C"/>
<path d="M18.3156 52.1425C18.3156 52.1425 14.7386 60.0695 23.0166 60.0695L32.5076 60.3375C34.3476 60.3375 34.2066 62.6435 34.3746 64.4755L34.4506 75.8265H41.2366L40.2676 59.3815C40.1926 57.6885 38.2646 55.6605 36.5886 55.4015L30.5016 54.4745C29.5316 54.3245 28.7066 53.6855 28.3176 52.7835L27.8806 51.7715L18.3156 52.1425Z" fill="#4F4F4F"/>
<path d="M27.5793 39.0216C27.5793 39.0216 31.6653 43.6996 32.5813 43.8796L41.6143 44.0836L41.0603 48.2376L31.1983 47.7366C28.9343 47.3296 26.7293 44.7826 26.9873 42.3986C26.9873 42.3986 26.5833 38.9226 27.5793 39.0216Z" fill="#2C2F33"/>
<path d="M41.5735 44.0889C41.5755 44.0889 41.5765 44.0889 41.5785 44.0889C42.7295 44.2309 44.4365 44.6449 44.1565 46.6619C43.9145 48.4059 42.2195 48.3988 41.0685 48.2589C41.0665 48.2589 41.0645 48.2578 41.0625 48.2578L41.5735 44.0889Z" fill="#FCB772"/>
<path d="M25.7446 32.6914L26.1236 36.8104L26.3366 39.1274H21.7656L22.1776 34.6354L22.3566 32.6914H25.7446Z" fill="#FCC083"/>
<path d="M22.3568 32.6914L22.0078 36.4954C22.8808 36.9194 26.0828 36.7984 26.1238 36.8094L25.7458 32.6914H22.3568Z" fill="#E8AA63"/>
<path d="M21.0781 29.7787C21.0781 33.0837 23.3591 35.7617 26.1731 35.7617C28.9871 35.7617 30.8691 33.0777 31.0491 29.7787C31.1381 28.1607 31.0361 26.2247 31.1131 25.2757C31.3011 22.9587 28.5131 23.7957 26.1721 23.7957C23.3591 23.7957 21.0781 26.4747 21.0781 29.7787Z" fill="#FCC083"/>
<path d="M31.8701 21.3589C31.8701 21.3589 34.3101 29.3129 23.6641 26.2649C23.6641 26.2649 22.9571 31.5109 21.0791 32.6909C21.0791 32.6909 16.9371 24.5509 21.5681 22.9449C21.5681 22.9449 22.9941 19.2819 27.1381 21.2419C29.0581 22.1499 30.0231 22.0499 31.8701 21.3589Z" fill="#3C3C3C"/>
<path d="M17.7765 45.527C17.9605 43.68 18.2945 40.64 19.3685 39.127C20.1245 38.062 20.9725 37.343 21.9145 36.958C22.4565 37.379 23.5045 37.808 24.3815 37.808C25.1655 37.808 25.8115 37.597 26.3275 37.252C27.8485 38.048 28.3045 39.811 28.9515 42.04C29.1395 42.688 29.2515 43.357 29.2955 44.03L31.0755 53.08L17.3125 53.563L17.7765 45.527Z" fill="#383C3F"/>
<path opacity="0.75" d="M27.1684 37.9043C26.5454 38.8653 25.7324 39.6923 24.7284 40.2993C24.6504 40.4913 24.5854 40.6603 24.5614 40.7443C24.1654 42.1273 23.9584 42.6923 23.6224 44.0893C23.0244 46.5803 24.2394 49.6273 26.0944 53.3523L31.0754 53.0813L29.2954 44.0313C29.2514 43.3583 29.1384 42.6893 28.9514 42.0413C28.4454 40.2923 28.0474 38.8383 27.1684 37.9043Z" fill="#5A5A5A"/>
<path d="M26.0566 39.2549C26.2626 39.6569 26.4706 40.0569 26.6926 40.4489C27.5816 41.9939 28.5416 43.4939 29.4956 44.9989L29.3056 44.0299C29.2616 43.3569 29.1486 42.6879 28.9616 42.0399C28.3146 39.8109 27.8596 38.048 26.3376 37.252C26.0616 37.436 25.7436 37.575 25.3906 37.67C25.6126 38.198 25.8366 38.7259 26.0566 39.2549Z" fill="#F8F1DF"/>
<path d="M41.0547 45.6416C41.0547 45.6416 44.3257 44.9536 44.3987 47.8526C44.4597 50.2666 41.3297 50.0416 41.3297 50.0416L41.0547 45.6416Z" fill="#FCC083"/>
<path d="M41.1338 45.6498L41.3518 50.0848L30.0578 50.0598C27.8048 49.7208 24.3608 44.9618 24.3608 44.9618C23.2348 43.8908 20.3358 39.5058 24.0518 38.6578C26.3838 38.1258 28.6838 43.2318 29.9448 44.9968C30.5498 45.8448 31.7368 45.8048 32.0778 45.7988L41.1338 45.6498Z" fill="#4D5053"/>
<path d="M82.2159 50.6045H46.2969V66.8715H82.2159V50.6045Z" fill="#7B7F7F"/>
<path d="M48.2248 51.166H44.3828V79.382H48.2248V51.166Z" fill="#4F4F4F"/>
<path d="M84.8889 51.166H81.0469V79.382H84.8889V51.166Z" fill="#4F4F4F"/>
<path d="M95.1985 49.2891H33.3125V53.0431H95.1985V49.2891Z" fill="#4F4F4F"/>
</svg>
