<svg width="116" height="71" viewBox="0 0 116 71" fill="none" xmlns="http://www.w3.org/2000/svg">
<path d="M80.5043 10.249C75.509 10.249 71.2689 13.683 71.022 18.1243H70.9885L69.5801 43.3451H91.3964L89.988 18.1243C89.7385 13.6816 85.497 10.249 80.5043 10.249Z" fill="#FEB500"/>
<path d="M71.785 49.6153L72.1901 46.9701C72.1901 46.9701 74.6904 36.0606 73.6589 36.3758C70.1324 37.4516 68.3202 38.7595 67.2524 44.2485C66.9748 45.6824 66.626 47.5805 66.2598 49.6167L71.785 49.6153Z" fill="#3C3C3C"/>
<path d="M89.062 49.6147H94.5886C94.2224 47.5798 93.8749 45.6804 93.5959 44.2465C92.5282 38.7575 90.7159 37.4497 87.1894 36.3739C86.1566 36.0587 88.6583 46.9682 88.6583 46.9682L89.062 49.6147Z" fill="#3C3C3C"/>
<path d="M83.0047 30.3359H80.7458H80.2656H78.0067C78.0067 30.3359 78.7699 35.7847 75.1348 40.289L80.2642 48.5694H80.7445L85.8753 40.289C82.2415 35.7847 83.0047 30.3359 83.0047 30.3359Z" fill="#FCC083"/>
<path d="M80.7449 30.3359H80.2646H78.0058C78.0058 30.3359 78.3854 33.0965 77.2988 36.3118C79.5081 34.9356 81.5819 33.4238 82.9434 31.1998C82.9608 30.6565 83.0037 30.3359 83.0037 30.3359H80.7449Z" fill="#E8AA63"/>
<path d="M75.1895 37.5935L80.268 48.5701H80.7482L85.828 37.5935H75.1895Z" fill="#ECEDED"/>
<path d="M88.7514 20.0385C88.5086 19.4148 88.0861 19.7367 87.7575 20.1485C87.8514 15.3048 85.2933 12.8433 85.2933 12.8433L80.4898 11.2578L75.6863 12.8433C75.6863 12.8433 73.1108 15.2981 73.1927 20.1123C72.868 19.7193 72.4643 19.4322 72.2282 20.0385C71.7923 21.1653 72.8171 22.7079 72.6212 24.2733C72.4884 25.3303 73.3228 25.2243 73.8513 24.9292C74.0498 25.7287 74.3449 26.673 74.8211 27.777C75.8258 30.1137 78.7071 32.2412 80.4764 32.2412C82.2443 32.2412 85.0841 30.0963 86.1317 27.777C86.6119 26.712 86.9137 25.8266 87.1056 24.9158C87.6314 25.2217 88.4952 25.3478 88.3611 24.2733C88.1625 22.7079 89.1874 21.1653 88.7514 20.0385Z" fill="#FCC083"/>
<path d="M88.8987 49.6132L88.8544 49.023L88.283 41.4737C88.2052 40.3147 87.9772 37.5863 87.6821 36.5253L83.4393 35.6172L80.4681 46.6756L77.4982 35.6172L73.242 36.528C72.9456 37.5917 72.7175 40.3161 72.6411 41.475L72.0696 49.0244L72.0254 49.6146L88.8987 49.6132Z" fill="#4D5053"/>
<path d="M80.5012 10.249C75.53 10.249 71.4549 14.2598 71.416 19.2202V19.4711H73.915C75.4294 16.5951 77.0243 14.6327 80.5012 14.6327C83.9768 14.6327 85.3678 16.5951 86.8822 19.4711H89.5435V19.2913C89.5435 14.2973 85.4939 10.249 80.5012 10.249Z" fill="#FEB500"/>
<path d="M80.4576 12.6816C80.4576 12.6816 79.4314 20.0566 87.5723 22.1559C87.5723 22.1559 89.6515 12.9741 80.4576 12.6816Z" fill="#FEB500"/>
<path d="M80.4512 12.6816C80.4512 12.6816 81.4773 20.0566 73.3364 22.1559C73.3364 22.1559 71.2573 12.9741 80.4512 12.6816Z" fill="#FEB500"/>
<path d="M72.2175 55.2853C72.3074 55.7548 72.4161 56.4402 72.5287 57.233H80.7944C80.3973 52.561 79.9681 48.1706 79.571 45.4972C78.6804 39.5025 73.0036 39.8245 69.1538 40.0418C67.7909 40.1182 71.5093 54.3249 71.5093 54.3249L72.2175 55.2853Z" fill="#57B6E7"/>
<path d="M49.3093 57.2331C49.4234 56.4403 49.5307 55.7549 49.6192 55.2854L50.3261 54.3263C50.3261 54.3263 54.0444 40.1197 52.6829 40.0432C48.8318 39.8272 43.155 39.504 42.2657 45.4986C41.8686 48.1707 41.4394 52.5624 41.041 57.2344L49.3093 57.2331Z" fill="#57B6E7"/>
<path d="M74.8545 57.2329L75.5077 40.2603C71.556 38.4159 65.556 36.9658 65.556 36.9658C65.556 36.9672 65.5573 36.9859 65.5573 37.0087L65.4111 36.9658C65.4125 36.9806 65.784 40.7499 64.0523 46.1543H57.7102C55.9784 40.7499 56.35 36.9806 56.35 36.9658L56.2038 37.0087C56.2052 36.9846 56.2065 36.9672 56.2065 36.9658C56.2065 36.9658 50.2923 38.3944 46.3379 40.22L46.9871 57.2342L74.8545 57.2329Z" fill="#35A6E0"/>
<path d="M64.305 32.7559H61.2614H60.6148H57.5685C57.5685 32.7559 58.5987 38.6083 53.6973 43.4481L60.6135 51.8036H61.26L68.1762 43.4481C63.2775 38.6083 64.305 32.7559 64.305 32.7559Z" fill="#FCC083"/>
<path d="M64.3067 32.7559H61.2631H60.6166H57.5703C57.5703 32.7559 58.0693 35.6077 56.7051 38.9745C59.5193 37.8773 61.7621 35.5607 64.237 33.4346C64.2638 33.004 64.3067 32.7559 64.3067 32.7559Z" fill="#E8AA63"/>
<path d="M57.205 37.4875C56.706 39.3319 55.6946 41.4741 53.6973 43.4473L60.6135 51.8028H61.26L68.1762 43.4473C66.1776 41.4741 65.1662 39.3319 64.6672 37.4875L60.9703 39.8054L57.205 37.4875Z" fill="#ECEDED"/>
<path d="M57.2038 37.4873C56.7048 39.3317 60.4621 42.2264 60.4621 42.2264L58.5842 49.8952L60.9343 52.9736L63.2803 49.8952L61.5151 42.2787C61.5151 42.2787 65.1663 39.3317 64.6673 37.4873L60.9705 39.9018L57.2038 37.4873Z" fill="#353535"/>
<path opacity="0.35" d="M66.6826 38.8824L64.6101 37.6738L60.979 39.9032L57.3479 37.6738L55.2754 38.8824L58.8435 43.9435L60.979 40.7711L63.1145 43.9435L66.6826 38.8824Z" fill="#7D7D7D"/>
<path d="M60.9863 39.9003L63.1218 42.8071L66.5356 37.7461L64.6175 36.5361L60.9863 39.9003Z" fill="#ECEDED"/>
<path d="M60.9828 39.9003L58.8473 42.8071L55.3691 37.8722L57.2793 36.5361L60.9828 39.9003Z" fill="#ECEDED"/>
<path d="M66.9806 41.6542L68.3247 37.7628L65.1563 36.8292C65.1563 36.8292 65.3548 40.2082 63.8981 45.0385C62.8048 48.667 61.1845 52.3585 60.9591 52.8803C60.7338 52.3571 59.1603 48.667 58.0671 45.0385C56.6103 40.2082 56.8088 36.8292 56.8088 36.8292L53.6392 37.7628L54.9846 41.6542L52.6895 42.7608L60.9725 53.2129L69.2757 42.7608L66.9806 41.6542Z" fill="#57B6E7"/>
<path d="M65.6938 10.4221C64.7749 10.0224 62.0814 9.5006 60.8487 9.49121C59.6159 9.5006 56.9198 10.0224 56.0023 10.4221C51.7326 12.2786 51.6816 15.8843 51.6816 21.5007H60.8487H70.0157C70.0144 15.8843 69.9621 12.2786 65.6938 10.4221Z" fill="#8C5119"/>
<path d="M70.3085 21.085C70.0336 20.3781 69.556 20.7429 69.1818 21.2084C69.2287 18.7456 68.668 16.8583 68.0389 15.49C66.5124 14.9199 65.2475 14.0346 64.2495 12.9307H57.9544C56.9014 13.8039 55.6311 14.4706 54.1421 14.8556C53.395 16.2305 52.6304 18.3284 52.6787 21.1668C52.3111 20.7215 51.8524 20.3968 51.5868 21.0823C51.0918 22.3579 52.2548 24.1071 52.0321 25.8791C51.8819 27.077 52.8262 26.9576 53.4245 26.6222C53.6498 27.529 53.9852 28.5981 54.5217 29.8496C55.6606 32.4962 58.9255 34.9066 60.9295 34.9066C62.9336 34.9066 66.1516 32.4774 67.3374 29.8496C67.882 28.6424 68.2227 27.639 68.4386 26.6075C69.0342 26.9535 70.0134 27.0957 69.8619 25.8791C69.6405 24.1098 70.8022 22.3606 70.3085 21.085Z" fill="#FCC083"/>
<path d="M69.0128 16.808C68.9605 16.4632 68.8988 16.1333 68.8277 15.8167C68.5205 14.4404 67.5386 13.3526 66.3367 12.6148C66.0738 12.4525 65.8203 12.2808 65.5788 12.0984C64.6009 11.3606 63.45 10.8857 62.2253 10.8857H59.6969C58.7056 10.8857 57.7263 11.1366 56.8826 11.6557C56.6666 11.7885 56.444 11.9132 56.2133 12.0313C54.6948 12.8066 53.446 14.0662 53.0556 15.7255C52.9751 16.0622 52.9081 16.4149 52.8517 16.7852C52.57 17.6235 52.3648 18.6041 52.291 19.7738L53.5077 26.7852H53.5184C54.0818 26.7852 54.5178 26.3238 54.452 25.7926C54.1274 23.1393 53.6982 17.7577 56.4225 14.7798C57.3253 13.7925 58.6452 13.3029 59.9812 13.2493C60.5151 13.2278 61.1308 13.2198 61.7371 13.2439C63.6472 13.319 65.4058 14.3895 66.2925 16.0823C67.9316 19.2077 67.6942 23.5713 67.4192 25.8302C67.3562 26.3412 67.7787 26.7852 68.3206 26.7852H68.3702L69.5788 19.8181C69.5064 18.639 69.2971 17.6504 69.0128 16.808Z" fill="#8C5119"/>
<path d="M34.0625 2.66575C32.7559 2.09834 28.925 1.35521 27.1718 1.3418C25.4172 1.35655 21.5862 2.09834 20.2797 2.66575C14.2086 5.3056 14.1348 10.4337 14.1348 18.4204H27.1718H40.2074C40.2074 10.4337 40.1336 5.30694 34.0625 2.66575Z" fill="#646464"/>
<path d="M32.3602 33.2158H27.7927H26.8216H22.2542C22.2542 33.2158 23.7967 41.9952 16.4473 49.2535L26.8216 61.7887H27.7927L38.1684 49.2535C30.8176 41.9952 32.3602 33.2158 32.3602 33.2158Z" fill="#FCC083"/>
<path d="M22.252 33.2159H26.8181H27.7905H32.3567C32.3567 33.2159 31.6081 37.4936 33.6551 42.5453C29.4324 40.8981 26.0695 37.4252 22.3552 34.2341C22.3163 33.5875 22.252 33.2159 22.252 33.2159Z" fill="#E8AA63"/>
<path d="M42.2583 17.8329C41.821 16.8268 41.0551 17.3473 40.4582 18.0086C40.6299 10.2031 35.9994 6.23926 35.9994 6.23926H18.6069C18.6069 6.23926 13.9456 10.1937 14.0945 17.9523C13.5056 17.3178 12.7746 16.8563 12.348 17.8329C11.558 19.6478 13.4158 22.1347 13.059 24.6538C12.8189 26.3587 14.3292 26.187 15.2856 25.7109C15.3151 25.8222 15.354 25.9402 15.3903 26.0569C15.4292 26.0006 15.4708 25.9429 15.5123 25.8866C16.3708 23.5888 18.3829 21.7725 21.5754 21.7725C21.6036 21.7725 21.6291 21.7766 21.6572 21.7766C23.7753 21.1407 26.0556 20.961 28.1683 21.1971C30.3642 21.4426 32.548 21.7162 34.6218 22.5023C36.5225 23.2226 38.2422 24.2689 39.1812 26.0328C39.2107 25.9188 39.2469 25.8048 39.2737 25.6894C40.2261 26.1817 41.7888 26.3842 41.5447 24.6538C41.1919 22.1347 43.0497 19.6478 42.2583 17.8329Z" fill="#FCC083"/>
<path d="M54.3861 70.4508C53.714 61.6004 50.9172 47.6338 50.2385 46.3997C48.2706 42.8169 33.243 39.1992 33.243 39.1992C33.243 39.2018 33.2444 39.2246 33.2458 39.2555L33.0566 39.2005C33.0566 39.2193 21.3718 39.2193 21.3731 39.2005L21.184 39.2555C21.1853 39.2246 21.1867 39.2018 21.1867 39.1992C21.1867 39.1992 6.15907 42.8169 4.18991 46.3997C3.51251 47.6338 0.813656 63.1456 0.0410156 70.4508H54.3861Z" fill="#3C3C3C"/>
<path d="M36.0005 39.9117L33.0924 37.2759L33.0534 37.2705C33.0655 37.2812 22.7784 37.2812 21.5001 37.2732L18.5879 39.913L36.0005 39.9117Z" fill="#5D5D5D"/>
<path d="M36.5373 3.18157C30.9719 -0.45896 23.6224 -0.45896 18.057 3.18157C15.2561 5.01391 12.894 7.68595 12.8403 11.4995C12.7343 19.0502 16.1052 36.3259 27.2965 36.3259C38.489 36.3259 41.8572 19.0502 41.7513 11.4995C41.6989 7.68461 39.3368 5.01256 36.5373 3.18157Z" fill="#3C3C3C"/>
<path d="M106.471 66.3741C106.487 66.4586 106.506 66.5847 106.523 66.6813H115.207C114.838 62.4988 114.451 58.6745 114.087 56.2359C113.164 50.0266 107.286 50.3606 103.297 50.5846C101.886 50.6638 105.738 65.3801 105.738 65.3801L106.471 66.3741Z" fill="#EBE8DF"/>
<path d="M83.0064 66.6795C83.0239 66.5842 83.0426 66.4568 83.0587 66.3723L83.7925 65.3783C83.7925 65.3783 87.6436 50.6619 86.2325 50.5828C82.2432 50.3588 76.3652 50.0234 75.4423 56.2341C75.0788 58.6714 74.6911 62.497 74.3223 66.6795H83.0064Z" fill="#EBE8DF"/>
<path d="M109.269 66.6819L109.881 50.8119C105.786 48.9004 99.5709 47.3994 99.5709 47.3994C99.5709 47.4008 99.5722 47.4195 99.5736 47.4437L99.422 47.3994C99.422 47.4142 99.807 51.319 98.0135 56.9166H91.4448C89.6513 51.319 90.0363 47.4142 90.0376 47.3994L89.886 47.4437C89.886 47.4195 89.8874 47.4008 89.8874 47.3994C89.8874 47.3994 83.7613 48.879 79.666 50.7703L80.2737 66.6832L109.269 66.6819Z" fill="#C6C3B2"/>
<path d="M98.2797 43.0371H95.1261H94.4554H91.3004C91.3004 43.0371 92.3655 49.1002 87.291 54.1116L94.4554 62.7676H95.1261L102.29 54.1116C97.2146 49.1002 98.2797 43.0371 98.2797 43.0371Z" fill="#FCC083"/>
<path d="M98.2757 43.0371H95.1221H94.4514H91.2964C91.2964 43.0371 91.8129 45.9908 90.4004 49.4785C93.3152 48.341 95.6385 45.9426 98.2019 43.74C98.2314 43.2933 98.2757 43.0371 98.2757 43.0371Z" fill="#E8AA63"/>
<path d="M90.9249 47.9395C90.4084 49.8496 89.3594 52.0682 87.291 54.1125L94.4554 62.7685H95.1261L102.29 54.1125C100.221 52.0696 99.1717 49.8509 98.6553 47.9395L94.8256 50.3405L90.9249 47.9395Z" fill="#ECEDED"/>
<path d="M90.932 47.9395C90.4155 49.8496 94.3069 52.8476 94.3069 52.8476L92.3632 60.7913L94.7965 63.9798L97.2271 60.7913L95.3974 52.9026C95.3974 52.9026 99.1788 49.8496 98.6637 47.9395L94.8341 50.4411L90.932 47.9395Z" fill="#353535"/>
<path opacity="0.35" d="M100.732 49.3837L98.5861 48.1309L94.8248 50.4407L91.0622 48.1309L88.916 49.3837L92.6129 54.6259L94.8248 51.3381L97.0354 54.6259L100.732 49.3837Z" fill="#7D7D7D"/>
<path d="M94.8301 50.439L97.0407 53.4491L100.578 48.207L98.5913 46.9541L94.8301 50.439Z" fill="#ECEDED"/>
<path d="M94.8247 50.439L92.6127 53.4491L89.0098 48.3384L90.9883 46.9541L94.8247 50.439Z" fill="#ECEDED"/>
<path d="M101.046 52.2545L102.439 48.225L99.1564 47.2578C99.1564 47.2578 99.3616 50.7575 97.8539 55.7609C96.7204 59.5194 95.041 63.3424 94.8089 63.8843C94.5755 63.3424 92.9457 59.5208 91.8136 55.7609C90.3059 50.7575 90.5111 47.2578 90.5111 47.2578L87.2274 48.225L88.6197 52.2545L86.2441 53.4014L94.8237 64.2291L103.425 53.4014L101.046 52.2545Z" fill="#EBE8DF"/>
<path d="M99.7124 19.901C98.7614 19.4878 95.9699 18.9473 94.6929 18.9365C93.4159 18.9473 90.6245 19.4878 89.6735 19.901C85.2509 21.8245 85.1973 25.559 85.1973 31.3766H94.6929H104.189C104.189 25.559 104.135 21.8232 99.7124 19.901Z" fill="#8C5119"/>
<path d="M104.493 30.9489C104.208 30.2165 103.712 30.5948 103.326 31.0777C103.437 25.3916 100.435 22.5049 100.435 22.5049H94.797H89.1578C89.1578 22.5049 86.1357 25.3848 86.2323 31.0361C85.8513 30.5747 85.3751 30.238 85.0988 30.9489C84.5864 32.2715 85.7923 34.0824 85.5616 35.9188C85.406 37.1596 86.3839 37.0361 87.0036 36.6887C87.2383 37.6277 87.5844 38.7343 88.1424 40.0315C89.3215 42.7733 92.7031 45.2696 94.7796 45.2696C96.8547 45.2696 100.188 42.7531 101.417 40.0315C101.982 38.78 102.334 37.7417 102.557 36.6726C103.175 37.0321 104.188 37.1783 104.03 35.9174C103.799 34.0824 105.005 32.2715 104.493 30.9489Z" fill="#FCC083"/>
<path d="M88.2051 22.3368C88.2051 22.3368 94.5284 34.2014 104.455 21.8754C104.455 21.8754 95.7544 14.9646 88.2051 22.3368Z" fill="#8C5119"/>
<path d="M88.0611 35.7653C87.6533 32.2562 87.3072 24.0482 92.5601 21.7585L90.9531 20.9805C90.9531 20.9805 86.2542 21.9302 85.8223 29.1884L87.0832 36.8491H87.0953C87.6761 36.8491 88.1281 36.3447 88.0611 35.7653Z" fill="#8C5119"/>
<path d="M102.428 36.8516H102.479L103.732 29.2392C103.301 21.9823 98.6025 21.0312 98.6025 21.0312L96.9941 21.8093C102.243 24.0977 101.902 32.2935 101.495 35.808C101.429 36.366 101.866 36.8516 102.428 36.8516Z" fill="#8C5119"/>
</svg>
