<svg width="78" height="81" viewBox="0 0 78 81" fill="none" xmlns="http://www.w3.org/2000/svg">
<path d="M44.882 51.1618L44.4955 64.8607C44.4833 65.2636 44.3516 65.653 44.1183 65.9765C43.8849 66.3 43.5611 66.5422 43.1902 66.6706C42.8193 66.7989 42.4192 66.8072 42.0437 66.6944C41.6681 66.5816 41.335 66.3531 41.0892 66.0395L32.7553 55.3581C32.5794 55.1327 32.3581 54.9492 32.1067 54.8204C31.8553 54.6917 31.5798 54.6206 31.2992 54.6122L18.0033 54.2141C17.6123 54.2014 17.2344 54.0658 16.9204 53.8254C16.6064 53.585 16.3713 53.2513 16.2467 52.8692C16.1222 52.4871 16.1141 52.0748 16.2236 51.6879C16.3331 51.3009 16.5549 50.9577 16.8592 50.7045L27.2263 42.1179C27.4451 41.9367 27.6232 41.7087 27.7482 41.4497C27.8732 41.1907 27.9421 40.9068 27.9502 40.6176L28.3367 26.9187C28.349 26.5158 28.4806 26.1264 28.714 25.8029C28.9473 25.4794 29.2712 25.2372 29.642 25.1088C30.0129 24.9805 30.413 24.9722 30.7886 25.085C31.1641 25.1978 31.4972 25.4264 31.743 25.7399L40.0769 36.4213C40.2528 36.6467 40.4741 36.8302 40.7255 36.959C40.9769 37.0877 41.2524 37.1588 41.533 37.1672L54.8289 37.5653C55.2199 37.578 55.5978 37.7136 55.9118 37.954C56.2258 38.1945 56.4609 38.5281 56.5855 38.9102C56.71 39.2923 56.7181 39.7046 56.6086 40.0915C56.4991 40.4785 56.2773 40.8217 55.973 41.075L45.6059 49.6615C45.3871 49.8427 45.209 50.0707 45.0841 50.3297C44.9591 50.5888 44.8901 50.8726 44.882 51.1618Z" fill="#0075FD"/>
<path d="M41.1875 10.9119L44.8485 22.1427" stroke="#0075FD" stroke-width="2.25" stroke-linecap="round" stroke-linejoin="round"/>
<path d="M48.4687 14.6393L37.5684 18.4113" stroke="#0075FD" stroke-width="2.25" stroke-linecap="round" stroke-linejoin="round"/>
<path d="M56.3594 20.243L58.8 27.7302" stroke="#0075FD" stroke-width="2.25" stroke-linecap="round" stroke-linejoin="round"/>
<path d="M61.2135 22.7295L53.9473 25.2439" stroke="#0075FD" stroke-width="2.25" stroke-linecap="round" stroke-linejoin="round"/>
</svg>
