<svg width="24" height="26" viewBox="0 0 24 26" fill="none" xmlns="http://www.w3.org/2000/svg">
<path d="M14.8796 16.2789L12.7046 22.4415C12.6514 22.5894 12.5554 22.7169 12.4297 22.807C12.304 22.897 12.1546 22.9453 12.0015 22.9453C11.8484 22.9453 11.699 22.897 11.5733 22.807C11.4476 22.7169 11.3517 22.5894 11.2984 22.4415L9.12339 16.2789C9.0854 16.1727 9.02549 16.0762 8.9478 15.9961C8.87011 15.9161 8.77648 15.8544 8.67339 15.8152L2.69214 13.5743C2.5486 13.5194 2.42481 13.4206 2.3374 13.2911C2.24998 13.1616 2.20312 13.0076 2.20312 12.8498C2.20312 12.6921 2.24998 12.5381 2.3374 12.4086C2.42481 12.2791 2.5486 12.1803 2.69214 12.1254L8.67339 9.88447C8.77648 9.84533 8.87011 9.7836 8.9478 9.70356C9.02549 9.62351 9.0854 9.52704 9.12339 9.42082L11.2984 3.25823C11.3517 3.11035 11.4476 2.9828 11.5733 2.89274C11.699 2.80267 11.8484 2.75439 12.0015 2.75439C12.1546 2.75439 12.304 2.80267 12.4297 2.89274C12.5554 2.9828 12.6514 3.11035 12.7046 3.25823L14.8796 9.42082C14.9176 9.52704 14.9775 9.62351 15.0552 9.70356C15.1329 9.7836 15.2265 9.84533 15.3296 9.88447L21.3109 12.1254C21.4544 12.1803 21.5782 12.2791 21.6656 12.4086C21.753 12.5381 21.7999 12.6921 21.7999 12.8498C21.7999 13.0076 21.753 13.1616 21.6656 13.2911C21.5782 13.4206 21.4544 13.5194 21.3109 13.5743L15.3296 15.8152C15.2265 15.8544 15.1329 15.9161 15.0552 15.9961C14.9775 16.0762 14.9176 16.1727 14.8796 16.2789Z" stroke="#FFC27A" stroke-width="1.5" stroke-linecap="round" stroke-linejoin="round"/>
</svg>
