<svg width="150" height="150" viewBox="0 0 150 150" fill="none" xmlns="http://www.w3.org/2000/svg">
<path d="M71.5198 102.457H13.5928C12.6478 102.456 11.8828 101.689 11.8828 100.744V19.3152C11.8909 18.3762 12.6538 17.6187 13.5928 17.6172H71.5198C72.4657 17.6172 73.2328 18.384 73.2328 19.3302V100.744C73.2328 101.69 72.4657 102.457 71.5198 102.457ZM13.5928 17.6772C12.6892 17.679 11.9578 18.4116 11.9578 19.3152V100.744C11.9578 101.648 12.6892 102.38 13.5928 102.382H71.5198C72.4237 102.381 73.156 101.648 73.1578 100.744V19.3152C73.156 18.4113 72.4237 17.6787 71.5198 17.6772H13.5928Z" fill="#E6E6E6"/>
<path d="M136.413 102.457H78.4825C77.5372 102.456 76.771 101.689 76.7695 100.744V19.3152C76.7794 18.3756 77.5429 17.6187 78.4825 17.6172H136.413C137.35 17.6205 138.111 18.3774 138.12 19.3152V100.744C138.12 101.688 137.356 102.454 136.413 102.457ZM78.4825 17.6772C77.5786 17.679 76.846 18.4113 76.8445 19.3152V100.744C76.846 101.648 77.5786 102.38 78.4825 102.382H136.413C137.316 102.381 138.049 101.648 138.051 100.744V19.3152C138.049 18.4113 137.316 17.6787 136.413 17.6772H78.4825Z" fill="#E6E6E6"/>
<path d="M28.4997 117.664H16.1367V117.739H28.4997V117.664Z" fill="#E0E0E0"/>
<path d="M53.6998 117.062H41.3008V117.138H53.6998V117.062Z" fill="#E0E0E0"/>
<path d="M69.834 117.062H66.834V117.138H69.834V117.062Z" fill="#E0E0E0"/>
<path d="M39.8477 119.625H25.9727V119.7H39.8477V119.625Z" fill="#E0E0E0"/>
<path d="M87.8394 117.625H81.3594V117.7H87.8394V117.625Z" fill="#E0E0E0"/>
<path d="M98.8888 117.625H90.5098V117.7H98.8888V117.625Z" fill="#E0E0E0"/>
<path d="M139.298 118.891H120.566V118.966H139.298V118.891Z" fill="#E0E0E0"/>
<path d="M150 114.719H0V114.794H150V114.719Z" fill="#E0E0E0"/>
<path d="M50.9453 86.6988H56.7761V83.3529C56.7761 81.7428 55.4708 80.4375 53.8607 80.4375C52.2506 80.4375 50.9453 81.7428 50.9453 83.3529V86.6988Z" fill="#F0F0F0"/>
<path d="M53.8952 85.9663C55.2537 85.9663 56.3549 84.865 56.3549 83.5066C56.3549 82.1481 55.2537 81.0469 53.8952 81.0469C52.5368 81.0469 51.4355 82.1481 51.4355 83.5066C51.4355 84.865 52.5368 85.9663 53.8952 85.9663Z" fill="white"/>
<path d="M53.931 85.4793C55.0212 85.4793 55.905 84.5955 55.905 83.5053C55.905 82.415 55.0212 81.5312 53.931 81.5312C52.8408 81.5312 51.957 82.415 51.957 83.5053C51.957 84.5955 52.8408 85.4793 53.931 85.4793Z" fill="#EBEBEB"/>
<path d="M53.6992 83.5567C53.6992 83.6743 53.7946 83.7695 53.9122 83.7695C54.0298 83.7695 54.1249 83.674 54.1249 83.5567C54.1249 83.4391 54.0295 83.3438 53.9122 83.3438C53.7949 83.3438 53.6992 83.4391 53.6992 83.5567Z" fill="#FAFAFA"/>
<path d="M53.9368 83.6329L54.8398 82.783L54.7522 82.6897L53.9341 83.4598L52.4677 82.1641L52.3828 82.2601L53.9368 83.6329Z" fill="#FAFAFA"/>
<path d="M29.6188 61.399C32.3028 58.7149 32.3028 54.3632 29.6188 51.6792C26.9347 48.9951 22.583 48.9951 19.899 51.6792C17.2149 54.3632 17.2149 58.7149 19.899 61.399C22.583 64.083 26.9347 64.083 29.6188 61.399Z" fill="#F0F0F0"/>
<path d="M24.7775 63.5631C20.9027 63.5631 17.75 60.4104 17.75 56.5356C17.75 52.6605 20.9027 49.5078 24.7775 49.5078V49.8171C21.0731 49.8171 18.0593 52.8309 18.0593 56.5356C18.0593 60.24 21.0731 63.2538 24.7775 63.2538V63.5631Z" fill="white"/>
<path d="M24.7773 63.5631V63.2538C28.4817 63.2538 31.4958 60.24 31.4958 56.5356C31.4958 52.8309 28.4817 49.8171 24.7773 49.8171V49.5078C28.6524 49.5078 31.8048 52.6605 31.8048 56.5356C31.8048 60.4107 28.6524 63.5631 24.7773 63.5631Z" fill="white"/>
<path d="M28.3678 56.5345H28.0585C28.0585 54.2566 26.9026 51.2091 24.6934 49.7916L24.8602 49.5312C27.163 51.0091 28.3678 54.1729 28.3678 56.5345Z" fill="white"/>
<path d="M24.8602 63.3313L24.6934 63.0709C26.9029 61.6534 28.0585 58.606 28.0585 56.3281H28.3678C28.3681 58.69 27.1633 61.8538 24.8602 63.3313Z" fill="white"/>
<path d="M21.4945 56.5344H21.1855C21.1855 54.1728 22.3903 51.009 24.6928 49.5312L24.8602 49.7916C22.6504 51.2091 21.4945 54.2568 21.4945 56.5344Z" fill="white"/>
<path d="M24.6928 63.3313C22.3903 61.8535 21.1855 58.6897 21.1855 56.3281H21.4948C21.4948 58.6057 22.6507 61.6531 24.8599 63.0709L24.6928 63.3313Z" fill="white"/>
<path d="M24.9304 49.6641H24.6211V63.4101H24.9304V49.6641Z" fill="white"/>
<path d="M30.5961 52.7188H18.9609V53.028H30.5961V52.7188Z" fill="white"/>
<path d="M31.6479 56.5H17.9082V56.8093H31.6479V56.5Z" fill="white"/>
<path d="M30.441 60.2734H19.1133V60.5827H30.441V60.2734Z" fill="white"/>
<path d="M130.484 34.702V33.0312L82.6491 33.0312V34.702L130.484 34.702Z" fill="#F5F5F5"/>
<path d="M95.3964 34.7031H87.3945V36.4206V36.7353V38.4528H91.3956C91.3956 37.5042 92.1645 36.7353 93.1131 36.7353H95.3967L95.3964 34.7031Z" fill="#E0E0E0"/>
<path d="M91.7818 34.7031H85.9492V38.4528H87.7807C87.7807 37.5042 88.5496 36.7353 89.4982 36.7353H91.7818V34.7031Z" fill="#F5F5F5"/>
<path d="M117.738 34.7031H125.74V36.4206V36.7353V38.4528H121.739C121.739 37.5042 120.97 36.7353 120.022 36.7353H117.738V34.7031Z" fill="#EBEBEB"/>
<path d="M121.355 34.7031H127.188V38.4528H125.356C125.356 37.5042 124.587 36.7353 123.639 36.7353H121.355V34.7031Z" fill="#F5F5F5"/>
<path d="M112.645 29.7331L115.287 25.1797H114.882L112.059 29.7331H112.645Z" fill="#E0E0E0"/>
<path d="M101.2 29.7175L98.5898 25.1641H98.9945L101.787 29.7175H101.2Z" fill="#E0E0E0"/>
<path d="M101.305 29.7188L101.439 30.0238H101.83L101.706 29.7188H101.305Z" fill="#E0E0E0"/>
<path d="M112.547 29.7188L112.412 30.0238H112.021L112.146 29.7188H112.547Z" fill="#E0E0E0"/>
<path d="M102.251 31.8124H100.627V32.8237H102.251V31.8124Z" fill="#E0E0E0"/>
<path d="M113.265 31.8124H111.641V32.8237H113.265V31.8124Z" fill="#E0E0E0"/>
<path d="M113.832 32.26L110.304 32.6419C108.066 32.884 105.809 32.884 103.571 32.6419L100.043 32.26V30.0706L102.908 29.6983C105.583 29.3506 108.292 29.3506 110.967 29.6983L113.832 30.0706V32.26Z" fill="#EBEBEB"/>
<path d="M102.093 31.2237C102.093 31.5846 101.8 31.8774 101.439 31.8774C101.078 31.8774 100.785 31.5849 100.785 31.2237C100.785 30.8628 101.078 30.5703 101.439 30.5703C101.8 30.5703 102.093 30.8628 102.093 31.2237Z" fill="white"/>
<path d="M101.438 31.6177C101.654 31.6177 101.829 31.4427 101.829 31.2268C101.829 31.0109 101.654 30.8359 101.438 30.8359C101.222 30.8359 101.047 31.0109 101.047 31.2268C101.047 31.4427 101.222 31.6177 101.438 31.6177Z" fill="#E0E0E0"/>
<path d="M105.138 31.2301C105.138 31.3441 105.045 31.4368 104.931 31.4368C104.817 31.4368 104.725 31.3441 104.725 31.2301C104.725 31.1161 104.817 31.0234 104.931 31.0234C105.046 31.0234 105.138 31.1158 105.138 31.2301Z" fill="white"/>
<path d="M105.874 31.2301C105.874 31.3441 105.782 31.4368 105.668 31.4368C105.554 31.4368 105.461 31.3441 105.461 31.2301C105.461 31.1161 105.554 31.0234 105.668 31.0234C105.782 31.0234 105.874 31.1158 105.874 31.2301Z" fill="white"/>
<path d="M106.613 31.2301C106.613 31.3441 106.52 31.4368 106.406 31.4368C106.292 31.4368 106.199 31.3441 106.199 31.2301C106.199 31.1161 106.292 31.0234 106.406 31.0234C106.52 31.0234 106.613 31.1158 106.613 31.2301Z" fill="white"/>
<path d="M107.347 31.2301C107.347 31.3441 107.254 31.4368 107.14 31.4368C107.026 31.4368 106.934 31.3441 106.934 31.2301C106.934 31.1161 107.026 31.0234 107.14 31.0234C107.255 31.0234 107.347 31.1158 107.347 31.2301Z" fill="white"/>
<path d="M108.085 31.2301C108.085 31.3441 107.993 31.4368 107.879 31.4368C107.765 31.4368 107.672 31.3441 107.672 31.2301C107.672 31.1161 107.764 31.0234 107.879 31.0234C107.993 31.0234 108.085 31.1158 108.085 31.2301Z" fill="white"/>
<path d="M108.822 31.2301C108.822 31.3441 108.729 31.4368 108.615 31.4368C108.501 31.4368 108.408 31.3441 108.408 31.2301C108.408 31.1161 108.501 31.0234 108.615 31.0234C108.729 31.0234 108.822 31.1158 108.822 31.2301Z" fill="white"/>
<path d="M109.558 31.2301C109.558 31.3441 109.465 31.4368 109.351 31.4368C109.237 31.4368 109.145 31.3441 109.145 31.2301C109.145 31.1161 109.237 31.0234 109.351 31.0234C109.466 31.0234 109.558 31.1158 109.558 31.2301Z" fill="white"/>
<path d="M40.0391 39.5234V41.3354C41.2076 41.4287 42.2711 41.8919 43.1132 42.6086L44.3942 41.3276C43.2206 40.2872 41.7062 39.6227 40.0391 39.5234Z" fill="#F5F5F5"/>
<path d="M39.1646 52.1378C36.5192 51.9266 34.4102 49.8176 34.1987 47.1719H32.3867C32.6042 50.8163 35.5205 53.7323 39.1646 53.9498V52.1378Z" fill="#F0F0F0"/>
<path d="M34.1984 46.301C34.4099 43.6556 36.5189 41.5466 39.1646 41.3354V39.5234C35.5205 39.7409 32.6045 42.6572 32.3867 46.3013H34.1984V46.301Z" fill="#E0E0E0"/>
<path d="M45.0125 41.9453L43.7315 43.2263C44.5367 44.1725 45.0239 45.398 45.0239 46.7378C45.0239 49.5851 42.8288 51.9179 40.0391 52.1408V53.9528C43.8281 53.7266 46.8314 50.5835 46.8314 46.7375C46.8311 44.8988 46.1435 43.2212 45.0125 41.9453Z" fill="#E0E0E0"/>
<path d="M22.3558 114.605H77.1679C80.4268 114.605 83.0686 111.964 83.0686 108.705V87.432C83.0686 84.1731 80.4268 81.5312 77.1679 81.5312H22.3558C19.0969 81.5312 16.4551 84.1731 16.4551 87.432V108.705C16.4548 111.964 19.0969 114.605 22.3558 114.605Z" fill="#E0E0E0"/>
<path d="M25.8655 114.848H80.6776C83.9366 114.848 86.5783 112.206 86.5783 108.947V87.6741C86.5783 84.4152 83.9366 81.7734 80.6776 81.7734H25.8655C22.6066 81.7734 19.9648 84.4152 19.9648 87.6741V108.947C19.9648 112.206 22.6066 114.848 25.8655 114.848Z" fill="#F5F5F5"/>
<path d="M23.0195 97.2299H83.1347V89.012C83.1347 86.7359 81.2894 84.8906 79.0133 84.8906H27.1409C24.8648 84.8906 23.0195 86.7359 23.0195 89.012V97.2299Z" fill="#E0E0E0"/>
<path d="M27.1409 111.246H79.0133C81.2894 111.246 83.1347 109.4 83.1347 107.124V98.9062H23.0195V107.124C23.0195 109.4 24.8645 111.246 27.1409 111.246Z" fill="#E0E0E0"/>
<path d="M47.5044 87.2812H38.9844V97.3136H47.5044V87.2812Z" fill="#E6E6E6"/>
<path d="M49.6861 87.2812H47.5039V97.3136H49.6861V87.2812Z" fill="#F5F5F5"/>
<path d="M43.1502 85.7344H36.75V97.3138H43.1502V85.7344Z" fill="#E6E6E6"/>
<path d="M44.9988 85.7344H43.1484V97.3138H44.9988V85.7344Z" fill="#F5F5F5"/>
<path d="M41.2652 87.2815H35.8691V97.3138H41.2652V87.2815Z" fill="#EBEBEB"/>
<path d="M42.4983 87.2812H41.2656V97.3136H42.4983V87.2812Z" fill="#F5F5F5"/>
<path d="M36.8471 88.9766H29.7695V97.3112H36.8471V88.9766Z" fill="#E6E6E6"/>
<path d="M38.66 88.9766H36.8477V97.3112H38.66V88.9766Z" fill="#F5F5F5"/>
<path d="M33.2313 87.6953H27.9141V97.3151H33.2313V87.6953Z" fill="#E6E6E6"/>
<path d="M34.768 87.6953H33.2305V97.3151H34.768V87.6953Z" fill="#F5F5F5"/>
<path d="M31.6648 88.9766H26.5V97.3112H31.6648V88.9766Z" fill="#E6E6E6"/>
<path d="M32.691 88.9766H31.668V97.3112H32.691V88.9766Z" fill="#F0F0F0"/>
<path d="M74.02 100.828H65.5V110.86H74.02V100.828Z" fill="#E6E6E6"/>
<path d="M76.202 100.828H74.0195V110.86H76.202V100.828Z" fill="#F5F5F5"/>
<path d="M69.6658 99.2812H63.2656V110.861H69.6658V99.2812Z" fill="#E6E6E6"/>
<path d="M71.5125 99.2812H69.6621V110.861H71.5125V99.2812Z" fill="#F5F5F5"/>
<path d="M44.9536 100.828H36.4336V110.86H44.9536V100.828Z" fill="#E6E6E6"/>
<path d="M47.1356 100.828H44.9531V110.861H47.1356V100.828Z" fill="#F5F5F5"/>
<path d="M40.5994 99.2812H34.1992V110.861H40.5994V99.2812Z" fill="#E6E6E6"/>
<path d="M42.4481 99.2812H40.5977V110.861H42.4481V99.2812Z" fill="#F5F5F5"/>
<path d="M67.7789 100.828H62.3828V110.86H67.7789V100.828Z" fill="#EBEBEB"/>
<path d="M69.012 100.828H67.7793V110.861H69.012V100.828Z" fill="#F5F5F5"/>
<path d="M63.3628 102.523H56.2852V110.858H63.3628V102.523Z" fill="#E6E6E6"/>
<path d="M65.1756 102.523H63.3633V110.858H65.1756V102.523Z" fill="#F5F5F5"/>
<path d="M59.7469 101.242H54.4297V110.862H59.7469V101.242Z" fill="#E6E6E6"/>
<path d="M61.2816 101.242H59.7441V110.862H61.2816V101.242Z" fill="#F5F5F5"/>
<path d="M58.1804 102.523H53.0156V110.858H58.1804V102.523Z" fill="#E6E6E6"/>
<path d="M59.2046 102.523H58.1816V110.858H59.2046V102.523Z" fill="#F0F0F0"/>
<path d="M133.167 77.0703H99.7148C99.7148 78.7452 100.681 80.1204 101.908 80.1957C105.503 80.4168 111.034 81.1926 112.788 83.9055C116.057 88.9623 115.74 106.725 111.824 110.84C110.596 112.13 107.017 114.691 107.017 114.691H125.865C125.865 114.691 122.52 112.078 121.358 110.84C117.464 106.692 117.351 88.9389 120.635 83.9055C122.32 81.3228 127.504 80.4888 130.982 80.2257C132.209 80.1327 133.167 78.7458 133.167 77.0703Z" fill="#F5F5F5"/>
<path d="M103.859 80.3594C107.257 80.7308 111.329 81.6467 112.788 83.9036C113.22 84.5714 113.587 85.4657 113.894 86.5163H119.512C119.827 85.4648 120.201 84.5702 120.636 83.9036C122.101 81.6593 126.206 80.7356 129.54 80.3594H103.859Z" fill="#E6E6E6"/>
<path d="M118.918 77.0986L118.463 70.0078H125.057L125.512 77.0986H118.918Z" fill="#EBEBEB"/>
<path d="M118.917 77.0986L118.463 70.0078H118.107L118.562 77.0986H118.917Z" fill="#E0E0E0"/>
<path d="M119.542 76.3798L119.18 70.7344H124.429L124.791 76.3798H119.542Z" fill="#F0F0F0"/>
<path d="M119.947 75.911L119.645 71.1953H124.03L124.332 75.911H119.947Z" fill="#FAFAFA"/>
<path d="M116.778 77.0736H110.154L110.889 65.6172H117.513L116.778 77.0736Z" fill="#E6E6E6"/>
<path d="M116.777 77.0736H117.094L117.829 65.6172H117.512L116.777 77.0736Z" fill="#E0E0E0"/>
<path d="M116.178 75.9016H110.904L111.489 66.7812H116.763L116.178 75.9016Z" fill="#F0F0F0"/>
<path d="M115.792 75.1579H111.387L111.875 67.5391H116.28L115.792 75.1579Z" fill="#FAFAFA"/>
<path d="M113.568 70.9635C113.868 71.3718 114.353 71.3718 114.652 70.9635C114.951 70.5555 114.951 69.8937 114.652 69.4857C114.353 69.0777 113.867 69.0777 113.568 69.4857C113.269 69.8937 113.269 70.5552 113.568 70.9635Z" fill="#EBEBEB"/>
<path d="M113.893 72.2475C113.674 71.9487 113.318 71.9487 113.099 72.2475C112.746 72.7296 112.996 73.5537 113.496 73.5537C113.995 73.5537 114.246 72.7293 113.893 72.2475Z" fill="#F0F0F0"/>
<path d="M31.3316 102.76C32.4062 105.664 35.1074 107.93 38.1068 108.7C42.6206 109.859 47.114 107.201 51.611 105.979C59.6015 103.808 68.0303 106.214 76.0142 108.409C83.9981 110.605 92.6546 112.574 100.389 109.617C107.026 107.079 111.897 101.244 115.261 94.9847C121.653 83.0906 123.539 69.329 124.475 55.8587C124.893 49.8485 125.123 43.6658 123.225 37.9475C121.328 32.2292 116.861 26.9993 110.948 25.8476C105.271 24.7421 99.5306 27.5195 94.9433 31.0421C90.356 34.565 86.3792 38.9213 81.3698 41.8124C74.0735 46.0232 65.171 46.7264 56.8472 45.4283C51.6902 44.624 43.097 34.8527 34.3499 38.4644C25.037 42.3101 20.9804 74.786 31.3316 102.76Z" fill="#24774A"/>
<path opacity="0.9" d="M31.3316 102.76C32.4062 105.664 35.1074 107.93 38.1068 108.7C42.6206 109.859 47.114 107.201 51.611 105.979C59.6015 103.808 68.0303 106.214 76.0142 108.409C83.9981 110.605 92.6546 112.574 100.389 109.617C107.026 107.079 111.897 101.244 115.261 94.9847C121.653 83.0906 123.539 69.329 124.475 55.8587C124.893 49.8485 125.123 43.6658 123.225 37.9475C121.328 32.2292 116.861 26.9993 110.948 25.8476C105.271 24.7421 99.5306 27.5195 94.9433 31.0421C90.356 34.565 86.3792 38.9213 81.3698 41.8124C74.0735 46.0232 65.171 46.7264 56.8472 45.4283C51.6902 44.624 43.097 34.8527 34.3499 38.4644C25.037 42.3101 20.9804 74.786 31.3316 102.76Z" fill="white"/>
<path d="M74.999 126.417C107.124 126.417 133.166 124.897 133.166 123.021C133.166 121.145 107.124 119.625 74.999 119.625C42.8743 119.625 16.832 121.145 16.832 123.021C16.832 124.897 42.8743 126.417 74.999 126.417Z" fill="#F5F5F5"/>
<path d="M117.337 100.708C114.335 103.022 113.467 108.088 113.317 111.659C113.303 111.985 112.795 111.987 112.809 111.659C112.968 107.877 113.829 102.776 117.08 100.269C117.339 100.07 117.592 100.511 117.337 100.708Z" fill="#263238"/>
<path d="M110.369 98.1162C111.134 98.028 111.779 98.8104 112.111 99.3852C113.838 102.37 113.17 106.875 112.843 110.078C112.81 110.4 112.302 110.404 112.335 110.078C112.653 106.961 113.232 102.9 111.824 99.9372C111.582 99.4287 111.066 98.5434 110.369 98.6238C110.045 98.6613 110.048 98.1534 110.369 98.1162Z" fill="#263238"/>
<path d="M108.509 102.218C111.72 101.425 112.12 108.543 112.216 110.079C112.236 110.405 111.728 110.404 111.708 110.079C111.579 108.002 111.477 105.026 109.974 103.359C109.671 103.023 109.143 102.584 108.644 102.707C108.327 102.786 108.192 102.296 108.509 102.218Z" fill="#263238"/>
<path d="M118.024 105.668C115.37 103.702 114.506 108.868 114.359 110.357C114.327 110.679 113.819 110.682 113.851 110.357C114.018 108.668 114.274 105.607 116.226 104.897C116.895 104.654 117.709 104.807 118.28 105.23C118.539 105.422 118.287 105.863 118.024 105.668Z" fill="#263238"/>
<path d="M107.465 106.603C107.863 106.2 108.476 105.932 109.044 106.027C110.664 106.299 111.113 108.742 111.359 110.01C111.42 110.329 110.931 110.466 110.869 110.145C110.657 109.051 109.637 105.128 107.824 106.962C107.594 107.195 107.235 106.836 107.465 106.603Z" fill="#263238"/>
<path d="M117.027 123.251H109.349C108.002 122.107 107.145 120.406 107.145 118.499C107.145 116.322 108.368 109.789 108.368 109.789H118.008C118.008 109.789 119.232 116.322 119.232 118.499C119.232 120.406 118.374 122.107 117.027 123.251Z" fill="#263238"/>
<path d="M118.249 108.177C115.933 108.177 113.667 107.238 113.188 106.081C112.708 104.923 114.196 103.984 116.512 103.984C117.277 103.984 118.034 104.088 118.725 104.267C119.269 104.088 119.94 103.984 120.705 103.984C123.02 103.984 125.286 104.923 125.766 106.081C126.245 107.238 124.757 108.177 122.441 108.177H118.249Z" fill="#24774A"/>
<path opacity="0.1" d="M118.249 108.177C115.933 108.177 113.667 107.238 113.188 106.081C112.708 104.923 114.196 103.984 116.512 103.984C117.277 103.984 118.034 104.088 118.725 104.267C119.269 104.088 119.94 103.984 120.705 103.984C123.02 103.984 125.286 104.923 125.766 106.081C126.245 107.238 124.757 108.177 122.441 108.177H118.249Z" fill="black"/>
<path d="M103.14 103.687C101.246 103.687 100.478 102.92 101.425 101.973C102.372 101.026 104.675 100.258 106.569 100.258C107.195 100.258 107.694 100.343 108.053 100.489C108.704 100.343 109.373 100.258 109.999 100.258C111.893 100.258 112.66 101.026 111.714 101.973C110.766 102.92 108.464 103.687 106.569 103.687H103.14Z" fill="#24774A"/>
<path d="M120.558 101.971C118.175 101.971 115.278 101.005 114.086 99.8135C112.895 98.6222 113.861 97.6562 116.244 97.6562C117.031 97.6562 117.873 97.7634 118.692 97.9473C119.143 97.7634 119.771 97.6562 120.558 97.6562C122.941 97.6562 125.839 98.6222 127.03 99.8135C128.222 101.005 127.256 101.971 124.873 101.971H120.558Z" fill="#24774A"/>
<path opacity="0.2" d="M120.558 101.971C118.175 101.971 115.278 101.005 114.086 99.8135C112.895 98.6222 113.861 97.6562 116.244 97.6562C117.031 97.6562 117.873 97.7634 118.692 97.9473C119.143 97.7634 119.771 97.6562 120.558 97.6562C122.941 97.6562 125.839 98.6222 127.03 99.8135C128.222 101.005 127.256 101.971 124.873 101.971H120.558Z" fill="white"/>
<path d="M107.311 99.1886C106.12 99.1886 105.354 98.7056 105.601 98.1098C105.848 97.514 107.014 97.0312 108.205 97.0312C108.598 97.0312 108.944 97.0847 109.223 97.1768C109.579 97.0847 109.969 97.0312 110.362 97.0312C111.554 97.0312 112.32 97.5143 112.073 98.1098C111.826 98.7056 110.66 99.1886 109.469 99.1886H107.311Z" fill="#24774A"/>
<path opacity="0.3" d="M107.311 99.1886C106.12 99.1886 105.354 98.7056 105.601 98.1098C105.848 97.514 107.014 97.0312 108.205 97.0312C108.598 97.0312 108.944 97.0847 109.223 97.1768C109.579 97.0847 109.969 97.0312 110.362 97.0312C111.554 97.0312 112.32 97.5143 112.073 98.1098C111.826 98.7056 110.66 99.1886 109.469 99.1886H107.311Z" fill="white"/>
<path d="M105.937 107.821C104.746 107.821 103.58 107.338 103.333 106.743C103.086 106.147 103.852 105.664 105.044 105.664C105.437 105.664 105.827 105.717 106.183 105.81C106.463 105.717 106.808 105.664 107.202 105.664C108.393 105.664 109.559 106.147 109.806 106.743C110.052 107.339 109.287 107.821 108.095 107.821H105.937Z" fill="#24774A"/>
<path opacity="0.2" d="M105.937 107.821C104.746 107.821 103.58 107.338 103.333 106.743C103.086 106.147 103.852 105.664 105.044 105.664C105.437 105.664 105.827 105.717 106.183 105.81C106.463 105.717 106.808 105.664 107.202 105.664C108.393 105.664 109.559 106.147 109.806 106.743C110.052 107.339 109.287 107.821 108.095 107.821H105.937Z" fill="black"/>
<path d="M108.148 110.999C108.278 110.265 108.367 109.789 108.367 109.789H118.007C118.007 109.789 118.096 110.265 118.225 110.999H108.148Z" fill="#24774A"/>
<path d="M107.73 100.906C107.73 100.906 105.086 101.788 104.248 103.242C104.248 103.242 104.38 101.126 107.73 100.906Z" fill="#FAFAFA"/>
<path d="M108.974 97.4453C108.974 97.4453 108.286 97.8284 107.867 98.4014C107.867 98.4014 108.076 97.5692 108.974 97.4453Z" fill="#FAFAFA"/>
<path d="M119.23 98.4062C119.23 98.4062 122.096 99.4548 123.859 101.438C123.859 101.438 122.492 98.6802 119.23 98.4062Z" fill="#FAFAFA"/>
<path d="M119.23 104.781C119.23 104.781 120.95 105.4 122.228 107.119C122.228 107.119 121.698 105.132 119.23 104.781Z" fill="#E6E6E6"/>
<path d="M106.229 106.242C106.229 106.242 106.89 106.53 106.978 107.389C106.978 107.389 106.361 106.858 106.229 106.242Z" fill="#FAFAFA"/>
<path d="M32.2649 66.3039C32.465 65.9097 32.9219 65.6817 33.3371 65.7684C33.7523 65.8554 34.0925 66.2499 34.1354 66.6951C34.4291 66.4755 34.8491 66.4644 35.1527 66.6684C35.4563 66.8724 35.6255 67.2789 35.5622 67.6533C35.8934 67.386 36.4361 67.4964 36.6497 67.8744C36.8633 68.2527 36.6974 68.8101 36.3176 68.9913C36.5762 69.0099 36.7979 69.2679 36.791 69.5415C36.7841 69.8154 36.5498 70.0605 36.2906 70.0647C36.5525 70.0707 36.7934 70.3011 36.8252 70.5759C36.857 70.8507 36.6755 71.1357 36.4223 71.208C36.6884 71.3262 36.7556 71.7636 36.5387 71.9646C36.3218 72.1659 35.9204 72.0384 35.8442 71.7441C35.8037 71.829 35.6783 71.8488 35.6159 71.7801C35.5535 71.7114 35.5775 71.5797 35.6597 71.5404C35.54 71.7093 35.2337 71.631 35.2004 71.4228C35.2904 71.9049 34.7153 72.3582 34.304 72.1296C34.4228 72.3309 34.2551 72.612 34.0385 72.6747C33.8219 72.7374 33.5936 72.6489 33.3905 72.5484C33.1871 72.4479 32.9795 72.3309 32.7548 72.3339C32.558 72.3366 32.3747 72.4317 32.1863 72.4923C31.5881 72.684 30.896 72.5016 30.4535 72.0348C30.1424 72.4524 29.4056 72.3399 29.2187 71.8467C29.1707 72.0834 28.9613 72.2727 28.7327 72.2862C28.5041 72.2997 28.2761 72.1362 28.2035 71.9067C28.1987 72.0123 28.1942 72.1176 28.1894 72.2232C27.7583 72.3252 27.3323 71.7687 27.5171 71.3442C27.2093 71.3499 26.918 71.0841 26.8784 70.7616C26.8388 70.4388 27.056 70.1031 27.3548 70.0254C26.8475 69.8829 26.4605 69.357 26.4551 68.8023C26.4494 68.2476 26.8259 67.713 27.3302 67.5591C27.5291 67.4985 27.7625 67.5 27.9212 67.6401C28.0799 67.7802 28.1012 68.0883 27.9239 68.2011C27.7715 67.7037 27.9977 67.1079 28.433 66.8595C28.8683 66.6114 29.4638 66.7389 29.7731 67.1469C29.6222 66.9354 29.6195 66.6198 29.7662 66.4053C29.9132 66.1908 30.1979 66.0951 30.4349 66.1806C30.494 65.8389 30.8342 65.5809 31.1594 65.6313C31.4846 65.6817 31.7405 66.0321 31.7042 66.3774C31.7417 66.0891 32.1899 66.0045 32.3192 66.2616C32.501 66.21 32.2649 66.3039 32.2649 66.3039Z" fill="#24774A"/>
<g opacity="0.4">
<path d="M32.1438 69.518C32.2767 69.4256 32.4447 69.3758 32.6037 69.4076C32.7624 69.4394 32.9061 69.5621 32.9388 69.7208C32.9715 69.8795 32.8728 70.061 32.7153 70.0991C32.5239 70.1453 32.3319 69.9875 32.1369 70.0151C32.0673 70.025 32.0031 70.058 31.9353 70.076C31.6548 70.151 31.377 69.9677 31.1445 69.7943C31.0626 69.7334 30.9789 69.6704 30.9243 69.584C30.8697 69.4979 30.8493 69.3821 30.9009 69.2939C30.9726 69.1709 31.1424 69.1529 31.2837 69.1691C31.5672 69.2015 31.8408 69.3158 32.0631 69.4949C32.0559 69.4505 32.0484 69.4061 32.0412 69.3617L32.1438 69.518Z" fill="#FAFAFA"/>
<path d="M28.0699 69.2777C28.1461 69.2243 28.2244 69.17 28.3147 69.1487C28.405 69.1274 28.5115 69.1469 28.5685 69.2201C28.6468 69.3203 28.5973 69.4772 28.4977 69.5567C28.3984 69.6362 28.2661 69.6581 28.1404 69.6776C28.0111 69.6977 27.8482 69.7022 27.7843 69.5882C27.7378 69.5051 27.7753 69.3953 27.8446 69.3299C27.9142 69.2648 28.0081 69.2339 28.0987 69.2045L28.0699 69.2777Z" fill="#FAFAFA"/>
<path d="M34.5051 67.1606C34.7646 67.2692 34.965 67.5092 35.0256 67.7837C35.0439 67.8665 35.0412 67.971 34.9689 68.0151C34.9173 68.0463 34.8516 68.0334 34.7931 68.0196C34.5444 67.9605 34.2957 67.9013 34.047 67.8425C34.1661 67.8884 34.2879 67.9358 34.383 68.021C34.4781 68.1062 34.542 68.2382 34.5108 68.3618C34.4742 68.507 34.3149 68.5965 34.1652 68.5944C34.0155 68.5923 33.876 68.5178 33.7542 68.4305C33.6243 68.3372 33.4974 68.2082 33.4947 68.0483C33.4923 67.8884 33.6936 67.7402 33.8163 67.8428C33.5319 67.7654 33.2604 67.6418 33.0156 67.4783C32.9271 67.4189 32.8398 67.3523 32.784 67.2617C32.7282 67.1708 32.709 67.0508 32.7606 66.9575C33.0156 66.4943 33.3378 67.1738 33.4947 67.2344C33.7917 67.3484 34.1274 67.0028 34.5051 67.1606Z" fill="#FAFAFA"/>
<path d="M35.6674 69.1381C35.6938 69.2287 35.6755 69.3379 35.602 69.3967C35.5282 69.4555 35.3977 69.4357 35.3638 69.3478C35.5303 69.3997 35.7082 69.4597 35.812 69.5998C35.9158 69.7399 35.89 69.9853 35.7244 70.0393C35.6209 70.0732 35.5105 70.0222 35.4148 69.97C35.1445 69.8221 34.8865 69.6523 34.6441 69.4621C34.7182 69.6331 34.54 69.8269 34.3543 69.8428C34.1689 69.8587 33.9955 69.7585 33.8362 69.6616C33.6409 69.5431 33.4171 69.3619 33.4684 69.1393C33.5131 68.9455 33.7609 68.8597 33.9514 68.9167C34.1419 68.9734 34.2853 69.1273 34.4185 69.2746C34.3138 69.1222 34.4626 68.896 34.6456 68.8711C34.8235 68.8471 35.0011 68.9554 35.1121 69.0865C34.9048 68.9728 34.8583 68.6761 35.1361 68.6416C35.317 68.6194 35.6236 68.9875 35.6674 69.1381Z" fill="#FAFAFA"/>
<path d="M29.9742 68.4698C30.1308 68.4113 30.327 68.5133 30.3693 68.675C30.4116 68.837 30.2901 69.0218 30.1245 69.047C30.246 69.0575 30.3624 69.1181 30.4407 69.2117C30.4842 69.2639 30.5169 69.3305 30.5073 69.3977C30.4926 69.4982 30.3858 69.5639 30.2844 69.5678C30.183 69.5714 30.0864 69.5285 29.994 69.4865C30.0942 69.4958 30.2001 69.5075 30.2796 69.569C30.3591 69.6305 30.3936 69.7613 30.3222 69.8321C30.2625 69.8915 30.1644 69.8816 30.0834 69.8588C29.9016 69.8078 29.7324 69.7127 29.5947 69.5837C29.4912 69.6983 29.3379 69.7811 29.1855 69.7562C29.0331 69.7313 28.9038 69.569 28.9515 69.4223C28.9854 69.3176 29.0952 69.2516 29.2044 69.2384C29.3139 69.2252 29.4234 69.2552 29.5281 69.2891C29.421 69.2129 29.307 69.128 29.268 69.0023C29.2287 68.8769 29.3136 68.7083 29.445 68.7182C29.5926 68.7296 29.6679 68.9306 29.7843 69.0029C29.9283 68.8679 29.6592 68.5874 29.9742 68.4698Z" fill="#FAFAFA"/>
<path d="M32.6306 67.8549C32.7983 67.9686 32.8565 68.1927 32.8448 68.3949C32.8319 68.6184 32.7305 68.8569 32.5253 68.9466C32.2556 69.0645 31.9187 68.8401 31.8692 68.55C31.8197 68.2599 32.0102 67.9647 32.2712 67.8291C32.2712 67.8291 32.4629 67.7415 32.6306 67.8549Z" fill="#FAFAFA"/>
<path d="M30.7484 67.6145C30.7253 67.6346 30.7022 67.6544 30.6791 67.6745C30.7934 67.5296 31.0349 67.5107 31.1708 67.6358C31.3064 67.7609 31.3073 68.003 31.1726 68.129C31.0376 68.255 30.7961 68.2376 30.6806 68.0936C30.4859 68.1839 30.2291 68.1488 30.0923 67.9835C29.9555 67.8182 29.9864 67.5302 30.173 67.4243C30.3596 67.3184 30.6437 67.4774 30.6239 67.691C30.6509 67.661 30.6779 67.6307 30.7049 67.6007L30.7484 67.6145Z" fill="#FAFAFA"/>
<path d="M28.6697 67.9469C28.8029 68.078 28.9415 68.2181 28.9904 68.3987C29.0393 68.5793 28.9586 68.8091 28.7774 68.855C28.5974 68.9009 28.4264 68.7524 28.3238 68.5973C28.2311 68.4575 28.1603 68.2832 28.2137 68.1242C28.2671 67.9652 28.4963 67.871 28.6109 67.9934L28.6697 67.9469Z" fill="#FAFAFA"/>
<path d="M31.6646 66.8587C31.7327 66.7072 31.9478 66.6544 32.0885 66.742C32.2295 66.8296 32.2814 67.0273 32.2199 67.1812C32.1584 67.3354 32.0003 67.4398 31.8353 67.4578C31.631 67.48 31.3895 67.315 31.4354 67.1149C31.3472 67.231 31.1891 67.2769 31.0442 67.2628C30.8993 67.2484 30.7646 67.1827 30.6383 67.1101C30.4667 67.0114 30.284 66.8587 30.302 66.6616C30.3164 66.5047 30.4682 66.3838 30.6254 66.3691C30.7823 66.3544 30.9371 66.4273 31.0568 66.5299C31.151 66.6103 31.2293 66.7096 31.3313 66.7801C31.4333 66.8506 31.5719 66.8884 31.6808 66.8296L31.6646 66.8587Z" fill="#FAFAFA"/>
</g>
<path d="M29.1059 76.12H34.2557L34.76 70.9297H28.6016L29.1059 76.12Z" fill="#24774A"/>
<path opacity="0.3" d="M29.1059 76.12H34.2557L34.76 70.9297H28.6016L29.1059 76.12Z" fill="black"/>
<path d="M28.2041 71.1984H35.2112L35.3372 70.5078H28.0781L28.2041 71.1984Z" fill="#FAFAFA"/>
<path d="M36.9902 79.375H39.2474L39.3125 122.592C39.3131 123.045 38.9459 123.413 38.4929 123.413C38.0447 123.413 37.6796 123.054 37.6733 122.605L36.9902 79.375Z" fill="#263238"/>
<path opacity="0.2" d="M36.9902 79.375H39.2474L39.3125 122.592C39.3131 123.045 38.9459 123.413 38.4929 123.413C38.0447 123.413 37.6796 123.054 37.6733 122.605L36.9902 79.375Z" fill="white"/>
<path d="M24.6523 79.375H26.9095L26.9746 122.592C26.9752 123.045 26.608 123.413 26.155 123.413C25.7068 123.413 25.3417 123.054 25.3354 122.605L24.6523 79.375Z" fill="#263238"/>
<path opacity="0.2" d="M24.6523 79.375H26.9095L26.9746 122.592C26.9752 123.045 26.608 123.413 26.155 123.413C25.7068 123.413 25.3417 123.054 25.3354 122.605L24.6523 79.375Z" fill="white"/>
<path d="M90.6543 79.375H92.9115L92.9766 122.592C92.9772 123.045 92.61 123.413 92.157 123.413C91.7088 123.413 91.3437 123.054 91.3374 122.605L90.6543 79.375Z" fill="#263238"/>
<path opacity="0.2" d="M90.6543 79.375H92.9115L92.9766 122.592C92.9772 123.045 92.61 123.413 92.157 123.413C91.7088 123.413 91.3437 123.054 91.3374 122.605L90.6543 79.375Z" fill="white"/>
<path d="M78.3164 79.375H80.5736L80.6387 122.592C80.6393 123.045 80.2721 123.413 79.8191 123.413C79.3709 123.413 79.0058 123.054 78.9995 122.605L78.3164 79.375Z" fill="#263238"/>
<path opacity="0.2" d="M78.3164 79.375H80.5736L80.6387 122.592C80.6393 123.045 80.2721 123.413 79.8191 123.413C79.3709 123.413 79.0058 123.054 78.9995 122.605L78.3164 79.375Z" fill="white"/>
<path d="M24.7422 87.475L92.6997 86.9659V79.375H24.7266L24.7422 87.475Z" fill="#24774A"/>
<path opacity="0.3" d="M36.99 79.4326L37.1166 87.3781L24.7422 87.475L24.7266 79.375L36.99 79.4326Z" fill="black"/>
<path d="M95.349 77.549C95.3475 76.5266 94.9677 75.6983 94.4988 75.6953H23.7018C23.2329 75.6983 22.8531 76.5266 22.8516 77.549C22.8531 78.5714 23.2329 79.3994 23.7018 79.4024H94.4985C94.9677 79.3994 95.3475 78.5714 95.349 77.549Z" fill="#263238"/>
<path opacity="0.1" d="M95.349 77.549C95.3475 76.5266 94.9677 75.6983 94.4988 75.6953H23.7018C23.2329 75.6983 22.8531 76.5266 22.8516 77.549C22.8531 78.5714 23.2329 79.3994 23.7018 79.4024H94.4985C94.9677 79.3994 95.3475 78.5714 95.349 77.549Z" fill="white"/>
<path opacity="0.3" d="M41.1252 77.549C41.1237 76.5266 40.7439 75.6983 40.275 75.6953H23.7018C23.2329 75.6983 22.8531 76.5266 22.8516 77.549C22.8531 78.5714 23.2329 79.3994 23.7018 79.4024H40.275C40.7439 79.3994 41.124 78.5714 41.1252 77.549Z" fill="black"/>
<path d="M69.3239 40.6712C68.8718 40.6712 68.504 40.3034 68.504 39.8513V37.8317H68.1077C67.5272 37.8317 67.0547 37.3592 67.0547 36.7787V27.218C67.0574 26.6399 67.5275 26.1719 68.1038 26.1719C68.1053 26.1719 68.1071 26.1719 68.1086 26.1719H83.0273C83.6054 26.1719 84.0758 26.6423 84.0758 27.2204V36.7787C84.0758 37.3595 83.6033 37.8317 83.0228 37.8317H73.2734L69.8162 40.505C69.674 40.6124 69.4997 40.6712 69.3239 40.6712ZM68.1041 26.4716C67.6922 26.4716 67.3562 26.8058 67.3544 27.2186V36.7787C67.3544 37.1939 67.6922 37.5317 68.1074 37.5317H68.8037V39.8513C68.8037 40.1381 69.0368 40.3712 69.3236 40.3712C69.4346 40.3712 69.5444 40.334 69.6329 40.2668L73.1699 37.5317H83.0219C83.4371 37.5317 83.7749 37.1939 83.7749 36.7787V27.2201C83.7749 26.8073 83.4392 26.4716 83.0264 26.4716H68.1074C68.1065 26.4716 68.1053 26.4716 68.1041 26.4716Z" fill="#24774A"/>
<path d="M74.7584 24.9766H72.8906V25.2052H74.7584V24.9766Z" fill="#24774A"/>
<path d="M66.0216 27.6721H65.793V26.545C65.7942 25.6786 66.4971 24.9766 67.3635 24.9766H71.5311V25.2052H67.3638C66.6234 25.2052 66.0231 25.8046 66.0219 26.545L66.0216 27.6721Z" fill="#24774A"/>
<path d="M72.194 32.8256C72.7413 32.8256 73.1849 32.3819 73.1849 31.8347C73.1849 31.2874 72.7413 30.8438 72.194 30.8438C71.6468 30.8438 71.2031 31.2874 71.2031 31.8347C71.2031 32.3819 71.6468 32.8256 72.194 32.8256Z" fill="#24774A"/>
<path d="M76.5228 31.8347C76.5228 32.3819 76.0791 32.8256 75.5319 32.8256C74.9847 32.8256 74.541 32.3819 74.541 31.8347C74.541 31.2875 74.9847 30.8438 75.5319 30.8438C76.0791 30.8438 76.5228 31.2872 76.5228 31.8347Z" fill="#24774A"/>
<path d="M78.8698 32.8256C79.4171 32.8256 79.8607 32.3819 79.8607 31.8347C79.8607 31.2874 79.4171 30.8438 78.8698 30.8438C78.3225 30.8438 77.8789 31.2874 77.8789 31.8347C77.8789 32.3819 78.3225 32.8256 78.8698 32.8256Z" fill="#24774A"/>
<path d="M42.5868 55.9452L43.7784 55.8906L45.4509 74.3616H44.1861C43.5543 74.3016 43.4067 73.5939 43.2318 72.2568L42.0615 59.3616C41.7876 56.3034 42.3102 55.9452 42.5868 55.9452Z" fill="#24774A"/>
<path opacity="0.3" d="M42.5868 55.9452L43.7784 55.8906L45.4509 74.3616H44.1861C43.5543 74.3016 43.4067 73.5939 43.2318 72.2568L42.0615 59.3616C41.7876 56.3034 42.3102 55.9452 42.5868 55.9452Z" fill="black"/>
<path d="M44.4865 74.3619H69.5176C69.7945 74.3619 69.9949 74.1027 69.9655 73.7832L68.3995 56.4693C68.3701 56.1498 68.1217 55.8906 67.8451 55.8906H42.814C42.5374 55.8906 42.3367 56.1498 42.3661 56.4693L43.9321 73.7832C43.9615 74.1027 44.2096 74.3619 44.4865 74.3619Z" fill="#24774A"/>
<path d="M45.4464 72.1773H68.1807L66.9198 57.7656H44.1855L45.4464 72.1773Z" fill="#24774A"/>
<path d="M45.7592 73.3033H68.1623C68.7977 73.3033 69.2681 72.7882 69.2123 72.1525L67.9592 57.8305C67.9037 57.1948 67.3433 56.6797 66.7076 56.6797H44.3045C43.6691 56.6797 43.1987 57.1948 43.2545 57.8305L44.5076 72.1525C44.5634 72.7882 45.1238 73.3033 45.7592 73.3033Z" fill="#263238"/>
<path d="M45.4464 72.1773H68.1807L66.9198 57.7656H44.1855L45.4464 72.1773Z" fill="#24774A"/>
<path opacity="0.4" d="M45.4464 72.1773H68.1807L66.9198 57.7656H44.1855L45.4464 72.1773Z" fill="white"/>
<path opacity="0.1" d="M51.9875 56.6875L47.5469 73.2961H49.0406L53.4323 56.6875H51.9875Z" fill="white"/>
<path opacity="0.1" d="M54.2925 56.6875L49.8516 73.2961H52.8147L57.2064 56.6875H54.2925Z" fill="white"/>
<path d="M47.4637 62.0586C47.5417 62.6949 47.089 63.2109 46.4527 63.2109C45.8164 63.2109 45.2371 62.6949 45.1591 62.0586C45.0811 61.4223 45.5338 60.9062 46.1701 60.9062C46.8064 60.9063 47.3857 61.4223 47.4637 62.0586Z" fill="#24774A"/>
<path opacity="0.3" d="M47.4637 62.0586C47.5417 62.6949 47.089 63.2109 46.4527 63.2109C45.8164 63.2109 45.2371 62.6949 45.1591 62.0586C45.0811 61.4223 45.5338 60.9062 46.1701 60.9062C46.8064 60.9063 47.3857 61.4223 47.4637 62.0586Z" fill="black"/>
<path d="M46.4532 63.2139C46.698 63.2139 46.9152 63.1368 47.0859 63.0066L46.9785 62.6469C46.9377 62.5101 46.8066 62.4102 46.6674 62.4102H46.5303L46.512 62.2611C46.6536 62.1855 46.7385 62.0169 46.7142 61.8198C46.6815 61.5525 46.4616 61.3359 46.2228 61.3359C45.984 61.3359 45.8172 61.5525 45.8499 61.8198C45.8742 62.0169 46.0002 62.1855 46.1604 62.2611L46.1787 62.4102H46.0416C45.9027 62.4102 45.7959 62.5101 45.7887 62.6469L45.7695 63.0066C45.972 63.1368 46.2081 63.2139 46.4532 63.2139Z" fill="white"/>
<path d="M48.2829 61.8393C49.7934 61.8393 51.3036 61.8393 52.8141 61.8393C53.0223 61.8393 52.983 61.5156 52.7745 61.5156C51.264 61.5156 49.7538 61.5156 48.2433 61.5156C48.0351 61.5156 48.0744 61.8393 48.2829 61.8393Z" fill="white"/>
<path d="M48.3761 62.6063C50.366 62.6063 52.3559 62.6063 54.3455 62.6063C54.4844 62.6063 54.458 62.3906 54.3191 62.3906C52.3292 62.3906 50.3393 62.3906 48.3497 62.3906C48.2108 62.3906 48.2372 62.6063 48.3761 62.6063Z" fill="white"/>
<path d="M55.4691 62.4963C55.4862 62.6367 55.3866 62.7504 55.2462 62.7504C55.1058 62.7504 54.9783 62.6367 54.9609 62.4963C54.9438 62.3559 55.0434 62.2422 55.1838 62.2422C55.3242 62.2422 55.452 62.3562 55.4691 62.4963Z" fill="#263238"/>
<path opacity="0.5" d="M55.4691 62.4963C55.4862 62.6367 55.3866 62.7504 55.2462 62.7504C55.1058 62.7504 54.9783 62.6367 54.9609 62.4963C54.9438 62.3559 55.0434 62.2422 55.1838 62.2422C55.3242 62.2422 55.452 62.3562 55.4691 62.4963Z" fill="white"/>
<path d="M44.1875 57.7656L44.3003 59.0553H67.0346L66.9218 57.7656H44.1875Z" fill="#24774A"/>
<path d="M45.2322 58.3382C45.2448 58.4819 45.1386 58.5983 44.9949 58.5983C44.8512 58.5983 44.7246 58.4819 44.712 58.3382C44.6994 58.1945 44.8056 58.0781 44.9493 58.0781C45.093 58.0781 45.2196 58.1948 45.2322 58.3382Z" fill="white"/>
<path d="M45.9177 58.3382C45.9303 58.4819 45.8241 58.5983 45.6804 58.5983C45.5367 58.5983 45.4101 58.4819 45.3975 58.3382C45.3849 58.1945 45.4911 58.0781 45.6348 58.0781C45.7785 58.0781 45.9051 58.1948 45.9177 58.3382Z" fill="white"/>
<path d="M46.6032 58.3382C46.6158 58.4819 46.5096 58.5983 46.3659 58.5983C46.2222 58.5983 46.0956 58.4819 46.083 58.3382C46.0704 58.1945 46.1766 58.0781 46.3203 58.0781C46.464 58.0781 46.5906 58.1948 46.6032 58.3382Z" fill="white"/>
<path d="M69.7788 75.8232H44.2623C43.962 75.8232 43.7188 75.5799 43.7188 75.2796V74.9577C43.7188 74.6574 43.962 74.4141 44.2623 74.4141H69.7788C70.0791 74.4141 70.3225 74.6574 70.3225 74.9577V75.2796C70.3222 75.5799 70.0788 75.8232 69.7788 75.8232Z" fill="#24774A"/>
<path opacity="0.3" d="M69.7788 75.8232H44.2623C43.962 75.8232 43.7188 75.5799 43.7188 75.2796V74.9577C43.7188 74.6574 43.962 74.4141 44.2623 74.4141H69.7788C70.0791 74.4141 70.3225 74.6574 70.3225 74.9577V75.2796C70.3222 75.5799 70.0788 75.8232 69.7788 75.8232Z" fill="black"/>
<path d="M79.139 75.8232H54.929C54.3287 75.8232 53.8418 75.3366 53.8418 74.736V74.4141H80.2259V74.736C80.2262 75.3366 79.7393 75.8232 79.139 75.8232Z" fill="#24774A"/>
<path opacity="0.4" d="M79.139 75.8232H54.929C54.3287 75.8232 53.8418 75.3366 53.8418 74.736V74.4141H80.2259V74.736C80.2262 75.3366 79.7393 75.8232 79.139 75.8232Z" fill="white"/>
<path opacity="0.3" d="M65.7324 74.4531C65.7324 74.8422 66.0477 75.1575 66.4368 75.1575H69.6639C70.053 75.1575 70.3683 74.8422 70.3683 74.4531H65.7324Z" fill="black"/>
<path d="M68.1816 72.2072H45.4664L45.3438 70.8047H68.0588L68.1816 72.2072Z" fill="#24774A"/>
<path d="M65.1374 71.5936H49.3565L49.3457 71.4688H65.1266L65.1374 71.5936Z" fill="white"/>
<path d="M65.5819 71.6051C65.587 71.6633 65.5492 71.7116 65.4598 71.7116C65.413 71.7116 65.3644 71.6975 65.332 71.6732L65.3539 71.6252C65.3797 71.645 65.4169 71.6579 65.4544 71.6579C65.4985 71.6579 65.5228 71.6384 65.5201 71.6072C65.5174 71.5757 65.4952 71.5556 65.4265 71.5556H65.3464L65.3476 71.375H65.5426L65.5471 71.4266H65.4046L65.4043 71.5034H65.4358C65.5336 71.5037 65.5768 71.5463 65.5819 71.6051Z" fill="white"/>
<path d="M65.6057 71.4846C65.6036 71.4609 65.6198 71.4453 65.6411 71.4453C65.6624 71.4453 65.6813 71.4609 65.6834 71.4846C65.6855 71.5074 65.6693 71.5239 65.648 71.5239C65.6267 71.5239 65.6075 71.5074 65.6057 71.4846ZM65.6213 71.6652C65.6192 71.6415 65.6354 71.6259 65.6567 71.6259C65.678 71.6259 65.6969 71.6415 65.699 71.6652C65.7011 71.688 65.6849 71.7045 65.6636 71.7045C65.6423 71.7045 65.6234 71.688 65.6213 71.6652Z" fill="white"/>
<path d="M65.7277 71.5379C65.7181 71.429 65.7724 71.3672 65.851 71.3672C65.9302 71.3672 65.9953 71.4287 66.0049 71.5379C66.0145 71.6468 65.9602 71.7086 65.881 71.7086C65.8021 71.7086 65.737 71.6471 65.7277 71.5379ZM65.9428 71.5379C65.9359 71.4578 65.9011 71.4209 65.8558 71.4209C65.8108 71.4209 65.7826 71.4578 65.7895 71.5379C65.7964 71.618 65.8312 71.6552 65.8762 71.6552C65.9218 71.6552 65.9497 71.618 65.9428 71.5379Z" fill="white"/>
<path d="M66.046 71.5379C66.0364 71.429 66.0907 71.3672 66.1696 71.3672C66.2488 71.3672 66.3139 71.4287 66.3235 71.5379C66.3331 71.6468 66.2788 71.7086 66.1996 71.7086C66.1207 71.7086 66.0556 71.6471 66.046 71.5379ZM66.2611 71.5379C66.2542 71.4578 66.2194 71.4209 66.1741 71.4209C66.1291 71.4209 66.1009 71.4578 66.1078 71.5379C66.1147 71.618 66.1495 71.6552 66.1945 71.6552C66.2401 71.6552 66.2683 71.618 66.2611 71.5379Z" fill="white"/>
<path d="M46.172 71.6516L46.1765 71.7038H45.932L45.9284 71.6627L46.0493 71.5376C46.0787 71.5067 46.0826 71.4875 46.0811 71.4689C46.0784 71.4386 46.0562 71.4209 46.0154 71.4209C45.9833 71.4209 45.9572 71.4317 45.9407 71.4554L45.8945 71.4221C45.917 71.3876 45.9614 71.3672 46.016 71.3672C46.088 71.3672 46.1375 71.4038 46.1429 71.4626C46.1456 71.4947 46.1393 71.5244 46.097 71.5673L46.0157 71.6519L46.172 71.6516Z" fill="white"/>
<path d="M46.1916 71.4846C46.1895 71.4609 46.2057 71.4453 46.227 71.4453C46.2483 71.4453 46.2672 71.4609 46.2693 71.4846C46.2714 71.5074 46.2552 71.5239 46.2339 71.5239C46.2123 71.5239 46.1934 71.5074 46.1916 71.4846ZM46.2072 71.6652C46.2051 71.6415 46.2213 71.6259 46.2426 71.6259C46.2639 71.6259 46.2828 71.6415 46.2849 71.6652C46.287 71.688 46.2708 71.7045 46.2495 71.7045C46.2282 71.7045 46.2093 71.688 46.2072 71.6652Z" fill="white"/>
<path d="M46.5585 71.6051C46.5636 71.6633 46.5255 71.7116 46.4364 71.7116C46.3896 71.7116 46.341 71.6975 46.3086 71.6732L46.3305 71.6252C46.3563 71.645 46.3935 71.6579 46.431 71.6579C46.4751 71.6579 46.4994 71.6384 46.4967 71.6072C46.494 71.5757 46.4718 71.5556 46.4031 71.5556H46.323L46.3242 71.375H46.5189L46.5234 71.4266H46.3809L46.3806 71.5034H46.4121C46.5102 71.5037 46.5534 71.5463 46.5585 71.6051Z" fill="white"/>
<path d="M46.5909 71.5379C46.5813 71.429 46.6356 71.3672 46.7142 71.3672C46.7934 71.3672 46.8585 71.4287 46.8681 71.5379C46.8777 71.6468 46.8234 71.7086 46.7442 71.7086C46.6656 71.7086 46.6005 71.6471 46.5909 71.5379ZM46.806 71.5379C46.7991 71.4578 46.7643 71.4209 46.719 71.4209C46.674 71.4209 46.6458 71.4578 46.6527 71.5379C46.6596 71.618 46.6944 71.6552 46.7394 71.6552C46.785 71.6552 46.8129 71.618 46.806 71.5379Z" fill="white"/>
<path d="M67.7355 72.0329H66.7341L66.6465 71.0315H67.6479L67.7355 72.0329ZM66.8859 71.8667H67.5549L67.4964 71.1977H66.8274L66.8859 71.8667Z" fill="white"/>
<path d="M56.2052 71.3594H47.1836L47.2139 71.7053H56.2355L56.2052 71.3594Z" fill="#263238"/>
<path d="M56.5375 71.5202C56.5528 71.6954 56.4232 71.8373 56.2483 71.8373C56.0731 71.8373 55.9189 71.6954 55.9036 71.5202C55.8883 71.345 56.0179 71.2031 56.1928 71.2031C56.368 71.2031 56.5222 71.345 56.5375 71.5202Z" fill="#263238"/>
<path d="M56.5375 71.5202C56.5528 71.6954 56.4232 71.8373 56.2483 71.8373C56.0731 71.8373 55.9189 71.6954 55.9036 71.5202C55.8883 71.345 56.0179 71.2031 56.1928 71.2031C56.368 71.2031 56.5222 71.345 56.5375 71.5202Z" fill="white"/>
<path d="M65.2068 49.1603C65.2068 49.1603 67.6974 49.4282 68.9274 52.0616C70.1574 54.695 71.1378 58.52 72.0603 58.9199C72.9828 59.3198 77.0109 55.3532 77.0109 55.3532C77.0109 55.3532 76.191 52.7294 77.421 52.3193C78.651 51.9092 78.405 50.0723 79.5528 50.4578C80.7009 50.8433 81.3567 52.4834 81.2748 53.3852C81.1929 54.287 79.0608 56.3372 79.0608 56.3372C79.0608 56.3372 75.2067 63.1973 71.271 62.5691C67.3353 61.9409 65.2068 52.748 65.2068 52.748C65.2068 52.748 64.0998 49.0166 65.2068 49.1603Z" fill="#EEC8C0"/>
<path opacity="0.1" d="M66.2988 56.1226C67.1616 58.45 67.8735 60.1333 69.5151 61.6258C67.7373 58.7725 67.9311 53.6641 67.9311 53.6641L66.2988 56.1226Z" fill="black"/>
<path d="M51.7232 49.9692C53.2811 49.5267 54.6998 49.2084 55.9991 48.9804L56.0477 49.0215L56.1221 49.0941L56.7557 49.5774L58.4759 50.6139L59.8901 50.8362L61.2581 50.5029L62.1341 49.2834L62.2943 48.5838L62.2955 48.5625C64.4951 48.7095 65.9423 49.1856 66.7595 49.5615C67.2677 49.7952 67.6028 50.2926 67.6352 50.8512C67.6832 51.6807 67.8275 53.208 68.2466 55.6809C68.8169 59.0463 67.0718 66.5799 66.3953 69.2946C66.2423 69.9084 65.7266 70.3596 65.0996 70.4421C59.7281 71.1501 55.4969 70.7931 53.4446 70.5162C52.6913 70.4145 52.1234 69.7821 52.1147 69.0219C52.0667 64.7094 51.0131 55.0803 50.6192 51.6147C50.5346 50.8707 51.0026 50.1735 51.7232 49.9692Z" fill="#24774A"/>
<path d="M51.7232 49.9692C53.2811 49.5267 54.6998 49.2084 55.9991 48.9804L56.0477 49.0215L56.1221 49.0941L56.7557 49.5774L58.4759 50.6139L59.8901 50.8362L61.2581 50.5029L62.1341 49.2834L62.2943 48.5838L62.2955 48.5625C64.4951 48.7095 65.9423 49.1856 66.7595 49.5615C67.2677 49.7952 67.6028 50.2926 67.6352 50.8512C67.6832 51.6807 67.8275 53.208 68.2466 55.6809C68.8169 59.0463 67.0718 66.5799 66.3953 69.2946C66.2423 69.9084 65.7266 70.3596 65.0996 70.4421C59.7281 71.1501 55.4969 70.7931 53.4446 70.5162C52.6913 70.4145 52.1234 69.7821 52.1147 69.0219C52.0667 64.7094 51.0131 55.0803 50.6192 51.6147C50.5346 50.8707 51.0026 50.1735 51.7232 49.9692Z" fill="#263238"/>
<path d="M56.1234 37.8059C55.5609 39.4361 54.6309 41.2131 55.0305 42.8907C55.4301 44.5683 57.2487 46.1232 58.8849 46.668C60.786 47.3013 62.9967 47.9841 64.4025 46.5561C65.0976 45.8499 64.6995 44.4287 64.0557 43.6754C63.4116 42.9221 62.271 42.6419 61.3515 43.0112C61.5075 42.2078 61.3674 41.2413 61.191 40.4424C60.9519 39.3603 60.372 38.3111 59.4306 37.7258C58.4892 37.1405 56.4846 36.7583 56.1234 37.8059Z" fill="#263238"/>
<path d="M56.7241 48.8581C57.8371 47.6893 57.3916 42.4375 57.3916 42.4375L60.6472 44.6506C60.6472 44.6506 60.8407 47.8984 61.6183 48.5254C61.8001 48.6721 62.0689 48.5479 62.2873 48.5626L62.0896 49.3885L61.4836 50.416L60.6475 51.0088H59.4154L58.3087 50.6926L57.0442 49.81L56.0137 48.9796C56.2519 48.9376 56.5636 49.0267 56.7241 48.8581Z" fill="#EEC8C0"/>
<path opacity="0.1" d="M60.9315 46.8307C58.7904 46.5868 57.8049 45.4759 57.3594 44.5963L57.4506 43.7188L60.7062 45.9318L60.9315 46.8307Z" fill="black"/>
<path d="M56.1173 40.3425C56.8031 43.0476 57.0374 44.2032 58.685 45.3429C61.1645 47.061 64.3355 45.6231 64.472 42.7713C64.5905 40.2015 63.4442 36.1971 60.56 35.6337C58.5023 35.2098 56.4905 36.5343 56.0666 38.592C55.9472 39.1716 55.9646 39.771 56.1173 40.3425Z" fill="#EEC8C0"/>
<path d="M60.6114 40.231C60.6561 40.453 60.8082 40.612 60.9522 40.5862C61.0962 40.5604 61.1823 40.3534 61.1418 40.1314C61.1013 39.9094 60.9447 39.7504 60.801 39.7762C60.6573 39.8017 60.5832 40.0174 60.6114 40.231Z" fill="#263238"/>
<path d="M63.1272 39.7589C63.1716 39.9851 63.324 40.1399 63.468 40.1141C63.612 40.0883 63.6981 39.8813 63.6576 39.6593C63.6171 39.4373 63.4608 39.2786 63.3168 39.3083C63.1728 39.338 63.0867 39.5369 63.1272 39.7589Z" fill="#263238"/>
<path d="M63.2539 39.334L63.7588 39.0781C63.7588 39.0781 63.565 39.5494 63.2539 39.334Z" fill="#263238"/>
<path d="M62.4297 40.3125C62.7258 40.7829 63.0849 41.2107 63.4971 41.5836C63.2964 41.7897 63.0165 41.8989 62.7291 41.883L62.4297 40.3125Z" fill="#ED893E"/>
<path d="M59.5035 39.9164C59.5617 39.9158 59.6127 39.8768 59.6283 39.8207C59.8032 39.4187 60.1374 39.1079 60.5511 38.9633C60.6216 38.9396 60.6597 38.8637 60.6366 38.7929C60.6138 38.7242 60.5397 38.687 60.471 38.7098C60.4695 38.7101 60.468 38.711 60.4665 38.7113C59.9679 38.8817 59.5683 39.2606 59.3721 39.7496C59.3526 39.8192 59.3931 39.8918 59.463 39.9113H59.4633C59.4756 39.9167 59.4897 39.9185 59.5035 39.9164Z" fill="#263238"/>
<path d="M63.6619 38.4576C63.7105 38.4558 63.7543 38.4288 63.778 38.3862C63.8125 38.3214 63.7885 38.2407 63.7243 38.205C63.3496 37.9836 62.8894 37.9635 62.4967 38.151C62.4337 38.1819 62.4079 38.2581 62.4388 38.3211C62.4403 38.3241 62.4421 38.3274 62.4436 38.3304C62.4778 38.3943 62.5573 38.4183 62.6209 38.3841C62.6215 38.3838 62.6221 38.3835 62.6227 38.3832C62.9338 38.2479 63.2908 38.2689 63.5839 38.4399C63.6079 38.4534 63.6349 38.4597 63.6619 38.4576Z" fill="#263238"/>
<path d="M60.7383 39.8262L61.2432 39.5703C61.2432 39.5703 61.0497 40.0251 60.7383 39.8262Z" fill="#263238"/>
<path d="M64.7265 35.0416C65.4564 35.5903 65.8122 36.4978 65.5917 37.2931C65.4879 37.6672 65.2689 38.0173 65.2527 38.4049C65.2365 38.7925 65.5398 39.2485 65.9838 39.2437C65.3697 39.3115 64.7331 39.3778 64.1319 39.2173C63.5307 39.0568 62.9721 38.6032 62.9502 38.0593C62.9421 37.8574 63.0066 37.6609 63.0186 37.4596C63.0306 37.2583 62.9751 37.0321 62.7873 36.9079C62.4555 36.6886 62.0145 36.9244 61.6125 36.9772C60.8778 37.0738 60.1509 36.3934 60.2421 35.7484C60.3336 35.1031 62.1081 33.0727 64.7265 35.0416Z" fill="#263238"/>
<path d="M62.0046 34.1082C62.9868 34.6509 65.6259 37.3719 58.5102 36.9255C58.5102 36.9255 58.5243 41.3736 56.2872 41.9772L50.4336 41.0115C50.4336 41.0115 52.761 29.0016 62.0046 34.1082Z" fill="#263238"/>
<path d="M51.2073 38.3138C50.6448 39.944 49.7148 41.7209 50.1144 43.3985C50.514 45.0761 52.3326 46.631 53.9688 47.1758C55.8699 47.8088 58.0806 48.4919 59.4864 47.0639C60.1815 46.3577 59.7834 44.9366 59.1396 44.1833C58.4955 43.43 57.3552 43.1498 56.4354 43.5191C56.5914 42.7157 56.4513 41.7491 56.2749 40.9502C56.0358 39.8681 55.4559 38.819 54.5148 38.2337C53.5734 37.6484 51.5688 37.2662 51.2073 38.3138Z" fill="#263238"/>
<path d="M55.7714 42.5931C56.0363 43.0503 56.471 43.3845 56.981 43.5231C57.6614 43.6968 57.9893 43.085 57.7895 42.446C57.6047 41.8727 57.0311 41.0912 56.3531 41.1878C55.8629 41.2736 55.5353 41.7404 55.6211 42.2306C55.6442 42.3611 55.6952 42.4848 55.7714 42.5931Z" fill="#EEC8C0"/>
<path d="M62.962 42.6562C62.962 42.6562 62.0164 43.1686 60.745 42.6562C60.745 42.6562 60.6553 44.0206 62.2729 43.9084C62.446 43.8964 62.9617 43.8205 62.9617 43.8205C62.9617 43.8205 62.8261 43.2634 62.962 42.6562Z" fill="#263238"/>
<path d="M60.8171 43.1254C60.7325 42.8725 60.7448 42.6562 60.7448 42.6562C61.5332 42.974 62.1953 42.8975 62.5853 42.7934V43.24C62.5853 43.24 61.5155 43.4287 60.8171 43.1254Z" fill="white"/>
<path d="M60.9688 43.4291C61.0843 43.415 61.2027 43.4062 61.3248 43.4062C61.911 43.4062 62.4277 43.5812 62.7703 43.8494C62.605 43.8725 62.3778 43.9028 62.2734 43.91C61.5507 43.9598 61.1701 43.715 60.9688 43.4291Z" fill="#C13B37"/>
<path d="M62.911 48.5675C62.911 48.5675 62.1484 48.3101 61.8433 48.5675C61.8433 48.5675 61.8988 50.5442 60.3043 50.7938C58.7098 51.0434 56.257 48.8804 56.257 48.8804C56.257 48.8804 55.7977 48.728 55.1875 49.0469L61.462 55.8848C63.979 53.2373 62.911 48.5675 62.911 48.5675Z" fill="#24774A"/>
<path d="M51.4222 56.5054C50.8141 55.6843 49.5829 52.2817 50.932 50.4337C52.2808 48.5857 60.4228 59.7106 60.4228 59.7106C61.7959 59.0293 68.1757 56.89 68.1757 56.89C68.1757 56.89 68.389 54.6628 69.3274 54.1204C70.2658 53.5777 70.6984 52.1485 71.4979 52.9942C72.2974 53.8399 73.2307 56.185 72.0013 57.0739C70.7719 57.9625 69.5377 58.6414 69.5377 58.6414C69.5377 58.6414 64.6264 62.1013 61.0606 63.2986C57.4948 64.4959 53.9419 59.9077 51.4222 56.5054Z" fill="#EEC8C0"/>
<path opacity="0.1" d="M51.4222 56.5054C50.8141 55.6843 49.5829 52.2817 50.932 50.4337C52.2808 48.5857 60.4228 59.7106 60.4228 59.7106C61.7959 59.0293 68.1757 56.89 68.1757 56.89C68.1757 56.89 68.389 54.6628 69.3274 54.1204C70.2658 53.5777 70.6984 52.1485 71.4979 52.9942C72.2974 53.8399 73.2307 56.185 72.0013 57.0739C70.7719 57.9625 69.5377 58.6414 69.5377 58.6414C69.5377 58.6414 64.6264 62.1013 61.0606 63.2986C57.4948 64.4959 53.9419 59.9077 51.4222 56.5054Z" fill="white"/>
<path opacity="0.1" d="M51.4222 56.5054C50.8141 55.6843 49.5829 52.2817 50.932 50.4337C52.2808 48.5857 60.4228 59.7106 60.4228 59.7106C61.7959 59.0293 68.1757 56.89 68.1757 56.89C68.1757 56.89 68.389 54.6628 69.3274 54.1204C70.2658 53.5777 70.6984 52.1485 71.4979 52.9942C72.2974 53.8399 73.2307 56.185 72.0013 57.0739C70.7719 57.9625 69.5377 58.6414 69.5377 58.6414C69.5377 58.6414 64.6264 62.1013 61.0606 63.2986C57.4948 64.4959 53.9419 59.9077 51.4222 56.5054Z" fill="white"/>
<path d="M66.7786 71.1257L66.3946 69.2969C66.3946 69.2969 56.4172 70.3313 52.1623 69.3827L51.6055 71.1257H66.7786Z" fill="#263238"/>
<path d="M56.9493 44.0253C56.9493 44.3241 56.7069 44.5662 56.4081 44.5662C56.1093 44.5662 55.8672 44.3241 55.8672 44.0253C55.8672 43.7265 56.1093 43.4844 56.4081 43.4844C56.7069 43.4844 56.9493 43.7265 56.9493 44.0253Z" fill="white"/>
<path d="M90.6682 48.6797C90.3625 49.3319 89.971 49.9403 89.5039 50.4887C89.8603 50.8589 90.5236 50.7206 90.5236 50.7206L90.6682 48.6797Z" fill="#A02724"/>
<path d="M98.2042 52.0781L96.2089 53.5625L93.4855 55.586C93.6289 55.898 93.7132 56.234 93.7345 56.5766C93.8191 57.3344 93.9064 57.8951 92.2189 58.3346C91.8532 58.4162 91.5685 58.7042 91.4911 59.0708C91.4188 59.5172 91.684 60.0605 93.2326 60.3494C94.7329 60.5957 96.2728 60.356 97.6276 59.6657C98.29 59.3462 98.2957 58.9514 98.0293 58.28C97.228 56.3702 97.6642 53.9552 98.2042 52.0781Z" fill="#FF8B7B"/>
<path d="M90.1378 48.4679C90.0787 48.7031 90.13 48.9189 90.2521 48.9495C90.3742 48.9801 90.5209 48.8142 90.5797 48.579C90.6388 48.3438 90.5875 48.128 90.4654 48.0974C90.3436 48.0665 90.1966 48.2327 90.1378 48.4679Z" fill="#263238"/>
<path d="M91.9105 48.1175C91.8586 48.1175 91.8079 48.0905 91.7803 48.0422C91.5364 47.6165 91.0624 47.3342 90.5722 47.3234C90.4897 47.3216 90.424 47.2529 90.4258 47.1701C90.4276 47.0885 90.4945 47.0234 90.5758 47.0234C90.577 47.0234 90.5782 47.0234 90.5791 47.0234C91.1725 47.0366 91.7461 47.3783 92.0407 47.8931C92.0821 47.9651 92.0572 48.0566 91.9849 48.098C91.9615 48.1112 91.936 48.1175 91.9105 48.1175Z" fill="#263238"/>
<path d="M90.1234 51.7912C90.2644 53.2186 91.0777 54.4042 92.1712 55.0828C92.5609 55.3246 92.9839 55.5019 93.4285 55.6018C94.4539 55.831 95.5699 55.6477 96.5575 54.9025C98.2939 53.5885 98.4943 51.808 99.0979 48.8218C99.2248 48.2173 99.2176 47.5918 99.0796 46.9915C98.5492 44.7118 96.2749 43.2946 93.9937 43.8205C90.8836 44.5627 89.8528 48.9793 90.1234 51.7912Z" fill="#FF8B7B"/>
<path opacity="0.2" d="M92.1719 55.0837C92.5616 55.3255 92.9846 55.5028 93.4292 55.6027L93.4838 55.5901L93.2927 54.9844C93.2927 54.9844 93.0371 55.4302 92.1719 55.0837Z" fill="black"/>
<path d="M99.9685 50.9655C99.4651 51.9963 98.8411 53.0283 97.8901 53.6682C97.5382 53.9064 94.8757 53.73 94.8757 53.73C94.9012 52.824 93.7564 49.7085 93.2032 48.6624C93.0319 49.0905 93.2749 49.6803 93.0559 50.0754C92.761 50.0184 87.4201 48.0981 89.7727 44.2605C91.4332 41.5518 95.8936 41.3154 97.7419 43.9866C98.524 43.7394 99.4081 44.0622 99.9709 44.6532C100.536 45.2481 100.805 46.0692 100.88 46.8825C101.008 48.2892 100.587 49.6953 99.9685 50.9655Z" fill="#263238"/>
<path d="M95.0301 49.4329C94.9746 50.1166 94.6686 50.7559 94.1709 51.2281C93.5271 51.8275 92.7243 51.19 92.6241 50.3293C92.5356 49.5577 92.91 48.4297 93.6921 48.1603C94.4742 47.8912 95.0949 48.5872 95.0301 49.4329Z" fill="#FF8B7B"/>
<path d="M69.2302 116.862L66.4648 115.504L68.509 108.773L71.8753 110.653L69.2302 116.862Z" fill="#FF8B7B"/>
<path opacity="0.2" d="M72.6007 108.801L69.0583 106.758L67.6543 111.61L70.8508 113.115L72.6007 108.801Z" fill="black"/>
<path d="M66.3009 114.969L69.4671 116.429C69.5799 116.475 69.6342 116.619 69.5892 116.755L68.5536 119.832C68.4213 120.158 68.0961 120.323 67.8204 120.203C66.7281 119.672 66.2283 119.354 64.8369 118.712C63.9792 118.317 62.0268 117.387 60.8088 116.945C59.5908 116.502 60.0945 115.074 60.6534 115.13C63.1638 115.396 64.6405 115.338 65.7318 114.955C65.9223 114.886 66.1227 114.89 66.3009 114.969Z" fill="#263238"/>
<path d="M64.6724 115.175C64.9256 115.273 65.1884 115.345 65.4566 115.389C65.4836 115.396 65.5118 115.384 65.5262 115.36C65.5454 115.341 65.5523 115.312 65.5442 115.285C65.4812 115.182 64.9058 114.295 64.5035 114.282C64.4096 114.276 64.3199 114.321 64.2698 114.401C64.1759 114.512 64.1486 114.665 64.1981 114.801C64.3055 114.98 64.4741 115.113 64.6724 115.175ZM65.3339 115.222C64.7849 115.089 64.4132 114.933 64.3379 114.743C64.3109 114.654 64.334 114.557 64.3988 114.49C64.4219 114.45 64.4645 114.426 64.5107 114.425C64.7228 114.431 65.0927 114.871 65.3339 115.222Z" fill="#24774A"/>
<path d="M65.4602 115.392C65.4602 115.392 65.48 115.397 65.4917 115.4C65.5169 115.396 65.5388 115.382 65.5514 115.36C65.5601 115.324 65.9804 114.536 65.8088 114.139C65.7683 114.032 65.6783 113.953 65.5676 113.926C65.45 113.879 65.3156 113.919 65.2433 114.023C65.0456 114.305 65.2181 115.078 65.4284 115.367C65.4353 115.379 65.4467 115.388 65.4602 115.392ZM65.561 114.074C65.6147 114.097 65.657 114.14 65.6783 114.195C65.7188 114.534 65.6492 114.878 65.4794 115.175C65.3054 114.846 65.2631 114.464 65.3615 114.106C65.3711 114.066 65.4251 114.033 65.5268 114.062L65.561 114.074Z" fill="#24774A"/>
<path d="M90.2748 82.0583C90.2748 82.0583 73.9905 79.2569 71.943 88.1642C70.3596 94.4012 69.5949 96.9389 67.584 110.768L71.8821 111.74C71.8821 111.74 78.8112 97.5737 79.2156 91.5494C84.0765 92.3696 95.1336 94.6739 97.4907 90.5606C98.6694 88.469 99.4572 86.18 99.8157 83.8058L90.2748 82.0583Z" fill="#24774A"/>
<g opacity="0.3">
<path d="M90.2748 82.0583C90.2748 82.0583 73.9905 79.2569 71.943 88.1642C70.3596 94.4012 69.5949 96.9389 67.584 110.768L71.8821 111.74C71.8821 111.74 78.8112 97.5737 79.2156 91.5494C84.0765 92.3696 95.1336 94.6739 97.4907 90.5606C98.6694 88.469 99.4572 86.18 99.8157 83.8058L90.2748 82.0583Z" fill="black"/>
</g>
<path d="M72.4317 112.692L66.9258 110.766L67.4421 108.273L73.0908 110.568L72.4317 112.692Z" fill="#24774A"/>
<path d="M57.8311 115.863L54.9277 114.252L57.8134 108.672L61.393 110.129L57.8311 115.863Z" fill="#FF8B7B"/>
<path opacity="0.2" d="M62.3934 108.411L59.2041 105.852L57.0762 110.433L60.0057 112.408L62.3934 108.411Z" fill="black"/>
<path d="M55.2241 113.548L58.1305 115.474C58.2352 115.536 58.2667 115.687 58.2013 115.815L56.7085 118.698C56.5279 119 56.1814 119.113 55.9273 118.952C54.9286 118.262 54.4831 117.871 53.2063 117.024C52.4191 116.503 50.6311 115.286 49.495 114.663C48.3589 114.04 49.0744 112.705 49.6183 112.846C52.0588 113.491 53.527 113.659 54.664 113.448C54.8626 113.408 55.06 113.443 55.2241 113.548Z" fill="#263238"/>
<path d="M53.5814 113.501C53.8166 113.636 54.0653 113.748 54.3236 113.832C54.3494 113.842 54.3788 113.835 54.3968 113.814C54.4187 113.797 54.4298 113.77 54.4262 113.742C54.3797 113.631 53.9462 112.667 53.5508 112.592C53.459 112.571 53.3633 112.603 53.3018 112.674C53.192 112.769 53.1416 112.916 53.1698 113.059C53.2484 113.252 53.3948 113.409 53.5814 113.501ZM54.2282 113.648C53.7059 113.433 53.3624 113.222 53.3168 113.023C53.3036 112.931 53.3414 112.838 53.4158 112.782C53.4446 112.746 53.4905 112.728 53.5364 112.735C53.7446 112.773 54.0431 113.264 54.2282 113.648Z" fill="#24774A"/>
<path d="M54.3279 113.837C54.3279 113.837 54.3468 113.845 54.3579 113.85C54.3831 113.85 54.4071 113.839 54.423 113.819C54.4371 113.785 54.9726 113.07 54.8634 112.652C54.8397 112.541 54.7626 112.448 54.6576 112.405C54.5487 112.34 54.4095 112.36 54.3222 112.451C54.0837 112.7 54.1365 113.491 54.3 113.808C54.3051 113.821 54.3153 113.832 54.3279 113.837ZM54.6285 112.551C54.678 112.582 54.7134 112.631 54.726 112.688C54.7143 113.029 54.5928 113.359 54.3798 113.626C54.2577 113.275 54.2745 112.891 54.4263 112.551C54.4419 112.514 54.5001 112.489 54.5961 112.533L54.6285 112.551Z" fill="#24774A"/>
<path d="M85.1425 81.193C85.0291 81.1738 67.2898 76.3753 64.351 86.4241C60.3184 98.6572 57.3262 109.038 57.3262 109.038L60.8074 111.561C60.8074 111.561 69.6829 99.2791 71.0011 90.8578C76.5445 90.2329 89.7928 95.0899 92.149 90.9799C94.0783 87.6187 94.1695 82.7161 94.1695 82.7161L85.1425 81.193Z" fill="#24774A"/>
<path opacity="0.3" d="M85.1425 81.193C85.0291 81.1738 67.2898 76.3753 64.351 86.4241C60.3184 98.6572 57.3262 109.038 57.3262 109.038L60.8074 111.561C60.8074 111.561 69.6829 99.2791 71.0011 90.8578C76.5445 90.2329 89.7928 95.0899 92.149 90.9799C94.0783 87.6187 94.1695 82.7161 94.1695 82.7161L85.1425 81.193Z" fill="black"/>
<path d="M61.3221 112.213L56.6172 109.063L57.3786 107.047L62.4357 109.807L61.3221 112.213Z" fill="#24774A"/>
<path d="M101.639 60.6754C101.328 61.8829 100.976 63.0604 100.582 64.2448C100.188 65.4292 99.7384 66.61 99.2119 67.7905C98.6755 69.0247 98.0113 70.1992 97.2295 71.2948C96.7687 71.9365 96.2179 72.5086 95.5939 72.9937C95.2087 73.2886 94.7842 73.5286 94.3327 73.7068C94.0738 73.8055 93.8056 73.8784 93.532 73.9243L93.3133 73.9588C93.1987 73.9678 93.0736 73.9783 92.9623 73.9759C92.7739 73.9729 92.5861 73.9516 92.4019 73.9123C92.1283 73.8565 91.8613 73.7716 91.6057 73.6588C91.4038 73.5715 91.2076 73.4716 91.0186 73.3594C90.7 73.162 90.3937 72.9448 90.1024 72.7087C89.5789 72.298 87.6763 69.2899 86.3242 67.204L87.9352 65.8582C89.6806 67.441 91.4542 69.0667 93.2299 70.4542C93.6865 70.7785 91.7617 69.4813 92.191 69.7546C92.3827 69.8758 92.5828 69.9832 92.7898 70.0759C92.9593 70.1557 93.1267 70.1932 93.0796 70.1641C93.0427 70.153 93.0043 70.147 92.9656 70.1464C92.9227 70.1431 92.8795 70.1443 92.8366 70.1497C92.8366 70.1497 92.8687 70.1365 92.8999 70.1179C92.9998 70.0597 93.0937 69.9916 93.1798 69.9145C93.4813 69.6322 93.7477 69.3148 93.9733 68.9689C94.54 68.077 95.0188 67.1323 95.4028 66.1477C95.8384 65.1013 96.1972 64.0366 96.5422 62.9398C96.8875 61.8427 97.2085 60.7288 97.4974 59.5966C97.7866 58.4638 101.949 59.4679 101.639 60.6754Z" fill="#24774A"/>
<path opacity="0.6" d="M101.639 60.6754C101.328 61.8829 100.976 63.0604 100.582 64.2448C100.188 65.4292 99.7384 66.61 99.2119 67.7905C98.6755 69.0247 98.0113 70.1992 97.2295 71.2948C96.7687 71.9365 96.2179 72.5086 95.5939 72.9937C95.2087 73.2886 94.7842 73.5286 94.3327 73.7068C94.0738 73.8055 93.8056 73.8784 93.532 73.9243L93.3133 73.9588C93.1987 73.9678 93.0736 73.9783 92.9623 73.9759C92.7739 73.9729 92.5861 73.9516 92.4019 73.9123C92.1283 73.8565 91.8613 73.7716 91.6057 73.6588C91.4038 73.5715 91.2076 73.4716 91.0186 73.3594C90.7 73.162 90.3937 72.9448 90.1024 72.7087C89.5789 72.298 87.6763 69.2899 86.3242 67.204L87.9352 65.8582C89.6806 67.441 91.4542 69.0667 93.2299 70.4542C93.6865 70.7785 91.7617 69.4813 92.191 69.7546C92.3827 69.8758 92.5828 69.9832 92.7898 70.0759C92.9593 70.1557 93.1267 70.1932 93.0796 70.1641C93.0427 70.153 93.0043 70.147 92.9656 70.1464C92.9227 70.1431 92.8795 70.1443 92.8366 70.1497C92.8366 70.1497 92.8687 70.1365 92.8999 70.1179C92.9998 70.0597 93.0937 69.9916 93.1798 69.9145C93.4813 69.6322 93.7477 69.3148 93.9733 68.9689C94.54 68.077 95.0188 67.1323 95.4028 66.1477C95.8384 65.1013 96.1972 64.0366 96.5422 62.9398C96.8875 61.8427 97.2085 60.7288 97.4974 59.5966C97.7866 58.4638 101.949 59.4679 101.639 60.6754Z" fill="white"/>
<path d="M88.055 66.0383L86.5145 62.7734L83.5898 64.4444C83.5898 64.4444 85.4831 67.475 86.5466 67.1756L88.055 66.0383Z" fill="#FF8B7B"/>
<path d="M84.1287 62L82.7859 62.5523C82.4484 62.6912 82.3566 63.1262 82.6089 63.3896L83.6034 64.427L86.5281 62.756L84.5082 61.994C84.3858 61.9481 84.2499 61.9499 84.1287 62Z" fill="#FF8B7B"/>
<path d="M73.0777 72.0481L69.9265 71.6641L68.8789 74.9728C68.8789 74.9728 72.4828 75.0601 73.0834 74.0899L73.0777 72.0481Z" fill="#FF8B7B"/>
<path d="M67.5749 72.7903L66.986 74.0482C66.8093 74.4253 67.0685 74.8618 67.484 74.8873L68.8772 74.9728L69.9248 71.6641L67.8866 72.4939C67.7492 72.55 67.6379 72.6559 67.5749 72.7903Z" fill="#FF8B7B"/>
<path d="M102.644 60.498C102.502 59.7663 101.414 58.8753 100.675 58.7505L100.186 58.668C99.333 58.524 98.2584 58.4133 97.206 58.3599C95.2029 58.2456 93.195 58.2447 91.1916 58.3569C90.2646 58.4412 89.358 58.5924 88.6338 58.7322C88.6245 58.7343 88.6155 58.7361 88.6062 58.7382C87.7608 58.9194 87.15 59.6538 87.1242 60.5184C87.0567 62.7837 86.8809 67.3848 86.4753 71.9247C86.1588 75.4668 85.4598 78.9198 85.1445 81.3219L99.8202 83.7981C100.81 81.0144 101.153 78.4986 102.068 73.3248C102.617 70.2183 103.229 63.5085 102.644 60.498Z" fill="#24774A"/>
<path opacity="0.6" d="M102.644 60.498C102.502 59.7663 101.414 58.8753 100.675 58.7505L100.186 58.668C99.333 58.524 98.2584 58.4133 97.206 58.3599C95.2029 58.2456 93.195 58.2447 91.1916 58.3569C90.2646 58.4412 89.358 58.5924 88.6338 58.7322C88.6245 58.7343 88.6155 58.7361 88.6062 58.7382C87.7608 58.9194 87.15 59.6538 87.1242 60.5184C87.0567 62.7837 86.8809 67.3848 86.4753 71.9247C86.1588 75.4668 85.4598 78.9198 85.1445 81.3219L99.8202 83.7981C100.81 81.0144 101.153 78.4986 102.068 73.3248C102.617 70.2183 103.229 63.5085 102.644 60.498Z" fill="white"/>
<path d="M88.5694 59.1023C89.7616 59.6222 90.3031 61.0142 89.7724 62.2016C88.5691 64.8935 86.5633 69.1583 85.6981 70.6517C85.3705 71.1818 85.0426 71.7083 84.673 72.2366C84.4882 72.5024 84.2824 72.7658 84.0631 73.0364C83.9431 73.1738 83.8468 73.3001 83.7061 73.442L83.5051 73.6526L83.3911 73.769C83.071 74.0666 82.6888 74.2895 82.2724 74.4221C82.0531 74.4941 81.829 74.5511 81.6019 74.5925C81.2314 74.6528 80.8567 74.6831 80.4814 74.6834C79.8331 74.6891 75.3736 75.0836 73.1068 74.2889L72.9883 71.8376C75.2548 72.0179 79.2133 70.7903 79.7224 70.736C79.9273 70.7114 80.1301 70.6706 80.3284 70.6136C80.3932 70.5956 80.4556 70.5698 80.5138 70.5362C80.5348 70.5353 80.5129 70.5119 80.4211 70.5749C80.3875 70.5953 80.3569 70.6202 80.3296 70.6484C80.3296 70.6484 80.3527 70.616 80.3629 70.6052L80.4562 70.4933C80.5162 70.4279 80.5888 70.3202 80.6587 70.2338C80.7943 70.0466 80.9329 69.8456 81.0706 69.6269C81.343 69.2003 81.6067 68.7287 81.8668 68.2502C82.3867 67.2932 82.8655 66.2786 83.3338 65.2541C83.6656 64.5281 84.6445 62.3192 85.4743 60.3428C85.9798 59.1377 87.3718 58.58 88.5694 59.1023Z" fill="#24774A"/>
<path opacity="0.2" d="M86.5801 68.6302C86.6233 69.9703 86.6041 69.5356 86.6542 70.9426C90.5722 65.5228 89.5618 61.7578 89.5618 61.7578L86.5801 68.6302Z" fill="black"/>
<path opacity="0.6" d="M88.5694 59.1023C89.7616 59.6222 90.3031 61.0142 89.7724 62.2016C88.5691 64.8935 86.5633 69.1583 85.6981 70.6517C85.3705 71.1818 85.0426 71.7083 84.673 72.2366C84.4882 72.5024 84.2824 72.7658 84.0631 73.0364C83.9431 73.1738 83.8468 73.3001 83.7061 73.442L83.5051 73.6526L83.3911 73.769C83.071 74.0666 82.6888 74.2895 82.2724 74.4221C82.0531 74.4941 81.829 74.5511 81.6019 74.5925C81.2314 74.6528 80.8567 74.6831 80.4814 74.6834C79.8331 74.6891 75.3736 75.0836 73.1068 74.2889L72.9883 71.8376C75.2548 72.0179 79.2133 70.7903 79.7224 70.736C79.9273 70.7114 80.1301 70.6706 80.3284 70.6136C80.3932 70.5956 80.4556 70.5698 80.5138 70.5362C80.5348 70.5353 80.5129 70.5119 80.4211 70.5749C80.3875 70.5953 80.3569 70.6202 80.3296 70.6484C80.3296 70.6484 80.3527 70.616 80.3629 70.6052L80.4562 70.4933C80.5162 70.4279 80.5888 70.3202 80.6587 70.2338C80.7943 70.0466 80.9329 69.8456 81.0706 69.6269C81.343 69.2003 81.6067 68.7287 81.8668 68.2502C82.3867 67.2932 82.8655 66.2786 83.3338 65.2541C83.6656 64.5281 84.6445 62.3192 85.4743 60.3428C85.9798 59.1377 87.3718 58.58 88.5694 59.1023Z" fill="white"/>
<path d="M92.9765 48.587C92.5001 49.0109 92.213 49.6007 92.1791 50.2262C92.1404 51.0563 92.9474 51.281 93.6488 50.8916C94.2845 50.5391 95.0621 49.6835 94.7678 48.9248C94.4732 48.1658 93.5648 48.0749 92.9765 48.587Z" fill="#FAB27B"/>
<path d="M95.6445 49.892C95.5839 51.2543 94.7622 52.3244 93.3999 52.2638C92.0376 52.2032 91.314 51.0647 91.3746 49.7024C91.4352 48.3401 92.2569 47.27 93.6192 47.3306C94.9812 47.3912 95.7051 48.5297 95.6445 49.892Z" fill="#24774A"/>
<path opacity="0.7" d="M95.6445 49.892C95.5839 51.2543 94.7622 52.3244 93.3999 52.2638C92.0376 52.2032 91.314 51.0647 91.3746 49.7024C91.4352 48.3401 92.2569 47.27 93.6192 47.3306C94.9812 47.3912 95.7051 48.5297 95.6445 49.892Z" fill="white"/>
<path d="M95.0181 49.8654C94.9752 50.8275 94.395 51.5832 93.4329 51.5403C92.4708 51.4974 91.9599 50.6934 92.0025 49.7313C92.0454 48.7692 92.6256 48.0135 93.5877 48.0564C94.5498 48.0993 95.061 48.9033 95.0181 49.8654Z" fill="#24774A"/>
<path opacity="0.3" d="M95.0181 49.8654C94.9752 50.8275 94.395 51.5832 93.4329 51.5403C92.4708 51.4974 91.9599 50.6934 92.0025 49.7313C92.0454 48.7692 92.6256 48.0135 93.5877 48.0564C94.5498 48.0993 95.061 48.9033 95.0181 49.8654Z" fill="white"/>
<path d="M93.4395 47.097C93.7203 45.951 94.824 42.9015 97.113 42.4716C97.3389 42.4293 97.5711 42.5154 97.722 42.6888L97.9932 43.0008C98.268 43.317 98.181 43.8042 97.8129 44.004C96.8994 44.4999 95.3814 45.5667 94.6026 47.4642C94.5123 47.6841 94.2699 47.8005 94.0401 47.7399L93.7845 47.6727C93.5319 47.6061 93.3774 47.3505 93.4395 47.097Z" fill="#24774A"/>
<path opacity="0.2" d="M93.4395 47.097C93.7203 45.951 94.824 42.9015 97.113 42.4716C97.3389 42.4293 97.5711 42.5154 97.722 42.6888L97.9932 43.0008C98.268 43.317 98.181 43.8042 97.8129 44.004C96.8994 44.4999 95.3814 45.5667 94.6026 47.4642C94.5123 47.6841 94.2699 47.8005 94.0401 47.7399L93.7845 47.6727C93.5319 47.6061 93.3774 47.3505 93.4395 47.097Z" fill="white"/>
<path d="M77.3292 80.625H75.3789V88.9458H77.3292V80.625Z" fill="#263238"/>
<path d="M77.3292 80.625H75.3789V88.9458H77.3292V80.625Z" fill="#263238"/>
<path d="M82.9769 83.1612C78.6848 81.663 74.0117 81.663 69.7193 83.1612C68.8283 83.4972 67.8266 83.1153 67.3853 82.2717C66.9875 81.4308 67.5215 80.3424 68.603 79.962C73.6154 78.2106 79.0739 78.2106 84.0863 79.962C85.1678 80.3388 85.7015 81.4308 85.304 82.2717C84.8618 83.1108 83.8658 83.4915 82.9769 83.1612Z" fill="#263238"/>
<path opacity="0.4" d="M82.9769 83.1612C78.6848 81.663 74.0117 81.663 69.7193 83.1612C68.8283 83.4972 67.8266 83.1153 67.3853 82.2717C66.9875 81.4308 67.5215 80.3424 68.603 79.962C73.6154 78.2106 79.0739 78.2106 84.0863 79.962C85.1678 80.3388 85.7015 81.4308 85.304 82.2717C84.8618 83.1108 83.8658 83.4915 82.9769 83.1612Z" fill="#263238"/>
<path d="M80.9417 122.377C80.9417 123.215 80.2621 123.895 79.4239 123.895C78.5857 123.895 77.9062 123.215 77.9062 122.377C77.9062 121.539 78.5857 120.859 79.4239 120.859C80.2621 120.859 80.9417 121.539 80.9417 122.377Z" fill="#263238"/>
<path d="M103.23 122.377C103.23 123.215 103.91 123.895 104.748 123.895C105.586 123.895 106.266 123.215 106.266 122.377C106.266 121.539 105.586 120.859 104.748 120.859C103.91 120.859 103.23 121.539 103.23 122.377Z" fill="#263238"/>
<path d="M90.0859 121.893C90.0859 122.731 90.7654 123.41 91.6036 123.41C92.4418 123.41 93.1213 122.731 93.1213 121.893C93.1213 121.054 92.4418 120.375 91.6036 120.375C90.7651 120.375 90.0859 121.055 90.0859 121.893Z" fill="#263238"/>
<path d="M108.056 120.338C107.987 120.691 107.669 120.943 107.309 120.932L91.4818 120.716L76.6609 121.051C76.3012 121.061 75.9832 120.81 75.9169 120.457C75.8365 120.056 76.0984 119.671 76.4968 119.591L84.5902 118.019C85.432 117.862 86.2807 117.781 87.1366 117.781H95.8342C96.6865 117.781 97.5388 117.862 98.377 118.019L107.473 119.475C107.871 119.553 108.133 119.937 108.056 120.338Z" fill="#263238"/>
<path d="M94.1723 104.578H88.7891V120.074H94.1723V104.578Z" fill="#263238"/>
<path d="M93.4001 94.7578H89.5625V104.652H93.4001V94.7578Z" fill="#263238"/>
<path opacity="0.2" d="M89.5625 96.5929L93.4004 97.5592V94.7578H89.5625V96.5929Z" fill="black"/>
<path d="M89.9375 87.7188V94.7147H69.5081C68.1224 94.718 66.9977 93.5933 66.9941 92.2076C66.9941 91.7537 67.1162 91.3133 67.3463 90.9236C68.522 88.9382 70.6529 87.7188 72.9602 87.7188H89.9375Z" fill="#24774A"/>
<path opacity="0.2" d="M89.9375 87.7188V94.7147H69.5081C68.1224 94.718 66.9977 93.5933 66.9941 92.2076C66.9941 91.7537 67.1162 91.3133 67.3463 90.9236C68.522 88.9382 70.6529 87.7188 72.9602 87.7188H89.9375Z" fill="white"/>
<path d="M94.0493 61.8047C93.9995 62.0318 93.9668 62.2586 93.9506 62.489L91.7054 94.5968H88.6055L90.8507 62.489C90.8525 62.4653 90.8543 62.4383 90.8594 62.4146L94.0493 61.8047Z" fill="#24774A"/>
<path opacity="0.2" d="M94.0493 61.8047C93.9995 62.0318 93.9668 62.2586 93.9506 62.489L91.7054 94.5968H88.6055L90.8507 62.489C90.8525 62.4653 90.8543 62.4383 90.8594 62.4146L94.0493 61.8047Z" fill="white"/>
<path d="M108.299 94.7188V94.7559H107.777C107.957 94.7559 108.126 94.7425 108.299 94.7188Z" fill="#263238"/>
<path d="M115.205 61.6045L115.242 57.7897C115.252 56.7124 114.877 55.6927 114.186 54.9133L111.931 52.3723L111.125 46.0165C111.001 45.0271 110.184 44.3125 109.174 44.3125H103.574C102.673 44.3125 101.83 44.8852 101.479 45.739L98.6561 52.576L93.9881 55.3303C92.7938 56.035 91.9358 57.2107 91.6463 58.5388L90.7949 62.4316L90.8603 62.4181L94.0505 61.8082C94.0007 62.0353 93.968 62.2621 93.9518 62.4925L91.7066 94.6003H109.277C109.456 94.6003 109.627 94.5868 109.801 94.5631H109.804C111.574 94.309 113.024 92.7979 113.152 90.9787L115.163 62.2117C115.177 62.005 115.178 61.7983 115.166 61.5916L115.205 61.6045ZM100.519 59.1787L95.0549 59.6971L94.8161 59.7208L95.5724 57.2374L99.3269 55.4857L100.577 54.9031L100.774 55.4857L100.807 55.5841L100.99 56.1193L100.519 59.1787ZM111.254 59.2432H111.251L110.582 59.0704C110.569 58.8604 110.557 58.6435 110.545 58.4299C110.476 57.2407 110.419 56.1193 110.419 56.1193L110.5 55.7263L110.67 54.9031L113.092 57.2374L113.09 57.793L113.088 59.7208L111.254 59.2432Z" fill="#24774A"/>
</svg>
