 <svg width="150" height="150" viewBox="0 0 150 150" fill="none" xmlns="http://www.w3.org/2000/svg">
<g clip-path="url(#clip0_808_20490)">
<path d="M134.725 119.547H124.807V119.622H134.725V119.547Z" fill="#F1FFF6"/>
<path d="M99.1832 120.359H96.5801V120.434H99.1832V120.359Z" fill="#F1FFF6"/>
<path d="M124.505 116.758H118.758V116.833H124.505V116.758Z" fill="#F1FFF6"/>
<path d="M28.6432 117.266H15.709V117.341H28.6432V117.266Z" fill="#F1FFF6"/>
<path d="M33.207 117.266H31.3105V117.341H33.207V117.266Z" fill="#F1FFF6"/>
<path d="M67.4205 118.531H39.3691V118.606H67.4205V118.531Z" fill="#F1FFF6"/>
<path d="M71.3903 101.339H13.5667C12.6243 101.339 11.8574 100.57 11.8574 99.6264V18.1968C11.8574 17.2527 12.6243 16.4844 13.5667 16.4844H71.3903C72.3323 16.4844 73.0992 17.2527 73.0992 18.1968V99.6264C73.0992 100.57 72.3323 101.339 71.3903 101.339ZM13.5667 16.5597C12.6653 16.5597 11.9323 17.2941 11.9323 18.1971V99.6267C11.9323 100.53 12.6653 101.264 13.5667 101.264H71.3903C72.2913 101.264 73.0244 100.53 73.0244 99.6267V18.1968C73.0244 17.2941 72.2913 16.5594 71.3903 16.5594L13.5667 16.5597Z" fill="#F1FFF6"/>
<path d="M136.159 101.339H78.3359C77.3938 101.339 76.627 100.57 76.627 99.6264V18.1968C76.627 17.2527 77.3938 16.4844 78.3359 16.4844H136.159C137.102 16.4844 137.869 17.2527 137.869 18.1968V99.6264C137.869 100.57 137.102 101.339 136.159 101.339ZM78.3359 16.5597C77.4349 16.5597 76.7018 17.2941 76.7018 18.1971V99.6267C76.7018 100.53 77.4349 101.264 78.3359 101.264H136.159C137.061 101.264 137.794 100.53 137.794 99.6267V18.1968C137.794 17.2941 137.061 16.5594 136.159 16.5594L78.3359 16.5597Z" fill="#F1FFF6"/>
<path d="M149.725 114.719H0V114.794H149.725V114.719Z" fill="#F1FFF6"/>
<path d="M119.782 77.1437C117.907 76.5629 116.672 76.1807 115.206 75.7265C114.871 75.623 114.96 75.1259 115.31 75.1445C117.02 75.2348 118.42 75.3092 120.584 75.4244C119.338 73.2539 118.603 71.8994 117.764 70.2002C117.61 69.8888 118.022 69.6101 118.253 69.8699C119.378 71.1386 120.321 72.1697 121.83 73.7927C122.191 71.6918 122.608 69.7583 123.131 67.8143C123.225 67.4642 123.746 67.5551 123.714 67.9163C123.575 69.4934 123.524 71.0843 123.562 72.6215C123.632 72.6464 123.635 72.6476 123.706 72.6725C124.973 71.2253 126.304 69.8339 127.69 68.5004C127.957 68.2436 128.355 68.612 128.126 68.903C126.781 70.6121 125.535 72.3998 124.402 74.258C126.213 73.574 128.033 72.9104 129.86 72.2678C130.201 72.1478 130.42 72.6299 130.105 72.8084C128.21 73.8845 126.336 74.9858 124.464 76.1261C126.438 76.7561 127.726 77.1671 129.287 77.6648C129.62 77.7713 129.528 78.2672 129.179 78.2459C127.58 78.149 126.252 78.0689 124.223 77.9465C125.202 79.0958 125.883 79.8839 126.675 80.7758C126.907 81.0365 126.579 81.4148 126.289 81.2219C125.292 80.5595 124.416 79.9718 123.14 79.1138C123.27 80.135 123.382 80.9249 123.517 81.7001C123.579 82.0547 123.078 82.1945 122.947 81.8591C122.616 81.0101 122.313 80.165 121.928 79.0448C120.488 85.9496 120.861 92.6426 122.254 99.5063C121.563 99.3812 121.218 99.3188 120.528 99.194C119.519 92.1569 119.78 85.8557 121.337 78.938C120.472 79.832 119.836 80.5073 119.23 81.1868C118.99 81.4556 118.568 81.1436 118.754 80.8346C119.161 80.1584 119.603 79.4699 120.194 78.5807C118.653 78.9191 117.598 79.1531 116.434 79.4156C116.091 79.493 115.922 79.0151 116.236 78.8585C117.321 78.3182 118.317 77.8382 119.782 77.1437Z" fill="#F1FFF6"/>
<path d="M117.347 79.5317C118.768 78.7769 119.791 78.233 120.861 77.6648C121.276 77.4446 121.035 76.8131 120.579 76.925C119.244 77.2529 118.002 77.5586 116.239 77.9924C116.946 75.9509 117.393 74.5778 117.829 73.0661C117.958 72.6182 117.345 72.3506 117.105 72.7496C116.391 73.9343 115.712 75.0311 114.71 76.6223C114.103 74.9972 113.48 73.4879 112.798 72.0056C112.595 71.5658 111.934 71.8046 112.053 72.2741C112.353 73.4492 112.6 74.633 112.791 75.7958C112.727 75.8333 112.724 75.8351 112.66 75.8726C111.524 74.984 110.358 74.1329 109.168 73.3196C108.758 73.0397 108.307 73.6064 108.673 73.9415C109.927 75.0908 111.128 76.2983 112.27 77.5604C110.732 77.2913 109.19 77.0363 107.646 76.796C107.167 76.7213 106.999 77.4083 107.457 77.567C109.162 78.1577 110.858 78.7694 112.557 79.4075C111.043 80.2289 109.966 80.8127 108.818 81.4349C108.406 81.6584 108.651 82.2881 109.106 82.1726C110.339 81.8597 111.503 81.5645 113.133 81.1511C112.55 82.1747 112.104 82.9487 111.645 83.7257C111.408 84.1271 111.934 84.5396 112.267 84.2132C112.915 83.5763 113.561 82.9394 114.414 82.0952C114.452 82.7027 114.48 83.2298 114.499 83.7218C114.518 84.2012 115.21 84.2441 115.29 83.771C115.388 83.1794 115.484 82.5482 115.592 81.8012C118.294 88.3154 119.174 94.9607 119.084 101.964C119.739 101.712 120.067 101.586 120.722 101.335C120.402 94.2323 118.971 88.091 116.153 81.5858C116.774 82.0232 117.295 82.3967 117.771 82.7474C118.162 83.0348 118.631 82.5071 118.298 82.1537C117.974 81.8093 117.619 81.4409 117.209 81.0212C118.41 81.0551 119.323 81.0818 120.217 81.1106C120.688 81.1259 120.79 80.4524 120.335 80.3273C119.454 80.0846 118.547 79.844 117.347 79.5317Z" fill="#F5FFF7"/>
<path d="M123.554 83.3091C122.491 82.7448 121.734 82.3425 120.932 81.9165C120.639 81.7608 120.809 81.3135 121.132 81.3927C122.13 81.6381 123.047 81.8634 124.361 82.1871C123.836 80.6715 123.508 79.6614 123.185 78.5352C123.094 78.2178 123.527 78.0282 123.697 78.3111C124.23 79.1958 124.73 80.0046 125.475 81.1887C125.929 79.9743 126.395 78.8487 126.907 77.742C127.051 77.4312 127.52 77.6007 127.435 77.9325C127.205 78.8238 127.016 79.7226 126.871 80.6046C126.913 80.6286 126.914 80.6295 126.956 80.6538C127.818 79.9785 128.704 79.3326 129.61 78.717C129.901 78.5196 130.217 78.924 129.957 79.161C129.014 80.0208 128.111 80.9256 127.254 81.8727C128.406 81.6714 129.561 81.4806 130.717 81.3012C131.055 81.2487 131.175 81.735 130.851 81.8469C129.579 82.287 128.313 82.743 127.045 83.2191C128.175 83.832 128.971 84.2634 129.83 84.729C130.122 84.8874 129.948 85.3329 129.626 85.2513C128.703 85.017 127.842 84.7986 126.625 84.4902C127.064 85.2603 127.396 85.8366 127.742 86.4213C127.91 86.7057 127.538 86.9985 127.302 86.7672C126.814 86.2878 126.333 85.8138 125.691 85.1784C125.662 85.6551 125.641 86.0637 125.627 86.4456C125.614 86.7849 125.124 86.817 125.067 86.4822C124.99 86.0271 124.916 85.5435 124.833 84.9639C122.864 89.7126 122.222 94.557 122.287 99.6621C121.81 99.4785 121.571 99.3867 121.094 99.2031C121.327 94.0257 122.37 89.5488 124.424 84.8067C123.939 85.1484 123.537 85.4367 123.17 85.7079C122.894 85.9116 122.563 85.5384 122.797 85.2879C123.05 85.0176 123.328 84.7284 123.654 84.3951C122.747 84.4206 122.065 84.4407 121.391 84.4626C121.057 84.4734 120.985 83.997 121.307 83.9079C121.971 83.7243 122.648 83.5449 123.554 83.3091Z" fill="white"/>
<path d="M116.161 114.677H125.091C125.716 114.677 126.232 114.191 126.271 113.566L127.217 98.1358C127.259 97.4547 113.993 97.4547 114.035 98.1358L114.982 113.566C115.02 114.191 115.537 114.677 116.161 114.677Z" fill="#E0E0E0"/>
<path d="M115.619 79.0203C115.384 78.8247 115.263 78.5226 115.298 78.2178L115.499 76.5078L115.041 77.3031C114.77 77.7738 114.149 77.9004 113.716 77.5731L112.82 76.896L113.639 78.2199C113.873 78.5988 113.797 79.0923 113.459 79.3824L112.4 80.2911L113.438 80.0541C113.893 79.9503 114.351 80.2104 114.496 80.6541L114.853 81.7464L115.082 80.5845C115.185 80.0625 115.713 79.7418 116.222 79.8918L116.919 80.0973L115.619 79.0203Z" fill="white"/>
<path d="M121.576 76.0698C121.748 75.927 121.837 75.7062 121.811 75.4836L121.664 74.2344L121.998 74.8152C122.196 75.159 122.65 75.2514 122.967 75.0123L123.621 74.5176L123.023 75.4845C122.852 75.7614 122.908 76.1217 123.154 76.3338L123.927 76.9977L123.17 76.8246C122.837 76.7487 122.502 76.9386 122.396 77.2629L122.136 78.0606L121.969 77.2119C121.894 76.8306 121.508 76.5963 121.136 76.7058L120.627 76.8558L121.576 76.0698Z" fill="white"/>
<path d="M125.107 83.2311C125.231 83.1285 125.294 82.9704 125.276 82.8105L125.17 81.9141L125.41 82.3311C125.553 82.5777 125.878 82.644 126.105 82.4724L126.575 82.1175L126.146 82.8114C126.023 83.01 126.063 83.2689 126.24 83.4207L126.794 83.8971L126.251 83.7729C126.012 83.7186 125.772 83.8548 125.696 84.0873L125.509 84.6597L125.389 84.0507C125.335 83.7771 125.058 83.6088 124.791 83.6877L124.426 83.7954L125.107 83.2311Z" fill="white"/>
<path d="M115.18 43.0143H107.344C107.126 43.0143 106.949 42.8373 106.949 42.6186V41.091C106.949 40.8726 107.126 40.6953 107.344 40.6953H115.18C115.398 40.6953 115.575 40.8726 115.575 41.091V42.6186C115.575 42.8373 115.398 43.0143 115.18 43.0143Z" fill="white"/>
<path d="M112.546 45.8893H104.709C104.491 45.8893 104.314 45.7123 104.314 45.4936V43.966C104.314 43.7473 104.491 43.5703 104.709 43.5703H112.546C112.764 43.5703 112.941 43.7473 112.941 43.966V45.4936C112.941 45.712 112.764 45.8893 112.546 45.8893Z" fill="white"/>
<path d="M121.575 45.8893H113.739C113.521 45.8893 113.344 45.7123 113.344 45.4936V43.966C113.344 43.7473 113.521 43.5703 113.739 43.5703H121.575C121.793 43.5703 121.97 43.7473 121.97 43.966V45.4936C121.97 45.712 121.793 45.8893 121.575 45.8893Z" fill="#F5FFF7"/>
<path d="M36.3435 59.1631H27.9829C27.7646 59.1631 27.5879 58.9858 27.5879 58.7674V57.0988C27.5879 56.8804 27.7646 56.7031 27.9829 56.7031H36.3435C36.5618 56.7031 36.7385 56.8804 36.7385 57.0988V58.7674C36.7385 58.9858 36.5615 59.1631 36.3435 59.1631Z" fill="white"/>
<path d="M36.3435 65.2647H27.9829C27.7646 65.2647 27.5879 65.0877 27.5879 64.869V63.2004C27.5879 62.9817 27.7646 62.8047 27.9829 62.8047H36.3435C36.5618 62.8047 36.7385 62.9817 36.7385 63.2004V64.869C36.7385 65.0874 36.5615 65.2647 36.3435 65.2647Z" fill="white"/>
<path d="M33.5506 62.21H25.1899C24.9719 62.21 24.7949 62.0327 24.7949 61.8143V60.1457C24.7949 59.927 24.9719 59.75 25.1899 59.75H33.5506C33.7689 59.75 33.9455 59.927 33.9455 60.1457V61.8143C33.9455 62.0327 33.7686 62.21 33.5506 62.21Z" fill="white"/>
<path d="M43.1267 62.21H34.7661C34.5478 62.21 34.3711 62.0327 34.3711 61.8143V60.1457C34.3711 59.927 34.5478 59.75 34.7661 59.75H43.1267C43.345 59.75 43.5217 59.927 43.5217 60.1457V61.8143C43.5217 62.0327 43.345 62.21 43.1267 62.21Z" fill="#F5FFF7"/>
<path d="M113.922 60.2812H122.582C122.8 60.2812 122.977 60.4582 122.977 60.6769V62.4259C122.977 62.6446 122.8 62.8216 122.582 62.8216H113.922C113.704 62.8216 113.527 62.6446 113.527 62.4259V60.6769C113.527 60.4585 113.704 60.2812 113.922 60.2812Z" fill="white"/>
<path d="M116.809 57.1328H125.468C125.686 57.1328 125.863 57.3098 125.863 57.5285V59.2775C125.863 59.4959 125.686 59.6732 125.468 59.6732H116.809C116.591 59.6732 116.414 59.4959 116.414 59.2775V57.5285C116.414 57.3098 116.591 57.1328 116.809 57.1328Z" fill="white"/>
<path d="M106.918 57.1328H115.578C115.796 57.1328 115.973 57.3098 115.973 57.5285V59.2775C115.973 59.4959 115.796 59.6732 115.578 59.6732H106.918C106.7 59.6732 106.523 59.4959 106.523 59.2775V57.5285C106.523 57.3098 106.7 57.1328 106.918 57.1328Z" fill="#F5FFF7"/>
<path d="M24.7856 47.5938H33.9374C34.1557 47.5938 34.3324 47.7708 34.3324 47.9895V49.8707C34.3324 50.0894 34.1557 50.2664 33.9374 50.2664H24.7856C24.5673 50.2664 24.3906 50.0894 24.3906 49.8707V47.9895C24.3906 47.7711 24.5676 47.5938 24.7856 47.5938Z" fill="white"/>
<path d="M29.4282 44.2812H38.58C38.798 44.2812 38.975 44.4583 38.975 44.677V46.5582C38.975 46.7766 38.798 46.9539 38.58 46.9539H29.4282C29.2099 46.9539 29.0332 46.7766 29.0332 46.5582V44.677C29.0332 44.4586 29.2099 44.2812 29.4282 44.2812Z" fill="white"/>
<path d="M19.0239 44.2812H28.1757C28.394 44.2812 28.5707 44.4583 28.5707 44.677V46.5582C28.5707 46.7766 28.394 46.9539 28.1757 46.9539H19.0239C18.8056 46.9539 18.6289 46.7766 18.6289 46.5582V44.677C18.6289 44.4586 18.8059 44.2812 19.0239 44.2812Z" fill="#F5FFF7"/>
<path d="M43.7214 18.5156H43.3164V30.521H43.7214V18.5156Z" fill="white"/>
<path d="M30.7148 37.1904L43.5194 29.4375L56.3242 37.1904H30.7148Z" fill="#F5FFF7"/>
<path d="M44.4035 37.1904L43.5195 29.4375L49.2756 37.1904H44.4035Z" fill="white"/>
<path d="M106.411 18.5156H106.006V30.521H106.411V18.5156Z" fill="white"/>
<path d="M93.4043 37.1904L106.209 29.4375L119.014 37.1904H93.4043Z" fill="#F5FFF7"/>
<path d="M107.093 37.1904L106.209 29.4375L111.965 37.1904H107.093Z" fill="white"/>
<path d="M73.4196 127.114C105.485 127.114 131.48 125.593 131.48 123.717C131.48 121.841 105.485 120.32 73.4196 120.32C41.3538 120.32 15.3594 121.841 15.3594 123.717C15.3594 125.593 41.3538 127.114 73.4196 127.114Z" fill="white"/>
<path d="M56.8586 43.4219H55.3613V41.9219C55.3613 41.5076 55.6964 41.1719 56.11 41.1719C56.5235 41.1719 56.8586 41.5076 56.8586 41.9219V43.4219Z" fill="#263238"/>
<path d="M94.3644 43.4219H92.8672V41.9219C92.8672 41.5076 93.2023 41.1719 93.6158 41.1719C94.0294 41.1719 94.3644 41.5076 94.3644 41.9219V43.4219Z" fill="#263238"/>
<g opacity="0.5">
<path d="M56.8586 43.4219H55.3613V41.9219C55.3613 41.5076 55.6964 41.1719 56.11 41.1719C56.5235 41.1719 56.8586 41.5076 56.8586 41.9219V43.4219Z" fill="white"/>
<path d="M94.3644 43.4219H92.8672V41.9219C92.8672 41.5076 93.2023 41.1719 93.6158 41.1719C94.0294 41.1719 94.3644 41.5076 94.3644 41.9219V43.4219Z" fill="white"/>
</g>
<path d="M98.9955 71.7071H50.7328C49.7994 71.7071 49.043 70.949 49.043 70.0142V44.9507C49.043 44.0156 49.7997 43.2578 50.7328 43.2578H98.9955C99.9289 43.2578 100.685 44.0159 100.685 44.9507V70.0142C100.685 70.949 99.9286 71.7071 98.9955 71.7071Z" fill="#24774A"/>
<path opacity="0.8" d="M98.9955 71.7071H50.7328C49.7994 71.7071 49.043 70.949 49.043 70.0142V44.9507C49.043 44.0156 49.7997 43.2578 50.7328 43.2578H98.9955C99.9289 43.2578 100.685 44.0159 100.685 44.9507V70.0142C100.685 70.949 99.9286 71.7071 98.9955 71.7071Z" fill="white"/>
<path d="M98.9958 72.4574H50.7333C49.3888 72.4574 48.2949 71.3618 48.2949 70.0145V44.9507C48.2949 43.6037 49.3888 42.5078 50.7333 42.5078H98.9961C100.341 42.5078 101.435 43.6037 101.435 44.9507V70.0145C101.434 71.3618 100.341 72.4574 98.9958 72.4574ZM50.7333 44.0081C50.2144 44.0081 49.7922 44.4311 49.7922 44.951V70.0148C49.7922 70.5344 50.2144 70.9577 50.7333 70.9577H98.9961C99.515 70.9577 99.9373 70.5347 99.9373 70.0148V44.951C99.9373 44.4311 99.515 44.0081 98.9961 44.0081H50.7333Z" fill="#24774A"/>
<g opacity="0.4">
<path d="M98.9958 72.4574H50.7333C49.3888 72.4574 48.2949 71.3618 48.2949 70.0145V44.9507C48.2949 43.6037 49.3888 42.5078 50.7333 42.5078H98.9961C100.341 42.5078 101.435 43.6037 101.435 44.9507V70.0145C101.434 71.3618 100.341 72.4574 98.9958 72.4574ZM50.7333 44.0081C50.2144 44.0081 49.7922 44.4311 49.7922 44.951V70.0148C49.7922 70.5344 50.2144 70.9577 50.7333 70.9577H98.9961C99.515 70.9577 99.9373 70.5347 99.9373 70.0148V44.951C99.9373 44.4311 99.515 44.0081 98.9961 44.0081H50.7333Z" fill="white"/>
</g>
<path d="M65.0955 48.9283C67.0261 49.0168 69.3941 50.2045 69.8789 52.2679C70.4626 54.7519 67.1812 55.7629 65.3351 55.8211C63.5773 55.8766 60.587 55.249 60.2791 53.1091C59.9303 50.6845 63.4048 50.1682 65.0958 50.1283C65.2401 50.125 65.2407 49.9 65.0958 49.9033C63.335 49.9447 60.018 50.4436 60.0117 52.8283C60.0051 55.303 63.4482 56.1028 65.3351 56.0461C67.2024 55.99 70.2877 55.0651 70.1697 52.6825C70.0499 50.2648 67.1923 48.7993 65.0958 48.7033C64.9512 48.6967 64.9515 48.9217 65.0955 48.9283Z" fill="#263238"/>
<path d="M59.1807 61.8685C59.2026 62.5066 59.2687 63.1567 59.2472 63.7942C59.2409 63.9823 59.4565 63.8698 59.1343 63.8626C58.8303 63.856 58.5219 63.8839 58.2183 63.8944C57.437 63.9214 56.6554 63.9484 55.8742 63.9754C55.5765 63.9856 55.2537 63.9631 54.9581 64.0072C54.6347 64.0552 54.8521 64.0855 54.8345 63.9907C54.7075 63.3163 54.7845 62.5396 54.7608 61.8529C54.7572 61.7509 54.7183 61.5895 54.7482 61.492C54.7931 61.3459 54.5712 61.5871 54.6731 61.5403C54.8282 61.4689 55.1495 61.5238 55.3238 61.5178C56.6402 61.4722 57.9562 61.4266 59.2726 61.3813C59.4167 61.3762 59.4176 61.1512 59.2726 61.1563C57.7266 61.2097 56.1802 61.2634 54.6338 61.3168C54.5748 61.3189 54.5194 61.3666 54.5215 61.4293C54.5527 62.3287 54.5835 63.2281 54.6147 64.1278C54.6168 64.1869 54.6644 64.2424 54.727 64.2403C56.273 64.1869 57.8194 64.1332 59.3658 64.0798C59.4247 64.0777 59.4801 64.03 59.478 63.9673C59.4538 63.2677 59.4298 62.5681 59.4056 61.8685C59.4002 61.7242 59.1756 61.7233 59.1807 61.8685Z" fill="#263238"/>
<path d="M70.5163 62.0532C70.5465 62.9334 70.7304 63.9276 70.6109 64.7964C70.5642 65.1372 70.8511 64.8558 70.4022 64.9416C69.9902 65.0205 69.5149 64.9722 69.0972 64.9866C67.9841 65.025 66.8711 65.0637 65.758 65.1021C65.3319 65.1168 64.8797 65.1753 64.453 65.1471C63.979 65.1159 64.3221 65.2956 64.2293 65.076C63.9086 64.3182 64.153 62.8614 64.1242 62.0307C64.1134 61.722 64.1679 61.4634 64.047 61.5378C64.2254 61.4283 64.7558 61.5132 64.9738 61.5057C66.8489 61.4409 68.7238 61.3758 70.5989 61.311C70.743 61.3059 70.7439 61.0809 70.5989 61.086C68.3965 61.1622 66.1937 61.2384 63.9913 61.3146C63.9323 61.3167 63.8769 61.3644 63.879 61.4271C63.923 62.7084 63.9673 63.9897 64.0113 65.271C64.0134 65.3301 64.061 65.3856 64.1236 65.3835C66.3261 65.3073 68.5288 65.2311 70.7313 65.1549C70.7903 65.1528 70.8457 65.1051 70.8436 65.0424C70.8091 64.0458 70.7747 63.0492 70.7406 62.0529C70.7358 61.9089 70.5112 61.9083 70.5163 62.0532Z" fill="#263238"/>
<path d="M95.4612 49.3273C95.481 49.9021 95.5648 50.5099 95.5217 51.0823C95.4804 51.634 95.7645 51.2239 95.3663 51.3715C94.5074 51.6901 93.0554 51.4516 92.1343 51.4834C90.7245 51.5323 89.315 51.5809 87.9052 51.6298C87.4239 51.6463 86.9391 51.6826 86.4576 51.6799C86.375 51.6796 86.1654 51.7333 86.095 51.6925C85.8749 51.5653 86.2501 51.9547 86.098 51.6556C85.8905 51.2485 86.0519 50.3176 86.0357 49.8529C86.0318 49.7377 85.9333 49.1848 86.0093 49.0885C85.951 49.1623 85.9003 49.2361 86.0782 49.1545C86.8092 48.8182 88.3397 49.0762 89.1254 49.0489C91.2677 48.9748 93.41 48.9007 95.5522 48.8266C95.6963 48.8215 95.6969 48.5965 95.5522 48.6016C92.3334 48.7129 89.1143 48.8245 85.8956 48.9358C85.8366 48.9379 85.7812 48.9856 85.7833 49.0483C85.815 49.9684 85.8467 50.8885 85.8785 51.8086C85.8806 51.8677 85.9282 51.9232 85.9908 51.9211C89.2096 51.8098 92.4287 51.6985 95.6475 51.5869C95.7065 51.5848 95.7618 51.5371 95.7598 51.4744C95.7352 50.7589 95.7103 50.0431 95.6858 49.3273C95.681 49.183 95.4564 49.1824 95.4612 49.3273Z" fill="#263238"/>
<path d="M97.2486 52.9844C92.9656 52.985 88.6825 52.9853 84.3995 52.9859C84.2549 52.9859 84.2549 53.2109 84.3995 53.2109C88.6825 53.2103 92.9656 53.2097 97.2486 53.2094C97.3933 53.2094 97.3933 52.9844 97.2486 52.9844Z" fill="#263238"/>
<path d="M96.1191 55.4766C93.9775 55.4772 91.8361 55.4775 89.6944 55.4781C89.5498 55.4781 89.5498 55.7031 89.6944 55.7031C91.8358 55.7025 93.9775 55.7022 96.1191 55.7016C96.2638 55.7016 96.2638 55.4766 96.1191 55.4766Z" fill="#263238"/>
<path d="M94.3661 56.4688C92.809 56.4694 91.2519 56.4699 89.6944 56.4702C89.5498 56.4702 89.5498 56.6952 89.6944 56.6952C91.2516 56.6946 92.8087 56.6944 94.3661 56.6938C94.5108 56.6938 94.5108 56.4688 94.3661 56.4688Z" fill="#263238"/>
<path d="M69.0858 52.4219C66.9441 52.4225 64.8028 52.4228 62.6611 52.4234C62.5168 52.4234 62.5165 52.6484 62.6611 52.6484C64.8028 52.6478 66.9441 52.6475 69.0858 52.6469C69.2301 52.6469 69.2304 52.4219 69.0858 52.4219Z" fill="#263238"/>
<path d="M67.3328 53.4141C65.7757 53.4147 64.2185 53.415 62.6611 53.4156C62.5168 53.4156 62.5165 53.6406 62.6611 53.6406C64.2182 53.64 65.7754 53.6397 67.3328 53.6391C67.4775 53.6391 67.4775 53.4141 67.3328 53.4141Z" fill="#263238"/>
<path d="M96.0801 59.1328C93.9387 59.1334 91.797 59.134 89.6554 59.1343C89.5107 59.1343 89.5107 59.3593 89.6554 59.3593C91.7967 59.3587 93.9384 59.3584 96.0801 59.3578C96.2247 59.3578 96.225 59.1328 96.0801 59.1328Z" fill="#263238"/>
<path d="M92.8676 64.0078C91.7967 64.0084 90.7262 64.0087 89.6554 64.0093C89.5107 64.0093 89.5107 64.2343 89.6554 64.2343C90.7262 64.2337 91.7967 64.2334 92.8676 64.2328C93.0122 64.2328 93.0122 64.0078 92.8676 64.0078Z" fill="#263238"/>
<path d="M58.4652 62.7891C57.3944 62.7897 56.3235 62.79 55.253 62.7906C55.1084 62.7906 55.1084 63.0156 55.253 63.0156C56.3238 63.015 57.3947 63.0147 58.4652 63.0141C58.6095 63.0141 58.6098 62.7891 58.4652 62.7891Z" fill="#263238"/>
<path d="M69.1611 62.8442C67.8908 62.9447 66.6203 63.0452 65.35 63.1457C65.2069 63.1571 65.2057 63.3821 65.35 63.3707C66.6203 63.2702 67.8908 63.1697 69.1611 63.0692C69.3042 63.0578 69.3054 62.8325 69.1611 62.8442Z" fill="#263238"/>
<path d="M78.2217 57.7266C77.0511 57.7272 75.8806 57.7275 74.71 57.7281C74.5654 57.7281 74.5654 57.9531 74.71 57.9531C75.8806 57.9525 77.0511 57.9522 78.2217 57.9516C78.3663 57.9516 78.3663 57.7266 78.2217 57.7266Z" fill="#263238"/>
<path d="M96.0801 63.1172C93.9387 63.1178 91.797 63.1181 89.6554 63.1187C89.5107 63.1187 89.5107 63.3437 89.6554 63.3437C91.7967 63.3431 93.9384 63.3428 96.0801 63.3422C96.2247 63.3422 96.225 63.1172 96.0801 63.1172Z" fill="#263238"/>
<path d="M73.6413 56.6964C73.611 57.5691 73.5811 58.4421 73.5508 59.3148C73.5487 59.3772 73.6041 59.4252 73.6631 59.4273C75.5922 59.4942 77.5213 59.5608 79.4503 59.6277C79.5126 59.6298 79.5605 59.5743 79.5626 59.5152C79.6012 58.3929 79.6399 57.2709 79.6788 56.1486C79.6809 56.0862 79.6255 56.0382 79.5665 56.0361C77.6374 55.9692 75.7084 55.9026 73.7793 55.836C73.6347 55.8309 73.635 56.0559 73.7793 56.061C75.4215 56.1177 77.0637 56.1747 78.7059 56.2314C78.8924 56.238 79.3308 56.1636 79.488 56.2584C79.6476 56.3547 79.3769 56.049 79.4515 56.2269C79.483 56.3019 79.4524 56.5044 79.4389 56.5911C79.3063 57.4563 79.6021 58.512 79.344 59.3442C79.2808 59.5479 79.5677 59.3757 79.1619 59.3925C78.8176 59.4066 78.4636 59.3682 78.1196 59.3565C77.1113 59.3217 76.1028 59.2866 75.0945 59.2518C74.7136 59.2386 74.3327 59.2203 73.9515 59.2122C73.5481 59.2038 73.8054 59.3259 73.7826 59.0988C73.7054 58.3242 73.8386 57.4767 73.8656 56.6964C73.871 56.5515 73.6464 56.5518 73.6413 56.6964Z" fill="#263238"/>
<path d="M61.0356 56.0714C59.5216 56.9786 58.2579 58.4672 57.6901 60.1385C57.6434 60.2759 57.8602 60.3347 57.9066 60.1982C58.4543 58.5857 59.6872 57.1415 61.1491 56.2655C61.2728 56.1914 61.1599 55.997 61.0356 56.0714Z" fill="#263238"/>
<path d="M57.1894 59.0006C57.2891 59.5841 57.3891 60.1673 57.4888 60.7505C57.5044 60.8417 57.6185 60.8483 57.6766 60.8C58.159 60.3983 58.6414 59.9966 59.1238 59.5946C59.2349 59.5019 59.0756 59.3435 58.9651 59.4356C58.4827 59.8373 58.0003 60.239 57.5179 60.641C57.5805 60.6575 57.6431 60.674 57.7056 60.6905C57.6059 60.107 57.5059 59.5238 57.4062 58.9406C57.3816 58.7984 57.1651 58.8587 57.1894 59.0006Z" fill="#263238"/>
<path d="M69.1239 55.2721C70.4301 55.7932 71.6186 56.8126 72.2756 58.054C72.3433 58.1821 72.5374 58.0684 72.4697 57.9406C71.7836 56.6443 70.5439 55.5976 69.1838 55.0552C69.0494 55.0018 68.991 55.2193 69.1239 55.2721Z" fill="#263238"/>
<path d="M72.5087 56.9524C72.5039 57.4423 72.4991 57.9322 72.4943 58.4221C72.5506 58.3897 72.6069 58.3573 72.6632 58.3249C72.2162 58.0603 71.7688 57.7957 71.3217 57.5311C71.1968 57.4573 71.0839 57.6517 71.2082 57.7255C71.6553 57.9901 72.1027 58.2547 72.5497 58.5193C72.6237 58.5631 72.7177 58.507 72.7186 58.4221C72.7234 57.9322 72.7282 57.4423 72.733 56.9524C72.7348 56.8075 72.5102 56.8075 72.5087 56.9524Z" fill="#263238"/>
<path d="M66.5068 57.1562C66.7035 58.0823 66.85 59.0201 66.9808 59.9573C67.0009 60.1001 67.2171 60.0392 67.1973 59.8976C67.0665 58.9604 66.92 58.0226 66.7233 57.0965C66.6933 56.9549 66.4765 57.0149 66.5068 57.1562Z" fill="#263238"/>
<path d="M67.4133 59.2176C67.2908 59.565 67.168 59.9121 67.0455 60.2595C67.1081 60.243 67.1707 60.2265 67.2333 60.2097C66.9797 59.9124 66.726 59.6151 66.4724 59.3178C66.3784 59.2074 66.2202 59.3673 66.3137 59.4768C66.5673 59.7741 66.8209 60.0714 67.0746 60.3687C67.1336 60.438 67.2363 60.3924 67.2623 60.3192C67.3848 59.9721 67.5076 59.6247 67.6301 59.2776C67.678 59.1408 67.4612 59.0817 67.4133 59.2176Z" fill="#263238"/>
<path d="M87.4558 56.4722C86.7946 56.4722 86.1332 56.4722 85.4717 56.4722C85.5091 56.5097 85.5465 56.5472 85.584 56.5847C85.584 55.922 85.584 55.2596 85.584 54.5969C85.5465 54.6344 85.5091 54.6719 85.4717 54.7094C86.1332 54.7094 86.7943 54.7094 87.4558 54.7094C87.4184 54.6719 87.381 54.6344 87.3435 54.5969C87.3435 55.2593 87.3435 55.922 87.3435 56.5847C87.3435 56.7296 87.5681 56.7296 87.5681 56.5847C87.5681 55.922 87.5681 55.2596 87.5681 54.5969C87.5681 54.536 87.5166 54.4844 87.4558 54.4844C86.7946 54.4844 86.1332 54.4844 85.4717 54.4844C85.4109 54.4844 85.3594 54.536 85.3594 54.5969C85.3594 55.2593 85.3594 55.922 85.3594 56.5847C85.3594 56.6456 85.4109 56.6972 85.4717 56.6972C86.1332 56.6972 86.7943 56.6972 87.4558 56.6972C87.6002 56.6972 87.6005 56.4722 87.4558 56.4722Z" fill="#263238"/>
<path d="M87.4558 60.1284C86.7946 60.1284 86.1332 60.1284 85.4717 60.1284C85.5091 60.1659 85.5465 60.2034 85.584 60.2409C85.584 59.5785 85.584 58.9158 85.584 58.2531C85.5465 58.2906 85.5091 58.3281 85.4717 58.3656C86.1332 58.3656 86.7943 58.3656 87.4558 58.3656C87.4184 58.3281 87.381 58.2906 87.3435 58.2531C87.3435 58.9155 87.3435 59.5782 87.3435 60.2409C87.3435 60.3858 87.5681 60.3858 87.5681 60.2409C87.5681 59.5785 87.5681 58.9158 87.5681 58.2531C87.5681 58.1922 87.5166 58.1406 87.4558 58.1406C86.7946 58.1406 86.1332 58.1406 85.4717 58.1406C85.4109 58.1406 85.3594 58.1922 85.3594 58.2531C85.3594 58.9155 85.3594 59.5782 85.3594 60.2409C85.3594 60.3018 85.4109 60.3534 85.4717 60.3534C86.1332 60.3534 86.7943 60.3534 87.4558 60.3534C87.6002 60.3534 87.6005 60.1284 87.4558 60.1284Z" fill="#263238"/>
<path d="M87.4558 63.7847C86.7946 63.7847 86.1332 63.7847 85.4717 63.7847C85.5091 63.8222 85.5465 63.8597 85.584 63.8972C85.584 63.2348 85.584 62.5721 85.584 61.9094C85.5465 61.9469 85.5091 61.9844 85.4717 62.0219C86.1332 62.0219 86.7943 62.0219 87.4558 62.0219C87.4184 61.9844 87.381 61.9469 87.3435 61.9094C87.3435 62.5718 87.3435 63.2345 87.3435 63.8972C87.3435 64.0421 87.5681 64.0421 87.5681 63.8972C87.5681 63.2348 87.5681 62.5721 87.5681 61.9094C87.5681 61.8485 87.5166 61.7969 87.4558 61.7969C86.7946 61.7969 86.1332 61.7969 85.4717 61.7969C85.4109 61.7969 85.3594 61.8485 85.3594 61.9094C85.3594 62.5718 85.3594 63.2345 85.3594 63.8972C85.3594 63.9581 85.4109 64.0097 85.4717 64.0097C86.1332 64.0097 86.7943 64.0097 87.4558 64.0097C87.6002 64.0097 87.6005 63.7847 87.4558 63.7847Z" fill="#263238"/>
<path d="M84.9373 55.017C85.4314 55.2396 85.8884 55.5669 86.216 56.0016C86.2606 56.0607 86.334 56.0775 86.3924 56.0244C87.0386 55.4358 87.8432 54.8526 88.7191 54.7032C88.8613 54.6789 88.8008 54.462 88.6595 54.4863C87.7402 54.6429 87.1479 55.2528 86.3954 55.7241C86.1501 55.8777 86.375 55.7931 86.2938 55.734C86.1387 55.6209 86.0145 55.4388 85.8596 55.3161C85.6132 55.1211 85.338 54.9519 85.0508 54.8226C84.92 54.7638 84.8056 54.9576 84.9373 55.017Z" fill="#263238"/>
<path d="M84.9373 58.8451C85.4314 59.0677 85.8884 59.395 86.216 59.8297C86.2606 59.8888 86.334 59.9056 86.3924 59.8525C87.0386 59.2639 87.8432 58.6807 88.7191 58.5313C88.8613 58.507 88.8008 58.2901 88.6595 58.3144C87.7402 58.471 87.1479 59.0809 86.3954 59.5522C86.1501 59.7058 86.375 59.6212 86.2938 59.5621C86.1387 59.449 86.0145 59.2669 85.8596 59.1442C85.6132 58.9492 85.338 58.78 85.0508 58.6507C84.92 58.5919 84.8056 58.7857 84.9373 58.8451Z" fill="#263238"/>
<path d="M84.9373 62.3295C85.4314 62.5521 85.8884 62.8794 86.216 63.3141C86.2606 63.3732 86.334 63.39 86.3924 63.3369C87.0386 62.7483 87.8432 62.1651 88.7191 62.0157C88.8613 61.9914 88.8008 61.7745 88.6595 61.7988C87.7402 61.9554 87.1479 62.5653 86.3954 63.0366C86.1501 63.1902 86.375 63.1056 86.2938 63.0465C86.1387 62.9334 86.0145 62.7513 85.8596 62.6286C85.6132 62.4336 85.338 62.2644 85.0508 62.1351C84.92 62.0763 84.8056 62.2701 84.9373 62.3295Z" fill="#263238"/>
<g opacity="0.3">
<path d="M65.0955 48.9283C67.0261 49.0168 69.3941 50.2045 69.8789 52.2679C70.4626 54.7519 67.1812 55.7629 65.3351 55.8211C63.5773 55.8766 60.587 55.249 60.2791 53.1091C59.9303 50.6845 63.4048 50.1682 65.0958 50.1283C65.2401 50.125 65.2407 49.9 65.0958 49.9033C63.335 49.9447 60.018 50.4436 60.0117 52.8283C60.0051 55.303 63.4482 56.1028 65.3351 56.0461C67.2024 55.99 70.2877 55.0651 70.1697 52.6825C70.0499 50.2648 67.1923 48.7993 65.0958 48.7033C64.9512 48.6967 64.9515 48.9217 65.0955 48.9283Z" fill="white"/>
</g>
<g opacity="0.3">
<path d="M59.1807 61.8685C59.2026 62.5066 59.2687 63.1567 59.2472 63.7942C59.2409 63.9823 59.4565 63.8698 59.1343 63.8626C58.8303 63.856 58.5219 63.8839 58.2183 63.8944C57.437 63.9214 56.6554 63.9484 55.8742 63.9754C55.5765 63.9856 55.2537 63.9631 54.9581 64.0072C54.6347 64.0552 54.8521 64.0855 54.8345 63.9907C54.7075 63.3163 54.7845 62.5396 54.7608 61.8529C54.7572 61.7509 54.7183 61.5895 54.7482 61.492C54.7931 61.3459 54.5712 61.5871 54.6731 61.5403C54.8282 61.4689 55.1495 61.5238 55.3238 61.5178C56.6402 61.4722 57.9562 61.4266 59.2726 61.3813C59.4167 61.3762 59.4176 61.1512 59.2726 61.1563C57.7266 61.2097 56.1802 61.2634 54.6338 61.3168C54.5748 61.3189 54.5194 61.3666 54.5215 61.4293C54.5527 62.3287 54.5835 63.2281 54.6147 64.1278C54.6168 64.1869 54.6644 64.2424 54.727 64.2403C56.273 64.1869 57.8194 64.1332 59.3658 64.0798C59.4247 64.0777 59.4801 64.03 59.478 63.9673C59.4538 63.2677 59.4298 62.5681 59.4056 61.8685C59.4002 61.7242 59.1756 61.7233 59.1807 61.8685Z" fill="white"/>
</g>
<g opacity="0.3">
<path d="M70.5163 62.0532C70.5465 62.9334 70.7304 63.9276 70.6109 64.7964C70.5642 65.1372 70.8511 64.8558 70.4022 64.9416C69.9902 65.0205 69.5149 64.9722 69.0972 64.9866C67.9841 65.025 66.8711 65.0637 65.758 65.1021C65.3319 65.1168 64.8797 65.1753 64.453 65.1471C63.979 65.1159 64.3221 65.2956 64.2293 65.076C63.9086 64.3182 64.153 62.8614 64.1242 62.0307C64.1134 61.722 64.1679 61.4634 64.047 61.5378C64.2254 61.4283 64.7558 61.5132 64.9738 61.5057C66.8489 61.4409 68.7238 61.3758 70.5989 61.311C70.743 61.3059 70.7439 61.0809 70.5989 61.086C68.3965 61.1622 66.1937 61.2384 63.9913 61.3146C63.9323 61.3167 63.8769 61.3644 63.879 61.4271C63.923 62.7084 63.9673 63.9897 64.0113 65.271C64.0134 65.3301 64.061 65.3856 64.1236 65.3835C66.3261 65.3073 68.5288 65.2311 70.7313 65.1549C70.7903 65.1528 70.8457 65.1051 70.8436 65.0424C70.8091 64.0458 70.7747 63.0492 70.7406 62.0529C70.7358 61.9089 70.5112 61.9083 70.5163 62.0532Z" fill="white"/>
</g>
<g opacity="0.3">
<path d="M95.4612 49.3273C95.481 49.9021 95.5648 50.5099 95.5217 51.0823C95.4804 51.634 95.7645 51.2239 95.3663 51.3715C94.5074 51.6901 93.0554 51.4516 92.1343 51.4834C90.7245 51.5323 89.315 51.5809 87.9052 51.6298C87.4239 51.6463 86.9391 51.6826 86.4576 51.6799C86.375 51.6796 86.1654 51.7333 86.095 51.6925C85.8749 51.5653 86.2501 51.9547 86.098 51.6556C85.8905 51.2485 86.0519 50.3176 86.0357 49.8529C86.0318 49.7377 85.9333 49.1848 86.0093 49.0885C85.951 49.1623 85.9003 49.2361 86.0782 49.1545C86.8092 48.8182 88.3397 49.0762 89.1254 49.0489C91.2677 48.9748 93.41 48.9007 95.5522 48.8266C95.6963 48.8215 95.6969 48.5965 95.5522 48.6016C92.3334 48.7129 89.1143 48.8245 85.8956 48.9358C85.8366 48.9379 85.7812 48.9856 85.7833 49.0483C85.815 49.9684 85.8467 50.8885 85.8785 51.8086C85.8806 51.8677 85.9282 51.9232 85.9908 51.9211C89.2096 51.8098 92.4287 51.6985 95.6475 51.5869C95.7065 51.5848 95.7618 51.5371 95.7598 51.4744C95.7352 50.7589 95.7103 50.0431 95.6858 49.3273C95.681 49.183 95.4564 49.1824 95.4612 49.3273Z" fill="white"/>
</g>
<g opacity="0.3">
<path d="M97.2486 52.9844C92.9656 52.985 88.6825 52.9853 84.3995 52.9859C84.2549 52.9859 84.2549 53.2109 84.3995 53.2109C88.6825 53.2103 92.9656 53.2097 97.2486 53.2094C97.3933 53.2094 97.3933 52.9844 97.2486 52.9844Z" fill="white"/>
</g>
<g opacity="0.3">
<path d="M96.1191 55.4766C93.9775 55.4772 91.8361 55.4775 89.6944 55.4781C89.5498 55.4781 89.5498 55.7031 89.6944 55.7031C91.8358 55.7025 93.9775 55.7022 96.1191 55.7016C96.2638 55.7016 96.2638 55.4766 96.1191 55.4766Z" fill="white"/>
</g>
<g opacity="0.3">
<path d="M94.3661 56.4688C92.809 56.4694 91.2519 56.4699 89.6944 56.4702C89.5498 56.4702 89.5498 56.6952 89.6944 56.6952C91.2516 56.6946 92.8087 56.6944 94.3661 56.6938C94.5108 56.6938 94.5108 56.4688 94.3661 56.4688Z" fill="white"/>
</g>
<g opacity="0.3">
<path d="M69.0858 52.4219C66.9441 52.4225 64.8028 52.4228 62.6611 52.4234C62.5168 52.4234 62.5165 52.6484 62.6611 52.6484C64.8028 52.6478 66.9441 52.6475 69.0858 52.6469C69.2301 52.6469 69.2304 52.4219 69.0858 52.4219Z" fill="white"/>
</g>
<g opacity="0.3">
<path d="M67.3328 53.4141C65.7757 53.4147 64.2185 53.415 62.6611 53.4156C62.5168 53.4156 62.5165 53.6406 62.6611 53.6406C64.2182 53.64 65.7754 53.6397 67.3328 53.6391C67.4775 53.6391 67.4775 53.4141 67.3328 53.4141Z" fill="white"/>
</g>
<g opacity="0.3">
<path d="M96.0801 59.1328C93.9387 59.1334 91.797 59.134 89.6554 59.1343C89.5107 59.1343 89.5107 59.3593 89.6554 59.3593C91.7967 59.3587 93.9384 59.3584 96.0801 59.3578C96.2247 59.3578 96.225 59.1328 96.0801 59.1328Z" fill="white"/>
</g>
<g opacity="0.3">
<path d="M92.8676 64.0078C91.7967 64.0084 90.7262 64.0087 89.6554 64.0093C89.5107 64.0093 89.5107 64.2343 89.6554 64.2343C90.7262 64.2337 91.7967 64.2334 92.8676 64.2328C93.0122 64.2328 93.0122 64.0078 92.8676 64.0078Z" fill="white"/>
</g>
<g opacity="0.3">
<path d="M58.4652 62.7891C57.3944 62.7897 56.3235 62.79 55.253 62.7906C55.1084 62.7906 55.1084 63.0156 55.253 63.0156C56.3238 63.015 57.3947 63.0147 58.4652 63.0141C58.6095 63.0141 58.6098 62.7891 58.4652 62.7891Z" fill="white"/>
</g>
<g opacity="0.3">
<path d="M69.1611 62.8442C67.8908 62.9447 66.6203 63.0452 65.35 63.1457C65.2069 63.1571 65.2057 63.3821 65.35 63.3707C66.6203 63.2702 67.8908 63.1697 69.1611 63.0692C69.3042 63.0578 69.3054 62.8325 69.1611 62.8442Z" fill="white"/>
</g>
<g opacity="0.3">
<path d="M78.2217 57.7266C77.0511 57.7272 75.8806 57.7275 74.71 57.7281C74.5654 57.7281 74.5654 57.9531 74.71 57.9531C75.8806 57.9525 77.0511 57.9522 78.2217 57.9516C78.3663 57.9516 78.3663 57.7266 78.2217 57.7266Z" fill="white"/>
</g>
<g opacity="0.3">
<path d="M96.0801 63.1172C93.9387 63.1178 91.797 63.1181 89.6554 63.1187C89.5107 63.1187 89.5107 63.3437 89.6554 63.3437C91.7967 63.3431 93.9384 63.3428 96.0801 63.3422C96.2247 63.3422 96.225 63.1172 96.0801 63.1172Z" fill="white"/>
</g>
<g opacity="0.3">
<path d="M73.6413 56.6964C73.611 57.5691 73.5811 58.4421 73.5508 59.3148C73.5487 59.3772 73.6041 59.4252 73.6631 59.4273C75.5922 59.4942 77.5213 59.5608 79.4503 59.6277C79.5126 59.6298 79.5605 59.5743 79.5626 59.5152C79.6012 58.3929 79.6399 57.2709 79.6788 56.1486C79.6809 56.0862 79.6255 56.0382 79.5665 56.0361C77.6374 55.9692 75.7084 55.9026 73.7793 55.836C73.6347 55.8309 73.635 56.0559 73.7793 56.061C75.4215 56.1177 77.0637 56.1747 78.7059 56.2314C78.8924 56.238 79.3308 56.1636 79.488 56.2584C79.6476 56.3547 79.3769 56.049 79.4515 56.2269C79.483 56.3019 79.4524 56.5044 79.4389 56.5911C79.3063 57.4563 79.6021 58.512 79.344 59.3442C79.2808 59.5479 79.5677 59.3757 79.1619 59.3925C78.8176 59.4066 78.4636 59.3682 78.1196 59.3565C77.1113 59.3217 76.1028 59.2866 75.0945 59.2518C74.7136 59.2386 74.3327 59.2203 73.9515 59.2122C73.5481 59.2038 73.8054 59.3259 73.7826 59.0988C73.7054 58.3242 73.8386 57.4767 73.8656 56.6964C73.871 56.5515 73.6464 56.5518 73.6413 56.6964Z" fill="white"/>
</g>
<g opacity="0.3">
<path d="M61.0356 56.0714C59.5216 56.9786 58.2579 58.4672 57.6901 60.1385C57.6434 60.2759 57.8602 60.3347 57.9066 60.1982C58.4543 58.5857 59.6872 57.1415 61.1491 56.2655C61.2728 56.1914 61.1599 55.997 61.0356 56.0714Z" fill="white"/>
</g>
<g opacity="0.3">
<path d="M57.1894 59.0006C57.2891 59.5841 57.3891 60.1673 57.4888 60.7505C57.5044 60.8417 57.6185 60.8483 57.6766 60.8C58.159 60.3983 58.6414 59.9966 59.1238 59.5946C59.2349 59.5019 59.0756 59.3435 58.9651 59.4356C58.4827 59.8373 58.0003 60.239 57.5179 60.641C57.5805 60.6575 57.6431 60.674 57.7056 60.6905C57.6059 60.107 57.5059 59.5238 57.4062 58.9406C57.3816 58.7984 57.1651 58.8587 57.1894 59.0006Z" fill="white"/>
</g>
<g opacity="0.3">
<path d="M69.1239 55.2721C70.4301 55.7932 71.6186 56.8126 72.2756 58.054C72.3433 58.1821 72.5374 58.0684 72.4697 57.9406C71.7836 56.6443 70.5439 55.5976 69.1838 55.0552C69.0494 55.0018 68.991 55.2193 69.1239 55.2721Z" fill="white"/>
</g>
<g opacity="0.3">
<path d="M72.5087 56.9524C72.5039 57.4423 72.4991 57.9322 72.4943 58.4221C72.5506 58.3897 72.6069 58.3573 72.6632 58.3249C72.2162 58.0603 71.7688 57.7957 71.3217 57.5311C71.1968 57.4573 71.0839 57.6517 71.2082 57.7255C71.6553 57.9901 72.1027 58.2547 72.5497 58.5193C72.6237 58.5631 72.7177 58.507 72.7186 58.4221C72.7234 57.9322 72.7282 57.4423 72.733 56.9524C72.7348 56.8075 72.5102 56.8075 72.5087 56.9524Z" fill="white"/>
</g>
<g opacity="0.3">
<path d="M66.5068 57.1562C66.7035 58.0823 66.85 59.0201 66.9808 59.9573C67.0009 60.1001 67.2171 60.0392 67.1973 59.8976C67.0665 58.9604 66.92 58.0226 66.7233 57.0965C66.6933 56.9549 66.4765 57.0149 66.5068 57.1562Z" fill="white"/>
</g>
<g opacity="0.3">
<path d="M67.4133 59.2176C67.2908 59.565 67.168 59.9121 67.0455 60.2595C67.1081 60.243 67.1707 60.2265 67.2333 60.2097C66.9797 59.9124 66.726 59.6151 66.4724 59.3178C66.3784 59.2074 66.2202 59.3673 66.3137 59.4768C66.5673 59.7741 66.8209 60.0714 67.0746 60.3687C67.1336 60.438 67.2363 60.3924 67.2623 60.3192C67.3848 59.9721 67.5076 59.6247 67.6301 59.2776C67.678 59.1408 67.4612 59.0817 67.4133 59.2176Z" fill="white"/>
</g>
<g opacity="0.3">
<path d="M87.4558 56.4722C86.7946 56.4722 86.1332 56.4722 85.4717 56.4722C85.5091 56.5097 85.5465 56.5472 85.584 56.5847C85.584 55.922 85.584 55.2596 85.584 54.5969C85.5465 54.6344 85.5091 54.6719 85.4717 54.7094C86.1332 54.7094 86.7943 54.7094 87.4558 54.7094C87.4184 54.6719 87.381 54.6344 87.3435 54.5969C87.3435 55.2593 87.3435 55.922 87.3435 56.5847C87.3435 56.7296 87.5681 56.7296 87.5681 56.5847C87.5681 55.922 87.5681 55.2596 87.5681 54.5969C87.5681 54.536 87.5166 54.4844 87.4558 54.4844C86.7946 54.4844 86.1332 54.4844 85.4717 54.4844C85.4109 54.4844 85.3594 54.536 85.3594 54.5969C85.3594 55.2593 85.3594 55.922 85.3594 56.5847C85.3594 56.6456 85.4109 56.6972 85.4717 56.6972C86.1332 56.6972 86.7943 56.6972 87.4558 56.6972C87.6002 56.6972 87.6005 56.4722 87.4558 56.4722Z" fill="white"/>
</g>
<g opacity="0.3">
<path d="M87.4558 60.1284C86.7946 60.1284 86.1332 60.1284 85.4717 60.1284C85.5091 60.1659 85.5465 60.2034 85.584 60.2409C85.584 59.5785 85.584 58.9158 85.584 58.2531C85.5465 58.2906 85.5091 58.3281 85.4717 58.3656C86.1332 58.3656 86.7943 58.3656 87.4558 58.3656C87.4184 58.3281 87.381 58.2906 87.3435 58.2531C87.3435 58.9155 87.3435 59.5782 87.3435 60.2409C87.3435 60.3858 87.5681 60.3858 87.5681 60.2409C87.5681 59.5785 87.5681 58.9158 87.5681 58.2531C87.5681 58.1922 87.5166 58.1406 87.4558 58.1406C86.7946 58.1406 86.1332 58.1406 85.4717 58.1406C85.4109 58.1406 85.3594 58.1922 85.3594 58.2531C85.3594 58.9155 85.3594 59.5782 85.3594 60.2409C85.3594 60.3018 85.4109 60.3534 85.4717 60.3534C86.1332 60.3534 86.7943 60.3534 87.4558 60.3534C87.6002 60.3534 87.6005 60.1284 87.4558 60.1284Z" fill="white"/>
</g>
<g opacity="0.3">
<path d="M87.4558 63.7847C86.7946 63.7847 86.1332 63.7847 85.4717 63.7847C85.5091 63.8222 85.5465 63.8597 85.584 63.8972C85.584 63.2348 85.584 62.5721 85.584 61.9094C85.5465 61.9469 85.5091 61.9844 85.4717 62.0219C86.1332 62.0219 86.7943 62.0219 87.4558 62.0219C87.4184 61.9844 87.381 61.9469 87.3435 61.9094C87.3435 62.5718 87.3435 63.2345 87.3435 63.8972C87.3435 64.0421 87.5681 64.0421 87.5681 63.8972C87.5681 63.2348 87.5681 62.5721 87.5681 61.9094C87.5681 61.8485 87.5166 61.7969 87.4558 61.7969C86.7946 61.7969 86.1332 61.7969 85.4717 61.7969C85.4109 61.7969 85.3594 61.8485 85.3594 61.9094C85.3594 62.5718 85.3594 63.2345 85.3594 63.8972C85.3594 63.9581 85.4109 64.0097 85.4717 64.0097C86.1332 64.0097 86.7943 64.0097 87.4558 64.0097C87.6002 64.0097 87.6005 63.7847 87.4558 63.7847Z" fill="white"/>
</g>
<g opacity="0.3">
<path d="M84.9373 55.017C85.4314 55.2396 85.8884 55.5669 86.216 56.0016C86.2606 56.0607 86.334 56.0775 86.3924 56.0244C87.0386 55.4358 87.8432 54.8526 88.7191 54.7032C88.8613 54.6789 88.8008 54.462 88.6595 54.4863C87.7402 54.6429 87.1479 55.2528 86.3954 55.7241C86.1501 55.8777 86.375 55.7931 86.2938 55.734C86.1387 55.6209 86.0145 55.4388 85.8596 55.3161C85.6132 55.1211 85.338 54.9519 85.0508 54.8226C84.92 54.7638 84.8056 54.9576 84.9373 55.017Z" fill="white"/>
</g>
<g opacity="0.3">
<path d="M84.9373 58.8451C85.4314 59.0677 85.8884 59.395 86.216 59.8297C86.2606 59.8888 86.334 59.9056 86.3924 59.8525C87.0386 59.2639 87.8432 58.6807 88.7191 58.5313C88.8613 58.507 88.8008 58.2901 88.6595 58.3144C87.7402 58.471 87.1479 59.0809 86.3954 59.5522C86.1501 59.7058 86.375 59.6212 86.2938 59.5621C86.1387 59.449 86.0145 59.2669 85.8596 59.1442C85.6132 58.9492 85.338 58.78 85.0508 58.6507C84.92 58.5919 84.8056 58.7857 84.9373 58.8451Z" fill="white"/>
</g>
<g opacity="0.3">
<path d="M84.9373 62.3295C85.4314 62.5521 85.8884 62.8794 86.216 63.3141C86.2606 63.3732 86.334 63.39 86.3924 63.3369C87.0386 62.7483 87.8432 62.1651 88.7191 62.0157C88.8613 61.9914 88.8008 61.7745 88.6595 61.7988C87.7402 61.9554 87.1479 62.5653 86.3954 63.0366C86.1501 63.1902 86.375 63.1056 86.2938 63.0465C86.1387 62.9334 86.0145 62.7513 85.8596 62.6286C85.6132 62.4336 85.338 62.2644 85.0508 62.1351C84.92 62.0763 84.8056 62.2701 84.9373 62.3295Z" fill="white"/>
</g>
<path d="M90.7754 116.004C90.7754 121.274 99.6257 122.562 110.543 122.562C121.46 122.562 125.844 121.274 125.844 116.004C125.844 110.735 122.762 104.328 111.844 104.328C100.927 104.328 90.7754 110.735 90.7754 116.004Z" fill="#24774A"/>
<path opacity="0.5" d="M90.7754 116.004C90.7754 121.274 99.6257 122.562 110.543 122.562C121.46 122.562 125.844 121.274 125.844 116.004C125.844 110.735 122.762 104.328 111.844 104.328C100.927 104.328 90.7754 110.735 90.7754 116.004Z" fill="white"/>
<path d="M89.3471 108.618C88.9456 115.865 90.9453 119.777 95.505 120.031C100.065 120.285 104.087 114.616 104.489 107.37C104.89 100.123 100.297 94.5727 95.7374 94.3189C91.1777 94.0648 89.7487 101.372 89.3471 108.618Z" fill="#24774A"/>
<path opacity="0.5" d="M89.3471 108.618C88.9456 115.865 90.9453 119.777 95.505 120.031C100.065 120.285 104.087 114.616 104.489 107.37C104.89 100.123 100.297 94.5727 95.7374 94.3189C91.1777 94.0648 89.7487 101.372 89.3471 108.618Z" fill="white"/>
<path opacity="0.1" d="M111.617 104.955C111.617 104.955 115.861 104.416 116.235 105.916C116.609 107.416 109.237 106.591 107.757 108.091C106.278 109.591 112.567 110.362 111.197 111.26C110.122 111.964 106.451 108.766 101.76 109.966C97.0701 111.166 96.4014 107.622 96.9228 104.332C97.4444 101.041 97.8259 97.5032 99.2447 97.7723C100.664 98.0414 105.277 104.518 111.617 104.955Z" fill="black"/>
<path opacity="0.1" d="M98.4218 110.325C98.4218 110.325 94.0309 109.552 93.789 111.393C93.547 113.234 93.2123 110.51 98.4218 110.325Z" fill="black"/>
<path opacity="0.1" d="M91.3449 118.102C90.1109 116.654 89.4428 114.407 89.3203 111.398C89.8857 117.129 93.2054 120.841 106.465 121.44C119.751 122.04 122.674 118.065 124.096 118.54C124.694 118.739 124.696 119.288 124.499 119.856C122.474 121.954 118.055 122.565 110.542 122.565C101.25 122.565 93.4596 121.629 91.3449 118.102Z" fill="black"/>
<path d="M114.155 93.5781C114.155 93.5781 113.535 93.6768 113.169 94.0491C112.804 94.4214 111.726 94.383 111.726 94.383L111.619 95.6031L114.076 95.4606L114.155 93.5781Z" fill="#B25B52"/>
<path d="M104.255 86.2894C104.576 86.2711 105.802 86.9125 106.542 90.157C107.283 93.4015 107.118 94.4899 112.861 94.1209L112.675 95.7367C112.675 95.7367 107.698 96.2716 106.213 95.0767C104.733 93.8863 103.069 86.3569 104.255 86.2894Z" fill="#263238"/>
<path opacity="0.6" d="M105.907 90.2812L106.187 90.7781C106.187 90.7781 105.879 93.8341 106.466 95.245C106.374 95.1931 106.288 95.1382 106.213 95.0779C105.814 94.7575 105.403 93.9754 105.037 93.0052L105.907 90.2812Z" fill="black"/>
<path d="M97.7071 80.3217C97.7071 80.3217 97.6652 81.2679 97.2262 81.462C96.7875 81.6564 97.5487 82.7397 97.3364 83.4027C97.1241 84.066 96.633 84.6618 97.1586 85.5498C97.1586 85.5498 97.0451 84.8091 97.4182 84.3684C97.4182 84.3684 97.2619 85.6107 97.6634 85.6377C98.065 85.665 98.1443 85.3017 98.8028 85.4562C99.4613 85.6104 98.8804 84.4416 98.8804 84.4416C98.8804 84.4416 99.1457 84.6177 99.3233 85.2381C99.5006 85.8585 101.245 85.1427 101.954 85.398C102.663 85.653 102.86 84.3399 102.86 84.3399C102.86 84.3399 103.176 85.1199 102.92 85.3866C102.92 85.3866 103.479 85.2264 103.541 84.4839C103.541 84.4839 103.705 84.7095 103.621 85.1814C103.621 85.1814 104.159 85.1421 104.025 84.0981C103.89 83.0541 103.077 82.7538 102.866 81.9252C102.654 81.0966 100.049 79.4922 100.049 79.4922L97.7071 80.3217Z" fill="#263238"/>
<path d="M99.1074 83.5156L101.328 84.9634C101.32 86.5249 102.446 86.4427 102.446 86.4427C102.446 86.4427 102.464 86.9875 101.107 87.1882C99.7491 87.3886 99.2817 87.3352 99.2817 87.3352C99.9582 86.524 99.4446 84.5767 99.1074 83.5156Z" fill="#B25B52"/>
<path opacity="0.1" d="M101.484 85.8106C101.39 85.603 101.328 85.3297 101.33 84.9634L99.3489 83.6719L99.2246 83.8933C99.2246 83.8933 99.9756 85.8979 101.484 85.8106Z" fill="black"/>
<path d="M98.4682 81.1353C98.6942 82.95 98.7499 83.7231 99.7261 84.6C101.195 85.92 103.37 85.2465 103.691 83.4009C103.98 81.7398 103.563 79.053 101.74 78.4392C100.439 77.994 99.0236 78.6897 98.5793 79.9929C98.4538 80.3595 98.4158 80.7507 98.4682 81.1353Z" fill="#B25B52"/>
<path d="M102.473 82.2031C102.625 82.5334 102.822 82.8412 103.059 83.1175C102.914 83.2372 102.723 83.2861 102.539 83.2513L102.473 82.2031Z" fill="#9D2724"/>
<path d="M100.876 81.2577C100.864 81.2556 100.852 81.2505 100.842 81.243C100.811 81.2181 100.805 81.1725 100.83 81.1413L100.831 81.1401C100.997 80.9202 101.261 80.7951 101.536 80.8053C101.575 80.8104 101.603 80.8455 101.6 80.8851C101.596 80.9241 101.562 80.9529 101.523 80.9499C101.295 80.9451 101.079 81.0501 100.942 81.2322C100.926 81.2514 100.901 81.2613 100.876 81.2577Z" fill="#2E353A"/>
<path d="M103.561 80.9686C103.548 80.9665 103.536 80.9614 103.526 80.9539C103.349 80.8132 103.114 80.7664 102.896 80.8276C102.859 80.8417 102.817 80.8231 102.803 80.7856L102.803 80.7847C102.79 80.7466 102.81 80.7052 102.848 80.6911C103.112 80.6131 103.397 80.6677 103.615 80.8375C103.647 80.8603 103.656 80.9056 103.633 80.9383C103.617 80.9617 103.588 80.9734 103.561 80.9686Z" fill="#2E353A"/>
<path d="M101.413 82.0217C101.422 82.169 101.508 82.2842 101.606 82.2788C101.704 82.2734 101.773 82.1486 101.763 81.9992C101.752 81.8495 101.668 81.7367 101.572 81.7424C101.476 81.7478 101.404 81.8723 101.413 82.0217Z" fill="#2E353A"/>
<path d="M103.085 81.9201C103.094 82.0674 103.18 82.1826 103.276 82.1769C103.373 82.1715 103.444 82.0467 103.435 81.8976C103.427 81.7482 103.34 81.6351 103.244 81.6408C103.148 81.6462 103.074 81.7707 103.085 81.9201Z" fill="#2E353A"/>
<path d="M103.201 81.6476L103.551 81.5234C103.551 81.5234 103.384 81.812 103.201 81.6476Z" fill="#2E353A"/>
<path d="M101.529 81.7492L101.879 81.625C101.879 81.625 101.713 81.9136 101.529 81.7492Z" fill="#2E353A"/>
<path d="M101.594 83.5101C101.555 83.4651 101.52 83.4171 101.489 83.3661C101.478 83.3502 101.482 83.3283 101.497 83.3175C101.497 83.3175 101.498 83.3169 101.499 83.3169C101.516 83.3076 101.538 83.3133 101.548 83.3301C101.705 83.5917 101.977 83.7633 102.28 83.7924C102.3 83.7927 102.315 83.8089 102.315 83.8287C102.315 83.8485 102.299 83.8641 102.279 83.8638C102.012 83.8431 101.765 83.7159 101.594 83.5101Z" fill="#263238"/>
<path d="M101.772 78.5579C101.772 78.5579 102.744 79.6397 101.684 80.0726C100.623 80.5055 99.6686 81.1433 99.5132 82.0391C99.3578 82.9352 98.4924 82.9625 98.4924 82.9625C98.4924 82.9625 97.0906 81.1826 97.9959 79.3109C98.9008 77.4395 101.402 77.9042 101.772 78.5579Z" fill="#263238"/>
<path d="M98.959 78.8402C98.959 78.8402 100.129 77.0258 102.091 77.9042C104.054 78.7826 104.139 80.273 103.646 80.1266C103.152 79.9799 102.369 79.8305 101.807 78.8138C101.245 77.7971 98.959 78.8402 98.959 78.8402Z" fill="#263238"/>
<path d="M99.2461 82.2582C99.2461 82.2582 100.213 82.203 99.7528 83.478C99.7528 83.478 99.6818 82.6713 99.2461 82.2582Z" fill="#263238"/>
<path d="M98.1276 82.6011C98.2495 82.9329 98.4983 83.2026 98.8187 83.3508C99.2451 83.5434 99.5284 83.1792 99.4691 82.7388C99.4161 82.344 99.1298 81.7659 98.6729 81.7578C98.3399 81.7623 98.0737 82.0362 98.0782 82.3695C98.0791 82.4493 98.0958 82.5279 98.1276 82.6011Z" fill="#B25B52"/>
<path d="M111.991 97.7607L106.818 97.0428C106.709 97.0275 106.647 96.9087 106.697 96.8103L109.909 90.5448C109.997 90.3723 110.185 90.2745 110.377 90.3012L115.55 91.0191C115.659 91.0344 115.72 91.1532 115.67 91.2516L112.459 97.5171C112.371 97.6896 112.183 97.7874 111.991 97.7607Z" fill="#263238"/>
<path opacity="0.5" d="M111.991 97.7607L106.818 97.0428C106.709 97.0275 106.647 96.9087 106.697 96.8103L109.909 90.5448C109.997 90.3723 110.185 90.2745 110.377 90.3012L115.55 91.0191C115.659 91.0344 115.72 91.1532 115.67 91.2516L112.459 97.5171C112.371 97.6896 112.183 97.7874 111.991 97.7607Z" fill="white"/>
<path d="M112.194 97.7922L107.021 97.0743C106.912 97.059 106.85 96.9402 106.901 96.8418L110.112 90.5763C110.201 90.4038 110.388 90.306 110.58 90.3324L115.753 91.0503C115.862 91.0656 115.924 91.1844 115.873 91.2828L112.662 97.5483C112.574 97.7211 112.386 97.8189 112.194 97.7922Z" fill="#263238"/>
<path opacity="0.7" d="M112.194 97.7922L107.021 97.0743C106.912 97.059 106.85 96.9402 106.901 96.8418L110.112 90.5763C110.201 90.4038 110.388 90.306 110.58 90.3324L115.753 91.0503C115.862 91.0656 115.924 91.1844 115.873 91.2828L112.662 97.5483C112.574 97.7211 112.386 97.8189 112.194 97.7922Z" fill="white"/>
<path opacity="0.7" d="M115.044 92.1343L114.448 92.0515C114.435 92.0497 114.428 92.0359 114.434 92.0248L114.804 91.3021C114.814 91.2823 114.836 91.2709 114.858 91.2739L115.454 91.3567C115.467 91.3585 115.474 91.3723 115.468 91.3834L115.098 92.1061C115.088 92.1262 115.066 92.1373 115.044 92.1343Z" fill="#263238"/>
<path opacity="0.3" d="M115.044 92.1343L114.448 92.0515C114.435 92.0497 114.428 92.0359 114.434 92.0248L114.804 91.3021C114.814 91.2823 114.836 91.2709 114.858 91.2739L115.454 91.3567C115.467 91.3585 115.474 91.3723 115.468 91.3834L115.098 92.1061C115.088 92.1262 115.066 92.1373 115.044 92.1343Z" fill="white"/>
<path d="M111.824 94.1186C111.736 94.3634 111.534 94.544 111.372 94.5215C111.211 94.499 111.152 94.2824 111.24 94.0376C111.329 93.7928 111.531 93.6122 111.692 93.6347C111.854 93.6569 111.913 93.8738 111.824 94.1186Z" fill="white"/>
<path d="M117.061 117.423L118.044 121.46L119.454 120.958L119.037 116.859L117.061 117.423Z" fill="#B25B52"/>
<path d="M119.567 120.728L117.86 120.76C117.786 120.762 117.723 120.814 117.708 120.887L117.383 122.493C117.353 122.635 117.444 122.774 117.586 122.804C117.604 122.808 117.623 122.81 117.641 122.81C118.348 122.784 118.976 122.734 119.857 122.719C120.896 122.7 120.635 122.829 121.857 122.824C122.593 122.82 122.712 121.979 122.399 121.944C120.967 121.79 120.557 121.365 119.996 120.863C119.874 120.767 119.722 120.719 119.567 120.728Z" fill="#263238"/>
<path opacity="0.1" d="M119.279 119.237L119.037 116.859L117.061 117.423L117.629 119.757L119.279 119.237Z" fill="black"/>
<path d="M103.381 97.8697L105.636 97C105.636 97 106.822 98.3107 107.558 99.8719C108.295 101.433 104.75 101.433 104.75 101.433L103.634 99.3346L103.381 97.8697Z" fill="#24774A"/>
<path opacity="0.3" d="M103.381 97.8697L105.636 97C105.636 97 106.822 98.3107 107.558 99.8719C108.295 101.433 104.75 101.433 104.75 101.433L103.634 99.3346L103.381 97.8697Z" fill="black"/>
<path opacity="0.2" d="M104.692 97.3594C105.332 100.896 106.474 100.264 106.474 100.264L105.973 101.003L104.616 101.177L103.634 99.3301L103.381 97.8652L104.692 97.3594Z" fill="black"/>
<path d="M124.58 110.088L127.735 113.86L128.845 113.022L126.075 108.828L124.58 110.088Z" fill="#B25B52"/>
<path d="M128.285 111.973L126.929 113.028C126.869 113.072 126.847 113.151 126.876 113.219L127.519 114.725C127.575 114.859 127.729 114.922 127.863 114.866C127.88 114.859 127.896 114.85 127.912 114.839C128.479 114.416 128.967 114.017 129.684 113.503C130.528 112.896 130.386 113.151 131.389 112.451C131.993 112.028 131.614 111.269 131.336 111.417C130.071 112.106 129.461 111.933 128.715 111.84C128.56 111.83 128.407 111.878 128.285 111.973Z" fill="#263238"/>
<path opacity="0.1" d="M126.3 112.145L127.636 111.192L126.075 108.828L124.58 110.088L126.3 112.145Z" fill="black"/>
<path d="M98.8031 99.3941C98.8031 99.3941 97.9844 104.129 99.6155 107.191C101.247 110.252 104.868 110.808 114.172 100.933C114.172 100.933 117.444 102.458 125.32 111.358L127.072 109.999C127.072 109.999 120.217 98.8438 116.903 96.1966C113.556 93.523 106.238 100.992 105.306 100.577C104.476 100.208 104.083 97.6316 104.083 97.6316L98.8031 99.3941Z" fill="#24774A"/>
<path opacity="0.3" d="M98.8031 99.3941C98.8031 99.3941 97.9844 104.129 99.6155 107.191C101.247 110.252 104.868 110.808 114.172 100.933C114.172 100.933 117.444 102.458 125.32 111.358L127.072 109.999C127.072 109.999 120.217 98.8438 116.903 96.1966C113.556 93.523 106.238 100.992 105.306 100.577C104.476 100.208 104.083 97.6316 104.083 97.6316L98.8031 99.3941Z" fill="black"/>
<path d="M124.76 111.351L125.484 111.994L127.552 110.274L127.198 109.352L124.76 111.351Z" fill="#24774A"/>
<path d="M107.16 107.27C109.042 105.974 111.343 103.94 114.172 100.937C114.172 100.937 116.863 99.9411 117.807 101.866C118.752 103.792 119.356 117.712 119.356 117.712L117.114 118.359C117.114 118.359 113.109 105.796 113.132 104.968L107.16 107.27Z" fill="#24774A"/>
<path opacity="0.4" d="M107.16 107.27C109.042 105.974 111.343 103.94 114.172 100.937C114.172 100.937 116.863 99.9411 117.807 101.866C118.752 103.792 119.356 117.712 119.356 117.712L117.114 118.359C117.114 118.359 113.109 105.796 113.132 104.968L107.16 107.27Z" fill="black"/>
<path opacity="0.2" d="M117.807 101.866C117.634 101.512 117.401 101.259 117.137 101.078C117.937 101.501 119.06 102.523 119.194 104.952V104.952C118.875 104.651 118.575 104.374 118.289 104.114C118.14 103.028 117.979 102.218 117.807 101.866Z" fill="black"/>
<path opacity="0.2" d="M114.17 100.933C114.17 100.933 114.582 100.781 115.138 100.711C114.815 101.335 113.64 103.442 111.464 105.606L107.158 107.266C109.041 105.969 111.342 103.936 114.17 100.933Z" fill="black"/>
<path d="M116.717 118.098L117.001 119.013L119.602 118.238L119.635 117.25L116.717 118.098Z" fill="#24774A"/>
<path d="M106.324 97.6249C106.324 97.6249 105.655 98.7148 98.5675 99.7951C98.5675 99.7951 98.8801 97.6021 98.1333 94.4629C97.3861 91.3237 94.6183 88.3729 97.3176 87.6118C100.017 86.8507 104.685 85.2808 105.084 86.9785C105.484 88.6762 106.217 89.4175 106.186 90.7714C106.155 92.1256 105.173 93.1081 106.324 97.6249Z" fill="#263238"/>
<path d="M115.027 94.1363C115.067 93.9956 115.048 93.8447 114.981 93.7148C114.875 93.5084 114.685 93.2408 114.418 93.2675C113.99 93.3107 113.876 93.6176 113.767 94.0184C113.659 94.4189 113.318 95.1281 113.706 95.3741C114.076 95.6096 114.647 95.4803 115.027 94.1363Z" fill="#B25B52"/>
<path d="M98.8887 87.1696C98.8887 87.1696 102.658 87.3871 102.437 86.3131C102.437 86.3131 101.703 85.9753 101.845 85.5763C101.987 85.177 100.046 85.5907 99.2878 85.4815C98.977 85.4365 99.1761 85.8415 99.154 86.275C99.1318 86.7079 98.8887 87.1696 98.8887 87.1696Z" fill="#263238"/>
<path opacity="0.6" d="M98.293 95.1995L101.049 95.1641L101.987 94.5245L103.048 94.0547L103.187 94.4306C103.187 94.4306 99.8956 98.2679 98.6215 97.931C98.5918 97.1918 98.5017 96.2609 98.293 95.1995Z" fill="black"/>
<path opacity="0.6" d="M100.627 94.4168C100.627 94.4168 99.5703 94.739 99.3897 93.9689C99.1295 92.8595 98.3563 89.7713 97.5723 88.5845C96.7168 87.2891 98.4021 93.4805 98.4021 93.4805L98.7761 94.784L99.3654 95.5853L100.642 94.6775L100.627 94.4168Z" fill="black"/>
<path opacity="0.6" d="M102.556 86.7969C102.556 86.7969 102.687 87.5196 99.8535 87.456C99.8535 87.456 103.157 88.2468 102.556 86.7969Z" fill="black"/>
<path d="M105.199 92.8391L105.16 92.5312L104.945 92.66L105.199 92.8391Z" fill="#263238"/>
<path opacity="0.7" d="M105.199 92.8391L105.16 92.5312L104.945 92.66L105.199 92.8391Z" fill="white"/>
<path d="M102.617 89.037L102.653 88.8396L102.881 88.7031L103.071 88.7643L105.13 92.205L105.175 92.5383L104.948 92.6748L104.676 92.478L102.617 89.037Z" fill="#263238"/>
<path opacity="0.6" d="M102.617 89.037L102.653 88.8396L102.881 88.7031L103.071 88.7643L105.13 92.205L105.175 92.5383L104.948 92.6748L104.676 92.478L102.617 89.037Z" fill="white"/>
<path opacity="0.5" d="M102.887 88.9729L102.66 89.1094L104.664 92.459L104.892 92.3225L102.887 88.9729Z" fill="white"/>
<path d="M96.6666 87.7991C95.7029 88.07 95.6418 89.3777 96.5198 92.5823C97.3978 95.7872 98.0383 97.8335 99.7344 97.0628C101.431 96.2924 103.39 94.2272 103.39 94.2272L102.541 92.8394C102.541 92.8394 99.7773 95.222 99.1978 94.7669C98.6184 94.3118 98.1414 87.3845 96.6666 87.7991Z" fill="#263238"/>
<path d="M102.178 93.3842L103.346 92.3987C103.346 92.3987 103.175 90.431 103.81 90.4067C104.331 90.3869 104.748 91.0118 104.841 91.8659C104.934 92.72 103.972 93.2519 103.972 93.2519L102.842 94.5077L102.178 93.3842Z" fill="#B25B52"/>
<path d="M78.2348 74.4634C78.2348 74.4634 80.8625 72.8431 82.2301 75.1681C83.2009 76.819 82.6637 78.4819 83.4321 79.8247C84.6299 81.9181 83.8313 82.9183 82.0346 83.2933C80.2379 83.6683 77.3542 83.6182 77.7545 81.5182C78.1639 79.3699 76.1569 74.4334 78.2348 74.4634Z" fill="#263238"/>
<path d="M81.103 79.1485C81.103 79.1485 81.3207 82.2298 81.895 82.2829C81.895 82.2829 80.5415 82.9609 79.2129 82.2829L79.1191 80.8663L81.103 79.1485Z" fill="#EBB376"/>
<path d="M68.4161 122.708H67.3594L67.6939 106.258H69.1031L68.4161 122.708Z" fill="#24774A"/>
<path opacity="0.7" d="M68.4161 122.708H67.3594L67.6939 106.258H69.1031L68.4161 122.708Z" fill="white"/>
<g opacity="0.4">
<path d="M77.09 122.708H76.0332L76.3677 106.258H77.7769L77.09 122.708Z" fill="#24774A"/>
</g>
<path d="M85.7573 122.708H86.8143L86.4795 106.258H85.0703L85.7573 122.708Z" fill="#24774A"/>
<g opacity="0.4">
<path d="M85.7573 122.708H86.8143L86.4795 106.258H85.0703L85.7573 122.708Z" fill="white"/>
</g>
<path d="M85.8293 106.258H68.4785V107.796H85.8293V106.258Z" fill="#24774A"/>
<path opacity="0.5" d="M85.8293 106.258H68.4785V107.796H85.8293V106.258Z" fill="white"/>
<path d="M77.0834 122.708H78.1405L77.8057 106.258H76.3965L77.0834 122.708Z" fill="#24774A"/>
<path opacity="0.7" d="M77.0834 122.708H78.1405L77.8057 106.258H76.3965L77.0834 122.708Z" fill="white"/>
<path d="M86.8821 86.7735H84.0076C82.4987 86.7735 80.897 87.5547 80.4729 89.0058C79.2742 93.1077 78.3672 105.971 78.3672 105.971H86.0613C86.9959 105.971 87.781 105.267 87.8834 104.336L89.4954 89.6961C89.6673 88.1367 88.4482 86.7735 86.8821 86.7735Z" fill="#263238"/>
<path opacity="0.6" d="M86.8821 86.7735H84.0076C82.4987 86.7735 80.897 87.5547 80.4729 89.0058C79.2742 93.1077 78.3672 105.971 78.3672 105.971H86.0613C86.9959 105.971 87.781 105.267 87.8834 104.336L89.4954 89.6961C89.6673 88.1367 88.4482 86.7735 86.8821 86.7735Z" fill="white"/>
<path d="M85.1301 86.7735H82.2557C80.7468 86.7735 79.145 87.5547 78.721 89.0058C77.5223 93.1077 76.6152 105.971 76.6152 105.971H84.0419C85.1289 105.971 86.0416 105.152 86.1608 104.07L87.7434 89.6964C87.915 88.1367 86.6962 86.7735 85.1301 86.7735Z" fill="#263238"/>
<path opacity="0.5" d="M85.1301 86.7735H82.2557C80.7468 86.7735 79.145 87.5547 78.721 89.0058C77.5223 93.1077 76.6152 105.971 76.6152 105.971H84.0419C85.1289 105.971 86.0416 105.152 86.1608 104.07L87.7434 89.6964C87.915 88.1367 86.6962 86.7735 85.1301 86.7735Z" fill="white"/>
<path d="M79.3126 106.254H68.067C67.03 106.254 66.1895 105.412 66.1895 104.373C66.1895 103.334 67.03 102.492 68.067 102.492H79.3126V106.254Z" fill="#263238"/>
<path opacity="0.5" d="M79.3126 106.254H68.067C67.03 106.254 66.1895 105.412 66.1895 104.373C66.1895 103.334 67.03 102.492 68.067 102.492H79.3126V106.254Z" fill="white"/>
<path d="M86.1871 106.254H78.9234C77.9313 106.254 77.127 105.448 77.127 104.455V104.292C77.127 103.298 77.9313 102.492 78.9234 102.492H86.1871C87.2241 102.492 88.0647 103.334 88.0647 104.373C88.0647 105.412 87.2241 106.254 86.1871 106.254Z" fill="#263238"/>
<path opacity="0.6" d="M86.1871 106.254H78.9234C77.9313 106.254 77.127 105.448 77.127 104.455V104.292C77.127 103.298 77.9313 102.492 78.9234 102.492H86.1871C87.2241 102.492 88.0647 103.334 88.0647 104.373C88.0647 105.412 87.2241 106.254 86.1871 106.254Z" fill="white"/>
<path d="M75.6447 86.4063C75.6447 86.4063 75.8957 89.1426 74.6053 90.3003C73.4309 91.3542 71.5359 91.8738 71.5359 91.8738L69.865 91.386C69.7045 91.3392 69.5362 91.3887 69.4341 91.5129L68.6867 92.4207C68.5373 92.6019 68.5762 92.8794 68.772 93.0303C68.8646 93.1017 68.9798 93.1341 69.0921 93.1203L69.9572 93.0144C69.9572 93.0144 70.7493 93.1614 71.0113 93.1419C71.2167 93.1266 71.7977 92.9214 71.7977 92.9214C71.7977 92.9214 74.7775 92.6646 76.0484 91.3911C77.3195 90.1179 77.6382 87.4758 77.6382 87.4758L75.6447 86.4063Z" fill="#EBB376"/>
<path d="M66.8691 115.561L67.0635 121.548H68.4008L69.0267 115.453L66.8691 115.561Z" fill="#EBB376"/>
<path d="M67.0407 120.938L68.5658 120.946C68.6323 120.946 68.6898 120.992 68.7042 121.057L69.0192 122.494C69.0483 122.621 68.9686 122.748 68.8416 122.777C68.8255 122.781 68.8087 122.783 68.7919 122.783C68.1568 122.77 67.592 122.734 66.8012 122.734C65.8678 122.732 66.1044 122.844 65.0072 122.857C64.346 122.864 64.2268 122.111 64.5071 122.075C65.7902 121.916 66.1616 121.525 66.6574 121.066C66.7652 120.977 66.9018 120.932 67.0407 120.938Z" fill="#263238"/>
<path opacity="0.1" d="M68.5352 120.231L68.6855 118.766H66.9727L67.0203 120.231H68.5352Z" fill="#263238"/>
<path d="M82.5278 93.0552C82.5278 93.0552 86.6967 102.543 82.6928 102.543C78.6885 102.543 71.1394 102.543 71.1394 102.543C71.1394 102.543 70.6396 105.066 68.8396 118.934H66.9072C66.9072 118.934 66.5841 102.691 67.6526 100.268C68.4898 98.3697 73.8545 97.0125 76.3941 96.5142C77.0775 96.3801 77.5997 95.8263 77.6937 95.1354L78.2576 92.8047L82.5278 93.0552Z" fill="#263238"/>
<path opacity="0.2" d="M82.5278 93.0552C82.5278 93.0552 86.6967 102.543 82.6928 102.543C78.6885 102.543 71.1394 102.543 71.1394 102.543C71.1394 102.543 70.6396 105.066 68.8396 118.934H66.9072C66.9072 118.934 66.5841 102.691 67.6526 100.268C68.4898 98.3697 73.8545 97.0125 76.3941 96.5142C77.0775 96.3801 77.5997 95.8263 77.6937 95.1354L78.2576 92.8047L82.5278 93.0552Z" fill="black"/>
<path d="M66.5352 118.609L66.69 119.663H68.9859L69.1982 118.609H66.5352Z" fill="#263238"/>
<path opacity="0.2" d="M66.5352 118.609L66.69 119.663H68.9859L69.1982 118.609H66.5352Z" fill="white"/>
<path d="M70.8848 115.561L71.1082 121.469L72.3892 121.467L73.3067 115.453L70.8848 115.561Z" fill="#EBB376"/>
<path opacity="0.1" d="M72.5774 120.231L72.8011 118.766H71.0059L71.0613 120.231H72.5774Z" fill="#263238"/>
<path d="M71.1384 120.938L72.6635 120.946C72.73 120.946 72.7875 120.992 72.8018 121.057L73.1169 122.494C73.1456 122.621 73.0663 122.748 72.9393 122.777C72.9228 122.781 72.9064 122.783 72.8896 122.783C72.2544 122.77 71.6897 122.734 70.8988 122.734C69.9654 122.732 70.202 122.844 69.1048 122.857C68.4436 122.864 68.3245 122.111 68.6047 122.075C69.8879 121.916 70.2592 121.525 70.7551 121.066C70.8629 120.977 70.9995 120.932 71.1384 120.938Z" fill="#263238"/>
<path d="M84.6329 93.2249C84.6329 93.2249 84.9323 93.2249 85.383 95.4653C85.9559 98.3123 86.7832 102.547 84.0561 102.547C80.0519 102.547 75.2146 102.547 75.2146 102.547C75.2146 102.547 74.7825 103.576 72.901 118.939H70.9687C70.9687 118.939 69.8954 102.5 70.9639 100.078C71.7867 98.2121 75.8787 97.3589 78.1291 97.0652C78.7708 96.9815 79.3024 96.4631 79.3191 95.8151C79.3365 95.1386 79.2389 93.1094 79.2389 93.1094L84.6329 93.2249Z" fill="#263238"/>
<path d="M70.5801 118.609L70.8023 119.663H73.0308L73.2431 118.609H70.5801Z" fill="#263238"/>
<path opacity="0.2" d="M70.5801 118.609L70.8023 119.663H73.0308L73.2431 118.609H70.5801Z" fill="white"/>
<path d="M77.0667 82.304C75.9896 82.1417 75.3793 84.7976 75.3242 87.3068L77.8806 87.9074C77.8806 87.9074 79.0823 82.6076 77.0667 82.304Z" fill="#24774A"/>
<path opacity="0.1" d="M77.0667 82.304C75.9896 82.1417 75.3793 84.7976 75.3242 87.3068L77.8806 87.9074C77.8806 87.9074 79.0823 82.6076 77.0667 82.304Z" fill="black"/>
<path d="M77.749 94.4096C77.749 94.4096 77.6903 92.6306 77.3373 90.3824C76.9318 87.8009 76.238 84.9008 76.4733 83.0645C76.5368 82.5692 76.9384 82.2266 77.4502 82.2266H84.442C84.887 82.2266 85.2715 82.6478 85.2185 83.0792C84.9771 85.046 84.3716 89.9435 85.2969 94.5668C85.2969 94.5668 79.9565 94.9931 77.749 94.4096Z" fill="#24774A"/>
<path d="M83.8157 85.7345C83.8157 85.7345 84.2798 88.9202 82.8781 89.8178C81.4764 90.7151 78.4109 91.6469 78.4109 91.6469L76.5172 91.2446C76.4162 91.2233 76.3156 91.2647 76.2632 91.3496L75.5041 92.5793C75.4487 92.669 75.4592 92.7869 75.5299 92.8718C75.5862 92.9396 75.6721 92.9756 75.7572 92.9666L76.9056 92.8466C76.9056 92.8466 77.5021 92.9867 77.7021 92.9807C77.9572 92.9729 78.6867 92.7485 78.6867 92.7485C78.6867 92.7485 83.068 92.3213 84.4059 90.9809C85.7438 89.6405 85.9145 86.8598 85.9145 86.8598L83.8157 85.7345Z" fill="#EBB376"/>
<path d="M84.69 82.2875C83.331 82.1252 83.6907 85.169 83.5254 87.3017L86.0653 87.5885C86.0653 87.5885 86.7103 82.5287 84.69 82.2875Z" fill="#24774A"/>
<path opacity="0.1" d="M84.69 82.2875C83.331 82.1252 83.6907 85.169 83.5254 87.3017L86.0653 87.5885C86.0653 87.5885 86.7103 82.5287 84.69 82.2875Z" fill="black"/>
<path d="M78.9888 82.4275C78.9888 82.4275 78.7265 84.6994 81.7234 82.6735C81.9126 82.5454 81.9815 82.2985 81.886 82.0906C81.7833 81.8668 81.6752 81.5491 81.6683 81.1933C81.6644 80.9938 81.4365 80.8768 81.2718 80.989C80.8478 81.2779 80.1626 81.5887 79.2359 81.5137C79.0505 81.4987 78.9112 81.6682 78.9615 81.8473C79.0092 82.0162 79.0364 82.2217 78.9888 82.4275Z" fill="#24774A"/>
<path opacity="0.1" d="M78.9888 82.4275C78.9888 82.4275 78.7265 84.6994 81.7234 82.6735C81.9126 82.5454 81.9815 82.2985 81.886 82.0906C81.7833 81.8668 81.6752 81.5491 81.6683 81.1933C81.6644 80.9938 81.4365 80.8768 81.2718 80.989C80.8478 81.2779 80.1626 81.5887 79.2359 81.5137C79.0505 81.4987 78.9112 81.6682 78.9615 81.8473C79.0092 82.0162 79.0364 82.2217 78.9888 82.4275Z" fill="black"/>
<path opacity="0.1" d="M81.1422 79.5928C81.1156 79.3252 81.103 79.1485 81.103 79.1485L79.1191 80.8663L79.1685 81.6136C79.7411 81.571 80.5772 81.1999 81.1422 79.5928Z" fill="black"/>
<path d="M81.2635 76.6733C81.4234 78.4283 81.5294 79.1675 80.7901 80.1944C79.6779 81.7397 77.4925 81.5537 76.811 79.8821C76.1983 78.3776 76.039 75.7622 77.63 74.8085C78.7634 74.1212 80.2385 74.4848 80.9242 75.6203C81.118 75.9401 81.2339 76.3007 81.2635 76.6733Z" fill="#EBB376"/>
<path d="M77.5749 78.336C77.5074 78.6801 77.3931 79.0134 77.2344 79.3266C77.3979 79.4052 77.5878 79.4073 77.7531 79.3326L77.5749 78.336Z" fill="#D58745"/>
<path d="M78.6633 77.225C78.6744 77.2202 78.6842 77.2127 78.6923 77.2034C78.716 77.1728 78.7103 77.129 78.68 77.1053L78.6788 77.1044C78.4728 76.9367 78.1979 76.8803 77.9422 76.9529C77.9069 76.9667 77.8883 77.006 77.9 77.0423C77.9125 77.078 77.9515 77.0969 77.9874 77.0852C78.1994 77.0285 78.4255 77.0774 78.5953 77.2163C78.6148 77.231 78.6405 77.2343 78.6633 77.225Z" fill="#2E353A"/>
<path d="M76.2326 77.6005C76.2204 77.5993 76.2087 77.5954 76.1985 77.5888C76.1668 77.5672 76.1584 77.5237 76.1799 77.4919L76.1808 77.4907C76.3246 77.2672 76.5683 77.1277 76.8336 77.1172C76.8717 77.1193 76.9016 77.1508 76.9013 77.1889C76.9004 77.2267 76.8693 77.257 76.8315 77.257C76.6126 77.2693 76.4129 77.386 76.2943 77.5711C76.2806 77.5909 76.2572 77.602 76.2326 77.6005Z" fill="#2E353A"/>
<path d="M78.5264 77.9144C78.5519 78.0545 78.4976 78.1817 78.4043 78.1994C78.3113 78.2171 78.2177 78.116 78.1934 77.9735C78.1691 77.831 78.2225 77.7062 78.3137 77.6894C78.4049 77.6723 78.5003 77.7728 78.5264 77.9144Z" fill="#2E353A"/>
<path d="M76.9371 78.2034C76.9626 78.3435 76.9083 78.4707 76.8168 78.4878C76.7256 78.5046 76.6302 78.4044 76.6041 78.2625C76.578 78.1206 76.6332 77.9952 76.7244 77.9784C76.8159 77.9616 76.9128 78.0609 76.9371 78.2034Z" fill="#2E353A"/>
<path d="M76.7657 77.9816L76.4102 77.9453C76.4102 77.9453 76.6319 78.1775 76.7657 77.9816Z" fill="#2E353A"/>
<path d="M78.3555 77.6926L78 77.6563C78 77.6563 78.2217 77.8885 78.3555 77.6926Z" fill="#2E353A"/>
<path d="M81.8854 77.9826C81.8386 78.3201 81.6599 78.6252 81.3886 78.8307C81.0265 79.0998 80.6852 78.8151 80.6504 78.3885C80.6193 78.0057 80.7702 77.4024 81.199 77.301C81.5131 77.2365 81.8201 77.4396 81.8845 77.7546C81.8997 77.8296 81.9 77.907 81.8854 77.9826Z" fill="#EBB376"/>
<path d="M78.2377 80.04C78.1874 80.0562 78.1359 80.0679 78.0835 80.0751C78.0668 80.0784 78.0506 80.0673 78.0473 80.0505C78.0473 80.0505 78.0473 80.0499 78.047 80.0493C78.0455 80.0319 78.0578 80.0163 78.0751 80.0139C78.3429 79.9785 78.5782 79.8177 78.7088 79.581C78.716 79.5651 78.7345 79.5582 78.7504 79.5654C78.7663 79.5726 78.7732 79.5912 78.766 79.6071C78.6555 79.8171 78.4647 79.9734 78.2377 80.04Z" fill="#263238"/>
<path d="M78.8756 75.4406C78.8756 75.4406 78.3971 76.1906 78.7669 76.7156C79.1367 77.2406 76.6165 76.1417 75.9676 77.291C75.9676 77.291 75.1453 73.7405 78.8753 74.2157V75.4406H78.8756Z" fill="#263238"/>
<path d="M78.7691 75.2184C78.7691 75.2184 78.4903 76.641 79.4135 77.0796C80.3367 77.5182 80.3118 78.6933 81.1434 78.4959C82.3418 78.2115 81.4848 74.5683 79.5425 74.1744C78.1031 73.8831 78.7691 75.2184 78.7691 75.2184Z" fill="#263238"/>
<path d="M52.6002 122.958H51.5677L51.1152 95.5781H53.0527L52.6002 122.958Z" fill="#24774A"/>
<path opacity="0.7" d="M52.6002 122.958H51.5677L51.1152 95.5781H53.0527L52.6002 122.958Z" fill="white"/>
<path d="M63.9986 122.958H62.9658L62.5137 95.5781H64.4511L63.9986 122.958Z" fill="#24774A"/>
<path opacity="0.4" d="M63.9986 122.958H62.9658L62.5137 95.5781H64.4511L63.9986 122.958Z" fill="white"/>
<path d="M71.5698 95.1172H52.084V97.2586H71.5698V95.1172Z" fill="#24774A"/>
<path opacity="0.3" d="M71.5698 95.1172H52.084V97.2586H71.5698V95.1172Z" fill="white"/>
<path d="M82.9973 95.1172H71.5703V97.2586H82.9973V95.1172Z" fill="#24774A"/>
<path opacity="0.5" d="M82.9973 95.1172H71.5703V97.2586H82.9973V95.1172Z" fill="white"/>
<path d="M83.4833 122.958H82.4505L81.998 95.5781H83.9358L83.4833 122.958Z" fill="#24774A"/>
<path opacity="0.4" d="M83.4833 122.958H82.4505L81.998 95.5781H83.9358L83.4833 122.958Z" fill="white"/>
<path d="M84.3249 95.5773H69.5527C69.1146 95.5773 68.7598 95.2215 68.7598 94.7829V94.5366C68.7598 94.0977 69.1149 93.7422 69.5527 93.7422H84.3249C84.763 93.7422 85.1178 94.098 85.1178 94.5366V94.7829C85.1178 95.2218 84.763 95.5773 84.3249 95.5773Z" fill="#263238"/>
<path opacity="0.6" d="M84.3249 95.5773H69.5527C69.1146 95.5773 68.7598 95.2215 68.7598 94.7829V94.5366C68.7598 94.0977 69.1149 93.7422 69.5527 93.7422H84.3249C84.763 93.7422 85.1178 94.098 85.1178 94.5366V94.7829C85.1178 95.2218 84.763 95.5773 84.3249 95.5773Z" fill="white"/>
<path d="M70.5135 95.5773H50.3027C49.8646 95.5773 49.5098 95.2215 49.5098 94.7829V94.5366C49.5098 94.0977 49.8649 93.7422 50.3027 93.7422H70.5135C70.9516 93.7422 71.3065 94.098 71.3065 94.5366V94.7829C71.3068 95.2218 70.9516 95.5773 70.5135 95.5773Z" fill="#263238"/>
<path opacity="0.5" d="M70.5135 95.5773H50.3027C49.8646 95.5773 49.5098 95.2215 49.5098 94.7829V94.5366C49.5098 94.0977 49.8649 93.7422 50.3027 93.7422H70.5135C70.9516 93.7422 71.3065 94.098 71.3065 94.5366V94.7829C71.3068 95.2218 70.9516 95.5773 70.5135 95.5773Z" fill="white"/>
<path d="M72.0849 122.958H71.0521L70.5996 95.5781H72.5374L72.0849 122.958Z" fill="#24774A"/>
<path opacity="0.7" d="M72.0849 122.958H71.0521L70.5996 95.5781H72.5374L72.0849 122.958Z" fill="white"/>
<path d="M69.9393 93.743C69.7713 93.743 69.6348 93.6065 69.6348 93.4379C69.6348 93.2693 69.771 93.1328 69.9393 93.1328H78.2344C78.4024 93.1328 78.5389 93.2693 78.5389 93.4379C78.5389 93.6065 78.4027 93.743 78.2344 93.743H69.9393Z" fill="#24774A"/>
<path opacity="0.2" d="M69.9393 93.743C69.7713 93.743 69.6348 93.6065 69.6348 93.4379C69.6348 93.2693 69.771 93.1328 69.9393 93.1328H78.2344C78.4024 93.1328 78.5389 93.2693 78.5389 93.4379C78.5389 93.6065 78.4027 93.743 78.2344 93.743H69.9393Z" fill="black"/>
<path d="M70.6439 93.2161L69.5398 85.3447C69.4991 85.0552 69.232 84.8203 68.943 84.8203H67.8848V93.7405H70.1938C70.4831 93.7402 70.6843 93.5056 70.6439 93.2161Z" fill="#24774A"/>
<path d="M69.7378 93.7405H60.3588C60.0698 93.7405 59.8024 93.5056 59.7619 93.2161L58.6576 85.3447C58.6168 85.0552 58.8184 84.8203 59.1073 84.8203H68.4864C68.7754 84.8203 69.0428 85.0552 69.0833 85.3447L70.1873 93.2161C70.2284 93.5059 70.0268 93.7405 69.7378 93.7405Z" fill="#263238"/>
<path opacity="0.7" d="M69.7378 93.7405H60.3588C60.0698 93.7405 59.8024 93.5056 59.7619 93.2161L58.6576 85.3447C58.6168 85.0552 58.8184 84.8203 59.1073 84.8203H68.4864C68.7754 84.8203 69.0428 85.0552 69.0833 85.3447L70.1873 93.2161C70.2284 93.5059 70.0268 93.7405 69.7378 93.7405Z" fill="white"/>
<path opacity="0.7" d="M64.8814 89.0653C64.9186 89.3299 64.7344 89.5447 64.4703 89.5447C64.2062 89.5447 63.9618 89.3302 63.9247 89.0653C63.8875 88.8007 64.0717 88.5859 64.3358 88.5859C64.6002 88.5859 64.8443 88.8007 64.8814 89.0653Z" fill="white"/>
<path d="M36.7351 91.4644C35.6079 98.0503 43.458 94.597 46.5849 94.6754C46.7846 94.6805 46.9784 94.7213 47.1688 94.7933L48.1354 98.9704L47.1973 103.297L45.0083 106.763H31.3866L21.5368 100.086L19.0352 92.2547L19.7386 79.5673L20.0512 77.5312C20.0512 77.5312 20.3638 80.0374 27.2431 79.4107C34.1224 78.7843 39.5149 76.5632 41.0798 78.7844C42.9565 81.4475 37.4801 87.1096 36.7351 91.4644Z" fill="#24774A"/>
<path opacity="0.2" d="M46.9637 102.241V104.706L43.0355 106.292L35.2962 105.881L33.2617 103.296L34.1238 101.945H39.1073L46.9637 102.241Z" fill="black"/>
<path d="M34.4438 110.305H32.0781V121.093H34.4438V110.305Z" fill="#263238"/>
<path opacity="0.5" d="M34.4438 110.305H32.0781V121.093H34.4438V110.305Z" fill="white"/>
<path d="M35.0548 120.109H31.4656L24.1348 121.499V122.725H25.644L31.4656 121.621H35.0548L40.8765 122.725H42.3857V121.499L35.0548 120.109Z" fill="#263238"/>
<path opacity="0.3" d="M35.0548 120.109H31.4656L24.1348 121.499V122.725H25.644L31.4656 121.621H35.0548L40.8765 122.725H42.3857V121.499L35.0548 120.109Z" fill="white"/>
<path d="M40.8779 123.259C41.381 123.259 41.8841 123.259 42.3872 123.259C42.8597 123.259 42.8603 122.523 42.3872 122.523C41.8841 122.523 41.381 122.523 40.8779 122.523C40.4057 122.523 40.4048 123.259 40.8779 123.259Z" fill="#24774A"/>
<path d="M24.1359 123.259C24.639 123.259 25.142 123.259 25.6451 123.259C26.1176 123.259 26.1182 122.523 25.6451 122.523C25.142 122.523 24.639 122.523 24.1359 122.523C23.6633 122.523 23.6627 123.259 24.1359 123.259Z" fill="#24774A"/>
<path opacity="0.2" d="M34.4438 110.305H32.0781V112.746H34.4438V110.305Z" fill="black"/>
<path d="M46.0493 103.769H31.8945V100.711H46.0493C46.8922 100.711 47.5756 101.396 47.5756 102.24C47.5756 103.084 46.8922 103.769 46.0493 103.769Z" fill="#24774A"/>
<path opacity="0.1" d="M46.0493 103.769H31.8945V100.711H46.0493C46.8922 100.711 47.5756 101.396 47.5756 102.24C47.5756 103.084 46.8922 103.769 46.0493 103.769Z" fill="black"/>
<path d="M34.1891 81.6641C34.1891 81.6641 36.0017 86.7563 37.484 86.8715C38.9663 86.9867 40.7807 84.254 40.7807 84.254L41.5197 82.328L43.0095 82.2035V84.6197L41.4802 85.3901C41.4802 85.3901 39.143 89.2385 37.3277 89.1431C35.5121 89.0474 33.6795 86.2322 33.3085 84.7985C33.1045 84.0104 33.2402 82.3679 34.1891 81.6641Z" fill="#FFC3BD"/>
<path d="M43.3271 85.8583L43.864 81.4117L41.81 81.2734L41.748 85.7518L43.3271 85.8583Z" fill="#263238"/>
<path opacity="0.5" d="M43.3271 85.8583L43.864 81.4117L41.81 81.2734L41.748 85.7518L43.3271 85.8583Z" fill="white"/>
<path d="M43.9056 80.771L41.8516 80.6328L41.8086 81.2718L43.8626 81.41L43.9056 80.771Z" fill="#24774A"/>
<path d="M43.9074 80.7719L41.8535 80.6336L41.8751 80.3123C41.8793 80.2478 41.935 80.1992 41.9993 80.2034L43.8203 80.3261C43.8847 80.3303 43.9332 80.3861 43.929 80.4506L43.9074 80.7719Z" fill="#263238"/>
<path d="M33.7158 86.151C33.7158 86.151 31.7724 82.9365 33.0142 81.4128C34.2558 79.8891 36.1522 84.9126 36.1522 84.9126L33.7158 86.151Z" fill="#24774A"/>
<path opacity="0.3" d="M33.7158 86.151C33.7158 86.151 31.7724 82.9365 33.0142 81.4128C34.2558 79.8891 36.1522 84.9126 36.1522 84.9126L33.7158 86.151Z" fill="white"/>
<path d="M33.3379 85.9214L33.7059 86.4647L36.4291 85.0541L36.1767 84.4844L33.3379 85.9214Z" fill="#24774A"/>
<path opacity="0.1" d="M33.3379 85.9214L33.7059 86.4647L36.4291 85.0541L36.1767 84.4844L33.3379 85.9214Z" fill="white"/>
<path d="M23.9763 98.4409C23.9763 98.4409 21.5399 89.9017 24.3958 81.4093C24.3958 81.4093 28.1021 79.6816 33.3871 80.9488C33.9932 81.094 34.3606 81.7084 34.2052 82.3132C33.6764 84.3727 32.8589 89.2837 34.8328 95.4907C34.8334 95.4907 30.1988 98.3188 23.9763 98.4409Z" fill="#24774A"/>
<path opacity="0.5" d="M23.9763 98.4409C23.9763 98.4409 21.5399 89.9017 24.3958 81.4093C24.3958 81.4093 28.1021 79.6816 33.3871 80.9488C33.9932 81.094 34.3606 81.7084 34.2052 82.3132C33.6764 84.3727 32.8589 89.2837 34.8328 95.4907C34.8334 95.4907 30.1988 98.3188 23.9763 98.4409Z" fill="white"/>
<path d="M28.6113 80.521L30.4005 82.0738L31.4396 81.1519C31.0468 80.8588 31.1546 80.1976 31.3738 79.4836L28.8362 77.4766C28.965 78.4189 29.0623 79.7125 28.6113 80.521Z" fill="#FFC3BD"/>
<path d="M41.6321 100.57L44.93 101.915L44.5574 103.312L41.0371 102.586L41.6321 100.57Z" fill="#FFC3BD"/>
<path d="M30.37 95.7986C30.37 95.7986 46.1549 90.3206 47.4566 95.3537C48.7581 100.387 36.7959 103.859 30.5284 103.647C24.2609 103.436 30.37 95.7986 30.37 95.7986Z" fill="#263238"/>
<path opacity="0.3" d="M30.37 95.7986C30.37 95.7986 46.1549 90.3206 47.4566 95.3537C48.7581 100.387 36.7959 103.859 30.5284 103.647C24.2609 103.436 30.37 95.7986 30.37 95.7986Z" fill="black"/>
<path opacity="0.7" d="M42.104 96.3082L34.4446 101.199L35.6673 103.209C35.6673 103.209 34.9268 103.456 33.9023 101L38.6429 97.861C38.6429 97.861 37.1583 97.7119 37.1966 97.4785C37.2589 97.0993 40.516 96.3712 42.0028 96.058C42.1519 96.0268 42.2325 96.226 42.104 96.3082Z" fill="black"/>
<path opacity="0.7" d="M34.1665 100.984L35.4943 103.239C33.6925 103.551 31.9614 103.696 30.5282 103.647C29.8604 103.625 29.3343 103.517 28.9249 103.344L28.459 102.449L29.4633 100.328L34.1665 100.984Z" fill="black"/>
<path d="M34.3018 101.328L32.8105 102.58L33.4954 103.646L35.7655 103.29L34.3018 101.328Z" fill="#FFC3BD"/>
<path d="M36.1638 103.327L34.6055 100.867L33.9023 101.37L35.2499 103.494L36.1638 103.327Z" fill="#263238"/>
<path opacity="0.3" d="M36.1638 103.327L34.6055 100.867L33.9023 101.37L35.2499 103.494L36.1638 103.327Z" fill="white"/>
<path d="M24.8223 101.037C23.9734 99.5954 22.3348 95.2556 26.2743 94.5002C30.2136 93.7448 43.1541 101.037 43.1541 101.037L42.5516 102.935L30.2984 100.91C30.2984 100.91 33.7052 103.999 29.9788 103.615C27.023 103.31 25.6476 102.439 24.8223 101.037Z" fill="#263238"/>
<path d="M42.8363 100.57L42.0703 103.048L42.8363 103.155L43.5265 101.015L42.8363 100.57Z" fill="#263238"/>
<path opacity="0.3" d="M42.8363 100.57L42.0703 103.048L42.8363 103.155L43.5265 101.015L42.8363 100.57Z" fill="white"/>
<path d="M33.9346 103.593L33.3971 101.955C33.3767 101.893 33.3165 101.853 33.2521 101.86L31.8246 102.002C31.698 102.014 31.6045 102.126 31.6162 102.253C31.6177 102.269 31.621 102.285 31.6258 102.301C31.8297 102.888 32.0343 103.403 32.2744 104.138C32.5589 105.006 32.3828 104.82 32.7029 105.845C32.8964 106.462 33.6306 106.345 33.5794 106.073C33.3381 104.831 33.657 104.589 33.9322 103.989C33.9813 103.861 33.9822 103.721 33.9346 103.593Z" fill="#263238"/>
<path d="M44.6357 101.824L44.0815 103.507C44.0605 103.57 44.0862 103.64 44.1434 103.674L45.4098 104.43C45.5218 104.498 45.6673 104.462 45.735 104.35C45.7437 104.336 45.7509 104.32 45.7563 104.304C45.9455 103.694 46.0902 103.144 46.3399 102.389C46.6337 101.497 46.6657 101.759 47.0257 100.716C47.2419 100.087 46.5636 99.7345 46.4402 99.9904C45.8827 101.165 45.4715 101.17 44.878 101.498C44.7603 101.573 44.6741 101.689 44.6357 101.824Z" fill="#263238"/>
<path d="M42.4744 96.2244H35.3717C35.0369 96.2244 34.7656 95.9526 34.7656 95.6172H43.0802C43.0805 95.9526 42.8092 96.2244 42.4744 96.2244Z" fill="#263238"/>
<path opacity="0.2" d="M42.4744 96.2244H35.3717C35.0369 96.2244 34.7656 95.9526 34.7656 95.6172H43.0802C43.0805 95.9526 42.8092 96.2244 42.4744 96.2244Z" fill="white"/>
<path d="M37.2461 96.2244H32.0866C31.7518 96.2244 31.4805 95.9526 31.4805 95.6172H37.8522C37.8522 95.9526 37.5809 96.2244 37.2461 96.2244Z" fill="#263238"/>
<path opacity="0.5" d="M37.2461 96.2244H32.0866C31.7518 96.2244 31.4805 95.9526 31.4805 95.6172H37.8522C37.8522 95.9526 37.5809 96.2244 37.2461 96.2244Z" fill="white"/>
<path d="M42.5236 96.0411H37.8486C37.7498 96.0411 37.6806 95.9433 37.7133 95.85L39.7926 89.8989C39.8498 89.7348 40.0043 89.625 40.1777 89.625H44.8527C44.9516 89.625 45.0207 89.7228 44.9881 89.8164L42.9087 95.7675C42.8512 95.9316 42.697 96.0411 42.5236 96.0411Z" fill="#263238"/>
<path opacity="0.5" d="M42.5236 96.0411H37.8486C37.7498 96.0411 37.6806 95.9433 37.7133 95.85L39.7926 89.8989C39.8498 89.7348 40.0043 89.625 40.1777 89.625H44.8527C44.9516 89.625 45.0207 89.7228 44.9881 89.8164L42.9087 95.7675C42.8512 95.9316 42.697 96.0411 42.5236 96.0411Z" fill="white"/>
<path d="M42.7092 96.0411H38.0342C37.9353 96.0411 37.8662 95.9433 37.8988 95.85L39.9782 89.8989C40.0354 89.7348 40.1899 89.625 40.3633 89.625H45.0383C45.1371 89.625 45.2063 89.7228 45.1737 89.8164L43.0943 95.7675C43.0368 95.9316 42.8826 96.0411 42.7092 96.0411Z" fill="#263238"/>
<path opacity="0.7" d="M42.7092 96.0411H38.0342C37.9353 96.0411 37.8662 95.9433 37.8988 95.85L39.9782 89.8989C40.0354 89.7348 40.1899 89.625 40.3633 89.625H45.0383C45.1371 89.625 45.2063 89.7228 45.1737 89.8164L43.0943 95.7675C43.0368 95.9316 42.8826 96.0411 42.7092 96.0411Z" fill="white"/>
<path d="M41.9309 92.8347C41.8824 93.0627 41.7252 93.2475 41.5793 93.2475C41.4335 93.2475 41.3544 93.0627 41.403 92.8347C41.4515 92.6067 41.6087 92.4219 41.7545 92.4219C41.9003 92.4219 41.9794 92.6067 41.9309 92.8347Z" fill="white"/>
<path d="M26.3098 83.9688C26.3098 83.9688 27.4513 89.5976 28.2212 90.5312C28.9908 91.4648 32.3449 93.9758 32.3449 93.9758L34.3381 93.5567L35.7668 94.7514L34.8328 95.4899L33.7269 95.0733C33.7269 95.0733 32.9313 95.2316 31.9008 95.2316C30.8704 95.2316 26.6868 92.766 25.8576 91.3812C25.0285 89.9964 23.8672 84.7898 23.8672 84.7898L26.3098 83.9688Z" fill="#FFC3BD"/>
<path d="M27.9492 80.5612L28.6595 80.1484L30.3984 82.075C30.3984 82.075 29.4426 81.6838 29.1737 81.8419C28.9311 81.9847 29.1006 82.6018 28.8191 82.6069C28.1939 82.6177 27.9492 80.5612 27.9492 80.5612Z" fill="#24774A"/>
<path d="M30.4004 82.075L31.3074 80.2812L32.0489 80.6824C32.0489 80.6824 32.7385 82.4232 32.2115 82.6068C31.8908 82.7184 31.768 81.9042 31.4497 81.7863C31.1945 81.6918 30.4004 82.075 30.4004 82.075Z" fill="#24774A"/>
<g opacity="0.2">
<path d="M27.9492 80.5612L28.6595 80.1484L30.3984 82.075C30.3984 82.075 29.4426 81.6838 29.1737 81.8419C28.9311 81.9847 29.1006 82.6018 28.8191 82.6069C28.1939 82.6177 27.9492 80.5612 27.9492 80.5612Z" fill="white"/>
<path d="M30.4004 82.075L31.3074 80.2812L32.0489 80.6824C32.0489 80.6824 32.7385 82.4232 32.2115 82.6068C31.8908 82.7184 31.768 81.9042 31.4497 81.7863C31.1945 81.6918 30.4004 82.075 30.4004 82.075Z" fill="white"/>
</g>
<path d="M23.9761 86.772C23.9761 86.772 22.6552 82.7658 24.3957 81.411C26.1361 80.0559 26.9524 86.0298 26.9524 86.0298L23.9761 86.772Z" fill="#24774A"/>
<path opacity="0.3" d="M23.9761 86.772C23.9761 86.772 22.6552 82.7658 24.3957 81.411C26.1361 80.0559 26.9524 86.0298 26.9524 86.0298L23.9761 86.772Z" fill="white"/>
<path d="M23.6191 86.4289L23.886 87.1159L27.2191 86.257L27.0859 85.5703L23.6191 86.4289Z" fill="#24774A"/>
<path opacity="0.1" d="M23.6191 86.4289L23.886 87.1159L27.2191 86.257L27.0859 85.5703L23.6191 86.4289Z" fill="white"/>
<path opacity="0.1" d="M28.8779 77.8105C28.8647 77.6956 28.8506 77.5834 28.8359 77.4766L31.3735 79.4836C31.2795 79.7899 31.2088 80.0845 31.186 80.3467C29.6531 80.3602 29.0728 78.6628 28.8779 77.8105Z" fill="black"/>
<path d="M29.3139 74.5503C28.7854 76.3431 28.5224 77.0985 29.0818 78.3063C29.9212 80.1444 32.235 80.4024 33.2864 78.804C34.227 77.3634 34.9496 74.6754 33.4789 73.3524C32.4399 72.4041 30.8303 72.4791 29.8837 73.5201C29.616 73.8141 29.4208 74.1672 29.3139 74.5503Z" fill="#FFC3BD"/>
<path d="M31.3302 76.3454C31.2798 76.4885 31.3125 76.6307 31.4064 76.6655C31.5003 76.7003 31.6179 76.6112 31.6683 76.4681C31.7187 76.325 31.6878 76.1828 31.5939 76.148C31.5 76.1138 31.3824 76.2026 31.3302 76.3454Z" fill="#263238"/>
<path d="M32.9426 76.9311C32.8901 77.0739 32.9246 77.2185 33.017 77.2512C33.1094 77.2839 33.2285 77.1969 33.2807 77.0541C33.3332 76.9113 33.2984 76.7685 33.2063 76.734C33.1145 76.6995 32.9951 76.7883 32.9426 76.9311Z" fill="#263238"/>
<path d="M32.4008 76.9766C32.4907 77.3375 32.629 77.6843 32.8123 78.0077C32.6431 78.0989 32.4421 78.1106 32.2637 78.0398L32.4008 76.9766Z" fill="#ED893E"/>
<path d="M31.2658 75.555C31.2933 75.5823 31.3353 75.5889 31.37 75.5715C31.7434 75.3915 32.2126 75.6468 32.2162 75.6492C32.2594 75.6735 32.3139 75.6579 32.3381 75.6147C32.3624 75.5715 32.3468 75.5169 32.3037 75.4926C32.2794 75.4887 31.7485 75.1893 31.2924 75.408C31.2484 75.4299 31.2298 75.483 31.2508 75.5277C31.2538 75.5379 31.2589 75.5472 31.2658 75.555Z" fill="#263238"/>
<path d="M33.8879 76.628C33.9139 76.6463 33.9478 76.6499 33.9771 76.6376C34.0214 76.6172 34.0415 76.5653 34.0226 76.5203C33.9151 76.2515 33.6837 76.052 33.4022 75.9857C33.3534 75.9773 33.3066 76.01 33.2983 76.0589C33.2896 76.1078 33.3225 76.1546 33.3713 76.163C33.5926 76.2197 33.7732 76.3793 33.8573 76.592C33.8645 76.6064 33.875 76.6187 33.8879 76.628Z" fill="#263238"/>
<path d="M28.9663 75.5949C28.9663 75.5949 29.6373 75.5793 29.5436 74.8113C29.5436 74.8113 30.6543 74.7798 30.7013 73.965C30.7013 73.965 31.6712 74.8269 32.0153 74.1531C32.0153 74.1531 33.2041 75.2187 33.3604 74.5137C33.3604 74.5137 34.5962 76.0494 34.5336 75.1092C34.5336 75.1092 35.9258 74.9682 34.6744 73.7616C34.6744 73.7616 35.8162 72.7587 33.9704 72.3513C33.9704 72.3513 34.1318 71.1621 32.8322 71.6856C32.8322 71.6856 32.5312 70.3929 31.405 71.1453C31.405 71.1453 30.7965 70.2363 30.1311 71.4588C30.1311 71.4588 29.1492 70.8954 28.8366 72.1647C28.8366 72.1647 27.0597 72.3813 27.7924 73.5504C27.7924 73.5504 28.3407 77.4783 28.8366 77.4783C29.1735 77.478 28.9663 75.5949 28.9663 75.5949Z" fill="#263238"/>
<path d="M28.3522 75.7799C28.363 76.1417 28.5169 76.484 28.7798 76.7321C29.129 77.0591 29.5272 76.7981 29.609 76.3523C29.685 75.9512 29.5967 75.2984 29.1577 75.1415C28.837 75.0335 28.4893 75.2063 28.3815 75.5279C28.3543 75.6089 28.3444 75.6947 28.3522 75.7799Z" fill="#FFC3BD"/>
<path d="M31.7231 78.5234C31.7863 78.542 31.8507 78.5549 31.916 78.5624C31.937 78.566 31.9567 78.5519 31.9603 78.5309C31.9603 78.5309 31.9606 78.53 31.9606 78.5294C31.9618 78.5078 31.9462 78.4889 31.9247 78.4862C31.5905 78.4505 31.2931 78.2579 31.1233 77.9675C31.1141 77.948 31.0904 77.9399 31.0709 77.9492C31.0515 77.9585 31.0434 77.9822 31.0527 78.0017C31.1967 78.2594 31.4387 78.4475 31.7231 78.5234Z" fill="#263238"/>
<path d="M18.88 77.6903C18.88 77.6903 12.4924 110.53 33.5765 111.132C52.8072 111.68 48.5077 95.9381 47.2569 94.8416C46.0061 93.7451 50.6964 104.944 42.9573 105.101C33.6271 105.29 31.9349 96.4079 28.808 96.3296C25.6811 96.2513 20.9516 100.402 20.4827 92.8838C20.0134 85.3655 22.4758 72.5996 18.88 77.6903Z" fill="#24774A"/>
<path opacity="0.5" d="M18.88 77.6903C18.88 77.6903 12.4924 110.53 33.5765 111.132C52.8072 111.68 48.5077 95.9381 47.2569 94.8416C46.0061 93.7451 50.6964 104.944 42.9573 105.101C33.6271 105.29 31.9349 96.4079 28.808 96.3296C25.6811 96.2513 20.9516 100.402 20.4827 92.8838C20.0134 85.3655 22.4758 72.5996 18.88 77.6903Z" fill="white"/>
</g>
<defs>
<clipPath id="clip0_808_20490">
<rect width="149.725" height="150" fill="white"/>
</clipPath>
</defs>
</svg>
