<svg width="150" height="100" viewBox="0 0 150 100" fill="none" xmlns="http://www.w3.org/2000/svg">
<path opacity="0.6" d="M11.813 85.4723C11.8202 85.4751 11.8272 85.4781 11.8344 85.4809C13.1368 86.0037 14.5332 86.2519 15.9366 86.2519H131.512C133.156 86.1203 134.615 85.9709 135.875 85.8005C144.983 84.5697 146.892 69.2295 134.808 64.7935C121.843 60.0341 125.946 55.8491 124.518 48.9871C121.474 34.3641 100.868 43.5145 93.2452 43.7099C85.6226 43.9053 86.5868 26.5723 86.0134 19.6693C84.8208 5.3103 68.0576 4.7655 60.8 13.8057C47.908 29.8641 38.8008 21.0699 32.9218 26.0303C28.4018 29.8441 30.0042 34.8309 30.708 36.3963C32.738 40.9115 34.6672 44.2185 33.1816 49.5967C28.7794 65.5347 18.0796 58.2433 9.69563 67.4115C3.36623 74.3329 8.56263 84.1641 11.813 85.4723Z" fill="url(#paint0_linear_808_21614)"/>
<path d="M18.0801 86.1527L33.0847 86.0555L48.0891 85.9997L78.0983 85.9531L108.107 85.9989L123.112 86.0549L138.116 86.1527L123.112 86.2507L108.107 86.3067L78.0983 86.3525L48.0891 86.3059L33.0847 86.2501L18.0801 86.1527Z" fill="#283034"/>
<path d="M38.1421 77.0604C38.1421 77.0604 38.4679 55.2258 30.5721 52.4654C22.0385 49.482 25.2779 66.054 29.1023 72.0562C33.9915 79.7296 38.2003 82.3758 38.1421 77.0604Z" fill="#B3FEDA"/>
<path d="M15.6056 59.1612C15.6056 59.1612 23.4348 61.3398 26.8482 70.7612C30.2616 80.1826 14.9006 69.2364 12.3606 65.3334C9.82076 61.4304 12.2754 58.7362 15.6056 59.1612Z" fill="#B3FEDA"/>
<path d="M29.7955 57.3672C29.7955 57.3672 37.6851 76.7708 37.1503 85.8094C37.1503 85.8094 24.8239 69.0808 14.3281 62.269" stroke="#283034" stroke-width="0.2" stroke-miterlimit="10" stroke-linecap="round" stroke-linejoin="round"/>
<path d="M111.407 73.3746C111.407 73.3746 111.398 51.5374 119.333 48.892C127.909 46.0328 124.43 62.556 120.519 68.5022C115.519 76.1038 111.272 78.6886 111.407 73.3746Z" fill="#0CBA66"/>
<path d="M135.398 52.7769C135.398 52.7769 127.538 54.8417 123.988 64.2125C120.438 73.5833 135.957 62.8611 138.553 58.9955C141.149 55.1297 138.734 52.4003 135.398 52.7769Z" fill="#0CBA66"/>
<path d="M121.237 50.7812C121.237 50.7812 110.772 76.5677 111.175 85.6133C111.175 85.6133 116.121 75.4805 124.612 66.8989C133.103 58.3173 136.632 55.907 136.632 55.907" stroke="#283034" stroke-width="0.2" stroke-miterlimit="10" stroke-linecap="round" stroke-linejoin="round"/>
<path d="M106.547 80.9429H41.4004V43.4347C41.4004 41.9909 42.5708 40.8203 44.0148 40.8203H103.933C105.377 40.8203 106.547 41.9907 106.547 43.4347V80.9429H106.547Z" fill="#273237"/>
<path d="M104.516 83.1617H43.4297V44.1161C43.4297 43.5213 43.9119 43.0391 44.5067 43.0391H103.439C104.034 43.0391 104.516 43.5213 104.516 44.1161V83.1617Z" fill="#318859"/>
<path d="M109.967 86.0993H37.9785C35.9343 86.0993 34.2773 84.4421 34.2773 82.3981V80.9453H113.668V82.3981C113.668 84.4423 112.011 86.0993 109.967 86.0993Z" fill="#273237"/>
<path d="M80.6473 84.2301H67.2977C66.3589 84.2301 65.5977 83.4691 65.5977 82.5301V80.9453H82.3473V82.5301C82.3473 83.4691 81.5861 84.2301 80.6473 84.2301Z" fill="#1A2023"/>
<path d="M77.0409 44.1172H48.6719V57.913H77.0409V44.1172Z" fill="#0E561A"/>
<path d="M77.0409 64.2656H48.6719V80.3022H77.0409V64.2656Z" fill="#0E561A"/>
<path d="M73.5569 62.8315H26.1129C25.6947 62.8315 25.3555 62.4924 25.3555 62.074V39.0387C25.3555 38.6203 25.6947 38.2812 26.1129 38.2812H73.5569C73.9751 38.2812 74.3143 38.6203 74.3143 39.0387V62.074C74.3143 62.4924 73.9751 62.8315 73.5569 62.8315Z" fill="#EBEBEB"/>
<path d="M71.2287 44.75H45.2109V45.954H71.2287V44.75Z" fill="#EBEBEB"/>
<path d="M71.2287 49.3125H45.2109V50.5165H71.2287V49.3125Z" fill="#EBEBEB"/>
<path d="M53.0811 49.9609H29.1211V51.1649H53.0811V49.9609Z" fill="#EBEBEB"/>
<path d="M53.0801 51.8438H27.0625V53.0478H53.0801V51.8438Z" fill="#EBEBEB"/>
<path d="M71.2287 46.7734H45.2109V47.9774H71.2287V46.7734Z" fill="#EBEBEB"/>
<path d="M42.875 42.8281C42.875 42.8281 38.6634 44.1991 37.215 46.1457C35.7666 48.0923 33.8984 62.8311 33.8984 62.8311H64.1092C64.1092 62.8311 63.328 47.2799 61.1362 45.5929C58.9444 43.9059 55.1388 42.8955 55.1388 42.8955L42.875 42.8281Z" fill="#24774A"/>
<path d="M55.1388 42.8991C54.1622 42.4713 53.4542 42.2031 53.4542 42.2031L44.5904 42.2069C44.5904 42.2069 43.8528 42.4371 42.875 42.8317L49.0038 52.2523C49.0038 52.2523 53.344 46.2375 55.1388 42.8991Z" fill="#17633F"/>
<path d="M49.0032 49.7587C49.0032 49.7587 53.1454 43.2853 53.4536 42.1965C52.8 42.0261 50.9774 41.5233 50.9774 41.5233L50.8322 35.5781L47.1334 35.5955L47.1574 40.7143L47.133 41.5349L44.5898 42.2003C44.7828 43.1709 49.0032 49.7587 49.0032 49.7587Z" fill="url(#paint1_linear_808_21614)"/>
<path opacity="0.5" d="M53.0798 42.0973C52.2824 41.8833 50.9772 41.5233 50.9772 41.5233L50.832 35.5781L47.1332 35.5955L47.1572 40.7143L47.1328 41.5349L45.2754 42.0209C46.8624 42.9435 49.5238 43.7297 53.0798 42.0973Z" fill="#F0C2BF"/>
<path d="M55.3569 31.6538C55.3569 31.6538 57.0085 31.4896 57.3743 32.975C57.7483 34.4944 55.2617 34.8438 55.2617 34.8438L55.3569 31.6538Z" fill="url(#paint2_linear_808_21614)"/>
<g opacity="0.5">
<path opacity="0.3" d="M55.1167 32.233C55.1167 32.233 56.5475 32.0044 56.9863 33.376C56.9863 33.376 55.7897 32.6484 55.0293 33.2596L55.1167 32.233Z" fill="#DD8373"/>
</g>
<path d="M42.851 31.7188C42.851 31.7188 41.0802 31.8402 40.9686 33.3658C40.8546 34.9264 43.3646 34.8538 43.3646 34.8538L42.851 31.7188Z" fill="url(#paint3_linear_808_21614)"/>
<path opacity="0.3" d="M43.0715 32.2422C43.0715 32.2422 41.6227 32.2568 41.4199 33.6826C41.4199 33.6826 42.4775 32.7646 43.3297 33.2396L43.0715 32.2422Z" fill="#DD8373"/>
<path d="M54.9082 29.4144C54.4364 28.1882 54.4776 27.1074 53.9422 26.3984C52.7432 24.8104 51.0276 24.5082 51.0276 24.5082C49.7108 24.7182 48.2092 23.7964 46.2358 25.1274C45.1696 25.8464 43.1718 26.16 42.878 30.116C42.412 36.3902 43.7694 40.306 49.2634 40.2816C55.1812 40.2552 56.6822 34.025 54.9082 29.4144Z" fill="#F0C2BF"/>
<path opacity="0.5" d="M53.9412 26.3984C52.7422 24.8104 51.0266 24.5082 51.0266 24.5082C49.7098 24.7182 48.2082 23.7964 46.2348 25.1274C45.9512 25.3186 45.6016 25.4816 45.2358 25.6918C44.8276 26.1864 44.3826 26.6382 43.8052 26.9636C43.3462 27.637 42.9886 28.6134 42.8768 30.1162C42.7954 31.2116 42.7712 32.2334 42.8134 33.1766C45.4688 33.2834 49.6176 30.6604 51.5268 29.2462C52.5718 28.4722 53.4534 28.188 54.0952 28.1046C54.1602 29.107 54.5224 30.648 55.4886 33.0016C55.4886 33.0016 55.5286 32.9682 55.5996 32.886C55.5648 31.7074 55.3304 30.515 54.9068 29.4146C54.4352 28.1882 54.4766 27.1076 53.9412 26.3984Z" fill="#F0C2BF"/>
<path d="M49.6639 36.2236C49.8013 36.2234 49.9545 36.201 50.0567 36.119C50.1341 36.057 50.1749 35.9668 50.1749 35.8586C50.1745 35.535 49.9139 35.4308 49.7413 35.3618C49.6695 35.333 49.5883 35.3004 49.5735 35.2684C49.5241 35.162 49.5199 34.4104 49.5287 33.9618C49.5295 33.9232 49.4987 33.8914 49.4603 33.8906C49.4139 33.8898 49.3899 33.9206 49.3891 33.959C49.3851 34.1582 49.3693 35.16 49.4467 35.327C49.4849 35.4094 49.5797 35.4474 49.6897 35.4912C49.8595 35.5592 50.0351 35.6294 50.0355 35.8584C50.0355 35.9246 50.0141 35.9742 49.9697 36.0096C49.8297 36.122 49.5007 36.0804 49.3859 36.0544C49.3477 36.0462 49.3109 36.0698 49.3025 36.1074C49.2941 36.145 49.3177 36.1824 49.3555 36.1908C49.3657 36.1936 49.5039 36.2238 49.6639 36.2236Z" fill="#283034"/>
<path d="M53.8837 32.7662C53.9789 32.5472 52.4565 31.2386 51.4283 31.7776C50.5195 32.2542 52.2693 32.6544 53.1537 32.821C54.0383 32.9876 53.8837 32.7662 53.8837 32.7662Z" fill="#283034"/>
<path d="M44.4171 32.7057C44.2785 32.5113 45.4953 30.9147 46.6131 31.2281C47.6011 31.5051 45.9729 32.2607 45.1425 32.6075C44.3119 32.9543 44.4171 32.7057 44.4171 32.7057Z" fill="#283034"/>
<path d="M55.4896 32.1751C55.4896 32.1751 56.2119 31.5767 57.0167 29.1005C57.8215 26.6243 55.1595 25.4483 54.7263 25.5101C54.2929 25.5721 53.202 26.6027 55.4896 32.1751Z" fill="#283034"/>
<path d="M55.2423 27.3443C55.2423 27.3443 53.7567 26.7665 51.5281 28.4173C49.2995 30.0681 44.0171 33.3695 41.6235 32.0489C39.2299 30.7283 38.4871 27.0967 42.3663 26.6013C46.2455 26.1061 45.5027 21.3189 50.8677 21.6491C55.1087 21.9103 54.6645 26.9317 55.2423 27.3443Z" fill="#283034"/>
<path d="M51.0508 37.4285L47.125 37.4062C47.125 37.4062 47.6098 38.8521 49.2398 38.8767C50.7916 38.9001 51.0508 37.4285 51.0508 37.4285Z" fill="#F6FCF7"/>
<path d="M46.1554 34.686C46.4721 34.686 46.7288 34.3313 46.7288 33.8938C46.7288 33.4562 46.4721 33.1016 46.1554 33.1016C45.8388 33.1016 45.582 33.4562 45.582 33.8938C45.582 34.3313 45.8388 34.686 46.1554 34.686Z" fill="#283034"/>
<path d="M52.8206 33.8938C52.8206 34.3314 52.5638 34.686 52.2472 34.686C51.9304 34.686 51.6738 34.3314 51.6738 33.8938C51.6738 33.4562 51.9306 33.1016 52.2472 33.1016C52.5638 33.1016 52.8206 33.4564 52.8206 33.8938Z" fill="#283034"/>
<path d="M62.8656 22.9802L50.2343 26.1186C49.7317 26.3162 49.1439 26.337 48.5899 26.1766L35.2458 21.1386C34.819 21.015 34.7791 20.5096 35.1873 20.3966L48.5219 17.1126C48.9187 17.0026 49.3535 16.9942 49.7753 17.0884L62.7281 22.245C63.1533 22.34 63.2454 22.831 62.8656 22.9802Z" fill="#067224"/>
<path d="M35.2458 21.1386L35.2825 21.1524L48.5219 17.892C48.9187 17.7822 49.3535 17.7738 49.7753 17.8678L62.7125 23.0182L62.8656 22.9802C63.2451 22.831 63.1533 22.34 62.7279 22.245L49.7753 17.0884C49.3535 16.9942 48.9187 17.0026 48.5219 17.1126L35.1873 20.3966C34.7791 20.5096 34.819 21.0152 35.2458 21.1386Z" fill="#24774A"/>
<path d="M49.7271 17.0791C49.3203 16.9961 48.9039 17.0053 48.5219 17.1111L35.1874 20.3951C34.7792 20.5081 34.8189 21.0137 35.2457 21.1371L35.2826 21.1509L48.5219 17.8905C48.9037 17.7847 49.3203 17.7755 49.7271 17.8585V17.0791Z" fill="#24774A"/>
<path d="M42.7348 21.5936L42.584 26.6036C42.584 26.6036 45.5704 27.6428 50.1722 27.6428C54.774 27.6428 55.5478 26.7396 55.5478 26.7396V23.6162V22.2246C49.5118 18.3278 42.7348 21.5936 42.7348 21.5936Z" fill="#24774A"/>
<path d="M37.984 19.7109L37.5176 27.1207" stroke="#E0AC19" stroke-width="0.2" stroke-miterlimit="10"/>
<path d="M37.5411 26.6903C37.5411 26.6903 37.2593 26.6205 37.1477 26.7523C37.0361 26.8841 37.0665 27.1537 37.1841 27.1963C37.3017 27.2389 37.7215 27.3855 37.8653 27.2679C38.0093 27.1503 37.9469 26.9409 37.9363 26.8901C37.9087 26.7571 37.5411 26.6903 37.5411 26.6903Z" fill="#E0AC19"/>
<path d="M37.2305 26.9611C37.2305 26.9611 36.5547 30.4693 36.6519 30.5991C36.7491 30.7289 36.7493 30.7289 36.7493 30.7289C36.7493 30.7289 36.5871 31.7533 36.5547 32.0115C36.5223 32.2697 36.7007 32.4483 36.8143 31.7507C36.9279 31.0533 36.5061 33.6523 36.6035 33.6585C36.7009 33.6647 36.7563 33.7905 36.8909 33.4517C37.0253 33.1131 37.3011 30.7125 37.3011 30.7125C37.3011 30.7125 37.3173 31.0693 37.4309 31.0693C37.5445 31.0693 37.7521 26.9609 37.7521 26.9609H37.2305V26.9611Z" fill="#E0AC19"/>
<path opacity="0.5" d="M41.7406 62.8347C41.7406 62.8347 41.267 59.4763 41.3184 59.3275C41.4914 58.8269 41.859 60.2111 41.859 60.2111C41.859 60.2111 41.5346 55.8639 41.7292 55.8207C41.9238 55.7775 42.1834 59.5189 42.378 59.1081C42.5726 58.6971 42.7024 56.9345 43.0052 57.1941C43.308 57.4537 42.0104 62.8347 42.0104 62.8347H41.7406Z" fill="#127646"/>
<path opacity="0.5" d="M55.6789 62.8316C55.6789 62.8316 55.4697 61.5274 55.6789 61.5058C55.8881 61.4842 55.9847 62.0464 56.0813 62.0032C56.1779 61.96 55.6949 58.478 55.9365 58.3482C56.1779 58.2184 56.2907 60.9434 56.5481 60.9434C56.8057 60.9434 56.8861 59.7696 57.0793 59.8374C57.2725 59.9054 56.8539 62.8316 56.8539 62.8316H55.6789Z" fill="#127646"/>
<path d="M71.9978 40.1558C72.3105 40.1558 72.564 39.9023 72.564 39.5896C72.564 39.2769 72.3105 39.0234 71.9978 39.0234C71.6851 39.0234 71.4316 39.2769 71.4316 39.5896C71.4316 39.9023 71.6851 40.1558 71.9978 40.1558Z" fill="#EBEBEB"/>
<path d="M69.7713 40.1558C70.084 40.1558 70.3375 39.9023 70.3375 39.5896C70.3375 39.2769 70.084 39.0234 69.7713 39.0234C69.4586 39.0234 69.2051 39.2769 69.2051 39.5896C69.2051 39.9023 69.4586 40.1558 69.7713 40.1558Z" fill="#EBEBEB"/>
<path d="M68.109 39.5896C68.109 39.9024 67.8554 40.1558 67.5428 40.1558C67.23 40.1558 66.9766 39.9022 66.9766 39.5896C66.9766 39.277 67.2302 39.0234 67.5428 39.0234C67.8556 39.0234 68.109 39.2768 68.109 39.5896Z" fill="#EBEBEB"/>
<path d="M67.8082 75.5412H34.7034C33.4942 75.5412 32.514 74.561 32.514 73.3518V69.046L29.668 66.375H67.8082C69.0174 66.375 69.9976 67.3552 69.9976 68.5644V73.3518C69.9978 74.561 69.0174 75.5412 67.8082 75.5412Z" fill="#24774A"/>
<path d="M67.4855 69.0078H36.7891V69.6346H67.4855V69.0078Z" fill="white"/>
<path d="M65.2392 70.6484H35.543V71.2752H65.2392V70.6484Z" fill="white"/>
<path d="M67.65 72.2812H39.3906V72.908H67.65V72.2812Z" fill="white"/>
<path d="M79.4565 19.0859C76.5831 19.0859 74.2539 21.4151 74.2539 24.2885C74.2539 27.6431 77.4815 30.5495 78.8519 31.6323L78.7453 32.0847H79.4567C79.4567 32.0847 84.6593 28.2027 84.6593 24.2885C84.6591 21.4153 82.3299 19.0859 79.4565 19.0859ZM79.4565 27.2309C77.9371 27.2309 76.7055 25.9993 76.7055 24.4799C76.7055 22.9605 77.9371 21.7289 79.4565 21.7289C80.9759 21.7289 82.2075 22.9607 82.2075 24.4799C82.2075 25.9991 80.9759 27.2309 79.4565 27.2309Z" fill="#1D4338"/>
<path d="M78.7456 19.0859C75.8722 19.0859 73.543 21.4151 73.543 24.2885C73.543 28.5467 78.7456 32.0847 78.7456 32.0847C78.7456 32.0847 83.9482 28.2027 83.9482 24.2885C83.9482 21.4153 81.619 19.0859 78.7456 19.0859ZM78.7456 27.2309C77.2262 27.2309 75.9946 25.9993 75.9946 24.4799C75.9946 22.9605 77.2262 21.7289 78.7456 21.7289C80.265 21.7289 81.4966 22.9607 81.4966 24.4799C81.4966 25.9991 80.265 27.2309 78.7456 27.2309Z" fill="#067224"/>
<path d="M92.3184 79.2523H109.38C110.599 79.2523 111.588 78.2635 111.588 77.0439V75.3359" stroke="#283034" stroke-width="0.2" stroke-miterlimit="10"/>
<path d="M74.3125 46.1641H88.9405C89.8515 46.1641 90.5899 46.9025 90.5899 47.8135V53.9159" stroke="#283034" stroke-width="0.2" stroke-miterlimit="10"/>
<path d="M132.022 73.5035H84.5777C84.1595 73.5035 83.8203 73.1645 83.8203 72.7461V49.7105C83.8203 49.2923 84.1595 48.9531 84.5777 48.9531H132.022C132.44 48.9531 132.779 49.2923 132.779 49.7105V72.7461C132.779 73.1645 132.44 73.5035 132.022 73.5035Z" fill="#EBEBEB"/>
<path d="M91.5211 51.0193C91.5211 51.3321 91.2675 51.5855 90.9549 51.5855C90.6423 51.5855 90.3887 51.3319 90.3887 51.0193C90.3887 50.7065 90.6423 50.4531 90.9549 50.4531C91.2675 50.4531 91.5211 50.7065 91.5211 51.0193Z" fill="#EBEBEB"/>
<path d="M89.2926 51.0193C89.2926 51.3321 89.039 51.5855 88.7264 51.5855C88.4136 51.5855 88.1602 51.3319 88.1602 51.0193C88.1602 50.7065 88.4138 50.4531 88.7264 50.4531C89.039 50.4529 89.2926 50.7065 89.2926 51.0193Z" fill="#EBEBEB"/>
<path d="M87.066 51.0193C87.066 51.3321 86.8124 51.5855 86.4998 51.5855C86.187 51.5855 85.9336 51.3319 85.9336 51.0193C85.9336 50.7065 86.1872 50.4531 86.4998 50.4531C86.8124 50.4529 87.066 50.7065 87.066 51.0193Z" fill="#EBEBEB"/>
<path d="M95.7597 56.0781H85.4219V62.8475H95.7597V56.0781Z" fill="#EBEBEB"/>
<path d="M95.7597 64.1797H85.4219V66.6747H95.7597V64.1797Z" fill="#EBEBEB"/>
<path d="M128.279 50.7891H117.941V53.2841H128.279V50.7891Z" fill="#EBEBEB"/>
<path d="M129.486 56.6421C129.486 56.6421 131.368 50.0879 130.992 47.9671C130.615 45.8463 130.698 44.3287 130.384 44.2851C129.995 44.2311 130.18 46.1023 129.917 46.1127C129.834 46.1159 129.839 43.7823 129.324 43.7661C128.819 43.7503 129.217 46.1047 129.054 46.1735C128.891 46.2423 128.693 43.6705 128.059 43.4417C127.67 43.3011 127.887 44.4231 127.999 45.3747C128.106 46.2711 128.199 46.7919 128.089 46.8223C128.019 46.8415 127.669 44.3371 127.161 44.5767C126.849 44.7241 127.663 47.9351 127.409 49.5657C127.357 49.8969 126.116 52.7813 125.375 53.8337L129.486 56.6421Z" fill="#B78776"/>
<path d="M128.207 49.1085C128.207 49.1085 126.886 47.0897 126.184 47.0859C125.482 47.0821 127.269 49.2611 127.102 50.3285C126.935 51.3959 128.207 49.1085 128.207 49.1085Z" fill="#B78776"/>
<path d="M124.859 54.0804L125.515 52.5C125.515 52.5 131.403 57.4976 131.7 58.0166L130.439 60.179L124.859 54.0804Z" fill="#17633F"/>
<path d="M90.8295 73.595H123.917C128.208 68.7504 131.977 59.6836 131.789 59.4742C131.529 59.1852 124.917 53.3438 124.917 53.3438C123.965 55.4177 121.377 61.3974 120.586 61.527C119.795 61.6568 117.202 57.071 116.693 56.5528C115.525 55.3634 111.587 54.7146 111.587 54.7146L109.006 54.7794L109.151 55.5278L98.6231 54.7146H97.6007C97.6007 54.7146 94.5749 56.2558 94.1215 56.7258C91.9517 58.975 90.6743 66.5878 90.7839 68.664C90.8307 69.5574 90.8373 71.5802 90.8295 73.595Z" fill="#24774A"/>
<path d="M113.776 55.1371C112.628 54.8525 111.589 54.7109 111.589 54.7109L109.008 54.7757L109.153 55.5241L98.625 54.7109H97.6026C97.6026 54.7109 96.5939 55.1993 95.6562 55.7143C97.2524 57.2831 101.582 61.2903 105.088 62.2587C105.088 62.2587 111.22 58.0297 113.776 55.1371Z" fill="#17633F"/>
<path d="M106.465 37.9305C106.465 37.9305 100.017 40.366 100.017 42.5714C100.017 44.7766 102.2 53.0172 102.2 53.0172C102.2 53.0172 98.149 51.8761 97.9014 51.7493C97.6538 51.6225 98.9848 49.1723 98.2242 46.8477C97.4636 44.5229 95.6464 42.4351 98.5686 39.6935C101.288 37.1423 105.021 34.3807 106.465 37.9305Z" fill="#283034"/>
<path d="M101.891 52.7861C102.9 51.7763 103.07 47.5469 103.07 47.5469H106.12C106.12 47.5469 106.29 51.7765 107.3 52.7861C108.309 53.7957 111.589 54.7161 111.589 54.7161L104.309 60.2739C102.423 59.7767 97.6016 54.7161 97.6016 54.7161C97.6016 54.7161 100.881 53.7959 101.891 52.7861Z" fill="url(#paint4_linear_808_21614)"/>
<path d="M100.242 44.2769C100.242 44.2769 98.3613 42.1817 97.1257 42.8263C95.8901 43.4711 97.3407 46.4797 99.7583 46.4797C102.176 46.4797 100.242 44.2769 100.242 44.2769Z" fill="url(#paint5_linear_808_21614)"/>
<path d="M108.945 44.2769C108.945 44.2769 110.826 42.1817 112.062 42.8263C113.297 43.4711 111.847 46.4797 109.429 46.4797C107.011 46.4795 108.945 44.2769 108.945 44.2769Z" fill="url(#paint6_linear_808_21614)"/>
<path d="M98.7911 45.134V42.2008C98.7911 38.9962 101.389 36.3984 104.594 36.3984C107.798 36.3984 110.396 38.9962 110.396 42.2008V45.134C110.396 45.134 110.503 51.4948 104.594 52.032C98.6837 51.4946 98.7911 45.134 98.7911 45.134Z" fill="#B78776"/>
<path opacity="0.3" d="M110.394 45.1388V42.2056C110.394 41.058 110.06 39.9892 109.485 39.0888C106.479 37.852 102.758 36.2774 103.829 38.6578C105.045 41.3624 107.769 41.1398 107.585 43.445C107.169 48.6642 108.14 49.5096 107.937 50.7738C110.454 48.7662 110.394 45.1388 110.394 45.1388Z" fill="#B78776"/>
<path d="M104.115 47.3161C103.988 47.3159 103.845 47.2951 103.75 47.2189C103.679 47.1613 103.641 47.0775 103.641 46.9769C103.641 46.6763 103.883 46.5793 104.044 46.5153C104.11 46.4885 104.186 46.4583 104.2 46.4287C104.245 46.3297 104.249 45.6315 104.241 45.2147C104.24 45.1789 104.269 45.1493 104.305 45.1485C104.348 45.1477 104.37 45.1763 104.371 45.2121C104.375 45.3973 104.389 46.3281 104.317 46.4833C104.282 46.5599 104.194 46.5951 104.092 46.6359C103.934 46.6991 103.771 46.7643 103.771 46.9771C103.771 47.0385 103.79 47.0847 103.832 47.1175C103.962 47.2221 104.267 47.1833 104.374 47.1593C104.409 47.1517 104.444 47.1737 104.451 47.2085C104.459 47.2435 104.437 47.2781 104.402 47.2861C104.392 47.2881 104.264 47.3161 104.115 47.3161Z" fill="#283034"/>
<path d="M100.193 43.4761C100.105 43.2727 101.519 42.0567 102.475 42.5575C103.319 43.0003 101.693 43.3723 100.871 43.5269C100.05 43.6817 100.193 43.4761 100.193 43.4761Z" fill="#283034"/>
<path d="M108.991 43.4186C109.12 43.238 107.989 41.7544 106.951 42.0456C106.033 42.303 107.546 43.005 108.317 43.3274C109.089 43.6498 108.991 43.4186 108.991 43.4186Z" fill="#283034"/>
<path d="M102.828 48.4268L106.476 48.4062C106.476 48.4062 106.025 49.7498 104.511 49.7724C103.069 49.7942 102.828 48.4268 102.828 48.4268Z" fill="#F6FCF7"/>
<path d="M106.881 44.691C106.881 45.0856 107.112 45.4054 107.398 45.4054C107.684 45.4054 107.915 45.0856 107.915 44.691C107.915 44.2964 107.684 43.9766 107.398 43.9766C107.112 43.9766 106.881 44.2964 106.881 44.691Z" fill="#283034"/>
<path d="M101.387 44.691C101.387 45.0856 101.618 45.4054 101.904 45.4054C102.19 45.4054 102.421 45.0856 102.421 44.691C102.421 44.2964 102.19 43.9766 101.904 43.9766C101.618 43.9766 101.387 44.2964 101.387 44.691Z" fill="#283034"/>
<path d="M107.833 52.3394L112.971 51.8994C112.971 51.8994 114.536 49.1786 113.353 47.3192C112.17 45.4598 112.399 46.1786 112.348 43.686C112.297 41.1934 112.512 40.0668 111.234 39.5646C108.156 38.3544 103.186 35.9532 104.403 38.6578C105.619 41.3624 108.343 41.1398 108.159 43.445C107.606 50.3906 109.508 49.5902 107.833 52.3394Z" fill="#283034"/>
<path d="M118.631 36.9382L106.112 39.1666C105.609 39.3262 105.034 39.3078 104.505 39.115L91.8287 33.3266C91.4207 33.1782 91.4151 32.6828 91.8205 32.5994L105.035 30.2752C105.429 30.1942 105.853 30.2146 106.258 30.334L118.545 36.2122C118.953 36.333 119.011 36.8176 118.631 36.9382Z" fill="#067224"/>
<path d="M91.8285 33.3266L91.8633 33.3426L104.983 31.035C105.377 30.954 105.802 30.9744 106.207 31.0938L118.479 36.965L118.63 36.938C119.01 36.8174 118.953 36.3328 118.545 36.2122L106.258 30.3342C105.853 30.2146 105.429 30.1942 105.035 30.2754L91.8203 32.5996C91.4151 32.6828 91.4207 33.1782 91.8285 33.3266Z" fill="#24774A"/>
<path d="M106.211 30.3224C105.82 30.2148 105.414 30.1964 105.035 30.2744L91.8204 32.5986C91.4152 32.682 91.4206 33.1774 91.8286 33.3258L91.8634 33.3418L104.983 31.0342C105.362 30.9562 105.769 30.9746 106.16 31.0824L106.211 30.3224Z" fill="#24774A"/>
<path d="M99.0975 34.2603L98.6211 39.1341C98.6211 39.1341 101.464 40.3435 105.95 40.6461C110.435 40.9487 111.249 40.1193 111.249 40.1193L111.454 37.0747L111.546 35.7181C105.918 31.5227 99.0975 34.2603 99.0975 34.2603Z" fill="#24774A"/>
<path d="M94.5902 32.1094L93.6484 39.3018" stroke="#E0AC19" stroke-width="0.2" stroke-miterlimit="10"/>
<path d="M93.701 38.8893C93.701 38.8893 93.4308 38.8029 93.3134 38.9239C93.196 39.0451 93.208 39.3099 93.3198 39.3591C93.4316 39.4083 93.831 39.5789 93.9792 39.4737C94.1272 39.3685 94.0802 39.1603 94.0732 39.1101C94.055 38.9785 93.701 38.8893 93.701 38.8893Z" fill="#E0AC19"/>
<path d="M93.3784 39.1328C93.3784 39.1328 92.489 42.508 92.5752 42.641C92.6616 42.7738 92.6616 42.7738 92.6616 42.7738C92.6616 42.7738 92.4362 43.7618 92.3876 44.0114C92.339 44.261 92.5012 44.4466 92.6578 43.7742C92.8144 43.1018 92.2324 45.6076 92.3268 45.62C92.4212 45.6324 92.4672 45.7586 92.6204 45.4374C92.7738 45.1162 93.2004 42.7942 93.2004 42.7942C93.2004 42.7942 93.1928 43.1432 93.3034 43.1506C93.414 43.158 93.8868 39.167 93.8868 39.167L93.3784 39.1328Z" fill="#E0AC19"/>
<path d="M97.76 73.5974C97.76 73.5974 97.2028 70.1478 97.3186 70.1478C97.4344 70.1478 97.76 70.721 97.76 70.721C97.76 70.721 97.2702 68.461 97.5314 68.3096C97.7926 68.1582 98.0664 71.5646 98.1402 71.6726C98.214 71.7808 98.4982 70.7318 98.7722 70.721C99.046 70.7102 98.2034 73.5974 98.2034 73.5974H97.76Z" fill="#24774A"/>
<path d="M113.968 70.9517L114.617 73.5981C114.617 73.5981 115.634 73.133 115.861 72.8734C116.088 72.6138 115.601 72.6248 115.309 72.7544C115.017 72.8842 115.861 70.743 115.418 70.8728C114.974 71.0026 114.78 72.7761 114.78 72.7113C114.78 72.6465 114.466 69.5645 114.261 69.5861C114.055 69.6079 113.763 70.1141 113.968 70.9517Z" fill="#24774A"/>
<path d="M116.492 44.8131C116.844 44.4615 117.41 45.0271 117.761 44.6755C118.113 44.3235 117.548 43.7577 117.9 43.4057C118.252 43.0535 118.817 43.6193 119.17 43.2671C119.522 42.9149 118.956 42.3491 119.308 41.9969C119.661 41.6441 120.227 42.2099 120.58 41.8571C120.932 41.5043 120.367 40.9387 120.719 40.5859" stroke="#283034" stroke-width="0.4" stroke-miterlimit="10" stroke-linecap="round"/>
<path d="M64.9434 33.4342C65.2274 33.0252 65.8846 33.4814 66.1684 33.0724C66.4522 32.6634 65.7952 32.2072 66.079 31.7984C66.363 31.3894 67.02 31.8456 67.304 31.4366C67.588 31.0276 66.9308 30.5714 67.2148 30.1622C67.4992 29.7524 68.1564 30.2086 68.4408 29.799C68.7252 29.3892 68.068 28.933 68.3526 28.5234" stroke="#067224" stroke-width="0.4" stroke-miterlimit="10"/>
<path d="M116.613 81.1639C117.034 80.8977 117.462 81.574 117.882 81.3078C118.303 81.0418 117.876 80.3655 118.296 80.0995C118.717 79.8333 119.145 80.5095 119.565 80.2435C119.987 79.9771 119.559 79.3011 119.98 79.0347C120.401 78.7683 120.829 79.4443 121.25 79.1779C121.672 78.9113 121.244 78.2353 121.666 77.9688" stroke="#067224" stroke-width="0.4" stroke-miterlimit="10"/>
<path d="M18.3066 56.0703C18.7374 56.3199 18.3366 57.0121 18.7674 57.2617C19.1982 57.5111 19.599 56.8189 20.0298 57.0683C20.4606 57.3179 20.0596 58.0101 20.4904 58.2595C20.9216 58.5093 21.3226 57.8169 21.7538 58.0667C22.1852 58.3167 21.7844 59.0089 22.2158 59.2587C22.6472 59.5085 23.0482 58.8163 23.4798 59.0661" stroke="#283034" stroke-width="0.4" stroke-miterlimit="10" stroke-linecap="round"/>
<path d="M98.3951 83.959H73.4703C72.8265 83.959 72.3047 83.4372 72.3047 82.7934V77.0172C72.3047 76.3734 72.8265 75.8516 73.4703 75.8516H98.3951C99.0389 75.8516 99.5607 76.3734 99.5607 77.0172V82.7934C99.5607 83.4372 99.0387 83.959 98.3951 83.959Z" fill="#24774A"/>
<path d="M81.471 82.0156V76.7715H82.106V81.4523H84.5437V82.0156H81.471ZM85.445 82.0156V78.0825H86.0494V82.0156H85.445ZM85.7523 77.427C85.6345 77.427 85.533 77.3869 85.4476 77.3066C85.364 77.2264 85.3221 77.13 85.3221 77.0173C85.3221 76.9046 85.364 76.8082 85.4476 76.7279C85.533 76.6477 85.6345 76.6076 85.7523 76.6076C85.8701 76.6076 85.9708 76.6477 86.0545 76.7279C86.1398 76.8082 86.1825 76.9046 86.1825 77.0173C86.1825 77.13 86.1398 77.2264 86.0545 77.3066C85.9708 77.3869 85.8701 77.427 85.7523 77.427ZM90.3723 78.0825L88.9179 82.0156H88.3033L86.8489 78.0825H87.5044L88.5901 81.2167H88.6311L89.7168 78.0825H90.3723ZM92.6782 82.0976C92.2992 82.0976 91.9723 82.0139 91.6974 81.8466C91.4243 81.6776 91.2135 81.442 91.065 81.1399C90.9182 80.836 90.8448 80.4827 90.8448 80.0798C90.8448 79.6769 90.9182 79.3219 91.065 79.0146C91.2135 78.7056 91.42 78.4649 91.6846 78.2925C91.9509 78.1184 92.2616 78.0313 92.6167 78.0313C92.8216 78.0313 93.0238 78.0654 93.2236 78.1337C93.4233 78.202 93.6051 78.313 93.769 78.4666C93.9329 78.6185 94.0635 78.82 94.1608 79.0709C94.2581 79.3219 94.3067 79.6308 94.3067 79.9979V80.2539H91.2749V79.7316H93.6922C93.6922 79.5096 93.6478 79.3116 93.559 79.1375C93.4719 78.9634 93.3473 78.8259 93.1852 78.7252C93.0247 78.6245 92.8352 78.5742 92.6167 78.5742C92.376 78.5742 92.1677 78.6339 91.9919 78.7534C91.8178 78.8712 91.6838 79.0248 91.5899 79.2143C91.496 79.4038 91.4491 79.6069 91.4491 79.8237V80.172C91.4491 80.469 91.5003 80.7208 91.6027 80.9274C91.7068 81.1322 91.8511 81.2884 92.0354 81.396C92.2198 81.5018 92.434 81.5547 92.6782 81.5547C92.8369 81.5547 92.9803 81.5325 93.1083 81.4881C93.2381 81.442 93.3499 81.3738 93.4438 81.2833C93.5377 81.1911 93.6102 81.0767 93.6614 80.9402L94.2453 81.104C94.1838 81.3021 94.0805 81.4762 93.9354 81.6264C93.7903 81.7749 93.6111 81.891 93.3977 81.9747C93.1843 82.0566 92.9445 82.0976 92.6782 82.0976Z" fill="white"/>
<path d="M76.3151 81.5678C77.2335 81.5678 77.9779 80.8233 77.9779 79.905C77.9779 78.9867 77.2335 78.2422 76.3151 78.2422C75.3968 78.2422 74.6523 78.9867 74.6523 79.905C74.6523 80.8233 75.3968 81.5678 76.3151 81.5678Z" fill="white"/>
<path d="M88.7266 38.8438C89.4407 38.8438 90.0196 38.2649 90.0196 37.5508C90.0196 36.8367 89.4407 36.2578 88.7266 36.2578C88.0125 36.2578 87.4336 36.8367 87.4336 37.5508C87.4336 38.2649 88.0125 38.8438 88.7266 38.8438Z" stroke="#283034" stroke-width="0.4" stroke-miterlimit="10" stroke-linecap="round"/>
<path d="M29.8216 84.3424C29.8216 84.73 29.5074 85.0442 29.1198 85.0442C28.7322 85.0442 28.418 84.73 28.418 84.3424C28.418 83.9548 28.7322 83.6406 29.1198 83.6406C29.5074 83.6406 29.8216 83.9548 29.8216 84.3424Z" stroke="#283034" stroke-width="0.4" stroke-miterlimit="10" stroke-linecap="round"/>
<path d="M138.41 68.3008C138.41 68.933 137.898 69.4455 137.266 69.4455C136.633 69.4455 136.121 68.933 136.121 68.3008C136.121 67.6688 136.633 67.1562 137.266 67.1562C137.898 67.1565 138.41 67.6688 138.41 68.3008Z" stroke="#283034" stroke-width="0.4" stroke-miterlimit="10" stroke-linecap="round"/>
<defs>
<linearGradient id="paint0_linear_808_21614" x1="111.991" y1="38.703" x2="78.7029" y2="59.9594" gradientUnits="userSpaceOnUse">
<stop offset="0.00031135" stop-color="white" stop-opacity="0"/>
<stop offset="0.4769" stop-color="#F9F9F9" stop-opacity="0.94"/>
<stop offset="0.5364" stop-color="#F8F8F8" stop-opacity="0.9468"/>
<stop offset="1" stop-color="#F5F5F5"/>
</linearGradient>
<linearGradient id="paint1_linear_808_21614" x1="52.0141" y1="36.0994" x2="48.8565" y2="41.4629" gradientUnits="userSpaceOnUse">
<stop stop-color="#E2948F"/>
<stop offset="1" stop-color="#F0C2BF"/>
</linearGradient>
<linearGradient id="paint2_linear_808_21614" x1="55.0668" y1="32.9991" x2="56.3195" y2="33.5443" gradientUnits="userSpaceOnUse">
<stop stop-color="#E2948F"/>
<stop offset="1" stop-color="#F0C2BF"/>
</linearGradient>
<linearGradient id="paint3_linear_808_21614" x1="43.3125" y1="33.2163" x2="42.0966" y2="33.5332" gradientUnits="userSpaceOnUse">
<stop stop-color="#E2948F"/>
<stop offset="1" stop-color="#F0C2BF"/>
</linearGradient>
<linearGradient id="paint4_linear_808_21614" x1="103.949" y1="50.5662" x2="104.532" y2="54.3142" gradientUnits="userSpaceOnUse">
<stop stop-color="#8C5D4A"/>
<stop offset="1" stop-color="#B78776"/>
</linearGradient>
<linearGradient id="paint5_linear_808_21614" x1="100.53" y1="44.6174" x2="96.0721" y2="44.554" gradientUnits="userSpaceOnUse">
<stop stop-color="#8C5D4A"/>
<stop offset="0.6806" stop-color="#B78776"/>
</linearGradient>
<linearGradient id="paint6_linear_808_21614" x1="112.547" y1="44.6098" x2="109.878" y2="44.586" gradientUnits="userSpaceOnUse">
<stop offset="0.3194" stop-color="#B78776"/>
<stop offset="1" stop-color="#8C5D4A"/>
</linearGradient>
</defs>
</svg>
