<svg width="150" height="100" viewBox="0 0 150 100" fill="none" xmlns="http://www.w3.org/2000/svg">
<path opacity="0.3" d="M38.0041 81.585H53.6237C62.1385 80.0774 68.4715 78.1334 74.0137 81.4586C74.0839 81.5008 74.1583 81.5428 74.2347 81.585H109.684C116.727 78.8218 122.642 73.8884 124.978 65.6638C132.368 39.6498 119.093 27.8212 101.293 32.5142C89.5671 35.6056 86.0923 15.7356 67.7295 10.9518C67.7295 10.9518 57.1055 7.52619 49.8117 16.5344C43.2697 24.6142 53.2165 38.8318 41.8737 42.6238C34.7771 44.9962 22.5323 46.8598 22.9519 60.312C23.2715 70.546 29.5827 78.7414 38.0041 81.585Z" fill="#EAEAE8"/>
<path d="M117.392 48.3358L103.629 40.9008C102.343 40.2062 101.864 38.601 102.559 37.3154L109.994 23.5528C110.688 22.2672 112.294 21.788 113.579 22.4826L127.342 29.9176C128.627 30.6122 129.107 32.2174 128.412 33.503L120.977 47.2656C120.283 48.551 118.677 49.0302 117.392 48.3358Z" fill="#EAEAE8"/>
<path d="M122.247 38.6443C121.195 33.2865 116.22 29.5669 110.77 30.1067L111.022 31.9105C115.481 31.5073 119.533 34.5291 120.443 38.8965L122.247 38.6443Z" fill="#24774A"/>
<path d="M118.845 39.1009C118.364 37.5013 117.404 36.0951 116.045 35.0697C114.644 34.0119 112.969 33.4679 111.242 33.4767L111.495 35.2873C112.74 35.3311 113.94 35.7491 114.954 36.5149C115.926 37.2479 116.632 38.2333 117.027 39.3551L118.845 39.1009Z" fill="#24774A"/>
<path d="M115.148 39.6171C114.491 38.2637 113.224 37.3077 111.742 37.0469L111.903 38.2005L112.166 40.0339L115.148 39.6171Z" fill="#24774A"/>
<path d="M48.3412 63.914L33.8724 69.859C32.5208 70.4144 30.975 69.7688 30.4196 68.4174L24.4746 53.9486C23.9192 52.597 24.5648 51.0512 25.9164 50.4958L40.3852 44.5508C41.7368 43.9954 43.2826 44.641 43.838 45.9926L49.783 60.4614C50.3384 61.8128 49.6928 63.3586 48.3412 63.914Z" fill="#EAEAE8"/>
<path d="M44.6405 58.5115C43.3995 61.4837 35.6961 64.6489 32.7239 63.4079C30.5359 62.4943 28.7059 58.0407 29.6195 55.8527C30.8605 52.8805 38.5639 49.7153 41.5361 50.9563C43.7243 51.8697 45.5541 56.3235 44.6405 58.5115Z" fill="#24774A"/>
<path d="M34.5703 55.2266L36.6771 60.354L40.1777 55.919L34.5703 55.2266Z" fill="white"/>
<path d="M108.008 76.9916H45.916V41.3644C45.916 39.9206 47.0864 38.75 48.5304 38.75H105.394C106.838 38.75 108.008 39.9204 108.008 41.3644L108.008 76.9916Z" fill="#455862"/>
<path d="M106.07 79.1086H47.8477V41.9442C47.8477 41.3494 48.3299 40.8672 48.9247 40.8672H104.993C105.588 40.8672 106.07 41.3494 106.07 41.9442V79.1086Z" fill="#EAEAE8"/>
<path d="M111.092 81.9124H42.8262C40.782 81.9124 39.125 80.2552 39.125 78.2112V77H114.794V78.2112C114.794 80.2552 113.136 81.9124 111.092 81.9124Z" fill="#455862"/>
<path d="M83.239 80.1308H70.6746C69.7358 80.1308 68.9746 79.3698 68.9746 78.4308V77H84.9388V78.4308C84.939 79.3696 84.1778 80.1308 83.239 80.1308Z" fill="#263138"/>
<path d="M45.9102 76.9844H108.002" stroke="#263138" stroke-width="0.4" stroke-miterlimit="10"/>
<path d="M63.6099 31.4266L50.6823 41.103C50.2029 41.5712 49.5411 41.8782 48.8303 41.9618L31.1467 42.6344C30.5993 42.699 30.3101 42.1404 30.7221 41.8144L44.3835 31.6326C44.7843 31.3156 45.2771 31.0966 45.8047 31.0008L63.0981 30.6524C63.6303 30.556 63.9719 31.073 63.6099 31.4266Z" fill="#067224"/>
<path d="M31.1466 42.6344L31.1952 42.6326L44.759 32.5236C45.1598 32.2068 45.6526 31.9876 46.1804 31.8918L63.4532 31.5438L63.6098 31.4266C63.9718 31.073 63.6302 30.556 63.098 30.6524L45.8048 31.0008C45.2772 31.0966 44.7842 31.3156 44.3836 31.6326L30.7222 41.8144C30.31 42.1402 30.5992 42.699 31.1466 42.6344Z" fill="#24774A"/>
<path d="M45.7458 31.0391C45.2408 31.1403 44.769 31.3517 44.3836 31.6565L30.7222 41.8383C30.31 42.1643 30.5992 42.7229 31.1468 42.6585L31.1954 42.6567L44.7592 32.5477C45.1448 32.2427 45.6164 32.0313 46.1216 31.9303L45.7458 31.0391Z" fill="#24774A"/>
<path d="M39.9258 39.5371L42.1684 45.3373C42.1684 45.3373 46.0834 45.0857 51.3444 42.8675C56.6052 40.6493 57.0546 39.2439 57.0546 39.2439L55.549 35.6731L54.8782 34.0821C46.0992 32.5369 39.9258 39.5371 39.9258 39.5371Z" fill="#24774A"/>
<path d="M33.5859 39.6719L36.6245 48.3677" stroke="#E0AC19" stroke-width="0.2" stroke-miterlimit="10"/>
<path d="M36.4496 47.8558C36.4496 47.8558 36.0938 47.912 36.0298 48.1164C35.9658 48.3208 36.1306 48.6144 36.2856 48.6064C36.4406 48.5984 36.991 48.5638 37.099 48.36C37.207 48.1562 37.0346 47.947 36.998 47.8938C36.9022 47.7548 36.4496 47.8558 36.4496 47.8558Z" fill="#E0AC19"/>
<path d="M36.2188 48.3215C36.2188 48.3215 37.1371 52.6579 37.3109 52.7593C37.4847 52.8607 37.4848 52.8607 37.4848 52.8607C37.4848 52.8607 37.7932 54.1101 37.8806 54.4209C37.968 54.7319 38.258 54.8497 38.0516 53.9977C37.8452 53.1455 38.616 56.3203 38.7302 56.2805C38.8444 56.2407 38.9686 56.3575 38.959 55.9057C38.9494 55.4539 38.1076 52.5765 38.1076 52.5765C38.1076 52.5765 38.2982 52.9767 38.428 52.9219C38.5578 52.8671 36.815 48.0703 36.815 48.0703L36.2188 48.3215Z" fill="#E0AC19"/>
<path d="M103.403 33.4688H72.1895V76.8209H103.403V33.4688Z" fill="#0D5633"/>
<path d="M101.466 40.1406H74.1309V74.609H101.466V40.1406Z" stroke="#24774A" stroke-width="0.2" stroke-miterlimit="10"/>
<path d="M103.403 33.4688H72.1895V38.6035H103.403V33.4688Z" fill="#24774A"/>
<path d="M78.0216 44.6063C77.8596 44.6063 77.7086 44.5803 77.5686 44.5283C77.4306 44.4743 77.3106 44.3983 77.2086 44.3003C77.1066 44.2023 77.0266 44.0873 76.9686 43.9553C76.9126 43.8233 76.8846 43.6783 76.8846 43.5203C76.8846 43.3623 76.9126 43.2173 76.9686 43.0853C77.0266 42.9533 77.1066 42.8383 77.2086 42.7403C77.3126 42.6423 77.4336 42.5673 77.5716 42.5153C77.7096 42.4613 77.8606 42.4343 78.0246 42.4343C78.2066 42.4343 78.3706 42.4663 78.5166 42.5303C78.6646 42.5923 78.7886 42.6843 78.8886 42.8063L78.5766 43.0943C78.5046 43.0123 78.4246 42.9513 78.3366 42.9113C78.2486 42.8693 78.1526 42.8483 78.0486 42.8483C77.9506 42.8483 77.8606 42.8643 77.7786 42.8963C77.6966 42.9283 77.6256 42.9743 77.5656 43.0343C77.5056 43.0943 77.4586 43.1653 77.4246 43.2473C77.3926 43.3293 77.3766 43.4203 77.3766 43.5203C77.3766 43.6203 77.3926 43.7113 77.4246 43.7933C77.4586 43.8753 77.5056 43.9463 77.5656 44.0063C77.6256 44.0663 77.6966 44.1123 77.7786 44.1443C77.8606 44.1763 77.9506 44.1923 78.0486 44.1923C78.1526 44.1923 78.2486 44.1723 78.3366 44.1323C78.4246 44.0903 78.5046 44.0273 78.5766 43.9433L78.8886 44.2313C78.7886 44.3533 78.6646 44.4463 78.5166 44.5103C78.3706 44.5743 78.2056 44.6063 78.0216 44.6063ZM79.6638 43.3163H80.6748V43.6943H79.6638V43.3163ZM79.6998 44.1803H80.8428V44.5703H79.2168V42.4703H80.8038V42.8603H79.6998V44.1803ZM81.2295 44.5703V42.4703H82.1385C82.3265 42.4703 82.4885 42.5013 82.6245 42.5633C82.7605 42.6233 82.8655 42.7103 82.9395 42.8243C83.0135 42.9383 83.0505 43.0743 83.0505 43.2323C83.0505 43.3883 83.0135 43.5233 82.9395 43.6373C82.8655 43.7493 82.7605 43.8353 82.6245 43.8953C82.4885 43.9553 82.3265 43.9853 82.1385 43.9853H81.4995L81.7155 43.7723V44.5703H81.2295ZM82.5645 44.5703L82.0395 43.8083H82.5585L83.0895 44.5703H82.5645ZM81.7155 43.8263L81.4995 43.5983H82.1115C82.2615 43.5983 82.3735 43.5663 82.4475 43.5023C82.5215 43.4363 82.5585 43.3463 82.5585 43.2323C82.5585 43.1163 82.5215 43.0263 82.4475 42.9623C82.3735 42.8983 82.2615 42.8663 82.1115 42.8663H81.4995L81.7155 42.6353V43.8263ZM83.8412 44.5703V42.8663H83.1692V42.4703H84.9992V42.8663H84.3272V44.5703H83.8412ZM85.2607 44.5703V42.4703H85.7467V44.5703H85.2607ZM86.6951 43.4153H87.7031V43.8053H86.6951V43.4153ZM86.7311 44.5703H86.2451V42.4703H87.8321V42.8603H86.7311V44.5703ZM88.1611 44.5703V42.4703H88.6471V44.5703H88.1611ZM90.1505 44.6063C89.9885 44.6063 89.8375 44.5803 89.6975 44.5283C89.5595 44.4743 89.4395 44.3983 89.3375 44.3003C89.2355 44.2023 89.1555 44.0873 89.0975 43.9553C89.0415 43.8233 89.0135 43.6783 89.0135 43.5203C89.0135 43.3623 89.0415 43.2173 89.0975 43.0853C89.1555 42.9533 89.2355 42.8383 89.3375 42.7403C89.4415 42.6423 89.5625 42.5673 89.7005 42.5153C89.8385 42.4613 89.9895 42.4343 90.1535 42.4343C90.3355 42.4343 90.4995 42.4663 90.6455 42.5303C90.7935 42.5923 90.9175 42.6843 91.0175 42.8063L90.7055 43.0943C90.6335 43.0123 90.5535 42.9513 90.4655 42.9113C90.3775 42.8693 90.2815 42.8483 90.1775 42.8483C90.0795 42.8483 89.9895 42.8643 89.9075 42.8963C89.8255 42.9283 89.7545 42.9743 89.6945 43.0343C89.6345 43.0943 89.5875 43.1653 89.5535 43.2473C89.5215 43.3293 89.5055 43.4203 89.5055 43.5203C89.5055 43.6203 89.5215 43.7113 89.5535 43.7933C89.5875 43.8753 89.6345 43.9463 89.6945 44.0063C89.7545 44.0663 89.8255 44.1123 89.9075 44.1443C89.9895 44.1763 90.0795 44.1923 90.1775 44.1923C90.2815 44.1923 90.3775 44.1723 90.4655 44.1323C90.5535 44.0903 90.6335 44.0273 90.7055 43.9433L91.0175 44.2313C90.9175 44.3533 90.7935 44.4463 90.6455 44.5103C90.4995 44.5743 90.3345 44.6063 90.1505 44.6063ZM91.0316 44.5703L91.9676 42.4703H92.4476L93.3866 44.5703H92.8766L92.1086 42.7163H92.3006L91.5296 44.5703H91.0316ZM91.4996 44.1203L91.6286 43.7513H92.7086L92.8406 44.1203H91.4996ZM93.934 44.5703V42.8663H93.262V42.4703H95.092V42.8663H94.42V44.5703H93.934ZM95.8005 43.3163H96.8115V43.6943H95.8005V43.3163ZM95.8365 44.1803H96.9795V44.5703H95.3535V42.4703H96.9405V42.8603H95.8365V44.1803Z" fill="white"/>
<path opacity="0.5" d="M96.9867 47.3906H75.4961V48.217H96.9867V47.3906Z" fill="#B3FEDA"/>
<path opacity="0.5" d="M100.091 49.1094H75.4961V49.9358H100.091V49.1094Z" fill="#B3FEDA"/>
<path opacity="0.5" d="M100.091 50.7578H75.4961V51.5842H100.091V50.7578Z" fill="#B3FEDA"/>
<path opacity="0.5" d="M100.091 55.8672H75.4961V56.6936H100.091V55.8672Z" fill="#B3FEDA"/>
<path opacity="0.5" d="M100.091 58.1016H75.4961V58.928H100.091V58.1016Z" fill="#B3FEDA"/>
<path opacity="0.5" d="M100.091 62.6172H75.4961V63.4436H100.091V62.6172Z" fill="#B3FEDA"/>
<path opacity="0.5" d="M97.3763 64.8594H75.4961V65.6858H97.3763V64.8594Z" fill="#B3FEDA"/>
<path opacity="0.5" d="M97.3763 67.0938H75.4961V67.9201H97.3763V67.0938Z" fill="#B3FEDA"/>
<path opacity="0.5" d="M100.091 69.3281H75.4961V70.1545H100.091V69.3281Z" fill="#B3FEDA"/>
<path opacity="0.5" d="M100.091 71.5625H75.4961V72.3889H100.091V71.5625Z" fill="#B3FEDA"/>
<path opacity="0.5" d="M93.0753 52.4688H75.4961V53.2951H93.0753V52.4688Z" fill="#B3FEDA"/>
<path d="M129.052 81.9067C129.094 81.8937 129.136 81.8815 129.177 81.8683V74.3203H113.07V81.8683C113.111 81.8813 113.155 81.8939 113.197 81.9067H129.052Z" fill="#067224"/>
<path opacity="0.3" d="M129.103 81.9067C129.128 81.8937 129.153 81.8815 129.176 81.8683V74.3203H119.719V81.8683C119.743 81.8813 119.769 81.8939 119.793 81.9067H129.103Z" fill="#24774A"/>
<path d="M123.467 74.3089C123.397 74.2321 123.293 74.1487 123.143 74.0571C122.636 73.8065 122.385 73.1773 122.16 70.4943C121.831 66.5863 122.591 65.2171 122.591 65.2171L121.078 64.1797L119.894 65.2171C119.894 65.2171 120.654 66.5863 120.325 70.4943C120.122 72.9005 119.899 73.6543 119.49 73.9649L119.49 73.9651C119.415 74.0223 119.333 74.0649 119.244 74.0995C119.146 74.1575 119.033 74.2301 118.934 74.3087H123.467V74.3089Z" fill="#24774A"/>
<path d="M114.019 62.5307C112.725 62.5307 111.628 62.1025 110.751 61.2537C108.175 58.7615 108.455 53.5079 108.468 53.2855L108.495 52.8203H113.563V53.8087H109.444C109.439 55.1027 109.597 58.7629 111.44 60.5443C112.239 61.3171 113.242 61.6363 114.504 61.5191L114.595 62.5035C114.399 62.5215 114.206 62.5307 114.019 62.5307Z" fill="#067224"/>
<path d="M128.513 62.5307C128.325 62.5307 128.133 62.5215 127.938 62.5035L128.028 61.5191C129.29 61.6359 130.294 61.3165 131.094 60.5431C132.939 58.7577 133.094 55.1015 133.089 53.8087H128.969V52.8203H134.037L134.064 53.2855C134.077 53.5079 134.357 58.7613 131.781 61.2537C130.904 62.1023 129.806 62.5307 128.513 62.5307Z" fill="#067224"/>
<path d="M111.461 49.6328C111.461 49.6328 111.763 68.7774 122.528 67.572C130.667 66.6606 130.783 49.6328 130.783 49.6328H111.461Z" fill="#24774A"/>
<path d="M130.783 49.6155C130.783 49.9037 126.458 50.1374 121.122 50.1374C115.787 50.1374 111.461 49.9037 111.461 49.6155C111.461 49.3273 115.786 49.0938 121.122 49.0938C126.458 49.0938 130.783 49.3273 130.783 49.6155Z" fill="#067224"/>
<path d="M121.124 53.8438L122.28 56.1874L124.867 56.5632L122.995 58.3874L123.437 60.9632L121.124 59.747L118.811 60.9632L119.252 58.3874L117.381 56.5632L119.967 56.1874L121.124 53.8438Z" fill="#067224"/>
<g opacity="0.41">
<path opacity="0.3" d="M119.736 66.9212C119.73 66.9218 119.725 66.922 119.719 66.9226C120.299 66.9902 120.916 66.9934 121.571 66.9212C126.218 66.4096 127.958 61.9186 128.847 57.1406C128.309 57.2522 127.675 57.3696 126.946 57.482C126.216 61.4576 124.272 66.4218 119.736 66.9212Z" fill="white"/>
<path opacity="0.3" d="M127.936 50.9646C127.857 52.227 127.673 54.2144 127.238 56.358C127.967 56.2492 128.601 56.1358 129.139 56.028C129.562 53.8252 129.726 51.8198 129.789 50.6484C129.197 50.7662 128.577 50.8714 127.936 50.9646Z" fill="white"/>
</g>
<path d="M54.9802 52.4505H73.6004C74.474 52.4505 75.1822 51.7423 75.1822 50.8687V47.7579L77.2382 45.8281H54.9802C54.1066 45.8281 53.3984 46.5363 53.3984 47.4099V50.8687C53.3984 51.7423 54.1066 52.4505 54.9802 52.4505Z" fill="#24774A"/>
<path d="M55.2116 48.1953H72.0918V47.7425H55.2116V48.1953Z" fill="#92B6FF"/>
<path d="M56.8346 49.375H72.9922V48.9222H56.8346V49.375Z" fill="#92B6FF"/>
<path d="M55.0913 50.5625H70.2109V50.1097H55.0913V50.5625Z" fill="#92B6FF"/>
<path d="M73.2389 32.5355C70.8203 32.5355 68.8597 30.5749 68.8597 28.1562C68.8597 30.5749 66.8991 32.5355 64.4805 32.5355C66.8991 32.5355 68.8597 34.4961 68.8597 36.9147C68.8597 34.4961 70.8205 32.5355 73.2389 32.5355Z" fill="#24774A"/>
<path d="M75.946 30.7855C74.9254 30.7855 74.098 29.9581 74.098 28.9375C74.098 29.9581 73.2706 30.7855 72.25 30.7855C73.2706 30.7855 74.098 31.6129 74.098 32.6335C74.098 31.6129 74.9254 30.7855 75.946 30.7855Z" fill="#24774A"/>
<path d="M69.9078 61.9505H50.5509C49.7461 61.9505 49.0938 61.2981 49.0938 60.4935V55.1681C49.0938 54.3633 49.7461 53.7109 50.5509 53.7109H69.9078C70.7126 53.7109 71.365 54.3633 71.365 55.1681V60.4935C71.365 61.2981 70.7126 61.9505 69.9078 61.9505Z" fill="#24774A"/>
<path d="M56.5535 57.0821C56.427 57.0821 56.3095 57.0615 56.2013 57.0204C56.0945 56.9792 56.0015 56.9213 55.9222 56.8465C55.8444 56.7718 55.7834 56.6841 55.7392 56.5835C55.6965 56.4828 55.6751 56.373 55.6751 56.2541C55.6751 56.1351 55.6965 56.0253 55.7392 55.9247C55.7834 55.824 55.8452 55.7363 55.9245 55.6616C56.0038 55.5869 56.0968 55.5289 56.2036 55.4878C56.3103 55.4466 56.4262 55.426 56.5513 55.426C56.6778 55.426 56.7937 55.4466 56.899 55.4878C57.0057 55.5289 57.098 55.5869 57.1757 55.6616C57.255 55.7363 57.3168 55.824 57.361 55.9247C57.4052 56.0238 57.4274 56.1336 57.4274 56.2541C57.4274 56.373 57.4052 56.4836 57.361 56.5858C57.3168 56.6864 57.255 56.7741 57.1757 56.8488C57.098 56.922 57.0057 56.9792 56.899 57.0204C56.7937 57.0615 56.6786 57.0821 56.5535 57.0821ZM56.5513 56.7665C56.6229 56.7665 56.6885 56.7543 56.748 56.7299C56.809 56.7055 56.8624 56.6704 56.9081 56.6246C56.9539 56.5789 56.9889 56.5248 57.0133 56.4622C57.0392 56.3997 57.0522 56.3303 57.0522 56.2541C57.0522 56.1778 57.0392 56.1084 57.0133 56.0459C56.9889 55.9834 56.9539 55.9292 56.9081 55.8835C56.8639 55.8377 56.8113 55.8027 56.7503 55.7783C56.6893 55.7539 56.6229 55.7417 56.5513 55.7417C56.4796 55.7417 56.4132 55.7539 56.3522 55.7783C56.2928 55.8027 56.2402 55.8377 56.1944 55.8835C56.1487 55.9292 56.1128 55.9834 56.0869 56.0459C56.0625 56.1084 56.0503 56.1778 56.0503 56.2541C56.0503 56.3288 56.0625 56.3982 56.0869 56.4622C56.1128 56.5248 56.1479 56.5789 56.1921 56.6246C56.2379 56.6704 56.2912 56.7055 56.3522 56.7299C56.4132 56.7543 56.4796 56.7665 56.5513 56.7665ZM57.7059 57.0547V55.4535H58.0124L58.9571 56.6063H58.8084V55.4535H59.1744V57.0547H58.8702L57.9232 55.9018H58.0719V57.0547H57.7059ZM59.5533 57.0547V55.4535H59.9238V56.7527H60.7267V57.0547H59.5533ZM60.9338 57.0547V55.4535H61.3044V57.0547H60.9338ZM61.6844 57.0547V55.4535H61.9909L62.9356 56.6063H62.7869V55.4535H63.1529V57.0547H62.8487L61.9017 55.9018H62.0504V57.0547H61.6844ZM63.8726 56.0985H64.6435V56.3867H63.8726V56.0985ZM63.9001 56.7573H64.7716V57.0547H63.5318V55.4535H64.7419V55.7508H63.9001V56.7573Z" fill="#EAEAE8"/>
<path d="M52.0659 58.38H52.8367V58.6682H52.0659V58.38ZM52.0933 59.0388H52.9648V59.3362H51.725V57.7349H52.9351V58.0323H52.0933V59.0388ZM53.061 59.3362L53.7496 58.3868V58.6568L53.0908 57.7349H53.5117L53.9669 58.3777L53.7908 58.38L54.2391 57.7349H54.6417L53.9875 58.6408V58.3754L54.6806 59.3362H54.2528L53.7816 58.6568H53.9509L53.4865 59.3362H53.061ZM54.5817 59.3362L55.2954 57.7349H55.6614L56.3773 59.3362H55.9885L55.4029 57.9225H55.5493L54.9614 59.3362H54.5817ZM54.9385 58.993L55.0369 58.7117H55.8604L55.961 58.993H54.9385ZM56.5435 59.3362V57.7349H56.85L57.5317 58.8649H57.3692L58.0395 57.7349H58.3437L58.3483 59.3362H58.0006L57.9983 58.2679H58.0624L57.5271 59.1669H57.3601L56.8134 58.2679H56.8912V59.3362H56.5435ZM58.7282 59.3362V57.7349H59.0988V59.3362H58.7282ZM59.4788 59.3362V57.7349H59.7853L60.73 58.8878H60.5813V57.7349H60.9473V59.3362H60.6431L59.6961 58.1833H59.8448V59.3362H59.4788ZM61.1157 59.3362L61.8294 57.7349H62.1954L62.9114 59.3362H62.5225L61.9369 57.9225H62.0833L61.4955 59.3362H61.1157ZM61.4726 58.993L61.5709 58.7117H62.3944L62.4951 58.993H61.4726ZM63.3288 59.3362V58.0369H62.8164V57.7349H64.2118V58.0369H63.6994V59.3362H63.3288ZM64.4111 59.3362V57.7349H64.7817V59.3362H64.4111ZM65.9395 59.3636C65.8129 59.3636 65.6955 59.343 65.5872 59.3018C65.4804 59.2607 65.3874 59.2027 65.3081 59.128C65.2304 59.0533 65.1694 58.9656 65.1251 58.8649C65.0824 58.7643 65.0611 58.6545 65.0611 58.5355C65.0611 58.4166 65.0824 58.3068 65.1251 58.2061C65.1694 58.1055 65.2311 58.0178 65.3104 57.9431C65.3897 57.8684 65.4827 57.8104 65.5895 57.7692C65.6962 57.7281 65.8121 57.7075 65.9372 57.7075C66.0638 57.7075 66.1797 57.7281 66.2849 57.7692C66.3916 57.8104 66.4839 57.8684 66.5617 57.9431C66.641 58.0178 66.7027 58.1055 66.747 58.2061C66.7912 58.3053 66.8133 58.4151 66.8133 58.5355C66.8133 58.6545 66.7912 58.765 66.747 58.8672C66.7027 58.9679 66.641 59.0556 66.5617 59.1303C66.4839 59.2035 66.3916 59.2607 66.2849 59.3018C66.1797 59.343 66.0645 59.3636 65.9395 59.3636ZM65.9372 59.0479C66.0089 59.0479 66.0744 59.0357 66.1339 59.0113C66.1949 58.9869 66.2483 58.9519 66.294 58.9061C66.3398 58.8604 66.3749 58.8062 66.3993 58.7437C66.4252 58.6812 66.4381 58.6118 66.4381 58.5355C66.4381 58.4593 66.4252 58.3899 66.3993 58.3274C66.3749 58.2648 66.3398 58.2107 66.294 58.165C66.2498 58.1192 66.1972 58.0841 66.1362 58.0597C66.0752 58.0353 66.0089 58.0231 65.9372 58.0231C65.8655 58.0231 65.7992 58.0353 65.7382 58.0597C65.6787 58.0841 65.6261 58.1192 65.5803 58.165C65.5346 58.2107 65.4987 58.2648 65.4728 58.3274C65.4484 58.3899 65.4362 58.4593 65.4362 58.5355C65.4362 58.6103 65.4484 58.6796 65.4728 58.7437C65.4987 58.8062 65.5338 58.8604 65.578 58.9061C65.6238 58.9519 65.6772 58.9869 65.7382 59.0113C65.7992 59.0357 65.8655 59.0479 65.9372 59.0479ZM67.0918 59.3362V57.7349H67.3983L68.343 58.8878H68.1944V57.7349H68.5604V59.3362H68.2561L67.3091 58.1833H67.4578V59.3362H67.0918Z" fill="#EAEAE8"/>
<path d="M71.3708 64.8438H51.5508V67.0781H71.3708V64.8438Z" fill="#EAEAE8"/>
<path d="M68.9137 69.5312H49.0938V70.6484H68.9137V69.5312Z" fill="#EAEAE8"/>
<path d="M68.9137 71.4766H49.0938V75.2256H68.9137V71.4766Z" fill="#EAEAE8"/>
<path d="M85.6652 73.8881L85.2954 72.8315L84.1758 72.8243L86.6118 69.4141L88.1014 70.4781L85.6652 73.8881Z" fill="#24774A"/>
<path d="M89.934 73.8881L90.304 72.8315L91.4234 72.8243L88.9872 69.4141L87.498 70.4781L89.934 73.8881Z" fill="#24774A"/>
<path d="M91.1169 68.9252C91.1169 69.2624 90.6873 69.5274 90.5887 69.8314C90.4861 70.147 90.6739 70.613 90.4833 70.8754C90.2901 71.1406 89.7879 71.1054 89.5223 71.2978C89.2603 71.4888 89.1397 71.9792 88.8243 72.0814C88.5197 72.1802 88.1359 71.8578 87.7985 71.8578C87.4611 71.8578 87.0769 72.1802 86.7729 72.0814C86.4575 71.9792 86.3371 71.4888 86.0747 71.2978C85.8099 71.1054 85.3069 71.1404 85.1141 70.8754C84.9231 70.6128 85.1113 70.147 85.0087 69.8314C84.9099 69.5274 84.4805 69.2624 84.4805 68.9252C84.4805 68.5878 84.9099 68.3229 85.0087 68.0185C85.1113 67.7031 84.9231 67.2368 85.1141 66.9744C85.3069 66.7096 85.8099 66.7453 86.0747 66.5523C86.3371 66.3611 86.4575 65.8711 86.7729 65.7687C87.0771 65.6701 87.4611 65.9926 87.7985 65.9926C88.1357 65.9926 88.5197 65.6701 88.8243 65.7687C89.1397 65.8711 89.2603 66.3611 89.5223 66.5523C89.7873 66.7453 90.2901 66.7094 90.4833 66.9746C90.6739 67.2372 90.4861 67.7031 90.5887 68.0185C90.6873 68.3229 91.1169 68.588 91.1169 68.9252Z" fill="#067224"/>
<path d="M89.9145 68.9261C89.9145 70.0935 88.9687 71.0397 87.8011 71.0397C86.6339 71.0397 85.6875 70.0935 85.6875 68.9261C85.6875 67.7585 86.6339 66.8125 87.8011 66.8125C88.9687 66.8125 89.9145 67.7585 89.9145 68.9261Z" fill="#D0D32A"/>
<path d="M43.9461 76.4688H15.9277V81.8406H43.9461V76.4688Z" fill="#24774A"/>
<path opacity="0.3" d="M43.9461 80.6484H15.9277V81.816H43.9461V80.6484Z" fill="#24774A"/>
<path d="M45.7414 71.0938H20.709V76.4656H45.7414V71.0938Z" fill="#24774A"/>
<path d="M26.8689 71.7812H22.8965V75.7536H26.8689V71.7812Z" fill="white"/>
<path d="M42.1208 71.7812H38.1484V75.7536H42.1208V71.7812Z" fill="white"/>
<path opacity="0.3" d="M45.7414 75.2734H20.709V76.441H45.7414V75.2734Z" fill="#24774A"/>
<path d="M10.8242 81.9185L26.8696 81.8211L42.915 81.7654L75.0056 81.7188L107.096 81.7645L123.142 81.8205L139.187 81.9185L123.142 82.0163L107.096 82.0723L75.0056 82.1181L42.915 82.0715L26.8696 82.0157L10.8242 81.9185Z" fill="#283034"/>
<path d="M103.397 31.0234C103.88 31.0234 103.881 30.2734 103.397 30.2734C102.915 30.2734 102.914 31.0234 103.397 31.0234Z" fill="#283034"/>
<path d="M43.581 70.0469C44.0636 70.0469 44.0644 69.2969 43.581 69.2969C43.0984 69.2969 43.0976 70.0469 43.581 70.0469Z" fill="#283034"/>
<path d="M113.448 69.7873C113.337 69.7873 113.248 69.6979 113.248 69.5873V68.2859C113.248 68.1753 113.337 68.0859 113.448 68.0859C113.559 68.0859 113.648 68.1753 113.648 68.2859V69.5873C113.648 69.6979 113.558 69.7873 113.448 69.7873Z" fill="#283034"/>
<path d="M114.099 69.1344H112.798C112.687 69.1344 112.598 69.045 112.598 68.9344C112.598 68.8238 112.687 68.7344 112.798 68.7344H114.099C114.209 68.7344 114.299 68.8238 114.299 68.9344C114.299 69.045 114.209 69.1344 114.099 69.1344Z" fill="#283034"/>
<path d="M28.5262 44.8498C28.4156 44.8498 28.3262 44.7604 28.3262 44.6498V43.3484C28.3262 43.2378 28.4156 43.1484 28.5262 43.1484C28.6368 43.1484 28.7262 43.2378 28.7262 43.3484V44.6498C28.7262 44.7604 28.6368 44.8498 28.5262 44.8498Z" fill="#283034"/>
<path d="M29.175 44.2125H27.8738C27.7632 44.2125 27.6738 44.1231 27.6738 44.0125C27.6738 43.9019 27.7632 43.8125 27.8738 43.8125H29.175C29.2856 43.8125 29.375 43.9019 29.375 44.0125C29.375 44.1229 29.2856 44.2125 29.175 44.2125Z" fill="#283034"/>
</svg>
