<svg width="30" height="34" viewBox="0 0 30 34" fill="none" xmlns="http://www.w3.org/2000/svg">
<path d="M13.3333 29.3776V17.9609L3.33333 12.1693V23.5859L13.3333 29.3776ZM16.6667 29.3776L26.6667 23.5859V12.1693L16.6667 17.9609V29.3776ZM13.3333 33.2109L1.66667 26.5026C1.13889 26.197 0.729167 25.7943 0.4375 25.2943C0.145833 24.7943 0 24.2387 0 23.6276V10.3776C0 9.76649 0.145833 9.21094 0.4375 8.71094C0.729167 8.21094 1.13889 7.80816 1.66667 7.5026L13.3333 0.794271C13.8611 0.488715 14.4167 0.335938 15 0.335938C15.5833 0.335938 16.1389 0.488715 16.6667 0.794271L28.3333 7.5026C28.8611 7.80816 29.2708 8.21094 29.5625 8.71094C29.8542 9.21094 30 9.76649 30 10.3776V23.6276C30 24.2387 29.8542 24.7943 29.5625 25.2943C29.2708 25.7943 28.8611 26.197 28.3333 26.5026L16.6667 33.2109C16.1389 33.5165 15.5833 33.6693 15 33.6693C14.4167 33.6693 13.8611 33.5165 13.3333 33.2109ZM21.6667 11.2109L24.875 9.3776L15 3.66927L11.75 5.54427L21.6667 11.2109ZM15 15.0859L18.25 13.2109L8.375 7.5026L5.125 9.3776L15 15.0859Z" fill="white"/>
</svg>
