<svg width="140" height="140" viewBox="0 0 140 140" fill="none" xmlns="http://www.w3.org/2000/svg">
<path d="M140 107.07H0V107.14H140V107.07Z" fill="#E6E6E6"/>
<path d="M105.746 110.031H96.1133V110.101H105.746V110.031Z" fill="#E6E6E6"/>
<path d="M31.0924 110.07H25.6719V110.14H31.0924V110.07Z" fill="#E6E6E6"/>
<path d="M70.2799 109.906H59.293V109.976H70.2799V109.906Z" fill="#E6E6E6"/>
<path d="M59.013 108.906H54.1016V108.976H59.013V108.906Z" fill="#E6E6E6"/>
<path d="M118.875 108.945H104.039V109.015H118.875V108.945Z" fill="#E6E6E6"/>
<path d="M66.3652 94.5803H12.2975C11.4163 94.5803 10.6992 93.8632 10.6992 92.982V16.9811C10.6992 16.0999 11.4163 15.3828 12.2975 15.3828H66.3652C67.2461 15.3828 67.9631 16.0999 67.9631 16.9811V92.982C67.9631 93.8632 67.2461 94.5803 66.3652 94.5803ZM12.2975 15.4531C11.4547 15.4531 10.7692 16.1385 10.7692 16.9813V92.9823C10.7692 93.8251 11.4547 94.5105 12.2975 94.5105H66.3652C67.2077 94.5105 67.8931 93.8251 67.8931 92.9823V16.9811C67.8931 16.1385 67.2077 15.4528 66.3652 15.4528L12.2975 15.4531Z" fill="#E6E6E6"/>
<path d="M126.927 94.5803H72.8597C71.9788 94.5803 71.2617 93.8632 71.2617 92.982V16.9811C71.2617 16.0999 71.9788 15.3828 72.8597 15.3828H126.927C127.809 15.3828 128.525 16.0999 128.525 16.9811V92.982C128.526 93.8632 127.809 94.5803 126.927 94.5803ZM72.8597 15.4531C72.0172 15.4531 71.3317 16.1385 71.3317 16.9813V92.9823C71.3317 93.8251 72.0172 94.5105 72.8597 94.5105H126.927C127.77 94.5105 128.455 93.8251 128.455 92.9823V16.9811C128.455 16.1385 127.77 15.4528 126.927 15.4528L72.8597 15.4531Z" fill="#E6E6E6"/>
<path d="M56.2498 40.2031H39.4414V58.603H56.2498V40.2031Z" fill="#E0E0E0"/>
<path d="M58.6112 40.2031H40.3496V58.603H58.6112V40.2031Z" fill="#FAFAFA"/>
<path d="M56.7285 56.7187V42.0859H42.2338V56.7187H56.7285Z" fill="white"/>
<path d="M45.6367 49.4008C45.6367 47.4923 47.1837 45.9453 49.0922 45.9453H49.8712C51.7796 45.9453 53.3266 47.4923 53.3266 49.4008C53.3266 51.3093 51.7796 52.8563 49.8712 52.8563H49.0922C47.1837 52.8563 45.6367 51.3093 45.6367 49.4008Z" fill="#F5F5F5"/>
<path d="M25.8267 44.5909C20.9583 44.5909 17.0117 40.6443 17.0117 35.7759C17.0117 30.9075 20.9583 26.9609 25.8267 26.9609H27.4182V44.5911H25.8267V44.5909Z" fill="#E0E0E0"/>
<path d="M27.4188 44.5914C32.2873 44.5914 36.234 40.6447 36.234 35.7762C36.234 30.9077 32.2873 26.9609 27.4188 26.9609C22.5502 26.9609 18.6035 30.9077 18.6035 35.7762C18.6035 40.6447 22.5502 44.5914 27.4188 44.5914Z" fill="#FAFAFA"/>
<path d="M27.4198 42.4255C31.0905 42.4255 34.0662 39.4499 34.0662 35.7792C34.0662 32.1085 31.0905 29.1328 27.4198 29.1328C23.7491 29.1328 20.7734 32.1085 20.7734 35.7792C20.7734 39.4499 23.7491 42.4255 27.4198 42.4255Z" fill="white"/>
<path d="M30.1579 38.2653L26.8945 35.9889L27.9289 30.9531L28.8537 31.1432L27.9448 35.5698L30.6983 37.4908L30.1579 38.2653Z" fill="#E0E0E0"/>
<path d="M98.6554 75.5938H86.6406V108.056H98.6554V75.5938Z" fill="#E0E0E0"/>
<path d="M95.4479 108.056H98.6561V102.68H92.084L95.4479 108.056Z" fill="#FAFAFA"/>
<path d="M26.6242 75.5938H14.6094V108.056H26.6242V75.5938Z" fill="#E0E0E0"/>
<path d="M98.6559 75.5938H23.8242V106.206H98.6559V75.5938Z" fill="#FAFAFA"/>
<path d="M27.0325 108.056H23.8242V102.68H30.3964L27.0325 108.056Z" fill="#FAFAFA"/>
<path d="M96.1666 78.2266H26.3125V89.4946H96.1666V78.2266Z" fill="#F0F0F0"/>
<path d="M96.1666 92.2188H26.3125V103.487H96.1666V92.2188Z" fill="#F0F0F0"/>
<path d="M85.9239 78.2266H26.3125V89.4946H85.9239V78.2266Z" fill="#E0E0E0"/>
<path d="M44.6718 79.7422H41.045C41.045 79.7422 41.6747 81.9161 41.6747 83.1957C41.6747 84.475 38.9161 89.4901 42.8585 89.4901C46.8006 89.4901 44.0424 84.475 44.0424 83.1957C44.0421 81.9164 44.6718 79.7422 44.6718 79.7422Z" fill="#FAFAFA"/>
<path d="M30.3965 83.5234V85.5033C30.3965 87.6968 32.5178 89.4914 35.1108 89.4914H37.4511C40.0439 89.4914 42.1654 87.6968 42.1654 85.5033V83.5234H30.3965Z" fill="#F0F0F0"/>
<path d="M85.9239 92.2188H26.3125V103.487H85.9239V92.2188Z" fill="#E0E0E0"/>
<path d="M59.7932 103.289H65.377V93.9891H59.7932V103.289Z" fill="white"/>
<path d="M64.5073 103.437H64.8867V94.1376H64.5073V103.437Z" fill="#E6E6E6"/>
<path d="M64.9162 103.512H65.8903C65.9648 103.512 66.0253 103.451 66.0253 103.377V94.2053C66.0253 94.1308 65.9648 94.0703 65.8903 94.0703H64.9162C64.8417 94.0703 64.7812 94.1308 64.7812 94.2053V103.377C64.7812 103.451 64.8417 103.512 64.9162 103.512Z" fill="#EBEBEB"/>
<path d="M64.7833 98.4297H66.0273V96.2236H64.7833V98.4297Z" fill="white"/>
<path d="M64.7833 100.469H66.0273V99.1085H64.7833V100.469Z" fill="white"/>
<path d="M59.5119 103.512H64.5416C64.616 103.512 64.6765 103.451 64.6765 103.377V94.2053C64.6765 94.1308 64.616 94.0703 64.5416 94.0703H59.5119C59.4374 94.0703 59.377 94.1308 59.377 94.2053V103.377C59.3767 103.451 59.4372 103.512 59.5119 103.512Z" fill="#EBEBEB"/>
<path d="M57.0727 103.258H63.2324V92.9989H57.0727V103.258Z" fill="white"/>
<path d="M62.2748 103.422H62.6934V93.163H62.2748V103.422Z" fill="#E6E6E6"/>
<path d="M62.7251 103.494H63.7998C63.8821 103.494 63.9487 103.427 63.9487 103.345V93.2271C63.9487 93.1448 63.8821 93.0781 63.7998 93.0781H62.7251C62.6428 93.0781 62.5762 93.1448 62.5762 93.2271V103.345C62.5765 103.427 62.6431 103.494 62.7251 103.494Z" fill="#F0F0F0"/>
<path d="M62.5769 96.7578H63.9492V96.4033H62.5769V96.7578Z" fill="white"/>
<path d="M62.5769 97.7812H63.9492V97.4268H62.5769V97.7812Z" fill="white"/>
<path d="M62.5769 98.8125H63.9492V98.458H62.5769V98.8125Z" fill="white"/>
<path d="M56.7622 103.494H62.3107C62.393 103.494 62.4597 103.427 62.4597 103.345V93.2271C62.4597 93.1448 62.393 93.0781 62.3107 93.0781H56.7622C56.6799 93.0781 56.6133 93.1448 56.6133 93.2271V103.345C56.6133 103.427 56.6799 103.494 56.7622 103.494Z" fill="#F0F0F0"/>
<path d="M49.4823 99.9218C49.4823 100.793 48.7759 101.5 47.9043 101.5C47.0326 101.5 46.3262 100.793 46.3262 99.9218C46.3262 99.0502 47.0326 98.3438 47.9043 98.3438C48.7759 98.344 49.4823 99.0505 49.4823 99.9218Z" fill="#FAFAFA"/>
<path d="M46.7916 100.671C46.7916 101.352 46.2391 101.905 45.5579 101.905C44.8767 101.905 44.3242 101.353 44.3242 100.671C44.3242 99.9897 44.8767 99.4375 45.5579 99.4375C46.2391 99.4375 46.7916 99.9897 46.7916 100.671Z" fill="#FAFAFA"/>
<path d="M52.1835 100.672C52.1835 101.543 51.4771 102.25 50.6054 102.25C49.7338 102.25 49.0273 101.543 49.0273 100.672C49.0273 99.8002 49.7338 99.0938 50.6054 99.0938C51.4771 99.0935 52.1835 99.8002 52.1835 100.672Z" fill="#FAFAFA"/>
<path d="M54.7714 100.211C54.7714 101.083 54.065 101.789 53.1933 101.789C52.3217 101.789 51.6152 101.083 51.6152 100.211C51.6152 99.3392 52.3217 98.6328 53.1933 98.6328C54.065 98.6328 54.7714 99.3395 54.7714 100.211Z" fill="#FAFAFA"/>
<path d="M41.2109 100.414C41.2109 100.414 41.4277 103.493 49.7341 103.493C58.0406 103.493 58.2573 100.414 58.2573 100.414H41.2109Z" fill="#F5F5F5"/>
<path d="M64.5078 86.4141C64.5078 86.4141 64.8514 89.4929 78.0159 89.4929C91.1803 89.4929 91.5239 86.4141 91.5239 86.4141H64.5078Z" fill="white"/>
<path d="M69.9999 119.716C99.9828 119.716 124.289 118.296 124.289 116.545C124.289 114.794 99.9828 113.375 69.9999 113.375C40.0169 113.375 15.7109 114.794 15.7109 116.545C15.7109 118.296 40.0169 119.716 69.9999 119.716Z" fill="#F5F5F5"/>
<path d="M41.139 74.575C47.0614 68.6526 47.0614 59.0505 41.139 53.1281C35.2166 47.2058 25.6146 47.2058 19.6922 53.1281C13.7698 59.0505 13.7698 68.6526 19.6922 74.575C25.6146 80.4974 35.2166 80.4974 41.139 74.575Z" fill="#24774A"/>
<path opacity="0.4" d="M41.139 74.575C47.0614 68.6526 47.0614 59.0505 41.139 53.1281C35.2166 47.2058 25.6146 47.2058 19.6922 53.1281C13.7698 59.0505 13.7698 68.6526 19.6922 74.575C25.6146 80.4974 35.2166 80.4974 41.139 74.575Z" fill="black"/>
<path opacity="0.2" d="M42.9729 65.9955C44.1559 59.0621 39.4943 52.4824 32.5608 51.2994C25.6274 50.1164 19.0477 54.7781 17.8647 61.7115C16.6817 68.645 21.3433 75.2246 28.2768 76.4076C35.2102 77.5907 41.7899 72.929 42.9729 65.9955Z" fill="black"/>
<path d="M43.416 65.2294C43.8954 58.4949 38.8245 52.6469 32.09 52.1675C25.3555 51.6882 19.5074 56.759 19.0281 63.4935C18.5487 70.2281 23.6196 76.0761 30.3541 76.5554C37.0887 77.0348 42.9367 71.964 43.416 65.2294Z" fill="#24774A"/>
<path opacity="0.4" d="M43.416 65.2294C43.8954 58.4949 38.8245 52.6469 32.09 52.1675C25.3555 51.6882 19.5074 56.759 19.0281 63.4935C18.5487 70.2281 23.6196 76.0761 30.3541 76.5554C37.0887 77.0348 42.9367 71.964 43.416 65.2294Z" fill="black"/>
<path d="M35.4508 62.6826L36.2483 66.1389C36.3104 66.4083 36.2631 66.6653 36.1069 66.9095C35.9506 67.1539 35.7339 67.3082 35.4567 67.3723L32.4162 68.0737L32.9779 70.5086C33.042 70.7858 32.9972 71.0445 32.844 71.2839C32.6909 71.5239 32.4795 71.6745 32.2104 71.7367C31.9253 71.8025 31.6613 71.7613 31.4188 71.6129C31.1761 71.4648 31.0229 71.252 30.9588 70.9748L30.3915 68.5161L27.3745 69.2122C27.1054 69.2744 26.8492 69.2315 26.6065 69.0829C26.3637 68.9347 26.2105 68.7219 26.1464 68.4447C26.0823 68.1675 26.1251 67.9097 26.2744 67.6708C26.4236 67.432 26.6367 67.2808 26.9139 67.2167L33.9691 65.5887L33.6375 64.1515L26.6062 65.7738C26.329 65.8379 26.0714 65.7971 25.8337 65.652C25.5957 65.5067 25.4439 65.2914 25.3781 65.0066L24.5835 61.5621C24.5196 61.2849 24.5619 61.0273 24.7114 60.7884C24.8607 60.5496 25.0737 60.3984 25.3509 60.3343L28.3441 59.6438L27.7822 57.2086C27.72 56.9395 27.7592 56.6845 27.8995 56.4437C28.0398 56.2031 28.2685 56.0458 28.5852 55.9727C28.8543 55.9105 29.1083 55.9542 29.3471 56.1035C29.5859 56.2527 29.7374 56.4661 29.8013 56.743L30.3632 59.1781L33.4275 58.4711C33.7047 58.4073 33.9671 58.451 34.2146 58.6022C34.4621 58.7534 34.6173 58.9639 34.6794 59.233C34.7435 59.5102 34.6976 59.7731 34.5422 60.0218C34.3868 60.2701 34.1707 60.4264 33.8935 60.4902L26.8383 62.1181L27.167 63.5433L34.1987 61.921C34.4759 61.8572 34.7382 61.9009 34.9857 62.0521C35.2335 62.2033 35.3887 62.4133 35.4508 62.6826Z" fill="#24774A"/>
<g opacity="0.7">
<path d="M35.4508 62.6826L36.2483 66.1389C36.3104 66.4083 36.2631 66.6653 36.1069 66.9095C35.9506 67.1539 35.7339 67.3082 35.4567 67.3723L32.4162 68.0737L32.9779 70.5086C33.042 70.7858 32.9972 71.0445 32.844 71.2839C32.6909 71.5239 32.4795 71.6745 32.2104 71.7367C31.9253 71.8025 31.6613 71.7613 31.4188 71.6129C31.1761 71.4648 31.0229 71.252 30.9588 70.9748L30.3915 68.5161L27.3745 69.2122C27.1054 69.2744 26.8492 69.2315 26.6065 69.0829C26.3637 68.9347 26.2105 68.7219 26.1464 68.4447C26.0823 68.1675 26.1251 67.9097 26.2744 67.6708C26.4236 67.432 26.6367 67.2808 26.9139 67.2167L33.9691 65.5887L33.6375 64.1515L26.6062 65.7738C26.329 65.8379 26.0714 65.7971 25.8337 65.652C25.5957 65.5067 25.4439 65.2914 25.3781 65.0066L24.5835 61.5621C24.5196 61.2849 24.5619 61.0273 24.7114 60.7884C24.8607 60.5496 25.0737 60.3984 25.3509 60.3343L28.3441 59.6438L27.7822 57.2086C27.72 56.9395 27.7592 56.6845 27.8995 56.4437C28.0398 56.2031 28.2685 56.0458 28.5852 55.9727C28.8543 55.9105 29.1083 55.9542 29.3471 56.1035C29.5859 56.2527 29.7374 56.4661 29.8013 56.743L30.3632 59.1781L33.4275 58.4711C33.7047 58.4073 33.9671 58.451 34.2146 58.6022C34.4621 58.7534 34.6173 58.9639 34.6794 59.233C34.7435 59.5102 34.6976 59.7731 34.5422 60.0218C34.3868 60.2701 34.1707 60.4264 33.8935 60.4902L26.8383 62.1181L27.167 63.5433L34.1987 61.921C34.4759 61.8572 34.7382 61.9009 34.9857 62.0521C35.2335 62.2033 35.3887 62.4133 35.4508 62.6826Z" fill="white"/>
</g>
<path d="M62.7782 51.7868C66.5505 47.3219 65.9891 40.6444 61.5243 36.8722C57.0595 33.1 50.382 33.6615 46.6097 38.1265C42.8374 42.5914 43.3987 49.2689 47.8636 53.0411C52.3284 56.8133 59.0059 56.2518 62.7782 51.7868Z" fill="#24774A"/>
<path opacity="0.4" d="M62.7782 51.7868C66.5505 47.3219 65.9891 40.6444 61.5243 36.8722C57.0595 33.1 50.382 33.6615 46.6097 38.1265C42.8374 42.5914 43.3987 49.2689 47.8636 53.0411C52.3284 56.8133 59.0059 56.2518 62.7782 51.7868Z" fill="black"/>
<path opacity="0.2" d="M61.5407 50.6248C64.6682 46.8421 64.137 41.2403 60.3543 38.1129C56.5716 34.9854 50.9699 35.5166 47.8424 39.2993C44.715 43.082 45.2462 48.6837 49.0288 51.8112C52.8115 54.9386 58.4133 54.4075 61.5407 50.6248Z" fill="black"/>
<path d="M61.8056 50.7071C64.6663 46.9638 63.951 41.6103 60.2078 38.7495C56.4645 35.8887 51.111 36.6041 48.2502 40.3473C45.3894 44.0905 46.1048 49.4441 49.848 52.3049C53.5912 55.1656 58.9448 54.4503 61.8056 50.7071Z" fill="#24774A"/>
<path opacity="0.4" d="M61.8056 50.7071C64.6663 46.9638 63.951 41.6103 60.2078 38.7495C56.4645 35.8887 51.111 36.6041 48.2502 40.3473C45.3894 44.0905 46.1048 49.4441 49.848 52.3049C53.5912 55.1656 58.9448 54.4503 61.8056 50.7071Z" fill="black"/>
<path d="M58.1905 45.8315L57.5882 48.2325C57.5415 48.4195 57.4303 48.5643 57.2556 48.6665C57.0809 48.7687 56.8972 48.7958 56.7048 48.7474L54.5928 48.2176L54.1686 49.9091C54.1202 50.1017 54.0104 50.2482 53.8393 50.3484C53.668 50.4489 53.4888 50.4753 53.3017 50.4285C53.1038 50.3789 52.9528 50.2695 52.8492 50.1001C52.7454 49.9309 52.7179 49.7501 52.7661 49.5574L53.1945 47.8494L51.099 47.3236C50.9119 47.2765 50.7666 47.1687 50.6627 46.9993C50.5591 46.8302 50.5314 46.6493 50.5796 46.4567C50.6277 46.2643 50.7364 46.1173 50.9049 46.0165C51.0735 45.9155 51.2541 45.8891 51.4464 45.9376L56.3473 47.1671L56.5976 46.1686L51.7133 44.9433C51.5206 44.8949 51.3736 44.7879 51.272 44.6221C51.1704 44.4564 51.1443 44.2744 51.1939 44.0764L51.7942 41.6835C51.8424 41.4912 51.9507 41.3445 52.1196 41.2434C52.2881 41.1423 52.4687 41.116 52.6611 41.1644L54.7404 41.6861L55.1646 39.9946C55.2116 39.8078 55.3166 39.6617 55.4804 39.5564C55.6439 39.4514 55.836 39.4265 56.0561 39.4816C56.2428 39.5284 56.387 39.6362 56.4878 39.8047C56.5889 39.9733 56.6152 40.1539 56.5668 40.3463L56.1426 42.0377L58.2712 42.5717C58.4635 42.6201 58.6128 42.7305 58.7186 42.9032C58.8244 43.076 58.8538 43.2557 58.8071 43.4428C58.7586 43.6354 58.6469 43.7841 58.4714 43.8894C58.2961 43.9944 58.1118 44.0227 57.9195 43.9745L53.0186 42.745L52.7703 43.7351L57.6546 44.9604C57.847 45.0085 57.9962 45.1194 58.102 45.2919C58.2076 45.4647 58.2373 45.6444 58.1905 45.8315Z" fill="#24774A"/>
<g opacity="0.7">
<path d="M58.1905 45.8315L57.5882 48.2325C57.5415 48.4195 57.4303 48.5643 57.2556 48.6665C57.0809 48.7687 56.8972 48.7958 56.7048 48.7474L54.5928 48.2176L54.1686 49.9091C54.1202 50.1017 54.0104 50.2482 53.8393 50.3484C53.668 50.4489 53.4888 50.4753 53.3017 50.4285C53.1038 50.3789 52.9528 50.2695 52.8492 50.1001C52.7454 49.9309 52.7179 49.7501 52.7661 49.5574L53.1945 47.8494L51.099 47.3236C50.9119 47.2765 50.7666 47.1687 50.6627 46.9993C50.5591 46.8302 50.5314 46.6493 50.5796 46.4567C50.6277 46.2643 50.7364 46.1173 50.9049 46.0165C51.0735 45.9155 51.2541 45.8891 51.4464 45.9376L56.3473 47.1671L56.5976 46.1686L51.7133 44.9433C51.5206 44.8949 51.3736 44.7879 51.272 44.6221C51.1704 44.4564 51.1443 44.2744 51.1939 44.0764L51.7942 41.6835C51.8424 41.4912 51.9507 41.3445 52.1196 41.2434C52.2881 41.1423 52.4687 41.116 52.6611 41.1644L54.7404 41.6861L55.1646 39.9946C55.2116 39.8078 55.3166 39.6617 55.4804 39.5564C55.6439 39.4514 55.836 39.4265 56.0561 39.4816C56.2428 39.5284 56.387 39.6362 56.4878 39.8047C56.5889 39.9733 56.6152 40.1539 56.5668 40.3463L56.1426 42.0377L58.2712 42.5717C58.4635 42.6201 58.6128 42.7305 58.7186 42.9032C58.8244 43.076 58.8538 43.2557 58.8071 43.4428C58.7586 43.6354 58.6469 43.7841 58.4714 43.8894C58.2961 43.9944 58.1118 44.0227 57.9195 43.9745L53.0186 42.745L52.7703 43.7351L57.6546 44.9604C57.847 45.0085 57.9962 45.1194 58.102 45.2919C58.2076 45.4647 58.2373 45.6444 58.1905 45.8315Z" fill="white"/>
</g>
<path d="M28.9128 108.914H28.6328V112.075H28.9128V108.914Z" fill="#24774A"/>
<path opacity="0.1" d="M28.9128 108.914H28.6328V112.075H28.9128V108.914Z" fill="black"/>
<path d="M111.37 83.8672H111.09V88.2002H111.37V83.8672Z" fill="#24774A"/>
<path d="M111.37 90.4688H111.09V92.8174H111.37V90.4688Z" fill="#24774A"/>
<path opacity="0.1" d="M111.37 83.8672H111.09V88.2002H111.37V83.8672Z" fill="black"/>
<path opacity="0.1" d="M111.37 90.4688H111.09V92.8174H111.37V90.4688Z" fill="black"/>
<path d="M106.175 115.863H33.8276C31.5097 115.863 29.6133 113.966 29.6133 111.649V69.3002C29.6133 66.9824 31.5097 65.0859 33.8276 65.0859H106.175C108.493 65.0859 110.389 66.9824 110.389 69.3002V111.649C110.389 113.966 108.493 115.863 106.175 115.863Z" fill="#24774A"/>
<path opacity="0.2" d="M106.175 115.863H33.8276C31.5097 115.863 29.6133 113.966 29.6133 111.649V69.3002C29.6133 66.9824 31.5097 65.0859 33.8276 65.0859H106.175C108.493 65.0859 110.389 66.9824 110.389 69.3002V111.649C110.389 113.966 108.493 115.863 106.175 115.863Z" fill="black"/>
<path d="M97.3118 82.7655C100.198 82.7655 102.538 80.4255 102.538 77.539C102.538 74.6525 100.198 72.3125 97.3118 72.3125H90.5663C87.6798 72.3125 85.3398 74.6525 85.3398 77.539C85.3398 80.4255 87.6798 82.7655 90.5663 82.7655H97.3118Z" fill="#24774A"/>
<path d="M51.7244 94.5349H39.2765C38.278 94.5349 37.4609 93.7178 37.4609 92.7193V84.5811C37.4609 83.5827 38.278 82.7656 39.2765 82.7656H51.7244C52.7229 82.7656 53.5399 83.5827 53.5399 84.5811V92.7193C53.5397 93.7178 52.7229 94.5349 51.7244 94.5349Z" fill="#24774A"/>
<path opacity="0.3" d="M51.7244 94.5349H39.2765C38.278 94.5349 37.4609 93.7178 37.4609 92.7193V84.5811C37.4609 83.5827 38.278 82.7656 39.2765 82.7656H51.7244C52.7229 82.7656 53.5399 83.5827 53.5399 84.5811V92.7193C53.5397 93.7178 52.7229 94.5349 51.7244 94.5349Z" fill="white"/>
<path d="M60.3442 73.6H38.7453C38.0389 73.6 37.4609 73.0221 37.4609 72.3156C37.4609 71.6092 38.0389 71.0312 38.7453 71.0312H60.3442C61.0507 71.0312 61.6289 71.6092 61.6289 72.3156C61.6286 73.0218 61.0507 73.6 60.3442 73.6Z" fill="#24774A"/>
<path opacity="0.3" d="M60.3442 73.6H38.7453C38.0389 73.6 37.4609 73.0221 37.4609 72.3156C37.4609 71.6092 38.0389 71.0312 38.7453 71.0312H60.3442C61.0507 71.0312 61.6289 71.6092 61.6289 72.3156C61.6286 73.0218 61.0507 73.6 60.3442 73.6Z" fill="white"/>
<path d="M49.0594 105.904H39.3453C38.3088 105.904 37.4609 105.056 37.4609 104.019V102.259C37.4609 101.223 38.3088 100.375 39.3453 100.375H49.0594C50.0957 100.375 50.9438 101.223 50.9438 102.259V104.019C50.9438 105.056 50.0959 105.904 49.0594 105.904Z" fill="#24774A"/>
<path opacity="0.3" d="M49.0594 105.904H39.3453C38.3088 105.904 37.4609 105.056 37.4609 104.019V102.259C37.4609 101.223 38.3088 100.375 39.3453 100.375H49.0594C50.0957 100.375 50.9438 101.223 50.9438 102.259V104.019C50.9438 105.056 50.0959 105.904 49.0594 105.904Z" fill="white"/>
<path d="M66.2586 105.904H56.5446C55.5083 105.904 54.6602 105.056 54.6602 104.019V102.259C54.6602 101.223 55.5083 100.375 56.5446 100.375H66.2586C67.2949 100.375 68.143 101.223 68.143 102.259V104.019C68.143 105.056 67.2949 105.904 66.2586 105.904Z" fill="#24774A"/>
<path opacity="0.3" d="M66.2586 105.904H56.5446C55.5083 105.904 54.6602 105.056 54.6602 104.019V102.259C54.6602 101.223 55.5083 100.375 56.5446 100.375H66.2586C67.2949 100.375 68.143 101.223 68.143 102.259V104.019C68.143 105.056 67.2949 105.904 66.2586 105.904Z" fill="white"/>
<path d="M83.4578 105.904H73.7438C72.7075 105.904 71.8594 105.056 71.8594 104.019V102.259C71.8594 101.223 72.7072 100.375 73.7438 100.375H83.4578C84.4941 100.375 85.3422 101.223 85.3422 102.259V104.019C85.3422 105.056 84.4941 105.904 83.4578 105.904Z" fill="#24774A"/>
<path opacity="0.3" d="M83.4578 105.904H73.7438C72.7075 105.904 71.8594 105.056 71.8594 104.019V102.259C71.8594 101.223 72.7072 100.375 73.7438 100.375H83.4578C84.4941 100.375 85.3422 101.223 85.3422 102.259V104.019C85.3422 105.056 84.4941 105.904 83.4578 105.904Z" fill="white"/>
<path d="M100.655 105.904H90.941C89.9045 105.904 89.0566 105.056 89.0566 104.019V102.259C89.0566 101.223 89.9045 100.375 90.941 100.375H100.655C101.692 100.375 102.539 101.223 102.539 102.259V104.019C102.539 105.056 101.691 105.904 100.655 105.904Z" fill="#24774A"/>
<path opacity="0.3" d="M100.655 105.904H90.941C89.9045 105.904 89.0566 105.056 89.0566 104.019V102.259C89.0566 101.223 89.9045 100.375 90.941 100.375H100.655C101.692 100.375 102.539 101.223 102.539 102.259V104.019C102.539 105.056 101.691 105.904 100.655 105.904Z" fill="white"/>
<path d="M82.0379 46.7085C81.3746 48.5817 80.6499 50.3939 79.857 52.2063C79.0511 54.0129 78.2094 55.8007 77.1396 57.5653C77.0049 57.7862 76.854 58.0079 76.7114 58.2286L76.6031 58.3941L76.4536 58.5976C76.3547 58.7253 76.2598 58.8393 76.1652 58.9471C75.7902 59.3727 75.4176 59.7238 75.0429 60.071C74.2967 60.7612 73.534 61.3895 72.764 62.0069C71.2198 63.2347 69.6403 64.3833 68.0012 65.473L67.0234 64.2592L71.1582 60.2001C71.8386 59.5258 72.5117 58.8446 73.1426 58.1647C73.4548 57.8257 73.7569 57.4771 74.0055 57.1576C74.066 57.0789 74.1209 57.0016 74.166 56.9339L74.2256 56.8395L74.3082 56.695C74.4177 56.5004 74.5311 56.3145 74.638 56.1143C75.4951 54.5035 76.25 52.7417 76.9772 50.9805C77.6998 49.2162 78.4057 47.415 79.0783 45.6406L82.0379 46.7085Z" fill="#E4897B"/>
<path d="M82.8278 45.3568C83.4629 47.2141 79.7291 52.6833 79.7291 52.6833L76.1484 50.7015C76.1484 50.7015 77.1231 47.9194 78.2988 45.7166C79.5605 43.3531 82.1309 43.3187 82.8278 45.3568Z" fill="#24774A"/>
<path opacity="0.7" d="M82.8278 45.3568C83.4629 47.2141 79.7291 52.6833 79.7291 52.6833L76.1484 50.7015C76.1484 50.7015 77.1231 47.9194 78.2988 45.7166C79.5605 43.3531 82.1309 43.3187 82.8278 45.3568Z" fill="white"/>
<path opacity="0.31" d="M82.8802 45.5937C82.0794 45.2084 81.1557 45.5307 80.186 47.0648C79.2287 48.583 78.3873 51.1626 78.2969 51.894L79.7277 52.6853C79.7277 52.6853 83.175 47.6349 82.8802 45.5937Z" fill="#24774A"/>
<path d="M80.4103 43.9345C80.4103 43.9345 77.743 50.2029 79.6649 61.8767C83.0103 61.8767 89.1398 61.8767 90.7677 61.8767C90.9032 60.1723 90.1209 51.8583 92.0431 43.8276C92.0431 43.8276 90.1531 43.4457 88.3426 43.3583C86.9264 43.29 84.874 43.2446 83.623 43.3586C81.9738 43.5087 80.4103 43.9345 80.4103 43.9345Z" fill="#24774A"/>
<path opacity="0.7" d="M80.4103 43.9345C80.4103 43.9345 77.743 50.2029 79.6649 61.8767C83.0103 61.8767 89.1398 61.8767 90.7677 61.8767C90.9032 60.1723 90.1209 51.8583 92.0431 43.8276C92.0431 43.8276 90.1531 43.4457 88.3426 43.3583C86.9264 43.29 84.874 43.2446 83.623 43.3586C81.9738 43.5087 80.4103 43.9345 80.4103 43.9345Z" fill="white"/>
<path d="M94.699 111.613L93.0531 113.086L89.9219 109.824L91.5674 108.352L94.699 111.613Z" fill="#E4897B"/>
<path d="M89.064 114.674H86.9884L86.7188 109.867H88.7944L89.064 114.674Z" fill="#E4897B"/>
<path d="M89.9238 109.825L91.5375 111.506L93.1842 110.033L91.5702 108.352L89.9238 109.825Z" fill="#CE6F64"/>
<path d="M88.7952 109.875H86.7188L86.8588 112.353H88.9352L88.7952 109.875Z" fill="#CE6F64"/>
<path d="M79.6662 61.8753C79.6662 61.8753 77.4796 77.0115 76.7332 85.2511C76.1342 91.8599 90.4282 111.58 90.4282 111.58L93.1935 108.978C93.1935 108.978 82.7529 91.3069 83.5565 83.9491C84.3349 76.822 86.9739 61.875 86.9739 61.875H79.6662V61.8753Z" fill="#24774A"/>
<path opacity="0.7" d="M79.6662 61.8753C79.6662 61.8753 77.4796 77.0115 76.7332 85.2511C76.1342 91.8599 90.4282 111.58 90.4282 111.58L93.1935 108.978C93.1935 108.978 82.7529 91.3069 83.5565 83.9491C84.3349 76.822 86.9739 61.875 86.9739 61.875H79.6662V61.8753Z" fill="black"/>
<path opacity="0.2" d="M83.5575 83.9488C83.9579 80.278 84.8539 74.5268 85.6239 69.8172C85.2207 69.0276 84.0901 67.4297 84.0901 67.4297C83.0765 70.9325 80.8734 84.1364 84.0167 101.97C87.2927 107.25 90.4287 111.579 90.4287 111.579L90.8571 104.77C87.8303 99.0744 83.0003 89.042 83.5575 83.9488Z" fill="black"/>
<path d="M83.6143 61.875C83.6143 61.875 83.4166 77.7387 83.7534 83.6817C84.1222 90.1897 85.9682 111.751 85.9682 111.751H89.7701C89.7701 111.751 89.6567 90.7153 89.8857 84.2716C90.1344 77.2781 90.7784 61.875 90.7784 61.875H83.6143Z" fill="#24774A"/>
<path opacity="0.7" d="M83.6143 61.875C83.6143 61.875 83.4166 77.7387 83.7534 83.6817C84.1222 90.1897 85.9682 111.751 85.9682 111.751H89.7701C89.7701 111.751 89.6567 90.7153 89.8857 84.2716C90.1344 77.2781 90.7784 61.875 90.7784 61.875H83.6143Z" fill="black"/>
<path d="M86.8806 114.438H89.2127C89.2976 114.438 89.3617 114.496 89.3667 114.579L89.4799 116.424C89.4916 116.616 89.3119 116.797 89.1164 116.793C88.3044 116.779 87.9166 116.732 86.891 116.732C86.2601 116.732 83.5777 116.797 82.7064 116.797C81.8541 116.797 81.8599 115.935 82.2293 115.857C83.8849 115.507 85.937 115.025 86.5231 114.565C86.6289 114.482 86.7566 114.438 86.8806 114.438Z" fill="#263238"/>
<path d="M92.599 112.492L94.5996 111.145C94.6744 111.095 94.7696 111.098 94.8287 111.152L96.3577 112.695C96.4935 112.82 96.4493 113.036 96.2841 113.163C95.0079 114.146 94.0858 114.888 93.3595 115.705C92.5103 116.661 92.0645 116.796 90.1045 116.796C89.1979 116.796 88.6852 116.032 89.0545 115.915C92.3213 114.881 91.4479 114.431 92.2412 112.916C92.3271 112.752 92.4408 112.599 92.599 112.492Z" fill="#263238"/>
<path d="M67.5121 63.9922L65.3477 64.07L65.801 65.7657C65.801 65.7657 68.0642 65.9662 68.2658 65.2844L67.5121 63.9922Z" fill="#E4897B"/>
<path d="M63.0117 65.0797L64.5279 65.9664L65.8 65.766L65.3466 64.0703L63.0117 65.0797Z" fill="#E4897B"/>
<path opacity="0.31" d="M89.5638 45.8087C89.3331 47.1303 89.6402 50.2924 90.7723 53.9464C90.8736 51.1343 91.1559 47.8737 91.8626 44.6249L91.8632 44.6092C91.134 44.5345 89.7839 44.57 89.5638 45.8087Z" fill="#24774A"/>
<path d="M88.0611 38.0469C87.7109 39.5656 87.3172 42.348 88.3445 43.3613C88.3445 43.3613 87.9013 44.6193 85.0794 44.6193C81.9767 44.6193 83.6248 43.3613 83.6248 43.3613C85.3323 42.957 85.3323 41.7003 85.078 40.5204L88.0611 38.0469Z" fill="#E4897B"/>
<path d="M84.9943 44.6172L84.1562 45.5104L84.5667 46.3714L85.2348 46.4036L85.8069 45.5804L84.9943 44.6172Z" fill="#24774A"/>
<path d="M86.8438 39.0547L85.0781 40.5177C85.1392 40.7968 85.1845 41.0802 85.1946 41.3555C85.8448 41.2619 86.7581 40.5518 86.8502 39.8745C86.8964 39.5369 86.8934 39.212 86.8438 39.0547Z" fill="#CE6F64"/>
<path d="M84.38 32.8966C83.3166 33.2578 82.4701 36.0715 83.7066 36.8146C84.9431 37.5577 86.394 32.2125 84.38 32.8966Z" fill="#263238"/>
<path d="M88.725 36.4556C88.0925 38.422 87.8228 39.6017 86.5469 40.403C84.6278 41.6082 82.3813 40.1527 82.4104 38.058C82.4365 36.1725 83.4666 33.2734 85.6355 32.9102C87.7722 32.5521 89.3575 34.4889 88.725 36.4556Z" fill="#E4897B"/>
<path d="M90.2894 33.1784C89.6583 34.7053 91.1325 33.4299 90.7511 35.2423C90.5022 36.4256 88.3708 39.2564 87.5465 38.998C86.7222 38.7393 86.7326 36.7345 87.7831 35.3143C88.3857 34.4995 87.0778 33.5758 84.1384 33.6721C81.1992 33.7684 79.4257 32.1195 83.3303 30.9062C83.3303 30.9062 81.8914 31.7384 82.7456 32.0417C83.9566 32.4715 91.5556 30.1152 90.2894 33.1784Z" fill="#263238"/>
<path d="M89.7313 33.8885C89.7025 33.8751 90.3896 33.7169 90.7564 32.5C90.7564 32.5 90.6377 34.311 89.7313 33.8885Z" fill="#263238"/>
<path d="M84.237 31.1797C82.4313 31.7506 83.1786 32.37 83.9253 32.5254L85.6381 31.8545C83.0366 32.1843 84.237 31.1797 84.237 31.1797Z" fill="#263238"/>
<path d="M89.07 38.8479C88.6679 39.2438 88.1236 39.4255 87.6638 39.4252C86.9722 39.4249 86.8328 38.7709 87.1979 38.2235C87.5266 37.7307 88.2826 37.1371 88.8936 37.4008C89.4956 37.6609 89.5295 38.3951 89.07 38.8479Z" fill="#E4897B"/>
<path d="M85.5342 36.3394C85.4927 36.5018 85.3723 36.6143 85.2654 36.5908C85.1584 36.5673 85.1055 36.4169 85.1469 36.2545C85.1884 36.0921 85.3088 35.9796 85.4157 36.0031C85.5227 36.0263 85.5756 36.177 85.5342 36.3394Z" fill="#263238"/>
<path d="M83.6862 35.9409C83.6448 36.1033 83.5244 36.2159 83.4177 36.1924C83.3107 36.1691 83.2578 36.0185 83.2993 35.8561C83.3407 35.6937 83.4611 35.5811 83.5681 35.6047C83.6747 35.6282 83.7277 35.7785 83.6862 35.9409Z" fill="#263238"/>
<path d="M84.2531 36.1484C84.2531 36.1484 83.6422 37.0036 83.1172 37.3659C83.3381 37.6971 83.8614 37.6823 83.8614 37.6823L84.2531 36.1484Z" fill="#DE5753"/>
<path d="M84.5694 38.2709C84.4624 38.2709 84.3482 38.2596 84.2264 38.233C84.1998 38.2274 84.183 38.2011 84.1886 38.1745C84.1945 38.1479 84.2213 38.1311 84.2471 38.137C84.967 38.2938 85.4293 37.869 85.4337 37.8648C85.4539 37.8464 85.485 37.8472 85.5032 37.8671C85.5217 37.887 85.5208 37.9181 85.5009 37.9365C85.4844 37.9525 85.1375 38.2709 84.5694 38.2709Z" fill="#263238"/>
<path d="M86.2683 35.8767C86.2302 35.8767 86.1941 35.8546 86.1782 35.8176C86.0088 35.4282 85.6604 35.3694 85.6459 35.3671C85.5927 35.3587 85.5557 35.3089 85.5635 35.2554C85.5717 35.2019 85.6193 35.1655 85.6747 35.1728C85.6937 35.1756 86.1445 35.247 86.3585 35.7398C86.38 35.7896 86.3571 35.8473 86.3072 35.8692C86.2946 35.8739 86.2812 35.8767 86.2683 35.8767Z" fill="#263238"/>
<path d="M83.0632 35.1327C83.0411 35.1327 83.0187 35.1251 83.0002 35.1097C82.9585 35.075 82.9529 35.0128 82.9876 34.9711C83.3396 34.55 83.7915 34.5858 83.8114 34.5872C83.8651 34.5923 83.9052 34.6399 83.9001 34.6939C83.8951 34.7477 83.8481 34.7877 83.7937 34.783C83.7761 34.7818 83.4211 34.7583 83.1383 35.0971C83.1195 35.1206 83.0915 35.1327 83.0632 35.1327Z" fill="#263238"/>
<path d="M92.5802 45.2578C92.7997 45.5966 92.9834 45.8954 93.1668 46.2199C93.3502 46.5385 93.5277 46.8589 93.7005 47.182C94.0437 47.8296 94.3655 48.4899 94.6603 49.1666C95.2447 50.5229 95.7548 51.9313 96.0483 53.4635L96.0771 53.606L96.0914 53.6774L96.111 53.7942C96.1381 53.9641 96.1446 54.1179 96.1465 54.2679C96.1449 54.5619 96.1099 54.8195 96.0614 55.057C95.9601 55.5293 95.8128 55.9292 95.6526 56.3047C95.3331 57.0537 94.9381 57.6991 94.5343 58.3249C93.7069 59.5653 92.7927 60.6682 91.7682 61.7207L90.5401 60.7609C91.2197 59.5779 91.8936 58.3529 92.4595 57.1508C92.7454 56.5527 92.9926 55.9423 93.169 55.3751C93.2553 55.0928 93.3155 54.8176 93.3334 54.5969C93.3432 54.488 93.3432 54.3942 93.3342 54.3368C93.3283 54.3116 93.3239 54.2892 93.3183 54.2864C93.316 54.2814 93.3191 54.2929 93.3135 54.2738L93.2967 54.217L93.2634 54.1033C93.1018 53.5002 92.868 52.8898 92.6334 52.2822C92.3873 51.6754 92.1115 51.0703 91.8245 50.4686C91.5316 49.8683 91.2233 49.2711 90.9049 48.6786C90.747 48.3818 90.5846 48.0867 90.418 47.7957L89.9258 46.9462L92.5802 45.2578Z" fill="#E4897B"/>
<path d="M86.143 114.8C85.9817 114.8 85.8352 114.772 85.7526 114.69C85.6877 114.626 85.667 114.537 85.6919 114.427C85.7067 114.36 85.7456 114.312 85.8047 114.289C86.0612 114.189 86.647 114.592 86.713 114.637C86.729 114.649 86.7368 114.668 86.7332 114.687C86.7293 114.706 86.715 114.721 86.696 114.726C86.5473 114.76 86.3348 114.8 86.143 114.8ZM85.9008 114.371C85.8778 114.371 85.8579 114.374 85.8408 114.381C85.8229 114.388 85.7983 114.402 85.7876 114.448C85.7708 114.524 85.7818 114.581 85.8218 114.62C85.9178 114.716 86.19 114.727 86.5607 114.654C86.3502 114.521 86.0604 114.371 85.9008 114.371Z" fill="white"/>
<path d="M86.6867 114.729C86.678 114.729 86.669 114.726 86.6615 114.722C86.4545 114.599 86.1446 114.165 86.1925 113.938C86.2104 113.855 86.2728 113.803 86.3689 113.791C86.4478 113.782 86.5181 113.804 86.5744 113.859C86.7841 114.061 86.7376 114.658 86.7354 114.684C86.734 114.701 86.7239 114.715 86.7088 114.723C86.7018 114.727 86.6942 114.729 86.6867 114.729ZM86.4027 113.887C86.3957 113.887 86.3879 113.888 86.3803 113.889C86.3106 113.897 86.2947 113.93 86.2888 113.958C86.2577 114.106 86.4624 114.434 86.6424 114.586C86.6483 114.389 86.6309 114.049 86.5066 113.929C86.4769 113.901 86.4428 113.887 86.4027 113.887Z" fill="white"/>
<path d="M91.2573 113.623C91.2015 113.623 91.1506 113.615 91.1072 113.597C91.031 113.565 90.9809 113.507 90.9588 113.423C90.9453 113.372 90.956 113.324 90.9893 113.284C91.1772 113.058 92.1611 113.125 92.2725 113.133C92.2941 113.134 92.312 113.15 92.3168 113.17C92.3218 113.191 92.3123 113.213 92.2938 113.224C92.0214 113.384 91.5625 113.623 91.2573 113.623ZM91.8528 113.216C91.5067 113.216 91.1469 113.248 91.0649 113.347C91.0517 113.363 91.0484 113.378 91.0537 113.398C91.0677 113.451 91.0974 113.487 91.1447 113.506C91.3012 113.571 91.6532 113.465 92.0995 113.221C92.0211 113.218 91.9374 113.216 91.8528 113.216Z" fill="white"/>
<path d="M92.2687 113.226H92.2676C91.9814 113.219 91.3564 113.011 91.308 112.786C91.2962 112.731 91.3102 112.653 91.4424 112.589C91.9251 112.361 92.2972 113.123 92.3126 113.155C92.3199 113.171 92.3191 113.189 92.3096 113.203C92.3012 113.217 92.2855 113.226 92.2687 113.226ZM91.6213 112.646C91.5768 112.646 91.5314 112.656 91.4852 112.678C91.4253 112.707 91.3982 112.736 91.4046 112.765C91.4329 112.897 91.8845 113.081 92.1822 113.12C92.0937 112.968 91.8761 112.646 91.6213 112.646Z" fill="white"/>
<path d="M91.0943 60.3054L89.0273 59.9453L90.088 62.3376C90.088 62.3376 91.9746 62.3267 91.8881 61.3543L91.0943 60.3054Z" fill="#E4897B"/>
<path d="M87.4863 61.1476L88.4571 63.0805L90.0889 62.3376L89.028 59.9453L87.4863 61.1476Z" fill="#E4897B"/>
<path d="M93.3612 108.823L90.2599 111.742L89.2617 110.669L92.8082 107.438L93.3612 108.823Z" fill="#24774A"/>
<path opacity="0.6" d="M93.3612 108.823L90.2599 111.742L89.2617 110.669L92.8082 107.438L93.3612 108.823Z" fill="white"/>
<path d="M89.9223 111.755H85.8139L85.5859 110.312L90.1203 110.538L89.9223 111.755Z" fill="#24774A"/>
<path opacity="0.6" d="M89.9223 111.755H85.8139L85.5859 110.312L90.1203 110.538L89.9223 111.755Z" fill="white"/>
<path d="M92.0438 43.8271C93.9979 44.1127 96.0111 50.9181 96.0111 50.9181L91.8055 53.248C91.8055 53.248 90.1011 50.0112 89.2886 47.6077C88.4374 45.0894 89.948 43.5208 92.0438 43.8271Z" fill="#24774A"/>
<path opacity="0.7" d="M92.0438 43.8271C93.9979 44.1127 96.0111 50.9181 96.0111 50.9181L91.8055 53.248C91.8055 53.248 90.1011 50.0112 89.2886 47.6077C88.4374 45.0894 89.948 43.5208 92.0438 43.8271Z" fill="white"/>
<path opacity="0.2" d="M84.9943 44.6172L84.1562 45.5104L84.5667 46.3714L85.2348 46.4036L85.8069 45.5804L84.9943 44.6172Z" fill="black"/>
<path d="M84.6418 46.2188C84.6418 46.2188 83.0478 52.8181 82.9851 54.1898C82.8991 56.0759 83.689 59.2998 83.689 59.2998C83.689 59.2998 84.809 56.6205 85.0383 54.1316C85.2643 51.6785 85.0965 47.616 85.2015 46.2188H84.6418Z" fill="#24774A"/>
<path opacity="0.2" d="M84.6418 46.2188C84.6418 46.2188 83.0478 52.8181 82.9851 54.1898C82.8991 56.0759 83.689 59.2998 83.689 59.2998C83.689 59.2998 84.809 56.6205 85.0383 54.1316C85.2643 51.6785 85.0965 47.616 85.2015 46.2188H84.6418Z" fill="black"/>
<path d="M84.9961 44.6187C85.5074 45.3674 85.5359 46.3284 85.5359 46.3284C85.5359 46.3284 89.0284 45.0964 88.8654 43.2912C88.8654 43.2912 88.3698 42.9969 88.0548 42.7578C88.0548 42.7578 87.9361 43.8957 84.9961 44.6187Z" fill="#24774A"/>
<path opacity="0.6" d="M84.9961 44.6187C85.5074 45.3674 85.5359 46.3284 85.5359 46.3284C85.5359 46.3284 89.0284 45.0964 88.8654 43.2912C88.8654 43.2912 88.3698 42.9969 88.0548 42.7578C88.0548 42.7578 87.9361 43.8957 84.9961 44.6187Z" fill="white"/>
<path d="M84.9964 44.6162C84.4848 45.3649 84.3154 46.2175 84.3154 46.2175C84.3154 46.2175 82.7332 45.1468 83.208 43.3623C83.208 43.3623 83.6546 43.1753 84.1021 43.0781C84.1021 43.0781 83.8946 44.23 84.9964 44.6162Z" fill="#24774A"/>
<path opacity="0.6" d="M84.9964 44.6162C84.4848 45.3649 84.3154 46.2175 84.3154 46.2175C84.3154 46.2175 82.7332 45.1468 83.208 43.3623C83.208 43.3623 83.6546 43.1753 84.1021 43.0781C84.1021 43.0781 83.8946 44.23 84.9964 44.6162Z" fill="white"/>
</svg>
