<svg width="150" height="150" viewBox="0 0 150 150" fill="none" xmlns="http://www.w3.org/2000/svg">
<path d="M150 114.719H0V114.794H150V114.719Z" fill="#D3F8DB"/>
<path d="M134.972 119.547H125.035V119.622H134.972V119.547Z" fill="#D3F8DB"/>
<path d="M99.3657 120.359H96.7578V120.434H99.3657V120.359Z" fill="#D3F8DB"/>
<path d="M124.734 116.758H118.977V116.833H124.734V116.758Z" fill="#D3F8DB"/>
<path d="M28.6962 117.266H15.7383V117.341H28.6962V117.266Z" fill="#D3F8DB"/>
<path d="M33.2671 117.266H31.3672V117.341H33.2671V117.266Z" fill="#D3F8DB"/>
<path d="M67.5442 118.531H39.4414V118.606H67.5442V118.531Z" fill="#D3F8DB"/>
<path d="M71.105 101.339H13.1753C12.2312 101.339 11.4629 100.57 11.4629 99.6264V18.1968C11.4629 17.2527 12.2312 16.4844 13.1753 16.4844H71.105C72.0488 16.4844 72.8171 17.2527 72.8171 18.1968V99.6264C72.8171 100.57 72.0488 101.339 71.105 101.339ZM13.1753 16.5597C12.2723 16.5597 11.5379 17.2941 11.5379 18.1971V99.6267C11.5379 100.53 12.2723 101.264 13.1753 101.264H71.105C72.0077 101.264 72.7421 100.53 72.7421 99.6267V18.1968C72.7421 17.2941 72.0077 16.5594 71.105 16.5594L13.1753 16.5597Z" fill="#D3F8DB"/>
<path d="M135.993 101.339H78.0637C77.1196 101.339 76.3516 100.57 76.3516 99.6264V18.1968C76.3516 17.2527 77.1199 16.4844 78.0637 16.4844H135.993C136.937 16.4844 137.705 17.2527 137.705 18.1968V99.6264C137.706 100.57 136.937 101.339 135.993 101.339ZM78.0637 16.5597C77.161 16.5597 76.4266 17.2941 76.4266 18.1971V99.6267C76.4266 100.53 77.161 101.264 78.0637 101.264H135.993C136.896 101.264 137.63 100.53 137.63 99.6267V18.1968C137.63 17.2941 136.896 16.5594 135.993 16.5594L78.0637 16.5597Z" fill="#D3F8DB"/>
<path d="M131.81 41.6409L122.383 36.1562H115.119L105.535 41.3811V76.9271H131.81V41.6409Z" fill="#E0E0E0"/>
<path d="M105.262 41.6409L105.533 41.3811C109.038 38.0118 113.656 36.1562 118.535 36.1562C123.414 36.1562 128.032 38.0121 131.537 41.3811L131.808 41.6409V76.9271H105.262V41.6409H105.262ZM130.047 42.3963C126.906 39.5049 122.832 37.917 118.535 37.917C114.238 37.917 110.165 39.5049 107.023 42.3963V75.1658H130.047V42.3963H130.047Z" fill="#F7FFFA"/>
<path d="M119.198 75.3762H117.877V63.5796H106.691V62.259H117.877V50.1933H106.691V48.8727H117.877V37.6875H119.198V48.8727H130.382V50.1933H119.198V62.259H130.382V63.5796H119.198V75.3762Z" fill="#EEFFF2"/>
<path d="M104.383 41.2777L104.641 41.0197C112.303 33.358 124.77 33.358 132.432 41.0197L132.69 41.2777V77.8039H104.383V41.2777H104.383ZM130.929 42.0121C124.021 35.3731 113.052 35.3734 106.144 42.0121V76.0429H130.929V42.0121Z" fill="#EEFFF2"/>
<path d="M22.6209 44.7564C22.6209 44.7564 22.3644 43.0656 23.5977 41.9814C24.831 40.8972 24.7224 40.2525 24.3702 40.1682C24.018 40.0842 23.6925 41.1681 23.1507 41.4663C23.1507 41.4663 23.1336 39.9213 23.6841 39.3522C24.2349 38.7831 24.5238 37.3167 23.9997 37.2909C23.4756 37.2651 23.4216 38.1618 23.313 38.7975C23.2047 39.4332 22.6209 40.3278 22.6209 40.3278C22.6209 40.3278 22.5069 38.9454 22.1511 38.3763C21.7953 37.8072 22.7439 36.5061 22.3779 35.937C22.0119 35.3679 21.3615 36.4521 21.4158 37.6716C21.4701 38.8911 22.2831 40.1922 22.0935 41.466C22.0935 41.466 21.7347 40.5717 21.4128 40.4904C21.0906 40.4091 20.7654 39.8175 20.5488 39.5982C20.3319 39.3789 20.061 40.1379 20.5488 40.8426C21.0366 41.5473 22.2834 43.4325 22.0938 44.9565L22.6209 44.7564Z" fill="#5BC17F"/>
<path d="M23.3581 43.9844L23.7619 46.5185C23.8867 47.3012 23.2819 48.0098 22.4893 48.0098H22.0585C21.2659 48.0098 20.6611 47.3012 20.7859 46.5185L21.1897 43.9844H23.3581Z" fill="#5BC17F"/>
<path d="M17.251 48.5469H45.7969V47.0802H17.251V48.5469Z" fill="#E0E0E0"/>
<path d="M43.2248 47.0781H44.4824V41.6718H43.2248V47.0781Z" fill="#D3F8DB"/>
<path d="M37.1447 47.0781H38.4023V41.6718H37.1447V47.0781Z" fill="#D3F8DB"/>
<path d="M29.3192 46.8646L30.5586 47.0781L31.4766 41.7502L30.2372 41.5367L29.3192 46.8646Z" fill="#D3F8DB"/>
<path d="M41.6662 47.0781H42.9238V42.3843H41.6662V47.0781Z" fill="#D3F8DB"/>
<path d="M38.7756 47.0781H40.0332V42.3843H38.7756V47.0781Z" fill="#D3F8DB"/>
<path d="M31.4807 47.0781H32.7383V42.3843H31.4807V47.0781Z" fill="#D3F8DB"/>
<path d="M34.4735 46.8054L35.7012 47.0781L36.7193 42.496L35.4916 42.2233L34.4735 46.8054Z" fill="#D3F8DB"/>
<path d="M40.5782 47.0781H41.207V41.4033H40.5782V47.0781Z" fill="#D3F8DB"/>
<path d="M33.0978 47.0781H33.7266V41.4033H33.0978V47.0781Z" fill="#D3F8DB"/>
<path d="M45.7959 58.0234H17.25V59.4901H45.7959V58.0234Z" fill="#E0E0E0"/>
<path d="M19.8201 52.6172H18.5625V58.0235H19.8201V52.6172Z" fill="#D3F8DB"/>
<path d="M25.9021 52.6172H24.6445V58.0235H25.9021V52.6172Z" fill="#D3F8DB"/>
<path d="M32.8097 52.4816L31.5703 52.6953L32.4888 58.0232L33.7282 57.8096L32.8097 52.4816Z" fill="#D3F8DB"/>
<path d="M21.3787 53.3359H20.1211V58.0297H21.3787V53.3359Z" fill="#D3F8DB"/>
<path d="M24.2693 53.3359H23.0117V58.0297H24.2693V53.3359Z" fill="#D3F8DB"/>
<path d="M31.5662 53.3359H30.3086V58.0297H31.5662V53.3359Z" fill="#D3F8DB"/>
<path d="M27.5558 53.1725L26.3281 53.4453L27.3462 58.0274L28.5739 57.7546L27.5558 53.1725Z" fill="#D3F8DB"/>
<path d="M22.4686 52.3516H21.8398V58.0264H22.4686V52.3516Z" fill="#D3F8DB"/>
<path d="M29.9472 52.3516H29.3184V58.0264H29.9472V52.3516Z" fill="#D3F8DB"/>
<path d="M43.0575 53.75H36.9297V57.9806H43.0575V53.75Z" fill="#D3F8DB"/>
<path d="M73.9177 38.7494C77.0306 38.7494 79.5541 36.2259 79.5541 33.113C79.5541 30.0001 77.0306 27.4766 73.9177 27.4766C70.8048 27.4766 68.2812 30.0001 68.2812 33.113C68.2812 36.2259 70.8048 38.7494 73.9177 38.7494Z" fill="#E0E0E0"/>
<path d="M73.9175 37.9055C76.5643 37.9055 78.71 35.7598 78.71 33.113C78.71 30.4661 76.5643 28.3205 73.9175 28.3205C71.2707 28.3205 69.125 30.4661 69.125 33.113C69.125 35.7598 71.2707 37.9055 73.9175 37.9055Z" fill="#EEFFF2"/>
<path d="M73.6927 29.8281V33.1782L71.4727 31.9218" fill="#EEFFF2"/>
<path d="M73.6927 29.8281V33.1782L71.4727 31.9218" stroke="#E0E0E0" stroke-width="1.5953" stroke-miterlimit="10" stroke-linecap="round" stroke-linejoin="round"/>
<path d="M74.9987 128.27C107.123 128.27 133.165 126.75 133.165 124.873C133.165 122.997 107.123 121.477 74.9987 121.477C42.8742 121.477 16.832 122.997 16.832 124.873C16.832 126.75 42.8742 128.27 74.9987 128.27Z" fill="white"/>
<path d="M92.9375 123.919V84.6641H90.2555V123.919L88.5488 124.443V125.255H94.6442V124.443L92.9375 123.919Z" fill="#2E353A"/>
<path d="M58.8028 84.6641H56.1208V123.919L54.4141 124.443V125.255H60.5098V124.443L58.8028 123.919V84.6641Z" fill="#2E353A"/>
<g opacity="0.2">
<path d="M92.9375 87.8359H90.2555V123.921L88.5488 124.446V125.257H94.6442V124.446L92.9375 123.921V87.8359Z" fill="white"/>
<path d="M58.8028 87.8359H56.1208V123.921L54.4141 124.446V125.257H60.5098V124.446L58.8028 123.921V87.8359Z" fill="white"/>
</g>
<path d="M101.229 85.642L101.229 42.2422L47.8321 42.2422L47.8321 85.642H101.229Z" fill="#2E353A"/>
<path opacity="0.2" d="M101.229 85.642L101.229 42.2422L47.8321 42.2422L47.8321 85.642H101.229Z" fill="white"/>
<path d="M100.042 43.4453H49.0195V84.4124H100.042V43.4453Z" fill="#24774A"/>
<path opacity="0.3" d="M100.042 43.4453H49.0195V84.4124H100.042V43.4453Z" fill="white"/>
<path opacity="0.6" d="M100.042 43.4453H49.0195V84.4124H100.042V43.4453Z" fill="white"/>
<g opacity="0.4">
<path d="M73.9305 45.3281C74.5449 50.6666 74.3469 54.2636 73.9305 59.6213C73.8417 60.7628 74.3439 63.6323 74.2542 64.7738C74.1396 66.2348 74.1435 67.7024 74.148 69.1682C74.1609 73.6685 74.1741 78.1685 74.187 82.6688" stroke="black" stroke-miterlimit="10" stroke-linecap="round" stroke-linejoin="round"/>
<path d="M52.2269 50.8594C52.1429 51.8371 52.0586 52.8148 51.9746 53.7925" stroke="black" stroke-miterlimit="10" stroke-linecap="round" stroke-linejoin="round"/>
<path d="M52.8891 50.3438C52.9626 50.3654 53.0136 50.4305 53.0562 50.4941C53.5815 51.2753 53.5719 52.286 53.5431 53.2268C53.5374 53.4101 53.5317 53.5955 53.4801 53.7716C53.334 54.2717 52.8606 54.5927 52.4199 54.8714" stroke="black" stroke-miterlimit="10" stroke-linecap="round" stroke-linejoin="round"/>
<path d="M55.3398 52.645C55.7352 52.4563 56.1303 52.2679 56.5257 52.0792C56.4435 52.4752 56.9964 52.7539 57.366 52.5895C57.7356 52.4251 57.9306 52.0255 58.0959 51.6562C58.1583 51.8755 58.2204 52.0948 58.2825 52.3141C58.6911 52.4293 59.1393 52.3987 59.5284 52.2289C59.5431 52.4392 59.802 52.549 60.0102 52.5172C60.2184 52.4854 60.4026 52.3648 60.6069 52.3129C61.0134 52.2097 61.4304 52.3877 61.8375 52.4885C62.2446 52.5893 62.7555 52.574 62.9841 52.2221C63.1602 52.6967 63.7878 52.7734 64.2942 52.7713C66.1668 52.7635 68.0397 52.756 69.9123 52.7482" stroke="black" stroke-miterlimit="10" stroke-linecap="round" stroke-linejoin="round"/>
<path d="M55.1055 58.3828C55.3383 58.6156 55.8591 58.2853 56.0223 58.5712C56.0847 58.6807 56.052 58.84 56.1495 58.9198C56.2569 59.0077 56.4189 58.9162 56.5053 58.8076C56.592 58.699 56.6694 58.5607 56.8056 58.5334C56.988 58.4968 57.1329 58.6798 57.3054 58.7497C57.5976 58.8682 57.9042 58.6495 58.1976 58.5343C58.9809 58.2265 59.8446 58.6672 60.6855 58.7002C61.1778 58.7194 61.6635 58.597 62.1408 58.4755" stroke="black" stroke-miterlimit="10" stroke-linecap="round" stroke-linejoin="round"/>
<path d="M64.541 57.7415C64.6619 57.4808 64.8233 57.2219 65.0756 57.0845C65.5073 56.8496 66.1034 57.0863 66.3164 57.5291C66.5294 57.9722 66.383 58.538 66.0284 58.8782C65.7671 59.1287 65.3648 59.3945 65.4812 59.7374" stroke="black" stroke-miterlimit="10" stroke-linecap="round" stroke-linejoin="round"/>
<path d="M65.5673 60.7578C65.4815 60.8655 65.4215 60.9939 65.3945 61.1289C65.5013 61.1838 65.6396 61.17 65.7338 61.0956" stroke="black" stroke-miterlimit="10" stroke-linecap="round" stroke-linejoin="round"/>
<path d="M51.8994 66.8898C52.0647 66.81 52.2582 66.7911 52.4358 66.8373C52.5003 67.2678 52.5543 67.746 52.3056 68.1033C52.1133 68.3793 51.7581 68.5494 51.6738 68.8752C51.9564 68.9082 52.242 68.9157 52.5258 68.8974" stroke="black" stroke-miterlimit="10" stroke-linecap="round" stroke-linejoin="round"/>
<path d="M53.2256 66.5234C53.7161 66.8291 53.9717 67.4378 53.9339 68.0144C53.8961 68.591 53.5961 69.1289 53.1875 69.5378" stroke="black" stroke-miterlimit="10" stroke-linecap="round" stroke-linejoin="round"/>
<path d="M55.375 68.5453C55.5172 68.3818 55.6597 68.2186 55.8019 68.0551C56.0494 68.4706 56.7772 68.4379 56.986 68.0017C56.9833 68.3548 57.4435 68.5531 57.7783 68.4403C58.1131 68.3275 58.3423 68.0281 58.5709 67.759C58.7995 67.4899 59.0836 67.219 59.4364 67.2031C59.4571 67.582 59.4778 67.9609 59.4985 68.3398C59.6428 68.0719 59.8378 67.8319 60.0703 67.6357C60.1771 67.8412 60.2497 68.0644 60.2848 68.2933C60.4876 68.0143 60.6904 67.7353 60.8932 67.456C61.0564 67.6996 61.1647 67.9801 61.2076 68.2702C61.456 68.1928 61.6882 68.0647 61.8865 67.8961C61.975 68.0317 62.0614 68.1685 62.146 68.3065C62.002 68.0725 62.3404 67.7779 62.5999 67.8682C62.8594 67.9585 62.9848 68.2546 63.0202 68.527C64.0375 68.5294 65.0512 68.1574 65.8258 67.4977C65.8459 67.8658 65.8657 68.2342 65.8858 68.6023C67.3657 68.6431 68.8495 68.5477 70.3123 68.3182" stroke="black" stroke-miterlimit="10" stroke-linecap="round" stroke-linejoin="round"/>
<path d="M55.3652 72.9975C55.4459 73.1556 55.5263 73.3138 55.607 73.4719C56.0255 73.315 56.4143 73.0794 56.747 72.7812C56.8409 72.9774 56.9504 73.1661 57.0743 73.3449C57.1103 73.2405 57.2489 73.2145 57.3572 73.2367C57.4655 73.2589 57.5708 73.3116 57.6803 73.299C57.7757 73.2882 57.8579 73.2295 57.9392 73.1779C58.1993 73.0132 58.4969 72.9076 58.8026 72.8713C58.898 72.8599 59.003 72.8577 59.081 72.9135C59.1446 72.9591 59.1782 73.0348 59.2217 73.1002C59.4374 73.4239 59.9747 73.4568 60.2282 73.1619" stroke="black" stroke-miterlimit="10" stroke-linecap="round" stroke-linejoin="round"/>
<path d="M62.3687 72.4095C62.201 72.1338 62.4359 71.7771 62.7134 71.6127C63.0401 71.4192 63.4631 71.3595 63.8027 71.5299C64.1423 71.7 64.3526 72.1299 64.2125 72.483C64.0694 72.8436 63.6473 73.0107 63.4346 73.335C63.2864 73.5609 63.254 73.8588 63.3503 74.1111" stroke="black" stroke-miterlimit="10" stroke-linecap="round" stroke-linejoin="round"/>
<path d="M63.5714 75.0234C63.4607 75.0873 63.3482 75.1626 63.2909 75.2766C63.2336 75.3909 63.2537 75.5535 63.3656 75.6156C63.4775 75.6774 63.6494 75.5571 63.5993 75.4395" stroke="black" stroke-miterlimit="10" stroke-linecap="round" stroke-linejoin="round"/>
<path d="M76.9994 51.5442C77.1596 51.4167 77.4284 51.5055 77.5097 51.6933C77.591 51.8811 77.4989 52.1157 77.3282 52.2288C77.2313 52.293 77.1158 52.3233 77.0174 52.3851C76.919 52.4469 76.8353 52.5594 76.8635 52.6719C76.9091 52.854 77.1845 52.8741 77.2703 53.0412C77.3732 53.2413 77.1389 53.4429 76.9394 53.5473C76.7813 53.6301 76.6232 53.7126 76.4651 53.7954C76.385 53.8374 76.2953 53.9412 76.3646 53.9994" stroke="black" stroke-miterlimit="10" stroke-linecap="round" stroke-linejoin="round"/>
<path d="M77.8425 50.7656C78.249 51.4373 78.6713 52.1786 78.5672 52.9568C78.4757 53.6423 77.994 54.2021 77.5332 54.7178C77.3973 54.8702 77.2355 55.0346 77.0312 55.0349" stroke="black" stroke-miterlimit="10" stroke-linecap="round" stroke-linejoin="round"/>
<path d="M80.7626 52.873C80.7461 52.6441 80.9534 52.4137 81.1817 52.4383C81.4097 52.4629 81.5591 52.7744 81.413 52.9514C81.5066 52.8323 81.6005 52.7128 81.6941 52.5937C81.8114 52.8031 81.9287 53.0129 82.0457 53.2223C82.1648 52.9715 82.4285 52.6741 82.6589 52.8289C82.7723 52.9051 82.8185 53.0731 82.9508 53.1076C83.0762 53.1403 83.1899 53.0306 83.2736 52.9316C83.738 52.3814 84.2024 51.8314 84.6668 51.2812C84.6224 51.9256 84.7103 52.5791 84.9236 53.189C85.4786 52.9598 85.9874 52.6193 86.411 52.1939C86.6102 52.2896 86.4509 52.6531 86.6246 52.7896C86.849 52.9654 87.125 52.487 87.3977 52.5707C87.4985 52.6016 87.5598 52.7021 87.6468 52.7615C87.7701 52.8458 87.9314 52.8404 88.0802 52.832C88.5911 52.8029 89.1021 52.7735 89.6133 52.7441" stroke="black" stroke-miterlimit="10" stroke-linecap="round" stroke-linejoin="round"/>
<path d="M91.043 52.7457C91.2881 52.7073 91.5332 52.6692 91.7783 52.6311C91.832 52.6227 91.895 52.617 91.9331 52.6557C91.9688 52.6917 91.9661 52.749 91.9802 52.7979C92.0246 52.9533 92.2283 52.9959 92.3876 52.9692C92.5469 52.9422 92.7092 52.8753 92.8646 52.9197" stroke="black" stroke-miterlimit="10" stroke-linecap="round" stroke-linejoin="round"/>
<path d="M95.0269 51.918C94.9489 51.7395 95.0521 51.5319 95.188 51.3924C95.4481 51.1251 95.8588 50.9946 96.2119 51.1158C96.5647 51.237 96.8164 51.6327 96.7279 51.9951C96.6331 52.3833 96.2305 52.6053 96.0067 52.9362C95.8252 53.2047 95.7676 53.5539 95.8534 53.8665" stroke="black" stroke-miterlimit="10" stroke-linecap="round" stroke-linejoin="round"/>
<path d="M95.8165 54.7891C95.7946 54.8728 95.7391 54.9436 95.7118 55.0255C95.6845 55.1074 95.6992 55.2172 95.7784 55.2517C95.8576 55.2862 95.9521 55.1554 95.8771 55.1128" stroke="black" stroke-miterlimit="10" stroke-linecap="round" stroke-linejoin="round"/>
<path d="M77.3595 61.0234C77.0883 61.639 76.6935 62.1997 76.2051 62.662C76.7619 62.6668 77.3193 62.5675 77.8404 62.371" stroke="black" stroke-miterlimit="10" stroke-linecap="round" stroke-linejoin="round"/>
<path d="M77.5664 61.5391C77.5664 62.1127 77.5664 62.6863 77.5664 63.2599" stroke="black" stroke-miterlimit="10" stroke-linecap="round" stroke-linejoin="round"/>
<path d="M77.9858 60.5234C78.0146 60.8708 78.2063 61.1801 78.338 61.5029C78.6818 62.3471 78.602 63.3521 78.1292 64.1315C78.0692 64.2302 77.9801 64.3373 77.8652 64.3259" stroke="black" stroke-miterlimit="10" stroke-linecap="round" stroke-linejoin="round"/>
<path d="M79.8535 62.5579C80.5264 62.2678 81.1405 61.8412 81.6472 61.3117C81.5392 61.7083 82.1677 62.0407 82.4347 61.7287C82.5079 61.9273 82.5811 62.1259 82.6543 62.3245C83.0704 62.194 83.4751 62.0272 83.8621 61.8268C83.893 61.9699 83.9242 62.113 83.9551 62.2564C84.3322 61.9105 84.7096 61.5646 85.0867 61.2188C85.243 61.4179 85.3465 61.6576 85.3849 61.9078C85.5781 61.957 85.7953 61.8976 85.9366 61.7569C85.9843 61.8691 86.1175 61.9132 86.2366 61.9387C86.8879 62.0776 87.5785 62.026 88.2022 61.792C88.4224 61.7095 88.6558 61.6024 88.8835 61.6615C89.0242 61.6981 89.1427 61.7944 89.2816 61.8376C89.5903 61.9339 89.9131 61.7518 90.2359 61.7359C90.5587 61.72 90.9289 62.1001 90.6946 62.323C90.9607 62.4823 91.3126 62.0131 91.567 62.1904C91.6498 62.248 91.6906 62.3635 91.7875 62.3917C91.8859 62.4205 91.9798 62.3437 92.062 62.2825C92.9599 61.6147 94.3609 62.4533 95.32 61.877" stroke="black" stroke-miterlimit="10" stroke-linecap="round" stroke-linejoin="round"/>
<path d="M80.3047 66.7593C80.3533 66.8283 80.4019 66.897 80.4505 66.966C80.7814 66.7566 81.0715 66.4827 81.2995 66.1641C81.3979 66.2235 81.4732 66.3201 81.5065 66.4302C81.7393 66.348 81.9718 66.2655 82.2046 66.1833C82.2301 66.3447 82.3411 66.558 82.4908 66.4923C82.5619 66.4611 82.5967 66.3732 82.669 66.345C82.7647 66.3075 82.8643 66.393 82.9162 66.4821C82.9678 66.5709 83.0071 66.6777 83.0983 66.7251C83.191 66.7734 83.3044 66.7419 83.4007 66.7008C83.8288 66.5184 84.2269 66.1536 84.6865 66.2262" stroke="black" stroke-miterlimit="10" stroke-linecap="round" stroke-linejoin="round"/>
<path d="M87.008 65.4017C86.9621 65.2901 87.0272 65.1563 87.1289 65.0915C87.2306 65.0267 87.3581 65.0177 87.4784 65.0261C87.8342 65.0513 88.2182 65.2733 88.2596 65.6276C88.2917 65.9012 88.1096 66.1568 87.8951 66.3299C87.6809 66.503 87.4271 66.6251 87.2252 66.8126C87.0233 67.0001 86.876 67.2875 86.963 67.5488" stroke="black" stroke-miterlimit="10" stroke-linecap="round" stroke-linejoin="round"/>
<path d="M87.176 69.1535C87.1166 69.1337 87.0574 69.1139 86.998 69.0938" stroke="black" stroke-miterlimit="10" stroke-linecap="round" stroke-linejoin="round"/>
<path d="M77.1528 73.4102C76.8507 73.409 76.5486 73.4074 76.2465 73.4062C76.1904 73.8688 76.1805 74.3368 76.2165 74.8012C76.3554 74.6884 76.5024 74.572 76.6785 74.5408C76.8546 74.5096 77.0655 74.5981 77.1057 74.7724C77.1456 74.9449 77.01 75.106 76.875 75.2206C76.6854 75.382 76.4478 75.526 76.2021 75.4852" stroke="black" stroke-miterlimit="10" stroke-linecap="round" stroke-linejoin="round"/>
<path d="M77.5756 72.9844C77.911 73.3498 78.0073 73.8718 78.0448 74.3662C78.0781 74.8024 78.0754 75.2491 77.9458 75.6673C77.8162 76.0852 77.545 76.4746 77.1523 76.6672" stroke="black" stroke-miterlimit="10" stroke-linecap="round" stroke-linejoin="round"/>
<path d="M79.7305 74.3615C80.1523 74.1707 80.5741 73.9799 80.9956 73.7891C80.8789 74.0129 81.0103 74.3255 81.2503 74.4041C81.49 74.4827 81.7777 74.3141 81.8323 74.0678C81.9589 74.2427 82.0231 74.462 82.0102 74.6777C82.4869 74.4836 82.9339 74.2172 83.3317 73.8911C83.4223 74.1944 83.5126 74.4977 83.6032 74.8013C84.0541 74.7896 84.4996 74.6177 84.8416 74.3234C84.9211 74.4392 85.0006 74.5553 85.0804 74.6711C85.3825 74.5967 85.6846 74.5223 85.9867 74.4479C86.341 74.3606 86.8738 74.4008 86.875 74.7656C87.499 74.2991 88.3738 74.4731 89.128 74.6681C89.296 74.7116 89.5051 74.813 89.4781 74.9846C89.8135 74.804 90.1048 74.5481 90.4453 74.3777C91.0708 74.0651 91.8472 74.075 92.464 74.4041" stroke="black" stroke-miterlimit="10" stroke-linecap="round" stroke-linejoin="round"/>
<path d="M95.1321 73.8823C95.1345 73.6867 95.1369 73.4911 95.139 73.2955C95.5596 73.2187 96.0177 73.4599 96.1923 73.8502C96.225 73.9234 96.2487 74.0011 96.2535 74.0812C96.2697 74.3476 96.078 74.5831 95.8638 74.7421C95.6496 74.9011 95.4012 75.0166 95.2146 75.2074C95.028 75.3979 94.9167 75.7036 95.052 75.9334" stroke="black" stroke-miterlimit="10" stroke-linecap="round" stroke-linejoin="round"/>
<path d="M95.133 77.2655C95.0736 77.1665 95.0142 77.0677 94.9551 76.9688" stroke="black" stroke-miterlimit="10" stroke-linecap="round" stroke-linejoin="round"/>
</g>
<path opacity="0.2" d="M96.5614 63.5305C96.1207 64.0834 95.7538 64.6978 95.2645 65.2447C95.1634 65.3578 95.0998 65.4781 95.0641 65.5993C94.708 65.6494 94.3174 65.6032 93.9208 65.4253C92.5432 64.8076 91.288 63.763 90.1975 62.7322C89.9659 62.5132 89.7253 62.305 89.4859 62.0953C90.5629 63.2968 91.6375 64.4998 92.7274 65.6902C93.0889 66.085 93.2287 66.5248 93.2143 66.9466C92.6902 67.4983 92.1742 68.0737 91.5562 68.5147C91.4452 68.5939 91.3534 68.6911 91.2805 68.7982C90.9031 68.7739 90.52 68.6041 90.1816 68.236C87.8509 65.7028 85.543 63.2155 82.9669 60.943C83.1733 61.2328 83.383 61.5196 83.5828 61.816C84.9334 63.8224 86.3815 65.7508 87.8923 67.639C88.9573 68.9704 90.7957 70.6069 91.1365 72.3724C91.0657 72.4585 90.9949 72.5449 90.9229 72.6301C90.8284 72.742 90.7297 72.8503 90.6286 72.9562C90.535 72.9745 90.4435 73.0057 90.3604 73.0603C89.9083 73.3576 89.6203 73.9603 89.9818 74.4559C90.061 74.5648 90.1585 74.656 90.2653 74.7286C90.8134 75.4192 91.3504 76.1185 91.8643 76.837C91.8922 76.8757 91.9156 76.915 91.9393 76.954C91.5697 78.0085 90.694 78.7738 89.8399 79.4962C89.5519 79.4278 89.2753 79.2766 89.0374 79.0183C88.0096 77.9029 86.8327 76.9225 85.8814 75.7405C84.862 74.4739 84.0184 73.0756 83.0494 71.7715C83.0338 71.7505 83.0167 71.7304 83.0011 71.7094C81.8302 70.4047 80.6539 69.1039 79.516 67.7731C78.5242 66.7696 77.5114 65.7889 76.5439 64.8082C74.9995 63.2428 73.4305 61.6705 71.8039 60.1702C72.2071 60.7681 72.6127 61.3642 73.0273 61.9546C74.8606 64.5649 76.8949 67.0279 78.8566 69.5395C79.8229 70.777 80.7079 72.0733 81.6457 73.3315C82.3837 74.3215 83.491 75.226 84.073 76.3141C84.2014 76.5541 84.2737 76.7902 84.301 77.0173C84.2359 77.0737 84.1741 77.1355 84.1207 77.206C83.6767 77.7913 82.9897 78.2308 82.3462 78.562C82.1737 78.6508 82.0603 78.7696 81.9889 78.9013C81.7336 78.8284 81.481 78.697 81.2458 78.4957C80.3326 77.7139 79.4644 76.8544 78.6466 75.9484C78.9064 76.3969 79.1332 76.8598 79.2769 77.3515C79.7377 78.9253 77.9818 80.0839 76.6324 79.3843C76.5928 79.3639 76.555 79.3408 76.5157 79.3198C76.2478 80.2033 75.2047 80.848 74.263 80.6227C73.7413 81.3166 72.8278 81.6814 72.0112 81.0571C68.6368 78.4783 65.419 75.6226 62.2336 72.811C61.9441 72.5554 61.657 72.2968 61.3699 72.0385C61.9204 72.8965 62.4973 73.723 63.1519 74.5513C63.8836 75.4774 64.903 76.4461 65.29 77.5987C65.2528 77.6251 65.2153 77.65 65.1793 77.6836C64.3555 78.4564 63.6628 79.3198 63.1264 80.3158C63.1219 80.3245 63.1201 80.3329 63.1156 80.3416C61.6942 80.0236 60.2071 79.1047 59.0038 78.4117C57.433 77.5072 56.0113 76.4194 54.6349 75.2566C54.6361 75.1198 54.6151 74.98 54.5563 74.8195C54.5272 74.7397 54.4828 74.6644 54.442 74.5885C54.4453 74.5039 54.4492 74.4199 54.4504 74.3344C54.5713 74.086 54.6643 73.8526 54.7315 73.6123C54.9499 73.5022 55.144 73.3468 55.2715 73.1386C55.4032 72.9238 55.4563 72.6352 55.4518 72.3874C55.4425 72.3169 55.4329 72.2464 55.423 72.1756C55.5646 72.0577 55.651 71.9149 55.6939 71.7646C55.9942 71.8195 56.2945 71.9521 56.5741 72.1945C56.9506 72.5209 57.3322 72.8365 57.7174 73.1461C57.2269 72.325 56.7553 71.4883 56.2792 70.6873C55.4428 69.2797 54.5617 67.9129 53.6047 66.583C52.8745 65.5684 51.8953 64.6867 51.7768 63.5641C52.4563 62.9902 52.9285 62.2636 53.5171 61.5955C53.5486 61.5598 53.575 61.5211 53.6011 61.4824C54.1591 61.4929 54.739 61.7449 55.3105 62.1121C55.1545 61.9267 55.0021 61.7386 54.8593 61.5433C53.5693 59.7772 51.7489 58.3528 50.5804 56.5144C50.4298 56.2777 50.341 56.0473 50.3008 55.8268C50.4361 55.657 50.5702 55.486 50.7058 55.3156C50.9323 55.0309 51.0277 54.6715 50.9017 54.3526C50.9116 54.3448 50.9206 54.3364 50.9308 54.3289C50.8834 54.2716 50.8348 54.2155 50.7877 54.1582C50.7856 54.1555 50.7832 54.1528 50.7811 54.1501C50.5825 53.9065 50.449 53.6176 50.3743 53.3176C50.9476 52.4776 51.5722 51.6841 52.3558 51.0877C53.4166 51.166 54.3559 51.8542 55.2859 52.3921C55.9222 52.7602 56.5582 53.1352 57.1855 53.5237C56.8741 53.116 56.5918 52.6903 56.3905 52.2157C56.3107 52.0273 56.2624 51.8368 56.2381 51.6478C56.29 51.6181 56.3401 51.5845 56.3884 51.5473C57.1417 50.9653 57.9262 50.3512 58.5604 49.6228C58.657 49.6582 58.7545 49.6999 58.8535 49.753C59.461 50.0779 60.0559 50.4586 60.6391 50.8735C60.5461 50.5987 60.4975 50.3242 60.499 50.0527C60.7738 50.0977 61.0663 50.0071 61.2928 49.8127C61.8046 49.3738 62.2192 48.8092 62.7265 48.3622C62.887 48.4036 63.0427 48.4681 63.1864 48.5653C64.5268 49.4731 65.6614 50.6677 66.943 51.6592C67.2646 51.9079 67.5883 52.1536 67.9132 52.3984C67.8241 52.1422 67.7977 51.8728 67.8208 51.6085C67.9402 51.5764 68.0587 51.5182 68.1712 51.4279C68.7856 50.9332 69.3877 50.4229 69.9946 49.9189C70.1386 49.972 70.2853 50.0488 70.4326 50.1523C71.0311 50.5732 71.5975 51.0649 72.1471 51.5863C72.1609 51.4789 72.1858 51.3739 72.217 51.2716C72.4645 51.3673 72.7453 51.3703 72.9556 51.208C73.4431 50.8318 73.9423 50.4796 74.3746 50.0527C75.0841 50.2423 75.5764 50.7589 76.1494 51.1909C76.2484 51.2653 76.3468 51.3403 76.4458 51.415C76.48 51.3427 76.5253 51.2761 76.5709 51.2101C76.7536 51.2299 76.9372 51.1957 77.0827 51.0886C77.3296 50.9065 77.5561 50.7124 77.7769 50.5006C77.8075 50.4712 77.839 50.4424 77.8705 50.4136C78.1201 50.3707 78.3718 50.3698 78.6025 50.4316C79.9156 50.7841 81.091 51.6898 82.2184 52.4851C81.997 52.2271 81.7747 51.9697 81.5599 51.7054C80.737 50.6935 79.5298 49.5967 79.1113 48.3175C79.1632 48.2659 79.2127 48.2086 79.2559 48.1381C79.4143 47.8804 79.5889 47.6206 79.7761 47.3662C80.392 46.9903 80.9842 46.5364 81.4318 46C81.5212 46.0249 81.61 46.0558 81.6973 46.0927C83.0209 46.6543 84.0091 47.7262 85.0006 48.7351C85.7071 49.4539 86.3887 50.1952 87.0508 50.9536C87.0886 50.854 87.1417 50.7607 87.2011 50.6704C87.5158 50.7859 87.8734 50.6959 88.1488 50.4712C88.4356 50.2369 88.7413 50.02 89.0461 49.8007C89.5513 49.8343 90.0538 50.0596 90.4303 50.5489C91.9075 52.4689 96.0511 57.7084 94.6699 60.6676C95.3554 61.378 95.9953 62.1289 96.3847 62.9614C96.4741 63.1552 96.5296 63.3454 96.5614 63.5305Z" fill="white"/>
<path opacity="0.2" d="M53.5234 62.0094C53.9365 61.4907 54.2806 60.9147 54.7396 60.402C54.8344 60.2961 54.8938 60.1833 54.9274 60.0693C55.2613 60.0222 55.6273 60.0657 55.9993 60.2325C57.2908 60.8118 58.468 61.791 59.4904 62.7576C59.7076 62.9631 59.9332 63.1584 60.1576 63.3546C59.1478 62.2281 58.1401 61.0998 57.118 59.9838C56.779 59.6136 56.6479 59.2014 56.6617 58.8057C57.1531 58.2882 57.637 57.7488 58.2163 57.3354C58.3204 57.2613 58.4065 57.1701 58.4746 57.0696C58.8283 57.0924 59.1877 57.2514 59.5051 57.5967C61.6903 59.9718 63.8545 62.3043 66.2701 64.4349C66.0766 64.1631 65.8798 63.8943 65.6926 63.6162C64.4263 61.7349 63.0682 59.9268 61.6519 58.1562C60.6532 56.9079 58.9294 55.3734 58.6102 53.718C58.6768 53.6373 58.7431 53.5563 58.8103 53.4762C58.8988 53.3712 58.9915 53.2698 59.0863 53.1705C59.1742 53.1534 59.26 53.124 59.3377 53.073C59.7616 52.7943 60.0319 52.2291 59.6929 51.7644C59.6185 51.6624 59.5273 51.5766 59.4271 51.5085C58.9132 50.8611 58.4095 50.2053 57.9277 49.5315C57.9016 49.4952 57.8797 49.4583 57.8575 49.4217C58.204 48.4329 59.0251 47.7153 59.8261 47.0379C60.0961 47.1018 60.3553 47.2437 60.5788 47.4861C61.5424 48.5319 62.6461 49.4511 63.5383 50.5596C64.4941 51.747 65.2852 53.0583 66.1936 54.2811C66.2083 54.3009 66.2242 54.3198 66.2389 54.3393C67.3369 55.5627 68.4397 56.7822 69.5068 58.0302C70.4368 58.9713 71.3863 59.8908 72.2935 60.8103C73.7416 62.2782 75.2128 63.7524 76.738 65.1591C76.36 64.5987 75.9796 64.0395 75.5908 63.486C73.8718 61.0386 71.9644 58.7292 70.1248 56.3739C69.2185 55.2135 68.389 53.9982 67.5094 52.8183C66.8176 51.8901 65.779 51.042 65.2336 50.0214C65.1133 49.7964 65.0455 49.575 65.02 49.362C65.0809 49.3092 65.1388 49.2513 65.1892 49.185C65.6056 48.6363 66.2497 48.2241 66.853 47.9136C67.0147 47.8305 67.1212 47.7189 67.1881 47.5953C67.4275 47.6637 67.6642 47.787 67.8847 47.9757C68.7409 48.7086 69.5551 49.5147 70.3219 50.3643C70.0783 49.9437 69.8659 49.5096 69.7306 49.0485C69.2986 47.5728 70.945 46.4865 72.2101 47.1423C72.2473 47.1615 72.2827 47.1831 72.3193 47.2029C72.5707 46.3743 73.5484 45.7701 74.4316 45.9813C74.9209 45.3306 75.7771 44.9886 76.543 45.5739C79.7071 47.9919 82.7242 50.6694 85.711 53.3058C85.9825 53.5455 86.2516 53.7879 86.521 54.03C86.005 53.2254 85.4638 52.4505 84.85 51.6738C84.1639 50.8056 83.2081 49.8972 82.8451 48.8163C82.8799 48.7917 82.9153 48.7683 82.9489 48.7365C83.7214 48.012 84.3709 47.2023 84.874 46.2684C84.8785 46.2603 84.88 46.2522 84.8842 46.2441C86.2171 46.542 87.6115 47.4039 88.7398 48.0537C90.2128 48.9018 91.5457 49.9218 92.8363 51.012C92.8354 51.1404 92.8549 51.2715 92.9101 51.4218C92.9374 51.4968 92.9788 51.5673 93.0172 51.6384C93.0142 51.7176 93.0103 51.7965 93.0094 51.8766C92.896 52.1097 92.809 52.3284 92.746 52.5537C92.5411 52.6569 92.3593 52.8027 92.2396 52.9977C92.116 53.199 92.0665 53.4699 92.0704 53.7021C92.0791 53.7684 92.0884 53.8344 92.0974 53.9007C91.9645 54.0114 91.8835 54.1449 91.8436 54.2859C91.5622 54.2346 91.2805 54.1101 91.0183 53.8827C90.6652 53.5767 90.3076 53.2806 89.9461 52.9905C90.4063 53.7606 90.8482 54.5448 91.2946 55.296C92.0791 56.616 92.905 57.8976 93.8023 59.1444C94.4869 60.0957 95.4052 60.9225 95.5162 61.9752C94.879 62.5134 94.4362 63.1947 93.8842 63.8211C93.8548 63.8547 93.8299 63.8907 93.8056 63.9273C93.2824 63.9174 92.7385 63.681 92.203 63.3369C92.3494 63.5106 92.4922 63.687 92.626 63.8703C93.8356 65.5263 95.5423 66.8619 96.6379 68.5857C96.7789 68.8077 96.8623 69.0237 96.9001 69.2304C96.7732 69.3897 96.6475 69.5499 96.5203 69.7098C96.3082 69.9765 96.2185 70.3137 96.3367 70.6128C96.3274 70.62 96.3187 70.6278 96.3094 70.635C96.3538 70.6887 96.3994 70.7412 96.4435 70.7949C96.4453 70.7976 96.4478 70.8 96.4496 70.8024C96.6356 71.0307 96.7609 71.3016 96.8311 71.583C96.2935 72.3708 95.7079 73.1145 94.9732 73.674C93.9787 73.6008 93.0979 72.9552 92.2258 72.4509C91.6291 72.1059 91.033 71.754 90.4447 71.3898C90.7366 71.772 91.0015 72.1713 91.1902 72.6165C91.2652 72.7929 91.3105 72.972 91.3333 73.149C91.2847 73.1769 91.2376 73.2084 91.1926 73.2432C90.4861 73.7889 89.7505 74.3646 89.1559 75.048C89.0653 75.0147 88.9738 74.9757 88.8811 74.9259C88.3114 74.6211 87.7537 74.2644 87.2068 73.8753C87.2941 74.133 87.3397 74.3901 87.3382 74.6448C87.0805 74.6028 86.8063 74.6877 86.5939 74.8698C86.1139 75.2814 85.7251 75.8106 85.2496 76.2297C85.099 76.191 84.9529 76.1304 84.8185 76.0392C83.5615 75.1881 82.4977 74.0679 81.2959 73.1382C80.9944 72.9051 80.6908 72.6744 80.386 72.4452C80.4694 72.6852 80.4943 72.9381 80.4724 73.1859C80.3605 73.2159 80.2492 73.2705 80.1439 73.3551C79.5679 73.8189 79.0033 74.2974 78.4342 74.7702C78.2989 74.7204 78.1615 74.6484 78.0235 74.5512C77.4625 74.1564 76.9312 73.6956 76.4158 73.2066C76.4026 73.3074 76.3795 73.4058 76.3501 73.5018C76.1182 73.4121 75.8548 73.4094 75.6574 73.5615C75.2002 73.9143 74.7322 74.2446 74.3269 74.6445C73.6618 74.4669 73.2001 73.9824 72.6625 73.5774C72.5698 73.5075 72.4774 73.4373 72.3847 73.3674C72.3526 73.4352 72.31 73.4976 72.2674 73.5597C72.0961 73.5414 71.9239 73.5732 71.7874 73.6737C71.5558 73.8447 71.3437 74.0265 71.1364 74.2251C71.1076 74.2527 71.0782 74.2797 71.0488 74.3067C70.8145 74.3472 70.5787 74.3478 70.3627 74.2899C69.1315 73.9596 68.0293 73.1103 66.9724 72.3645C67.18 72.6066 67.3885 72.8478 67.5898 73.0956C68.3614 74.0445 69.4933 75.0729 69.886 76.2723C69.8374 76.3206 69.7909 76.3746 69.7504 76.4406C69.6019 76.6824 69.4384 76.926 69.2626 77.1642C68.6851 77.5167 68.1298 77.9424 67.7101 78.4452C67.6264 78.4218 67.5433 78.393 67.4611 78.3582C66.22 77.8317 65.2933 76.8264 64.3639 75.8805C63.7015 75.2067 63.0625 74.5116 62.4415 73.8003C62.4061 73.8936 62.3563 73.9812 62.3008 74.0658C62.0056 73.9575 61.6702 74.0418 61.4122 74.2527C61.1434 74.4723 60.8566 74.6757 60.5707 74.8815C60.097 74.85 59.626 74.6388 59.2729 74.1798C57.8878 72.3795 54.0025 67.4667 55.2976 64.692C54.6547 64.026 54.0547 63.3219 53.6896 62.5413C53.6053 62.3613 53.5531 62.1834 53.5234 62.0094Z" fill="white"/>
<path d="M89.9277 119.258C90.1719 118.848 89.8275 118.231 89.3502 118.224C89.5593 117.636 89.3529 116.925 88.8615 116.54C88.7994 116.491 88.7283 116.445 88.6494 116.445C88.5648 116.445 88.4901 116.497 88.4214 116.546C87.9717 116.869 87.522 117.192 87.0723 117.515C86.9694 117.589 86.8629 117.667 86.8047 117.78C86.529 118.314 87.5232 118.999 87.1143 119.44C86.997 119.566 86.808 119.592 86.6616 119.684C86.3406 119.885 86.3019 120.325 86.1522 120.673C86.0025 121.021 85.4808 121.291 85.281 120.969C85.4283 120.636 84.9825 120.348 84.6201 120.306C84.2628 120.264 83.8797 120.244 83.6793 119.903C83.1654 120.353 82.0143 119.099 82.0407 118.594C81.6183 118.626 81.3306 119.022 81.2379 119.417C81.1419 119.828 81.2013 120.256 81.1947 120.677C81.1818 121.495 80.9178 122.297 80.9322 123.115C80.9433 123.752 81.1893 124.459 81.7725 124.715C82.0533 124.838 82.3701 124.838 82.6767 124.836C84.8895 124.822 87.1023 124.808 89.3151 124.794C89.4744 124.793 89.6406 124.79 89.7819 124.716C90.0813 124.56 90.1446 124.167 90.1725 123.83C90.2913 122.388 90.4101 120.946 90.5289 119.503C90.3282 119.422 90.1278 119.34 89.9277 119.258Z" fill="#24774A"/>
<path opacity="0.3" d="M89.9277 119.258C90.1719 118.848 89.8275 118.231 89.3502 118.224C89.5593 117.636 89.3529 116.925 88.8615 116.54C88.7994 116.491 88.7283 116.445 88.6494 116.445C88.5648 116.445 88.4901 116.497 88.4214 116.546C87.9717 116.869 87.522 117.192 87.0723 117.515C86.9694 117.589 86.8629 117.667 86.8047 117.78C86.529 118.314 87.5232 118.999 87.1143 119.44C86.997 119.566 86.808 119.592 86.6616 119.684C86.3406 119.885 86.3019 120.325 86.1522 120.673C86.0025 121.021 85.4808 121.291 85.281 120.969C85.4283 120.636 84.9825 120.348 84.6201 120.306C84.2628 120.264 83.8797 120.244 83.6793 119.903C83.1654 120.353 82.0143 119.099 82.0407 118.594C81.6183 118.626 81.3306 119.022 81.2379 119.417C81.1419 119.828 81.2013 120.256 81.1947 120.677C81.1818 121.495 80.9178 122.297 80.9322 123.115C80.9433 123.752 81.1893 124.459 81.7725 124.715C82.0533 124.838 82.3701 124.838 82.6767 124.836C84.8895 124.822 87.1023 124.808 89.3151 124.794C89.4744 124.793 89.6406 124.79 89.7819 124.716C90.0813 124.56 90.1446 124.167 90.1725 123.83C90.2913 122.388 90.4101 120.946 90.5289 119.503C90.3282 119.422 90.1278 119.34 89.9277 119.258Z" fill="white"/>
<path d="M90.3158 112.242H89.5703H87.518H86.7701H84.7205H83.9726H81.9227H81.1748H80.0156L80.1002 113.283L80.1608 114.026L80.318 115.959L80.4077 117.07L80.5262 118.549L80.5769 119.183L80.5937 119.372L80.6543 120.117L80.7365 121.139L80.7875 121.773L80.8406 122.417L80.9012 123.162L80.9471 123.726L80.9978 124.36L81.0197 124.636H82.3748H83.5196H85.1726H86.3174H87.9704H89.1152H90.4727L90.4946 124.36L90.5453 123.729L90.5912 123.16L90.6518 122.414L90.7052 121.773L90.7559 121.139L90.8381 120.115L90.8987 119.372L90.9134 119.183L90.9641 118.549L91.085 117.07L91.1747 115.962L91.3295 114.026L91.3901 113.283L91.4747 112.242H90.3158ZM90.9356 112.925L90.737 112.726H90.9524L90.9356 112.925ZM90.8846 113.556L90.8654 113.808L89.9432 114.73L88.8857 113.673L89.8319 112.727H90.0545L90.8846 113.556ZM90.6185 116.853L89.9432 117.528L88.8857 116.47L89.9432 115.415L90.674 116.146L90.6185 116.853ZM80.8169 116.146L81.5477 115.415L82.6052 116.47L81.5477 117.528L80.8748 116.852L80.8169 116.146ZM89.6021 115.071L88.5446 116.129L87.4871 115.071L88.5446 114.014L89.6021 115.071ZM87.9392 112.726H89.1494L88.5443 113.331L87.9392 112.726ZM88.2008 116.47L87.1457 117.528L86.0882 116.47L87.1457 115.415L88.2008 116.47ZM84.689 117.869L85.7465 116.814L86.8016 117.869L85.7465 118.927L84.689 117.869ZM85.403 119.268L84.3455 120.325L83.2904 119.27L84.3479 118.213L85.403 119.268ZM87.1454 118.213L88.2005 119.27L87.1454 120.325L86.0879 119.268L87.1454 118.213ZM85.7468 116.129L84.6893 115.071L85.7468 114.014L86.8019 115.071L85.7468 116.129ZM85.403 116.47L84.3479 117.528L83.2904 116.47L84.3479 115.415L85.403 116.47ZM82.9466 116.129L81.8915 115.071L82.9466 114.014L84.0041 115.071L82.9466 116.129ZM82.9466 116.814L84.0041 117.869L82.9466 118.927L81.8915 117.869L82.9466 116.814ZM84.0041 120.669L82.9466 121.724L81.8915 120.669L82.9466 119.612L84.0041 120.669ZM84.3455 121.01L85.403 122.068L84.3479 123.125L83.2904 122.068L84.3455 121.01ZM84.689 120.669L85.7465 119.612L86.8016 120.669L85.7465 121.724L84.689 120.669ZM87.1454 121.01L88.2005 122.068L87.1454 123.125L86.0879 122.068L87.1454 121.01ZM88.5443 122.409L89.6018 123.467L88.9169 124.152H88.1717L87.4868 123.467L88.5443 122.409ZM87.4868 120.669L88.5443 119.612L89.6018 120.669L88.5443 121.724L87.4868 120.669ZM87.4868 117.869L88.5443 116.814L89.6018 117.869L88.5443 118.927L87.4868 117.869ZM88.2008 113.673L87.1457 114.73L86.0882 113.673L87.0344 112.726H87.257L88.2008 113.673ZM85.7468 113.331L85.1417 112.726H86.3495L85.7468 113.331ZM85.403 113.673L84.3479 114.73L83.2904 113.673L84.2366 112.726H84.4592L85.403 113.673ZM83.5517 112.726L82.9466 113.331L82.3439 112.726H83.5517ZM81.659 112.726L82.6052 113.672L81.5477 114.73L80.6282 113.808L80.6087 113.556L81.4364 112.726H81.659V112.726ZM80.7539 112.726L80.5577 112.922L80.5409 112.726H80.7539ZM80.6885 114.553L81.2066 115.071L80.7662 115.512L80.6885 114.553ZM80.9765 118.099L80.9354 117.598L81.2066 117.869L80.9765 118.099ZM81.0275 118.735L81.5477 118.213L82.6052 119.27L81.5477 120.325L81.1217 119.899L81.0275 118.735ZM81.1847 120.691L81.1823 120.645L81.2066 120.669L81.1847 120.691ZM81.3686 122.944L81.2354 121.323L81.5477 121.01L82.6052 122.068L81.5477 123.123L81.3686 122.944ZM81.4655 124.152L81.446 123.91L81.5477 123.808L81.8915 124.152H81.4655ZM81.8915 123.467L82.9466 122.409L84.0041 123.467L83.3192 124.152H82.5737L81.8915 123.467ZM84.0041 124.152L84.3479 123.808L84.6917 124.152H84.0041ZM85.3739 124.152L84.689 123.467L85.7465 122.409L86.8016 123.467L86.1191 124.152H85.3739ZM86.8019 124.152L87.1457 123.808L87.4895 124.152H86.8019ZM90.0254 124.152H89.5994L89.9432 123.808L90.0449 123.91L90.0254 124.152ZM90.1247 122.944L89.9432 123.123L88.8857 122.068L89.9432 121.011L90.2555 121.323L90.1247 122.944ZM90.311 120.642L90.3062 120.691L90.2843 120.669L90.311 120.642ZM90.3716 119.899L89.9432 120.325L88.8857 119.27L89.9432 118.213L90.4658 118.735L90.3716 119.899ZM90.5168 118.101L90.2846 117.869L90.5582 117.598L90.5168 118.101ZM90.8048 114.551L90.7274 115.514L90.2846 115.071L90.8048 114.551Z" fill="#24774A"/>
<g opacity="0.6">
<path d="M90.3158 112.242H89.5703H87.518H86.7701H84.7205H83.9726H81.9227H81.1748H80.0156L80.1002 113.283L80.1608 114.026L80.318 115.959L80.4077 117.07L80.5262 118.549L80.5769 119.183L80.5937 119.372L80.6543 120.117L80.7365 121.139L80.7875 121.773L80.8406 122.417L80.9012 123.162L80.9471 123.726L80.9978 124.36L81.0197 124.636H82.3748H83.5196H85.1726H86.3174H87.9704H89.1152H90.4727L90.4946 124.36L90.5453 123.729L90.5912 123.16L90.6518 122.414L90.7052 121.773L90.7559 121.139L90.8381 120.115L90.8987 119.372L90.9134 119.183L90.9641 118.549L91.085 117.07L91.1747 115.962L91.3295 114.026L91.3901 113.283L91.4747 112.242H90.3158ZM90.9356 112.925L90.737 112.726H90.9524L90.9356 112.925ZM90.8846 113.556L90.8654 113.808L89.9432 114.73L88.8857 113.673L89.8319 112.727H90.0545L90.8846 113.556ZM90.6185 116.853L89.9432 117.528L88.8857 116.47L89.9432 115.415L90.674 116.146L90.6185 116.853ZM80.8169 116.146L81.5477 115.415L82.6052 116.47L81.5477 117.528L80.8748 116.852L80.8169 116.146ZM89.6021 115.071L88.5446 116.129L87.4871 115.071L88.5446 114.014L89.6021 115.071ZM87.9392 112.726H89.1494L88.5443 113.331L87.9392 112.726ZM88.2008 116.47L87.1457 117.528L86.0882 116.47L87.1457 115.415L88.2008 116.47ZM84.689 117.869L85.7465 116.814L86.8016 117.869L85.7465 118.927L84.689 117.869ZM85.403 119.268L84.3455 120.325L83.2904 119.27L84.3479 118.213L85.403 119.268ZM87.1454 118.213L88.2005 119.27L87.1454 120.325L86.0879 119.268L87.1454 118.213ZM85.7468 116.129L84.6893 115.071L85.7468 114.014L86.8019 115.071L85.7468 116.129ZM85.403 116.47L84.3479 117.528L83.2904 116.47L84.3479 115.415L85.403 116.47ZM82.9466 116.129L81.8915 115.071L82.9466 114.014L84.0041 115.071L82.9466 116.129ZM82.9466 116.814L84.0041 117.869L82.9466 118.927L81.8915 117.869L82.9466 116.814ZM84.0041 120.669L82.9466 121.724L81.8915 120.669L82.9466 119.612L84.0041 120.669ZM84.3455 121.01L85.403 122.068L84.3479 123.125L83.2904 122.068L84.3455 121.01ZM84.689 120.669L85.7465 119.612L86.8016 120.669L85.7465 121.724L84.689 120.669ZM87.1454 121.01L88.2005 122.068L87.1454 123.125L86.0879 122.068L87.1454 121.01ZM88.5443 122.409L89.6018 123.467L88.9169 124.152H88.1717L87.4868 123.467L88.5443 122.409ZM87.4868 120.669L88.5443 119.612L89.6018 120.669L88.5443 121.724L87.4868 120.669ZM87.4868 117.869L88.5443 116.814L89.6018 117.869L88.5443 118.927L87.4868 117.869ZM88.2008 113.673L87.1457 114.73L86.0882 113.673L87.0344 112.726H87.257L88.2008 113.673ZM85.7468 113.331L85.1417 112.726H86.3495L85.7468 113.331ZM85.403 113.673L84.3479 114.73L83.2904 113.673L84.2366 112.726H84.4592L85.403 113.673ZM83.5517 112.726L82.9466 113.331L82.3439 112.726H83.5517ZM81.659 112.726L82.6052 113.672L81.5477 114.73L80.6282 113.808L80.6087 113.556L81.4364 112.726H81.659V112.726ZM80.7539 112.726L80.5577 112.922L80.5409 112.726H80.7539ZM80.6885 114.553L81.2066 115.071L80.7662 115.512L80.6885 114.553ZM80.9765 118.099L80.9354 117.598L81.2066 117.869L80.9765 118.099ZM81.0275 118.735L81.5477 118.213L82.6052 119.27L81.5477 120.325L81.1217 119.899L81.0275 118.735ZM81.1847 120.691L81.1823 120.645L81.2066 120.669L81.1847 120.691ZM81.3686 122.944L81.2354 121.323L81.5477 121.01L82.6052 122.068L81.5477 123.123L81.3686 122.944ZM81.4655 124.152L81.446 123.91L81.5477 123.808L81.8915 124.152H81.4655ZM81.8915 123.467L82.9466 122.409L84.0041 123.467L83.3192 124.152H82.5737L81.8915 123.467ZM84.0041 124.152L84.3479 123.808L84.6917 124.152H84.0041ZM85.3739 124.152L84.689 123.467L85.7465 122.409L86.8016 123.467L86.1191 124.152H85.3739ZM86.8019 124.152L87.1457 123.808L87.4895 124.152H86.8019ZM90.0254 124.152H89.5994L89.9432 123.808L90.0449 123.91L90.0254 124.152ZM90.1247 122.944L89.9432 123.123L88.8857 122.068L89.9432 121.011L90.2555 121.323L90.1247 122.944ZM90.311 120.642L90.3062 120.691L90.2843 120.669L90.311 120.642ZM90.3716 119.899L89.9432 120.325L88.8857 119.27L89.9432 118.213L90.4658 118.735L90.3716 119.899ZM90.5168 118.101L90.2846 117.869L90.5582 117.598L90.5168 118.101ZM90.8048 114.551L90.7274 115.514L90.2846 115.071L90.8048 114.551Z" fill="white"/>
</g>
<path d="M79.8484 113.16H91.6414C91.9138 113.16 92.1343 112.939 92.1343 112.667V112.305C92.1343 112.033 91.9135 111.812 91.6414 111.812H79.8484C79.576 111.812 79.3555 112.033 79.3555 112.305V112.667C79.3552 112.939 79.576 113.16 79.8484 113.16Z" fill="#24774A"/>
<path d="M90.7203 125.261H80.7702C80.4978 125.261 80.2773 125.041 80.2773 124.768V124.407C80.2773 124.135 80.4981 123.914 80.7702 123.914H90.7203C90.9927 123.914 91.2132 124.135 91.2132 124.407V124.768C91.2132 125.041 90.9927 125.261 90.7203 125.261Z" fill="#24774A"/>
<path d="M116.678 98.9985H111.317C111.161 98.9985 111.027 98.8926 110.99 98.742L110.232 95.6172H107.852L108.825 99.4272C108.974 100.007 109.496 100.412 110.094 100.412H116.678V98.9985Z" fill="#263238"/>
<path opacity="0.4" d="M116.678 98.9985H111.317C111.161 98.9985 111.027 98.8926 110.99 98.742L110.232 95.6172H107.852L108.825 99.4272C108.974 100.007 109.496 100.412 110.094 100.412H116.678V98.9985Z" fill="white"/>
<path d="M117.22 89.5801L114.414 110.07L115.831 110.264L118.637 89.7741L117.22 89.5801Z" fill="#263238"/>
<path d="M126.086 89.5801L123.279 110.07L124.696 110.264L127.502 89.7741L126.086 89.5801Z" fill="#263238"/>
<g opacity="0.3">
<path d="M117.22 89.5801L114.414 110.07L115.831 110.264L118.637 89.7741L117.22 89.5801Z" fill="white"/>
</g>
<g opacity="0.4">
<path d="M126.086 89.5801L123.279 110.07L124.696 110.264L127.502 89.7741L126.086 89.5801Z" fill="white"/>
</g>
<path d="M116.146 125.153H114.153L113.908 114.616L113.805 110.164H116.493L116.389 114.616L116.146 125.153Z" fill="#263238"/>
<path opacity="0.4" d="M116.146 125.153H114.153L113.908 114.616L113.805 110.164H116.493L116.389 114.616L116.146 125.153Z" fill="white"/>
<path opacity="0.2" d="M113.805 110.164L113.908 114.739H116.39L116.493 110.164H113.805Z" fill="black"/>
<path d="M105.965 125.159L106.831 110.484H109.167L107.954 125.159H105.965Z" fill="#263238"/>
<path opacity="0.5" d="M107.959 125.156H105.969L106.705 112.655L106.833 110.453H109.169L108.989 112.655L107.959 125.156Z" fill="white"/>
<path opacity="0.2" d="M109.166 110.453L108.986 112.741H106.701L106.83 110.453H109.166Z" fill="black"/>
<path d="M122.34 125.159L121.127 110.484H123.463L124.329 125.159H122.34Z" fill="#263238"/>
<path opacity="0.5" d="M122.341 125.156L121.311 112.655L121.131 110.453H123.467L123.596 112.655L124.332 125.156H122.341Z" fill="white"/>
<path opacity="0.2" d="M121.131 110.453L121.311 112.741H123.596L123.467 110.453H121.131Z" fill="black"/>
<path d="M107.051 107.977H123.245C124.057 107.977 124.716 108.635 124.716 109.447V111.319H105.58V109.447C105.58 108.635 106.239 107.977 107.051 107.977Z" fill="#263238"/>
<path d="M105.256 109.641H125.042C125.368 109.641 125.633 109.906 125.633 110.232V110.72C125.633 111.047 125.368 111.312 125.042 111.312H105.256C104.929 111.312 104.664 111.047 104.664 110.72V110.232C104.664 109.906 104.929 109.641 105.256 109.641Z" fill="#263238"/>
<path opacity="0.6" d="M105.256 109.641H125.042C125.368 109.641 125.633 109.906 125.633 110.232V110.72C125.633 111.047 125.368 111.312 125.042 111.312H105.256C104.929 111.312 104.664 111.047 104.664 110.72V110.232C104.664 109.906 104.929 109.641 105.256 109.641Z" fill="white"/>
<path d="M116.246 96.523H126.934C127.516 96.523 128.008 96.0904 128.082 95.5132L128.84 89.5936C128.908 89.059 128.492 88.5859 127.953 88.5859H117.265C116.683 88.5859 116.191 89.0185 116.117 89.5957L115.359 95.5153C115.29 96.0499 115.707 96.523 116.246 96.523Z" fill="#263238"/>
<path opacity="0.6" d="M116.246 96.523H126.934C127.516 96.523 128.008 96.0904 128.082 95.5132L128.84 89.5936C128.908 89.059 128.492 88.5859 127.953 88.5859H117.265C116.683 88.5859 116.191 89.0185 116.117 89.5957L115.359 95.5153C115.29 96.0499 115.707 96.523 116.246 96.523Z" fill="white"/>
<path d="M109.473 86.4689C108.87 85.6109 108.311 84.746 107.781 83.8406C107.513 83.39 107.26 82.9289 107.01 82.4531C106.884 82.2152 106.767 81.9665 106.648 81.7094C106.532 81.4472 106.413 81.1505 106.326 80.8775C105.992 79.8056 105.795 78.8039 105.606 77.7734C105.42 76.7495 105.28 75.7256 105.177 74.6876C105.144 74.3513 105.389 74.0519 105.725 74.0186C106.011 73.9904 106.27 74.1629 106.362 74.4215L106.364 74.4269C106.707 75.3902 107.04 76.3616 107.361 77.3246C107.527 77.8049 107.683 78.2867 107.854 78.7571C108.015 79.2287 108.189 79.7012 108.368 80.1224C108.455 80.3318 108.543 80.5049 108.655 80.7017C108.77 80.9012 108.897 81.1031 109.024 81.3113C109.281 81.7265 109.56 82.142 109.833 82.5623C110.389 83.3963 110.953 84.2465 111.5 85.0868L111.505 85.0955C111.875 85.6634 111.714 86.423 111.146 86.7923C110.591 87.1529 109.852 87.0053 109.473 86.4689Z" fill="#E9B376"/>
<path d="M99.825 109.643C99.2547 110.819 112.155 111.315 112.155 111.315C112.155 111.315 111.278 107.664 107.39 107.099C103.502 106.533 100.786 107.663 99.825 109.643Z" fill="#24774A"/>
<path opacity="0.2" d="M99.825 109.643C99.2547 110.819 112.155 111.315 112.155 111.315C112.155 111.315 111.278 107.664 107.39 107.099C103.502 106.533 100.786 107.663 99.825 109.643Z" fill="black"/>
<path d="M103.845 123.604L105.867 123.389C105.867 123.389 104.212 111.589 105.027 110.417C105.716 109.43 108.984 109.224 113.588 108.993C114.445 108.95 115.352 108.907 116.296 108.858C122.297 108.544 109.747 102.453 109.747 102.453C109.747 102.453 102.826 104.447 100.73 107.212C98.8028 109.755 103.845 123.604 103.845 123.604Z" fill="#EBB376"/>
<path opacity="0.1" d="M103.845 123.604L105.867 123.389C105.867 123.389 104.212 111.589 105.027 110.417C105.716 109.43 108.984 109.224 113.588 108.993C114.445 108.95 115.352 108.907 116.296 108.858C122.297 108.544 109.747 102.453 109.747 102.453C109.747 102.453 102.826 104.447 100.73 107.212C98.8028 109.755 103.845 123.604 103.845 123.604Z" fill="black"/>
<path d="M103.416 122.607L105.99 122.446C106.079 122.437 106.16 122.501 106.169 122.591C106.169 122.592 106.169 122.593 106.169 122.594L106.422 124.624C106.436 124.846 106.269 125.037 106.047 125.054C105.148 125.095 104.717 125.07 103.584 125.132C102.889 125.173 101.519 125.321 100.56 125.228C99.6006 125.135 99.7179 124.19 100.132 124.145C101.114 124.033 102.416 123.311 103.03 122.764C103.138 122.67 103.274 122.615 103.416 122.607Z" fill="#263238"/>
<path d="M102.189 122.962C102.107 122.889 102.074 122.774 102.105 122.668C102.113 122.599 102.156 122.539 102.219 122.509C102.494 122.383 103.172 122.785 103.248 122.831C103.265 122.844 103.274 122.864 103.272 122.885C103.27 122.906 103.255 122.923 103.234 122.928C103.037 122.99 102.833 123.03 102.627 123.048C102.475 123.075 102.319 123.045 102.189 122.962ZM102.265 122.616C102.234 122.63 102.212 122.66 102.209 122.694C102.192 122.761 102.211 122.832 102.259 122.882C102.374 122.981 102.676 122.975 103.081 122.868C102.804 122.716 102.411 122.548 102.265 122.616Z" fill="#24774A"/>
<path d="M103.196 122.932C102.959 122.812 102.588 122.353 102.624 122.1C102.638 122.007 102.714 121.936 102.807 121.927C102.89 121.911 102.975 121.933 103.041 121.987C103.284 122.197 103.273 122.867 103.274 122.888C103.272 122.905 103.263 122.921 103.248 122.931C103.24 122.933 103.232 122.933 103.225 122.929C103.216 122.934 103.206 122.936 103.196 122.932ZM102.827 122.04C102.751 122.054 102.733 122.092 102.731 122.124C102.716 122.292 102.957 122.639 103.164 122.795C103.157 122.579 103.117 122.203 102.97 122.078C102.938 122.048 102.896 122.033 102.853 122.037L102.827 122.04Z" fill="#24774A"/>
<path d="M107.568 107.44C108.008 105.785 110.977 103.221 113.423 102.828L116.957 108.875C113.252 109.027 112.112 110.108 112.029 110.452C111.63 112.095 112.887 123.605 112.887 123.605H110.742C110.742 123.605 106.481 111.525 107.568 107.44Z" fill="#EBB376"/>
<path d="M111.639 100.144C111.639 100.144 105.136 102.802 102.203 105.291C99.7939 107.336 99.8242 109.645 99.8242 109.645C99.8242 109.645 101.691 107.974 104.664 108.571C108.462 109.335 112.155 111.317 112.155 111.317C112.155 111.317 113.755 109.441 118.629 108.908C123.502 108.376 123.525 103.715 121.092 99.9219L111.639 100.144Z" fill="#24774A"/>
<path d="M110.565 122.607L113.138 122.446C113.228 122.437 113.308 122.501 113.318 122.591C113.318 122.592 113.318 122.593 113.318 122.594L113.57 124.624C113.584 124.846 113.417 125.037 113.195 125.054C112.297 125.095 111.865 125.07 110.732 125.132C110.037 125.173 108.668 125.321 107.708 125.228C106.749 125.135 106.866 124.19 107.281 124.145C108.263 124.033 109.564 123.311 110.179 122.764C110.286 122.67 110.422 122.615 110.565 122.607Z" fill="#263238"/>
<path d="M109.338 122.962C109.255 122.889 109.223 122.774 109.254 122.668C109.262 122.599 109.305 122.539 109.368 122.509C109.643 122.383 110.32 122.785 110.397 122.831C110.413 122.844 110.423 122.864 110.421 122.885C110.419 122.906 110.403 122.923 110.383 122.928C110.185 122.99 109.982 123.03 109.776 123.048C109.624 123.075 109.468 123.045 109.338 122.962ZM109.413 122.616C109.382 122.63 109.361 122.66 109.358 122.694C109.34 122.761 109.359 122.832 109.408 122.882C109.523 122.981 109.824 122.975 110.23 122.868C109.953 122.716 109.56 122.548 109.413 122.616Z" fill="#24774A"/>
<path d="M110.344 122.932C110.108 122.812 109.736 122.353 109.772 122.1C109.786 122.007 109.862 121.936 109.956 121.927C110.039 121.911 110.124 121.933 110.189 121.987C110.433 122.197 110.422 122.867 110.423 122.888C110.421 122.905 110.411 122.921 110.396 122.931C110.388 122.933 110.38 122.933 110.373 122.929C110.364 122.934 110.354 122.936 110.344 122.932ZM109.975 122.04C109.899 122.054 109.882 122.092 109.879 122.124C109.865 122.292 110.105 122.639 110.313 122.795C110.305 122.579 110.265 122.203 110.118 122.078C110.087 122.048 110.044 122.033 110.001 122.037L109.975 122.04Z" fill="#24774A"/>
<path d="M107.598 84.7309L110.153 82.7656C110.153 82.7656 110.168 82.777 110.198 82.7998C110.213 82.8112 110.233 82.8265 110.256 82.8421C110.252 82.8445 110.255 82.8448 110.255 82.8448C110.258 82.8454 110.26 82.8487 110.266 82.8496C110.266 82.8496 110.265 82.8523 110.268 82.8529C110.343 82.9096 110.453 82.996 110.584 83.1061C110.623 83.1391 110.668 83.176 110.713 83.2102C110.723 83.2204 110.733 83.2282 110.745 83.239C110.789 83.2786 110.833 83.3155 110.881 83.3557C110.94 83.4067 110.998 83.4604 111.06 83.5147C111.393 83.8138 113.163 85.2979 113.445 85.6591C113.492 85.7251 113.541 85.7884 113.583 85.8535C113.678 85.9882 113.756 86.1229 113.812 86.2504C113.822 86.2723 113.83 86.2936 113.834 86.3146C113.841 86.3272 113.846 86.3425 113.849 86.3575C113.859 86.3848 113.867 86.4178 113.872 86.4502C113.877 86.4712 113.881 86.4946 113.885 86.5183C113.888 86.536 113.89 86.5534 113.892 86.5738C113.896 86.6119 113.901 86.6497 113.905 86.6905C113.905 86.7334 113.906 86.7766 113.909 86.8228C113.909 86.8657 113.907 86.911 113.907 86.9569C113.907 86.9683 113.905 86.9821 113.905 86.9938L113.905 86.9965C113.904 87.0307 113.901 87.0643 113.9 87.0985C113.897 87.1465 113.893 87.1972 113.887 87.2476C113.88 87.298 113.876 87.3487 113.87 87.3988C113.863 87.4519 113.856 87.5047 113.846 87.5572C113.611 89.0197 111.355 89.806 110.696 89.4463C109.382 88.7215 108.102 85.9225 107.716 85.0159C107.638 84.8359 107.598 84.7309 107.598 84.7309Z" fill="#24774A"/>
<path opacity="0.6" d="M113.908 86.8303C113.908 86.8726 113.906 86.9173 113.906 86.9623C113.908 86.9734 113.906 86.9875 113.906 86.9989V87.0016C113.903 87.0382 113.9 87.0718 113.9 87.1057C113.897 87.1534 113.894 87.2041 113.886 87.2545C113.88 87.3052 113.878 87.3556 113.869 87.4063C113.863 87.457 113.855 87.5101 113.847 87.5638C113.653 88.7749 112.071 89.5222 111.157 89.5393C110.969 89.542 110.809 89.5141 110.697 89.4523C110.3 89.2333 109.907 88.8313 109.545 88.3453C109.494 88.2808 109.446 88.2133 109.399 88.1458C108.615 87.0388 107.971 85.6198 107.716 85.024C107.64 84.8413 107.598 84.7375 107.598 84.7375L110.155 82.7734C110.155 82.7734 110.169 82.7845 110.2 82.807C110.214 82.8181 110.233 82.8322 110.256 82.849C110.258 82.8517 110.261 82.8517 110.267 82.8574C110.267 82.8574 110.267 82.8601 110.27 82.8601C110.343 82.9162 110.452 83.0035 110.584 83.113C110.624 83.1439 110.669 83.1805 110.714 83.2168C110.722 83.2279 110.734 83.2336 110.745 83.245C110.79 83.2816 110.835 83.3179 110.882 83.3629C110.941 83.4136 110.998 83.4667 111.059 83.5204C111.394 83.821 113.164 85.3048 113.445 85.6642C113.493 85.7317 113.54 85.7935 113.583 85.861C113.678 85.996 113.757 86.1307 113.813 86.2573C113.821 86.2798 113.83 86.2996 113.836 86.3221C113.841 86.3335 113.847 86.3503 113.85 86.3644C113.858 86.3926 113.866 86.4235 113.872 86.4571C113.878 86.4769 113.881 86.5021 113.886 86.5246C113.889 86.5441 113.889 86.5612 113.892 86.5807C113.898 86.62 113.9 86.6566 113.906 86.6986C113.906 86.7403 113.906 86.7826 113.908 86.8303Z" fill="white"/>
<path d="M107.379 84.5905L109.954 82.3516L110.322 82.6117L110.451 82.7014L110.268 82.8562L110.248 82.8724L107.716 85.0192L107.648 85.0777L107.379 84.5905Z" fill="#24774A"/>
<path opacity="0.2" d="M111.156 89.5343C110.967 89.537 110.807 89.5091 110.695 89.4473C110.299 89.2283 109.905 88.8263 109.543 88.3403C110.054 87.593 110.99 87.1406 110.99 87.1406C111.642 87.9299 111.403 88.7531 111.156 89.5343Z" fill="black"/>
<path d="M121.675 100.852C121.675 100.852 121.51 91.3841 120.612 89.4416C119.713 87.4994 118.262 84.8444 111.979 86.3807C111.979 86.3807 109.597 87.0518 110.004 89.9888C110.41 92.9258 110.544 100.546 110.544 100.546L121.675 100.852Z" fill="#24774A"/>
<path opacity="0.6" d="M109.999 89.9872C110.12 90.8527 110.216 92.1199 110.292 93.4798C110.308 93.7945 110.325 94.1176 110.342 94.4407C110.379 95.188 110.41 95.9413 110.435 96.6493C110.441 96.7729 110.443 96.8965 110.449 97.0174C110.514 98.9956 110.542 100.544 110.542 100.544L121.674 100.853C121.674 100.853 121.509 91.3807 120.609 89.4421C119.71 87.5005 118.26 84.8422 111.978 86.3821C111.978 86.3821 109.595 87.0508 109.999 89.9872Z" fill="white"/>
<path d="M112.931 88.1375L112.205 86.9591L111.203 88.1375C111.203 88.1375 111.486 85.01 115.123 84.938C116.613 84.9083 116.966 86.1701 116.966 86.1701C116.328 87.1994 114.639 88.3193 114.639 88.3193L113.967 87.3005L112.931 88.1375Z" fill="#24774A"/>
<path d="M106.219 89.9453L104.449 94.5263" stroke="#263238" stroke-width="2.0077" stroke-miterlimit="10"/>
<path d="M115.762 82.289C115.762 82.289 115.595 83.3798 115.674 84.4352C115.709 84.9443 115.801 85.4399 115.995 85.832C115.995 85.832 115.024 86.7725 114.147 86.9726L113.178 87.6923L113.241 86.7104C113.241 86.7104 113.249 86.6603 113.253 86.5727C113.276 86.1926 113.245 85.0004 112.168 84.5534C110.685 83.9342 115.762 82.289 115.762 82.289Z" fill="#EBB376"/>
<path opacity="0.2" d="M115.764 82.289C115.764 82.289 115.596 83.3798 115.676 84.4352C115.061 85.3526 114.27 86.2295 113.255 86.5727C113.278 86.1926 113.247 85.0004 112.17 84.5534C110.687 83.9342 115.764 82.289 115.764 82.289Z" fill="black"/>
<path d="M104.284 92.9699L104.84 92.735C105.05 92.6468 105.289 92.6648 105.482 92.7839L106.386 93.3404C106.747 93.5627 106.979 93.9464 107.007 94.37L107.024 94.6322C106.128 95.0849 104.826 94.9142 104.826 94.9142L104.449 94.9067C104.114 94.8998 103.857 94.6448 103.859 94.3205L103.865 93.5741C103.866 93.3161 104.033 93.0758 104.284 92.9699Z" fill="#EBB376"/>
<path opacity="0.2" d="M110.293 93.4761C110.31 93.7908 110.327 94.1139 110.344 94.437C110.38 95.1843 110.411 95.9376 110.436 96.6456C110.442 96.7692 110.445 96.8928 110.45 97.0137C118.442 96.6483 119.692 90.7449 119.692 90.7449C119.692 90.7449 117.619 88.5813 116.455 88.8144C115.292 89.0505 112.653 92.2341 112.653 92.2341L112.763 92.6754C112.459 93.0066 110.978 93.3384 110.293 93.4761Z" fill="black"/>
<path d="M118.666 91.3855C118.262 91.8541 117.869 92.2342 117.45 92.6344C117.031 93.0238 116.596 93.3973 116.14 93.7498C115.686 94.105 115.205 94.435 114.707 94.7443C114.207 95.0542 113.674 95.3275 113.117 95.5699L113.027 95.6092C112.985 95.6275 112.939 95.6398 112.895 95.6461C112.716 95.6701 112.517 95.704 112.355 95.71C112.196 95.7148 112.027 95.7259 111.877 95.7193C111.572 95.7127 111.28 95.6926 110.994 95.6668C110.423 95.6125 109.871 95.5252 109.325 95.4301C108.779 95.3284 108.24 95.2156 107.706 95.0869C107.172 94.9513 106.644 94.8181 106.112 94.6507C105.79 94.5493 105.611 94.2055 105.712 93.883C105.797 93.6124 106.053 93.4426 106.324 93.4549L106.328 93.4552L107.931 93.5293L109.523 93.5953C110.049 93.6157 110.572 93.6187 111.08 93.6145L111.455 93.604L111.814 93.5791C111.934 93.5707 112.034 93.5509 112.144 93.5404C112.251 93.5272 112.316 93.5008 112.403 93.4873L112.181 93.5635C112.602 93.3334 113.016 93.0736 113.423 92.7877C113.827 92.4946 114.226 92.188 114.615 91.8592C115.001 91.5283 115.384 91.1878 115.756 90.8341C116.126 90.49 116.501 90.1024 116.825 89.7655L116.852 89.7367C117.321 89.248 118.097 89.2318 118.586 89.7007C119.058 90.1528 119.087 90.8953 118.666 91.3855Z" fill="#E9B376"/>
<path d="M119.081 87.422C117.291 85.7705 113.658 91.9283 113.658 91.9283L115.856 94.6373C115.856 94.6373 122.96 91.001 119.081 87.422Z" fill="#24774A"/>
<path opacity="0.6" d="M119.081 87.422C117.291 85.7705 113.658 91.9283 113.658 91.9283L115.856 94.6373C115.856 94.6373 122.96 91.001 119.081 87.422Z" fill="white"/>
<path d="M116.316 94.7568L113.658 91.5234L113.164 92.2419L115.464 95.2926L116.316 94.7568Z" fill="#24774A"/>
<path d="M117.768 77.4861C117.768 77.4861 118.824 76.1502 121.068 76.5882C123.312 77.0259 124.287 79.6917 122.301 82.3071C120.315 84.9225 121.516 85.6221 121.048 86.3688C120.58 87.1158 119.817 86.9508 119.817 86.9508C119.817 86.9508 120.695 86.7639 119.658 85.848C118.62 84.9321 118.654 82.7304 119.177 81.6378C119.699 80.5449 118.812 79.8507 118.026 80.2005L117.768 77.4861Z" fill="#263238"/>
<path d="M111.64 76.3203C111.64 76.3203 110.126 77.2776 110.477 79.0458C110.827 80.814 113.59 77.6448 113.59 77.6448L111.64 76.3203Z" fill="#263238"/>
<path d="M117.829 80.7037C116.84 82.8838 116.386 84.2128 114.69 84.8815C112.136 85.8928 109.413 83.7115 109.647 81.2545C109.846 79.0399 111.436 75.8533 114.231 75.883C117.026 75.9121 118.818 78.5263 117.829 80.7037Z" fill="#EBB376"/>
<path d="M113.358 78.8145C113.348 78.7908 113.344 78.7644 113.347 78.7386C113.366 78.6732 113.434 78.6348 113.501 78.6525C113.889 78.7488 114.205 79.0293 114.346 79.4031C114.367 79.4682 114.331 79.5378 114.266 79.5585C114.201 79.5759 114.134 79.5411 114.11 79.4778C113.991 79.1823 113.735 78.9639 113.424 78.8937C113.393 78.8775 113.369 78.8487 113.358 78.8145Z" fill="#263238"/>
<path d="M110.6 78.2033C110.578 78.1904 110.559 78.1715 110.546 78.1487C110.524 78.0842 110.556 78.0134 110.62 77.9885C110.99 77.8376 111.411 77.8781 111.745 78.0968C111.801 78.1373 111.812 78.2147 111.772 78.2699C111.73 78.3221 111.655 78.3338 111.599 78.2963C111.328 78.1274 110.993 78.1022 110.7 78.2285C110.665 78.2339 110.629 78.2249 110.6 78.2033Z" fill="#263238"/>
<path d="M111.451 80.375L110.729 80.6609C110.729 80.6609 110.811 80.9447 111.356 81.1706L111.451 80.375Z" fill="#D58745"/>
<path d="M110.9 81.8543C110.996 82.2272 111.034 82.8998 111.034 82.8998C111.096 82.9073 111.157 82.9148 111.219 82.919C112.057 82.9997 112.472 82.7603 112.679 82.4705C112.791 82.3115 112.839 82.1351 112.859 81.9893C112.884 81.821 112.863 81.6953 112.863 81.6953C112.393 81.9179 111.606 81.9029 111.186 81.8774C111.01 81.8687 110.9 81.8543 110.9 81.8543Z" fill="#263238"/>
<path d="M111.188 81.8774L111.235 82.1846C112.024 82.2587 112.59 82.2047 112.86 81.9893C112.885 81.821 112.864 81.6953 112.864 81.6953C112.394 81.9179 111.607 81.9032 111.188 81.8774Z" fill="white"/>
<path d="M111.219 82.9156C112.057 82.9963 112.472 82.7569 112.678 82.4671C112.392 82.4506 112.044 82.4626 111.73 82.5619C111.49 82.6369 111.33 82.7728 111.219 82.9156Z" fill="#DE5753"/>
<path d="M115.437 82.2804C115.437 82.2804 114.962 81.4449 115.167 80.304C115.167 80.304 113.152 79.017 112.72 77.5263C112.72 77.5263 112.84 78.9396 113.853 80.004C113.853 80.004 110.959 78.3285 111.36 76.5402C111.762 74.7519 114.284 74.7297 116.77 76.0233C119.257 77.3169 119.319 79.7313 118.557 81.2298C118.557 81.2298 117.933 84.4386 115.646 84.3435C115.646 84.3435 116.409 82.8372 115.437 82.2804Z" fill="#263238"/>
<path d="M115.414 81.5587C115.414 81.5587 116.308 80.4202 116.863 81.001C117.419 81.5821 116.718 83.6911 115.732 83.4286C114.747 83.1664 114.784 82.1305 115.414 81.5587Z" fill="#EBB376"/>
<path d="M112.729 80.2663C112.679 80.5048 112.767 80.7256 112.926 80.7592C113.085 80.7928 113.255 80.6266 113.305 80.3878C113.355 80.1493 113.267 79.9285 113.108 79.8949C112.949 79.8616 112.779 80.0278 112.729 80.2663Z" fill="#263238"/>
<path d="M113.171 79.9223L112.695 79.6094C112.695 79.6094 112.862 80.1005 113.171 79.9223Z" fill="#263238"/>
<path d="M110.549 79.5553C110.499 79.7938 110.587 80.0146 110.746 80.0482C110.905 80.0818 111.075 79.9156 111.125 79.6768C111.176 79.4383 111.088 79.2175 110.929 79.1839C110.77 79.1506 110.6 79.3168 110.549 79.5553Z" fill="#263238"/>
<path d="M110.992 79.2113L110.516 78.8984C110.516 78.8984 110.682 79.3895 110.992 79.2113Z" fill="#263238"/>
<path d="M106.682 75.3764L106.908 73.0781L104.893 73.2047C104.893 73.2047 104.509 74.789 105.613 75.5579L106.682 75.3764Z" fill="#EBB376"/>
<path d="M106.28 71.5547L104.801 72.0086L104.891 73.2011L106.906 73.0745L106.28 71.5547Z" fill="#EBB376"/>
<path d="M100.375 94.2202C101.079 94.1968 102.839 94.3264 102.839 94.3264L103.654 94.0234C103.654 94.0234 107.767 94.6648 108.231 94.6345C108.694 94.6042 109.955 95.0953 109.955 95.0953L100.875 95.4937L100.375 94.2202Z" fill="#24774A"/>
<path opacity="0.9" d="M100.375 94.2202C101.079 94.1968 102.839 94.3264 102.839 94.3264L103.654 94.0234C103.654 94.0234 107.767 94.6648 108.231 94.6345C108.694 94.6042 109.955 95.0953 109.955 95.0953L100.875 95.4937L100.375 94.2202Z" fill="white"/>
<path d="M98.4004 95.0954C98.4004 95.0954 99.9844 93.5921 101.457 94.5242C101.457 94.5242 103.425 93.3974 105.443 94.5242L108.128 95L98.4004 95.0954Z" fill="#24774A"/>
<path opacity="0.7" d="M98.4004 95.0954C98.4004 95.0954 99.9844 93.5921 101.457 94.5242C101.457 94.5242 103.425 93.3974 105.443 94.5242L108.128 95L98.4004 95.0954Z" fill="white"/>
<path d="M94.7962 96.2201H114.675C114.908 96.2201 115.096 96.0314 115.096 95.7986V95.4215C115.096 95.1887 114.907 95 114.675 95H94.7962C94.5634 95 94.375 95.1887 94.375 95.4215V95.7986C94.375 96.0314 94.5637 96.2201 94.7962 96.2201Z" fill="#263238"/>
<path opacity="0.6" d="M94.373 95.4089V95.8121C94.373 96.038 94.556 96.221 94.7846 96.221H114.686C114.912 96.221 115.095 96.038 115.095 95.8121V95.4089C115.095 95.183 114.912 95 114.686 95H94.7846C94.556 95 94.373 95.183 94.373 95.4089Z" fill="white"/>
<path opacity="0.3" d="M94.373 95.4089V95.8121C94.373 96.038 94.556 96.221 94.7846 96.221H104.392C104.618 96.221 104.801 96.038 104.801 95.8121V95.4089C104.801 95.183 104.618 95 104.392 95H94.7846C94.556 95 94.373 95.183 94.373 95.4089Z" fill="white"/>
<path d="M48.0807 118.625L43.8711 118.666L45.2706 123.711L48.7896 123.682L48.0807 118.625Z" fill="#EBB376"/>
<path opacity="0.2" d="M48.0783 118.625L43.8672 118.666L44.6517 121.491L48.4761 121.457L48.0783 118.625Z" fill="black"/>
<path d="M37.3175 98.9767C34.9433 92.5015 31.4372 82.8154 32.6444 79.8379L45.7001 79.5391C45.7001 79.5391 46.4963 93.7153 47.0075 99.6895C47.5397 105.901 48.6746 120.586 48.6746 120.586L44.114 120.598C44.114 120.598 37.9223 106.366 37.3175 98.9767Z" fill="#263238"/>
<path d="M44.6719 125.249H45.5896L45.8383 124.877L46.3201 125.253H51.8593C51.9679 124.702 51.6229 123.984 51.6229 123.984C51.6229 123.984 49.9663 123.833 49.3294 123.008C49.2802 122.944 49.2034 122.909 49.1248 122.926C48.5731 123.041 46.3822 123.456 45.1762 123.022C45.0454 122.975 44.9074 123.063 44.9053 123.202C44.8903 124.156 44.6719 125.249 44.6719 125.249Z" fill="#263238"/>
<path d="M32.3202 118.617L28.1016 118.658L28.4013 123.708L31.9263 123.68L32.3202 118.617Z" fill="#EBB376"/>
<path opacity="0.2" d="M32.3178 118.617L28.0977 118.658L28.2663 121.486L32.0979 121.453L32.3178 118.617Z" fill="black"/>
<path d="M25.839 98.9514C24.8766 92.469 23.4822 82.7721 25.3386 79.7913L38.4597 79.4922C38.4597 79.4922 36.1653 93.6843 35.3739 99.6651C34.5519 105.884 32.4852 120.585 32.4852 120.585L27.9219 120.597C27.9219 120.597 24.8328 106.349 25.839 98.9514Z" fill="#263238"/>
<path d="M43.4281 57.8217C44.1766 58.2939 44.7247 58.8603 45.1285 59.3823C45.5377 59.9067 45.8254 60.3993 46.0699 60.858C46.5577 61.7712 46.8718 62.5752 47.1979 63.3126C47.8132 64.785 48.3832 66.0021 49.1149 66.9648C49.2937 67.2096 49.4836 67.4367 49.687 67.6473L49.7629 67.7268L49.8007 67.767C49.8139 67.7808 49.8085 67.7769 49.813 67.7829C49.8202 67.7973 49.8241 67.8162 49.8559 67.8441C49.8748 67.8696 49.9105 67.9002 49.9513 67.9326C49.9846 67.9638 50.038 68.0007 50.0851 68.0382C50.497 68.3448 51.1594 68.6523 51.8326 68.9475C53.2003 69.5334 54.7708 70.0509 56.2723 70.6215L56.3488 70.6506C57.1552 70.9572 57.5602 71.8593 57.2536 72.6654C57.0421 73.2219 56.5444 73.5876 55.9924 73.6596C55.0729 73.7775 54.2113 73.8225 53.3137 73.8141C52.8673 73.8147 52.4197 73.7958 51.9679 73.7628C51.5152 73.7352 51.0592 73.6884 50.5969 73.617C49.6636 73.4808 48.7279 73.2849 47.6485 72.8454C47.5111 72.7866 47.3773 72.732 47.233 72.6546C47.0929 72.5844 46.9495 72.5085 46.7977 72.4146C46.6528 72.3321 46.4929 72.2223 46.3357 72.1089L46.2253 72.0282L46.1458 71.9655L45.9871 71.8392C45.5635 71.502 45.166 71.136 44.7985 70.7523C44.0593 69.9846 43.4506 69.1404 42.9283 68.31C42.4054 67.4748 41.9899 66.639 41.6035 65.8623C41.2363 65.0856 40.8916 64.3581 40.5949 63.8013C40.4449 63.5268 40.3033 63.3027 40.2046 63.1665C40.1017 63.03 40.0588 62.9931 40.108 63.0099C38.6752 62.0934 38.2567 60.1887 39.1735 58.7562C40.0909 57.3237 41.9953 56.9052 43.4281 57.8217Z" fill="#24774A"/>
<path d="M56.1328 73.4861L56.3362 71.7197C57.1936 70.0598 59.1367 71.531 59.1367 71.531L60.9121 71.9798C61.3258 72.0917 61.5904 72.5348 61.5376 73.0268L61.405 74.2628C61.3447 74.8262 60.8935 75.2489 60.4051 75.1997L58.7524 74.9708C58.4332 74.9387 58.1266 74.8283 57.8602 74.6489L56.1328 73.4861Z" fill="#EBB376"/>
<path d="M42.2371 57.3121C38.8672 56.236 34.165 55.2739 30.3472 54.9745C27.913 54.7834 26.0461 56.6323 26.2576 58.9672C27.1162 68.4436 24.4453 78.2917 25.4671 80.4478C25.4671 80.4478 38.6485 82.2415 45.8635 82.6231C48.9667 73.8832 45.9553 67.6798 44.9797 60.058C44.8108 58.7374 43.5397 57.7279 42.2371 57.3121Z" fill="#24774A"/>
<path d="M40.5269 57.4362C40.5125 57.0348 40.2614 56.3649 39.8399 56.0568C39.8462 55.5693 40.0274 55.0665 40.43 54.5226L36.1586 51.375C35.8316 53.3712 35.0075 54.9474 33.9434 55.7013C34.7582 56.6478 36.2618 58.3572 38.4815 58.815C40.7009 59.2728 40.5581 58.3134 40.5269 57.4362Z" fill="#EBB376"/>
<path opacity="0.2" d="M40.3123 54.6882L36.1582 51.375C36.1582 54.519 38.7094 56.1957 39.8554 55.8285C39.9022 55.4619 40.0471 55.0866 40.3123 54.6882Z" fill="black"/>
<path d="M38.6142 58.8389L38.0262 57.8516L36.5508 58.187C36.5508 58.187 37.0212 59.1176 38.6142 58.8389Z" fill="#24774A"/>
<path opacity="0.3" d="M38.6142 58.8389L38.0262 57.8516L36.5508 58.187C36.5508 58.187 37.0212 59.1176 38.6142 58.8389Z" fill="black"/>
<path d="M34.8514 54.5156C34.8514 54.5156 35.7289 57.1772 38.0266 57.8501C36.3889 58.187 35.5129 59.6999 35.5129 59.6999C35.5129 59.6999 32.8228 58.4666 33.5824 55.1507C34.1416 54.722 34.8514 54.5156 34.8514 54.5156Z" fill="#24774A"/>
<path d="M38.6133 58.8372L40.0278 58.1406L41.1717 58.8486C41.1717 58.8486 39.7131 59.7564 38.6133 58.8372Z" fill="#24774A"/>
<path opacity="0.3" d="M38.6133 58.8372L40.0278 58.1406L41.1717 58.8486C41.1717 58.8486 39.7131 59.7564 38.6133 58.8372Z" fill="black"/>
<path d="M39.8398 56.0547C39.8398 56.0547 40.3069 57.3525 40.0288 58.1421C40.9951 58.7208 40.8451 60.4905 40.8451 60.4905C40.8451 60.4905 42.0142 58.1868 40.816 56.5095C40.5142 56.1285 39.8398 56.0547 39.8398 56.0547Z" fill="#24774A"/>
<path opacity="0.7" d="M34.8514 54.5156C34.8514 54.5156 35.7289 57.1772 38.0266 57.8501C36.3889 58.187 35.5129 59.6999 35.5129 59.6999C35.5129 59.6999 32.8228 58.4666 33.5824 55.1507C34.1416 54.722 34.8514 54.5156 34.8514 54.5156Z" fill="white"/>
<path opacity="0.7" d="M39.8398 56.0547C39.8398 56.0547 40.3069 57.3525 40.0288 58.1421C40.9951 58.7208 40.8451 60.4905 40.8451 60.4905C40.8451 60.4905 42.0142 58.1868 40.816 56.5095C40.5142 56.1285 39.8398 56.0547 39.8398 56.0547Z" fill="white"/>
<path d="M27.8027 125.249H28.7204L28.9691 124.877L29.4509 125.253H34.9901C35.0987 124.702 34.7537 123.984 34.7537 123.984C34.7537 123.984 33.0971 123.833 32.4602 123.008C32.411 122.944 32.3342 122.909 32.2556 122.926C31.7039 123.041 29.513 123.456 28.307 123.022C28.1762 122.975 28.0385 123.063 28.0361 123.202C28.0211 124.156 27.8027 125.249 27.8027 125.249Z" fill="#263238"/>
<path d="M43.0134 46.2043C43.0134 46.2043 45.792 48.6625 43.3089 51.0211C40.8261 53.38 40.9023 45.352 43.0134 46.2043Z" fill="#263238"/>
<path d="M36.0256 48.1006C35.6944 50.6605 35.5276 52.4095 36.8719 53.8444C39.5431 56.6953 41.6677 55.7623 42.8044 53.3917C43.8274 51.2578 44.1973 47.4301 41.7643 45.823C39.3673 44.2396 36.3568 45.5404 36.0256 48.1006Z" fill="#EBB376"/>
<path d="M40.6196 49.6838C40.5716 49.904 40.6496 50.1071 40.7942 50.1371C40.9385 50.1674 41.0945 50.0132 41.1425 49.793C41.1905 49.5728 41.1125 49.37 40.9679 49.3397C40.8236 49.3094 40.6676 49.4636 40.6196 49.6838Z" fill="#263238"/>
<path d="M42.8852 50.2307C42.8372 50.4509 42.9152 50.6537 43.0598 50.684C43.2041 50.714 43.3601 50.5601 43.4081 50.3399C43.4561 50.1197 43.3781 49.9166 43.2335 49.8866C43.0892 49.8563 42.9332 50.0105 42.8852 50.2307Z" fill="#263238"/>
<path d="M42.0904 50.2422L41.6719 52.0902C41.6719 52.0902 41.9713 52.2327 42.3151 52.2606C42.5128 52.2768 42.6439 52.0515 42.538 51.8835C42.1681 51.2973 42.0904 50.2422 42.0904 50.2422Z" fill="#D58745"/>
<path d="M39.5855 48.7951C39.5648 48.7876 39.5456 48.7753 39.53 48.7573C39.4823 48.7024 39.4886 48.6187 39.5444 48.571C40.1018 48.0907 40.6922 48.2506 40.7171 48.2578C40.7876 48.2776 40.8278 48.3508 40.8074 48.421C40.787 48.4909 40.7135 48.5317 40.6433 48.5122C40.6238 48.5071 40.1624 48.3871 39.7175 48.7705C39.6797 48.8029 39.629 48.8107 39.5855 48.7951Z" fill="#263238"/>
<path d="M43.8925 49.8275C43.8508 49.8179 43.8145 49.7882 43.7986 49.7453C43.5967 49.1993 43.1335 49.0859 43.1137 49.0814C43.0426 49.0649 42.9985 48.9944 43.0153 48.9233C43.0321 48.8525 43.1029 48.8078 43.174 48.8234C43.1998 48.8297 43.795 48.968 44.0479 49.6523C44.0731 49.7207 44.0377 49.7969 43.969 49.8224C43.9435 49.8317 43.9171 49.8329 43.8925 49.8275Z" fill="#263238"/>
<path d="M42.3912 53.1413C42.3912 53.1413 41.5335 52.6973 38.9727 52.0391C39.075 52.8857 39.4734 53.6579 40.788 53.9828C42.1026 54.3077 42.3912 53.1413 42.3912 53.1413Z" fill="#263238"/>
<path d="M40.3366 53.2211C40.9711 53.3777 41.3911 53.6396 41.6695 53.9603C41.4484 54.0476 41.158 54.0722 40.7908 53.9813C40.1566 53.8247 39.7381 53.567 39.4609 53.243C39.682 53.1557 39.9694 53.1302 40.3366 53.2211Z" fill="#A02724"/>
<path d="M42.2814 53.0924C42.1665 53.2379 42.0522 53.3837 41.7822 53.3711C41.2392 53.2703 39.9129 52.7678 39.5655 52.5968C39.3405 52.4981 39.1608 52.3664 39.084 52.0703C41.0547 52.5821 41.9844 52.9598 42.2814 53.0924Z" fill="white"/>
<path d="M36.8601 50.5451C36.8601 50.5451 38.7159 48.5036 38.2698 46.4654C38.2698 46.4654 39.5493 47.2436 42.2805 47.0954C42.2805 47.0954 41.4546 47.9039 39.894 47.429C39.894 47.429 41.724 48.3182 43.5903 47.4659C45.4566 46.6136 43.2876 44.7185 40.8807 44.3111C38.4738 43.9034 36.7491 43.946 36.5514 45.1319C36.5514 45.1319 33.9435 45.1319 34.7478 49.829L36.8601 50.5451Z" fill="#263238"/>
<path d="M34.4203 50.5835C34.6681 51.2861 35.2198 51.8066 35.7793 52.0595C36.6211 52.4399 37.189 51.7217 37.0783 50.8553C36.9787 50.0756 36.4207 48.938 35.5165 48.9221C34.6258 48.9068 34.1368 49.7804 34.4203 50.5835Z" fill="#EBB376"/>
<path d="M30.6724 61.2848L30.4108 61.4717L30.1174 61.6877L29.5225 62.1314C29.1289 62.435 28.7323 62.7368 28.3513 63.0521C27.5812 63.674 26.854 64.328 26.1859 64.9859C25.8532 65.3162 25.5418 65.6525 25.2583 65.9891C24.9694 66.3218 24.7114 66.656 24.493 66.9812C24.0583 67.634 23.8102 68.2322 23.7589 68.5919L23.5693 67.577C23.458 67.4618 23.4658 67.6745 23.665 67.9205C23.7661 68.0423 23.8927 68.1839 24.0406 68.3288C24.1897 68.4737 24.3667 68.6132 24.55 68.7602C24.9199 69.0548 25.3435 69.3434 25.7875 69.6305C26.0101 69.773 26.2369 69.9206 26.4688 70.0604L26.8162 70.2758C26.9266 70.3478 27.0583 70.4255 27.142 70.4879L27.4102 70.688C28.0942 71.1983 28.2352 72.1664 27.7249 72.8504C27.4279 73.2488 26.9671 73.463 26.5057 73.4717L25.9846 73.4783L25.4914 73.4633C25.1653 73.4423 24.8374 73.4159 24.5101 73.3709C23.8546 73.2836 23.197 73.1396 22.5211 72.9275C21.8521 72.701 21.1531 72.422 20.4409 71.9474C20.0842 71.7068 19.7179 71.4179 19.3582 71.0426C18.9982 70.6697 18.6547 70.19 18.3877 69.5954C18.2722 69.338 18.2125 69.0698 18.2038 68.8043L18.1981 68.5805C18.1726 67.6664 18.3244 66.8141 18.5509 66.0545C18.7756 65.2898 19.0942 64.6211 19.429 63.9989C20.107 62.7614 20.9062 61.736 21.7453 60.803C22.5808 59.8673 23.4733 59.0399 24.391 58.2656C24.8539 57.8825 25.3186 57.5072 25.8025 57.1553C26.044 56.9786 26.2861 56.8019 26.536 56.6318L26.9164 56.3777L27.337 56.1071C28.7665 55.1873 30.6709 55.6004 31.5907 57.0299C32.4817 58.4147 32.1217 60.2453 30.7987 61.1945L30.6724 61.2848Z" fill="#24774A"/>
<path d="M38.0429 67.2556L37.4528 66.4096L34.0997 65.8108L30.5732 62.8594L28.2143 65.4706C28.2143 65.4706 26.4098 68.7706 26.5841 68.9005C26.7584 69.0304 31.0421 71.35 31.0421 71.35L33.9551 70.9864L38.0429 67.2556Z" fill="#E0E0E0"/>
<path d="M29.3984 62.5781L24.2891 68.7551L29.4704 71.9699L33.7421 72.7238L38.8019 67.0472L33.9536 66.1157L29.3984 62.5781Z" fill="#263238"/>
<path opacity="0.4" d="M33.9536 66.1151L29.4701 71.9702L24.2891 68.756L29.3981 62.5781L33.9536 66.1151Z" fill="white"/>
<path opacity="0.2" d="M33.9539 66.1172L29.4707 71.9714L33.7424 72.7253L38.8022 67.0487L33.9539 66.1172Z" fill="white"/>
<path d="M26.5618 70.9223L26.3008 72.6809C26.6992 74.5061 28.957 73.5881 28.957 73.5881L30.2212 73.5851C30.6496 73.5842 31.0201 73.2245 31.0963 72.7358L31.288 71.5076C31.3756 70.9478 31.0492 70.4228 30.5647 70.3436L29.476 70.166C29.1592 70.1144 28.8346 70.1417 28.531 70.2461L26.5618 70.9223Z" fill="#EBB376"/>
</svg>
