<svg width="450" height="450" viewBox="0 0 450 450" fill="none" xmlns="http://www.w3.org/2000/svg">
<g clip-path="url(#clip0_893_37210)">
<path d="M236.479 215.862C236.479 215.862 246.078 217.378 256.182 228.493C266.287 239.608 281.949 304.783 281.949 304.783C281.949 304.783 296.095 273.459 303.674 269.923C311.253 266.386 325.399 267.902 331.968 278.006C338.536 288.111 326.41 311.351 318.326 321.961C310.243 332.572 289.023 350.76 276.898 348.739C264.772 346.719 244.563 338.635 244.563 338.635L236.479 215.862Z" fill="#24774A"/>
<path d="M153.487 362.429C153.487 362.429 146.992 376.01 146.992 390.182C146.992 404.354 149.965 450.001 149.965 450.001H253.891C253.891 450.001 256.233 378.372 249.148 364.79C223.165 369.514 153.487 362.429 153.487 362.429Z" fill="#211E20"/>
<path opacity="0.25" d="M252.604 381.034C232.489 385.948 193.582 391.384 148.699 376.597C150.616 368.425 153.487 362.431 153.487 362.431C153.487 362.431 223.165 369.514 249.148 364.789C250.723 367.813 251.83 373.699 252.604 381.034Z" fill="#4A2D3E"/>
<path d="M191.58 209.145C191.58 209.145 163.698 210.366 159.104 219.813C154.509 229.261 145.057 344.957 147.354 350.862C149.652 356.767 153.672 357.948 153.672 357.948C153.672 357.948 150.8 366.805 154.247 369.167C157.693 371.529 231.786 382.748 252.464 370.938C254.187 367.986 251.315 357.948 251.315 357.948C251.315 357.948 252.464 361.491 256.485 353.224C260.505 344.957 257.818 247.076 246.181 221.862C242.611 214.131 217.427 207.965 191.58 209.145Z" fill="#24774A"/>
<path opacity="0.25" d="M164.297 287.431C168.286 306.269 204.134 323.721 204.134 323.721C204.134 323.721 162.599 312.396 159.049 311.884L164.297 287.431Z" fill="#96BCAA"/>
<path d="M189.822 212.362C195.957 221.052 217.209 224.449 220.433 221.763C222.001 220.458 222.231 215.217 222.067 210.174C221.88 204.856 221.233 199.746 221.233 199.746C221.233 199.746 206.902 196.161 197.682 190.569C195.895 189.494 192.426 186.19 191.165 184.973C189.822 194.64 186.6 207.797 189.822 212.362Z" fill="#FCA695"/>
<path opacity="0.46" d="M194.381 189.802C194.381 189.802 196.266 198.135 204.051 204.571C209.095 208.748 217.077 209.889 222.066 210.173C221.879 204.855 221.232 199.746 221.232 199.746C221.232 199.746 206.902 196.16 197.681 190.569L194.381 189.802Z" fill="#FCA695"/>
<path d="M244.035 152.155C245.808 160.12 246.01 191.724 237.618 199.204C225.266 210.213 195.264 201.357 187.137 181.214C180.244 164.127 180.988 135.003 199.887 129.554C222.863 122.927 240.379 135.736 244.035 152.155Z" fill="#FCA695"/>
<path d="M193.85 173.696C193.85 173.696 201.905 160.807 198.683 142.011C207.008 147.113 242.182 146.844 247.284 145.771C252.386 144.697 248.358 133.687 227.951 125.095C207.545 116.503 189.554 124.021 189.286 132.076C186.6 124.021 184.184 123.752 182.573 126.974C180.962 130.196 188.211 133.418 188.211 133.418C188.211 133.418 180.424 138.788 179.619 151.945C178.813 165.103 187.137 185.51 193.85 173.696Z" fill="#5A2402"/>
<path d="M226.072 161.948C226.072 161.948 230.503 175.239 228.892 178.261C227.281 181.281 222.246 180.275 220.836 178.462" stroke="#DB7665" stroke-miterlimit="10" stroke-linecap="round"/>
<path d="M240.369 151.073C237.415 147.649 231.911 147.448 228.891 148.858C225.869 150.267 227.883 155.302 230.3 154.698C232.716 154.094 236.945 153.49 239.16 154.296C241.376 155.101 241.397 152.265 240.369 151.073Z" fill="#5A2402"/>
<path d="M203.457 151.879C206.411 148.455 211.916 148.253 214.936 149.664C217.956 151.074 215.943 156.108 213.527 155.504C211.11 154.9 206.881 154.295 204.666 155.101C202.45 155.907 202.43 153.07 203.457 151.879Z" fill="#5A2402"/>
<path d="M230.703 163.359C230.703 165.138 231.785 166.581 233.12 166.581C234.454 166.581 235.536 165.138 235.536 163.359C235.536 161.579 234.454 160.137 233.12 160.137C231.785 160.137 230.703 161.579 230.703 163.359Z" fill="#5A2402"/>
<path d="M209.154 164.163C209.154 165.943 210.236 167.385 211.571 167.385C212.905 167.385 213.987 165.943 213.987 164.163C213.987 162.384 212.905 160.941 211.571 160.941C210.237 160.941 209.154 162.383 209.154 164.163Z" fill="#5A2402"/>
<path d="M225.669 185.309C225.669 185.309 220.232 185.309 217.413 183.9C214.593 182.491 213.385 182.691 212.982 184.302C212.58 185.913 215.197 189.337 219.024 190.142C222.85 190.948 225.669 189.538 227.079 187.524C228.488 185.51 227.079 185.51 225.669 185.309Z" fill="white"/>
<path d="M191.837 167.789C191.837 167.789 188.413 161.345 183.177 163.56C178.596 165.498 179.351 170.206 180.761 173.831C182.17 177.456 186.399 181.08 189.421 180.88C192.442 180.679 195.462 176.851 191.837 167.789Z" fill="#FCA695"/>
<path d="M190.023 176.65C191.97 174.837 190.438 168.448 187.003 166.58C183.915 164.902 182.572 169.199 182.572 169.199" stroke="#DB7665" stroke-miterlimit="10" stroke-linecap="round"/>
<path opacity="0.46" d="M190.83 175.24C190.83 175.24 185.795 177.455 184.586 170.407C183.781 166.581 187.003 166.581 187.003 166.581C187.003 166.581 191.031 169.601 190.83 175.24Z" fill="#FCA695"/>
<path d="M189.823 169.735C189.823 169.735 186.333 169.333 185.93 172.555" stroke="#DB7665" stroke-miterlimit="10" stroke-linecap="round"/>
<path d="M221.507 204.172C221.507 204.172 200.026 204.172 190.896 187.793" stroke="#DB7665" stroke-miterlimit="10" stroke-linecap="round"/>
<path d="M180.65 215.988C180.65 215.988 183.408 201.011 188.262 200.077C191.557 199.444 195.847 203.494 206.449 204.973C218.134 206.603 221.31 204.125 224.093 206.98C226.365 209.311 225.408 226.704 225.408 226.704C225.408 226.704 193.641 231.341 180.65 215.988Z" fill="#24774A"/>
<path d="M182.344 213.885C182.344 213.885 199.956 229.628 225.925 220.753" stroke="#064F2C" stroke-miterlimit="10" stroke-linecap="round"/>
<path d="M154.074 357.54C154.074 357.54 206.014 368.059 243.489 358.855" stroke="#4264A0" stroke-miterlimit="10" stroke-linecap="round"/>
<path d="M166.844 214.161C152.143 219.807 138.529 236.285 133.912 254.098C129.294 271.911 119.553 329.715 123.511 342.25C127.469 354.785 186.187 373.917 202.021 368.64C217.855 363.362 219.834 353.466 219.174 338.952C218.514 324.437 187.507 316.52 158.478 312.562C170.353 277.596 166.844 214.161 166.844 214.161Z" fill="#24774A"/>
<path d="M158.312 362.53C175.466 368.221 194.104 371.684 202.02 369.045C217.854 363.768 219.833 353.871 219.173 339.357C218.514 324.843 187.506 316.925 158.477 312.967C170.353 278 167.661 219 167.661 219" stroke="#064F2C" stroke-miterlimit="10" stroke-linecap="round"/>
<path d="M159.05 311.883C151.599 316.285 147.936 324.426 147.936 324.426" stroke="#064F2C" stroke-miterlimit="10" stroke-linecap="round"/>
<path d="M258.291 337.904H333.881C338.024 337.904 342.362 334.545 343.569 330.403L355.848 288.28C357.056 284.137 354.676 280.778 350.534 280.778H274.944C270.801 280.778 266.463 284.137 265.256 288.28L252.976 330.403C251.769 334.545 254.148 337.904 258.291 337.904Z" fill="#C9C9C9"/>
<path d="M260.726 337.904H336.316C340.459 337.904 344.797 334.545 346.004 330.403L358.283 288.28C359.491 284.137 357.112 280.778 352.969 280.778H277.38C273.237 280.778 268.899 284.137 267.692 288.28L255.412 330.403C254.204 334.545 256.582 337.904 260.726 337.904Z" fill="#E6E6E6"/>
<path d="M229.618 337.904H338.169C340.209 337.904 341.861 339.558 341.861 341.596C341.861 343.636 340.208 345.288 338.169 345.288H229.618C227.579 345.288 225.926 343.635 225.926 341.596C225.926 339.558 227.579 337.904 229.618 337.904Z" fill="#C9C9C9"/>
<path d="M250.463 337.904H338.169C340.209 337.904 341.861 339.558 341.861 341.596C341.861 343.636 340.208 345.288 338.169 345.288H250.463C248.424 345.288 246.771 343.635 246.771 341.596C246.771 339.558 248.425 337.904 250.463 337.904Z" fill="#E6E6E6"/>
<path d="M336.314 337.904H260.725" stroke="#4E6989" stroke-miterlimit="10"/>
<path d="M219.151 337.534C219.151 337.534 213.237 339.395 213.2 346.715C213.163 354.034 215.044 354.763 215.044 354.763C215.044 354.763 236.632 357.406 243.065 356.446C249.499 355.486 273.673 350.934 274.527 346.519C275.381 342.104 255.364 346.54 240.816 343.604C233.93 340.722 236.953 337.686 239.641 334.952C242.329 332.218 244.822 326.928 242.335 325.533C239.849 324.139 236.842 326.857 235.109 329.638C233.377 332.419 219.151 337.534 219.151 337.534Z" fill="#FCA695"/>
<path d="M243.047 223.846C243.047 223.846 256.182 272.853 256.688 311.756" stroke="#064F2C" stroke-miterlimit="10" stroke-linecap="round"/>
<path d="M310.55 271.631C310.55 271.631 314.933 281.274 328.959 279.082C334.218 274.699 342.108 263.742 344.737 258.482C347.367 253.223 354.818 233.937 353.503 229.993C352.189 226.048 344.299 221.227 339.478 222.103C334.657 222.98 325.014 238.759 323.261 241.389C321.508 244.018 321.069 239.635 320.193 235.252C319.316 230.869 317.125 225.61 313.618 226.925C310.112 228.24 309.673 228.678 311.865 234.814C314.056 240.95 310.988 248.84 311.427 253.661C311.865 258.482 313.18 261.112 313.18 264.618C313.18 268.125 310.55 271.631 310.55 271.631Z" fill="#FCA695"/>
<path d="M321.645 241.567C324.089 247.124 323.087 253.388 323.087 253.388" stroke="#DB7665" stroke-miterlimit="10" stroke-linecap="round"/>
<path d="M342.272 222.536L329.207 245.123" stroke="#DB7665" stroke-miterlimit="10" stroke-linecap="round"/>
<path d="M346.478 223.644L334.963 248.445" stroke="#DB7665" stroke-miterlimit="10" stroke-linecap="round"/>
<path d="M349.799 226.078L340.277 251.102" stroke="#DB7665" stroke-miterlimit="10" stroke-linecap="round"/>
<path d="M180.459 411.815L209.222 421.734L236.993 409.831" stroke="#464947" stroke-miterlimit="10" stroke-linecap="round"/>
<path d="M209.223 421.733V449.801" stroke="#464947" stroke-miterlimit="10" stroke-linecap="round"/>
<path d="M373.767 40.626C371.332 40.626 368.979 40.9716 366.747 41.6025C363.776 33.273 355.821 27.3105 346.471 27.3105C334.583 27.3105 324.945 36.9477 324.945 48.8368C324.945 48.9979 324.954 49.1572 324.957 49.3183C323.868 49.1482 322.753 49.059 321.616 49.059C309.728 49.059 300.09 58.6963 300.09 70.5853C300.09 82.4734 309.727 92.1115 321.616 92.1115C333.505 92.1115 360.879 92.1115 373.767 92.1115C387.984 92.1115 399.509 80.5861 399.509 66.3687C399.509 52.1514 387.984 40.626 373.767 40.626Z" fill="#DCDDDE"/>
<path d="M369.005 40.626C366.57 40.626 364.218 40.9716 361.986 41.6025C359.014 33.273 351.059 27.3105 341.71 27.3105C329.821 27.3105 320.183 36.9477 320.183 48.8368C320.183 48.9979 320.192 49.1572 320.195 49.3183C319.106 49.1482 317.991 49.059 316.854 49.059C304.965 49.059 295.328 58.6963 295.328 70.5853C295.328 82.4734 304.965 92.1115 316.854 92.1115C328.742 92.1115 356.117 92.1115 369.005 92.1115C383.222 92.1115 394.747 80.5861 394.747 66.3687C394.747 52.1514 383.222 40.626 369.005 40.626Z" fill="white"/>
<path d="M373.767 40.626C371.332 40.626 368.979 40.9716 366.747 41.6025C363.776 33.273 355.821 27.3105 346.471 27.3105C334.583 27.3105 324.945 36.9477 324.945 48.8368C324.945 48.9979 324.954 49.1572 324.957 49.3183C323.868 49.1482 322.753 49.059 321.616 49.059C309.728 49.059 300.09 58.6963 300.09 70.5853C300.09 82.4734 309.727 92.1115 321.616 92.1115C333.505 92.1115 360.879 92.1115 373.767 92.1115C387.984 92.1115 399.509 80.5861 399.509 66.3687C399.509 52.1514 387.984 40.626 373.767 40.626Z" fill="#ACCCB9"/>
<path d="M369.005 40.626C366.57 40.626 364.218 40.9716 361.986 41.6025C359.014 33.273 351.059 27.3105 341.71 27.3105C329.821 27.3105 320.183 36.9477 320.183 48.8368C320.183 48.9979 320.192 49.1572 320.195 49.3183C319.106 49.1482 317.991 49.059 316.854 49.059C304.965 49.059 295.328 58.6963 295.328 70.5853C295.328 82.4734 304.965 92.1115 316.854 92.1115C328.742 92.1115 356.117 92.1115 369.005 92.1115C383.222 92.1115 394.747 80.5861 394.747 66.3687C394.747 52.1514 383.222 40.626 369.005 40.626Z" fill="#24774A"/>
<path d="M326.438 158.798C324.004 158.798 321.651 159.143 319.419 159.774C316.448 151.445 308.493 145.482 299.143 145.482C287.254 145.482 277.617 155.12 277.617 167.009C277.617 167.17 277.626 167.329 277.629 167.49C276.54 167.321 275.425 167.231 274.288 167.231C262.4 167.231 252.762 176.868 252.762 188.757C252.762 200.645 262.399 210.283 274.288 210.283C286.176 210.283 313.55 210.283 326.438 210.283C340.656 210.283 352.181 198.758 352.181 184.541C352.18 170.323 340.655 158.798 326.438 158.798Z" fill="#ACCCB9"/>
<path d="M321.677 158.798C319.242 158.798 316.89 159.143 314.658 159.774C311.686 151.445 303.732 145.482 294.382 145.482C282.493 145.482 272.855 155.12 272.855 167.009C272.855 167.17 272.864 167.329 272.867 167.49C271.778 167.321 270.663 167.231 269.526 167.231C257.637 167.231 248 176.868 248 188.757C248 200.645 257.637 210.283 269.526 210.283C281.414 210.283 308.789 210.283 321.677 210.283C335.894 210.283 347.419 198.758 347.419 184.541C347.419 170.323 335.894 158.798 321.677 158.798Z" fill="#24774A"/>
<path d="M190.98 32.5098C188.546 32.5098 186.193 32.8554 183.961 33.4863C180.99 25.1568 173.034 19.1943 163.685 19.1943C151.796 19.1943 142.159 28.8315 142.159 40.7205C142.159 40.8816 142.168 41.0409 142.172 41.202C141.083 41.0319 139.968 40.9428 138.831 40.9428C126.943 40.9428 117.305 50.58 117.305 62.469C117.305 74.358 126.942 83.9953 138.831 83.9953C150.72 83.9953 178.093 83.9953 190.981 83.9953C205.199 83.9953 216.724 72.4698 216.724 58.2525C216.723 44.0352 205.198 32.5098 190.98 32.5098Z" fill="#ACCCB9"/>
<path d="M186.219 32.5098C183.784 32.5098 181.432 32.8554 179.2 33.4863C176.228 25.1568 168.273 19.1943 158.924 19.1943C147.035 19.1943 137.397 28.8315 137.397 40.7205C137.397 40.8816 137.406 41.0409 137.41 41.202C136.321 41.0319 135.206 40.9428 134.069 40.9428C122.18 40.9428 112.543 50.58 112.543 62.469C112.543 74.358 122.18 83.9953 134.069 83.9953C145.957 83.9953 173.332 83.9953 186.22 83.9953C200.437 83.9953 211.962 72.4698 211.962 58.2525C211.961 44.0352 200.436 32.5098 186.219 32.5098Z" fill="#24774A"/>
<path d="M341.861 341.596L348.854 342.093C351.561 342.285 353.658 344.536 353.658 347.249V407.824C353.658 412.219 357.22 415.781 361.615 415.781C366.047 415.781 369.625 412.159 369.571 407.727L366.986 195.101C366.935 190.961 363.566 187.632 359.426 187.632H353.658" stroke="#24774A" stroke-miterlimit="10"/>
<path d="M352.434 190.915H349.768V184.351H352.434C354.247 184.351 355.717 185.82 355.717 187.633C355.717 189.446 354.247 190.915 352.434 190.915Z" fill="#24774A"/>
<path d="M349.767 185.349H348.295V189.917H349.767V185.349Z" fill="#24774A"/>
<path d="M349.539 185.772H348.523V186.002H349.539V185.772Z" fill="#24774A"/>
<path d="M349.539 186.354H348.523V186.584H349.539V186.354Z" fill="#24774A"/>
<path d="M349.539 186.937H348.523V187.167H349.539V186.937Z" fill="#24774A"/>
<path d="M349.539 187.519H348.523V187.749H349.539V187.519Z" fill="#24774A"/>
<path d="M349.539 188.1H348.523V188.33H349.539V188.1Z" fill="#24774A"/>
<path d="M349.539 188.682H348.523V188.912H349.539V188.682Z" fill="#24774A"/>
<path d="M349.539 189.265H348.523V189.495H349.539V189.265Z" fill="#24774A"/>
<path d="M298.031 141.343V144.01H291.467V141.343C291.467 139.53 292.936 138.061 294.749 138.061C296.562 138.061 298.031 139.53 298.031 141.343Z" fill="#24774A"/>
<path d="M292.465 144.01V145.482H297.033V144.01H292.465Z" fill="#24774A"/>
<path d="M292.887 144.239V145.254H293.117V144.239H292.887Z" fill="#24774A"/>
<path d="M293.469 144.238V145.254H293.699V144.238H293.469Z" fill="#24774A"/>
<path d="M294.051 144.239V145.254H294.281V144.239H294.051Z" fill="#24774A"/>
<path d="M294.633 144.239V145.254H294.863V144.239H294.633Z" fill="#24774A"/>
<path d="M295.215 144.239V145.254H295.445V144.239H295.215Z" fill="#24774A"/>
<path d="M295.797 144.239V145.254H296.027V144.239H295.797Z" fill="#24774A"/>
<path d="M296.379 144.239V145.254H296.609V144.239H296.379Z" fill="#24774A"/>
<path d="M343.561 96.5427V93.876H336.996V96.5427C336.996 98.3553 338.466 99.825 340.278 99.825C342.091 99.825 343.561 98.3553 343.561 96.5427Z" fill="#24774A"/>
<path d="M342.562 93.8757V92.4033H337.994V93.8757H342.562Z" fill="#24774A"/>
<path d="M338.646 93.6478V92.6326H338.416V93.6478H338.646Z" fill="#24774A"/>
<path d="M339.229 93.647V92.6318H338.998V93.647H339.229Z" fill="#24774A"/>
<path d="M339.811 93.6472V92.632H339.58V93.6472H339.811Z" fill="#24774A"/>
<path d="M340.393 93.647V92.6318H340.162V93.647H340.393Z" fill="#24774A"/>
<path d="M340.975 93.647V92.6318H340.744V93.647H340.975Z" fill="#24774A"/>
<path d="M341.557 93.648V92.6328H341.326V93.648H341.557Z" fill="#24774A"/>
<path d="M342.139 93.648V92.6328H341.908V93.648H342.139Z" fill="#24774A"/>
<path d="M218.227 61.9455H215.561V55.3809H218.227C220.04 55.3809 221.51 56.8506 221.51 58.6632C221.51 60.4767 220.04 61.9455 218.227 61.9455Z" fill="#24774A"/>
<path d="M215.56 56.379H214.088V60.9474H215.56V56.379Z" fill="#24774A"/>
<path d="M215.332 56.8019H214.316V57.0323H215.332V56.8019Z" fill="#24774A"/>
<path d="M215.332 57.384H214.316V57.6144H215.332V57.384Z" fill="#24774A"/>
<path d="M215.332 57.967H214.316V58.1974H215.332V57.967Z" fill="#24774A"/>
<path d="M215.332 58.5488H214.316V58.7792H215.332V58.5488Z" fill="#24774A"/>
<path d="M215.332 59.1312H214.316V59.3616H215.332V59.1312Z" fill="#24774A"/>
<path d="M215.332 59.7121H214.316V59.9425H215.332V59.7121Z" fill="#24774A"/>
<path d="M215.332 60.2951H214.316V60.5255H215.332V60.2951Z" fill="#24774A"/>
<path d="M220.301 58.6641H243.183C245.892 58.6641 248.089 60.8601 248.089 63.57V103.192C248.089 105.901 250.285 108.098 252.995 108.098H289.843C292.552 108.098 294.749 110.294 294.749 113.004V138.731" stroke="#24774A" stroke-miterlimit="10"/>
<path d="M340.278 98.6963V121.284H294.635" stroke="#24774A" stroke-miterlimit="10"/>
<path d="M126.313 185.559H59.7837C55.8561 185.559 52.6719 182.375 52.6719 178.448V141.824C52.6719 137.896 55.8561 134.712 59.7837 134.712H126.313C130.241 134.712 133.425 137.896 133.425 141.824V178.448C133.425 182.375 130.241 185.559 126.313 185.559Z" fill="#24774A"/>
<path d="M73.314 153.69H76.8573V169H73.314V153.69ZM66.3587 169H62.8154V153.69H66.3587V169ZM73.5765 162.723H66.0962V159.726H73.5765V162.723ZM87.9162 169.263C86.7059 169.263 85.5832 169.066 84.5479 168.672C83.5272 168.278 82.6377 167.724 81.8795 167.01C81.1358 166.295 80.5526 165.457 80.1297 164.494C79.7214 163.532 79.5173 162.482 79.5173 161.345C79.5173 160.208 79.7214 159.158 80.1297 158.195C80.5526 157.233 81.1431 156.395 81.9014 155.68C82.6596 154.966 83.5491 154.411 84.5698 154.018C85.5904 153.624 86.6986 153.427 87.8943 153.427C89.1046 153.427 90.2128 153.624 91.2189 154.018C92.2396 154.411 93.1217 154.966 93.8654 155.68C94.6236 156.395 95.2142 157.233 95.637 158.195C96.0599 159.143 96.2713 160.193 96.2713 161.345C96.2713 162.482 96.0599 163.539 95.637 164.516C95.2142 165.479 94.6236 166.317 93.8654 167.032C93.1217 167.732 92.2396 168.278 91.2189 168.672C90.2128 169.066 89.1119 169.263 87.9162 169.263ZM87.8943 166.244C88.5796 166.244 89.2066 166.128 89.7753 165.894C90.3586 165.661 90.8689 165.326 91.3064 164.888C91.7438 164.451 92.0792 163.933 92.3125 163.335C92.5604 162.737 92.6843 162.074 92.6843 161.345C92.6843 160.616 92.5604 159.952 92.3125 159.355C92.0792 158.757 91.7438 158.239 91.3064 157.802C90.8835 157.364 90.3804 157.029 89.7972 156.795C89.2139 156.562 88.5796 156.446 87.8943 156.446C87.209 156.446 86.5747 156.562 85.9914 156.795C85.4228 157.029 84.9197 157.364 84.4823 157.802C84.0448 158.239 83.7022 158.757 83.4543 159.355C83.221 159.952 83.1043 160.616 83.1043 161.345C83.1043 162.059 83.221 162.723 83.4543 163.335C83.7022 163.933 84.0375 164.451 84.4604 164.888C84.8978 165.326 85.4082 165.661 85.9914 165.894C86.5747 166.128 87.209 166.244 87.8943 166.244ZM103.965 169.263C102.74 169.263 101.566 169.102 100.443 168.781C99.3207 168.446 98.4166 168.016 97.7313 167.491L98.9343 164.823C99.5904 165.289 100.363 165.676 101.253 165.982C102.157 166.273 103.068 166.419 103.987 166.419C104.687 166.419 105.248 166.354 105.671 166.222C106.108 166.077 106.429 165.88 106.633 165.632C106.837 165.384 106.939 165.1 106.939 164.779C106.939 164.371 106.779 164.05 106.458 163.816C106.137 163.569 105.715 163.372 105.19 163.226C104.665 163.065 104.081 162.92 103.44 162.788C102.813 162.643 102.179 162.468 101.537 162.264C100.91 162.059 100.334 161.797 99.8091 161.476C99.2842 161.155 98.8541 160.732 98.5187 160.208C98.1979 159.683 98.0375 159.012 98.0375 158.195C98.0375 157.32 98.2708 156.526 98.7374 155.811C99.2186 155.082 99.9331 154.506 100.881 154.083C101.843 153.646 103.046 153.427 104.49 153.427C105.452 153.427 106.4 153.544 107.333 153.777C108.266 153.996 109.09 154.331 109.805 154.783L108.711 157.474C107.997 157.065 107.282 156.766 106.568 156.577C105.853 156.373 105.153 156.271 104.468 156.271C103.783 156.271 103.221 156.351 102.784 156.511C102.346 156.672 102.033 156.883 101.843 157.145C101.654 157.393 101.559 157.685 101.559 158.02C101.559 158.414 101.719 158.735 102.04 158.983C102.361 159.216 102.784 159.406 103.309 159.551C103.834 159.697 104.41 159.843 105.037 159.989C105.678 160.135 106.312 160.302 106.939 160.492C107.581 160.681 108.164 160.937 108.689 161.257C109.214 161.578 109.637 162.001 109.958 162.526C110.293 163.051 110.461 163.714 110.461 164.516C110.461 165.377 110.22 166.164 109.739 166.879C109.258 167.593 108.536 168.169 107.574 168.606C106.626 169.044 105.423 169.263 103.965 169.263ZM115.84 169V156.577H110.941V153.69H124.282V156.577H119.383V169H115.84Z" fill="white"/>
<path d="M164.093 83.9941V108.343C164.093 113.17 160.179 117.084 155.351 117.084H101.791C96.9629 117.084 93.0488 120.999 93.0488 125.826V134.712" stroke="#24774A" stroke-miterlimit="10"/>
<path d="M160.811 85.8171V83.1513H167.375V85.818C167.375 87.6306 165.905 89.1003 164.093 89.1003C162.279 89.0994 160.811 87.6306 160.811 85.8171Z" fill="#24774A"/>
<path d="M166.377 83.1511V81.6787H161.809V83.1511H166.377Z" fill="#24774A"/>
<path d="M165.953 82.9215V81.9062H165.723V82.9215H165.953Z" fill="#24774A"/>
<path d="M165.371 82.9215V81.9062H165.141V82.9215H165.371Z" fill="#24774A"/>
<path d="M164.789 82.9214V81.9062H164.559V82.9214H164.789Z" fill="#24774A"/>
<path d="M164.207 82.9224V81.9072H163.977V82.9224H164.207Z" fill="#24774A"/>
<path d="M163.625 82.9224V81.9072H163.395V82.9224H163.625Z" fill="#24774A"/>
<path d="M163.043 82.9214V81.9062H162.813V82.9214H163.043Z" fill="#24774A"/>
<path d="M162.461 82.9215V81.9062H162.231V82.9215H162.461Z" fill="#24774A"/>
<path d="M96.3302 131.054V133.72H89.7656V131.054C89.7656 129.241 91.2353 127.771 93.0479 127.771C94.8605 127.771 96.3302 129.241 96.3302 131.054Z" fill="#24774A"/>
<path d="M90.7637 133.72V135.192H95.3321V133.72H90.7637Z" fill="#24774A"/>
<path d="M91.1855 133.949V134.964H91.4159V133.949H91.1855Z" fill="#24774A"/>
<path d="M91.7676 133.949V134.964H91.998V133.949H91.7676Z" fill="#24774A"/>
<path d="M92.3496 133.949V134.964H92.58V133.949H92.3496Z" fill="#24774A"/>
<path d="M92.9316 133.949V134.964H93.162V133.949H92.9316Z" fill="#24774A"/>
<path d="M93.5137 133.949V134.964H93.7441V133.949H93.5137Z" fill="#24774A"/>
<path d="M94.0957 133.949V134.964H94.3261V133.949H94.0957Z" fill="#24774A"/>
<path d="M94.6777 133.949V134.964H94.9081V133.949H94.6777Z" fill="#24774A"/>
<path d="M261.901 111.412C267.005 106.308 267.005 98.0332 261.901 92.9292C256.797 87.8252 248.521 87.8252 243.417 92.9292C238.313 98.0332 238.313 106.308 243.417 111.412C248.521 116.517 256.797 116.517 261.901 111.412Z" fill="#76A87E"/>
<path d="M246.494 101.676L250.826 105.643C251.66 106.408 252.972 106.277 253.64 105.364L259.025 97.9971" stroke="white" stroke-width="2" stroke-miterlimit="10"/>
<path d="M106.795 271.14H45.1892C44.4395 271.14 43.832 270.533 43.832 269.783V257.995C43.832 257.245 44.4395 256.638 45.1892 256.638H106.795C107.545 256.638 108.152 257.245 108.152 257.995V269.783C108.152 270.533 107.545 271.14 106.795 271.14Z" fill="#24774A"/>
<path d="M102.462 271.141H49.5254V275.128H102.462V271.141Z" fill="#96BCAA"/>
<path d="M102.462 289.629H49.5254V293.615H102.462V289.629Z" fill="#96BCAA"/>
<path d="M102.528 266.151H81.604C81.0865 266.151 80.668 265.732 80.668 265.215V262.749C80.668 262.232 81.0874 261.813 81.604 261.813H102.528C103.046 261.813 103.464 262.232 103.464 262.749V265.215C103.464 265.732 103.045 266.151 102.528 266.151Z" fill="white"/>
<path d="M52.7949 263.981C52.7949 265.179 51.8238 266.151 50.625 266.151C49.4262 266.151 48.4551 265.18 48.4551 263.981C48.4551 262.784 49.4262 261.812 50.625 261.812C51.8229 261.812 52.7949 262.784 52.7949 263.981Z" fill="white"/>
<path d="M60.6464 263.981C60.6464 265.179 59.6753 266.151 58.4765 266.151C57.2777 266.151 56.3066 265.18 56.3066 263.981C56.3066 262.784 57.2777 261.812 58.4765 261.812C59.6753 261.812 60.6464 262.784 60.6464 263.981Z" fill="white"/>
<path d="M106.795 289.629H45.1892C44.4395 289.629 43.832 289.021 43.832 288.271V276.483C43.832 275.734 44.4395 275.126 45.1892 275.126H106.795C107.545 275.126 108.152 275.734 108.152 276.483V288.271C108.152 289.021 107.545 289.629 106.795 289.629Z" fill="#24774A"/>
<path d="M102.528 284.64H81.604C81.0865 284.64 80.668 284.22 80.668 283.704V281.237C80.668 280.719 81.0874 280.301 81.604 280.301H102.528C103.046 280.301 103.464 280.72 103.464 281.237V283.704C103.464 284.221 103.045 284.64 102.528 284.64Z" fill="white"/>
<path d="M52.7949 282.471C52.7949 283.669 51.8238 284.641 50.625 284.641C49.4262 284.641 48.4551 283.67 48.4551 282.471C48.4551 281.273 49.4262 280.301 50.625 280.301C51.8229 280.301 52.7949 281.272 52.7949 282.471Z" fill="white"/>
<path d="M60.6464 282.471C60.6464 283.669 59.6753 284.641 58.4765 284.641C57.2777 284.641 56.3066 283.67 56.3066 282.471C56.3066 281.273 57.2777 280.301 58.4765 280.301C59.6753 280.301 60.6464 281.272 60.6464 282.471Z" fill="white"/>
<path d="M106.795 308.118H45.1892C44.4395 308.118 43.832 307.51 43.832 306.761V294.972C43.832 294.223 44.4395 293.615 45.1892 293.615H106.795C107.545 293.615 108.152 294.223 108.152 294.972V306.761C108.152 307.51 107.545 308.118 106.795 308.118Z" fill="#24774A"/>
<path d="M102.528 303.13H81.604C81.0865 303.13 80.668 302.71 80.668 302.194V299.727C80.668 299.209 81.0874 298.791 81.604 298.791H102.528C103.046 298.791 103.464 299.21 103.464 299.727V302.194C103.464 302.71 103.045 303.13 102.528 303.13Z" fill="white"/>
<path d="M52.7949 300.96C52.7949 302.158 51.8238 303.13 50.625 303.13C49.4262 303.13 48.4551 302.159 48.4551 300.96C48.4551 299.762 49.4262 298.79 50.625 298.79C51.8229 298.79 52.7949 299.762 52.7949 300.96Z" fill="white"/>
<path d="M58.4765 303.13C59.6749 303.13 60.6464 302.158 60.6464 300.96C60.6464 299.761 59.6749 298.79 58.4765 298.79C57.2781 298.79 56.3066 299.761 56.3066 300.96C56.3066 302.158 57.2781 303.13 58.4765 303.13Z" fill="white"/>
<path d="M77.8537 252.499V255.166H71.2891V252.499C71.2891 250.686 72.7588 249.217 74.5714 249.217C76.384 249.217 77.8537 250.686 77.8537 252.499Z" fill="#24774A"/>
<path d="M72.2871 255.165V256.638H76.8555V255.165H72.2871Z" fill="#24774A"/>
<path d="M72.7109 255.394V256.409H72.9413V255.394H72.7109Z" fill="#24774A"/>
<path d="M73.293 255.394V256.409H73.5234V255.394H73.293Z" fill="#24774A"/>
<path d="M73.875 255.394V256.409H74.1054V255.394H73.875Z" fill="#24774A"/>
<path d="M74.457 255.394V256.409H74.6874V255.394H74.457Z" fill="#24774A"/>
<path d="M75.0391 255.394V256.409H75.2695V255.394H75.0391Z" fill="#24774A"/>
<path d="M75.6211 255.394V256.409H75.8515V255.394H75.6211Z" fill="#24774A"/>
<path d="M76.2031 255.394V256.409H76.4335V255.394H76.2031Z" fill="#24774A"/>
<path d="M74.5703 250.212V224.787C74.5703 223.613 75.5225 222.66 76.6979 222.66H94.2038C95.3783 222.66 96.3314 221.707 96.3314 220.532V190.005" stroke="#A8C5E2" stroke-miterlimit="10"/>
<path d="M93.0488 189.699V187.032H99.6134V189.699C99.6134 191.512 98.1437 192.981 96.3311 192.981C94.5185 192.981 93.0488 191.512 93.0488 189.699Z" fill="#24774A"/>
<path d="M98.6152 187.032V185.56H94.0468V187.032H98.6152Z" fill="#24774A"/>
<path d="M98.1934 186.803V185.788H97.963V186.803H98.1934Z" fill="#24774A"/>
<path d="M97.6113 186.804V185.789H97.3809V186.804H97.6113Z" fill="#24774A"/>
<path d="M97.0293 186.804V185.789H96.7989V186.804H97.0293Z" fill="#24774A"/>
<path d="M96.4473 186.804V185.789H96.2169V186.804H96.4473Z" fill="#24774A"/>
<path d="M95.8652 186.803V185.788H95.6348V186.803H95.8652Z" fill="#24774A"/>
<path d="M95.2832 186.803V185.788H95.0528V186.803H95.2832Z" fill="#24774A"/>
<path d="M94.7012 186.803V185.788H94.4708V186.803H94.7012Z" fill="#24774A"/>
<path d="M375.286 121.401C366.083 121.401 358.615 128.854 358.615 138.056C358.615 147.258 366.083 154.727 375.286 154.727C384.488 154.727 391.941 147.258 391.941 138.056C391.941 128.854 384.488 121.401 375.286 121.401ZM375.286 147.4C370.115 147.4 365.927 143.228 365.927 138.057C365.927 132.901 370.114 128.714 375.286 128.714C380.442 128.714 384.629 132.902 384.629 138.057C384.629 143.228 380.442 147.4 375.286 147.4Z" fill="#24774A"/>
<path d="M379.8 138.056C379.8 140.556 377.776 142.573 375.283 142.573C372.783 142.573 370.758 140.556 370.758 138.056C370.758 135.563 372.782 133.539 375.283 133.539C377.775 133.539 379.8 135.564 379.8 138.056Z" fill="#24774A"/>
<path d="M381.159 110.134H369.402V125.25H381.159V110.134Z" fill="#24774A"/>
<path d="M359.686 114.16L351.373 122.473L362.062 133.161L370.375 124.848L359.686 114.16Z" fill="#24774A"/>
<path d="M347.354 132.183V143.94H362.47V132.183H347.354Z" fill="#24774A"/>
<path d="M351.376 153.656L359.689 161.969L370.378 151.28L362.065 142.967L351.376 153.656Z" fill="#24774A"/>
<path d="M369.402 165.988H381.158V150.872H369.402V165.988Z" fill="#24774A"/>
<path d="M390.874 161.964L399.188 153.65L388.499 142.962L380.186 151.275L390.874 161.964Z" fill="#24774A"/>
<path d="M403.207 143.939V132.182H388.091V143.939H403.207Z" fill="#24774A"/>
<path d="M399.18 122.467L390.867 114.154L380.178 124.843L388.492 133.156L399.18 122.467Z" fill="#24774A"/>
<path d="M403.982 199.504C403.982 200.68 404.935 201.628 406.11 201.628C407.283 201.628 408.234 200.679 408.234 199.504C408.234 198.331 407.282 197.38 406.11 197.38C404.935 197.38 403.982 198.332 403.982 199.504Z" stroke="#24774A" stroke-miterlimit="10"/>
<path d="M419.242 202.271V196.742H413.434C413.376 196.585 413.314 196.432 413.245 196.28L417.35 192.175L413.441 188.266L409.335 192.372C409.184 192.303 409.03 192.242 408.873 192.183V186.374H403.345V192.184C403.189 192.243 403.035 192.305 402.885 192.373L398.778 188.267L394.868 192.176L398.973 196.281C398.905 196.432 398.843 196.587 398.783 196.743H392.977V202.272H398.785C398.845 202.427 398.906 202.581 398.974 202.732L394.868 206.838L398.778 210.748L402.884 206.642C403.035 206.71 403.189 206.773 403.345 206.832V212.64H408.874V206.834C409.031 206.774 409.186 206.712 409.337 206.644L413.441 210.748L417.35 206.838L413.245 202.732C413.313 202.581 413.375 202.427 413.434 202.272H419.242V202.271ZM410.506 199.504C410.506 201.936 408.537 203.898 406.112 203.898C403.68 203.898 401.711 201.936 401.711 199.504C401.711 197.08 403.68 195.11 406.112 195.11C408.537 195.111 410.506 197.08 410.506 199.504Z" stroke="#24774A" stroke-miterlimit="10"/>
<path d="M93.5957 78.7305C93.5957 85.3185 90.875 91.2567 86.4866 95.4912C82.2872 99.5601 76.5623 102.068 70.2578 102.068C63.9416 102.068 58.2284 99.5601 54.0173 95.4912C49.6289 91.2567 46.9082 85.3068 46.9082 78.7305C46.9082 72.1542 49.6289 66.2043 54.0173 61.9698C58.2284 57.8892 63.9416 55.3818 70.2578 55.3818C76.5623 55.3818 82.2872 57.8892 86.4866 61.9698C90.8759 66.1926 93.5957 72.1416 93.5957 78.7305Z" stroke="#24774A" stroke-width="2" stroke-miterlimit="10"/>
<path d="M86.4879 61.9698C84.6663 63.732 82.5729 65.199 80.2545 66.2988C77.226 67.7415 73.8438 68.5461 70.26 68.5461C66.6762 68.5461 63.2931 67.7415 60.2529 66.2988C57.9462 65.199 55.8411 63.732 54.0195 61.9698C58.2306 57.8892 63.9438 55.3818 70.26 55.3818C76.5636 55.3818 82.2885 57.8892 86.4879 61.9698Z" stroke="#24774A" stroke-width="2" stroke-miterlimit="10"/>
<path d="M86.4869 95.4913C82.2875 99.5602 76.5626 102.068 70.2581 102.068C63.9419 102.068 58.2287 99.5602 54.0176 95.4913C55.8392 93.7174 57.9443 92.2504 60.251 91.1506C63.2912 89.7079 66.6734 88.9033 70.2581 88.9033C73.8419 88.9033 77.225 89.7079 80.2526 91.1506C82.5719 92.2504 84.6653 93.7165 86.4869 95.4913Z" stroke="#24774A" stroke-width="2" stroke-miterlimit="10"/>
<path d="M70.2578 102.071C76.7881 102.071 82.082 91.6202 82.082 78.7281C82.082 65.8359 76.7881 55.3848 70.2578 55.3848C63.7275 55.3848 58.4336 65.8359 58.4336 78.7281C58.4336 91.6202 63.7275 102.071 70.2578 102.071Z" stroke="#24774A" stroke-width="2" stroke-miterlimit="10"/>
<path d="M70.2578 55.3848V102.07" stroke="#24774A" stroke-width="2" stroke-miterlimit="10"/>
<path d="M46.9141 78.7275H93.6007" stroke="#24774A" stroke-width="2" stroke-miterlimit="10"/>
<path d="M83.3798 330.048H43.832V337.905H83.3798V330.048Z" fill="#24774A"/>
<path d="M104.737 343.776H43.832V351.633H104.737V343.776Z" fill="#24774A"/>
<path d="M65.0486 356.604H43.832V364.461H65.0486V356.604Z" fill="#24774A"/>
</g>
<defs>
<clipPath id="clip0_893_37210">
<rect width="450" height="450" fill="white"/>
</clipPath>
</defs>
</svg>
