<svg width="450" height="450" viewBox="0 0 450 450" fill="none" xmlns="http://www.w3.org/2000/svg">
<path d="M450 344.156H0V344.381H450V344.156Z" fill="#E0E0E0"/>
<path d="M401.03 349.946H371.553V350.171H401.03V349.946Z" fill="#E0E0E0"/>
<path d="M297.239 354.835H260.414V355.06H297.239V354.835Z" fill="#E0E0E0"/>
<path d="M311.297 354.835H302.762V355.06H311.297V354.835Z" fill="#E0E0E0"/>
<path d="M118.502 352.248H83.8516V352.473H118.502V352.248Z" fill="#E0E0E0"/>
<path d="M187.655 352.248H156.754V352.473H187.655V352.248Z" fill="#E0E0E0"/>
<path d="M362.833 349.946H331.406V350.171H362.833V349.946Z" fill="#E0E0E0"/>
<path d="M76.4991 352.248H46.4805V352.473H76.4991V352.248Z" fill="#E0E0E0"/>
<path d="M213.315 304.017H39.5259C36.6936 304.017 34.3887 301.712 34.3887 298.88V54.5912C34.3887 51.7589 36.6936 49.454 39.5259 49.454H213.315C216.146 49.454 218.451 51.7589 218.451 54.5912V298.88C218.451 301.712 216.146 304.017 213.315 304.017ZM39.5259 49.6799C36.8169 49.6799 34.6137 51.8831 34.6137 54.5921V298.881C34.6137 301.59 36.8169 303.793 39.5259 303.793H213.315C216.023 303.793 218.226 301.59 218.226 298.881V54.5912C218.226 51.8831 216.023 49.679 213.315 49.679L39.5259 49.6799Z" fill="#E0E0E0"/>
<path d="M407.981 304.017H234.193C231.362 304.017 229.057 301.712 229.057 298.88V54.5912C229.057 51.7589 231.362 49.454 234.193 49.454H407.981C410.814 49.454 413.118 51.7589 413.118 54.5912V298.88C413.119 301.712 410.814 304.017 407.981 304.017ZM234.193 49.6799C231.485 49.6799 229.282 51.8831 229.282 54.5921V298.881C229.282 301.59 231.485 303.793 234.193 303.793H407.981C410.69 303.793 412.893 301.59 412.893 298.881V54.5912C412.893 51.8831 410.69 49.679 407.981 49.679L234.193 49.6799Z" fill="#E0E0E0"/>
<path d="M137.149 128.963L155.318 111.045L151.524 103.677C151.524 103.676 151.525 103.675 151.525 103.675C151.863 102.94 152.175 102.202 152.467 101.451C152.467 101.45 152.467 101.45 152.468 101.449L160.392 99.0318L160.568 73.5149L152.674 70.9869C152.393 70.2327 152.096 69.4848 151.767 68.7459L155.661 61.4325L137.743 43.2641L130.377 47.0568C130.377 47.0568 130.376 47.0568 130.376 47.0559C129.642 46.7175 128.899 46.4097 128.148 46.1172L125.73 38.1899L100.213 38.0135L97.6853 45.9074C96.9284 46.1846 96.1859 46.4861 95.4479 46.8137C95.447 46.8137 95.4461 46.8146 95.4452 46.8146L88.1309 42.9203L69.9635 60.8402L73.7579 68.2095C73.4204 68.9421 73.109 69.6863 72.8174 70.4352L64.8893 72.8534L64.7129 98.3703L72.605 100.898C72.8867 101.653 73.1846 102.4 73.5122 103.139C73.5122 103.14 73.5131 103.14 73.5131 103.141L69.6197 110.453L87.5378 128.621L94.9034 124.828C95.6378 125.167 96.3803 125.475 97.1309 125.767C97.1318 125.767 97.1318 125.767 97.1327 125.767L99.551 133.694L125.068 133.872L127.596 125.977C128.347 125.696 129.095 125.395 129.832 125.069L137.149 128.963ZM125.977 99.461C118.504 106.831 106.481 106.748 99.1163 99.2801C91.7516 91.8119 91.8344 79.7898 99.308 72.4197C106.775 65.055 118.798 65.1377 126.164 72.6059C133.528 80.0723 133.445 92.0955 125.977 99.461Z" fill="#F0F0F0"/>
<path d="M68.1478 176.424L80.0782 164.657L77.587 159.819C77.587 159.818 77.5879 159.818 77.5879 159.817C77.8102 159.335 78.0145 158.85 78.2071 158.357V158.357L83.41 156.769L83.5261 140.013L78.343 138.353C78.1585 137.858 77.9632 137.367 77.7472 136.882L80.305 132.079L68.5375 120.148L63.7 122.638C63.2176 122.416 62.7289 122.214 62.2366 122.022L60.649 116.816L43.8928 116.7L42.2323 121.884C41.7346 122.066 41.2477 122.264 40.7635 122.479C40.7626 122.479 40.7626 122.48 40.7617 122.48L35.9584 119.922L24.028 131.689L26.5192 136.528C26.2969 137.009 26.0935 137.498 25.9018 137.99L20.6962 139.578L20.5801 156.334L25.7623 157.994C25.9477 158.489 26.143 158.979 26.3581 159.465L23.8012 164.268L35.5678 176.198L40.4044 173.708C40.8868 173.93 41.3746 174.133 41.8669 174.324L43.4554 179.53L60.2116 179.646L61.8721 174.461C62.3662 174.277 62.8567 174.08 63.3409 173.864L68.1478 176.424ZM60.811 157.05C55.9042 161.89 48.0085 161.835 43.1719 156.931C38.3353 152.027 38.3902 144.132 43.2979 139.292C48.202 134.455 56.0968 134.51 60.9334 139.414C65.77 144.318 65.7151 152.214 60.811 157.05Z" fill="#E0E0E0"/>
<path d="M414.639 325.536L423.302 316.993L421.493 313.479C421.493 313.479 421.493 313.478 421.494 313.478C421.655 313.128 421.804 312.776 421.943 312.418V312.417L425.722 311.264L425.806 299.097L422.042 297.892C421.908 297.532 421.766 297.176 421.609 296.824L423.466 293.336L414.922 284.673L411.41 286.481C411.41 286.481 411.41 286.481 411.409 286.481C411.059 286.32 410.704 286.173 410.347 286.033L409.194 282.253L397.027 282.169L395.822 285.933C395.461 286.065 395.107 286.208 394.755 286.365C394.755 286.365 394.754 286.365 394.754 286.366L391.267 284.509L382.603 293.053L384.412 296.566C384.251 296.915 384.103 297.271 383.964 297.627L380.184 298.78L380.1 310.947L383.863 312.152C383.997 312.512 384.139 312.868 384.295 313.221L382.439 316.708L390.982 325.372L394.494 323.563C394.844 323.725 395.199 323.871 395.556 324.011L396.71 327.791L408.877 327.875L410.083 324.111C410.441 323.977 410.798 323.833 411.15 323.678L414.639 325.536ZM409.312 311.468C405.749 314.983 400.016 314.943 396.504 311.382C392.992 307.822 393.032 302.089 396.595 298.574C400.155 295.062 405.888 295.102 409.4 298.663C412.913 302.224 412.873 307.957 409.312 311.468Z" fill="#F0F0F0"/>
<path d="M308.326 312.191H43.7783C40.6319 312.191 38.0723 309.632 38.0723 306.485V107.869C38.0723 104.723 40.6319 102.163 43.7783 102.163H308.326C311.472 102.163 314.032 104.723 314.032 107.869V306.485C314.032 309.632 311.472 312.191 308.326 312.191ZM43.7783 102.613C40.8803 102.613 38.5223 104.971 38.5223 107.869V306.485C38.5223 309.383 40.8803 311.741 43.7783 311.741H308.326C311.224 311.741 313.582 309.383 313.582 306.485V107.869C313.582 104.971 311.224 102.613 308.326 102.613H43.7783Z" fill="#E0E0E0"/>
<path d="M50.3187 112.654C48.5871 112.654 47.1777 111.246 47.1777 109.513C47.1777 107.781 48.5862 106.373 50.3187 106.373C52.0503 106.373 53.4588 107.781 53.4588 109.513C53.4597 111.246 52.0503 112.654 50.3187 112.654ZM50.3187 106.823C48.8355 106.823 47.6277 108.03 47.6277 109.513C47.6277 110.996 48.8346 112.204 50.3187 112.204C51.8019 112.204 53.0088 110.997 53.0088 109.513C53.0097 108.03 51.8028 106.823 50.3187 106.823Z" fill="#E0E0E0"/>
<path d="M60.6557 112.654C58.9241 112.654 57.5156 111.246 57.5156 109.513C57.5156 107.781 58.9241 106.373 60.6557 106.373C62.3873 106.373 63.7958 107.781 63.7958 109.513C63.7967 111.246 62.3873 112.654 60.6557 112.654ZM60.6557 106.823C59.1725 106.823 57.9656 108.03 57.9656 109.513C57.9656 110.996 59.1725 112.204 60.6557 112.204C62.1389 112.204 63.3458 110.997 63.3458 109.513C63.3467 108.03 62.1398 106.823 60.6557 106.823Z" fill="#E0E0E0"/>
<path d="M70.9799 112.654C69.2483 112.654 67.8398 111.246 67.8398 109.513C67.8398 107.781 69.2483 106.373 70.9799 106.373C72.7115 106.373 74.1209 107.781 74.1209 109.513C74.1209 111.246 72.7124 112.654 70.9799 112.654ZM70.9799 106.823C69.4967 106.823 68.2898 108.03 68.2898 109.513C68.2898 110.996 69.4967 112.204 70.9799 112.204C72.4631 112.204 73.6709 110.997 73.6709 109.513C73.6709 108.03 72.464 106.823 70.9799 106.823Z" fill="#E0E0E0"/>
<path d="M413.398 273.949H148.85C145.835 273.949 143.369 271.483 143.369 268.468V69.852C143.369 66.837 145.836 64.371 148.85 64.371H413.397C416.412 64.371 418.878 66.8379 418.878 69.852V268.468C418.879 271.483 416.412 273.949 413.398 273.949Z" fill="#E0E0E0"/>
<path d="M413.396 274.849H148.848C145.329 274.849 142.467 271.986 142.467 268.468V69.8516C142.467 66.3326 145.33 63.4706 148.848 63.4706H413.396C416.914 63.4706 419.777 66.3335 419.777 69.8516V268.468C419.777 271.986 416.914 274.849 413.396 274.849ZM148.848 65.2706C146.321 65.2706 144.267 67.3262 144.267 69.8516V268.468C144.267 270.994 146.322 273.049 148.848 273.049H413.396C415.922 273.049 417.977 270.994 417.977 268.468V69.8516C417.977 67.3253 415.922 65.2706 413.396 65.2706H148.848Z" fill="#E0E0E0"/>
<path d="M143.369 78.5428V268.467C143.369 271.482 145.836 273.948 148.85 273.948H413.397C416.412 273.948 418.878 271.481 418.878 268.467V78.5428H143.369Z" fill="#F0F0F0"/>
<path d="M417.861 85.8339H144.375V266.663H417.861V85.8339Z" fill="white"/>
<path d="M408.187 250.119H154.052C154.001 250.119 153.961 250.077 153.961 250.027V97.5605C153.961 97.5101 154.001 97.4696 154.052 97.4696H408.187C408.237 97.4696 408.278 97.5101 408.278 97.5605V250.028C408.278 250.077 408.236 250.119 408.187 250.119ZM154.143 249.936H408.095V97.6514H154.143V249.936Z" fill="#E6E6E6"/>
<path d="M155.392 74.7778C153.583 74.7778 152.111 73.3062 152.111 71.4972C152.111 69.6891 153.583 68.2177 155.392 68.2177C157.2 68.2177 158.671 69.6891 158.671 71.4972C158.671 73.3071 157.2 74.7778 155.392 74.7778ZM155.392 68.9466C153.985 68.9466 152.84 70.0914 152.84 71.4981C152.84 72.9048 153.985 74.0497 155.392 74.0497C156.799 74.0497 157.942 72.9048 157.942 71.4981C157.942 70.0914 156.798 68.9466 155.392 68.9466Z" fill="white"/>
<path d="M165.727 74.7778C163.919 74.7778 162.447 73.3062 162.447 71.4972C162.447 69.6891 163.919 68.2177 165.727 68.2177C167.535 68.2177 169.006 69.6891 169.006 71.4972C169.006 73.3071 167.535 74.7778 165.727 74.7778ZM165.727 68.9466C164.32 68.9466 163.175 70.0914 163.175 71.4981C163.175 72.9048 164.319 74.0497 165.727 74.0497C167.134 74.0497 168.278 72.9048 168.278 71.4981C168.277 70.0914 167.134 68.9466 165.727 68.9466Z" fill="white"/>
<path d="M176.053 74.7778C174.245 74.7778 172.773 73.3062 172.773 71.4972C172.773 69.6891 174.245 68.2177 176.053 68.2177C177.862 68.2177 179.334 69.6891 179.334 71.4972C179.333 73.3071 177.861 74.7778 176.053 74.7778ZM176.053 68.9466C174.646 68.9466 173.502 70.0914 173.502 71.4981C173.502 72.9048 174.645 74.0497 176.053 74.0497C177.461 74.0497 178.605 72.9048 178.605 71.4981C178.605 70.0914 177.46 68.9466 176.053 68.9466Z" fill="white"/>
<path d="M418.879 78.1815H143.369V78.9105H418.879V78.1815Z" fill="#E0E0E0"/>
<path d="M268.304 232.258L394.338 232.258V103.801L268.304 103.801V232.258Z" fill="#F0F0F0"/>
<path d="M160.286 145.588H243.498V103.8H160.286V145.588Z" fill="#F0F0F0"/>
<path d="M160.286 266.666H243.498V161.216H160.286V266.666Z" fill="#F0F0F0"/>
<path d="M225.006 384.808C321.38 384.808 399.506 380.246 399.506 374.617C399.506 368.989 321.38 364.427 225.006 364.427C128.632 364.427 50.5059 368.989 50.5059 374.617C50.5059 380.246 128.632 384.808 225.006 384.808Z" fill="#F5F5F5"/>
<path d="M386.457 87.1104H63.5652C58.806 87.1104 54.9062 91.0002 54.9062 95.7594V311.271C54.9062 316.03 58.806 319.92 63.5652 319.92H386.457C391.207 319.92 395.106 316.03 395.106 311.271V95.7594C395.106 91.0011 391.207 87.1104 386.457 87.1104Z" fill="#24774A"/>
<path opacity="0.3" d="M386.457 87.1104H63.5652C58.806 87.1104 54.9062 91.0002 54.9062 95.7594V311.271C54.9062 316.03 58.806 319.92 63.5652 319.92H386.457C391.207 319.92 395.106 316.03 395.106 311.271V95.7594C395.106 91.0011 391.207 87.1104 386.457 87.1104Z" fill="white"/>
<path d="M119.202 101.548H73.4918C71.7548 101.548 70.3418 100.135 70.3418 98.3982C70.3418 96.6612 71.7548 95.2482 73.4918 95.2482H119.202C120.939 95.2482 122.352 96.6612 122.352 98.3982C122.352 100.134 120.939 101.548 119.202 101.548ZM73.4918 96.1482C72.2516 96.1482 71.2418 97.158 71.2418 98.3982C71.2418 99.6384 72.2516 100.648 73.4918 100.648H119.202C120.443 100.648 121.452 99.6384 121.452 98.3982C121.452 97.158 120.443 96.1482 119.202 96.1482H73.4918Z" fill="#FAFAFA"/>
<path d="M134.032 101.548H130.982C129.245 101.548 127.832 100.135 127.832 98.398C127.832 96.661 129.245 95.248 130.982 95.248H134.032C135.769 95.248 137.182 96.661 137.182 98.398C137.182 100.134 135.769 101.548 134.032 101.548ZM130.982 96.148C129.741 96.148 128.732 97.1578 128.732 98.398C128.732 99.6382 129.741 100.648 130.982 100.648H134.032C135.272 100.648 136.282 99.6382 136.282 98.398C136.282 97.1578 135.272 96.148 134.032 96.148H130.982Z" fill="#FAFAFA"/>
<path d="M146.788 101.548H143.738C142.001 101.548 140.588 100.135 140.588 98.398C140.588 96.661 142.001 95.248 143.738 95.248H146.788C148.525 95.248 149.938 96.661 149.938 98.398C149.938 100.134 148.525 101.548 146.788 101.548ZM143.738 96.148C142.498 96.148 141.488 97.1578 141.488 98.398C141.488 99.6382 142.498 100.648 143.738 100.648H146.788C148.028 100.648 149.038 99.6382 149.038 98.398C149.038 97.1578 148.028 96.148 146.788 96.148H143.738Z" fill="#FAFAFA"/>
<path d="M54.9062 109.484V311.272C54.9062 316.031 58.806 319.921 63.5652 319.921H386.457C391.207 319.921 395.106 316.031 395.106 311.272V109.484H54.9062Z" fill="#24774A"/>
<path opacity="0.6" d="M54.9062 109.484V311.272C54.9062 316.031 58.806 319.921 63.5652 319.921H386.457C391.207 319.921 395.106 316.031 395.106 311.272V109.484H54.9062Z" fill="white"/>
<path d="M56.502 109.484V303.507C56.502 306.219 58.7007 308.418 61.4133 308.418H388.593C391.305 308.418 393.503 306.219 393.503 303.507V109.484H56.502Z" fill="#FAFAFA"/>
<path d="M72.0469 120.904V156.935H303.269V120.904H72.0469Z" fill="#24774A"/>
<path opacity="0.9" d="M72.0469 120.904V156.935H303.269V120.904H72.0469Z" fill="white"/>
<path d="M302.369 167.345V262.925H72.9469V167.345H302.369ZM303.269 166.445H72.0469V263.825H303.269V166.445Z" fill="#24774A"/>
<path opacity="0.9" d="M302.369 167.345V262.925H72.9469V167.345H302.369ZM303.269 166.445H72.0469V263.825H303.269V166.445Z" fill="white"/>
<path d="M329.245 366.24H322.455L320.648 350.517H327.438L329.245 366.24Z" fill="#FF8B7B"/>
<path d="M370.427 366.24H363.637L358.348 350.517H365.137L370.427 366.24Z" fill="#FF8B7B"/>
<path d="M362.732 365.453H371.01C371.287 365.453 371.528 365.646 371.588 365.917L372.929 371.952C373.068 372.579 372.576 373.171 371.934 373.16C369.271 373.114 367.328 372.958 363.973 372.958C361.909 372.958 357.657 373.173 354.807 373.173C352.02 373.173 351.585 370.355 352.751 370.099C357.983 368.954 359.953 367.377 361.628 365.871C361.932 365.599 362.326 365.453 362.732 365.453Z" fill="#263238"/>
<path d="M322.508 365.453H329.923C330.2 365.453 330.441 365.646 330.501 365.917L331.842 371.952C331.981 372.578 331.506 373.171 330.865 373.16C328.191 373.115 324.326 372.957 320.964 372.957C317.032 372.957 313.638 373.172 309.028 373.172C306.241 373.172 305.467 370.354 306.634 370.098C311.946 368.936 316.282 368.812 320.872 365.981C321.371 365.675 321.922 365.453 322.508 365.453Z" fill="#263238"/>
<path d="M333.143 197.77C332.468 203.028 331.728 208.311 330.944 213.565L328.59 229.55C328.233 231.535 327.407 233.436 326.312 234.98C325.22 236.533 323.926 237.767 322.6 238.786C319.926 240.801 317.113 242.013 314.341 242.963C311.556 243.888 308.774 244.502 305.994 244.925C304.604 245.136 303.211 245.281 301.822 245.399C300.418 245.519 299.071 245.59 297.592 245.589L297.131 240.512C299.551 239.955 302.118 239.306 304.52 238.508C306.944 237.734 309.306 236.85 311.487 235.801C313.662 234.767 315.672 233.529 317.144 232.16C317.873 231.477 318.452 230.766 318.828 230.084C319.195 229.395 319.388 228.766 319.448 228.111L319.709 224.325C319.801 222.975 319.926 221.635 320.043 220.292C320.282 217.61 320.544 214.935 320.843 212.266C321.427 206.925 322.122 201.62 322.955 196.303L333.143 197.77Z" fill="#FF8B7B"/>
<path d="M335.383 194.363C337.671 200.438 332.191 220.798 332.191 220.798L317.107 213.256C317.107 213.256 317.818 203.104 321.267 195.301C324.753 187.415 332.873 187.697 335.383 194.363Z" fill="#24774A"/>
<path opacity="0.3" d="M335.383 194.363C337.671 200.438 332.191 220.798 332.191 220.798L317.107 213.256C317.107 213.256 317.818 203.104 321.267 195.301C324.753 187.415 332.873 187.697 335.383 194.363Z" fill="black"/>
<path d="M300.741 239.864L293.332 240.356L296.793 248.308C296.793 248.308 301.546 248.305 302.893 243.547L300.741 239.864Z" fill="#FF8B7B"/>
<path d="M286.646 243.479L290.753 249.047L296.791 248.309L293.331 240.356L286.646 243.479Z" fill="#FF8B7B"/>
<path d="M320.65 350.521L321.698 359.648L328.443 359.242L327.443 350.521H320.65Z" fill="#EA7063"/>
<path d="M365.138 350.521H358.346L361.893 361.053L368.209 359.636L365.138 350.521Z" fill="#EA7063"/>
<path d="M327.315 189.717C327.315 189.717 319.301 210.219 326.912 248.402C337.855 248.402 357.903 248.402 363.227 248.402C363.478 242.827 359.975 215.633 365.351 189.366C365.351 189.366 359.127 188.117 353.194 187.831C348.554 187.607 341.836 187.459 337.757 187.832C332.38 188.322 327.315 189.717 327.315 189.717Z" fill="#24774A"/>
<path opacity="0.3" d="M327.315 189.717C327.315 189.717 319.301 210.219 326.912 248.402C337.855 248.402 357.903 248.402 363.227 248.402C363.478 242.827 359.975 215.633 365.351 189.366C365.351 189.366 359.127 188.117 353.194 187.831C348.554 187.607 341.836 187.459 337.757 187.832C332.38 188.322 327.315 189.717 327.315 189.717Z" fill="black"/>
<path d="M340.583 208.899C340.1 213.46 337.593 216.933 334.984 216.656C332.375 216.38 330.653 212.459 331.136 207.898C331.619 203.338 334.126 199.865 336.735 200.141C339.343 200.418 341.067 204.339 340.583 208.899Z" fill="#24774A"/>
<path opacity="0.1" d="M340.583 208.899C340.1 213.46 337.593 216.933 334.984 216.656C332.375 216.38 330.653 212.459 331.136 207.898C331.619 203.338 334.126 199.865 336.735 200.141C339.343 200.418 341.067 204.339 340.583 208.899Z" fill="white"/>
<path d="M357.952 201.917C359.136 195.925 361.447 196.96 363.637 199.914C362.593 208.366 362.304 216.603 362.342 223.863C360.85 221.318 355.967 211.963 357.952 201.917Z" fill="#24774A"/>
<path opacity="0.4" d="M357.952 201.917C359.136 195.925 361.447 196.96 363.637 199.914C362.593 208.366 362.304 216.603 362.342 223.863C360.85 221.318 355.967 211.963 357.952 201.917Z" fill="black"/>
<path d="M351.666 170.451C350.692 175.418 349.72 184.519 353.195 187.834C353.195 187.834 351.837 192.872 342.608 192.872C332.459 192.872 337.757 187.834 337.757 187.834C343.296 186.511 343.153 182.401 342.188 178.542L351.666 170.451Z" fill="#FF8B7B"/>
<path d="M347.804 173.752L342.195 178.537C342.427 179.451 342.607 180.377 342.671 181.278C344.787 180.972 347.694 178.649 347.918 176.434C348.03 175.329 347.984 174.267 347.804 173.752Z" fill="#EA7063"/>
<path d="M337.532 151.857C333.796 154.758 333.824 166.365 339.486 166.607C345.148 166.849 344.608 146.364 337.532 151.857Z" fill="#263238"/>
<path d="M353.112 164.582C351.141 171.026 350.315 174.898 346.207 177.462C340.026 181.32 332.672 176.388 332.678 169.485C332.683 163.271 335.905 153.778 342.931 152.71C349.854 151.659 355.083 158.138 353.112 164.582Z" fill="#FF8B7B"/>
<path d="M351.119 170.88C347.325 171.473 345.259 151.965 354.294 156.288C367.135 162.432 357.253 169.921 351.119 170.88Z" fill="#263238"/>
<path d="M351.473 158.08C346.809 157.677 340.051 157.877 338.584 152.106C336.539 144.055 346.155 142.874 348.534 149.029C354.259 147.145 370.021 156.97 359.521 161.959L351.473 158.08Z" fill="#263238"/>
<path d="M354.337 172.498C353.048 173.779 351.289 174.346 349.796 174.317C347.55 174.274 347.07 172.11 348.233 170.328C349.28 168.724 351.709 166.813 353.703 167.719C355.669 168.611 355.81 171.034 354.337 172.498Z" fill="#FF8B7B"/>
<path d="M326.916 248.404C326.916 248.404 300.438 285.096 301.177 305.801C301.945 327.337 319.036 357.058 319.036 357.058L330.08 354.523C330.08 354.523 319.095 328.596 319.607 307.445C320.165 284.387 350.787 266.193 350.787 248.404C339.558 248.404 326.916 248.404 326.916 248.404Z" fill="#263238"/>
<path d="M339.796 248.404C339.796 248.404 326.304 286.219 330.534 305.658C335.166 326.945 358.397 358.397 358.397 358.397L369.517 355.337C369.517 355.337 354.471 328.274 351.828 307.198C348.959 284.323 363.229 265.415 363.229 248.403C349.321 248.404 339.796 248.404 339.796 248.404Z" fill="#263238"/>
<path d="M356.747 359.933L372.73 356.966L371.932 352.665L354.014 355.701L356.747 359.933Z" fill="#24774A"/>
<path opacity="0.4" d="M356.747 359.933L372.73 356.966L371.932 352.665L354.014 355.701L356.747 359.933Z" fill="white"/>
<path d="M316.733 358.019L332.91 356.422L332.475 352.017L314.369 353.57L316.733 358.019Z" fill="#24774A"/>
<path opacity="0.4" d="M316.733 358.019L332.91 356.422L332.475 352.017L314.369 353.57L316.733 358.019Z" fill="white"/>
<path d="M342.753 164.027C342.625 164.56 342.239 164.924 341.891 164.84C341.543 164.756 341.365 164.257 341.493 163.725C341.62 163.192 342.006 162.829 342.354 162.912C342.702 162.995 342.88 163.495 342.753 164.027Z" fill="#263238"/>
<path d="M336.727 162.583C336.599 163.116 336.213 163.48 335.866 163.396C335.518 163.312 335.339 162.813 335.467 162.281C335.595 161.748 335.981 161.384 336.328 161.468C336.677 161.552 336.855 162.05 336.727 162.583Z" fill="#263238"/>
<path d="M338.582 163.309C338.582 163.309 336.635 166.09 334.945 167.252C335.676 168.358 337.374 168.34 337.374 168.34L338.582 163.309Z" fill="#FF5652"/>
<path d="M339.778 170.332C339.406 170.332 339.004 170.289 338.572 170.185C338.486 170.165 338.434 170.077 338.453 169.992C338.474 169.906 338.556 169.85 338.648 169.873C340.985 170.435 342.467 169.064 342.483 169.05C342.548 168.989 342.649 168.991 342.71 169.056C342.771 169.121 342.768 169.222 342.704 169.284C342.65 169.334 341.572 170.332 339.778 170.332Z" fill="#263238"/>
<path d="M345.105 162.531C344.98 162.531 344.862 162.459 344.81 162.338C344.235 161.024 343.069 160.815 343.058 160.813C342.882 160.784 342.765 160.618 342.793 160.444C342.823 160.268 342.991 160.151 343.163 160.179C343.225 160.19 344.686 160.451 345.399 162.081C345.47 162.244 345.396 162.433 345.233 162.505C345.192 162.522 345.148 162.531 345.105 162.531Z" fill="#263238"/>
<path d="M334.672 159.894C334.6 159.894 334.528 159.87 334.467 159.82C334.33 159.708 334.31 159.505 334.422 159.367C335.553 157.992 337.033 158.14 337.093 158.146C337.269 158.165 337.397 158.324 337.377 158.501C337.357 158.677 337.194 158.8 337.023 158.785C336.967 158.781 335.817 158.683 334.92 159.776C334.856 159.854 334.764 159.894 334.672 159.894Z" fill="#263238"/>
<path d="M246.172 290.043L221.807 292.945L221.913 293.838L246.279 290.935L246.172 290.043Z" fill="#24774A"/>
<path d="M264.879 287.808L254.848 289.014L254.955 289.906L264.987 288.701L264.879 287.808Z" fill="#24774A"/>
<path d="M403.888 230.249L187.811 256.013L192.363 294.196L408.44 268.432L403.888 230.249Z" fill="#24774A"/>
<path d="M371.977 244.521L272.715 256.356L274.806 273.897L374.069 262.062L371.977 244.521Z" fill="#24774A"/>
<path opacity="0.2" d="M371.977 244.521L272.715 256.356L274.806 273.897L374.069 262.062L371.977 244.521Z" fill="white"/>
<path d="M224.535 270.987C225.267 277.129 220.881 282.702 214.74 283.434C208.598 284.166 203.025 279.781 202.293 273.638C201.56 267.497 205.946 261.923 212.088 261.191C218.229 260.459 223.803 264.844 224.535 270.987Z" fill="#24774A"/>
<path opacity="0.2" d="M224.535 270.987C225.267 277.129 220.881 282.702 214.74 283.434C208.598 284.166 203.025 279.781 202.293 273.638C201.56 267.497 205.946 261.923 212.088 261.191C218.229 260.459 223.803 264.844 224.535 270.987Z" fill="white"/>
<path d="M253.97 275.353C257.739 270.449 256.819 263.417 251.915 259.648C247.011 255.878 239.979 256.798 236.21 261.703C232.44 266.607 233.361 273.639 238.265 277.408C243.169 281.177 250.201 280.257 253.97 275.353Z" fill="#24774A"/>
<path opacity="0.2" d="M253.97 275.353C257.739 270.449 256.819 263.417 251.915 259.648C247.011 255.878 239.979 256.798 236.21 261.703C232.44 266.607 233.361 273.639 238.265 277.408C243.169 281.177 250.201 280.257 253.97 275.353Z" fill="white"/>
<path d="M367.947 194.65C368.534 195.909 369.021 197.027 369.493 198.226C369.969 199.406 370.422 200.591 370.863 201.782C371.723 204.171 372.506 206.594 373.184 209.063C373.882 211.524 374.439 214.049 374.9 216.616L375.222 218.553L375.459 220.525C375.547 221.177 375.585 221.855 375.633 222.524L375.702 223.53L375.719 223.781L375.735 224.198C375.746 224.519 375.729 224.799 375.711 225.087C375.506 227.311 374.847 228.783 374.197 230.156C373.53 231.51 372.797 232.687 372.041 233.812C370.517 236.043 368.866 238.02 367.167 239.918C363.749 243.7 360.115 247.066 356.189 250.246L352.605 246.621C355.547 242.872 358.473 238.994 361.13 235.141C362.453 233.211 363.699 231.251 364.736 229.327C365.25 228.372 365.712 227.416 366.033 226.538C366.356 225.685 366.535 224.818 366.483 224.598C366.474 224.582 366.475 224.557 366.465 224.573C366.458 224.555 366.469 224.627 366.455 224.534L366.423 224.331L366.298 223.517C366.213 222.975 366.144 222.437 366.021 221.886L365.693 220.244L365.312 218.59C364.764 216.385 364.141 214.172 363.427 211.963C362.706 209.758 361.946 207.55 361.126 205.359C360.723 204.261 360.307 203.167 359.873 202.083L358.581 198.915L367.947 194.65Z" fill="#FF8B7B"/>
<path d="M366.771 189.817C372.83 192.148 377.176 214.306 377.176 214.306L362.749 219.99C362.749 219.99 357.912 208.854 356.291 200.622C354.583 191.954 359.899 187.172 366.771 189.817Z" fill="#24774A"/>
<path opacity="0.3" d="M366.771 189.817C372.83 192.148 377.176 214.306 377.176 214.306L362.749 219.99C362.749 219.99 357.912 208.854 356.291 200.622C354.583 191.954 359.899 187.172 366.771 189.817Z" fill="black"/>
<path d="M360.489 366.639C359.973 366.639 359.489 366.551 359.182 366.292C358.938 366.087 358.826 365.802 358.849 365.443C358.867 365.175 359.009 365.049 359.125 364.988C359.878 364.599 362.067 365.948 362.314 366.103C362.368 366.137 362.397 366.201 362.387 366.265C362.377 366.328 362.329 366.381 362.266 366.396C361.794 366.508 361.117 366.639 360.489 366.639ZM359.48 365.233C359.396 365.233 359.326 365.246 359.272 365.274C359.228 365.295 359.178 365.337 359.171 365.463C359.155 365.718 359.226 365.909 359.389 366.046C359.76 366.357 360.646 366.4 361.8 366.168C361.033 365.725 360.001 365.233 359.48 365.233Z" fill="#24774A"/>
<path d="M362.226 366.403C362.199 366.403 362.172 366.396 362.149 366.383C361.446 366.001 360.088 364.514 360.231 363.757C360.257 363.62 360.359 363.382 360.743 363.335C360.984 363.306 361.222 363.373 361.428 363.541C362.217 364.185 362.379 366.145 362.385 366.228C362.39 366.287 362.362 366.343 362.313 366.375C362.286 366.394 362.256 366.403 362.226 366.403ZM360.855 363.65C360.831 363.65 360.806 363.652 360.782 363.656C360.572 363.681 360.555 363.777 360.547 363.818C360.462 364.265 361.327 365.389 362.026 365.919C361.947 365.347 361.731 364.205 361.224 363.793C361.109 363.696 360.988 363.65 360.855 363.65Z" fill="#24774A"/>
<path d="M319.686 366.64C319.011 366.64 318.388 366.536 318.036 366.222C317.811 366.023 317.71 365.761 317.734 365.44C317.748 365.249 317.839 365.101 317.999 365.012C318.821 364.553 321.553 365.936 321.861 366.095C321.922 366.127 321.956 366.194 321.947 366.262C321.937 366.329 321.887 366.383 321.819 366.396C321.245 366.511 320.433 366.64 319.686 366.64ZM318.456 365.234C318.331 365.234 318.229 365.253 318.156 365.293C318.091 365.329 318.062 365.38 318.054 365.464C318.038 365.681 318.102 365.851 318.249 365.98C318.666 366.351 319.783 366.416 321.283 366.167C320.344 365.72 319.099 365.234 318.456 365.234Z" fill="#24774A"/>
<path d="M321.787 366.403C321.766 366.403 321.742 366.398 321.722 366.388C320.903 366.021 319.279 364.552 319.403 363.785C319.432 363.604 319.561 363.38 320.002 363.335C320.337 363.301 320.63 363.393 320.894 363.611C321.758 364.319 321.94 366.149 321.948 366.226C321.953 366.284 321.929 366.339 321.882 366.372C321.853 366.392 321.821 366.403 321.787 366.403ZM320.131 363.651C320.1 363.651 320.067 363.652 320.034 363.656C319.744 363.685 319.725 363.799 319.72 363.837C319.645 364.298 320.749 365.452 321.584 365.955C321.497 365.42 321.255 364.325 320.688 363.86C320.518 363.72 320.336 363.651 320.131 363.651Z" fill="#24774A"/>
<path d="M354.151 245.716L347.49 247.487L353.012 254.175C353.012 254.175 358.348 251.407 357.198 248.417L354.151 245.716Z" fill="#FF8B7B"/>
<path d="M342.67 253.052L347.492 258.288L353.015 254.176L347.492 247.488L342.67 253.052Z" fill="#FF8B7B"/>
<path d="M127.459 173.709C125.956 175.243 124.345 176.939 122.866 178.635C121.362 180.335 119.888 182.062 118.493 183.839C117.094 185.616 115.776 187.437 114.509 189.277L113.587 190.672L112.722 192.091C112.425 192.561 112.157 193.041 111.9 193.523L111.188 194.833C110.95 195.308 110.776 196.218 110.698 197.171C110.619 198.138 110.635 199.196 110.701 200.269C110.839 202.424 111.155 204.662 111.556 206.897C111.942 209.14 112.426 211.392 112.967 213.636C113.479 215.882 114.074 218.147 114.662 220.356L111.365 221.59C109.353 217.212 107.719 212.761 106.366 208.099C105.715 205.763 105.142 203.383 104.796 200.868C104.63 199.607 104.508 198.317 104.518 196.938C104.54 195.556 104.645 194.095 105.292 192.388C105.493 191.892 105.606 191.69 105.745 191.393L106.152 190.549C106.419 189.982 106.695 189.423 106.997 188.883L107.883 187.249L108.822 185.657C110.095 183.553 111.449 181.508 112.925 179.576C114.388 177.631 115.894 175.73 117.487 173.903C119.11 172.077 120.696 170.334 122.542 168.58L127.459 173.709Z" fill="#B55B52"/>
<path d="M127.845 162.981C123.024 163.2 118.447 171.201 118.447 171.201L124.14 182.829C124.14 182.829 133.443 177.013 133.554 169.949C133.625 165.356 132.586 162.766 127.845 162.981Z" fill="#24774A"/>
<path opacity="0.5" d="M127.845 162.981C123.024 163.2 118.447 171.201 118.447 171.201L124.14 182.829C124.14 182.829 133.443 177.013 133.554 169.949C133.625 165.356 132.586 162.766 127.845 162.981Z" fill="black"/>
<path d="M113.747 218.962L119.611 220.704L115.709 224.655C115.709 224.655 111.484 223.353 110.895 220.48L113.747 218.962Z" fill="#B55B52"/>
<path d="M123.165 225.22L122.177 228.997L115.713 224.657L119.615 220.706L123.165 225.22Z" fill="#B55B52"/>
<path d="M257.678 186.065L115.359 189.481L116.648 243.138L258.966 239.721L257.678 186.065Z" fill="#24774A"/>
<path opacity="0.6" d="M257.678 186.065L115.359 189.481L116.648 243.138L258.966 239.721L257.678 186.065Z" fill="white"/>
<path d="M250.534 190.515L197.475 191.789L197.955 211.794L251.015 210.52L250.534 190.515Z" fill="#24774A"/>
<path opacity="0.7" d="M250.534 190.515L197.475 191.789L197.955 211.794L251.015 210.52L250.534 190.515Z" fill="white"/>
<path d="M222.093 215.413L169.033 216.687L169.513 236.691L222.573 235.417L222.093 215.413Z" fill="#24774A"/>
<path opacity="0.7" d="M222.093 215.413L169.033 216.687L169.513 236.691L222.573 235.417L222.093 215.413Z" fill="white"/>
<path d="M161.046 145.249C160.955 145.799 161.175 146.302 161.536 146.372C161.898 146.442 162.265 146.052 162.356 145.502C162.447 144.953 162.228 144.449 161.866 144.379C161.503 144.309 161.137 144.699 161.046 145.249Z" fill="#263238"/>
<path d="M161.697 144.376L163.09 144.253C163.09 144.253 162.237 145.153 161.697 144.376Z" fill="#263238"/>
<path d="M161.426 145.874C161.426 145.874 161.974 148.425 162.819 149.768C161.977 150.305 160.785 149.754 160.785 149.754L161.426 145.874Z" fill="#A02724"/>
<path d="M162.395 141.72C162.343 141.72 162.289 141.707 162.24 141.68C160.938 140.981 159.864 141.508 159.819 141.532C159.657 141.615 159.459 141.55 159.376 141.388C159.294 141.226 159.357 141.03 159.517 140.946C159.574 140.916 160.935 140.232 162.551 141.101C162.711 141.187 162.771 141.386 162.685 141.546C162.627 141.658 162.513 141.72 162.395 141.72Z" fill="#263238"/>
<path d="M143.467 149.788C143.596 153.991 143.168 161.563 139.873 163.712C139.873 163.712 140.308 168.034 147.873 169.499C156.192 171.11 152.527 166.163 152.527 166.163C148.165 164.205 148.835 160.879 150.146 157.886L143.467 149.788Z" fill="#B55B52"/>
<path d="M166.127 174.314C166.642 176.409 167.299 178.706 168.023 180.861C168.765 183.035 169.551 185.187 170.463 187.261C171.371 189.335 172.393 191.333 173.553 193.182C174.695 195.033 175.984 196.751 177.439 198.102C178.165 198.776 178.927 199.366 179.719 199.819C180.113 200.05 180.514 200.248 180.922 200.408C181.181 200.51 181.19 200.522 181.294 200.553C181.384 200.58 181.484 200.603 181.604 200.611C182.07 200.664 182.857 200.522 183.689 200.162C184.526 199.803 185.415 199.276 186.292 198.675C189.809 196.197 193.128 192.687 196.148 189.206L199.075 191.162C198.461 192.298 197.82 193.328 197.14 194.378C196.468 195.426 195.751 196.445 194.984 197.438C193.453 199.426 191.816 201.378 189.788 203.127C188.774 204.005 187.667 204.841 186.35 205.551C185.034 206.238 183.477 206.894 181.527 206.917C181.046 206.923 180.547 206.882 180.048 206.792C179.561 206.712 178.998 206.534 178.696 206.421C177.974 206.171 177.281 205.865 176.623 205.517C175.297 204.83 174.112 203.983 173.039 203.068C168.771 199.346 166.159 194.756 164.013 190.167C162.948 187.859 162.016 185.517 161.23 183.134C160.436 180.729 159.74 178.409 159.18 175.819L166.127 174.314Z" fill="#B55B52"/>
<path d="M195.797 189.562L197.835 185.813L203.505 187.315C203.505 187.315 200.11 192.494 197.193 192.502L195.797 189.562Z" fill="#B55B52"/>
<path d="M202.452 184.461L206.765 187.311H203.502L197.832 185.81L202.452 184.461Z" fill="#B55B52"/>
<path d="M125.365 365.757L132.312 366.268L134.376 350.316L127.429 349.804L125.365 365.757Z" fill="#B55B52"/>
<path d="M70.6934 331.457L75.4958 336.609L88.5161 327.284L83.7146 322.131L70.6934 331.457Z" fill="#B55B52"/>
<path d="M77.596 335.807L73.5893 328.969C73.4435 328.721 73.1573 328.617 72.9008 328.72L67.193 331.02C66.6008 331.259 66.3686 332.044 66.7142 332.612C68.1515 334.973 68.9605 336.042 70.7227 339.049C71.8072 340.899 73.2041 343.711 74.7017 346.265C76.166 348.764 78.7309 347.518 78.3295 346.324C76.5295 340.971 77.4619 339.412 77.83 337.037C77.8957 336.608 77.8093 336.171 77.596 335.807Z" fill="#263238"/>
<path d="M132.743 365.28H124.934C124.65 365.28 124.415 365.477 124.367 365.755L123.319 371.933C123.21 372.574 123.745 373.18 124.402 373.169C127.125 373.122 128.442 372.962 131.875 372.962C133.987 372.962 138.352 373.181 141.269 373.181C144.122 373.181 144.417 370.297 143.208 370.035C137.791 368.863 135.688 367.248 133.893 365.707C133.57 365.43 133.159 365.28 132.743 365.28Z" fill="#263238"/>
<path d="M134.372 350.316L133.227 359.182L126.359 358.032L127.422 349.804L134.372 350.316Z" fill="#9E4541"/>
<path d="M83.708 322.129L88.5122 327.283L83.1239 331.14L78.1523 326.104L83.708 322.129Z" fill="#9E4541"/>
<path d="M125.887 205.3C131.274 206.341 142.701 208.556 153.753 210.701C166.92 171.935 163.77 170.681 163.77 170.681C163.77 170.681 160.974 169.124 157.445 167.745C157.31 167.692 157.184 167.647 157.067 167.603C155.286 166.953 154.91 166.856 152.523 166.161C148.419 165.191 144.597 164.399 139.87 163.714C139.567 163.67 139.263 163.625 138.967 163.589C138.111 163.481 137.262 163.393 136.441 163.313C135.888 163.251 135.335 163.215 134.808 163.18C134.185 163.144 133.578 163.109 133.008 163.082C129.961 162.931 127.783 162.975 127.783 162.975C129.38 187.167 128.216 194.116 125.887 205.3Z" fill="#24774A"/>
<path opacity="0.5" d="M125.887 205.3C131.274 206.341 142.701 208.556 153.753 210.701C166.92 171.935 163.77 170.681 163.77 170.681C163.77 170.681 160.974 169.124 157.445 167.745C157.31 167.692 157.184 167.647 157.067 167.603C155.286 166.953 154.91 166.856 152.523 166.161C148.419 165.191 144.597 164.399 139.87 163.714C139.567 163.67 139.263 163.625 138.967 163.589C138.111 163.481 137.262 163.393 136.441 163.313C135.888 163.251 135.335 163.215 134.808 163.18C134.185 163.144 133.578 163.109 133.008 163.082C129.961 162.931 127.783 162.975 127.783 162.975C129.38 187.167 128.216 194.116 125.887 205.3Z" fill="black"/>
<path d="M158.13 182.478C157.041 187.932 158.193 192.468 158.949 194.637C161.262 187.059 162.576 181.875 163.287 178.329C161.154 178.05 158.877 178.743 158.13 182.478Z" fill="#24774A"/>
<path opacity="0.6" d="M158.13 182.478C157.041 187.932 158.193 192.468 158.949 194.637C161.262 187.059 162.576 181.875 163.287 178.329C161.154 178.05 158.877 178.743 158.13 182.478Z" fill="black"/>
<path d="M163.531 170.553C168.18 173.587 171.143 180.338 171.93 184.205L161.145 192.997C161.145 192.997 155.269 179.876 157.197 176.523C159.205 173.032 161.774 169.406 163.531 170.553Z" fill="#24774A"/>
<path opacity="0.5" d="M163.531 170.553C168.18 173.587 171.143 180.338 171.93 184.205L161.145 192.997C161.145 192.997 155.269 179.876 157.197 176.523C159.205 173.032 161.774 169.406 163.531 170.553Z" fill="black"/>
<path d="M142.782 140.15C142.083 146.989 141.641 149.865 144.501 153.998C148.803 160.216 157.389 159.827 160.125 153.396C162.588 147.606 163.318 137.395 157.109 133.417C150.99 129.498 143.481 133.311 142.782 140.15Z" fill="#B55B52"/>
<path d="M142.877 126.188C138.676 129.301 141.367 130.05 139.576 133.19C137.653 136.56 135.646 132.722 131.826 136.426C129.351 138.826 133.576 141.376 130.502 145.604C128.113 148.889 125.519 146.043 126.526 152.776C127.214 157.373 124.401 156.801 122.504 159.401C119.784 163.13 122.223 165.801 129.171 167.202C136.119 168.601 131.167 175.592 137.702 175.801C144.827 176.03 143.172 166.743 146.652 169.002C150.002 171.175 156.447 169.198 156.067 163.65C155.718 158.559 150.065 158.733 154.642 155.251C158.224 152.526 159.328 152.561 156.795 146.758C154.642 141.826 162.545 142.577 162.399 138.302C162.134 130.592 156.795 132.902 155.114 128.952C154.022 126.387 148.263 122.195 142.877 126.188Z" fill="#263238"/>
<path d="M156.07 143.712C156.059 144.962 156.603 146.289 157.307 147.252C158.366 148.7 159.615 148.317 159.923 146.989C160.201 145.793 159.985 143.598 158.632 142.59C157.299 141.598 156.084 142.283 156.07 143.712Z" fill="#B55B52"/>
<path d="M146.396 209.275C146.396 209.275 132.819 254.737 126.188 280.92C119.191 308.544 85.8012 331.061 85.8012 331.061L78.6777 323.973C78.6777 323.973 101 305.134 107.777 279.355C121.537 227.025 114.917 215.941 125.887 205.304L146.396 209.275Z" fill="#24774A"/>
<path opacity="0.8" d="M146.396 209.275C146.396 209.275 132.819 254.737 126.188 280.92C119.191 308.544 85.8012 331.061 85.8012 331.061L78.6777 323.973C78.6777 323.973 101 305.134 107.777 279.355C121.537 227.025 114.917 215.941 125.887 205.304L146.396 209.275Z" fill="white"/>
<path d="M86.4133 332.089L77.5195 323.241L79.9369 320.558L90.7621 329.776L86.4133 332.089Z" fill="#24774A"/>
<path d="M140.018 218.958C131.111 225.827 130.515 252.003 130.72 263.828C135.248 247.296 140.605 228.906 143.737 218.264C142.882 217.543 141.655 217.695 140.018 218.958Z" fill="#24774A"/>
<path opacity="0.6" d="M140.018 218.958C131.111 225.827 130.515 252.003 130.72 263.828C135.248 247.296 140.605 228.906 143.737 218.264C142.882 217.543 141.655 217.695 140.018 218.958Z" fill="white"/>
<path d="M79.0391 339.517C78.9563 339.517 78.8717 339.504 78.788 339.478C77.9402 339.22 77.339 337.668 77.0564 336.766C77.0366 336.703 77.0564 336.635 77.1068 336.592C77.1581 336.549 77.2292 336.541 77.2877 336.571C77.5442 336.703 79.796 337.877 79.886 338.766C79.9058 338.964 79.8275 339.14 79.6583 339.275C79.4558 339.436 79.2488 339.517 79.0391 339.517ZM77.5001 337.059C77.9195 338.248 78.4271 339.024 78.8843 339.164C79.0715 339.222 79.2578 339.174 79.4522 339.018C79.5575 338.934 79.5638 338.857 79.5584 338.799C79.5107 338.33 78.3875 337.556 77.5001 337.059Z" fill="#24774A"/>
<path d="M153.332 210.702C153.332 210.702 155.067 265.706 151.181 286.424C147.139 307.974 134.828 356.995 134.828 356.995L124.809 355.702C124.809 355.702 131.145 306.181 133.835 284.77C136.768 261.428 132.925 206.751 132.925 206.751L153.332 210.702Z" fill="#24774A"/>
<path opacity="0.8" d="M153.332 210.702C153.332 210.702 155.067 265.706 151.181 286.424C147.139 307.974 134.828 356.995 134.828 356.995L124.809 355.702C124.809 355.702 131.145 306.181 133.835 284.77C136.768 261.428 132.925 206.751 132.925 206.751L153.332 210.702Z" fill="white"/>
<path d="M136.958 357.566L122.676 355.723L122.853 352.33L138.39 353.007L136.958 357.566Z" fill="#24774A"/>
<path d="M79.2702 337.347C78.4935 337.347 77.5521 337.109 77.1309 336.859C77.0805 336.83 77.0508 336.776 77.0508 336.717C77.0517 336.659 77.0823 336.605 77.1327 336.576C77.2047 336.534 78.8949 335.552 79.8534 335.867C80.1153 335.951 80.3034 336.12 80.4114 336.37C80.5815 336.758 80.4141 336.985 80.2989 337.087C80.0865 337.273 79.7031 337.347 79.2702 337.347ZM77.5746 336.71C78.3567 337.026 79.7202 337.157 80.0802 336.839C80.1396 336.786 80.1963 336.702 80.109 336.501C80.0379 336.34 79.9209 336.235 79.7508 336.18C79.1784 335.995 78.1551 336.414 77.5746 336.71Z" fill="#24774A"/>
<path d="M135.33 366.493C134.564 366.493 133.736 366.362 133.149 366.245C133.079 366.231 133.027 366.176 133.017 366.106C133.007 366.037 133.042 365.97 133.105 365.937C133.424 365.774 136.237 364.352 137.074 364.83C137.236 364.922 137.327 365.073 137.341 365.268C137.362 365.596 137.255 365.866 137.023 366.069C136.658 366.386 136.02 366.493 135.33 366.493ZM133.699 366.011C135.229 366.265 136.373 366.199 136.805 365.82C136.958 365.686 137.026 365.512 137.011 365.288C137.006 365.203 136.976 365.151 136.912 365.115C136.456 364.857 134.855 365.462 133.699 366.011Z" fill="#24774A"/>
<path d="M133.18 366.246C133.146 366.246 133.111 366.236 133.083 366.216C133.036 366.181 133.01 366.123 133.017 366.065C133.03 365.937 133.388 362.928 135.041 363.107C135.49 363.152 135.621 363.381 135.649 363.564C135.775 364.348 134.094 365.855 133.247 366.233C133.226 366.243 133.203 366.246 133.18 366.246ZM134.911 363.43C133.909 363.43 133.514 365.08 133.39 365.787C134.256 365.27 135.4 364.086 135.324 363.616C135.318 363.579 135.299 363.465 135.007 363.435C134.974 363.432 134.943 363.43 134.911 363.43Z" fill="#24774A"/>
<path d="M125.738 203.596L124.072 205.833C123.942 206.006 124.139 206.247 124.461 206.31L153.687 211.97C153.938 212.018 154.167 211.937 154.208 211.783L154.869 209.351C154.915 209.183 154.721 208.994 154.446 208.941L126.225 203.476C126.019 203.436 125.821 203.485 125.738 203.596Z" fill="#24774A"/>
<path d="M129.014 207.468L128.258 207.321C128.108 207.293 128.006 207.193 128.031 207.101L128.918 203.947C128.944 203.856 129.088 203.803 129.239 203.832L129.995 203.979C130.145 204.008 130.247 204.108 130.222 204.199L129.335 207.353C129.309 207.446 129.164 207.497 129.014 207.468Z" fill="#24774A"/>
<path opacity="0.8" d="M129.014 207.468L128.258 207.321C128.108 207.293 128.006 207.193 128.031 207.101L128.918 203.947C128.944 203.856 129.088 203.803 129.239 203.832L129.995 203.979C130.145 204.008 130.247 204.108 130.222 204.199L129.335 207.353C129.309 207.446 129.164 207.497 129.014 207.468Z" fill="white"/>
<path d="M148.102 211.207L147.346 211.061C147.196 211.032 147.093 210.932 147.119 210.84L148.006 207.687C148.032 207.594 148.176 207.543 148.327 207.571L149.083 207.718C149.233 207.747 149.336 207.847 149.31 207.939L148.423 211.092C148.396 211.185 148.252 211.236 148.102 211.207Z" fill="#24774A"/>
<path opacity="0.8" d="M148.102 211.207L147.346 211.061C147.196 211.032 147.093 210.932 147.119 210.84L148.006 207.687C148.032 207.594 148.176 207.543 148.327 207.571L149.083 207.718C149.233 207.747 149.336 207.847 149.31 207.939L148.423 211.092C148.396 211.185 148.252 211.236 148.102 211.207Z" fill="white"/>
</svg>
