<svg width="40" height="45" viewBox="0 0 40 45" fill="none" xmlns="http://www.w3.org/2000/svg">
<path d="M27.0039 30.5293C27.0039 30.5293 27.0358 29.345 27.6352 27.699C27.9223 26.8744 28.3532 25.9392 28.9312 25.001C29.5043 24.0559 30.2464 23.1255 31.0945 22.2876C31.9632 21.4781 32.9056 20.7183 33.921 20.2285C34.3964 19.936 34.9061 19.7442 35.3917 19.58C35.8662 19.3875 36.3288 19.2539 36.7712 19.1908C37.6356 18.9842 38.3697 18.9668 38.8827 18.9887C39.3938 18.9971 39.6789 19.0192 39.6789 19.0192C39.6789 19.0192 39.4123 19.1375 38.9494 19.344C38.4837 19.5205 37.8414 19.7895 37.1134 20.1747C36.7382 20.338 36.3614 20.566 35.967 20.8089C35.5617 21.0351 35.1542 21.2943 34.7526 21.5943C34.3297 21.86 33.9369 22.1928 33.5349 22.5274C33.1131 22.8379 32.7397 23.2178 32.3589 23.589C31.5757 24.3113 30.8813 25.1329 30.2362 25.9174C29.6011 26.7093 29.0378 27.486 28.5614 28.169C27.6147 29.5391 27.0039 30.5293 27.0039 30.5293Z" fill="#24774A"/>
<path d="M6.58984 0.951965C6.58984 0.951965 7.0507 1.06885 7.81315 1.41015C8.55285 1.78089 9.64253 2.30354 10.7976 3.16949C11.3691 3.60291 11.9943 4.0825 12.5866 4.65958C13.1871 5.2293 13.8179 5.83916 14.3765 6.55231C15.579 7.9157 16.5858 9.57756 17.4985 11.2776C17.8789 12.1652 18.3036 13.0333 18.6264 13.9232C18.9347 14.8179 19.2258 15.7055 19.452 16.5723C19.6605 17.4479 19.8227 18.3011 19.9809 19.1035C20.1102 19.9136 20.1629 20.6895 20.2296 21.3988C20.4123 22.8115 20.249 24.0139 20.2697 24.8345C20.2412 25.661 20.1957 26.1299 20.1957 26.1299C20.1957 26.1299 20.0629 25.6688 19.8805 24.8675C19.6926 24.0674 19.4941 22.9193 19.0973 21.5858C18.9213 20.9186 18.7299 20.1958 18.5289 19.4311C18.2782 18.6828 18.0109 17.8982 17.7687 17.0791C17.5059 16.2663 17.1193 15.4706 16.832 14.6267C16.5075 13.7953 16.0821 12.9961 15.7136 12.1716C15.2908 11.3753 14.8813 10.5693 14.42 9.81045C13.9232 9.077 13.5208 8.29247 12.9937 7.62862C12.0347 6.22529 10.9731 5.04281 10.0443 4.02919C9.09467 3.04167 8.24657 2.24755 7.61105 1.7394C6.97598 1.22946 6.58984 0.951965 6.58984 0.951965Z" fill="#24774A"/>
<path d="M23.6376 5.07569C23.6376 6.90708 22.1535 8.3916 20.3257 8.3916C18.4916 8.3916 17.0098 6.90708 17.0098 5.07569C17.0098 3.24475 18.4916 1.76046 20.3257 1.76046C22.1535 1.76046 23.6376 3.24475 23.6376 5.07569Z" fill="#24774A"/>
<path d="M35.221 44.3945C35.1652 44.3795 34.7079 44.2384 33.9571 43.956C33.5558 43.8034 33.0724 43.614 32.5114 43.3983C31.9314 43.2163 31.3517 42.8632 30.7161 42.4766C30.0953 42.0715 29.326 41.7443 28.6976 41.1496C28.0621 40.5696 27.3039 40.0271 26.6866 39.3059C26.4042 38.9193 26.0734 38.5515 25.7573 38.1649C25.4453 37.7857 25.1479 37.3915 24.9248 36.9421C24.449 36.0535 23.9139 35.1688 23.6239 34.1802C23.2449 33.2175 23.0627 32.2139 22.8918 31.2215C22.7133 30.2364 22.7392 29.2402 22.7207 28.2997C22.7988 26.4079 23.137 24.6796 23.5869 23.2633C24.4602 20.5091 25.5829 18.9182 25.6536 18.8213C25.6384 18.8771 25.5048 19.3418 25.3226 20.1111C25.0995 20.9215 24.9063 22.1109 24.698 23.5125C24.6237 24.2187 24.5233 24.9731 24.4936 25.7797C24.4158 26.579 24.4827 27.4226 24.4789 28.285C24.5421 29.1438 24.6237 30.0357 24.791 30.9092C24.9695 31.7901 25.1479 32.6783 25.5084 33.5148C25.5753 33.7788 25.6645 34.0315 25.7687 34.2768C26.0067 34.8639 26.315 35.418 26.5976 35.9755C26.984 36.7783 27.5751 37.4473 28.0324 38.1722C28.5528 38.8489 29.166 39.425 29.6865 40.0307C30.2031 40.6403 30.8609 41.0492 31.3704 41.5361C31.9167 41.9897 32.3849 42.4579 32.8866 42.7552C33.3698 43.0863 33.79 43.3724 34.1358 43.6102C34.7862 44.0635 35.1726 44.3608 35.221 44.3945Z" fill="#24774A"/>
<path d="M33.8211 0.951962C33.8211 0.951962 33.436 1.22946 32.7994 1.73939C32.1619 2.24754 31.3153 3.04033 30.3642 4.02919C29.4367 5.04281 28.3748 6.22396 27.4174 7.62861C26.889 8.2909 26.4868 9.077 25.9885 9.80955C25.5269 10.5682 25.1176 11.3753 24.6947 12.1707C24.3259 12.9961 23.899 13.7953 23.5762 14.6267C23.2891 15.4706 22.9037 16.2663 22.6382 17.0791C22.3988 17.8969 22.1296 18.6812 21.8791 19.4311C21.6772 20.1958 21.4861 20.9183 21.3094 21.5858C20.9134 22.9193 20.7147 24.0674 20.526 24.8675C20.3433 25.6688 20.2112 26.1299 20.2112 26.1299C20.2112 26.1299 20.1657 25.661 20.1374 24.8345C20.1575 24.0139 19.9944 22.8115 20.1784 21.3986C20.2451 20.6895 20.2978 19.9136 20.4242 19.1035C20.5826 18.3 20.7484 17.4467 20.9538 16.5721C21.1811 15.7043 21.4727 14.8174 21.7803 13.9225C22.1035 13.0322 22.5298 12.164 22.9094 11.2762C23.8231 9.57644 24.8301 7.91503 26.0317 6.55164C26.5921 5.83916 27.2229 5.22818 27.8243 4.65846C28.4159 4.08205 29.0403 3.60291 29.6138 3.16859C30.7688 2.30353 31.8589 1.78088 32.598 1.41014C33.3611 1.06885 33.8211 0.951962 33.8211 0.951962Z" fill="#24774A"/>
<path d="M13.392 30.5293C13.392 30.5293 12.7777 29.5391 11.8335 28.1697C11.3539 27.486 10.7906 26.7104 10.156 25.9174C9.51087 25.1333 8.81757 24.3113 8.0355 23.589C7.65271 23.2178 7.27952 22.8386 6.85792 22.529C6.4555 22.1942 6.06223 21.8611 5.64019 21.595C5.23755 21.2959 4.83134 21.0351 4.42737 20.8089C4.03209 20.566 3.65466 20.338 3.27991 20.1747C2.55025 19.7895 1.90915 19.5205 1.4416 19.344C0.98096 19.1375 0.714844 19.0192 0.714844 19.0192C0.714844 19.0192 0.998585 18.9971 1.5103 18.9887C2.02314 18.9668 2.75904 18.9853 3.61919 19.1908C4.06466 19.2539 4.5273 19.3875 4.99931 19.58C5.4856 19.7442 5.99576 19.936 6.47312 20.23C7.48719 20.719 8.42854 21.4799 9.29851 22.2883C10.1466 23.1255 10.889 24.0559 11.4609 25.001C12.0407 25.9392 12.4685 26.8744 12.7587 27.699C13.3599 29.345 13.392 30.5293 13.392 30.5293Z" fill="#24774A"/>
<path d="M17.7436 28.2551C17.6766 29.1956 17.7547 30.1918 17.5058 31.173C17.409 31.6638 17.3347 32.1657 17.2084 32.6563L16.7212 34.1095C16.5095 34.8381 16.1192 35.4847 15.7511 36.1352C15.6211 36.3658 15.491 36.5999 15.3757 36.8379C14.8479 37.6853 14.1751 38.4176 13.6027 39.1683C12.9338 39.8339 12.2387 40.4322 11.6032 41.0008C10.9527 41.5584 10.2277 41.9412 9.61072 42.3502C9.26496 42.5844 8.92679 42.7925 8.59598 42.9636C8.34325 43.1009 8.09051 43.2163 7.84514 43.3055C7.29505 43.5397 6.81545 43.7441 6.42151 43.9149C5.69677 44.2122 5.25063 44.3722 5.1875 44.3945C5.23947 44.3461 5.61111 44.0414 6.2357 43.5729C6.57387 43.324 6.98276 43.0194 7.4512 42.6735C7.93794 42.3539 8.41374 41.9005 8.93795 41.4246C9.44721 40.9339 10.0566 40.4732 10.6069 39.8933C11.1347 39.3023 11.6884 38.6777 12.261 38.0311C12.7368 37.3137 13.2534 36.5963 13.7254 35.8416C13.9597 35.3101 14.2755 34.8084 14.5283 34.2768C14.6621 33.998 14.7774 33.7083 14.8555 33.4033L15.3201 32.1321C15.4426 31.7011 15.5133 31.255 15.6137 30.82C15.8479 29.9576 15.8702 29.0693 15.9891 28.2181C15.9706 27.363 16.0784 26.5232 15.9891 25.7278C15.9483 24.9285 15.8776 24.1739 15.7734 23.4752C15.5729 22.0815 15.3536 20.8994 15.112 20.0964C14.9186 19.3344 14.7698 18.8771 14.7549 18.8213C14.7886 18.866 15.0859 19.2454 15.4725 19.9478C15.8738 20.7023 16.45 21.7989 16.8885 23.2187C17.1192 23.9249 17.3347 24.7092 17.4647 25.5569C17.6581 26.3967 17.6766 27.3111 17.7436 28.2551Z" fill="#24774A"/>
<path d="M34.4311 10.7131C35.6455 10.045 35.9163 9.01351 36.3865 8.20466C36.6477 7.75518 36.9703 7.3744 37.5505 7.16316C36.9642 7.35678 36.4748 7.25774 35.9914 7.06679C35.1212 6.72349 34.2693 6.08195 32.9024 6.31037C30.4511 6.7197 30.3505 8.25597 30.4656 9.02131L30.4547 8.98964L30.8399 10.0831L30.8553 10.1255C31.2394 10.7974 32.2537 11.9109 34.4311 10.7131Z" fill="#42967E"/>
<path d="M33.3358 17.8425C34.5915 16.8541 34.7057 15.6301 35.088 14.6216C35.3006 14.0611 35.5962 13.5674 36.2163 13.2179C35.5859 13.5484 35.0108 13.5279 34.4251 13.4017C33.3706 13.1748 32.2807 12.6055 30.769 13.1222C28.0583 14.0488 28.2327 15.815 28.5073 16.6638L28.4888 16.6299L29.1328 17.8012L29.1582 17.8465C29.7215 18.5385 31.0846 19.6141 33.3358 17.8425Z" fill="#328645"/>
<path d="M5.73903 10.714C4.54093 10.0171 4.29444 8.9796 3.84384 8.15982C3.59356 7.70409 3.28015 7.31573 2.70508 7.09066C3.28639 7.29833 3.77804 7.21111 4.26589 7.03177C5.1441 6.70899 6.01095 6.08819 7.37211 6.34873C9.8127 6.81628 9.87672 8.35456 9.74355 9.11701L9.75537 9.08555L9.34426 10.1697L9.32775 10.2116C8.92801 10.8741 7.88718 11.9631 5.73903 10.714Z" fill="#98C446"/>
<path d="M6.87462 17.8425C5.61897 16.8541 5.50454 15.6301 5.1222 14.6216C4.90961 14.0611 4.61427 13.5674 3.99414 13.2179C4.62453 13.5484 5.1996 13.5279 5.78538 13.4017C6.83982 13.1748 7.92951 12.6055 9.44147 13.1222C12.1522 14.0488 11.9778 15.815 11.7029 16.6638L11.7214 16.6299L11.0774 17.8012L11.0522 17.8465C10.489 18.5385 9.1256 19.6141 6.87462 17.8425Z" fill="#31B04D"/>
</svg>
